%TF.GenerationSoftware,KiCad,Pcbnew,8.0.0-rc2*%
%TF.CreationDate,2024-01-29T20:33:42-05:00*%
%TF.ProjectId,stm32-snake-controller,73746d33-322d-4736-9e61-6b652d636f6e,C*%
%TF.SameCoordinates,Original*%
%TF.FileFunction,Copper,L1,Top*%
%TF.FilePolarity,Positive*%
%FSLAX46Y46*%
G04 Gerber Fmt 4.6, Leading zero omitted, Abs format (unit mm)*
G04 Created by KiCad (PCBNEW 8.0.0-rc2) date 2024-01-29 20:33:42*
%MOMM*%
%LPD*%
G01*
G04 APERTURE LIST*
G04 Aperture macros list*
%AMRoundRect*
0 Rectangle with rounded corners*
0 $1 Rounding radius*
0 $2 $3 $4 $5 $6 $7 $8 $9 X,Y pos of 4 corners*
0 Add a 4 corners polygon primitive as box body*
4,1,4,$2,$3,$4,$5,$6,$7,$8,$9,$2,$3,0*
0 Add four circle primitives for the rounded corners*
1,1,$1+$1,$2,$3*
1,1,$1+$1,$4,$5*
1,1,$1+$1,$6,$7*
1,1,$1+$1,$8,$9*
0 Add four rect primitives between the rounded corners*
20,1,$1+$1,$2,$3,$4,$5,0*
20,1,$1+$1,$4,$5,$6,$7,0*
20,1,$1+$1,$6,$7,$8,$9,0*
20,1,$1+$1,$8,$9,$2,$3,0*%
G04 Aperture macros list end*
%TA.AperFunction,ComponentPad*%
%ADD10C,3.200000*%
%TD*%
%TA.AperFunction,ComponentPad*%
%ADD11RoundRect,0.800000X0.800000X0.800000X-0.800000X0.800000X-0.800000X-0.800000X0.800000X-0.800000X0*%
%TD*%
%TA.AperFunction,SMDPad,CuDef*%
%ADD12RoundRect,0.150000X0.512500X0.150000X-0.512500X0.150000X-0.512500X-0.150000X0.512500X-0.150000X0*%
%TD*%
%TA.AperFunction,SMDPad,CuDef*%
%ADD13RoundRect,0.200000X-0.200000X-0.275000X0.200000X-0.275000X0.200000X0.275000X-0.200000X0.275000X0*%
%TD*%
%TA.AperFunction,SMDPad,CuDef*%
%ADD14RoundRect,0.225000X0.250000X-0.225000X0.250000X0.225000X-0.250000X0.225000X-0.250000X-0.225000X0*%
%TD*%
%TA.AperFunction,SMDPad,CuDef*%
%ADD15RoundRect,0.250000X0.325000X0.450000X-0.325000X0.450000X-0.325000X-0.450000X0.325000X-0.450000X0*%
%TD*%
%TA.AperFunction,ComponentPad*%
%ADD16R,1.650000X1.650000*%
%TD*%
%TA.AperFunction,ComponentPad*%
%ADD17C,1.650000*%
%TD*%
%TA.AperFunction,SMDPad,CuDef*%
%ADD18R,1.800000X1.000000*%
%TD*%
%TA.AperFunction,SMDPad,CuDef*%
%ADD19RoundRect,0.225000X0.225000X0.250000X-0.225000X0.250000X-0.225000X-0.250000X0.225000X-0.250000X0*%
%TD*%
%TA.AperFunction,SMDPad,CuDef*%
%ADD20R,1.000000X0.750000*%
%TD*%
%TA.AperFunction,SMDPad,CuDef*%
%ADD21RoundRect,0.250000X0.650000X-1.000000X0.650000X1.000000X-0.650000X1.000000X-0.650000X-1.000000X0*%
%TD*%
%TA.AperFunction,SMDPad,CuDef*%
%ADD22RoundRect,0.218750X0.218750X0.256250X-0.218750X0.256250X-0.218750X-0.256250X0.218750X-0.256250X0*%
%TD*%
%TA.AperFunction,SMDPad,CuDef*%
%ADD23RoundRect,0.200000X-0.275000X0.200000X-0.275000X-0.200000X0.275000X-0.200000X0.275000X0.200000X0*%
%TD*%
%TA.AperFunction,ComponentPad*%
%ADD24RoundRect,0.250000X0.350000X0.625000X-0.350000X0.625000X-0.350000X-0.625000X0.350000X-0.625000X0*%
%TD*%
%TA.AperFunction,ComponentPad*%
%ADD25O,1.200000X1.750000*%
%TD*%
%TA.AperFunction,SMDPad,CuDef*%
%ADD26RoundRect,0.150000X-0.587500X-0.150000X0.587500X-0.150000X0.587500X0.150000X-0.587500X0.150000X0*%
%TD*%
%TA.AperFunction,SMDPad,CuDef*%
%ADD27RoundRect,0.200000X0.275000X-0.200000X0.275000X0.200000X-0.275000X0.200000X-0.275000X-0.200000X0*%
%TD*%
%TA.AperFunction,SMDPad,CuDef*%
%ADD28RoundRect,0.225000X-0.225000X-0.250000X0.225000X-0.250000X0.225000X0.250000X-0.225000X0.250000X0*%
%TD*%
%TA.AperFunction,SMDPad,CuDef*%
%ADD29RoundRect,0.150000X0.825000X0.150000X-0.825000X0.150000X-0.825000X-0.150000X0.825000X-0.150000X0*%
%TD*%
%TA.AperFunction,SMDPad,CuDef*%
%ADD30R,1.400000X1.200000*%
%TD*%
%TA.AperFunction,SMDPad,CuDef*%
%ADD31RoundRect,0.150000X-0.150000X0.512500X-0.150000X-0.512500X0.150000X-0.512500X0.150000X0.512500X0*%
%TD*%
%TA.AperFunction,ComponentPad*%
%ADD32O,3.400000X2.000000*%
%TD*%
%TA.AperFunction,ComponentPad*%
%ADD33R,4.000000X2.000000*%
%TD*%
%TA.AperFunction,ComponentPad*%
%ADD34O,2.000000X3.300000*%
%TD*%
%TA.AperFunction,SMDPad,CuDef*%
%ADD35RoundRect,0.225000X-0.250000X0.225000X-0.250000X-0.225000X0.250000X-0.225000X0.250000X0.225000X0*%
%TD*%
%TA.AperFunction,SMDPad,CuDef*%
%ADD36RoundRect,0.200000X0.200000X0.275000X-0.200000X0.275000X-0.200000X-0.275000X0.200000X-0.275000X0*%
%TD*%
%TA.AperFunction,ComponentPad*%
%ADD37RoundRect,0.687500X-0.687500X-0.687500X0.687500X-0.687500X0.687500X0.687500X-0.687500X0.687500X0*%
%TD*%
%TA.AperFunction,ComponentPad*%
%ADD38C,2.750000*%
%TD*%
%TA.AperFunction,ComponentPad*%
%ADD39RoundRect,0.250000X0.625000X-0.350000X0.625000X0.350000X-0.625000X0.350000X-0.625000X-0.350000X0*%
%TD*%
%TA.AperFunction,ComponentPad*%
%ADD40O,1.750000X1.200000*%
%TD*%
%TA.AperFunction,SMDPad,CuDef*%
%ADD41C,0.787000*%
%TD*%
%TA.AperFunction,SMDPad,CuDef*%
%ADD42RoundRect,0.075000X-0.075000X0.700000X-0.075000X-0.700000X0.075000X-0.700000X0.075000X0.700000X0*%
%TD*%
%TA.AperFunction,SMDPad,CuDef*%
%ADD43RoundRect,0.075000X-0.700000X0.075000X-0.700000X-0.075000X0.700000X-0.075000X0.700000X0.075000X0*%
%TD*%
%TA.AperFunction,ComponentPad*%
%ADD44RoundRect,0.250000X-0.350000X-0.625000X0.350000X-0.625000X0.350000X0.625000X-0.350000X0.625000X0*%
%TD*%
%TA.AperFunction,ComponentPad*%
%ADD45RoundRect,0.687500X0.687500X0.687500X-0.687500X0.687500X-0.687500X-0.687500X0.687500X-0.687500X0*%
%TD*%
%TA.AperFunction,SMDPad,CuDef*%
%ADD46RoundRect,0.250000X-0.625000X0.375000X-0.625000X-0.375000X0.625000X-0.375000X0.625000X0.375000X0*%
%TD*%
%TA.AperFunction,ComponentPad*%
%ADD47R,1.524000X1.524000*%
%TD*%
%TA.AperFunction,ComponentPad*%
%ADD48C,1.524000*%
%TD*%
%TA.AperFunction,ComponentPad*%
%ADD49C,3.500000*%
%TD*%
%TA.AperFunction,ComponentPad*%
%ADD50C,1.500000*%
%TD*%
%TA.AperFunction,SMDPad,CuDef*%
%ADD51RoundRect,0.575000X-1.625000X-0.575000X1.625000X-0.575000X1.625000X0.575000X-1.625000X0.575000X0*%
%TD*%
%TA.AperFunction,SMDPad,CuDef*%
%ADD52RoundRect,0.575000X-1.425000X-0.575000X1.425000X-0.575000X1.425000X0.575000X-1.425000X0.575000X0*%
%TD*%
%TA.AperFunction,ViaPad*%
%ADD53C,1.200000*%
%TD*%
%TA.AperFunction,ViaPad*%
%ADD54C,0.800000*%
%TD*%
%TA.AperFunction,Conductor*%
%ADD55C,0.500000*%
%TD*%
%TA.AperFunction,Conductor*%
%ADD56C,0.250000*%
%TD*%
%TA.AperFunction,Conductor*%
%ADD57C,0.267200*%
%TD*%
G04 APERTURE END LIST*
D10*
%TO.P,SW102,3,C*%
%TO.N,unconnected-(SW102-C-Pad3)*%
X88012000Y61214000D03*
%TO.P,SW102,2,B*%
%TO.N,VBUS*%
X83312000Y61214000D03*
D11*
%TO.P,SW102,1,A*%
%TO.N,Net-(SW102-A)*%
X78612000Y61214000D03*
%TD*%
D12*
%TO.P,U302,1*%
%TO.N,GND*%
X15920300Y33340000D03*
%TO.P,U302,2*%
%TO.N,/LED_GRID1*%
X15920300Y34290000D03*
%TO.P,U302,3,GND*%
%TO.N,GND*%
X15920300Y35240000D03*
%TO.P,U302,4*%
%TO.N,Net-(R302-Pad1)*%
X13645300Y35240000D03*
%TO.P,U302,5,VCC*%
%TO.N,+5V*%
X13645300Y33340000D03*
%TD*%
D13*
%TO.P,R103,1*%
%TO.N,Net-(D104-K)*%
X60516000Y69596000D03*
%TO.P,R103,2*%
%TO.N,GND*%
X62166000Y69596000D03*
%TD*%
D12*
%TO.P,U101,1,I/O1*%
%TO.N,/USB_D_N*%
X77083500Y23688000D03*
%TO.P,U101,2,GND*%
%TO.N,GND*%
X77083500Y24638000D03*
%TO.P,U101,3,I/O2*%
%TO.N,/USB_D_P*%
X77083500Y25588000D03*
%TO.P,U101,4,I/O2*%
%TO.N,/D_P*%
X74808500Y25588000D03*
%TO.P,U101,5,VBUS*%
%TO.N,/USB_OTG_VSEN*%
X74808500Y24638000D03*
%TO.P,U101,6,I/O1*%
%TO.N,/D_N*%
X74808500Y23688000D03*
%TD*%
D14*
%TO.P,C110,1*%
%TO.N,/NRST*%
X75184000Y4305000D03*
%TO.P,C110,2*%
%TO.N,GND*%
X75184000Y5855000D03*
%TD*%
D15*
%TO.P,FB101,1*%
%TO.N,+3.3VA*%
X36585000Y46101000D03*
%TO.P,FB101,2*%
%TO.N,+3V3*%
X34535000Y46101000D03*
%TD*%
D16*
%TO.P,J302,1,Pin_1*%
%TO.N,GND*%
X4562000Y36830000D03*
D17*
%TO.P,J302,2,Pin_2*%
%TO.N,Net-(J302-Pin_2)*%
X4562000Y34290000D03*
%TO.P,J302,3,Pin_3*%
%TO.N,VBUS*%
X4562000Y31750000D03*
%TD*%
D18*
%TO.P,Y101,1,1*%
%TO.N,/LSE_OUT*%
X46609000Y43795000D03*
%TO.P,Y101,2,2*%
%TO.N,/LSE_IN*%
X46609000Y41295000D03*
%TD*%
D19*
%TO.P,C108,1*%
%TO.N,+3.3VA*%
X36703000Y44323000D03*
%TO.P,C108,2*%
%TO.N,GND*%
X35153000Y44323000D03*
%TD*%
D20*
%TO.P,SW101,1,1*%
%TO.N,/NRST*%
X73358000Y4221000D03*
X67358000Y4221000D03*
%TO.P,SW101,2,2*%
%TO.N,GND*%
X73358000Y7971000D03*
X67358000Y7971000D03*
%TD*%
D21*
%TO.P,D102,1,K*%
%TO.N,/VBAT*%
X53213000Y43212000D03*
%TO.P,D102,2,A*%
%TO.N,+3V3*%
X53213000Y47212000D03*
%TD*%
D22*
%TO.P,D103,1,K*%
%TO.N,Net-(D103-K)*%
X57510000Y27432000D03*
%TO.P,D103,2,A*%
%TO.N,/LED_HB*%
X55935000Y27432000D03*
%TD*%
D23*
%TO.P,R502,1*%
%TO.N,/USB_OTG_EN*%
X68961000Y15938000D03*
%TO.P,R502,2*%
%TO.N,+3V3*%
X68961000Y14288000D03*
%TD*%
D24*
%TO.P,J102,1,Pin_1*%
%TO.N,+5V*%
X30226000Y51562000D03*
D25*
%TO.P,J102,2,Pin_2*%
%TO.N,/UART_TX*%
X28226000Y51562000D03*
%TO.P,J102,3,Pin_3*%
%TO.N,/UART_RX*%
X26226000Y51562000D03*
%TO.P,J102,4,Pin_4*%
%TO.N,GND*%
X24226000Y51562000D03*
%TD*%
D14*
%TO.P,C113,1*%
%TO.N,Net-(C113-Pad1)*%
X40470000Y45873000D03*
%TO.P,C113,2*%
%TO.N,GND*%
X40470000Y47423000D03*
%TD*%
D26*
%TO.P,Q101,3,D*%
%TO.N,/BAT+*%
X57960500Y43561000D03*
%TO.P,Q101,2,S*%
%TO.N,/VBAT*%
X56085500Y42611000D03*
%TO.P,Q101,1,G*%
%TO.N,+3V3*%
X56085500Y44511000D03*
%TD*%
D19*
%TO.P,C109,1*%
%TO.N,+3.3VA*%
X36703000Y42799000D03*
%TO.P,C109,2*%
%TO.N,GND*%
X35153000Y42799000D03*
%TD*%
D23*
%TO.P,R108,1*%
%TO.N,/SCL*%
X76703000Y34480000D03*
%TO.P,R108,2*%
%TO.N,+3V3*%
X76703000Y32830000D03*
%TD*%
D27*
%TO.P,R107,1*%
%TO.N,/SDA*%
X76708000Y36513000D03*
%TO.P,R107,2*%
%TO.N,+3V3*%
X76708000Y38163000D03*
%TD*%
D28*
%TO.P,C106,1*%
%TO.N,+3V3*%
X45072000Y26416000D03*
%TO.P,C106,2*%
%TO.N,GND*%
X46622000Y26416000D03*
%TD*%
D21*
%TO.P,D101,1,K*%
%TO.N,/LDO_3V3/5V*%
X86360000Y46133000D03*
%TO.P,D101,2,A*%
%TO.N,+5V*%
X86360000Y50133000D03*
%TD*%
D29*
%TO.P,U102,1,E0*%
%TO.N,GND*%
X64451000Y32131000D03*
%TO.P,U102,2,E1*%
X64451000Y33401000D03*
%TO.P,U102,3,E2*%
X64451000Y34671000D03*
%TO.P,U102,4,VSS*%
X64451000Y35941000D03*
%TO.P,U102,5,SDA*%
%TO.N,/SDA*%
X59501000Y35941000D03*
%TO.P,U102,6,SCL*%
%TO.N,/SCL*%
X59501000Y34671000D03*
%TO.P,U102,7,~{WC}*%
%TO.N,/~{EEPROM}*%
X59501000Y33401000D03*
%TO.P,U102,8,VCC*%
%TO.N,+3V3*%
X59501000Y32131000D03*
%TD*%
D30*
%TO.P,Y102,1,1*%
%TO.N,/HSE_IN*%
X44534000Y47586000D03*
%TO.P,Y102,2,2*%
%TO.N,GND*%
X42334000Y47586000D03*
%TO.P,Y102,3,3*%
%TO.N,Net-(C113-Pad1)*%
X42334000Y45886000D03*
%TO.P,Y102,4,4*%
%TO.N,GND*%
X44534000Y45886000D03*
%TD*%
D31*
%TO.P,U501,1,OUT*%
%TO.N,/USB_OTG_VSEN*%
X78865000Y18536500D03*
%TO.P,U501,2,GND*%
%TO.N,GND*%
X77915000Y18536500D03*
%TO.P,U501,3,~{FAULT}*%
%TO.N,/USB_OTG_OC*%
X76965000Y18536500D03*
%TO.P,U501,4,EN*%
%TO.N,/USB_OTG_EN*%
X76965000Y16261500D03*
%TO.P,U501,5,IN*%
%TO.N,+5V*%
X78865000Y16261500D03*
%TD*%
D28*
%TO.P,C101,1*%
%TO.N,/VBAT*%
X52819000Y40775000D03*
%TO.P,C101,2*%
%TO.N,GND*%
X54369000Y40775000D03*
%TD*%
D16*
%TO.P,J301,1,Pin_1*%
%TO.N,GND*%
X4562000Y47371000D03*
D17*
%TO.P,J301,2,Pin_2*%
%TO.N,Net-(J301-Pin_2)*%
X4562000Y44831000D03*
%TO.P,J301,3,Pin_3*%
%TO.N,VBUS*%
X4562000Y42291000D03*
%TD*%
D19*
%TO.P,C104,1*%
%TO.N,+3V3*%
X30874000Y37973000D03*
%TO.P,C104,2*%
%TO.N,GND*%
X29324000Y37973000D03*
%TD*%
D28*
%TO.P,C102,1*%
%TO.N,/VBAT*%
X52819000Y39116000D03*
%TO.P,C102,2*%
%TO.N,GND*%
X54369000Y39116000D03*
%TD*%
%TO.P,C107,1*%
%TO.N,+3V3*%
X48187000Y37817000D03*
%TO.P,C107,2*%
%TO.N,GND*%
X49737000Y37817000D03*
%TD*%
D13*
%TO.P,R105,1*%
%TO.N,Net-(D106-K)*%
X58992000Y29342000D03*
%TO.P,R105,2*%
%TO.N,GND*%
X60642000Y29342000D03*
%TD*%
D32*
%TO.P,J101,2*%
%TO.N,GND*%
X69977000Y66079500D03*
D33*
%TO.P,J101,1*%
%TO.N,Net-(SW102-A)*%
X69977000Y60079500D03*
D34*
%TO.P,J101,*%
%TO.N,*%
X65477000Y67129500D03*
X74477000Y67129500D03*
%TD*%
D19*
%TO.P,C114,1*%
%TO.N,GND*%
X50178000Y43815000D03*
%TO.P,C114,2*%
%TO.N,/LSE_OUT*%
X48628000Y43815000D03*
%TD*%
D22*
%TO.P,D105,1,K*%
%TO.N,Net-(D105-K)*%
X58953500Y2667000D03*
%TO.P,D105,2,A*%
%TO.N,/LED_SNES0*%
X57378500Y2667000D03*
%TD*%
D35*
%TO.P,C501,1*%
%TO.N,/USB_OTG_VSEN*%
X81280000Y21222000D03*
%TO.P,C501,2*%
%TO.N,GND*%
X81280000Y19672000D03*
%TD*%
D36*
%TO.P,R106,1*%
%TO.N,/HSE_OUT*%
X42057000Y44196000D03*
%TO.P,R106,2*%
%TO.N,Net-(C113-Pad1)*%
X40407000Y44196000D03*
%TD*%
D12*
%TO.P,U301,1*%
%TO.N,GND*%
X15869500Y38928000D03*
%TO.P,U301,2*%
%TO.N,/LED_GRID0*%
X15869500Y39878000D03*
%TO.P,U301,3,GND*%
%TO.N,GND*%
X15869500Y40828000D03*
%TO.P,U301,4*%
%TO.N,Net-(R301-Pad1)*%
X13594500Y40828000D03*
%TO.P,U301,5,VCC*%
%TO.N,+5V*%
X13594500Y38928000D03*
%TD*%
D37*
%TO.P,J401,1,Pin_1*%
%TO.N,+3V3*%
X22942000Y13335000D03*
D38*
%TO.P,J401,2,Pin_2*%
%TO.N,/SNES_CLK*%
X26942000Y13335000D03*
%TO.P,J401,3,Pin_3*%
%TO.N,/SNES_LATCH*%
X30942000Y13335000D03*
%TO.P,J401,4,Pin_4*%
%TO.N,/SNES_DATA0*%
X34942000Y13335000D03*
%TO.P,J401,5,Pin_5*%
%TO.N,unconnected-(J401-Pin_5-Pad5)*%
X41442000Y13335000D03*
%TO.P,J401,6,Pin_6*%
%TO.N,unconnected-(J401-Pin_6-Pad6)*%
X45442000Y13335000D03*
%TO.P,J401,7,Pin_7*%
%TO.N,GND*%
X49442000Y13335000D03*
%TD*%
D39*
%TO.P,OLED101,1,GND*%
%TO.N,GND*%
X72390000Y30480000D03*
D40*
%TO.P,OLED101,2,VCC*%
%TO.N,+3V3*%
X72390000Y32480000D03*
%TO.P,OLED101,3,SCL*%
%TO.N,/SCL*%
X72390000Y34480000D03*
%TO.P,OLED101,4,SDA*%
%TO.N,/SDA*%
X72390000Y36480000D03*
%TD*%
D27*
%TO.P,R501,1*%
%TO.N,/USB_OTG_OC*%
X68834000Y19495000D03*
%TO.P,R501,2*%
%TO.N,+3V3*%
X68834000Y21145000D03*
%TD*%
D41*
%TO.P,J103,1,Pin_1*%
%TO.N,unconnected-(J103-Pin_1-Pad1)*%
X48387000Y21971000D03*
%TO.P,J103,2,Pin_2*%
%TO.N,/SWDIO*%
X48387000Y23241000D03*
%TO.P,J103,3,Pin_3*%
%TO.N,/NRST*%
X49657000Y21971000D03*
%TO.P,J103,4,Pin_4*%
%TO.N,/SWCLK*%
X49657000Y23241000D03*
%TO.P,J103,5,Pin_5*%
%TO.N,GND*%
X50927000Y21971000D03*
%TO.P,J103,6,Pin_6*%
%TO.N,/SWO*%
X50927000Y23241000D03*
%TD*%
D13*
%TO.P,R101,1*%
%TO.N,Net-(D103-K)*%
X58992000Y27432000D03*
%TO.P,R101,2*%
%TO.N,GND*%
X60642000Y27432000D03*
%TD*%
D14*
%TO.P,C201,1*%
%TO.N,GND*%
X83312000Y40881000D03*
%TO.P,C201,2*%
%TO.N,/LDO_3V3/5V*%
X83312000Y42431000D03*
%TD*%
D27*
%TO.P,R301,1*%
%TO.N,Net-(R301-Pad1)*%
X11480800Y40958000D03*
%TO.P,R301,2*%
%TO.N,Net-(J301-Pin_2)*%
X11480800Y42608000D03*
%TD*%
D19*
%TO.P,C112,1*%
%TO.N,/HSE_IN*%
X44844000Y49403000D03*
%TO.P,C112,2*%
%TO.N,GND*%
X43294000Y49403000D03*
%TD*%
D12*
%TO.P,U201,1,VIN*%
%TO.N,/LDO_3V3/5V*%
X83142500Y44026000D03*
%TO.P,U201,2,GND*%
%TO.N,GND*%
X83142500Y44976000D03*
%TO.P,U201,3,CE*%
%TO.N,/LDO_3V3/5V*%
X83142500Y45926000D03*
%TO.P,U201,4,NC*%
%TO.N,unconnected-(U201-NC-Pad4)*%
X80867500Y45926000D03*
%TO.P,U201,5,VOUT*%
%TO.N,+3V3*%
X80867500Y44026000D03*
%TD*%
D13*
%TO.P,R110,1*%
%TO.N,Net-(OLED102-MOSI)*%
X29782000Y34671000D03*
%TO.P,R110,2*%
%TO.N,/MOSI*%
X31432000Y34671000D03*
%TD*%
D35*
%TO.P,C202,1*%
%TO.N,+3V3*%
X80772000Y42431000D03*
%TO.P,C202,2*%
%TO.N,GND*%
X80772000Y40881000D03*
%TD*%
D42*
%TO.P,U103,1,VBAT*%
%TO.N,/VBAT*%
X43882000Y39584000D03*
%TO.P,U103,2,PC13*%
%TO.N,unconnected-(U103-PC13-Pad2)*%
X43382000Y39584000D03*
%TO.P,U103,3,PC14*%
%TO.N,/LSE_IN*%
X42882000Y39584000D03*
%TO.P,U103,4,PC15*%
%TO.N,/LSE_OUT*%
X42382000Y39584000D03*
%TO.P,U103,5,PH0*%
%TO.N,/HSE_IN*%
X41882000Y39584000D03*
%TO.P,U103,6,PH1*%
%TO.N,/HSE_OUT*%
X41382000Y39584000D03*
%TO.P,U103,7,NRST*%
%TO.N,/NRST*%
X40882000Y39584000D03*
%TO.P,U103,8,PC0*%
%TO.N,unconnected-(U103-PC0-Pad8)*%
X40382000Y39584000D03*
%TO.P,U103,9,PC1*%
%TO.N,unconnected-(U103-PC1-Pad9)*%
X39882000Y39584000D03*
%TO.P,U103,10,PC2*%
%TO.N,/LED_SNES1*%
X39382000Y39584000D03*
%TO.P,U103,11,PC3*%
%TO.N,/SNES_DATA1*%
X38882000Y39584000D03*
%TO.P,U103,12,VSSA*%
%TO.N,GND*%
X38382000Y39584000D03*
%TO.P,U103,13,VREF+*%
%TO.N,+3.3VA*%
X37882000Y39584000D03*
%TO.P,U103,14,PA0*%
%TO.N,unconnected-(U103-PA0-Pad14)*%
X37382000Y39584000D03*
%TO.P,U103,15,PA1*%
%TO.N,unconnected-(U103-PA1-Pad15)*%
X36882000Y39584000D03*
%TO.P,U103,16,PA2*%
%TO.N,/UART_TX*%
X36382000Y39584000D03*
D43*
%TO.P,U103,17,PA3*%
%TO.N,/UART_RX*%
X34457000Y37659000D03*
%TO.P,U103,18,VSS*%
%TO.N,GND*%
X34457000Y37159000D03*
%TO.P,U103,19,VDD*%
%TO.N,+3V3*%
X34457000Y36659000D03*
%TO.P,U103,20,PA4*%
%TO.N,unconnected-(U103-PA4-Pad20)*%
X34457000Y36159000D03*
%TO.P,U103,21,PA5*%
%TO.N,/SPI_CLK*%
X34457000Y35659000D03*
%TO.P,U103,22,PA6*%
%TO.N,/LED_GRID0*%
X34457000Y35159000D03*
%TO.P,U103,23,PA7*%
%TO.N,/MOSI*%
X34457000Y34659000D03*
%TO.P,U103,24,PC4*%
%TO.N,unconnected-(U103-PC4-Pad24)*%
X34457000Y34159000D03*
%TO.P,U103,25,PC5*%
%TO.N,/OLED_RST*%
X34457000Y33659000D03*
%TO.P,U103,26,PB0*%
%TO.N,/LED_GRID1*%
X34457000Y33159000D03*
%TO.P,U103,27,PB1*%
%TO.N,/OLED_CE*%
X34457000Y32659000D03*
%TO.P,U103,28,PB2*%
%TO.N,/OLED_DC*%
X34457000Y32159000D03*
%TO.P,U103,29,PB10*%
%TO.N,unconnected-(U103-PB10-Pad29)*%
X34457000Y31659000D03*
%TO.P,U103,30,VCAP1*%
%TO.N,Net-(U103-VCAP1)*%
X34457000Y31159000D03*
%TO.P,U103,31,VSS*%
%TO.N,GND*%
X34457000Y30659000D03*
%TO.P,U103,32,VDD*%
%TO.N,+3V3*%
X34457000Y30159000D03*
D42*
%TO.P,U103,33,PB12*%
%TO.N,unconnected-(U103-PB12-Pad33)*%
X36382000Y28234000D03*
%TO.P,U103,34,PB13*%
%TO.N,/SNES_LATCH*%
X36882000Y28234000D03*
%TO.P,U103,35,PB14*%
%TO.N,/SNES_CLK*%
X37382000Y28234000D03*
%TO.P,U103,36,PB15*%
%TO.N,unconnected-(U103-PB15-Pad36)*%
X37882000Y28234000D03*
%TO.P,U103,37,PC6*%
%TO.N,unconnected-(U103-PC6-Pad37)*%
X38382000Y28234000D03*
%TO.P,U103,38,PC7*%
%TO.N,/SNES_DATA0*%
X38882000Y28234000D03*
%TO.P,U103,39,PC8*%
%TO.N,/LED_SNES0*%
X39382000Y28234000D03*
%TO.P,U103,40,PC9*%
%TO.N,unconnected-(U103-PC9-Pad40)*%
X39882000Y28234000D03*
%TO.P,U103,41,PA8*%
%TO.N,/USB_OTG_EN*%
X40382000Y28234000D03*
%TO.P,U103,42,PA9*%
%TO.N,/USB_OTG_VSEN*%
X40882000Y28234000D03*
%TO.P,U103,43,PA10*%
%TO.N,/USB_OTG_OC*%
X41382000Y28234000D03*
%TO.P,U103,44,PA11*%
%TO.N,/D_N*%
X41882000Y28234000D03*
%TO.P,U103,45,PA12*%
%TO.N,/D_P*%
X42382000Y28234000D03*
%TO.P,U103,46,PA13*%
%TO.N,/SWDIO*%
X42882000Y28234000D03*
%TO.P,U103,47,VSS*%
%TO.N,GND*%
X43382000Y28234000D03*
%TO.P,U103,48,VDD*%
%TO.N,+3V3*%
X43882000Y28234000D03*
D43*
%TO.P,U103,49,PA14*%
%TO.N,/SWCLK*%
X45807000Y30159000D03*
%TO.P,U103,50,PA15*%
%TO.N,unconnected-(U103-PA15-Pad50)*%
X45807000Y30659000D03*
%TO.P,U103,51,PC10*%
%TO.N,unconnected-(U103-PC10-Pad51)*%
X45807000Y31159000D03*
%TO.P,U103,52,PC11*%
%TO.N,unconnected-(U103-PC11-Pad52)*%
X45807000Y31659000D03*
%TO.P,U103,53,PC12*%
%TO.N,/LED_HB*%
X45807000Y32159000D03*
%TO.P,U103,54,PD2*%
%TO.N,unconnected-(U103-PD2-Pad54)*%
X45807000Y32659000D03*
%TO.P,U103,55,PB3*%
%TO.N,/SWO*%
X45807000Y33159000D03*
%TO.P,U103,56,PB4*%
%TO.N,/~{EEPROM}*%
X45807000Y33659000D03*
%TO.P,U103,57,PB5*%
%TO.N,unconnected-(U103-PB5-Pad57)*%
X45807000Y34159000D03*
%TO.P,U103,58,PB6*%
%TO.N,/SCL*%
X45807000Y34659000D03*
%TO.P,U103,59,PB7*%
%TO.N,/SDA*%
X45807000Y35159000D03*
%TO.P,U103,60,BOOT0*%
%TO.N,Net-(U103-BOOT0)*%
X45807000Y35659000D03*
%TO.P,U103,61,PB8*%
%TO.N,unconnected-(U103-PB8-Pad61)*%
X45807000Y36159000D03*
%TO.P,U103,62,PB9*%
%TO.N,unconnected-(U103-PB9-Pad62)*%
X45807000Y36659000D03*
%TO.P,U103,63,VSS*%
%TO.N,GND*%
X45807000Y37159000D03*
%TO.P,U103,64,VDD*%
%TO.N,+3V3*%
X45807000Y37659000D03*
%TD*%
D44*
%TO.P,OLED102,1,GND*%
%TO.N,GND*%
X16320000Y21209000D03*
D25*
%TO.P,OLED102,2,VCC*%
%TO.N,+5V*%
X18320000Y21209000D03*
%TO.P,OLED102,3,SCLK*%
%TO.N,Net-(OLED102-SCLK)*%
X20320000Y21209000D03*
%TO.P,OLED102,4,MOSI*%
%TO.N,Net-(OLED102-MOSI)*%
X22320000Y21209000D03*
%TO.P,OLED102,5,RESET*%
%TO.N,/OLED_RST*%
X24320000Y21209000D03*
%TO.P,OLED102,6,CS*%
%TO.N,/OLED_CE*%
X26320000Y21209000D03*
%TO.P,OLED102,7,DC*%
%TO.N,/OLED_DC*%
X28320000Y21209000D03*
%TD*%
D19*
%TO.P,C111,1*%
%TO.N,GND*%
X50178000Y41275000D03*
%TO.P,C111,2*%
%TO.N,/LSE_IN*%
X48628000Y41275000D03*
%TD*%
D22*
%TO.P,D106,1,K*%
%TO.N,Net-(D106-K)*%
X57510000Y29337000D03*
%TO.P,D106,2,A*%
%TO.N,+3V3*%
X55935000Y29337000D03*
%TD*%
D27*
%TO.P,R302,1*%
%TO.N,Net-(R302-Pad1)*%
X11531600Y35268400D03*
%TO.P,R302,2*%
%TO.N,Net-(J302-Pin_2)*%
X11531600Y36918400D03*
%TD*%
D22*
%TO.P,D104,1,K*%
%TO.N,Net-(D104-K)*%
X58826500Y69596000D03*
%TO.P,D104,2,A*%
%TO.N,/LED_SNES1*%
X57251500Y69596000D03*
%TD*%
D45*
%TO.P,J402,1,Pin_1*%
%TO.N,+3V3*%
X49982000Y59055000D03*
D38*
%TO.P,J402,2,Pin_2*%
%TO.N,/SNES_CLK*%
X45982000Y59055000D03*
%TO.P,J402,3,Pin_3*%
%TO.N,/SNES_LATCH*%
X41982000Y59055000D03*
%TO.P,J402,4,Pin_4*%
%TO.N,/SNES_DATA1*%
X37982000Y59055000D03*
%TO.P,J402,5,Pin_5*%
%TO.N,unconnected-(J402-Pin_5-Pad5)*%
X31482000Y59055000D03*
%TO.P,J402,6,Pin_6*%
%TO.N,unconnected-(J402-Pin_6-Pad6)*%
X27482000Y59055000D03*
%TO.P,J402,7,Pin_7*%
%TO.N,GND*%
X23482000Y59055000D03*
%TD*%
D46*
%TO.P,F101,1*%
%TO.N,VBUS*%
X83058000Y54486000D03*
%TO.P,F101,2*%
%TO.N,+5V*%
X83058000Y51686000D03*
%TD*%
D47*
%TO.P,J501,1,VBUS*%
%TO.N,/USB_OTG_VSEN*%
X85762000Y21154000D03*
D48*
%TO.P,J501,2,D-*%
%TO.N,/USB_D_N*%
X85762000Y23654000D03*
%TO.P,J501,3,D+*%
%TO.N,/USB_D_P*%
X85762000Y25654000D03*
%TO.P,J501,4,GND*%
%TO.N,GND*%
X85762000Y28154000D03*
D49*
%TO.P,J501,5,Shield*%
X88472000Y18084000D03*
X88472000Y31224000D03*
%TD*%
D19*
%TO.P,C105,1*%
%TO.N,+3V3*%
X31837000Y29718000D03*
%TO.P,C105,2*%
%TO.N,GND*%
X30287000Y29718000D03*
%TD*%
D13*
%TO.P,R104,1*%
%TO.N,Net-(D105-K)*%
X60516000Y2667000D03*
%TO.P,R104,2*%
%TO.N,GND*%
X62166000Y2667000D03*
%TD*%
D19*
%TO.P,C103,1*%
%TO.N,+3V3*%
X31837000Y28194000D03*
%TO.P,C103,2*%
%TO.N,GND*%
X30287000Y28194000D03*
%TD*%
D50*
%TO.P,BT101,*%
%TO.N,*%
X64045000Y47498000D03*
X71545000Y47498000D03*
D51*
%TO.P,BT101,1,+*%
%TO.N,/BAT+*%
X59945000Y47498000D03*
D52*
%TO.P,BT101,2,-*%
%TO.N,GND*%
X75945000Y47498000D03*
%TD*%
D36*
%TO.P,R109,1*%
%TO.N,/SPI_CLK*%
X31432000Y36195000D03*
%TO.P,R109,2*%
%TO.N,Net-(OLED102-SCLK)*%
X29782000Y36195000D03*
%TD*%
%TO.P,R102,1*%
%TO.N,GND*%
X54387000Y37517000D03*
%TO.P,R102,2*%
%TO.N,Net-(U103-BOOT0)*%
X52737000Y37517000D03*
%TD*%
D19*
%TO.P,C115,1*%
%TO.N,Net-(U103-VCAP1)*%
X31837000Y31242000D03*
%TO.P,C115,2*%
%TO.N,GND*%
X30287000Y31242000D03*
%TD*%
D53*
%TO.N,+5V*%
X83185000Y49784000D03*
D54*
%TO.N,VBUS*%
X84201000Y56388000D03*
X82550000Y56388000D03*
X82550000Y58039000D03*
X84201000Y58039000D03*
%TO.N,GND*%
X17272000Y38989000D03*
X29083000Y31242000D03*
X38100000Y24638000D03*
X79756000Y47117000D03*
X67437000Y9525000D03*
X81280000Y18542000D03*
X37490400Y33147000D03*
X55372000Y40767000D03*
X59817000Y22098000D03*
X75946000Y26924000D03*
X81153000Y47498000D03*
X50165000Y42418000D03*
X43366200Y29523200D03*
X45847000Y45847000D03*
X73406000Y9398000D03*
X66167000Y34671000D03*
X29083000Y28194000D03*
X33528000Y42799000D03*
X55372000Y37465000D03*
X55372000Y39116000D03*
X50927000Y37846000D03*
X66167000Y32131000D03*
X63500000Y2667000D03*
X76962000Y20955000D03*
X61087000Y15621000D03*
X34036000Y24892000D03*
X63500000Y69596000D03*
X83312000Y39751000D03*
X38100000Y42164000D03*
X80772000Y39751000D03*
X43815000Y35851500D03*
X17195800Y35179000D03*
X43180000Y50546000D03*
X40513000Y48641000D03*
X50165000Y45085000D03*
X36326653Y36199653D03*
X50927000Y20955000D03*
X17272000Y40955000D03*
X17195800Y33274000D03*
X29083000Y29718000D03*
X66167000Y35941000D03*
X47625000Y26416000D03*
X61722000Y29337000D03*
X29263000Y39075000D03*
X41910000Y49022000D03*
X66167000Y33401000D03*
X75311000Y6985000D03*
X61722000Y27305000D03*
X36169600Y30657800D03*
%TO.N,/NRST*%
X43561000Y22733000D03*
X59944000Y15621000D03*
X40894000Y37846000D03*
X59055000Y21336000D03*
%TO.N,+3V3*%
X68961000Y13081000D03*
X76708000Y39370000D03*
X78232000Y43942000D03*
X31877000Y27051000D03*
X79375000Y42672000D03*
X68834000Y22352000D03*
X53213000Y49530000D03*
X78232000Y42672000D03*
X48260000Y36703000D03*
X57293158Y32131000D03*
X43882000Y26416000D03*
X30874000Y39115000D03*
X77089000Y42672000D03*
X54737000Y29337000D03*
X77089000Y43942000D03*
X76708000Y31017000D03*
X79375000Y43942000D03*
X33274000Y44704000D03*
%TO.N,/VBAT*%
X43882000Y37846000D03*
X51689000Y39116000D03*
%TO.N,+5V*%
X78994000Y13843000D03*
X13589000Y37846000D03*
D53*
X88773000Y51435000D03*
X88773000Y49530000D03*
D54*
X78994000Y14986000D03*
X13589000Y32258000D03*
%TO.N,/LED_HB*%
X49911000Y28956000D03*
X51816000Y28956000D03*
%TO.N,Net-(SW102-A)*%
X66034000Y62484000D03*
X72034000Y62484000D03*
X74034000Y60017000D03*
X68034000Y62484000D03*
X74034000Y62484000D03*
X70034000Y62484000D03*
X66033000Y60017000D03*
%TO.N,/SNES_CLK*%
X35052000Y24892000D03*
X38100000Y25908000D03*
%TO.N,/SNES_LATCH*%
X36449000Y25908000D03*
%TO.N,/LED_GRID0*%
X36423600Y35077400D03*
X18415000Y39878000D03*
%TO.N,/LED_GRID1*%
X36322000Y33147000D03*
X18415000Y34290000D03*
%TD*%
D55*
%TO.N,GND*%
X62166000Y2667000D02*
X63500000Y2667000D01*
D56*
%TO.N,Net-(D105-K)*%
X58953500Y2667000D02*
X60516000Y2667000D01*
%TO.N,/LED_SNES0*%
X57378500Y2667000D02*
X45085000Y2667000D01*
X38562000Y16517000D02*
X39382000Y17337000D01*
X45085000Y2667000D02*
X38562000Y9190000D01*
X38562000Y9190000D02*
X38562000Y16517000D01*
X39382000Y17337000D02*
X39382000Y28234000D01*
D55*
%TO.N,GND*%
X62166000Y69596000D02*
X63500000Y69596000D01*
D56*
%TO.N,Net-(D104-K)*%
X60516000Y69596000D02*
X58826500Y69596000D01*
%TO.N,/LED_SNES1*%
X57251500Y69596000D02*
X47625000Y69596000D01*
X40005000Y61976000D02*
X40005000Y55118000D01*
X40005000Y55118000D02*
X38862000Y53975000D01*
X47625000Y69596000D02*
X40005000Y61976000D01*
X38862000Y53975000D02*
X38862000Y44323000D01*
X38862000Y44323000D02*
X39382000Y43803000D01*
X39382000Y43803000D02*
X39382000Y39584000D01*
%TO.N,/BAT+*%
X59945000Y47498000D02*
X59945000Y44070000D01*
X59945000Y44070000D02*
X59436000Y43561000D01*
X59436000Y43561000D02*
X57960500Y43561000D01*
%TO.N,/VBAT*%
X56085500Y42611000D02*
X56019500Y42545000D01*
X56019500Y42545000D02*
X53880000Y42545000D01*
X53880000Y42545000D02*
X53213000Y43212000D01*
D55*
%TO.N,+3V3*%
X56085500Y44511000D02*
X56085500Y46022500D01*
X56085500Y46022500D02*
X54896000Y47212000D01*
X54896000Y47212000D02*
X53213000Y47212000D01*
D56*
%TO.N,/VBAT*%
X53213000Y43212000D02*
X52819000Y42818000D01*
X52819000Y42818000D02*
X52819000Y40775000D01*
D55*
%TO.N,+3V3*%
X53213000Y47212000D02*
X53213000Y49530000D01*
%TO.N,GND*%
X49737000Y37817000D02*
X50898000Y37817000D01*
D56*
X38382000Y41882000D02*
X38382000Y39584000D01*
D55*
X35153000Y44323000D02*
X35153000Y42799000D01*
X61595000Y27432000D02*
X60642000Y27432000D01*
X43180000Y49517000D02*
X43180000Y50546000D01*
X17272000Y40955000D02*
X17206000Y40889000D01*
X66167000Y32131000D02*
X64578000Y32131000D01*
X50927000Y21971000D02*
X50927000Y20955000D01*
X47625000Y26416000D02*
X46622000Y26416000D01*
X64578000Y35941000D02*
X66167000Y35941000D01*
X82480001Y44976000D02*
X83142500Y44976000D01*
X45808000Y45886000D02*
X45847000Y45847000D01*
X42334000Y47586000D02*
X42334000Y48598000D01*
D56*
X36169600Y30657800D02*
X36168400Y30659000D01*
X43382000Y29507400D02*
X43366200Y29523200D01*
D55*
X80772000Y40881000D02*
X80772000Y39751000D01*
X73358000Y9350000D02*
X73406000Y9398000D01*
X79756000Y47117000D02*
X77162000Y47117000D01*
X43294000Y49403000D02*
X43180000Y49517000D01*
X44534000Y45886000D02*
X45808000Y45886000D01*
D56*
X75946000Y25113001D02*
X75946000Y26924000D01*
D55*
X50178000Y41275000D02*
X50178000Y42405000D01*
D56*
X38100000Y42164000D02*
X38382000Y41882000D01*
D55*
X75184000Y5855000D02*
X75184000Y6858000D01*
D56*
X35739000Y37159000D02*
X34457000Y37159000D01*
X77083500Y24638000D02*
X76421001Y24638000D01*
X45807000Y37159000D02*
X44525000Y37159000D01*
X36168400Y30659000D02*
X34457000Y30659000D01*
D55*
X64578000Y34671000D02*
X66167000Y34671000D01*
X17195800Y33274000D02*
X17129800Y33340000D01*
X81153000Y47498000D02*
X81980000Y46671000D01*
X67358000Y9446000D02*
X67437000Y9525000D01*
X55364000Y40775000D02*
X55372000Y40767000D01*
X42334000Y48598000D02*
X41910000Y49022000D01*
X54387000Y37517000D02*
X55320000Y37517000D01*
X81980000Y46671000D02*
X81980000Y45476001D01*
X29263000Y38034000D02*
X29324000Y37973000D01*
X30287000Y31242000D02*
X29083000Y31242000D01*
X54369000Y39116000D02*
X55372000Y39116000D01*
D56*
X36326653Y36199653D02*
X36326653Y36571347D01*
D55*
X77915000Y20002000D02*
X77915000Y18536500D01*
X61722000Y27305000D02*
X61595000Y27432000D01*
D56*
X43815000Y36449000D02*
X43815000Y35851500D01*
D55*
X17129800Y33340000D02*
X15920300Y33340000D01*
X54369000Y40775000D02*
X55364000Y40775000D01*
D56*
X43382000Y28234000D02*
X43382000Y29507400D01*
D55*
X50178000Y43815000D02*
X50178000Y45072000D01*
X60642000Y29342000D02*
X61717000Y29342000D01*
X40470000Y47423000D02*
X40470000Y48598000D01*
X73358000Y7971000D02*
X73358000Y9350000D01*
X50178000Y42405000D02*
X50165000Y42418000D01*
X61717000Y29342000D02*
X61722000Y29337000D01*
X29263000Y39075000D02*
X29263000Y38034000D01*
X64578000Y33401000D02*
X66167000Y33401000D01*
X30287000Y29718000D02*
X29083000Y29718000D01*
X81980000Y45476001D02*
X82480001Y44976000D01*
X40470000Y48598000D02*
X40513000Y48641000D01*
X15920300Y35240000D02*
X17134800Y35240000D01*
X17134800Y35240000D02*
X17195800Y35179000D01*
X81280000Y19672000D02*
X81280000Y18542000D01*
X75184000Y6858000D02*
X75311000Y6985000D01*
X50898000Y37817000D02*
X50927000Y37846000D01*
D56*
X36326653Y36571347D02*
X35739000Y37159000D01*
D55*
X55320000Y37517000D02*
X55372000Y37465000D01*
D56*
X44525000Y37159000D02*
X43815000Y36449000D01*
D55*
X17206000Y38989000D02*
X15869500Y38989000D01*
D56*
X76421001Y24638000D02*
X75946000Y25113001D01*
D55*
X76962000Y20955000D02*
X77915000Y20002000D01*
D56*
X35153000Y42799000D02*
X33528000Y42799000D01*
D55*
X67358000Y7971000D02*
X67358000Y9446000D01*
X50178000Y45072000D02*
X50165000Y45085000D01*
X17206000Y40889000D02*
X15869500Y40889000D01*
X83312000Y40881000D02*
X83312000Y39751000D01*
X30287000Y28194000D02*
X29083000Y28194000D01*
D56*
%TO.N,/LSE_IN*%
X46609000Y41295000D02*
X43327000Y41295000D01*
X48608000Y41295000D02*
X48628000Y41275000D01*
X43327000Y41295000D02*
X42882000Y40850000D01*
X42882000Y40850000D02*
X42882000Y39584000D01*
X46609000Y41295000D02*
X48608000Y41295000D01*
%TO.N,/LSE_OUT*%
X42382000Y41239000D02*
X42382000Y39584000D01*
X46609000Y43795000D02*
X44938000Y43795000D01*
X44938000Y43795000D02*
X42382000Y41239000D01*
X46609000Y43795000D02*
X48608000Y43795000D01*
X48608000Y43795000D02*
X48628000Y43815000D01*
%TO.N,/NRST*%
X73358000Y4221000D02*
X67358000Y4221000D01*
X57658000Y19939000D02*
X59055000Y21336000D01*
X73358000Y4221000D02*
X75100000Y4221000D01*
X49466500Y20637500D02*
X49847500Y20637500D01*
X40894000Y37846000D02*
X40894000Y39572000D01*
X49657000Y20828000D02*
X49657000Y21971000D01*
X49657000Y20828000D02*
X50546000Y19939000D01*
X75100000Y4221000D02*
X75184000Y4305000D01*
X67358000Y4651000D02*
X59944000Y12065000D01*
X49149000Y20320000D02*
X49466500Y20637500D01*
X59944000Y12065000D02*
X59944000Y15621000D01*
X45974000Y20320000D02*
X49149000Y20320000D01*
X67358000Y4221000D02*
X67358000Y4651000D01*
X40894000Y39572000D02*
X40882000Y39584000D01*
X49657000Y20828000D02*
X49149000Y20320000D01*
X50546000Y19939000D02*
X57658000Y19939000D01*
X43561000Y22733000D02*
X45974000Y20320000D01*
X49847500Y20637500D02*
X50546000Y19939000D01*
%TO.N,/HSE_IN*%
X44844000Y49403000D02*
X44844000Y47896000D01*
X43434000Y46990000D02*
X43434000Y43307000D01*
X44844000Y47896000D02*
X44534000Y47586000D01*
X44534000Y47586000D02*
X44030000Y47586000D01*
X41882000Y41755000D02*
X41882000Y39584000D01*
X44030000Y47586000D02*
X43434000Y46990000D01*
X43434000Y43307000D02*
X41882000Y41755000D01*
%TO.N,Net-(C113-Pad1)*%
X40407000Y45810000D02*
X40470000Y45873000D01*
X40470000Y45873000D02*
X42321000Y45873000D01*
X42321000Y45873000D02*
X42334000Y45886000D01*
X40407000Y44196000D02*
X40407000Y45810000D01*
D55*
%TO.N,+3V3*%
X48187000Y36776000D02*
X48260000Y36703000D01*
X31837000Y27091000D02*
X31877000Y27051000D01*
X68961000Y13081000D02*
X68961000Y14288000D01*
X68834000Y21145000D02*
X68834000Y22352000D01*
X31837000Y28194000D02*
X31837000Y27091000D01*
X33274000Y44704000D02*
X33274000Y45593000D01*
D56*
X31623000Y37973000D02*
X30874000Y37973000D01*
D55*
X30874000Y39115000D02*
X30874000Y37973000D01*
D56*
X34457000Y30159000D02*
X33130800Y30159000D01*
D55*
X57293158Y32131000D02*
X59501000Y32131000D01*
D56*
X43882000Y26416000D02*
X43882000Y28234000D01*
D55*
X76708000Y39370000D02*
X76708000Y38163000D01*
D56*
X32937000Y36659000D02*
X31623000Y37973000D01*
D55*
X76708000Y31017000D02*
X76708000Y32825000D01*
D56*
X45807000Y37659000D02*
X48029000Y37659000D01*
X48029000Y37659000D02*
X48187000Y37817000D01*
X32689800Y29718000D02*
X31837000Y29718000D01*
D55*
X33274000Y45593000D02*
X33782000Y46101000D01*
D56*
X33130800Y30159000D02*
X32689800Y29718000D01*
D55*
X33782000Y46101000D02*
X34535000Y46101000D01*
X55935000Y29337000D02*
X54737000Y29337000D01*
D56*
X34457000Y36659000D02*
X32937000Y36659000D01*
D55*
X48187000Y37817000D02*
X48187000Y36776000D01*
D56*
X43882000Y26416000D02*
X45072000Y26416000D01*
D55*
X76708000Y32825000D02*
X76703000Y32830000D01*
X31837000Y28194000D02*
X31837000Y29718000D01*
D57*
%TO.N,+3.3VA*%
X36703000Y46110000D02*
X36703000Y44323000D01*
D56*
X36703000Y42037000D02*
X37882000Y40858000D01*
D55*
X36703000Y44323000D02*
X36703000Y42799000D01*
D56*
X37882000Y40858000D02*
X37882000Y39584000D01*
X36703000Y42799000D02*
X36703000Y42037000D01*
%TO.N,Net-(U103-VCAP1)*%
X31920000Y31159000D02*
X34457000Y31159000D01*
X31837000Y31242000D02*
X31920000Y31159000D01*
%TO.N,/VBAT*%
X52819000Y40775000D02*
X52819000Y39116000D01*
X52819000Y39116000D02*
X51689000Y39116000D01*
X43882000Y37846000D02*
X43882000Y39584000D01*
D55*
%TO.N,/LDO_3V3/5V*%
X83312000Y43856500D02*
X83142500Y44026000D01*
X83312000Y42431000D02*
X83312000Y43856500D01*
%TO.N,+5V*%
X13589000Y38922500D02*
X13594500Y38928000D01*
X13589000Y37846000D02*
X13589000Y38922500D01*
X13589000Y32258000D02*
X13589000Y33283700D01*
X13589000Y33283700D02*
X13645300Y33340000D01*
D56*
%TO.N,Net-(D106-K)*%
X58987000Y29337000D02*
X58992000Y29342000D01*
X57510000Y29337000D02*
X58987000Y29337000D01*
%TO.N,/LED_HB*%
X49911000Y28956000D02*
X49911000Y29464000D01*
X55935000Y27432000D02*
X53340000Y27432000D01*
X49911000Y29464000D02*
X47216000Y32159000D01*
X47216000Y32159000D02*
X45807000Y32159000D01*
X53340000Y27432000D02*
X51816000Y28956000D01*
%TO.N,Net-(D103-K)*%
X57510000Y27432000D02*
X58992000Y27432000D01*
%TO.N,/SWO*%
X47486000Y33159000D02*
X45807000Y33159000D01*
X50927000Y29718000D02*
X47486000Y33159000D01*
X50927000Y23241000D02*
X50927000Y29718000D01*
%TO.N,/SWCLK*%
X45807000Y30159000D02*
X47057000Y30159000D01*
X50073696Y26659000D02*
X49957000Y26659000D01*
X47057000Y30159000D02*
X49657000Y27559000D01*
X50073696Y25459000D02*
X49957000Y25459000D01*
X49957000Y24859000D02*
X50073696Y24859000D01*
X49957000Y26059000D02*
X50073696Y26059000D01*
X49657000Y23959000D02*
X49657000Y23749000D01*
X49957000Y27259000D02*
X50073696Y27259000D01*
X50073696Y24259000D02*
X49957000Y24259000D01*
X49657000Y23749000D02*
X49657000Y23241000D01*
X49657000Y27559000D02*
G75*
G03*
X49957000Y27259000I300000J0D01*
G01*
X49957000Y25459000D02*
G75*
G03*
X49657000Y25159000I0J-300000D01*
G01*
X49957000Y26659000D02*
G75*
G03*
X49657000Y26359000I0J-300000D01*
G01*
X50073696Y24859000D02*
G75*
G02*
X50373700Y24559000I4J-300000D01*
G01*
X50373696Y26959000D02*
G75*
G02*
X50073696Y26659004I-299996J0D01*
G01*
X49657000Y26359000D02*
G75*
G03*
X49957000Y26059000I300000J0D01*
G01*
X49957000Y24259000D02*
G75*
G03*
X49657000Y23959000I0J-300000D01*
G01*
X50073696Y27259000D02*
G75*
G02*
X50373700Y26959000I4J-300000D01*
G01*
X50373696Y25759000D02*
G75*
G02*
X50073696Y25459004I-299996J0D01*
G01*
X49657000Y25159000D02*
G75*
G03*
X49957000Y24859000I300000J0D01*
G01*
X50373696Y24559000D02*
G75*
G02*
X50073696Y24259004I-299996J0D01*
G01*
X50073696Y26059000D02*
G75*
G02*
X50373700Y25759000I4J-300000D01*
G01*
%TO.N,/USB_OTG_VSEN*%
X80772000Y22352000D02*
X76581000Y22352000D01*
X40882000Y19570000D02*
X43053000Y17399000D01*
X78865000Y17651000D02*
X78865000Y18536500D01*
X43053000Y17399000D02*
X78613000Y17399000D01*
D55*
X85762000Y21154000D02*
X85707000Y21209000D01*
D56*
X75946000Y24384000D02*
X75692000Y24638000D01*
X75946000Y22987000D02*
X75946000Y24384000D01*
D55*
X80023000Y21222000D02*
X78865000Y20064000D01*
D56*
X78613000Y17399000D02*
X78865000Y17651000D01*
D55*
X85707000Y21209000D02*
X81293000Y21209000D01*
D56*
X76581000Y22352000D02*
X75946000Y22987000D01*
X81280000Y21222000D02*
X81280000Y21844000D01*
X81280000Y21844000D02*
X80772000Y22352000D01*
D55*
X81280000Y21222000D02*
X80023000Y21222000D01*
D56*
X40882000Y28234000D02*
X40882000Y19570000D01*
D55*
X81293000Y21209000D02*
X81280000Y21222000D01*
X78865000Y20064000D02*
X78865000Y18536500D01*
D56*
X75692000Y24638000D02*
X74808500Y24638000D01*
%TO.N,/SWDIO*%
X42882000Y25317000D02*
X44069000Y24130000D01*
X46634000Y24415000D02*
X46634000Y24542654D01*
X47489000Y24130000D02*
X47498000Y24130000D01*
X44924000Y24542663D02*
X44924000Y24415000D01*
X42882000Y28234000D02*
X42882000Y25317000D01*
X47204000Y24542654D02*
X47204000Y24415000D01*
X44354000Y24415000D02*
X44354000Y24542663D01*
X47498000Y24130000D02*
X48387000Y23241000D01*
X46064000Y24542654D02*
X46064000Y24415000D01*
X45494000Y24415000D02*
X45494000Y24542654D01*
X44924000Y24415000D02*
G75*
G03*
X45209000Y24130000I285000J0D01*
G01*
X46919000Y24827654D02*
G75*
G02*
X47203954Y24542654I0J-284954D01*
G01*
X45209000Y24130000D02*
G75*
G03*
X45494000Y24415000I0J285000D01*
G01*
X44639000Y24827663D02*
G75*
G02*
X44923963Y24542663I0J-284963D01*
G01*
X45494000Y24542654D02*
G75*
G02*
X45779000Y24827700I285000J46D01*
G01*
X44069000Y24130000D02*
G75*
G03*
X44354000Y24415000I0J285000D01*
G01*
X46064000Y24415000D02*
G75*
G03*
X46349000Y24130000I285000J0D01*
G01*
X46634000Y24542654D02*
G75*
G02*
X46919000Y24827700I285000J46D01*
G01*
X45779000Y24827654D02*
G75*
G02*
X46063954Y24542654I0J-284954D01*
G01*
X44354000Y24542663D02*
G75*
G02*
X44639000Y24827700I285000J37D01*
G01*
X46349000Y24130000D02*
G75*
G03*
X46634000Y24415000I0J285000D01*
G01*
X47204000Y24415000D02*
G75*
G03*
X47489000Y24130000I285000J0D01*
G01*
D57*
%TO.N,/USB_D_N*%
X78077251Y23688000D02*
X77083500Y23688000D01*
X78792051Y24402800D02*
X78077251Y23688000D01*
X84439700Y24402800D02*
X78792051Y24402800D01*
X85204500Y23638000D02*
X84439700Y24402800D01*
%TO.N,/USB_D_P*%
X78077251Y25588000D02*
X77083500Y25588000D01*
X78792051Y24873200D02*
X78077251Y25588000D01*
X84439700Y24873200D02*
X78792051Y24873200D01*
X85204500Y25638000D02*
X84439700Y24873200D01*
D56*
%TO.N,/UART_TX*%
X33401000Y41275000D02*
X28226000Y46450000D01*
X36382000Y40834000D02*
X35941000Y41275000D01*
X28226000Y46450000D02*
X28226000Y51562000D01*
X35941000Y41275000D02*
X33401000Y41275000D01*
X36382000Y39584000D02*
X36382000Y40834000D01*
%TO.N,/UART_RX*%
X32385000Y40005000D02*
X26226000Y46164000D01*
X33080000Y37659000D02*
X32385000Y38354000D01*
X32385000Y38354000D02*
X32385000Y40005000D01*
X26226000Y46164000D02*
X26226000Y51562000D01*
X34457000Y37659000D02*
X33080000Y37659000D01*
%TO.N,Net-(J301-Pin_2)*%
X7772400Y44831000D02*
X4562000Y44831000D01*
X11480800Y42608000D02*
X9995400Y42608000D01*
X9995400Y42608000D02*
X7772400Y44831000D01*
%TO.N,Net-(J302-Pin_2)*%
X11531600Y36918400D02*
X10324600Y36918400D01*
X7696200Y34290000D02*
X4562000Y34290000D01*
X10324600Y36918400D02*
X7696200Y34290000D01*
%TO.N,/SNES_CLK*%
X34925000Y21318000D02*
X26942000Y13335000D01*
X37382000Y26626000D02*
X37382000Y28234000D01*
X35052000Y24892000D02*
X34925000Y24765000D01*
X34925000Y24765000D02*
X34925000Y21318000D01*
X38100000Y25908000D02*
X37382000Y26626000D01*
%TO.N,/SNES_LATCH*%
X30942000Y14305000D02*
X30942000Y13335000D01*
X36882000Y26341000D02*
X36882000Y28234000D01*
X36449000Y25908000D02*
X36882000Y26341000D01*
X36449000Y19812000D02*
X30942000Y14305000D01*
X36449000Y25908000D02*
X36449000Y19812000D01*
%TO.N,/SCL*%
X67873000Y37673344D02*
X67873000Y37638000D01*
X59501000Y34671000D02*
X59489000Y34659000D01*
X63859718Y37824718D02*
X63973000Y37824718D01*
X72390000Y34480000D02*
X76703000Y34480000D01*
X60706000Y34671000D02*
X63373000Y37338000D01*
X68173000Y37338000D02*
X68258022Y37338000D01*
X71184000Y34480000D02*
X72390000Y34480000D01*
X68258022Y37338000D02*
X68326000Y37338000D01*
X64873000Y37638000D02*
X64873000Y37673344D01*
X65473000Y37673344D02*
X65473000Y37638000D01*
X66073000Y37638000D02*
X66073000Y37673344D01*
X59501000Y34671000D02*
X60706000Y34671000D01*
X66673000Y37673344D02*
X66673000Y37638000D01*
X67273000Y37638000D02*
X67273000Y37673344D01*
X64459718Y37338000D02*
X64573000Y37338000D01*
X59489000Y34659000D02*
X45807000Y34659000D01*
X68326000Y37338000D02*
X71184000Y34480000D01*
X63616359Y37581359D02*
G75*
G02*
X63859718Y37824741I243341J41D01*
G01*
X64873000Y37673344D02*
G75*
G02*
X65173000Y37973300I300000J-44D01*
G01*
X64573000Y37338000D02*
G75*
G03*
X64873000Y37638000I0J300000D01*
G01*
X65173000Y37973344D02*
G75*
G02*
X65473044Y37673344I0J-300044D01*
G01*
X67573000Y37973344D02*
G75*
G02*
X67873044Y37673344I0J-300044D01*
G01*
X67873000Y37638000D02*
G75*
G03*
X68173000Y37338000I300000J0D01*
G01*
X66973000Y37338000D02*
G75*
G03*
X67273000Y37638000I0J300000D01*
G01*
X63373000Y37338000D02*
G75*
G03*
X63616400Y37581359I0J243400D01*
G01*
X66073000Y37673344D02*
G75*
G02*
X66373000Y37973300I300000J-44D01*
G01*
X67273000Y37673344D02*
G75*
G02*
X67573000Y37973300I300000J-44D01*
G01*
X63973000Y37824718D02*
G75*
G02*
X64216318Y37581359I0J-243318D01*
G01*
X64216359Y37581359D02*
G75*
G03*
X64459718Y37338059I243341J41D01*
G01*
X66373000Y37973344D02*
G75*
G02*
X66673044Y37673344I0J-300044D01*
G01*
X65773000Y37338000D02*
G75*
G03*
X66073000Y37638000I0J300000D01*
G01*
X66673000Y37638000D02*
G75*
G03*
X66973000Y37338000I300000J0D01*
G01*
X65473000Y37638000D02*
G75*
G03*
X65773000Y37338000I300000J0D01*
G01*
%TO.N,/SDA*%
X62992000Y38481000D02*
X64424726Y38481000D01*
X67724726Y38851974D02*
X67724726Y38781000D01*
X45807000Y35159000D02*
X57871001Y35159000D01*
X68324726Y38781000D02*
X68324726Y38851991D01*
X59501000Y35941000D02*
X60452000Y35941000D01*
X69224726Y38481000D02*
X69850000Y38481000D01*
X72390000Y36480000D02*
X76675000Y36480000D01*
X76675000Y36480000D02*
X76708000Y36513000D01*
X68924726Y38851991D02*
X68924726Y38781000D01*
X57871001Y35159000D02*
X58653001Y35941000D01*
X58653001Y35941000D02*
X59501000Y35941000D01*
X60452000Y35941000D02*
X62992000Y38481000D01*
X66524726Y38851991D02*
X66524726Y38781000D01*
X67124726Y38781000D02*
X67124726Y38851974D01*
X65924726Y38781000D02*
X65924726Y38851991D01*
X69850000Y38481000D02*
X71851000Y36480000D01*
X64724726Y38781000D02*
X64724726Y38851991D01*
X71851000Y36480000D02*
X72390000Y36480000D01*
X65324726Y38851991D02*
X65324726Y38781000D01*
X65624726Y38481000D02*
G75*
G03*
X65924700Y38781000I-26J300000D01*
G01*
X64724726Y38851991D02*
G75*
G02*
X65024726Y39151974I299974J9D01*
G01*
X65924726Y38851991D02*
G75*
G02*
X66224726Y39151974I299974J9D01*
G01*
X68624726Y39151991D02*
G75*
G02*
X68924691Y38851991I-26J-299991D01*
G01*
X66524726Y38781000D02*
G75*
G03*
X66824726Y38481026I299974J0D01*
G01*
X66824726Y38481000D02*
G75*
G03*
X67124700Y38781000I-26J300000D01*
G01*
X67424726Y39151974D02*
G75*
G02*
X67724674Y38851974I-26J-299974D01*
G01*
X64424726Y38481000D02*
G75*
G03*
X64724700Y38781000I-26J300000D01*
G01*
X65024726Y39151991D02*
G75*
G02*
X65324691Y38851991I-26J-299991D01*
G01*
X68024726Y38481000D02*
G75*
G03*
X68324700Y38781000I-26J300000D01*
G01*
X66224726Y39151991D02*
G75*
G02*
X66524691Y38851991I-26J-299991D01*
G01*
X68924726Y38781000D02*
G75*
G03*
X69224726Y38481026I299974J0D01*
G01*
X68324726Y38851991D02*
G75*
G02*
X68624726Y39151974I299974J9D01*
G01*
X65324726Y38781000D02*
G75*
G03*
X65624726Y38481026I299974J0D01*
G01*
X67124726Y38851974D02*
G75*
G02*
X67424726Y39151974I299974J26D01*
G01*
X67724726Y38781000D02*
G75*
G03*
X68024726Y38481026I299974J0D01*
G01*
%TO.N,Net-(U103-BOOT0)*%
X45807000Y35659000D02*
X50204000Y35659000D01*
X52062000Y37517000D02*
X52737000Y37517000D01*
X50204000Y35659000D02*
X52062000Y37517000D01*
%TO.N,/HSE_OUT*%
X42057000Y42819000D02*
X42057000Y44196000D01*
X41382000Y39584000D02*
X41382000Y42144000D01*
X41382000Y42144000D02*
X42057000Y42819000D01*
%TO.N,Net-(R301-Pad1)*%
X11480800Y40958000D02*
X13464500Y40958000D01*
X13464500Y40958000D02*
X13594500Y40828000D01*
%TO.N,Net-(R302-Pad1)*%
X13213500Y35240000D02*
X11560000Y35240000D01*
X11560000Y35240000D02*
X11531600Y35268400D01*
D57*
%TO.N,/D_P*%
X67339576Y24873200D02*
X61624576Y19158200D01*
X44420424Y19158200D02*
X42367200Y21211424D01*
X73099949Y24873200D02*
X67339576Y24873200D01*
X42367200Y21211424D02*
X42367200Y27056699D01*
X42382000Y27071499D02*
X42382000Y28234000D01*
X44420424Y19158200D02*
X58490000Y19158200D01*
X73814749Y25588000D02*
X73099949Y24873200D01*
X42367200Y27056699D02*
X42382000Y27071499D01*
X61624576Y19158200D02*
X59690000Y19158200D01*
X74808500Y25588000D02*
X73814749Y25588000D01*
X59390000Y19458200D02*
X59390000Y19505418D01*
X58790000Y19505418D02*
X58790000Y19458200D01*
X59390000Y19505418D02*
G75*
G03*
X59090000Y19805400I-300000J-18D01*
G01*
X59090000Y19805418D02*
G75*
G03*
X58789982Y19505418I0J-300018D01*
G01*
X58790000Y19458200D02*
G75*
G02*
X58490000Y19158200I-300000J0D01*
G01*
X59690000Y19158200D02*
G75*
G02*
X59390000Y19458200I0J300000D01*
G01*
%TO.N,/D_N*%
X73814749Y23688000D02*
X73099949Y24402800D01*
X74808500Y23688000D02*
X73814749Y23688000D01*
X41896800Y21016576D02*
X41896800Y27056699D01*
X44225576Y18687800D02*
X41896800Y21016576D01*
X61819424Y18687800D02*
X44225576Y18687800D01*
X67534424Y24402800D02*
X61819424Y18687800D01*
X41882000Y27071499D02*
X41882000Y28234000D01*
X73099949Y24402800D02*
X67534424Y24402800D01*
X41896800Y27056699D02*
X41882000Y27071499D01*
D56*
%TO.N,/~{EEPROM}*%
X48260000Y33655000D02*
X56134000Y33655000D01*
X56388000Y33401000D02*
X59501000Y33401000D01*
X56134000Y33655000D02*
X56388000Y33401000D01*
X48256000Y33659000D02*
X48260000Y33655000D01*
X45807000Y33659000D02*
X48256000Y33659000D01*
%TO.N,/LED_GRID0*%
X36342000Y35159000D02*
X34457000Y35159000D01*
X36423600Y35077400D02*
X36342000Y35159000D01*
X15869500Y39878000D02*
X18415000Y39878000D01*
%TO.N,/LED_GRID1*%
X34469000Y33147000D02*
X34457000Y33159000D01*
X36322000Y33147000D02*
X34469000Y33147000D01*
X15920300Y34290000D02*
X18415000Y34290000D01*
%TO.N,/OLED_RST*%
X24320000Y30797000D02*
X24320000Y21209000D01*
X34457000Y33659000D02*
X27182000Y33659000D01*
X27182000Y33659000D02*
X24320000Y30797000D01*
%TO.N,/USB_OTG_EN*%
X42799000Y16764000D02*
X65151000Y16764000D01*
X70040000Y14859000D02*
X76327000Y14859000D01*
X65151000Y16764000D02*
X65977000Y15938000D01*
X68961000Y15938000D02*
X70040000Y14859000D01*
X40382000Y19181000D02*
X42799000Y16764000D01*
X65977000Y15938000D02*
X68961000Y15938000D01*
X76965000Y15497000D02*
X76965000Y16261500D01*
X76327000Y14859000D02*
X76965000Y15497000D01*
X40382000Y28234000D02*
X40382000Y19181000D01*
%TO.N,/USB_OTG_OC*%
X70612000Y20320000D02*
X69787000Y19495000D01*
X68770000Y19431000D02*
X68834000Y19495000D01*
X64389000Y19431000D02*
X68770000Y19431000D01*
X43307000Y18034000D02*
X62992000Y18034000D01*
X76965000Y18536500D02*
X76965000Y19301000D01*
X76965000Y19301000D02*
X75946000Y20320000D01*
X41382000Y28234000D02*
X41382000Y19959000D01*
X41382000Y19959000D02*
X43307000Y18034000D01*
X75946000Y20320000D02*
X70612000Y20320000D01*
X69787000Y19495000D02*
X68834000Y19495000D01*
X62992000Y18034000D02*
X64389000Y19431000D01*
%TO.N,/OLED_DC*%
X28320000Y23623000D02*
X26797000Y25146000D01*
X26797000Y30480000D02*
X28476000Y32159000D01*
X28320000Y21209000D02*
X28320000Y23623000D01*
X28476000Y32159000D02*
X34457000Y32159000D01*
X26797000Y25146000D02*
X26797000Y30480000D01*
%TO.N,/SNES_DATA1*%
X38227000Y58810000D02*
X37982000Y59055000D01*
X38227000Y43688000D02*
X38227000Y58810000D01*
X38882000Y39584000D02*
X38882000Y43033000D01*
X38882000Y43033000D02*
X38227000Y43688000D01*
%TO.N,/MOSI*%
X31432000Y34671000D02*
X34445000Y34671000D01*
X34445000Y34671000D02*
X34457000Y34659000D01*
%TO.N,/SPI_CLK*%
X33048000Y35659000D02*
X34457000Y35659000D01*
X32512000Y36195000D02*
X33048000Y35659000D01*
X31432000Y36195000D02*
X32512000Y36195000D01*
%TO.N,/OLED_CE*%
X25527000Y30607000D02*
X27579000Y32659000D01*
X26320000Y23337000D02*
X25527000Y24130000D01*
X26320000Y21209000D02*
X26320000Y23337000D01*
X27579000Y32659000D02*
X34457000Y32659000D01*
X25527000Y24130000D02*
X25527000Y30607000D01*
%TO.N,/SNES_DATA0*%
X38882000Y18152000D02*
X38882000Y28234000D01*
X34942000Y14212000D02*
X38882000Y18152000D01*
X34942000Y13335000D02*
X34942000Y14212000D01*
%TO.N,Net-(OLED102-MOSI)*%
X22320000Y30575000D02*
X22320000Y28321000D01*
X22650000Y26671000D02*
X22739527Y26671000D01*
X22739527Y27331000D02*
X22650000Y27331000D01*
X22650000Y27991000D02*
X22739527Y27991000D01*
X22739544Y24691000D02*
X22650000Y24691000D01*
X22320000Y24361000D02*
X22320000Y21209000D01*
X26416000Y34671000D02*
X22320000Y30575000D01*
X29782000Y34671000D02*
X26416000Y34671000D01*
X22739527Y26011000D02*
X22650000Y26011000D01*
X22650000Y25351000D02*
X22739544Y25351000D01*
X22320000Y27001000D02*
G75*
G03*
X22650000Y26671000I330000J0D01*
G01*
X22739544Y25351000D02*
G75*
G02*
X23069500Y25021000I-44J-330000D01*
G01*
X23069527Y26341000D02*
G75*
G02*
X22739527Y26010973I-330027J0D01*
G01*
X22739527Y26671000D02*
G75*
G02*
X23069500Y26341000I-27J-330000D01*
G01*
X22650000Y27331000D02*
G75*
G03*
X22320000Y27001000I0J-330000D01*
G01*
X22739527Y27991000D02*
G75*
G02*
X23069500Y27661000I-27J-330000D01*
G01*
X22320000Y25681000D02*
G75*
G03*
X22650000Y25351000I330000J0D01*
G01*
X22320000Y28321000D02*
G75*
G03*
X22650000Y27991000I330000J0D01*
G01*
X23069544Y25021000D02*
G75*
G02*
X22739544Y24690956I-330044J0D01*
G01*
X22650000Y24691000D02*
G75*
G03*
X22320000Y24361000I0J-330000D01*
G01*
X22650000Y26011000D02*
G75*
G03*
X22320000Y25681000I0J-330000D01*
G01*
X23069527Y27661000D02*
G75*
G02*
X22739527Y27330973I-330027J0D01*
G01*
%TO.N,Net-(OLED102-SCLK)*%
X26035000Y36195000D02*
X20320000Y30480000D01*
X29782000Y36195000D02*
X26035000Y36195000D01*
X20320000Y30480000D02*
X20320000Y21209000D01*
%TD*%
%TA.AperFunction,Conductor*%
%TO.N,VBUS*%
G36*
X84965130Y59914424D02*
G01*
X84965131Y59914424D01*
X85110472Y60120324D01*
X85236902Y60364322D01*
X85285222Y60414789D01*
X85353156Y60431121D01*
X85419136Y60408132D01*
X85462213Y60353122D01*
X85471000Y60307274D01*
X85471000Y53337000D01*
X85451315Y53269961D01*
X85398511Y53224206D01*
X85347000Y53213000D01*
X81381000Y53213000D01*
X81313961Y53232685D01*
X81268206Y53285489D01*
X81257000Y53337000D01*
X81257000Y60106563D01*
X81276685Y60173602D01*
X81329489Y60219357D01*
X81398647Y60229301D01*
X81462203Y60200276D01*
X81491098Y60163610D01*
X81513524Y60120329D01*
X81513531Y60120317D01*
X81658867Y59914424D01*
X81658868Y59914423D01*
X82557884Y60813439D01*
X82558740Y60811374D01*
X82651762Y60672156D01*
X82770156Y60553762D01*
X82909374Y60460740D01*
X82911437Y60459886D01*
X82014198Y59562647D01*
X82098144Y59494353D01*
X82098146Y59494352D01*
X82343607Y59345083D01*
X82607108Y59230629D01*
X82883737Y59153121D01*
X82883744Y59153120D01*
X83168355Y59114000D01*
X83455645Y59114000D01*
X83740255Y59153120D01*
X83740262Y59153121D01*
X84016891Y59230629D01*
X84280392Y59345083D01*
X84525854Y59494352D01*
X84609800Y59562647D01*
X83712562Y60459886D01*
X83714626Y60460740D01*
X83853844Y60553762D01*
X83972238Y60672156D01*
X84065260Y60811374D01*
X84066115Y60813439D01*
X84965130Y59914424D01*
G37*
%TD.AperFunction*%
%TA.AperFunction,Conductor*%
G36*
X85414039Y63988315D02*
G01*
X85459794Y63935511D01*
X85471000Y63884000D01*
X85471000Y62120727D01*
X85451315Y62053688D01*
X85398511Y62007933D01*
X85329353Y61997989D01*
X85265797Y62027014D01*
X85236902Y62063679D01*
X85110472Y62307677D01*
X84965130Y62513578D01*
X84066114Y61614563D01*
X84065260Y61616626D01*
X83972238Y61755844D01*
X83853844Y61874238D01*
X83714626Y61967260D01*
X83712561Y61968116D01*
X84609800Y62865355D01*
X84525862Y62933643D01*
X84525853Y62933649D01*
X84280392Y63082918D01*
X84016891Y63197372D01*
X83740262Y63274880D01*
X83740255Y63274881D01*
X83455645Y63314000D01*
X83168355Y63314000D01*
X82883744Y63274881D01*
X82883737Y63274880D01*
X82607108Y63197372D01*
X82343610Y63082919D01*
X82098140Y62933645D01*
X82098137Y62933643D01*
X82014199Y62865355D01*
X82911438Y61968116D01*
X82909374Y61967260D01*
X82770156Y61874238D01*
X82651762Y61755844D01*
X82558740Y61616626D01*
X82557885Y61614562D01*
X81658868Y62513579D01*
X81658867Y62513579D01*
X81513531Y62307684D01*
X81513527Y62307678D01*
X81491098Y62264390D01*
X81442777Y62213923D01*
X81374843Y62197591D01*
X81308864Y62220580D01*
X81265787Y62275591D01*
X81257000Y62321438D01*
X81257000Y63884000D01*
X81276685Y63951039D01*
X81329489Y63996794D01*
X81381000Y64008000D01*
X85347000Y64008000D01*
X85414039Y63988315D01*
G37*
%TD.AperFunction*%
%TD*%
%TA.AperFunction,Conductor*%
%TO.N,+3V3*%
G36*
X81604039Y44557315D02*
G01*
X81649794Y44504511D01*
X81661000Y44453000D01*
X81661000Y42034000D01*
X81641315Y41966961D01*
X81588511Y41921206D01*
X81537000Y41910000D01*
X76324000Y41910000D01*
X76256961Y41929685D01*
X76211206Y41982489D01*
X76200000Y42034000D01*
X76200000Y44453000D01*
X76219685Y44520039D01*
X76272489Y44565794D01*
X76324000Y44577000D01*
X81537000Y44577000D01*
X81604039Y44557315D01*
G37*
%TD.AperFunction*%
%TD*%
%TA.AperFunction,Conductor*%
%TO.N,/LDO_3V3/5V*%
G36*
X87573039Y47605315D02*
G01*
X87618794Y47552511D01*
X87630000Y47501000D01*
X87630000Y43812000D01*
X87610315Y43744961D01*
X87557511Y43699206D01*
X87506000Y43688000D01*
X82928000Y43688000D01*
X82860961Y43707685D01*
X82815206Y43760489D01*
X82804000Y43812000D01*
X82804000Y44051500D01*
X82823685Y44118539D01*
X82876489Y44164294D01*
X82928000Y44175500D01*
X83720686Y44175500D01*
X83720694Y44175500D01*
X83757569Y44178402D01*
X83757571Y44178403D01*
X83757573Y44178403D01*
X83799191Y44190495D01*
X83915398Y44224256D01*
X84056865Y44307919D01*
X84173081Y44424135D01*
X84256744Y44565602D01*
X84302598Y44723431D01*
X84305500Y44760306D01*
X84305500Y45191694D01*
X84302598Y45228569D01*
X84256744Y45386398D01*
X84173081Y45527865D01*
X84173079Y45527867D01*
X84173076Y45527871D01*
X84056870Y45644077D01*
X84056862Y45644083D01*
X83915396Y45727745D01*
X83915393Y45727746D01*
X83757573Y45773598D01*
X83757567Y45773599D01*
X83720701Y45776500D01*
X83720694Y45776500D01*
X82928000Y45776500D01*
X82860961Y45796185D01*
X82815206Y45848989D01*
X82804000Y45900500D01*
X82804000Y47501000D01*
X82823685Y47568039D01*
X82876489Y47613794D01*
X82928000Y47625000D01*
X87506000Y47625000D01*
X87573039Y47605315D01*
G37*
%TD.AperFunction*%
%TD*%
%TA.AperFunction,Conductor*%
%TO.N,+5V*%
G36*
X79826039Y16871315D02*
G01*
X79871794Y16818511D01*
X79883000Y16767000D01*
X79883000Y13332000D01*
X79863315Y13264961D01*
X79810511Y13219206D01*
X79759000Y13208000D01*
X78229000Y13208000D01*
X78161961Y13227685D01*
X78116206Y13280489D01*
X78105000Y13332000D01*
X78105000Y16649500D01*
X78124685Y16716539D01*
X78177489Y16762294D01*
X78229000Y16773500D01*
X78674607Y16773500D01*
X78735029Y16785519D01*
X78795452Y16797537D01*
X78795455Y16797539D01*
X78795458Y16797539D01*
X78828787Y16811346D01*
X78828786Y16811346D01*
X78828792Y16811348D01*
X78909286Y16844688D01*
X78947316Y16870101D01*
X79013991Y16890980D01*
X79016209Y16891000D01*
X79759000Y16891000D01*
X79826039Y16871315D01*
G37*
%TD.AperFunction*%
%TD*%
%TA.AperFunction,Conductor*%
%TO.N,Net-(SW102-A)*%
G36*
X80177039Y63892315D02*
G01*
X80222794Y63839511D01*
X80234000Y63788000D01*
X80234000Y63259728D01*
X80214315Y63192689D01*
X80161511Y63146934D01*
X80092353Y63136990D01*
X80057595Y63147346D01*
X79858326Y63240266D01*
X79858317Y63240270D01*
X79638610Y63299140D01*
X79638599Y63299142D01*
X79468766Y63314000D01*
X78862000Y63314000D01*
X78862000Y62030481D01*
X78859936Y62031335D01*
X78695718Y62064000D01*
X78528282Y62064000D01*
X78364064Y62031335D01*
X78362000Y62030481D01*
X78362000Y63314000D01*
X77755238Y63314000D01*
X77755234Y63313999D01*
X77585396Y63299141D01*
X77585392Y63299141D01*
X77365682Y63240270D01*
X77365673Y63240266D01*
X77159517Y63144135D01*
X76973179Y63013658D01*
X76812342Y62852821D01*
X76681865Y62666483D01*
X76585734Y62460327D01*
X76585730Y62460318D01*
X76526860Y62240611D01*
X76526858Y62240600D01*
X76512000Y62070767D01*
X76512000Y61464000D01*
X77795520Y61464000D01*
X77794665Y61461936D01*
X77762000Y61297718D01*
X77762000Y61130282D01*
X77794665Y60966064D01*
X77795520Y60964000D01*
X76512001Y60964000D01*
X76512001Y60357235D01*
X76526859Y60187397D01*
X76526859Y60187393D01*
X76585730Y59967683D01*
X76585734Y59967674D01*
X76681865Y59761518D01*
X76812342Y59575180D01*
X76973179Y59414343D01*
X77159517Y59283866D01*
X77365673Y59187735D01*
X77365682Y59187731D01*
X77585389Y59128861D01*
X77585400Y59128859D01*
X77755234Y59114001D01*
X78361999Y59114001D01*
X78362000Y59114002D01*
X78362000Y60397520D01*
X78364064Y60396665D01*
X78528282Y60364000D01*
X78695718Y60364000D01*
X78859936Y60396665D01*
X78862000Y60397520D01*
X78862000Y59114001D01*
X79468762Y59114001D01*
X79468765Y59114002D01*
X79638603Y59128860D01*
X79638607Y59128860D01*
X79858317Y59187731D01*
X79858326Y59187734D01*
X80057595Y59280655D01*
X80126672Y59291147D01*
X80190456Y59262627D01*
X80228696Y59204151D01*
X80234000Y59168273D01*
X80234000Y57528000D01*
X80214315Y57460961D01*
X80161511Y57415206D01*
X80110000Y57404000D01*
X65151000Y57404000D01*
X65083961Y57423685D01*
X65038206Y57476489D01*
X65027000Y57528000D01*
X65027000Y59031656D01*
X67477000Y59031656D01*
X67483401Y58972128D01*
X67483403Y58972121D01*
X67533645Y58837414D01*
X67533649Y58837407D01*
X67619809Y58722313D01*
X67619812Y58722310D01*
X67734906Y58636150D01*
X67734913Y58636146D01*
X67869620Y58585904D01*
X67869627Y58585902D01*
X67929155Y58579501D01*
X67929172Y58579500D01*
X69727000Y58579500D01*
X69727000Y59579500D01*
X70227000Y59579500D01*
X70227000Y58579500D01*
X72024828Y58579500D01*
X72024844Y58579501D01*
X72084372Y58585902D01*
X72084379Y58585904D01*
X72219086Y58636146D01*
X72219093Y58636150D01*
X72334187Y58722310D01*
X72334190Y58722313D01*
X72420350Y58837407D01*
X72420354Y58837414D01*
X72470596Y58972121D01*
X72470598Y58972128D01*
X72476999Y59031656D01*
X72477000Y59031673D01*
X72477000Y59829500D01*
X71410012Y59829500D01*
X71442925Y59886507D01*
X71477000Y60013674D01*
X71477000Y60145326D01*
X71442925Y60272493D01*
X71410012Y60329500D01*
X72477000Y60329500D01*
X72477000Y61127328D01*
X72476999Y61127345D01*
X72470598Y61186873D01*
X72470596Y61186880D01*
X72420354Y61321587D01*
X72420350Y61321594D01*
X72334190Y61436688D01*
X72334187Y61436691D01*
X72219093Y61522851D01*
X72219086Y61522855D01*
X72084379Y61573097D01*
X72084372Y61573099D01*
X72024844Y61579500D01*
X70227000Y61579500D01*
X70227000Y60579500D01*
X69727000Y60579500D01*
X69727000Y61579500D01*
X67929155Y61579500D01*
X67869627Y61573099D01*
X67869620Y61573097D01*
X67734913Y61522855D01*
X67734906Y61522851D01*
X67619812Y61436691D01*
X67619809Y61436688D01*
X67533649Y61321594D01*
X67533645Y61321587D01*
X67483403Y61186880D01*
X67483401Y61186873D01*
X67477000Y61127345D01*
X67477000Y60329500D01*
X68543988Y60329500D01*
X68511075Y60272493D01*
X68477000Y60145326D01*
X68477000Y60013674D01*
X68511075Y59886507D01*
X68543988Y59829500D01*
X67477000Y59829500D01*
X67477000Y59031656D01*
X65027000Y59031656D01*
X65027000Y63788000D01*
X65046685Y63855039D01*
X65099489Y63900794D01*
X65151000Y63912000D01*
X80110000Y63912000D01*
X80177039Y63892315D01*
G37*
%TD.AperFunction*%
%TD*%
%TA.AperFunction,Conductor*%
%TO.N,+5V*%
G36*
X90113039Y52558315D02*
G01*
X90158794Y52505511D01*
X90170000Y52454000D01*
X90170000Y48511000D01*
X90150315Y48443961D01*
X90097511Y48398206D01*
X90046000Y48387000D01*
X81658000Y48387000D01*
X81590961Y48406685D01*
X81545206Y48459489D01*
X81534000Y48511000D01*
X81534000Y52454000D01*
X81553685Y52521039D01*
X81606489Y52566794D01*
X81658000Y52578000D01*
X90046000Y52578000D01*
X90113039Y52558315D01*
G37*
%TD.AperFunction*%
%TD*%
%TA.AperFunction,Conductor*%
%TO.N,GND*%
G36*
X63494942Y3062565D02*
G01*
X63499835Y3055065D01*
X63500035Y3052938D01*
X63501000Y2667000D01*
X63501000Y2666942D01*
X63500035Y2281063D01*
X63496587Y2272798D01*
X63488306Y2269392D01*
X63486179Y2269592D01*
X62709544Y2415211D01*
X62702044Y2420104D01*
X62700000Y2426711D01*
X62700000Y2907290D01*
X62703427Y2915563D01*
X62709542Y2918790D01*
X63486180Y3064409D01*
X63494942Y3062565D01*
G37*
%TD.AperFunction*%
%TD*%
%TA.AperFunction,Conductor*%
%TO.N,GND*%
G36*
X63494942Y69991565D02*
G01*
X63499835Y69984065D01*
X63500035Y69981938D01*
X63501000Y69596000D01*
X63501000Y69595942D01*
X63500035Y69210063D01*
X63496587Y69201798D01*
X63488306Y69198392D01*
X63486179Y69198592D01*
X62709544Y69344211D01*
X62702044Y69349104D01*
X62700000Y69355711D01*
X62700000Y69836290D01*
X62703427Y69844563D01*
X62709542Y69847790D01*
X63486180Y69993409D01*
X63494942Y69991565D01*
G37*
%TD.AperFunction*%
%TD*%
%TA.AperFunction,Conductor*%
%TO.N,+3V3*%
G36*
X53598939Y49530036D02*
G01*
X53607202Y49526588D01*
X53610608Y49518307D01*
X53610408Y49516180D01*
X53464790Y48739544D01*
X53459897Y48732044D01*
X53453290Y48730000D01*
X52972710Y48730000D01*
X52964437Y48733427D01*
X52961210Y48739544D01*
X52815591Y49516180D01*
X52817435Y49524943D01*
X52824935Y49529836D01*
X52827052Y49530036D01*
X53213000Y49531000D01*
X53598939Y49530036D01*
G37*
%TD.AperFunction*%
%TD*%
%TA.AperFunction,Conductor*%
%TO.N,GND*%
G36*
X50773125Y38211849D02*
G01*
X50777732Y38206424D01*
X50927093Y37848176D01*
X50927994Y37843645D01*
X50927033Y37459584D01*
X50923585Y37451319D01*
X50915304Y37447913D01*
X50913571Y37448046D01*
X50142706Y37565486D01*
X50135043Y37570120D01*
X50132768Y37577053D01*
X50132768Y38057701D01*
X50136195Y38065974D01*
X50141827Y38069099D01*
X50764292Y38213320D01*
X50773125Y38211849D01*
G37*
%TD.AperFunction*%
%TD*%
%TA.AperFunction,Conductor*%
%TO.N,GND*%
G36*
X38488448Y42164029D02*
G01*
X38496713Y42160581D01*
X38500118Y42152449D01*
X38506879Y41492414D01*
X38503537Y41484106D01*
X38495300Y41480595D01*
X38495180Y41480594D01*
X38261529Y41480594D01*
X38253651Y41483644D01*
X37826205Y41872917D01*
X37822396Y41881021D01*
X37825433Y41889445D01*
X37825795Y41889826D01*
X38096559Y42161548D01*
X38104824Y42164988D01*
X38488448Y42164029D01*
G37*
%TD.AperFunction*%
%TD*%
%TA.AperFunction,Conductor*%
%TO.N,GND*%
G36*
X61718354Y27701464D02*
G01*
X61722025Y27693296D01*
X61722030Y27692978D01*
X61722994Y27307356D01*
X61722093Y27302825D01*
X61573351Y26946061D01*
X61567004Y26939743D01*
X61558239Y26939687D01*
X60954649Y27179071D01*
X60948222Y27185307D01*
X60947262Y27189947D01*
X60947262Y27670643D01*
X60950689Y27678916D01*
X60958612Y27682337D01*
X61709984Y27704644D01*
X61718354Y27701464D01*
G37*
%TD.AperFunction*%
%TD*%
%TA.AperFunction,Conductor*%
%TO.N,GND*%
G36*
X43565939Y50546036D02*
G01*
X43574202Y50542588D01*
X43577608Y50534307D01*
X43577408Y50532180D01*
X43431790Y49755544D01*
X43426897Y49748044D01*
X43420290Y49746000D01*
X42939710Y49746000D01*
X42931437Y49749427D01*
X42928210Y49755544D01*
X42782591Y50532180D01*
X42784435Y50540943D01*
X42791935Y50545836D01*
X42794052Y50546036D01*
X43180000Y50547000D01*
X43565939Y50546036D01*
G37*
%TD.AperFunction*%
%TD*%
%TA.AperFunction,Conductor*%
%TO.N,GND*%
G36*
X66161942Y32526565D02*
G01*
X66166835Y32519065D01*
X66167035Y32516938D01*
X66168000Y32131000D01*
X66168000Y32130942D01*
X66167035Y31745063D01*
X66163587Y31736798D01*
X66155306Y31733392D01*
X66153179Y31733592D01*
X65376544Y31879211D01*
X65369044Y31884104D01*
X65367000Y31890711D01*
X65367000Y32371290D01*
X65370427Y32379563D01*
X65376542Y32382790D01*
X66153180Y32528409D01*
X66161942Y32526565D01*
G37*
%TD.AperFunction*%
%TD*%
%TA.AperFunction,Conductor*%
%TO.N,GND*%
G36*
X47619942Y26811565D02*
G01*
X47624835Y26804065D01*
X47625035Y26801938D01*
X47626000Y26416000D01*
X47626000Y26415942D01*
X47625035Y26030063D01*
X47621587Y26021798D01*
X47613306Y26018392D01*
X47611179Y26018592D01*
X46834544Y26164211D01*
X46827044Y26169104D01*
X46825000Y26175711D01*
X46825000Y26656290D01*
X46828427Y26664563D01*
X46834542Y26667790D01*
X47611180Y26813409D01*
X47619942Y26811565D01*
G37*
%TD.AperFunction*%
%TD*%
%TA.AperFunction,Conductor*%
%TO.N,GND*%
G36*
X66161942Y36336565D02*
G01*
X66166835Y36329065D01*
X66167035Y36326938D01*
X66168000Y35941000D01*
X66168000Y35940942D01*
X66167035Y35555063D01*
X66163587Y35546798D01*
X66155306Y35543392D01*
X66153179Y35543592D01*
X65376544Y35689211D01*
X65369044Y35694104D01*
X65367000Y35700711D01*
X65367000Y36181290D01*
X65370427Y36189563D01*
X65376542Y36192790D01*
X66153180Y36338409D01*
X66161942Y36336565D01*
G37*
%TD.AperFunction*%
%TD*%
%TA.AperFunction,Conductor*%
%TO.N,GND*%
G36*
X81020563Y40547573D02*
G01*
X81023790Y40541456D01*
X81169408Y39764821D01*
X81167564Y39756058D01*
X81160064Y39751165D01*
X81157937Y39750965D01*
X80772029Y39750001D01*
X80771971Y39750001D01*
X80386062Y39750965D01*
X80377797Y39754413D01*
X80374391Y39762694D01*
X80374591Y39764821D01*
X80520210Y40541456D01*
X80525103Y40548956D01*
X80531710Y40551000D01*
X81012290Y40551000D01*
X81020563Y40547573D01*
G37*
%TD.AperFunction*%
%TD*%
%TA.AperFunction,Conductor*%
%TO.N,GND*%
G36*
X79750942Y47512565D02*
G01*
X79755835Y47505065D01*
X79756035Y47502938D01*
X79757000Y47117000D01*
X79757000Y47116942D01*
X79756035Y46731063D01*
X79752587Y46722798D01*
X79744306Y46719392D01*
X79742179Y46719592D01*
X78965544Y46865211D01*
X78958044Y46870104D01*
X78956000Y46876711D01*
X78956000Y47357290D01*
X78959427Y47365563D01*
X78965542Y47368790D01*
X79742180Y47514409D01*
X79750942Y47512565D01*
G37*
%TD.AperFunction*%
%TD*%
%TA.AperFunction,Conductor*%
%TO.N,GND*%
G36*
X45842378Y46242893D02*
G01*
X45846920Y46235175D01*
X45847033Y46233581D01*
X45847994Y45849356D01*
X45847093Y45844825D01*
X45697792Y45486721D01*
X45691445Y45480403D01*
X45684176Y45479867D01*
X45063641Y45633797D01*
X45056436Y45639115D01*
X45054758Y45645153D01*
X45054758Y46125825D01*
X45058185Y46134098D01*
X45064834Y46137412D01*
X45833712Y46245139D01*
X45842378Y46242893D01*
G37*
%TD.AperFunction*%
%TD*%
%TA.AperFunction,Conductor*%
%TO.N,GND*%
G36*
X76305109Y26775281D02*
G01*
X76311427Y26768934D01*
X76311551Y26760345D01*
X76073859Y26131563D01*
X76067728Y26125036D01*
X76062915Y26124000D01*
X75829085Y26124000D01*
X75820812Y26127427D01*
X75818141Y26131563D01*
X75580448Y26760345D01*
X75580728Y26769295D01*
X75586889Y26775281D01*
X75941500Y26923125D01*
X75950449Y26923145D01*
X76305109Y26775281D01*
G37*
%TD.AperFunction*%
%TD*%
%TA.AperFunction,Conductor*%
%TO.N,GND*%
G36*
X50551153Y42418035D02*
G01*
X50559418Y42414587D01*
X50562824Y42406306D01*
X50562655Y42404354D01*
X50429670Y41630305D01*
X50424892Y41622731D01*
X50418139Y41620586D01*
X49937538Y41620586D01*
X49929265Y41624013D01*
X49926078Y41629928D01*
X49926000Y41630305D01*
X49797391Y42255482D01*
X49799081Y42264276D01*
X49804346Y42268637D01*
X50162829Y42418096D01*
X50167350Y42418995D01*
X50551153Y42418035D01*
G37*
%TD.AperFunction*%
%TD*%
%TA.AperFunction,Conductor*%
%TO.N,GND*%
G36*
X75313171Y6985095D02*
G01*
X75669939Y6836352D01*
X75676257Y6830005D01*
X75676313Y6821240D01*
X75436930Y6217649D01*
X75430694Y6211222D01*
X75426054Y6210262D01*
X74945358Y6210262D01*
X74937085Y6213689D01*
X74933663Y6221615D01*
X74932449Y6262495D01*
X74911356Y6972986D01*
X74914536Y6981355D01*
X74922704Y6985026D01*
X74922950Y6985030D01*
X75308648Y6985995D01*
X75313171Y6985095D01*
G37*
%TD.AperFunction*%
%TD*%
%TA.AperFunction,Conductor*%
%TO.N,GND*%
G36*
X36014904Y31023081D02*
G01*
X36020874Y31016926D01*
X36168723Y30662302D01*
X36168744Y30653348D01*
X36168723Y30653298D01*
X36020888Y30298709D01*
X36014541Y30292391D01*
X36005933Y30292274D01*
X35377383Y30531134D01*
X35370867Y30537276D01*
X35369839Y30542071D01*
X35369839Y30775903D01*
X35373266Y30784176D01*
X35377414Y30786851D01*
X36005955Y31023374D01*
X36014904Y31023081D01*
G37*
%TD.AperFunction*%
%TD*%
%TA.AperFunction,Conductor*%
%TO.N,GND*%
G36*
X66161942Y35066565D02*
G01*
X66166835Y35059065D01*
X66167035Y35056938D01*
X66168000Y34671000D01*
X66168000Y34670942D01*
X66167035Y34285063D01*
X66163587Y34276798D01*
X66155306Y34273392D01*
X66153179Y34273592D01*
X65376544Y34419211D01*
X65369044Y34424104D01*
X65367000Y34430711D01*
X65367000Y34911290D01*
X65370427Y34919563D01*
X65376542Y34922790D01*
X66153180Y35068409D01*
X66161942Y35066565D01*
G37*
%TD.AperFunction*%
%TD*%
%TA.AperFunction,Conductor*%
%TO.N,GND*%
G36*
X81442421Y47770883D02*
G01*
X81443783Y47769238D01*
X81889978Y47117105D01*
X81891822Y47108342D01*
X81888595Y47102225D01*
X81548775Y46762405D01*
X81540502Y46758978D01*
X81533895Y46761022D01*
X80881762Y47207217D01*
X80876869Y47214717D01*
X80878713Y47223480D01*
X80880075Y47225125D01*
X81152251Y47498665D01*
X81152293Y47498707D01*
X81425875Y47770925D01*
X81434156Y47774331D01*
X81442421Y47770883D01*
G37*
%TD.AperFunction*%
%TD*%
%TA.AperFunction,Conductor*%
%TO.N,GND*%
G36*
X42277500Y49170524D02*
G01*
X42283818Y49164177D01*
X42283892Y49163991D01*
X42577748Y48413592D01*
X42577574Y48404639D01*
X42571120Y48398432D01*
X42566854Y48397626D01*
X42087891Y48397626D01*
X42080885Y48399955D01*
X41637959Y48731082D01*
X41633385Y48738780D01*
X41635594Y48747459D01*
X41636668Y48748702D01*
X41908342Y49021337D01*
X41912173Y49023895D01*
X42268548Y49170545D01*
X42277500Y49170524D01*
G37*
%TD.AperFunction*%
%TD*%
%TA.AperFunction,Conductor*%
%TO.N,GND*%
G36*
X55367524Y37860992D02*
G01*
X55371944Y37853204D01*
X55372033Y37851792D01*
X55372994Y37467356D01*
X55372093Y37462825D01*
X55222872Y37104911D01*
X55216525Y37098593D01*
X55209029Y37098116D01*
X54590999Y37264668D01*
X54583902Y37270130D01*
X54582343Y37275965D01*
X54582343Y37756663D01*
X54585770Y37764936D01*
X54592599Y37768273D01*
X55358893Y37863374D01*
X55367524Y37860992D01*
G37*
%TD.AperFunction*%
%TD*%
%TA.AperFunction,Conductor*%
%TO.N,GND*%
G36*
X29096817Y31639410D02*
G01*
X29873457Y31493790D01*
X29880956Y31488897D01*
X29883000Y31482290D01*
X29883000Y31001711D01*
X29879573Y30993438D01*
X29873456Y30990211D01*
X29096820Y30844592D01*
X29088057Y30846436D01*
X29083164Y30853936D01*
X29082964Y30856054D01*
X29082000Y31242000D01*
X29082964Y31627941D01*
X29086412Y31636203D01*
X29094693Y31639609D01*
X29096817Y31639410D01*
G37*
%TD.AperFunction*%
%TD*%
%TA.AperFunction,Conductor*%
%TO.N,GND*%
G36*
X55366942Y39511565D02*
G01*
X55371835Y39504065D01*
X55372035Y39501938D01*
X55373000Y39116000D01*
X55373000Y39115942D01*
X55372035Y38730063D01*
X55368587Y38721798D01*
X55360306Y38718392D01*
X55358179Y38718592D01*
X54581544Y38864211D01*
X54574044Y38869104D01*
X54572000Y38875711D01*
X54572000Y39356290D01*
X54575427Y39364563D01*
X54581542Y39367790D01*
X55358180Y39513409D01*
X55366942Y39511565D01*
G37*
%TD.AperFunction*%
%TD*%
%TA.AperFunction,Conductor*%
%TO.N,GND*%
G36*
X43878125Y36671835D02*
G01*
X43880178Y36670199D01*
X44044394Y36505983D01*
X44047398Y36500827D01*
X44181799Y36014533D01*
X44180700Y36005646D01*
X44175010Y36000611D01*
X43818789Y35852661D01*
X43809834Y35852652D01*
X43809799Y35852667D01*
X43458200Y35999257D01*
X43451882Y36005604D01*
X43451903Y36014558D01*
X43452786Y36016264D01*
X43861997Y36668147D01*
X43869297Y36673332D01*
X43878125Y36671835D01*
G37*
%TD.AperFunction*%
%TD*%
%TA.AperFunction,Conductor*%
%TO.N,GND*%
G36*
X17191480Y33670093D02*
G01*
X17195766Y33662230D01*
X17195832Y33661017D01*
X17196794Y33276356D01*
X17195893Y33271825D01*
X17046758Y32914119D01*
X17040411Y32907801D01*
X17032672Y32907392D01*
X16417341Y33087537D01*
X16410364Y33093151D01*
X16408928Y33098766D01*
X16408928Y33579483D01*
X16412355Y33587756D01*
X16419384Y33591117D01*
X17182890Y33672622D01*
X17191480Y33670093D01*
G37*
%TD.AperFunction*%
%TD*%
%TA.AperFunction,Conductor*%
%TO.N,GND*%
G36*
X55367031Y41162636D02*
G01*
X55371853Y41155091D01*
X55372034Y41153071D01*
X55373000Y40767000D01*
X55373000Y40766942D01*
X55372035Y40381206D01*
X55368587Y40372941D01*
X55360306Y40369535D01*
X55358064Y40369758D01*
X54583020Y40523135D01*
X54575569Y40528102D01*
X54573591Y40534612D01*
X54573591Y41015198D01*
X54577018Y41023471D01*
X54583240Y41026717D01*
X55358285Y41164561D01*
X55367031Y41162636D01*
G37*
%TD.AperFunction*%
%TD*%
%TA.AperFunction,Conductor*%
%TO.N,GND*%
G36*
X43725516Y29374395D02*
G01*
X43731834Y29368048D01*
X43732039Y29359679D01*
X43666042Y29173945D01*
X43661517Y29168134D01*
X43608376Y29132625D01*
X43608375Y29132624D01*
X43547485Y29041496D01*
X43531500Y28961133D01*
X43531500Y28797313D01*
X43530825Y28793396D01*
X43509765Y28734126D01*
X43503766Y28727477D01*
X43498740Y28726343D01*
X43264889Y28726343D01*
X43256616Y28729770D01*
X43254042Y28733657D01*
X43233352Y28784819D01*
X43232499Y28789205D01*
X43232499Y28961133D01*
X43216515Y29041495D01*
X43216514Y29041496D01*
X43155624Y29132624D01*
X43155623Y29132625D01*
X43072391Y29188239D01*
X43068045Y29193580D01*
X43000987Y29359398D01*
X43001063Y29368351D01*
X43007330Y29374581D01*
X43361700Y29522325D01*
X43370649Y29522345D01*
X43725516Y29374395D01*
G37*
%TD.AperFunction*%
%TD*%
%TA.AperFunction,Conductor*%
%TO.N,GND*%
G36*
X50551153Y45085035D02*
G01*
X50559418Y45081587D01*
X50562824Y45073306D01*
X50562655Y45071354D01*
X50429670Y44297305D01*
X50424892Y44289731D01*
X50418139Y44287586D01*
X49937538Y44287586D01*
X49929265Y44291013D01*
X49926078Y44296928D01*
X49926000Y44297305D01*
X49797391Y44922482D01*
X49799081Y44931276D01*
X49804346Y44935637D01*
X50162829Y45085096D01*
X50167350Y45085995D01*
X50551153Y45085035D01*
G37*
%TD.AperFunction*%
%TD*%
%TA.AperFunction,Conductor*%
%TO.N,GND*%
G36*
X61716997Y29732609D02*
G01*
X61721846Y29725081D01*
X61722034Y29723021D01*
X61723000Y29337000D01*
X61723000Y29336942D01*
X61722035Y28951153D01*
X61718587Y28942888D01*
X61710306Y28939482D01*
X61708107Y28939696D01*
X60932467Y29090163D01*
X60924998Y29095103D01*
X60922995Y29101649D01*
X60922995Y29582233D01*
X60926422Y29590506D01*
X60932603Y29593744D01*
X61708245Y29734504D01*
X61716997Y29732609D01*
G37*
%TD.AperFunction*%
%TD*%
%TA.AperFunction,Conductor*%
%TO.N,GND*%
G36*
X40515171Y48641095D02*
G01*
X40873222Y48491817D01*
X40879539Y48485471D01*
X40880057Y48478132D01*
X40722244Y47858366D01*
X40716882Y47851194D01*
X40710906Y47849553D01*
X40230225Y47849553D01*
X40221952Y47852980D01*
X40218630Y47859685D01*
X40114789Y48627766D01*
X40117077Y48636424D01*
X40124816Y48640929D01*
X40126345Y48641034D01*
X40510648Y48641995D01*
X40515171Y48641095D01*
G37*
%TD.AperFunction*%
%TD*%
%TA.AperFunction,Conductor*%
%TO.N,GND*%
G36*
X73408171Y9398095D02*
G01*
X73720400Y9267921D01*
X73766147Y9248848D01*
X73772465Y9242501D01*
X73772961Y9235074D01*
X73661411Y8810731D01*
X73610683Y8617751D01*
X73610294Y8616273D01*
X73604876Y8609143D01*
X73598978Y8607548D01*
X73118287Y8607548D01*
X73110014Y8610975D01*
X73106683Y8617751D01*
X73007698Y9384839D01*
X73010038Y9393480D01*
X73017805Y9397938D01*
X73019260Y9398034D01*
X73403648Y9398995D01*
X73408171Y9398095D01*
G37*
%TD.AperFunction*%
%TD*%
%TA.AperFunction,Conductor*%
%TO.N,GND*%
G36*
X29648939Y39075036D02*
G01*
X29657202Y39071588D01*
X29660608Y39063307D01*
X29660408Y39061180D01*
X29514790Y38284544D01*
X29509897Y38277044D01*
X29503290Y38275000D01*
X29022710Y38275000D01*
X29014437Y38278427D01*
X29011210Y38284544D01*
X28865591Y39061180D01*
X28867435Y39069943D01*
X28874935Y39074836D01*
X28877052Y39075036D01*
X29263000Y39076000D01*
X29648939Y39075036D01*
G37*
%TD.AperFunction*%
%TD*%
%TA.AperFunction,Conductor*%
%TO.N,GND*%
G36*
X66161942Y33796565D02*
G01*
X66166835Y33789065D01*
X66167035Y33786938D01*
X66168000Y33401000D01*
X66168000Y33400942D01*
X66167035Y33015063D01*
X66163587Y33006798D01*
X66155306Y33003392D01*
X66153179Y33003592D01*
X65376544Y33149211D01*
X65369044Y33154104D01*
X65367000Y33160711D01*
X65367000Y33641290D01*
X65370427Y33649563D01*
X65376542Y33652790D01*
X66153180Y33798409D01*
X66161942Y33796565D01*
G37*
%TD.AperFunction*%
%TD*%
%TA.AperFunction,Conductor*%
%TO.N,GND*%
G36*
X29096817Y30115410D02*
G01*
X29873457Y29969790D01*
X29880956Y29964897D01*
X29883000Y29958290D01*
X29883000Y29477711D01*
X29879573Y29469438D01*
X29873456Y29466211D01*
X29096820Y29320592D01*
X29088057Y29322436D01*
X29083164Y29329936D01*
X29082964Y29332054D01*
X29082000Y29718000D01*
X29082964Y30103941D01*
X29086412Y30112203D01*
X29094693Y30115609D01*
X29096817Y30115410D01*
G37*
%TD.AperFunction*%
%TD*%
%TA.AperFunction,Conductor*%
%TO.N,GND*%
G36*
X17191424Y35575058D02*
G01*
X17195758Y35567221D01*
X17195832Y35565937D01*
X17196794Y35181356D01*
X17195893Y35176825D01*
X17046727Y34819045D01*
X17040380Y34812727D01*
X17032727Y34812293D01*
X16416433Y34987583D01*
X16409413Y34993143D01*
X16407934Y34998837D01*
X16407934Y35479548D01*
X16411361Y35487821D01*
X16418319Y35491174D01*
X17182819Y35577534D01*
X17191424Y35575058D01*
G37*
%TD.AperFunction*%
%TD*%
%TA.AperFunction,Conductor*%
%TO.N,GND*%
G36*
X81528563Y19338573D02*
G01*
X81531790Y19332456D01*
X81677408Y18555821D01*
X81675564Y18547058D01*
X81668064Y18542165D01*
X81665937Y18541965D01*
X81280029Y18541001D01*
X81279971Y18541001D01*
X80894062Y18541965D01*
X80885797Y18545413D01*
X80882391Y18553694D01*
X80882591Y18555821D01*
X81028210Y19332456D01*
X81033103Y19339956D01*
X81039710Y19342000D01*
X81520290Y19342000D01*
X81528563Y19338573D01*
G37*
%TD.AperFunction*%
%TD*%
%TA.AperFunction,Conductor*%
%TO.N,GND*%
G36*
X36116857Y36958204D02*
G01*
X36600952Y36490746D01*
X36604523Y36482535D01*
X36601242Y36474203D01*
X36601119Y36474078D01*
X36330799Y36202403D01*
X36322534Y36198955D01*
X36322484Y36198955D01*
X35938435Y36199633D01*
X35930168Y36203074D01*
X35926756Y36211354D01*
X35926756Y36211435D01*
X35931770Y36784627D01*
X35935196Y36792796D01*
X36100460Y36958060D01*
X36108732Y36961486D01*
X36116857Y36958204D01*
G37*
%TD.AperFunction*%
%TD*%
%TA.AperFunction,Conductor*%
%TO.N,GND*%
G36*
X17266942Y39384565D02*
G01*
X17271835Y39377065D01*
X17272035Y39374938D01*
X17273000Y38989000D01*
X17273000Y38988942D01*
X17272035Y38603063D01*
X17268587Y38594798D01*
X17260306Y38591392D01*
X17258179Y38591592D01*
X16481544Y38737211D01*
X16474044Y38742104D01*
X16472000Y38748711D01*
X16472000Y39229290D01*
X16475427Y39237563D01*
X16481542Y39240790D01*
X17258180Y39386409D01*
X17266942Y39384565D01*
G37*
%TD.AperFunction*%
%TD*%
%TA.AperFunction,Conductor*%
%TO.N,GND*%
G36*
X77251421Y21227883D02*
G01*
X77252783Y21226238D01*
X77698978Y20574105D01*
X77700822Y20565342D01*
X77697595Y20559225D01*
X77357775Y20219405D01*
X77349502Y20215978D01*
X77342895Y20218022D01*
X76690762Y20664217D01*
X76685869Y20671717D01*
X76687713Y20680480D01*
X76689075Y20682125D01*
X76961251Y20955665D01*
X76961293Y20955707D01*
X77234875Y21227925D01*
X77243156Y21231331D01*
X77251421Y21227883D01*
G37*
%TD.AperFunction*%
%TD*%
%TA.AperFunction,Conductor*%
%TO.N,GND*%
G36*
X33708696Y43158110D02*
G01*
X34320437Y42926859D01*
X34326964Y42920728D01*
X34328000Y42915915D01*
X34328000Y42682086D01*
X34324573Y42673813D01*
X34320437Y42671142D01*
X33691655Y42433449D01*
X33682705Y42433729D01*
X33676719Y42439891D01*
X33580306Y42671142D01*
X33528875Y42794501D01*
X33528855Y42803450D01*
X33676719Y43158111D01*
X33683066Y43164428D01*
X33691654Y43164552D01*
X33708696Y43158110D01*
G37*
%TD.AperFunction*%
%TD*%
%TA.AperFunction,Conductor*%
%TO.N,GND*%
G36*
X67439171Y9525095D02*
G01*
X67796685Y9376041D01*
X67803003Y9369694D01*
X67803344Y9361731D01*
X67632139Y8817456D01*
X67611349Y8751359D01*
X67610576Y8748903D01*
X67604824Y8742040D01*
X67599415Y8740714D01*
X67118688Y8740714D01*
X67110415Y8744141D01*
X67107036Y8751359D01*
X67051780Y9361731D01*
X67038151Y9512279D01*
X67040818Y9520826D01*
X67048748Y9524984D01*
X67049772Y9525032D01*
X67434648Y9525995D01*
X67439171Y9525095D01*
G37*
%TD.AperFunction*%
%TD*%
%TA.AperFunction,Conductor*%
%TO.N,GND*%
G36*
X17117774Y41320644D02*
G01*
X17122958Y41314882D01*
X17272093Y40957176D01*
X17272994Y40952645D01*
X17272032Y40567984D01*
X17268584Y40559719D01*
X17260303Y40556313D01*
X17259090Y40556379D01*
X16495586Y40637884D01*
X16487723Y40642170D01*
X16485128Y40649518D01*
X16485128Y41130235D01*
X16488555Y41138508D01*
X16493537Y41141463D01*
X17108873Y41321609D01*
X17117774Y41320644D01*
G37*
%TD.AperFunction*%
%TD*%
%TA.AperFunction,Conductor*%
%TO.N,GND*%
G36*
X83560563Y40547573D02*
G01*
X83563790Y40541456D01*
X83709408Y39764821D01*
X83707564Y39756058D01*
X83700064Y39751165D01*
X83697937Y39750965D01*
X83312029Y39750001D01*
X83311971Y39750001D01*
X82926062Y39750965D01*
X82917797Y39754413D01*
X82914391Y39762694D01*
X82914591Y39764821D01*
X83060210Y40541456D01*
X83065103Y40548956D01*
X83071710Y40551000D01*
X83552290Y40551000D01*
X83560563Y40547573D01*
G37*
%TD.AperFunction*%
%TD*%
%TA.AperFunction,Conductor*%
%TO.N,GND*%
G36*
X29096817Y28591410D02*
G01*
X29873457Y28445790D01*
X29880956Y28440897D01*
X29883000Y28434290D01*
X29883000Y27953711D01*
X29879573Y27945438D01*
X29873456Y27942211D01*
X29096820Y27796592D01*
X29088057Y27798436D01*
X29083164Y27805936D01*
X29082964Y27808054D01*
X29082000Y28194000D01*
X29082964Y28579941D01*
X29086412Y28588203D01*
X29094693Y28591609D01*
X29096817Y28591410D01*
G37*
%TD.AperFunction*%
%TD*%
%TA.AperFunction,Conductor*%
%TO.N,/NRST*%
G36*
X58695909Y21484768D02*
G01*
X58838763Y21425982D01*
X59051195Y21338564D01*
X59057542Y21332246D01*
X59057563Y21332196D01*
X59203767Y20976910D01*
X59203746Y20967956D01*
X59197760Y20961794D01*
X58585071Y20685253D01*
X58576121Y20684973D01*
X58571985Y20687644D01*
X58406643Y20852986D01*
X58403216Y20861259D01*
X58404252Y20866072D01*
X58450238Y20967956D01*
X58680794Y21478762D01*
X58687320Y21484892D01*
X58695909Y21484768D01*
G37*
%TD.AperFunction*%
%TD*%
%TA.AperFunction,Conductor*%
%TO.N,/NRST*%
G36*
X41019188Y38642573D02*
G01*
X41021859Y38638437D01*
X41259551Y38009656D01*
X41259271Y38000706D01*
X41253109Y37994720D01*
X40898502Y37846877D01*
X40889548Y37846856D01*
X40889498Y37846877D01*
X40534890Y37994720D01*
X40528572Y38001067D01*
X40528448Y38009655D01*
X40766141Y38638438D01*
X40772272Y38644964D01*
X40777085Y38646000D01*
X41010915Y38646000D01*
X41019188Y38642573D01*
G37*
%TD.AperFunction*%
%TD*%
%TA.AperFunction,Conductor*%
%TO.N,/NRST*%
G36*
X60303109Y15472281D02*
G01*
X60309427Y15465934D01*
X60309551Y15457345D01*
X60071859Y14828563D01*
X60065728Y14822036D01*
X60060915Y14821000D01*
X59827085Y14821000D01*
X59818812Y14824427D01*
X59816141Y14828563D01*
X59578448Y15457345D01*
X59578728Y15466295D01*
X59584889Y15472281D01*
X59939500Y15620125D01*
X59948449Y15620145D01*
X60303109Y15472281D01*
G37*
%TD.AperFunction*%
%TD*%
%TA.AperFunction,Conductor*%
%TO.N,/NRST*%
G36*
X43929044Y22881747D02*
G01*
X43935206Y22875761D01*
X44211747Y22263072D01*
X44212027Y22254122D01*
X44209356Y22249986D01*
X44044014Y22084644D01*
X44035741Y22081217D01*
X44030928Y22082253D01*
X43418239Y22358794D01*
X43412108Y22365321D01*
X43412232Y22373910D01*
X43558437Y22729198D01*
X43564753Y22735543D01*
X43920090Y22881768D01*
X43929044Y22881747D01*
G37*
%TD.AperFunction*%
%TD*%
%TA.AperFunction,Conductor*%
%TO.N,+3V3*%
G36*
X69209563Y13877573D02*
G01*
X69212790Y13871456D01*
X69358408Y13094821D01*
X69356564Y13086058D01*
X69349064Y13081165D01*
X69346937Y13080965D01*
X68961029Y13080001D01*
X68960971Y13080001D01*
X68575062Y13080965D01*
X68566797Y13084413D01*
X68563391Y13092694D01*
X68563591Y13094821D01*
X68709210Y13871456D01*
X68714103Y13878956D01*
X68720710Y13881000D01*
X69201290Y13881000D01*
X69209563Y13877573D01*
G37*
%TD.AperFunction*%
%TD*%
%TA.AperFunction,Conductor*%
%TO.N,+3V3*%
G36*
X69219939Y22352036D02*
G01*
X69228202Y22348588D01*
X69231608Y22340307D01*
X69231408Y22338180D01*
X69085790Y21561544D01*
X69080897Y21554044D01*
X69074290Y21552000D01*
X68593710Y21552000D01*
X68585437Y21555427D01*
X68582210Y21561544D01*
X68436591Y22338180D01*
X68438435Y22346943D01*
X68445935Y22351836D01*
X68448052Y22352036D01*
X68834000Y22353000D01*
X69219939Y22352036D01*
G37*
%TD.AperFunction*%
%TD*%
%TA.AperFunction,Conductor*%
%TO.N,+3V3*%
G36*
X32086136Y27839617D02*
G01*
X32089214Y27834178D01*
X32244114Y27213835D01*
X32242794Y27204979D01*
X32237265Y27200202D01*
X31879175Y27050907D01*
X31874644Y27050006D01*
X31490403Y27050967D01*
X31482138Y27054415D01*
X31478732Y27062696D01*
X31478842Y27064265D01*
X31585599Y27832953D01*
X31590132Y27840677D01*
X31597188Y27843044D01*
X32077863Y27843044D01*
X32086136Y27839617D01*
G37*
%TD.AperFunction*%
%TD*%
%TA.AperFunction,Conductor*%
%TO.N,+3V3*%
G36*
X33522563Y45500573D02*
G01*
X33525790Y45494456D01*
X33671408Y44717821D01*
X33669564Y44709058D01*
X33662064Y44704165D01*
X33659937Y44703965D01*
X33274029Y44703001D01*
X33273971Y44703001D01*
X32888062Y44703965D01*
X32879797Y44707413D01*
X32876391Y44715694D01*
X32876591Y44717821D01*
X33022210Y45494456D01*
X33027103Y45501956D01*
X33033710Y45504000D01*
X33514290Y45504000D01*
X33522563Y45500573D01*
G37*
%TD.AperFunction*%
%TD*%
%TA.AperFunction,Conductor*%
%TO.N,+3V3*%
G36*
X31259939Y39115036D02*
G01*
X31268202Y39111588D01*
X31271608Y39103307D01*
X31271408Y39101180D01*
X31125790Y38324544D01*
X31120897Y38317044D01*
X31114290Y38315000D01*
X30633710Y38315000D01*
X30625437Y38318427D01*
X30622210Y38324544D01*
X30476591Y39101180D01*
X30478435Y39109943D01*
X30485935Y39114836D01*
X30488052Y39115036D01*
X30874000Y39116000D01*
X31259939Y39115036D01*
G37*
%TD.AperFunction*%
%TD*%
%TA.AperFunction,Conductor*%
%TO.N,+3V3*%
G36*
X57306975Y32528410D02*
G01*
X58083615Y32382790D01*
X58091114Y32377897D01*
X58093158Y32371290D01*
X58093158Y31890711D01*
X58089731Y31882438D01*
X58083614Y31879211D01*
X57306978Y31733592D01*
X57298215Y31735436D01*
X57293322Y31742936D01*
X57293122Y31745054D01*
X57292158Y32131000D01*
X57293122Y32516941D01*
X57296570Y32525203D01*
X57304851Y32528609D01*
X57306975Y32528410D01*
G37*
%TD.AperFunction*%
%TD*%
%TA.AperFunction,Conductor*%
%TO.N,+3V3*%
G36*
X44007188Y27212573D02*
G01*
X44009859Y27208437D01*
X44247551Y26579656D01*
X44247271Y26570706D01*
X44241109Y26564720D01*
X43886502Y26416877D01*
X43877548Y26416856D01*
X43877498Y26416877D01*
X43522890Y26564720D01*
X43516572Y26571067D01*
X43516448Y26579655D01*
X43754141Y27208438D01*
X43760272Y27214964D01*
X43765085Y27216000D01*
X43998915Y27216000D01*
X44007188Y27212573D01*
G37*
%TD.AperFunction*%
%TD*%
%TA.AperFunction,Conductor*%
%TO.N,+3V3*%
G36*
X77093939Y39370036D02*
G01*
X77102202Y39366588D01*
X77105608Y39358307D01*
X77105408Y39356180D01*
X76959790Y38579544D01*
X76954897Y38572044D01*
X76948290Y38570000D01*
X76467710Y38570000D01*
X76459437Y38573427D01*
X76456210Y38579544D01*
X76310591Y39356180D01*
X76312435Y39364943D01*
X76319935Y39369836D01*
X76322052Y39370036D01*
X76708000Y39371000D01*
X77093939Y39370036D01*
G37*
%TD.AperFunction*%
%TD*%
%TA.AperFunction,Conductor*%
%TO.N,+3V3*%
G36*
X76956563Y31813573D02*
G01*
X76959790Y31807456D01*
X77105408Y31030821D01*
X77103564Y31022058D01*
X77096064Y31017165D01*
X77093937Y31016965D01*
X76708029Y31016001D01*
X76707971Y31016001D01*
X76322062Y31016965D01*
X76313797Y31020413D01*
X76310391Y31028694D01*
X76310591Y31030821D01*
X76456210Y31807456D01*
X76461103Y31814956D01*
X76467710Y31817000D01*
X76948290Y31817000D01*
X76956563Y31813573D01*
G37*
%TD.AperFunction*%
%TD*%
%TA.AperFunction,Conductor*%
%TO.N,+3V3*%
G36*
X54750817Y29734410D02*
G01*
X55527457Y29588790D01*
X55534956Y29583897D01*
X55537000Y29577290D01*
X55537000Y29096711D01*
X55533573Y29088438D01*
X55527456Y29085211D01*
X54750820Y28939592D01*
X54742057Y28941436D01*
X54737164Y28948936D01*
X54736964Y28951054D01*
X54736000Y29337000D01*
X54736964Y29722941D01*
X54740412Y29731203D01*
X54748693Y29734609D01*
X54750817Y29734410D01*
G37*
%TD.AperFunction*%
%TD*%
%TA.AperFunction,Conductor*%
%TO.N,+3V3*%
G36*
X48436605Y37485052D02*
G01*
X48439525Y37480187D01*
X48626467Y36866205D01*
X48625598Y36857292D01*
X48619776Y36851998D01*
X48262175Y36702907D01*
X48257644Y36702006D01*
X47872870Y36702968D01*
X47864605Y36706416D01*
X47861199Y36714697D01*
X47861254Y36715796D01*
X47935965Y37477920D01*
X47940182Y37485820D01*
X47947609Y37488479D01*
X48428332Y37488479D01*
X48436605Y37485052D01*
G37*
%TD.AperFunction*%
%TD*%
%TA.AperFunction,Conductor*%
%TO.N,+3V3*%
G36*
X44062696Y26775110D02*
G01*
X44674437Y26543859D01*
X44680964Y26537728D01*
X44682000Y26532915D01*
X44682000Y26299086D01*
X44678573Y26290813D01*
X44674437Y26288142D01*
X44045655Y26050449D01*
X44036705Y26050729D01*
X44030719Y26056891D01*
X43934306Y26288142D01*
X43882875Y26411501D01*
X43882855Y26420450D01*
X44030719Y26775111D01*
X44037066Y26781428D01*
X44045654Y26781552D01*
X44062696Y26775110D01*
G37*
%TD.AperFunction*%
%TD*%
%TA.AperFunction,Conductor*%
%TO.N,/VBAT*%
G36*
X51869696Y39475110D02*
G01*
X52481437Y39243859D01*
X52487964Y39237728D01*
X52489000Y39232915D01*
X52489000Y38999086D01*
X52485573Y38990813D01*
X52481437Y38988142D01*
X51852655Y38750449D01*
X51843705Y38750729D01*
X51837719Y38756891D01*
X51741306Y38988142D01*
X51689875Y39111501D01*
X51689855Y39120450D01*
X51837719Y39475111D01*
X51844066Y39481428D01*
X51852654Y39481552D01*
X51869696Y39475110D01*
G37*
%TD.AperFunction*%
%TD*%
%TA.AperFunction,Conductor*%
%TO.N,/VBAT*%
G36*
X44007188Y38642573D02*
G01*
X44009859Y38638437D01*
X44247551Y38009656D01*
X44247271Y38000706D01*
X44241109Y37994720D01*
X43886502Y37846877D01*
X43877548Y37846856D01*
X43877498Y37846877D01*
X43522890Y37994720D01*
X43516572Y38001067D01*
X43516448Y38009655D01*
X43754141Y38638438D01*
X43760272Y38644964D01*
X43765085Y38646000D01*
X43998915Y38646000D01*
X44007188Y38642573D01*
G37*
%TD.AperFunction*%
%TD*%
%TA.AperFunction,Conductor*%
%TO.N,+5V*%
G36*
X13837563Y38642573D02*
G01*
X13840790Y38636456D01*
X13986408Y37859821D01*
X13984564Y37851058D01*
X13977064Y37846165D01*
X13974937Y37845965D01*
X13589029Y37845001D01*
X13588971Y37845001D01*
X13203062Y37845965D01*
X13194797Y37849413D01*
X13191391Y37857694D01*
X13191591Y37859821D01*
X13337210Y38636456D01*
X13342103Y38643956D01*
X13348710Y38646000D01*
X13829290Y38646000D01*
X13837563Y38642573D01*
G37*
%TD.AperFunction*%
%TD*%
%TA.AperFunction,Conductor*%
%TO.N,+5V*%
G36*
X13837563Y33054573D02*
G01*
X13840790Y33048456D01*
X13986408Y32271821D01*
X13984564Y32263058D01*
X13977064Y32258165D01*
X13974937Y32257965D01*
X13589029Y32257001D01*
X13588971Y32257001D01*
X13203062Y32257965D01*
X13194797Y32261413D01*
X13191391Y32269694D01*
X13191591Y32271821D01*
X13337210Y33048456D01*
X13342103Y33055956D01*
X13348710Y33058000D01*
X13829290Y33058000D01*
X13837563Y33054573D01*
G37*
%TD.AperFunction*%
%TD*%
%TA.AperFunction,Conductor*%
%TO.N,/LED_HB*%
G36*
X49800047Y29749451D02*
G01*
X49801040Y29748322D01*
X50187579Y29246968D01*
X50189916Y29238324D01*
X50186607Y29231572D01*
X49915146Y28958750D01*
X49906881Y28955302D01*
X49906831Y28955302D01*
X49524803Y28955976D01*
X49516536Y28959417D01*
X49513124Y28967697D01*
X49513286Y28969614D01*
X49558497Y29238843D01*
X49615517Y29578399D01*
X49618780Y29584730D01*
X49783502Y29749452D01*
X49791774Y29752878D01*
X49800047Y29749451D01*
G37*
%TD.AperFunction*%
%TD*%
%TA.AperFunction,Conductor*%
%TO.N,/LED_HB*%
G36*
X52184044Y29104747D02*
G01*
X52190206Y29098761D01*
X52466747Y28486072D01*
X52467027Y28477122D01*
X52464356Y28472986D01*
X52299014Y28307644D01*
X52290741Y28304217D01*
X52285928Y28305253D01*
X51673239Y28581794D01*
X51667108Y28588321D01*
X51667232Y28596910D01*
X51813437Y28952198D01*
X51819753Y28958543D01*
X52175090Y29104768D01*
X52184044Y29104747D01*
G37*
%TD.AperFunction*%
%TD*%
%TA.AperFunction,Conductor*%
%TO.N,/USB_OTG_VSEN*%
G36*
X85006456Y21909552D02*
G01*
X85754559Y21162430D01*
X85757991Y21154159D01*
X85754570Y21145883D01*
X85754408Y21145725D01*
X85006977Y20425745D01*
X84998641Y20422473D01*
X84992095Y20424625D01*
X84242935Y20955503D01*
X84238166Y20963082D01*
X84238000Y20965049D01*
X84238000Y21452374D01*
X84241427Y21460647D01*
X84243682Y21462408D01*
X84992173Y21911307D01*
X85001030Y21912622D01*
X85006456Y21909552D01*
G37*
%TD.AperFunction*%
%TD*%
%TA.AperFunction,Conductor*%
%TO.N,/USB_D_N*%
G36*
X84591897Y24444390D02*
G01*
X85750594Y24416277D01*
X85758781Y24412650D01*
X85762010Y24404591D01*
X85762702Y23658155D01*
X85759283Y23649879D01*
X85759264Y23649860D01*
X85232890Y23124865D01*
X85224613Y23121449D01*
X85216344Y23124887D01*
X85215149Y23126290D01*
X84833804Y23653293D01*
X84403835Y24247493D01*
X84401763Y24256203D01*
X84405040Y24262622D01*
X84583384Y24440966D01*
X84591656Y24444392D01*
X84591897Y24444390D01*
G37*
%TD.AperFunction*%
%TD*%
%TA.AperFunction,Conductor*%
%TO.N,/USB_D_P*%
G36*
X85231493Y26184287D02*
G01*
X85233029Y26182997D01*
X85759264Y25658141D01*
X85762702Y25649872D01*
X85762702Y25649846D01*
X85762010Y24903151D01*
X85758575Y24894881D01*
X85750862Y24891475D01*
X84597405Y24837043D01*
X84588979Y24840076D01*
X84588580Y24840457D01*
X84410252Y25018785D01*
X84406825Y25027058D01*
X84408951Y25033784D01*
X84841743Y25649846D01*
X85215193Y26181440D01*
X85222753Y26186238D01*
X85231493Y26184287D01*
G37*
%TD.AperFunction*%
%TD*%
%TA.AperFunction,Conductor*%
%TO.N,/UART_TX*%
G36*
X28233412Y51553584D02*
G01*
X28235053Y51551943D01*
X28720346Y50959198D01*
X28722935Y50950626D01*
X28722013Y50947099D01*
X28354066Y50105542D01*
X28347612Y50099334D01*
X28343346Y50098529D01*
X28108654Y50098529D01*
X28100381Y50101956D01*
X28097934Y50105542D01*
X27729986Y50947099D01*
X27729811Y50956052D01*
X27731651Y50959195D01*
X28216947Y51551944D01*
X28224840Y51556173D01*
X28233412Y51553584D01*
G37*
%TD.AperFunction*%
%TD*%
%TA.AperFunction,Conductor*%
%TO.N,/UART_RX*%
G36*
X26233412Y51553584D02*
G01*
X26235053Y51551943D01*
X26720346Y50959198D01*
X26722935Y50950626D01*
X26722013Y50947099D01*
X26354066Y50105542D01*
X26347612Y50099334D01*
X26343346Y50098529D01*
X26108654Y50098529D01*
X26100381Y50101956D01*
X26097934Y50105542D01*
X25729986Y50947099D01*
X25729811Y50956052D01*
X25731651Y50959195D01*
X26216947Y51551944D01*
X26224840Y51556173D01*
X26233412Y51553584D01*
G37*
%TD.AperFunction*%
%TD*%
%TA.AperFunction,Conductor*%
%TO.N,Net-(J301-Pin_2)*%
G36*
X4888278Y45588138D02*
G01*
X4888830Y45587893D01*
X6205342Y44959180D01*
X6211331Y44952522D01*
X6212000Y44948622D01*
X6212000Y44713379D01*
X6208573Y44705106D01*
X6205342Y44702821D01*
X4888831Y44074109D01*
X4879889Y44073636D01*
X4873231Y44079625D01*
X4872996Y44080153D01*
X4562864Y44826512D01*
X4562855Y44835465D01*
X4562865Y44835489D01*
X4611495Y44952522D01*
X4872986Y45581825D01*
X4879324Y45588148D01*
X4888278Y45588138D01*
G37*
%TD.AperFunction*%
%TD*%
%TA.AperFunction,Conductor*%
%TO.N,Net-(J302-Pin_2)*%
G36*
X4888278Y35047138D02*
G01*
X4888830Y35046893D01*
X6205342Y34418180D01*
X6211331Y34411522D01*
X6212000Y34407622D01*
X6212000Y34172379D01*
X6208573Y34164106D01*
X6205342Y34161821D01*
X4888831Y33533109D01*
X4879889Y33532636D01*
X4873231Y33538625D01*
X4872996Y33539153D01*
X4562864Y34285512D01*
X4562855Y34294465D01*
X4562865Y34294489D01*
X4611495Y34411522D01*
X4872986Y35040825D01*
X4879324Y35047148D01*
X4888278Y35047138D01*
G37*
%TD.AperFunction*%
%TD*%
%TA.AperFunction,Conductor*%
%TO.N,/SNES_CLK*%
G36*
X28524327Y15088726D02*
G01*
X28526537Y15086992D01*
X28694021Y14919508D01*
X28697448Y14911235D01*
X28697126Y14908508D01*
X28310832Y13296685D01*
X28305571Y13289439D01*
X28299053Y13287719D01*
X26952107Y13333923D01*
X26943956Y13337631D01*
X26940819Y13345104D01*
X26882318Y14679524D01*
X26885379Y14687939D01*
X26891216Y14691399D01*
X28515475Y15090082D01*
X28524327Y15088726D01*
G37*
%TD.AperFunction*%
%TD*%
%TA.AperFunction,Conductor*%
%TO.N,/SNES_CLK*%
G36*
X35054171Y24892095D02*
G01*
X35385757Y24753851D01*
X35409077Y24744128D01*
X35415395Y24737781D01*
X35415374Y24728827D01*
X35414618Y24727327D01*
X35053406Y24122960D01*
X35046220Y24117616D01*
X35043363Y24117262D01*
X34809676Y24117262D01*
X34801403Y24120689D01*
X34798184Y24126767D01*
X34654647Y24878143D01*
X34656460Y24886910D01*
X34663944Y24891828D01*
X34666102Y24892036D01*
X35049648Y24892995D01*
X35054171Y24892095D01*
G37*
%TD.AperFunction*%
%TD*%
%TA.AperFunction,Conductor*%
%TO.N,/SNES_CLK*%
G36*
X37630071Y26558748D02*
G01*
X38242760Y26282207D01*
X38248891Y26275680D01*
X38248767Y26267091D01*
X38102563Y25911805D01*
X38096245Y25905458D01*
X38096195Y25905437D01*
X37740909Y25759233D01*
X37731955Y25759254D01*
X37725793Y25765240D01*
X37661676Y25907293D01*
X37499279Y26267091D01*
X37449252Y26377929D01*
X37448972Y26386879D01*
X37451641Y26391013D01*
X37616986Y26556358D01*
X37625258Y26559784D01*
X37630071Y26558748D01*
G37*
%TD.AperFunction*%
%TD*%
%TA.AperFunction,Conductor*%
%TO.N,/SNES_LATCH*%
G36*
X37000381Y26525219D02*
G01*
X37003808Y26516946D01*
X37003476Y26514177D01*
X36821775Y25768162D01*
X36816487Y25760935D01*
X36807638Y25759563D01*
X36805955Y25760111D01*
X36453503Y25905147D01*
X36447156Y25911465D01*
X36447141Y25911500D01*
X36299940Y26267838D01*
X36299949Y26276793D01*
X36305156Y26282579D01*
X36754383Y26527222D01*
X36759979Y26528646D01*
X36992108Y26528646D01*
X37000381Y26525219D01*
G37*
%TD.AperFunction*%
%TD*%
%TA.AperFunction,Conductor*%
%TO.N,/SNES_LATCH*%
G36*
X31912439Y15439426D02*
G01*
X32079906Y15271959D01*
X32083265Y15264950D01*
X32253178Y13700762D01*
X32250664Y13692167D01*
X32244612Y13688207D01*
X30951658Y13337108D01*
X30942776Y13338247D01*
X30937604Y13344381D01*
X30811888Y13688207D01*
X30479492Y14597291D01*
X30479869Y14606236D01*
X30484555Y14611396D01*
X31898245Y15441244D01*
X31907113Y15442476D01*
X31912439Y15439426D01*
G37*
%TD.AperFunction*%
%TD*%
%TA.AperFunction,Conductor*%
%TO.N,/SNES_LATCH*%
G36*
X36808109Y25759281D02*
G01*
X36814427Y25752934D01*
X36814551Y25744345D01*
X36576859Y25115563D01*
X36570728Y25109036D01*
X36565915Y25108000D01*
X36332085Y25108000D01*
X36323812Y25111427D01*
X36321141Y25115563D01*
X36083448Y25744345D01*
X36083728Y25753295D01*
X36089889Y25759281D01*
X36444500Y25907125D01*
X36453449Y25907145D01*
X36808109Y25759281D01*
G37*
%TD.AperFunction*%
%TD*%
%TA.AperFunction,Conductor*%
%TO.N,/SCL*%
G36*
X73004901Y34976014D02*
G01*
X73008714Y34974347D01*
X73846459Y34608066D01*
X73852666Y34601613D01*
X73853471Y34597347D01*
X73853471Y34362654D01*
X73850044Y34354381D01*
X73846458Y34351934D01*
X73004901Y33983987D01*
X72995948Y33983812D01*
X72992802Y33985654D01*
X72744728Y34188757D01*
X72400056Y34470948D01*
X72395827Y34478840D01*
X72398416Y34487412D01*
X72400057Y34489053D01*
X72532329Y34597347D01*
X72992803Y34974348D01*
X73001374Y34976936D01*
X73004901Y34976014D01*
G37*
%TD.AperFunction*%
%TD*%
%TA.AperFunction,Conductor*%
%TO.N,/SCL*%
G36*
X71998318Y35064971D02*
G01*
X72002981Y35060917D01*
X72384821Y34488122D01*
X72386559Y34479337D01*
X72382494Y34472576D01*
X71788432Y33986660D01*
X71779858Y33984074D01*
X71774428Y33986053D01*
X70925209Y34565715D01*
X70920308Y34573209D01*
X70922142Y34581974D01*
X70923527Y34583646D01*
X71088443Y34748562D01*
X71092843Y34751329D01*
X71989378Y35065469D01*
X71998318Y35064971D01*
G37*
%TD.AperFunction*%
%TD*%
%TA.AperFunction,Conductor*%
%TO.N,/SDA*%
G36*
X73004901Y36976014D02*
G01*
X73008714Y36974347D01*
X73846459Y36608066D01*
X73852666Y36601613D01*
X73853471Y36597347D01*
X73853471Y36362654D01*
X73850044Y36354381D01*
X73846458Y36351934D01*
X73004901Y35983987D01*
X72995948Y35983812D01*
X72992802Y35985654D01*
X72744728Y36188757D01*
X72400056Y36470948D01*
X72395827Y36478840D01*
X72398416Y36487412D01*
X72400057Y36489053D01*
X72532329Y36597347D01*
X72992803Y36974348D01*
X73001374Y36976936D01*
X73004901Y36976014D01*
G37*
%TD.AperFunction*%
%TD*%
%TA.AperFunction,Conductor*%
%TO.N,/SDA*%
G36*
X71257150Y37255583D02*
G01*
X72536677Y37079811D01*
X72544407Y37075290D01*
X72546676Y37066628D01*
X72546393Y37065215D01*
X72392421Y36485747D01*
X72386984Y36478632D01*
X72384276Y36477488D01*
X71581978Y36252238D01*
X71573086Y36253301D01*
X71568787Y36257474D01*
X71079338Y37071760D01*
X71078013Y37080617D01*
X71081091Y37086059D01*
X71247297Y37252265D01*
X71255569Y37255691D01*
X71257150Y37255583D01*
G37*
%TD.AperFunction*%
%TD*%
%TA.AperFunction,Conductor*%
%TO.N,/LED_GRID0*%
G36*
X36269572Y35443167D02*
G01*
X36274430Y35437589D01*
X36422723Y35081902D01*
X36422744Y35072948D01*
X36422723Y35072898D01*
X36275415Y34719575D01*
X36269068Y34713257D01*
X36260114Y34713278D01*
X36259242Y34713684D01*
X35646157Y35030729D01*
X35640382Y35037574D01*
X35639831Y35041122D01*
X35639831Y35274939D01*
X35643258Y35283212D01*
X35648602Y35286267D01*
X36260706Y35444415D01*
X36269572Y35443167D01*
G37*
%TD.AperFunction*%
%TD*%
%TA.AperFunction,Conductor*%
%TO.N,/LED_GRID0*%
G36*
X18260294Y40243272D02*
G01*
X18266280Y40237110D01*
X18414123Y39882502D01*
X18414144Y39873548D01*
X18414123Y39873498D01*
X18266280Y39518891D01*
X18259933Y39512573D01*
X18251344Y39512449D01*
X17622563Y39750142D01*
X17616036Y39756273D01*
X17615000Y39761086D01*
X17615000Y39994915D01*
X17618427Y40003188D01*
X17622563Y40005859D01*
X18251345Y40243552D01*
X18260294Y40243272D01*
G37*
%TD.AperFunction*%
%TD*%
%TA.AperFunction,Conductor*%
%TO.N,/LED_GRID1*%
G36*
X36167294Y33512272D02*
G01*
X36173280Y33506110D01*
X36321123Y33151502D01*
X36321144Y33142548D01*
X36321123Y33142498D01*
X36173280Y32787891D01*
X36166933Y32781573D01*
X36158344Y32781449D01*
X35529563Y33019142D01*
X35523036Y33025273D01*
X35522000Y33030086D01*
X35522000Y33263915D01*
X35525427Y33272188D01*
X35529563Y33274859D01*
X36158345Y33512552D01*
X36167294Y33512272D01*
G37*
%TD.AperFunction*%
%TD*%
%TA.AperFunction,Conductor*%
%TO.N,/LED_GRID1*%
G36*
X18260294Y34655272D02*
G01*
X18266280Y34649110D01*
X18414123Y34294502D01*
X18414144Y34285548D01*
X18414123Y34285498D01*
X18266280Y33930891D01*
X18259933Y33924573D01*
X18251344Y33924449D01*
X17622563Y34162142D01*
X17616036Y34168273D01*
X17615000Y34173086D01*
X17615000Y34406915D01*
X17618427Y34415188D01*
X17622563Y34417859D01*
X18251345Y34655552D01*
X18260294Y34655272D01*
G37*
%TD.AperFunction*%
%TD*%
%TA.AperFunction,Conductor*%
%TO.N,/OLED_RST*%
G36*
X24445619Y22669044D02*
G01*
X24448066Y22665458D01*
X24816013Y21823902D01*
X24816188Y21814949D01*
X24814346Y21811803D01*
X24329053Y21219058D01*
X24321160Y21214828D01*
X24312588Y21217417D01*
X24310947Y21219058D01*
X23825653Y21811803D01*
X23823064Y21820375D01*
X23823986Y21823902D01*
X24191934Y22665458D01*
X24198388Y22671666D01*
X24202654Y22672471D01*
X24437346Y22672471D01*
X24445619Y22669044D01*
G37*
%TD.AperFunction*%
%TD*%
%TA.AperFunction,Conductor*%
%TO.N,/OLED_DC*%
G36*
X28445619Y22669044D02*
G01*
X28448066Y22665458D01*
X28816013Y21823902D01*
X28816188Y21814949D01*
X28814346Y21811803D01*
X28329053Y21219058D01*
X28321160Y21214828D01*
X28312588Y21217417D01*
X28310947Y21219058D01*
X27825653Y21811803D01*
X27823064Y21820375D01*
X27823986Y21823902D01*
X28191934Y22665458D01*
X28198388Y22671666D01*
X28202654Y22672471D01*
X28437346Y22672471D01*
X28445619Y22669044D01*
G37*
%TD.AperFunction*%
%TD*%
%TA.AperFunction,Conductor*%
%TO.N,/SNES_DATA1*%
G36*
X37990618Y59049522D02*
G01*
X37992727Y59047937D01*
X39065176Y58241793D01*
X39069730Y58234083D01*
X39068734Y58227463D01*
X38355161Y56709880D01*
X38348539Y56703851D01*
X38344573Y56703158D01*
X38107796Y56703158D01*
X38099523Y56706585D01*
X38098488Y56707770D01*
X37087969Y58034751D01*
X37085683Y58043409D01*
X37088526Y58049605D01*
X37974842Y59047938D01*
X37982896Y59051848D01*
X37990618Y59049522D01*
G37*
%TD.AperFunction*%
%TD*%
%TA.AperFunction,Conductor*%
%TO.N,/OLED_CE*%
G36*
X26445619Y22669044D02*
G01*
X26448066Y22665458D01*
X26816013Y21823902D01*
X26816188Y21814949D01*
X26814346Y21811803D01*
X26329053Y21219058D01*
X26321160Y21214828D01*
X26312588Y21217417D01*
X26310947Y21219058D01*
X25825653Y21811803D01*
X25823064Y21820375D01*
X25823986Y21823902D01*
X26191934Y22665458D01*
X26198388Y22671666D01*
X26202654Y22672471D01*
X26437346Y22672471D01*
X26445619Y22669044D01*
G37*
%TD.AperFunction*%
%TD*%
%TA.AperFunction,Conductor*%
%TO.N,/SNES_DATA0*%
G36*
X35980433Y15414798D02*
G01*
X36147908Y15247323D01*
X36151307Y15239863D01*
X36261642Y13654952D01*
X36258798Y13646460D01*
X36252649Y13642750D01*
X34951725Y13336747D01*
X34942887Y13338188D01*
X34937935Y13344470D01*
X34519811Y14612003D01*
X34520474Y14620932D01*
X34525292Y14625923D01*
X35966533Y15416783D01*
X35975433Y15417758D01*
X35980433Y15414798D01*
G37*
%TD.AperFunction*%
%TD*%
%TA.AperFunction,Conductor*%
%TO.N,Net-(OLED102-MOSI)*%
G36*
X22445619Y22669044D02*
G01*
X22448066Y22665458D01*
X22816013Y21823902D01*
X22816188Y21814949D01*
X22814346Y21811803D01*
X22329053Y21219058D01*
X22321160Y21214828D01*
X22312588Y21217417D01*
X22310947Y21219058D01*
X21825653Y21811803D01*
X21823064Y21820375D01*
X21823986Y21823902D01*
X22191934Y22665458D01*
X22198388Y22671666D01*
X22202654Y22672471D01*
X22437346Y22672471D01*
X22445619Y22669044D01*
G37*
%TD.AperFunction*%
%TD*%
%TA.AperFunction,Conductor*%
%TO.N,Net-(OLED102-SCLK)*%
G36*
X20445619Y22669044D02*
G01*
X20448066Y22665458D01*
X20816013Y21823902D01*
X20816188Y21814949D01*
X20814346Y21811803D01*
X20329053Y21219058D01*
X20321160Y21214828D01*
X20312588Y21217417D01*
X20310947Y21219058D01*
X19825653Y21811803D01*
X19823064Y21820375D01*
X19823986Y21823902D01*
X20191934Y22665458D01*
X20198388Y22671666D01*
X20202654Y22672471D01*
X20437346Y22672471D01*
X20445619Y22669044D01*
G37*
%TD.AperFunction*%
%TD*%
M02*
