M48
; DRILL file {KiCad 7.0.9} date Monday, January 15, 2024 at 05:48:45 PM
; FORMAT={-:-/ absolute / inch / decimal}
; #@! TF.CreationDate,2024-01-15T17:48:45-05:00
; #@! TF.GenerationSoftware,Kicad,Pcbnew,7.0.9
; #@! TF.FileFunction,Plated,1,4,PTH
FMAT,2
INCH
; #@! TA.AperFunction,Plated,PTH,ViaDrill
T1C0.0157
; #@! TA.AperFunction,Plated,PTH,ViaDrill
T2C0.0236
; #@! TA.AperFunction,Plated,PTH,ComponentDrill
T3C0.0295
; #@! TA.AperFunction,Plated,PTH,ComponentDrill
T4C0.0362
; #@! TA.AperFunction,Plated,PTH,ComponentDrill
T5C0.0394
; #@! TA.AperFunction,Plated,PTH,ComponentDrill
T6C0.0433
; #@! TA.AperFunction,Plated,PTH,ComponentDrill
T7C0.0472
; #@! TA.AperFunction,Plated,PTH,ComponentDrill
T8C0.0591
; #@! TA.AperFunction,Plated,PTH,ComponentDrill
T9C0.0906
%
G90
G05
T1
X0.435Y1.1
X0.485Y1.31
X0.4877Y1.5374
X0.677Y1.385
X0.677Y1.31
X0.68Y1.6124
X0.68Y1.535
X0.985Y1.17
X1.09Y1.085
X1.145Y1.23
X1.145Y1.17
X1.145Y1.11
X1.17Y1.62
X1.17Y1.58
X1.19Y1.485
X1.2534Y1.4866
X1.255Y1.065
X1.28Y1.62
X1.28Y1.58
X1.31Y1.76
X1.32Y1.685
X1.345Y1.115
X1.35Y1.07
X1.39Y0.965
X1.39Y0.925
X1.39Y0.87
X1.39Y0.83
X1.41Y1.465
X1.41Y1.205
X1.4216Y1.306
X1.4221Y1.3823
X1.435Y1.02
X1.4594Y1.395
X1.4594Y1.295
X1.475Y0.83
X1.475Y0.785
X1.5Y1.66
X1.5Y1.02
X1.5Y0.97
X1.575Y1.47
X1.595Y1.915
X1.61Y1.49
X1.65Y1.93
X1.7Y1.99
X1.7073Y1.1623
X1.725Y1.4115
X1.7276Y1.49
X1.7276Y1.04
X1.805Y1.805
X1.875Y1.04
X1.9Y1.445
X1.92Y0.79
X1.9575Y0.8125
X1.965Y1.14
X1.975Y1.775
X1.975Y1.67
X2.005Y1.49
X2.005Y0.825
X2.035Y1.54
X2.04Y1.14
X2.095Y1.95
X2.1316Y1.2584
X2.155Y1.155
X2.18Y1.605
X2.18Y1.54
X2.18Y1.475
X2.325Y0.84
X2.355Y0.87
X2.36Y0.615
X2.405Y0.615
X2.43Y1.155
X2.43Y1.075
X2.485Y1.41
X2.485Y1.36
X2.485Y1.31
X2.485Y1.26
X2.515Y2.74
X2.515Y0.105
X2.67Y2.3629
X2.67Y2.26
X2.71Y0.88
X2.715Y0.515
X2.7488Y2.26
X2.7889Y0.3725
X2.8275Y2.26
X2.9063Y2.26
X2.9552Y1.55
X2.9552Y1.2211
X2.975Y2.12
X2.975Y2.06
X2.985Y2.3629
X2.985Y2.26
X2.99Y1.06
X3.02Y2.12
X3.02Y2.06
X3.0231Y0.3725
X3.0449Y0.8099
X3.065Y2.12
X3.065Y2.06
X3.0889Y0.3175
X3.11Y0.59
X3.11Y0.545
X3.12Y1.945
X3.14Y1.855
X3.15Y2.24
X3.2Y0.73
X3.22Y1.945
T2
X3.23Y2.455
X3.31Y2.455
X3.39Y2.455
T3
X0.885Y1.6874
X0.885Y1.6087
X0.885Y1.53
X0.885Y1.4512
X0.885Y1.3725
X0.885Y1.2937
X0.885Y1.215
X1.1438Y2.0133
X1.2225Y2.0133
X1.3013Y2.0133
X1.38Y2.0133
X2.76Y1.4362
X2.76Y1.3575
X2.76Y1.2787
X2.76Y1.2
T4
X3.3765Y1.1084
X3.3765Y1.01
X3.3765Y0.9313
X3.3765Y0.8328
T6
X0.1796Y1.865
X0.1796Y1.765
X0.1796Y1.665
X0.1796Y1.45
X0.1796Y1.35
X0.1796Y1.25
T7
X2.5694Y1.855
X2.8646Y1.855
T8
X0.9032Y0.5495
X0.9245Y2.2905
X1.0607Y0.5495
X1.082Y2.2905
X1.2182Y0.5495
X1.2394Y2.2905
X1.3757Y0.5495
X1.4954Y2.2905
X1.6316Y0.5495
X1.6528Y2.2905
X1.7891Y0.5495
X1.8103Y2.2905
X1.9465Y0.5495
X1.9678Y2.2905
T9
X3.4831Y1.2293
X3.4831Y0.712
T5
G00X2.6481Y2.6173
M15
G01X2.6481Y2.6685
M16
G05
G00X2.7997Y2.6016
M15
G01X2.8509Y2.6016
M16
G05
G00X2.7859Y2.3653
M15
G01X2.8646Y2.3653
M16
G05
G00X3.0024Y2.6685
M15
G01X3.0024Y2.6173
M16
G05
T0
M30
