M48
; DRILL file {KiCad 7.0.9} date Monday, January 15, 2024 at 05:24:14 PM
; FORMAT={-:-/ absolute / inch / decimal}
; #@! TF.CreationDate,2024-01-15T17:24:14-05:00
; #@! TF.GenerationSoftware,Kicad,Pcbnew,7.0.9
; #@! TF.FileFunction,Plated,1,4,PTH
FMAT,2
INCH
; #@! TA.AperFunction,Plated,PTH,ViaDrill
T1C0.0157
; #@! TA.AperFunction,Plated,PTH,ViaDrill
T2C0.0236
; #@! TA.AperFunction,Plated,PTH,ComponentDrill
T3C0.0295
; #@! TA.AperFunction,Plated,PTH,ComponentDrill
T4C0.0362
; #@! TA.AperFunction,Plated,PTH,ComponentDrill
T5C0.0394
; #@! TA.AperFunction,Plated,PTH,ComponentDrill
T6C0.0433
; #@! TA.AperFunction,Plated,PTH,ComponentDrill
T7C0.0472
; #@! TA.AperFunction,Plated,PTH,ComponentDrill
T8C0.0591
; #@! TA.AperFunction,Plated,PTH,ComponentDrill
T9C0.0906
%
G90
G05
T1
X5.905Y-4.255
X5.955Y-4.045
X5.9577Y-3.8176
X6.147Y-3.97
X6.147Y-4.045
X6.15Y-3.7426
X6.15Y-3.82
X6.455Y-4.185
X6.56Y-4.27
X6.615Y-4.125
X6.615Y-4.185
X6.615Y-4.245
X6.64Y-3.735
X6.64Y-3.775
X6.66Y-3.87
X6.7234Y-3.8684
X6.725Y-4.29
X6.75Y-3.735
X6.75Y-3.775
X6.78Y-3.595
X6.79Y-3.67
X6.815Y-4.24
X6.82Y-4.285
X6.86Y-4.39
X6.86Y-4.43
X6.86Y-4.485
X6.86Y-4.525
X6.88Y-3.89
X6.88Y-4.15
X6.8916Y-4.049
X6.8921Y-3.9727
X6.905Y-4.335
X6.9294Y-3.96
X6.9294Y-4.06
X6.945Y-4.525
X6.945Y-4.57
X6.97Y-3.695
X6.97Y-4.335
X6.97Y-4.385
X7.045Y-3.885
X7.065Y-3.44
X7.08Y-3.865
X7.12Y-3.425
X7.17Y-3.365
X7.1773Y-4.1927
X7.195Y-3.9435
X7.1976Y-3.865
X7.1976Y-4.315
X7.275Y-3.55
X7.345Y-4.315
X7.37Y-3.91
X7.39Y-4.565
X7.4275Y-4.5425
X7.435Y-4.215
X7.445Y-3.58
X7.445Y-3.685
X7.475Y-3.865
X7.475Y-4.53
X7.505Y-3.815
X7.51Y-4.215
X7.565Y-3.405
X7.6016Y-4.0966
X7.625Y-4.2
X7.65Y-3.75
X7.65Y-3.815
X7.65Y-3.88
X7.795Y-4.515
X7.825Y-4.485
X7.83Y-4.74
X7.875Y-4.74
X7.9Y-4.2
X7.9Y-4.28
X7.955Y-3.945
X7.955Y-3.995
X7.955Y-4.045
X7.955Y-4.095
X7.985Y-2.615
X7.985Y-5.25
X8.14Y-2.9921
X8.14Y-3.095
X8.18Y-4.475
X8.185Y-4.84
X8.2188Y-3.095
X8.2589Y-4.9825
X8.2975Y-3.095
X8.3763Y-3.095
X8.4252Y-3.805
X8.4252Y-4.1339
X8.445Y-3.235
X8.445Y-3.295
X8.455Y-2.9921
X8.455Y-3.095
X8.46Y-4.295
X8.49Y-3.235
X8.49Y-3.295
X8.4931Y-4.9825
X8.5149Y-4.5451
X8.535Y-3.235
X8.535Y-3.295
X8.5589Y-5.0375
X8.58Y-4.765
X8.58Y-4.81
X8.59Y-3.41
X8.61Y-3.5
X8.62Y-3.115
X8.67Y-4.625
X8.69Y-3.41
T2
X8.7Y-2.9
X8.78Y-2.9
X8.86Y-2.9
T3
X6.355Y-3.6676
X6.355Y-3.7463
X6.355Y-3.825
X6.355Y-3.9038
X6.355Y-3.9825
X6.355Y-4.0613
X6.355Y-4.14
X6.6138Y-3.3417
X6.6925Y-3.3417
X6.7713Y-3.3417
X6.85Y-3.3417
X8.23Y-3.9188
X8.23Y-3.9975
X8.23Y-4.0763
X8.23Y-4.155
T4
X8.8465Y-4.2466
X8.8465Y-4.345
X8.8465Y-4.4237
X8.8465Y-4.5222
T6
X5.6496Y-3.49
X5.6496Y-3.59
X5.6496Y-3.69
X5.6496Y-3.905
X5.6496Y-4.005
X5.6496Y-4.105
T7
X8.0394Y-3.5
X8.3346Y-3.5
T8
X6.3732Y-4.7955
X6.3945Y-3.0645
X6.5307Y-4.7955
X6.552Y-3.0645
X6.6882Y-4.7955
X6.7094Y-3.0645
X6.8457Y-4.7955
X6.9654Y-3.0645
X7.1016Y-4.7955
X7.1228Y-3.0645
X7.2591Y-4.7955
X7.2803Y-3.0645
X7.4165Y-4.7955
X7.4378Y-3.0645
T9
X8.9531Y-4.1257
X8.9531Y-4.643
T5
G00X8.1181Y-2.7377
M15
G01X8.1181Y-2.6865
M16
G05
G00X8.2697Y-2.7534
M15
G01X8.3209Y-2.7534
M16
G05
G00X8.2559Y-2.9897
M15
G01X8.3346Y-2.9897
M16
G05
G00X8.4724Y-2.6865
M15
G01X8.4724Y-2.7377
M16
G05
T0
M30
