%TF.GenerationSoftware,KiCad,Pcbnew,7.0.9*%
%TF.CreationDate,2024-01-15T17:48:45-05:00*%
%TF.ProjectId,stm32-snake-controller,73746d33-322d-4736-9e61-6b652d636f6e,A*%
%TF.SameCoordinates,Original*%
%TF.FileFunction,Copper,L1,Top*%
%TF.FilePolarity,Positive*%
%FSLAX46Y46*%
G04 Gerber Fmt 4.6, Leading zero omitted, Abs format (unit mm)*
G04 Created by KiCad (PCBNEW 7.0.9) date 2024-01-15 17:48:45*
%MOMM*%
%LPD*%
G01*
G04 APERTURE LIST*
G04 Aperture macros list*
%AMRoundRect*
0 Rectangle with rounded corners*
0 $1 Rounding radius*
0 $2 $3 $4 $5 $6 $7 $8 $9 X,Y pos of 4 corners*
0 Add a 4 corners polygon primitive as box body*
4,1,4,$2,$3,$4,$5,$6,$7,$8,$9,$2,$3,0*
0 Add four circle primitives for the rounded corners*
1,1,$1+$1,$2,$3*
1,1,$1+$1,$4,$5*
1,1,$1+$1,$6,$7*
1,1,$1+$1,$8,$9*
0 Add four rect primitives between the rounded corners*
20,1,$1+$1,$2,$3,$4,$5,0*
20,1,$1+$1,$4,$5,$6,$7,0*
20,1,$1+$1,$6,$7,$8,$9,0*
20,1,$1+$1,$8,$9,$2,$3,0*%
G04 Aperture macros list end*
%TA.AperFunction,ComponentPad*%
%ADD10RoundRect,0.250000X-0.625000X0.350000X-0.625000X-0.350000X0.625000X-0.350000X0.625000X0.350000X0*%
%TD*%
%TA.AperFunction,ComponentPad*%
%ADD11O,1.750000X1.200000*%
%TD*%
%TA.AperFunction,ComponentPad*%
%ADD12RoundRect,0.250000X0.625000X-0.350000X0.625000X0.350000X-0.625000X0.350000X-0.625000X-0.350000X0*%
%TD*%
%TA.AperFunction,SMDPad,CuDef*%
%ADD13RoundRect,0.200000X0.200000X0.275000X-0.200000X0.275000X-0.200000X-0.275000X0.200000X-0.275000X0*%
%TD*%
%TA.AperFunction,SMDPad,CuDef*%
%ADD14RoundRect,0.150000X0.512500X0.150000X-0.512500X0.150000X-0.512500X-0.150000X0.512500X-0.150000X0*%
%TD*%
%TA.AperFunction,SMDPad,CuDef*%
%ADD15RoundRect,0.200000X-0.200000X-0.275000X0.200000X-0.275000X0.200000X0.275000X-0.200000X0.275000X0*%
%TD*%
%TA.AperFunction,SMDPad,CuDef*%
%ADD16RoundRect,0.225000X0.250000X-0.225000X0.250000X0.225000X-0.250000X0.225000X-0.250000X-0.225000X0*%
%TD*%
%TA.AperFunction,SMDPad,CuDef*%
%ADD17RoundRect,0.250000X0.325000X0.450000X-0.325000X0.450000X-0.325000X-0.450000X0.325000X-0.450000X0*%
%TD*%
%TA.AperFunction,ComponentPad*%
%ADD18R,1.650000X1.650000*%
%TD*%
%TA.AperFunction,ComponentPad*%
%ADD19C,1.650000*%
%TD*%
%TA.AperFunction,SMDPad,CuDef*%
%ADD20R,1.800000X1.000000*%
%TD*%
%TA.AperFunction,SMDPad,CuDef*%
%ADD21RoundRect,0.225000X0.225000X0.250000X-0.225000X0.250000X-0.225000X-0.250000X0.225000X-0.250000X0*%
%TD*%
%TA.AperFunction,SMDPad,CuDef*%
%ADD22R,1.000000X0.750000*%
%TD*%
%TA.AperFunction,SMDPad,CuDef*%
%ADD23RoundRect,0.250000X0.650000X-1.000000X0.650000X1.000000X-0.650000X1.000000X-0.650000X-1.000000X0*%
%TD*%
%TA.AperFunction,SMDPad,CuDef*%
%ADD24RoundRect,0.218750X0.218750X0.256250X-0.218750X0.256250X-0.218750X-0.256250X0.218750X-0.256250X0*%
%TD*%
%TA.AperFunction,SMDPad,CuDef*%
%ADD25RoundRect,0.200000X-0.275000X0.200000X-0.275000X-0.200000X0.275000X-0.200000X0.275000X0.200000X0*%
%TD*%
%TA.AperFunction,ComponentPad*%
%ADD26RoundRect,0.250000X0.350000X0.625000X-0.350000X0.625000X-0.350000X-0.625000X0.350000X-0.625000X0*%
%TD*%
%TA.AperFunction,ComponentPad*%
%ADD27O,1.200000X1.750000*%
%TD*%
%TA.AperFunction,SMDPad,CuDef*%
%ADD28RoundRect,0.150000X-0.587500X-0.150000X0.587500X-0.150000X0.587500X0.150000X-0.587500X0.150000X0*%
%TD*%
%TA.AperFunction,SMDPad,CuDef*%
%ADD29RoundRect,0.200000X0.275000X-0.200000X0.275000X0.200000X-0.275000X0.200000X-0.275000X-0.200000X0*%
%TD*%
%TA.AperFunction,SMDPad,CuDef*%
%ADD30RoundRect,0.225000X-0.225000X-0.250000X0.225000X-0.250000X0.225000X0.250000X-0.225000X0.250000X0*%
%TD*%
%TA.AperFunction,SMDPad,CuDef*%
%ADD31RoundRect,0.150000X0.825000X0.150000X-0.825000X0.150000X-0.825000X-0.150000X0.825000X-0.150000X0*%
%TD*%
%TA.AperFunction,SMDPad,CuDef*%
%ADD32R,1.400000X1.200000*%
%TD*%
%TA.AperFunction,SMDPad,CuDef*%
%ADD33RoundRect,0.150000X-0.150000X0.512500X-0.150000X-0.512500X0.150000X-0.512500X0.150000X0.512500X0*%
%TD*%
%TA.AperFunction,ComponentPad*%
%ADD34O,2.000000X3.300000*%
%TD*%
%TA.AperFunction,ComponentPad*%
%ADD35R,4.000000X2.000000*%
%TD*%
%TA.AperFunction,ComponentPad*%
%ADD36O,3.400000X2.000000*%
%TD*%
%TA.AperFunction,SMDPad,CuDef*%
%ADD37RoundRect,0.225000X-0.250000X0.225000X-0.250000X-0.225000X0.250000X-0.225000X0.250000X0.225000X0*%
%TD*%
%TA.AperFunction,ComponentPad*%
%ADD38RoundRect,0.687500X-0.687500X-0.687500X0.687500X-0.687500X0.687500X0.687500X-0.687500X0.687500X0*%
%TD*%
%TA.AperFunction,ComponentPad*%
%ADD39C,2.750000*%
%TD*%
%TA.AperFunction,SMDPad,CuDef*%
%ADD40C,0.787000*%
%TD*%
%TA.AperFunction,SMDPad,CuDef*%
%ADD41RoundRect,0.075000X-0.075000X0.700000X-0.075000X-0.700000X0.075000X-0.700000X0.075000X0.700000X0*%
%TD*%
%TA.AperFunction,SMDPad,CuDef*%
%ADD42RoundRect,0.075000X-0.700000X0.075000X-0.700000X-0.075000X0.700000X-0.075000X0.700000X0.075000X0*%
%TD*%
%TA.AperFunction,ComponentPad*%
%ADD43RoundRect,0.687500X0.687500X0.687500X-0.687500X0.687500X-0.687500X-0.687500X0.687500X-0.687500X0*%
%TD*%
%TA.AperFunction,SMDPad,CuDef*%
%ADD44RoundRect,0.250000X-0.375000X-0.625000X0.375000X-0.625000X0.375000X0.625000X-0.375000X0.625000X0*%
%TD*%
%TA.AperFunction,ComponentPad*%
%ADD45R,1.524000X1.524000*%
%TD*%
%TA.AperFunction,ComponentPad*%
%ADD46C,1.524000*%
%TD*%
%TA.AperFunction,ComponentPad*%
%ADD47C,3.500000*%
%TD*%
%TA.AperFunction,ComponentPad*%
%ADD48C,1.500000*%
%TD*%
%TA.AperFunction,SMDPad,CuDef*%
%ADD49RoundRect,0.575000X-1.625000X-0.575000X1.625000X-0.575000X1.625000X0.575000X-1.625000X0.575000X0*%
%TD*%
%TA.AperFunction,SMDPad,CuDef*%
%ADD50RoundRect,0.575000X-1.425000X-0.575000X1.425000X-0.575000X1.425000X0.575000X-1.425000X0.575000X0*%
%TD*%
%TA.AperFunction,ViaPad*%
%ADD51C,0.800000*%
%TD*%
%TA.AperFunction,ViaPad*%
%ADD52C,1.000000*%
%TD*%
%TA.AperFunction,Conductor*%
%ADD53C,0.250000*%
%TD*%
%TA.AperFunction,Conductor*%
%ADD54C,0.500000*%
%TD*%
%TA.AperFunction,Conductor*%
%ADD55C,0.267200*%
%TD*%
G04 APERTURE END LIST*
D10*
%TO.P,OLED102,1,GND*%
%TO.N,GND*%
X22479000Y42861000D03*
D11*
%TO.P,OLED102,2,VCC*%
%TO.N,+5V*%
X22479000Y40861000D03*
%TO.P,OLED102,3,MOSI*%
%TO.N,/MOSI*%
X22479000Y38861000D03*
%TO.P,OLED102,4,SCLK*%
%TO.N,/SPI_CLK*%
X22479000Y36861000D03*
%TO.P,OLED102,5,RESET*%
%TO.N,/OLED_RST*%
X22479000Y34861000D03*
%TO.P,OLED102,6,CS*%
%TO.N,/OLED_CE*%
X22479000Y32861000D03*
%TO.P,OLED102,7,DC*%
%TO.N,/OLED_DC*%
X22479000Y30861000D03*
%TD*%
D12*
%TO.P,OLED101,1,GND*%
%TO.N,GND*%
X70104000Y30480000D03*
D11*
%TO.P,OLED101,2,VCC*%
%TO.N,+3V3*%
X70104000Y32480000D03*
%TO.P,OLED101,3,SCL*%
%TO.N,/SCL*%
X70104000Y34480000D03*
%TO.P,OLED101,4,SDA*%
%TO.N,/SDA*%
X70104000Y36480000D03*
%TD*%
D13*
%TO.P,R102,1*%
%TO.N,GND*%
X54387000Y37517000D03*
%TO.P,R102,2*%
%TO.N,Net-(U103-BOOT0)*%
X52737000Y37517000D03*
%TD*%
D14*
%TO.P,U302,1*%
%TO.N,GND*%
X15920300Y33340000D03*
%TO.P,U302,2*%
%TO.N,/LED_GRID0*%
X15920300Y34290000D03*
%TO.P,U302,3,GND*%
%TO.N,GND*%
X15920300Y35240000D03*
%TO.P,U302,4*%
%TO.N,Net-(R302-Pad1)*%
X13645300Y35240000D03*
%TO.P,U302,5,VCC*%
%TO.N,+5V*%
X13645300Y33340000D03*
%TD*%
D15*
%TO.P,R103,1*%
%TO.N,Net-(D104-K)*%
X61151000Y69596000D03*
%TO.P,R103,2*%
%TO.N,GND*%
X62801000Y69596000D03*
%TD*%
D14*
%TO.P,U101,1,I/O1*%
%TO.N,/USB_D_N*%
X77083500Y23688000D03*
%TO.P,U101,2,GND*%
%TO.N,GND*%
X77083500Y24638000D03*
%TO.P,U101,3,I/O2*%
%TO.N,/USB_D_P*%
X77083500Y25588000D03*
%TO.P,U101,4,I/O2*%
%TO.N,/D_P*%
X74808500Y25588000D03*
%TO.P,U101,5,VBUS*%
%TO.N,/USB_OTG_VSEN*%
X74808500Y24638000D03*
%TO.P,U101,6,I/O1*%
%TO.N,/D_N*%
X74808500Y23688000D03*
%TD*%
D16*
%TO.P,C110,1*%
%TO.N,/NRST*%
X78487000Y5321000D03*
%TO.P,C110,2*%
%TO.N,GND*%
X78487000Y6871000D03*
%TD*%
D17*
%TO.P,FB101,1*%
%TO.N,+3.3VA*%
X36585000Y46101000D03*
%TO.P,FB101,2*%
%TO.N,+3V3*%
X34535000Y46101000D03*
%TD*%
D18*
%TO.P,J302,1,Pin_1*%
%TO.N,GND*%
X4562000Y36830000D03*
D19*
%TO.P,J302,2,Pin_2*%
%TO.N,Net-(J302-Pin_2)*%
X4562000Y34290000D03*
%TO.P,J302,3,Pin_3*%
%TO.N,VBUS*%
X4562000Y31750000D03*
%TD*%
D20*
%TO.P,Y101,1,1*%
%TO.N,/LSE_OUT*%
X46609000Y43795000D03*
%TO.P,Y101,2,2*%
%TO.N,/LSE_IN*%
X46609000Y41295000D03*
%TD*%
D21*
%TO.P,C108,1*%
%TO.N,+3.3VA*%
X36703000Y44323000D03*
%TO.P,C108,2*%
%TO.N,GND*%
X35153000Y44323000D03*
%TD*%
D22*
%TO.P,SW101,1,1*%
%TO.N,/NRST*%
X76787000Y4221000D03*
X70787000Y4221000D03*
%TO.P,SW101,2,2*%
%TO.N,GND*%
X76787000Y7971000D03*
X70787000Y7971000D03*
%TD*%
D23*
%TO.P,D102,1,K*%
%TO.N,/VBAT*%
X53213000Y43461000D03*
%TO.P,D102,2,A*%
%TO.N,+3V3*%
X53213000Y47461000D03*
%TD*%
D24*
%TO.P,D103,1,K*%
%TO.N,Net-(D103-K)*%
X57510000Y27432000D03*
%TO.P,D103,2,A*%
%TO.N,/LED_HB*%
X55935000Y27432000D03*
%TD*%
D25*
%TO.P,R502,1*%
%TO.N,/USB_OTG_EN*%
X68961000Y15938000D03*
%TO.P,R502,2*%
%TO.N,+3V3*%
X68961000Y14288000D03*
%TD*%
D26*
%TO.P,J102,1,Pin_1*%
%TO.N,+5V*%
X35052000Y51139000D03*
D27*
%TO.P,J102,2,Pin_2*%
%TO.N,/UART_TX*%
X33052000Y51139000D03*
%TO.P,J102,3,Pin_3*%
%TO.N,/UART_RX*%
X31052000Y51139000D03*
%TO.P,J102,4,Pin_4*%
%TO.N,GND*%
X29052000Y51139000D03*
%TD*%
D16*
%TO.P,C113,1*%
%TO.N,Net-(C113-Pad1)*%
X40470000Y45873000D03*
%TO.P,C113,2*%
%TO.N,GND*%
X40470000Y47423000D03*
%TD*%
D28*
%TO.P,Q101,1,G*%
%TO.N,+3V3*%
X56769000Y45334000D03*
%TO.P,Q101,2,S*%
%TO.N,/VBAT*%
X56769000Y43434000D03*
%TO.P,Q101,3,D*%
%TO.N,/BAT+*%
X58644000Y44384000D03*
%TD*%
D21*
%TO.P,C109,1*%
%TO.N,+3.3VA*%
X36703000Y42799000D03*
%TO.P,C109,2*%
%TO.N,GND*%
X35153000Y42799000D03*
%TD*%
D25*
%TO.P,R108,1*%
%TO.N,/SCL*%
X75057000Y34480000D03*
%TO.P,R108,2*%
%TO.N,+3V3*%
X75057000Y32830000D03*
%TD*%
D29*
%TO.P,R107,1*%
%TO.N,/SDA*%
X75062000Y36513000D03*
%TO.P,R107,2*%
%TO.N,+3V3*%
X75062000Y38163000D03*
%TD*%
D30*
%TO.P,C106,1*%
%TO.N,+3V3*%
X45072000Y26416000D03*
%TO.P,C106,2*%
%TO.N,GND*%
X46622000Y26416000D03*
%TD*%
D23*
%TO.P,D101,1,K*%
%TO.N,/LDO_3V3/5V*%
X84582000Y55785000D03*
%TO.P,D101,2,A*%
%TO.N,+5V*%
X84582000Y59785000D03*
%TD*%
D31*
%TO.P,U102,1,E0*%
%TO.N,GND*%
X61403000Y32004000D03*
%TO.P,U102,2,E1*%
X61403000Y33274000D03*
%TO.P,U102,3,E2*%
X61403000Y34544000D03*
%TO.P,U102,4,VSS*%
X61403000Y35814000D03*
%TO.P,U102,5,SDA*%
%TO.N,/SDA*%
X56453000Y35814000D03*
%TO.P,U102,6,SCL*%
%TO.N,/SCL*%
X56453000Y34544000D03*
%TO.P,U102,7,~{WC}*%
%TO.N,/~{EEPROM}*%
X56453000Y33274000D03*
%TO.P,U102,8,VCC*%
%TO.N,+3V3*%
X56453000Y32004000D03*
%TD*%
D32*
%TO.P,Y102,1,1*%
%TO.N,/HSE_IN*%
X44534000Y47586000D03*
%TO.P,Y102,2,2*%
%TO.N,GND*%
X42334000Y47586000D03*
%TO.P,Y102,3,3*%
%TO.N,Net-(C113-Pad1)*%
X42334000Y45886000D03*
%TO.P,Y102,4,4*%
%TO.N,GND*%
X44534000Y45886000D03*
%TD*%
D33*
%TO.P,U501,1,OUT*%
%TO.N,/USB_OTG_VSEN*%
X78865000Y18536500D03*
%TO.P,U501,2,GND*%
%TO.N,GND*%
X77915000Y18536500D03*
%TO.P,U501,3,~{FAULT}*%
%TO.N,/USB_OTG_OC*%
X76965000Y18536500D03*
%TO.P,U501,4,EN*%
%TO.N,/USB_OTG_EN*%
X76965000Y16261500D03*
%TO.P,U501,5,IN*%
%TO.N,+5V*%
X78865000Y16261500D03*
%TD*%
D30*
%TO.P,C101,1*%
%TO.N,/VBAT*%
X52819000Y40775000D03*
%TO.P,C101,2*%
%TO.N,GND*%
X54369000Y40775000D03*
%TD*%
D18*
%TO.P,J301,1,Pin_1*%
%TO.N,GND*%
X4562000Y47371000D03*
D19*
%TO.P,J301,2,Pin_2*%
%TO.N,Net-(J301-Pin_2)*%
X4562000Y44831000D03*
%TO.P,J301,3,Pin_3*%
%TO.N,VBUS*%
X4562000Y42291000D03*
%TD*%
D21*
%TO.P,C104,1*%
%TO.N,+3V3*%
X31837000Y36617000D03*
%TO.P,C104,2*%
%TO.N,GND*%
X30287000Y36617000D03*
%TD*%
D30*
%TO.P,C102,1*%
%TO.N,/VBAT*%
X52819000Y39116000D03*
%TO.P,C102,2*%
%TO.N,GND*%
X54369000Y39116000D03*
%TD*%
%TO.P,C107,1*%
%TO.N,+3V3*%
X48187000Y37817000D03*
%TO.P,C107,2*%
%TO.N,GND*%
X49737000Y37817000D03*
%TD*%
D15*
%TO.P,R105,1*%
%TO.N,Net-(D106-K)*%
X58992000Y29342000D03*
%TO.P,R105,2*%
%TO.N,GND*%
X60642000Y29342000D03*
%TD*%
D34*
%TO.P,J101,*%
%TO.N,*%
X76262000Y67129500D03*
X67262000Y67129500D03*
D35*
%TO.P,J101,1*%
%TO.N,VBUS*%
X71762000Y60079500D03*
D36*
%TO.P,J101,2*%
%TO.N,GND*%
X71762000Y66079500D03*
%TD*%
D21*
%TO.P,C114,1*%
%TO.N,GND*%
X50178000Y43815000D03*
%TO.P,C114,2*%
%TO.N,/LSE_OUT*%
X48628000Y43815000D03*
%TD*%
D24*
%TO.P,D105,1,K*%
%TO.N,Net-(D105-K)*%
X59586000Y2667000D03*
%TO.P,D105,2,A*%
%TO.N,/LED_SNES0*%
X58011000Y2667000D03*
%TD*%
D37*
%TO.P,C501,1*%
%TO.N,/USB_OTG_VSEN*%
X81280000Y21222000D03*
%TO.P,C501,2*%
%TO.N,GND*%
X81280000Y19672000D03*
%TD*%
D13*
%TO.P,R106,1*%
%TO.N,/HSE_OUT*%
X42057000Y44196000D03*
%TO.P,R106,2*%
%TO.N,Net-(C113-Pad1)*%
X40407000Y44196000D03*
%TD*%
D14*
%TO.P,U301,1*%
%TO.N,GND*%
X15869500Y38928000D03*
%TO.P,U301,2*%
%TO.N,/LED_GRID1*%
X15869500Y39878000D03*
%TO.P,U301,3,GND*%
%TO.N,GND*%
X15869500Y40828000D03*
%TO.P,U301,4*%
%TO.N,Net-(R301-Pad1)*%
X13594500Y40828000D03*
%TO.P,U301,5,VCC*%
%TO.N,+5V*%
X13594500Y38928000D03*
%TD*%
D38*
%TO.P,J401,1,Pin_1*%
%TO.N,+5V*%
X22942000Y13958000D03*
D39*
%TO.P,J401,2,Pin_2*%
%TO.N,/SNES_CLK*%
X26942000Y13958000D03*
%TO.P,J401,3,Pin_3*%
%TO.N,/SNES_LATCH*%
X30942000Y13958000D03*
%TO.P,J401,4,Pin_4*%
%TO.N,/SNES_DATA0*%
X34942000Y13958000D03*
%TO.P,J401,5,Pin_5*%
%TO.N,unconnected-(J401-Pin_5-Pad5)*%
X41442000Y13958000D03*
%TO.P,J401,6,Pin_6*%
%TO.N,unconnected-(J401-Pin_6-Pad6)*%
X45442000Y13958000D03*
%TO.P,J401,7,Pin_7*%
%TO.N,GND*%
X49442000Y13958000D03*
%TD*%
D29*
%TO.P,R501,1*%
%TO.N,/USB_OTG_OC*%
X68834000Y19495000D03*
%TO.P,R501,2*%
%TO.N,+3V3*%
X68834000Y21145000D03*
%TD*%
D40*
%TO.P,J103,1,Pin_1*%
%TO.N,unconnected-(J103-Pin_1-Pad1)*%
X48387000Y21971000D03*
%TO.P,J103,2,Pin_2*%
%TO.N,/SWDIO*%
X48387000Y23241000D03*
%TO.P,J103,3,Pin_3*%
%TO.N,/NRST*%
X49657000Y21971000D03*
%TO.P,J103,4,Pin_4*%
%TO.N,/SWCLK*%
X49657000Y23241000D03*
%TO.P,J103,5,Pin_5*%
%TO.N,GND*%
X50927000Y21971000D03*
%TO.P,J103,6,Pin_6*%
%TO.N,/SWO*%
X50927000Y23241000D03*
%TD*%
D15*
%TO.P,R101,1*%
%TO.N,Net-(D103-K)*%
X58992000Y27432000D03*
%TO.P,R101,2*%
%TO.N,GND*%
X60642000Y27432000D03*
%TD*%
D16*
%TO.P,C201,1*%
%TO.N,GND*%
X81788000Y50533000D03*
%TO.P,C201,2*%
%TO.N,/LDO_3V3/5V*%
X81788000Y52083000D03*
%TD*%
D29*
%TO.P,R301,1*%
%TO.N,Net-(R301-Pad1)*%
X11480800Y40958000D03*
%TO.P,R301,2*%
%TO.N,Net-(J301-Pin_2)*%
X11480800Y42608000D03*
%TD*%
D21*
%TO.P,C112,1*%
%TO.N,/HSE_IN*%
X44844000Y49403000D03*
%TO.P,C112,2*%
%TO.N,GND*%
X43294000Y49403000D03*
%TD*%
D14*
%TO.P,U201,1,VIN*%
%TO.N,/LDO_3V3/5V*%
X81618500Y53678000D03*
%TO.P,U201,2,GND*%
%TO.N,GND*%
X81618500Y54628000D03*
%TO.P,U201,3,CE*%
%TO.N,/LDO_3V3/5V*%
X81618500Y55578000D03*
%TO.P,U201,4,NC*%
%TO.N,unconnected-(U201-NC-Pad4)*%
X79343500Y55578000D03*
%TO.P,U201,5,VOUT*%
%TO.N,+3V3*%
X79343500Y53678000D03*
%TD*%
D37*
%TO.P,C202,1*%
%TO.N,+3V3*%
X79248000Y52083000D03*
%TO.P,C202,2*%
%TO.N,GND*%
X79248000Y50533000D03*
%TD*%
D41*
%TO.P,U103,1,VBAT*%
%TO.N,/VBAT*%
X43882000Y39584000D03*
%TO.P,U103,2,PC13*%
%TO.N,unconnected-(U103-PC13-Pad2)*%
X43382000Y39584000D03*
%TO.P,U103,3,PC14*%
%TO.N,/LSE_IN*%
X42882000Y39584000D03*
%TO.P,U103,4,PC15*%
%TO.N,/LSE_OUT*%
X42382000Y39584000D03*
%TO.P,U103,5,PH0*%
%TO.N,/HSE_IN*%
X41882000Y39584000D03*
%TO.P,U103,6,PH1*%
%TO.N,/HSE_OUT*%
X41382000Y39584000D03*
%TO.P,U103,7,NRST*%
%TO.N,/NRST*%
X40882000Y39584000D03*
%TO.P,U103,8,PC0*%
%TO.N,unconnected-(U103-PC0-Pad8)*%
X40382000Y39584000D03*
%TO.P,U103,9,PC1*%
%TO.N,unconnected-(U103-PC1-Pad9)*%
X39882000Y39584000D03*
%TO.P,U103,10,PC2*%
%TO.N,/LED_SNES1*%
X39382000Y39584000D03*
%TO.P,U103,11,PC3*%
%TO.N,/SNES_DATA1*%
X38882000Y39584000D03*
%TO.P,U103,12,VSSA*%
%TO.N,GND*%
X38382000Y39584000D03*
%TO.P,U103,13,VREF+*%
%TO.N,+3.3VA*%
X37882000Y39584000D03*
%TO.P,U103,14,PA0*%
%TO.N,unconnected-(U103-PA0-Pad14)*%
X37382000Y39584000D03*
%TO.P,U103,15,PA1*%
%TO.N,unconnected-(U103-PA1-Pad15)*%
X36882000Y39584000D03*
%TO.P,U103,16,PA2*%
%TO.N,/UART_TX*%
X36382000Y39584000D03*
D42*
%TO.P,U103,17,PA3*%
%TO.N,/UART_RX*%
X34457000Y37659000D03*
%TO.P,U103,18,VSS*%
%TO.N,GND*%
X34457000Y37159000D03*
%TO.P,U103,19,VDD*%
%TO.N,+3V3*%
X34457000Y36659000D03*
%TO.P,U103,20,PA4*%
%TO.N,unconnected-(U103-PA4-Pad20)*%
X34457000Y36159000D03*
%TO.P,U103,21,PA5*%
%TO.N,/SPI_CLK*%
X34457000Y35659000D03*
%TO.P,U103,22,PA6*%
%TO.N,/LED_GRID0*%
X34457000Y35159000D03*
%TO.P,U103,23,PA7*%
%TO.N,/OLED_RST*%
X34457000Y34659000D03*
%TO.P,U103,24,PC4*%
%TO.N,unconnected-(U103-PC4-Pad24)*%
X34457000Y34159000D03*
%TO.P,U103,25,PC5*%
%TO.N,unconnected-(U103-PC5-Pad25)*%
X34457000Y33659000D03*
%TO.P,U103,26,PB0*%
%TO.N,/LED_GRID1*%
X34457000Y33159000D03*
%TO.P,U103,27,PB1*%
%TO.N,/OLED_CE*%
X34457000Y32659000D03*
%TO.P,U103,28,PB2*%
%TO.N,/OLED_DC*%
X34457000Y32159000D03*
%TO.P,U103,29,PB10*%
%TO.N,unconnected-(U103-PB10-Pad29)*%
X34457000Y31659000D03*
%TO.P,U103,30,VCAP1*%
%TO.N,Net-(U103-VCAP1)*%
X34457000Y31159000D03*
%TO.P,U103,31,VSS*%
%TO.N,GND*%
X34457000Y30659000D03*
%TO.P,U103,32,VDD*%
%TO.N,+3V3*%
X34457000Y30159000D03*
D41*
%TO.P,U103,33,PB12*%
%TO.N,unconnected-(U103-PB12-Pad33)*%
X36382000Y28234000D03*
%TO.P,U103,34,PB13*%
%TO.N,/SNES_LATCH*%
X36882000Y28234000D03*
%TO.P,U103,35,PB14*%
%TO.N,/SNES_CLK*%
X37382000Y28234000D03*
%TO.P,U103,36,PB15*%
%TO.N,unconnected-(U103-PB15-Pad36)*%
X37882000Y28234000D03*
%TO.P,U103,37,PC6*%
%TO.N,unconnected-(U103-PC6-Pad37)*%
X38382000Y28234000D03*
%TO.P,U103,38,PC7*%
%TO.N,/SNES_DATA0*%
X38882000Y28234000D03*
%TO.P,U103,39,PC8*%
%TO.N,/LED_SNES0*%
X39382000Y28234000D03*
%TO.P,U103,40,PC9*%
%TO.N,unconnected-(U103-PC9-Pad40)*%
X39882000Y28234000D03*
%TO.P,U103,41,PA8*%
%TO.N,/USB_OTG_EN*%
X40382000Y28234000D03*
%TO.P,U103,42,PA9*%
%TO.N,/USB_OTG_VSEN*%
X40882000Y28234000D03*
%TO.P,U103,43,PA10*%
%TO.N,/USB_OTG_OC*%
X41382000Y28234000D03*
%TO.P,U103,44,PA11*%
%TO.N,/D_N*%
X41882000Y28234000D03*
%TO.P,U103,45,PA12*%
%TO.N,/D_P*%
X42382000Y28234000D03*
%TO.P,U103,46,PA13*%
%TO.N,/SWDIO*%
X42882000Y28234000D03*
%TO.P,U103,47,VSS*%
%TO.N,GND*%
X43382000Y28234000D03*
%TO.P,U103,48,VDD*%
%TO.N,+3V3*%
X43882000Y28234000D03*
D42*
%TO.P,U103,49,PA14*%
%TO.N,/SWCLK*%
X45807000Y30159000D03*
%TO.P,U103,50,PA15*%
%TO.N,unconnected-(U103-PA15-Pad50)*%
X45807000Y30659000D03*
%TO.P,U103,51,PC10*%
%TO.N,unconnected-(U103-PC10-Pad51)*%
X45807000Y31159000D03*
%TO.P,U103,52,PC11*%
%TO.N,unconnected-(U103-PC11-Pad52)*%
X45807000Y31659000D03*
%TO.P,U103,53,PC12*%
%TO.N,/LED_HB*%
X45807000Y32159000D03*
%TO.P,U103,54,PD2*%
%TO.N,unconnected-(U103-PD2-Pad54)*%
X45807000Y32659000D03*
%TO.P,U103,55,PB3*%
%TO.N,/SWO*%
X45807000Y33159000D03*
%TO.P,U103,56,PB4*%
%TO.N,/~{EEPROM}*%
X45807000Y33659000D03*
%TO.P,U103,57,PB5*%
%TO.N,/MOSI*%
X45807000Y34159000D03*
%TO.P,U103,58,PB6*%
%TO.N,/SCL*%
X45807000Y34659000D03*
%TO.P,U103,59,PB7*%
%TO.N,/SDA*%
X45807000Y35159000D03*
%TO.P,U103,60,BOOT0*%
%TO.N,Net-(U103-BOOT0)*%
X45807000Y35659000D03*
%TO.P,U103,61,PB8*%
%TO.N,unconnected-(U103-PB8-Pad61)*%
X45807000Y36159000D03*
%TO.P,U103,62,PB9*%
%TO.N,unconnected-(U103-PB9-Pad62)*%
X45807000Y36659000D03*
%TO.P,U103,63,VSS*%
%TO.N,GND*%
X45807000Y37159000D03*
%TO.P,U103,64,VDD*%
%TO.N,+3V3*%
X45807000Y37659000D03*
%TD*%
D21*
%TO.P,C111,1*%
%TO.N,GND*%
X50178000Y41275000D03*
%TO.P,C111,2*%
%TO.N,/LSE_IN*%
X48628000Y41275000D03*
%TD*%
D24*
%TO.P,D106,1,K*%
%TO.N,Net-(D106-K)*%
X57510000Y29337000D03*
%TO.P,D106,2,A*%
%TO.N,+3V3*%
X55935000Y29337000D03*
%TD*%
D29*
%TO.P,R302,1*%
%TO.N,Net-(R302-Pad1)*%
X11531600Y35268400D03*
%TO.P,R302,2*%
%TO.N,Net-(J302-Pin_2)*%
X11531600Y36918400D03*
%TD*%
D24*
%TO.P,D104,1,K*%
%TO.N,Net-(D104-K)*%
X59588500Y69596000D03*
%TO.P,D104,2,A*%
%TO.N,/LED_SNES1*%
X58013500Y69596000D03*
%TD*%
D43*
%TO.P,J402,1,Pin_1*%
%TO.N,+5V*%
X49982000Y58178000D03*
D39*
%TO.P,J402,2,Pin_2*%
%TO.N,/SNES_CLK*%
X45982000Y58178000D03*
%TO.P,J402,3,Pin_3*%
%TO.N,/SNES_LATCH*%
X41982000Y58178000D03*
%TO.P,J402,4,Pin_4*%
%TO.N,/SNES_DATA1*%
X37982000Y58178000D03*
%TO.P,J402,5,Pin_5*%
%TO.N,unconnected-(J402-Pin_5-Pad5)*%
X31482000Y58178000D03*
%TO.P,J402,6,Pin_6*%
%TO.N,unconnected-(J402-Pin_6-Pad6)*%
X27482000Y58178000D03*
%TO.P,J402,7,Pin_7*%
%TO.N,GND*%
X23482000Y58178000D03*
%TD*%
D44*
%TO.P,F101,1*%
%TO.N,VBUS*%
X78991000Y59817000D03*
%TO.P,F101,2*%
%TO.N,+5V*%
X81791000Y59817000D03*
%TD*%
D45*
%TO.P,J501,1,VBUS*%
%TO.N,/USB_OTG_VSEN*%
X85762000Y21154000D03*
D46*
%TO.P,J501,2,D-*%
%TO.N,/USB_D_N*%
X85762000Y23654000D03*
%TO.P,J501,3,D+*%
%TO.N,/USB_D_P*%
X85762000Y25654000D03*
%TO.P,J501,4,GND*%
%TO.N,GND*%
X85762000Y28154000D03*
D47*
%TO.P,J501,5,Shield*%
X88472000Y18084000D03*
X88472000Y31224000D03*
%TD*%
D21*
%TO.P,C105,1*%
%TO.N,+3V3*%
X31837000Y29718000D03*
%TO.P,C105,2*%
%TO.N,GND*%
X30287000Y29718000D03*
%TD*%
D15*
%TO.P,R104,1*%
%TO.N,Net-(D105-K)*%
X61151000Y2667000D03*
%TO.P,R104,2*%
%TO.N,GND*%
X62801000Y2667000D03*
%TD*%
D21*
%TO.P,C103,1*%
%TO.N,+3V3*%
X31837000Y28194000D03*
%TO.P,C103,2*%
%TO.N,GND*%
X30287000Y28194000D03*
%TD*%
D48*
%TO.P,BT101,*%
%TO.N,*%
X65262000Y47117000D03*
X72762000Y47117000D03*
D49*
%TO.P,BT101,1,+*%
%TO.N,/BAT+*%
X61162000Y47117000D03*
D50*
%TO.P,BT101,2,-*%
%TO.N,GND*%
X77162000Y47117000D03*
%TD*%
D21*
%TO.P,C115,1*%
%TO.N,Net-(U103-VCAP1)*%
X31837000Y31242000D03*
%TO.P,C115,2*%
%TO.N,GND*%
X30287000Y31242000D03*
%TD*%
D51*
%TO.N,+3V3*%
X75565000Y53848000D03*
X75565000Y52324000D03*
%TO.N,GND*%
X38100000Y24638000D03*
X37465000Y19939000D03*
X35306000Y22098000D03*
%TO.N,/SNES_CLK*%
X37465000Y21082000D03*
X35306000Y21082000D03*
%TO.N,GND*%
X32512000Y41148000D03*
X29718000Y41148000D03*
%TO.N,/MOSI*%
X29718000Y40132000D03*
X32512000Y40132000D03*
%TO.N,GND*%
X34163000Y28321000D03*
X35306000Y23495000D03*
%TO.N,/LED_GRID1*%
X36107838Y33172374D03*
X34290000Y27178000D03*
%TO.N,/LED_GRID0*%
X36121406Y35110655D03*
X35306000Y24511000D03*
%TO.N,GND*%
X37067503Y35433000D03*
X37067503Y32893000D03*
X25019000Y29718000D03*
X27686000Y27559000D03*
X59817000Y22098000D03*
X61087000Y15621000D03*
%TO.N,/NRST*%
X59055000Y21336000D03*
X59944000Y15621000D03*
%TO.N,GND*%
X55372000Y37465000D03*
%TO.N,VBUS*%
X69819000Y57404000D03*
X71819000Y57404000D03*
X73819000Y57404000D03*
X75819000Y60017000D03*
X75819000Y57404000D03*
X67819000Y57404000D03*
X67818000Y60017000D03*
%TO.N,GND*%
X17272000Y38989000D03*
X29083000Y31242000D03*
X79756000Y47117000D03*
X70839000Y9461000D03*
X81280000Y18542000D03*
X55372000Y40767000D03*
X75946000Y26924000D03*
X11049000Y27940000D03*
X80010000Y56896000D03*
X50165000Y42418000D03*
X43366200Y29523200D03*
X45847000Y45847000D03*
X76787000Y9461000D03*
X63119000Y34544000D03*
X29083000Y28194000D03*
X33528000Y42799000D03*
X55372000Y39116000D03*
X50927000Y37846000D03*
X63119000Y32004000D03*
X63881000Y2667000D03*
X77341250Y20572250D03*
X63881000Y69596000D03*
X81788000Y49403000D03*
X38100000Y42164000D03*
X79248000Y49403000D03*
X43815000Y35851500D03*
X17195800Y35179000D03*
X43180000Y50546000D03*
X40513000Y48641000D03*
X50165000Y45085000D03*
X35814000Y37211000D03*
X50927000Y20955000D03*
X17272000Y40955000D03*
X17195800Y33274000D03*
X29083000Y29718000D03*
X63119000Y35814000D03*
X47625000Y26416000D03*
X61722000Y29337000D03*
X40005000Y37338000D03*
X30226000Y37719000D03*
X41910000Y49022000D03*
X48768000Y20066000D03*
X63119000Y33274000D03*
X78459000Y8064000D03*
X61722000Y27305000D03*
X35814000Y30607000D03*
%TO.N,/NRST*%
X49720500Y20637500D03*
X40894000Y37846000D03*
%TO.N,+3V3*%
X68961000Y13081000D03*
X75062000Y39370000D03*
X76708000Y53848000D03*
X31877000Y27051000D03*
X77851000Y52324000D03*
X68834000Y22352000D03*
X53213000Y49530000D03*
X76708000Y52324000D03*
X48260000Y36703000D03*
X54142579Y31963421D03*
X43882000Y26416000D03*
X31837000Y37759000D03*
X54737000Y29337000D03*
X75062000Y31017000D03*
X77851000Y53848000D03*
X33274000Y44704000D03*
%TO.N,/VBAT*%
X43882000Y37846000D03*
X51689000Y39116000D03*
%TO.N,+5V*%
X78994000Y13843000D03*
X12387350Y39050000D03*
D52*
X84074000Y62357000D03*
X86106000Y62357000D03*
D51*
X78994000Y14986000D03*
D52*
X82042000Y62357000D03*
D51*
X12319000Y33274000D03*
%TO.N,/LED_HB*%
X49911000Y28956000D03*
X51816000Y28956000D03*
%TO.N,/SNES_CLK*%
X38100000Y25908000D03*
%TO.N,/SNES_LATCH*%
X36449000Y25908000D03*
%TD*%
D53*
%TO.N,/SNES_DATA0*%
X34942000Y13958000D02*
X34942000Y14212000D01*
X34942000Y14212000D02*
X38882000Y18152000D01*
X38882000Y18152000D02*
X38882000Y28234000D01*
%TO.N,/SNES_LATCH*%
X36449000Y25908000D02*
X36449000Y19812000D01*
X36449000Y19812000D02*
X30942000Y14305000D01*
X30942000Y14305000D02*
X30942000Y13958000D01*
%TO.N,/SNES_CLK*%
X26942000Y14212000D02*
X26942000Y13958000D01*
X26942000Y13958000D02*
X34066000Y21082000D01*
X34066000Y21082000D02*
X35306000Y21082000D01*
%TO.N,/SCL*%
X54705450Y34658975D02*
G75*
G03*
X54508725Y34462275I-50J-196675D01*
G01*
X53805348Y34658926D02*
G75*
G03*
X53608674Y34462326I-48J-196626D01*
G01*
X54312000Y34265549D02*
X54255450Y34265549D01*
X54312000Y34265575D02*
G75*
G03*
X54508725Y34462274I0J196725D01*
G01*
X54058700Y34462275D02*
G75*
G03*
X53862000Y34659000I-196700J25D01*
G01*
X56338000Y34659000D02*
X54705450Y34659000D01*
X53412000Y34265626D02*
G75*
G03*
X53608674Y34462325I0J196674D01*
G01*
X52062000Y34659000D02*
X51994525Y34659000D01*
X53158674Y34462325D02*
X53158674Y34462326D01*
X51994525Y34659000D02*
X45807000Y34659000D01*
X54058649Y34462274D02*
G75*
G03*
X54255450Y34265549I196751J26D01*
G01*
X52512000Y34265584D02*
G75*
G03*
X52708716Y34462284I0J196716D01*
G01*
X52905432Y34658984D02*
G75*
G03*
X52708716Y34462284I-32J-196684D01*
G01*
X52258700Y34462284D02*
G75*
G03*
X52062000Y34659000I-196700J16D01*
G01*
X54508725Y34462275D02*
X54508725Y34462274D01*
X53158651Y34462325D02*
G75*
G03*
X53355348Y34265651I196649J-25D01*
G01*
X53862000Y34659000D02*
X53805348Y34659000D01*
X53158700Y34462326D02*
G75*
G03*
X52962000Y34659000I-196700J-26D01*
G01*
X54058725Y34462274D02*
X54058725Y34462275D01*
X53608674Y34462326D02*
X53608674Y34462325D01*
X52962000Y34659000D02*
X52905432Y34659000D01*
X52258668Y34462284D02*
G75*
G03*
X52455432Y34265568I196732J16D01*
G01*
X52512000Y34265568D02*
X52455432Y34265568D01*
X53412000Y34265651D02*
X53355348Y34265651D01*
X56453000Y34544000D02*
X56338000Y34659000D01*
%TO.N,/SDA*%
X54637021Y35998421D02*
G75*
G03*
X54862000Y35773421I224979J-21D01*
G01*
X53737024Y36016224D02*
G75*
G03*
X53512000Y36241224I-225024J-24D01*
G01*
X53962000Y35773400D02*
G75*
G03*
X54187000Y35998421I0J225000D01*
G01*
X53737021Y35998421D02*
G75*
G03*
X53962000Y35773421I224979J-21D01*
G01*
X54637024Y36016224D02*
G75*
G03*
X54412000Y36241224I-225024J-24D01*
G01*
X53287000Y36016224D02*
X53287000Y35998421D01*
X52959000Y35773421D02*
X51775421Y35773421D01*
X53512000Y36241200D02*
G75*
G03*
X53287000Y36016224I0J-225000D01*
G01*
X53062000Y35773400D02*
G75*
G03*
X53287000Y35998421I0J225000D01*
G01*
X56453000Y35814000D02*
X56412421Y35773421D01*
X56412421Y35773421D02*
X54862000Y35773421D01*
X54637000Y35998421D02*
X54637000Y36016224D01*
X54412000Y36241200D02*
G75*
G03*
X54187000Y36016224I0J-225000D01*
G01*
X54187000Y36016224D02*
X54187000Y35998421D01*
X53737000Y35998421D02*
X53737000Y36016224D01*
X53062000Y35773421D02*
X52959000Y35773421D01*
X51775421Y35773421D02*
X51161000Y35159000D01*
X51161000Y35159000D02*
X45807000Y35159000D01*
%TO.N,/SCL*%
X61214000Y36957000D02*
G75*
G03*
X61464000Y37207000I0J250000D01*
G01*
X61714000Y37495400D02*
G75*
G03*
X61464000Y37245376I0J-250000D01*
G01*
X63214000Y36957000D02*
X64122000Y36957000D01*
X64122000Y36957000D02*
X66662000Y34417000D01*
X61964000Y37207000D02*
G75*
G03*
X62214000Y36957000I250000J0D01*
G01*
X62214000Y36957000D02*
G75*
G03*
X62464000Y37207000I0J250000D01*
G01*
X61963976Y37245376D02*
G75*
G03*
X61714000Y37495376I-249976J24D01*
G01*
X62964000Y37207000D02*
G75*
G03*
X63214000Y36957000I250000J0D01*
G01*
X62714000Y37495400D02*
G75*
G03*
X62464000Y37245376I0J-250000D01*
G01*
X62963976Y37245376D02*
G75*
G03*
X62714000Y37495376I-249976J24D01*
G01*
X56453000Y34544000D02*
X57785000Y34544000D01*
X61964000Y37245376D02*
X61964000Y37207000D01*
X57785000Y34544000D02*
X60198000Y36957000D01*
X60198000Y36957000D02*
X61214000Y36957000D01*
X61464000Y37207000D02*
X61464000Y37245376D01*
X62464000Y37207000D02*
X62464000Y37245376D01*
X70041000Y34417000D02*
X70104000Y34480000D01*
X62964000Y37245376D02*
X62964000Y37207000D01*
X66662000Y34417000D02*
X70041000Y34417000D01*
%TO.N,/SDA*%
X61087000Y38608000D02*
G75*
G03*
X61337000Y38858000I0J250000D01*
G01*
X70067000Y36517000D02*
X70104000Y36480000D01*
X61587000Y39153800D02*
G75*
G03*
X61337000Y38903805I0J-250000D01*
G01*
X67115000Y36517000D02*
X70067000Y36517000D01*
X61837000Y38858000D02*
G75*
G03*
X62087000Y38608000I250000J0D01*
G01*
X62837000Y38903778D02*
X62837000Y38858000D01*
X63087000Y38608000D02*
X65024000Y38608000D01*
X61837005Y38903805D02*
G75*
G03*
X61587000Y39153805I-250005J-5D01*
G01*
X57658000Y35814000D02*
X60452000Y38608000D01*
X62837000Y38858000D02*
G75*
G03*
X63087000Y38608000I250000J0D01*
G01*
X61337000Y38858000D02*
X61337000Y38903805D01*
X62087000Y38608000D02*
G75*
G03*
X62337000Y38858000I0J250000D01*
G01*
X60452000Y38608000D02*
X61087000Y38608000D01*
X62836978Y38903778D02*
G75*
G03*
X62587000Y39153778I-249978J22D01*
G01*
X56453000Y35814000D02*
X57658000Y35814000D01*
X62587000Y39153800D02*
G75*
G03*
X62337000Y38903778I0J-250000D01*
G01*
X61837000Y38903805D02*
X61837000Y38858000D01*
X62337000Y38858000D02*
X62337000Y38903778D01*
X65024000Y38608000D02*
X67115000Y36517000D01*
X70104000Y36480000D02*
X70137000Y36513000D01*
X70137000Y36513000D02*
X75062000Y36513000D01*
%TO.N,/SCL*%
X70104000Y34480000D02*
X75057000Y34480000D01*
D54*
%TO.N,+3V3*%
X75062000Y31017000D02*
X75062000Y32825000D01*
X75062000Y32825000D02*
X75057000Y32830000D01*
X33782000Y46101000D02*
X34535000Y46101000D01*
X33274000Y44704000D02*
X33274000Y45593000D01*
X33274000Y45593000D02*
X33782000Y46101000D01*
D53*
%TO.N,/UART_TX*%
X33052000Y51139000D02*
X33052000Y48165000D01*
X33052000Y48165000D02*
X32131000Y47244000D01*
X33528000Y41275000D02*
X35941000Y41275000D01*
X35941000Y41275000D02*
X36382000Y40834000D01*
X32131000Y47244000D02*
X32131000Y42672000D01*
X32131000Y42672000D02*
X33528000Y41275000D01*
X36382000Y40834000D02*
X36382000Y39584000D01*
%TO.N,/UART_RX*%
X31052000Y51139000D02*
X30988000Y51075000D01*
X30988000Y40005000D02*
X33334000Y37659000D01*
X30988000Y51075000D02*
X30988000Y40005000D01*
X33334000Y37659000D02*
X34457000Y37659000D01*
%TO.N,/SPI_CLK*%
X27674000Y36646200D02*
G75*
G03*
X27424000Y36396204I0J-250000D01*
G01*
X30924000Y35409000D02*
X30924000Y34921796D01*
X25924004Y36396204D02*
G75*
G03*
X25674000Y36646204I-250004J-4D01*
G01*
X22479000Y36861000D02*
X23972000Y36861000D01*
X29924000Y35409000D02*
G75*
G03*
X29674000Y35659000I-250000J0D01*
G01*
X25174000Y35659000D02*
G75*
G03*
X25424000Y35909000I0J250000D01*
G01*
X26674000Y36646200D02*
G75*
G03*
X26424000Y36396204I0J-250000D01*
G01*
X26924004Y36396204D02*
G75*
G03*
X26674000Y36646204I-250004J-4D01*
G01*
X30924000Y35409000D02*
G75*
G03*
X30674000Y35659000I-250000J0D01*
G01*
X28924000Y36396204D02*
X28924000Y34921818D01*
X27924004Y36396204D02*
G75*
G03*
X27674000Y36646204I-250004J-4D01*
G01*
X26174000Y34671800D02*
G75*
G03*
X26424000Y34921796I0J250000D01*
G01*
X26424000Y34921796D02*
X26424000Y36396204D01*
X27924018Y34921818D02*
G75*
G03*
X28174000Y34671818I249982J-18D01*
G01*
X27174000Y34671800D02*
G75*
G03*
X27424000Y34921818I0J250000D01*
G01*
X28674000Y36646200D02*
G75*
G03*
X28424000Y36396204I0J-250000D01*
G01*
X25674000Y36646200D02*
G75*
G03*
X25424000Y36396204I0J-250000D01*
G01*
X29174000Y34671800D02*
G75*
G03*
X29424000Y34921818I0J250000D01*
G01*
X26924018Y34921818D02*
G75*
G03*
X27174000Y34671818I249982J-18D01*
G01*
X29674000Y35659000D02*
G75*
G03*
X29424000Y35409000I0J-250000D01*
G01*
X30424000Y34921796D02*
X30424000Y35409000D01*
X30674000Y35659000D02*
G75*
G03*
X30424000Y35409000I0J-250000D01*
G01*
X30174000Y34671800D02*
G75*
G03*
X30424000Y34921796I0J250000D01*
G01*
X28174000Y34671800D02*
G75*
G03*
X28424000Y34921818I0J250000D01*
G01*
X30923996Y34921796D02*
G75*
G03*
X31174000Y34671796I250004J4D01*
G01*
X31174000Y34671800D02*
G75*
G03*
X31424000Y34921796I0J250000D01*
G01*
X31674000Y35659000D02*
G75*
G03*
X31424000Y35409000I0J-250000D01*
G01*
X25924000Y36396204D02*
X25924000Y34921796D01*
X28924018Y34921818D02*
G75*
G03*
X29174000Y34671818I249982J-18D01*
G01*
X26924000Y36396204D02*
X26924000Y34921818D01*
X23972000Y36861000D02*
X25174000Y35659000D01*
X27424000Y34921818D02*
X27424000Y36396204D01*
X25424000Y35909000D02*
X25424000Y36396204D01*
X29923996Y34921796D02*
G75*
G03*
X30174000Y34671796I250004J4D01*
G01*
X27924000Y36396204D02*
X27924000Y34921818D01*
X29924000Y35409000D02*
X29924000Y34921796D01*
X28924004Y36396204D02*
G75*
G03*
X28674000Y36646204I-250004J-4D01*
G01*
X28424000Y34921818D02*
X28424000Y36396204D01*
X25923996Y34921796D02*
G75*
G03*
X26174000Y34671796I250004J4D01*
G01*
X29424000Y34921818D02*
X29424000Y35409000D01*
X31424000Y34921796D02*
X31424000Y35409000D01*
X31674000Y35659000D02*
X34457000Y35659000D01*
D54*
%TO.N,GND*%
X30226000Y37719000D02*
X30226000Y36678000D01*
X30226000Y36678000D02*
X30287000Y36617000D01*
D53*
%TO.N,/OLED_RST*%
X22479000Y34861000D02*
X24194000Y34861000D01*
X33614236Y34659000D02*
X34457000Y34659000D01*
X24194000Y34861000D02*
X25527000Y33528000D01*
X25527000Y33528000D02*
X32483236Y33528000D01*
X32483236Y33528000D02*
X33614236Y34659000D01*
%TO.N,/SNES_CLK*%
X37465000Y21082000D02*
X37338000Y21209000D01*
X37338000Y25146000D02*
X38100000Y25908000D01*
X37338000Y21209000D02*
X37338000Y25146000D01*
%TO.N,/MOSI*%
X29718000Y40132000D02*
X28447000Y38861000D01*
X28447000Y38861000D02*
X22479000Y38861000D01*
X33918305Y40132000D02*
X39891305Y34159000D01*
X39891305Y34159000D02*
X45807000Y34159000D01*
X32512000Y40132000D02*
X33918305Y40132000D01*
%TO.N,/LED_GRID1*%
X33909000Y26797000D02*
X34290000Y27178000D01*
X36107838Y33172374D02*
X34470374Y33172374D01*
X34470374Y33172374D02*
X34457000Y33159000D01*
X15869500Y39878000D02*
X17653000Y39878000D01*
X32512000Y25400000D02*
X33909000Y26797000D01*
X17653000Y39878000D02*
X18923000Y38608000D01*
X18923000Y38608000D02*
X18923000Y27559000D01*
X18923000Y27559000D02*
X21082000Y25400000D01*
X21082000Y25400000D02*
X32512000Y25400000D01*
%TO.N,/LED_GRID0*%
X36073061Y35159000D02*
X34457000Y35159000D01*
X36121406Y35110655D02*
X36073061Y35159000D01*
X17526000Y34290000D02*
X18161000Y33655000D01*
X20320000Y24511000D02*
X35306000Y24511000D01*
X18161000Y26670000D02*
X20320000Y24511000D01*
X15920300Y34290000D02*
X17526000Y34290000D01*
X18161000Y33655000D02*
X18161000Y26670000D01*
%TO.N,/OLED_CE*%
X22479000Y32861000D02*
X22681000Y32659000D01*
X22681000Y32659000D02*
X34457000Y32659000D01*
%TO.N,/OLED_DC*%
X22479000Y30861000D02*
X26797000Y30861000D01*
X26797000Y30861000D02*
X28095000Y32159000D01*
X28095000Y32159000D02*
X34457000Y32159000D01*
%TO.N,Net-(J301-Pin_2)*%
X11480800Y42608000D02*
X9995400Y42608000D01*
X9995400Y42608000D02*
X7772400Y44831000D01*
%TO.N,Net-(R301-Pad1)*%
X11480800Y40958000D02*
X13464500Y40958000D01*
X13464500Y40958000D02*
X13594500Y40828000D01*
D54*
%TO.N,+5V*%
X12387350Y39050000D02*
X12509350Y38928000D01*
X12509350Y38928000D02*
X13594500Y38928000D01*
D53*
%TO.N,/NRST*%
X59055000Y21336000D02*
X58674000Y21336000D01*
X58674000Y21336000D02*
X57531000Y20193000D01*
X50165000Y20193000D02*
X49720500Y20637500D01*
X57531000Y20193000D02*
X50165000Y20193000D01*
X67056000Y8509000D02*
X59944000Y15621000D01*
X70787000Y4221000D02*
X67788000Y4221000D01*
X67056000Y4953000D02*
X67056000Y8509000D01*
X67788000Y4221000D02*
X67056000Y4953000D01*
%TO.N,/SWDIO*%
X46613000Y24380000D02*
G75*
G03*
X46863000Y24130000I250000J0D01*
G01*
X45113000Y24646094D02*
X45113000Y24380000D01*
X42882000Y25317000D02*
X42882000Y28234000D01*
X46363000Y24896100D02*
G75*
G03*
X46113000Y24646077I0J-250000D01*
G01*
X46612977Y24646077D02*
G75*
G03*
X46363000Y24896077I-249977J23D01*
G01*
X45863000Y23363900D02*
G75*
G03*
X46113000Y23613923I0J250000D01*
G01*
X45613023Y23613923D02*
G75*
G03*
X45863000Y23363923I249977J-23D01*
G01*
X45612994Y24646094D02*
G75*
G03*
X45363000Y24896094I-249994J6D01*
G01*
X45363000Y24896100D02*
G75*
G03*
X45113000Y24646094I0J-250000D01*
G01*
X44863000Y24130000D02*
G75*
G03*
X45113000Y24380000I0J250000D01*
G01*
X47498000Y24130000D02*
X46863000Y24130000D01*
X46113000Y24646077D02*
X46113000Y23613923D01*
X46613000Y24380000D02*
X46613000Y24646077D01*
X48387000Y23241000D02*
X47498000Y24130000D01*
X45613000Y23613923D02*
X45613000Y24646094D01*
X44069000Y24130000D02*
X42882000Y25317000D01*
X44069000Y24130000D02*
X44863000Y24130000D01*
%TO.N,/SWCLK*%
X48832400Y25701000D02*
G75*
G03*
X49057394Y25476000I225000J0D01*
G01*
X49057394Y25926006D02*
G75*
G03*
X48832394Y25701000I6J-225006D01*
G01*
X49657000Y23241000D02*
X49657000Y25251000D01*
X50056599Y25926001D02*
G75*
G03*
X50281599Y26151000I1J224999D01*
G01*
X49657000Y25251000D02*
G75*
G03*
X49432000Y25476000I-225000J0D01*
G01*
X49057394Y25926000D02*
X50056599Y25926000D01*
X49432000Y26826000D02*
G75*
G03*
X49657000Y27051000I0J225000D01*
G01*
X50281600Y26151000D02*
G75*
G03*
X50056599Y26376000I-225000J0D01*
G01*
X49432000Y25476000D02*
X49057394Y25476000D01*
X47057000Y30159000D02*
X45807000Y30159000D01*
X48832400Y26601000D02*
G75*
G03*
X49057394Y26376000I225000J0D01*
G01*
X49057394Y26826006D02*
G75*
G03*
X48832394Y26601000I6J-225006D01*
G01*
X50056599Y26376000D02*
X49057394Y26376000D01*
X49057394Y26826000D02*
X49432000Y26826000D01*
X49657000Y27051000D02*
X49657000Y27559000D01*
X49657000Y27559000D02*
X47057000Y30159000D01*
D54*
%TO.N,+3V3*%
X75062000Y39370000D02*
X75062000Y38163000D01*
%TO.N,GND*%
X55320000Y37517000D02*
X55372000Y37465000D01*
X54387000Y37517000D02*
X55320000Y37517000D01*
D53*
%TO.N,Net-(U103-BOOT0)*%
X45807000Y35659000D02*
X50204000Y35659000D01*
X52062000Y37517000D02*
X52737000Y37517000D01*
X50204000Y35659000D02*
X52062000Y37517000D01*
%TO.N,/LED_SNES0*%
X58011000Y2667000D02*
X45085000Y2667000D01*
X45085000Y2667000D02*
X38562000Y9190000D01*
X39382000Y17337000D02*
X39382000Y28234000D01*
X38562000Y9190000D02*
X38562000Y16517000D01*
X38562000Y16517000D02*
X39382000Y17337000D01*
%TO.N,Net-(J301-Pin_2)*%
X7772400Y44831000D02*
X4562000Y44831000D01*
%TO.N,Net-(J302-Pin_2)*%
X7696200Y34290000D02*
X4562000Y34290000D01*
X11531600Y36918400D02*
X10324600Y36918400D01*
X10324600Y36918400D02*
X7696200Y34290000D01*
%TO.N,/BAT+*%
X60960000Y45085000D02*
X60259000Y44384000D01*
X60259000Y44384000D02*
X58644000Y44384000D01*
X61162000Y47117000D02*
X60960000Y46915000D01*
X60960000Y46915000D02*
X60960000Y45085000D01*
D54*
%TO.N,GND*%
X49737000Y37817000D02*
X50898000Y37817000D01*
X80956001Y54628000D02*
X80456000Y55128001D01*
D53*
X35762000Y30659000D02*
X35814000Y30607000D01*
D54*
X81618500Y54628000D02*
X80956001Y54628000D01*
D53*
X38382000Y41882000D02*
X38382000Y39584000D01*
D54*
X63119000Y32004000D02*
X61403000Y32004000D01*
X35153000Y44323000D02*
X35153000Y42799000D01*
X61595000Y27432000D02*
X60642000Y27432000D01*
X43180000Y49517000D02*
X43180000Y50546000D01*
X17272000Y40955000D02*
X17206000Y40889000D01*
X77915000Y19998500D02*
X77915000Y18536500D01*
X50927000Y21971000D02*
X50927000Y20955000D01*
X47625000Y26416000D02*
X46622000Y26416000D01*
X61403000Y33274000D02*
X63119000Y33274000D01*
X80456000Y55128001D02*
X80456000Y56450000D01*
X45808000Y45886000D02*
X45847000Y45847000D01*
X42334000Y47586000D02*
X42334000Y48598000D01*
D53*
X43382000Y29507400D02*
X43366200Y29523200D01*
D54*
X79248000Y50533000D02*
X79248000Y49403000D01*
X79756000Y47117000D02*
X77162000Y47117000D01*
X43294000Y49403000D02*
X43180000Y49517000D01*
X44534000Y45886000D02*
X45808000Y45886000D01*
D53*
X75946000Y25113001D02*
X75946000Y26924000D01*
D54*
X50178000Y41275000D02*
X50178000Y42405000D01*
D53*
X38100000Y42164000D02*
X38382000Y41882000D01*
X77083500Y24638000D02*
X76421001Y24638000D01*
X45807000Y37159000D02*
X44525000Y37159000D01*
D54*
X17195800Y33274000D02*
X17129800Y33340000D01*
X55364000Y40775000D02*
X55372000Y40767000D01*
X42334000Y48598000D02*
X41910000Y49022000D01*
X78487000Y8036000D02*
X78459000Y8064000D01*
X30287000Y31242000D02*
X29083000Y31242000D01*
X54369000Y39116000D02*
X55372000Y39116000D01*
X61722000Y27305000D02*
X61595000Y27432000D01*
D53*
X43815000Y36449000D02*
X43815000Y35851500D01*
D54*
X17129800Y33340000D02*
X15920300Y33340000D01*
X62801000Y2667000D02*
X63881000Y2667000D01*
X54369000Y40775000D02*
X55364000Y40775000D01*
D53*
X43382000Y28234000D02*
X43382000Y29507400D01*
D54*
X50178000Y43815000D02*
X50178000Y45072000D01*
X60642000Y29342000D02*
X61717000Y29342000D01*
X40470000Y47423000D02*
X40470000Y48598000D01*
X50178000Y42405000D02*
X50165000Y42418000D01*
X61717000Y29342000D02*
X61722000Y29337000D01*
D53*
X35762000Y37159000D02*
X35814000Y37211000D01*
D54*
X70787000Y9536000D02*
X70787000Y7971000D01*
X30287000Y29718000D02*
X29083000Y29718000D01*
X62801000Y69596000D02*
X63881000Y69596000D01*
X80456000Y56450000D02*
X80010000Y56896000D01*
X40470000Y48598000D02*
X40513000Y48641000D01*
X78487000Y6871000D02*
X78487000Y8036000D01*
X15920300Y35240000D02*
X17134800Y35240000D01*
X17134800Y35240000D02*
X17195800Y35179000D01*
X81280000Y19672000D02*
X81280000Y18542000D01*
X50898000Y37817000D02*
X50927000Y37846000D01*
X61403000Y34544000D02*
X63119000Y34544000D01*
X77341250Y20572250D02*
X77915000Y19998500D01*
D53*
X44525000Y37159000D02*
X43815000Y36449000D01*
D54*
X17206000Y38989000D02*
X15869500Y38989000D01*
D53*
X34457000Y30659000D02*
X35762000Y30659000D01*
D54*
X76787000Y9461000D02*
X76787000Y7971000D01*
D53*
X76421001Y24638000D02*
X75946000Y25113001D01*
X35153000Y42799000D02*
X33528000Y42799000D01*
D54*
X61403000Y35814000D02*
X63119000Y35814000D01*
X50178000Y45072000D02*
X50165000Y45085000D01*
X17206000Y40889000D02*
X15869500Y40889000D01*
X81788000Y50533000D02*
X81788000Y49403000D01*
D53*
X34457000Y37159000D02*
X35762000Y37159000D01*
D54*
X30287000Y28194000D02*
X29083000Y28194000D01*
D53*
%TO.N,/LSE_IN*%
X46609000Y41295000D02*
X43327000Y41295000D01*
X48608000Y41295000D02*
X48628000Y41275000D01*
X43327000Y41295000D02*
X42882000Y40850000D01*
X42882000Y40850000D02*
X42882000Y39584000D01*
X46609000Y41295000D02*
X48608000Y41295000D01*
%TO.N,/LSE_OUT*%
X42382000Y41239000D02*
X42382000Y39584000D01*
X46609000Y43795000D02*
X44938000Y43795000D01*
X44938000Y43795000D02*
X42382000Y41239000D01*
X46609000Y43795000D02*
X48608000Y43795000D01*
X48608000Y43795000D02*
X48628000Y43815000D01*
%TO.N,/NRST*%
X78487000Y4917000D02*
X78487000Y5321000D01*
X40894000Y37846000D02*
X40894000Y39572000D01*
X49657000Y20701000D02*
X49657000Y21971000D01*
X49720500Y20637500D02*
X49657000Y20701000D01*
X76787000Y4221000D02*
X70787000Y4221000D01*
X76787000Y4221000D02*
X77791000Y4221000D01*
X40894000Y39572000D02*
X40882000Y39584000D01*
X77791000Y4221000D02*
X78487000Y4917000D01*
%TO.N,/HSE_IN*%
X44844000Y49403000D02*
X44844000Y47896000D01*
X43434000Y46990000D02*
X43434000Y43307000D01*
X44844000Y47896000D02*
X44534000Y47586000D01*
X44534000Y47586000D02*
X44030000Y47586000D01*
X41882000Y41755000D02*
X41882000Y39584000D01*
X44030000Y47586000D02*
X43434000Y46990000D01*
X43434000Y43307000D02*
X41882000Y41755000D01*
%TO.N,Net-(C113-Pad1)*%
X40407000Y45810000D02*
X40470000Y45873000D01*
X40470000Y45873000D02*
X42321000Y45873000D01*
X42321000Y45873000D02*
X42334000Y45886000D01*
X40407000Y44196000D02*
X40407000Y45810000D01*
D54*
%TO.N,+3V3*%
X48187000Y36776000D02*
X48260000Y36703000D01*
X53995000Y45334000D02*
X53213000Y46116000D01*
X31837000Y27091000D02*
X31877000Y27051000D01*
X54142579Y31963421D02*
X56412421Y31963421D01*
X68961000Y13081000D02*
X68961000Y14288000D01*
X68834000Y21145000D02*
X68834000Y22352000D01*
D53*
X34457000Y36659000D02*
X31879000Y36659000D01*
D54*
X31837000Y28194000D02*
X31837000Y27091000D01*
D53*
X34457000Y30159000D02*
X32278000Y30159000D01*
D54*
X53213000Y47461000D02*
X53213000Y49530000D01*
X53213000Y46116000D02*
X53213000Y47461000D01*
X31837000Y37759000D02*
X31837000Y36617000D01*
D53*
X43882000Y26416000D02*
X43882000Y28234000D01*
X31879000Y36659000D02*
X31837000Y36617000D01*
D54*
X56412421Y31963421D02*
X56453000Y32004000D01*
X56769000Y45334000D02*
X53995000Y45334000D01*
D53*
X45807000Y37659000D02*
X48029000Y37659000D01*
X48029000Y37659000D02*
X48187000Y37817000D01*
D54*
X55935000Y29337000D02*
X54737000Y29337000D01*
X48187000Y37817000D02*
X48187000Y36776000D01*
D53*
X43882000Y26416000D02*
X45072000Y26416000D01*
D54*
X31837000Y28194000D02*
X31837000Y29718000D01*
D53*
X32278000Y30159000D02*
X31837000Y29718000D01*
D55*
%TO.N,+3.3VA*%
X36703000Y46110000D02*
X36703000Y44323000D01*
D53*
X36703000Y42037000D02*
X37882000Y40858000D01*
D54*
X36703000Y44323000D02*
X36703000Y42799000D01*
D53*
X37882000Y40858000D02*
X37882000Y39584000D01*
X36703000Y42799000D02*
X36703000Y42037000D01*
%TO.N,Net-(U103-VCAP1)*%
X31920000Y31159000D02*
X34457000Y31159000D01*
X31837000Y31242000D02*
X31920000Y31159000D01*
%TO.N,/VBAT*%
X56769000Y43434000D02*
X53240000Y43434000D01*
X52819000Y40775000D02*
X52819000Y39116000D01*
X52819000Y43067000D02*
X52819000Y40775000D01*
X52819000Y39116000D02*
X51689000Y39116000D01*
X43882000Y37846000D02*
X43882000Y39584000D01*
X53240000Y43434000D02*
X53213000Y43461000D01*
X53213000Y43461000D02*
X52819000Y43067000D01*
D54*
%TO.N,/LDO_3V3/5V*%
X81788000Y53508500D02*
X81618500Y53678000D01*
X81788000Y52083000D02*
X81788000Y53508500D01*
%TO.N,+5V*%
X12385000Y33340000D02*
X12319000Y33274000D01*
X13645300Y33340000D02*
X12385000Y33340000D01*
D53*
%TO.N,Net-(D103-K)*%
X57510000Y27432000D02*
X58992000Y27432000D01*
%TO.N,/LED_HB*%
X49911000Y28956000D02*
X49911000Y29464000D01*
X55935000Y27432000D02*
X53340000Y27432000D01*
X49911000Y29464000D02*
X47216000Y32159000D01*
X47216000Y32159000D02*
X45807000Y32159000D01*
X53340000Y27432000D02*
X51816000Y28956000D01*
%TO.N,Net-(D104-K)*%
X59628500Y69596000D02*
X59588500Y69556000D01*
X61151000Y69596000D02*
X59628500Y69596000D01*
%TO.N,Net-(D105-K)*%
X59586000Y2667000D02*
X61151000Y2667000D01*
%TO.N,/LED_SNES1*%
X40005000Y55118000D02*
X38862000Y53975000D01*
X58013500Y69596000D02*
X47625000Y69596000D01*
X38862000Y53975000D02*
X38862000Y44323000D01*
X39382000Y43803000D02*
X39382000Y39584000D01*
X47625000Y69596000D02*
X40005000Y61976000D01*
X40005000Y61976000D02*
X40005000Y55118000D01*
X38862000Y44323000D02*
X39382000Y43803000D01*
%TO.N,Net-(D106-K)*%
X58987000Y29337000D02*
X58992000Y29342000D01*
X57510000Y29337000D02*
X58987000Y29337000D01*
%TO.N,/SWO*%
X47486000Y33159000D02*
X45807000Y33159000D01*
X50927000Y29718000D02*
X47486000Y33159000D01*
X50927000Y23241000D02*
X50927000Y29718000D01*
%TO.N,/USB_OTG_VSEN*%
X80772000Y22352000D02*
X76581000Y22352000D01*
X40882000Y19570000D02*
X43053000Y17399000D01*
X78865000Y17651000D02*
X78865000Y18536500D01*
X43053000Y17399000D02*
X78613000Y17399000D01*
D54*
X85762000Y21154000D02*
X85707000Y21209000D01*
D53*
X75946000Y24384000D02*
X75692000Y24638000D01*
X75946000Y22987000D02*
X75946000Y24384000D01*
D54*
X80023000Y21222000D02*
X78865000Y20064000D01*
D53*
X78613000Y17399000D02*
X78865000Y17651000D01*
D54*
X85707000Y21209000D02*
X81293000Y21209000D01*
D53*
X76581000Y22352000D02*
X75946000Y22987000D01*
X81280000Y21222000D02*
X81280000Y21844000D01*
X81280000Y21844000D02*
X80772000Y22352000D01*
D54*
X81280000Y21222000D02*
X80023000Y21222000D01*
D53*
X40882000Y28234000D02*
X40882000Y19570000D01*
D54*
X81293000Y21209000D02*
X81280000Y21222000D01*
X78865000Y20064000D02*
X78865000Y18536500D01*
D53*
X75692000Y24638000D02*
X74808500Y24638000D01*
D55*
%TO.N,/USB_D_N*%
X78077251Y23688000D02*
X77083500Y23688000D01*
X78792051Y24402800D02*
X78077251Y23688000D01*
X84439700Y24402800D02*
X78792051Y24402800D01*
X85204500Y23638000D02*
X84439700Y24402800D01*
%TO.N,/USB_D_P*%
X78077251Y25588000D02*
X77083500Y25588000D01*
X78792051Y24873200D02*
X78077251Y25588000D01*
X84439700Y24873200D02*
X78792051Y24873200D01*
X85204500Y25638000D02*
X84439700Y24873200D01*
D53*
%TO.N,/SNES_CLK*%
X37382000Y26626000D02*
X37382000Y28234000D01*
X38100000Y25908000D02*
X37382000Y26626000D01*
%TO.N,/SNES_LATCH*%
X36882000Y26341000D02*
X36882000Y28234000D01*
X36449000Y25908000D02*
X36882000Y26341000D01*
%TO.N,/HSE_OUT*%
X42057000Y42819000D02*
X42057000Y44196000D01*
X41382000Y39584000D02*
X41382000Y42144000D01*
X41382000Y42144000D02*
X42057000Y42819000D01*
%TO.N,Net-(R302-Pad1)*%
X13213500Y35240000D02*
X11560000Y35240000D01*
X11560000Y35240000D02*
X11531600Y35268400D01*
D55*
%TO.N,/D_P*%
X67339576Y24873200D02*
X61624576Y19158200D01*
X44420424Y19158200D02*
X42367200Y21211424D01*
X73099949Y24873200D02*
X67339576Y24873200D01*
X42367200Y21211424D02*
X42367200Y27056699D01*
X42382000Y27071499D02*
X42382000Y28234000D01*
X44420424Y19158200D02*
X58490000Y19158200D01*
X73814749Y25588000D02*
X73099949Y24873200D01*
X42367200Y27056699D02*
X42382000Y27071499D01*
X61624576Y19158200D02*
X59690000Y19158200D01*
X74808500Y25588000D02*
X73814749Y25588000D01*
X59390000Y19458200D02*
X59390000Y19505418D01*
X58790000Y19505418D02*
X58790000Y19458200D01*
X59390018Y19505418D02*
G75*
G03*
X59090000Y19805418I-300018J-18D01*
G01*
X59090000Y19805400D02*
G75*
G03*
X58790000Y19505418I0J-300000D01*
G01*
X58490000Y19158200D02*
G75*
G03*
X58790000Y19458200I0J300000D01*
G01*
X59390000Y19458200D02*
G75*
G03*
X59690000Y19158200I300000J0D01*
G01*
%TO.N,/D_N*%
X73814749Y23688000D02*
X73099949Y24402800D01*
X74808500Y23688000D02*
X73814749Y23688000D01*
X41896800Y21016576D02*
X41896800Y27056699D01*
X44225576Y18687800D02*
X41896800Y21016576D01*
X61819424Y18687800D02*
X44225576Y18687800D01*
X67534424Y24402800D02*
X61819424Y18687800D01*
X41882000Y27071499D02*
X41882000Y28234000D01*
X73099949Y24402800D02*
X67534424Y24402800D01*
X41896800Y27056699D02*
X41882000Y27071499D01*
D53*
%TO.N,/~{EEPROM}*%
X49022000Y33655000D02*
X49443579Y33233421D01*
X48387000Y33655000D02*
X49022000Y33655000D01*
X56412421Y33233421D02*
X56453000Y33274000D01*
X49443579Y33233421D02*
X56412421Y33233421D01*
X45807000Y33659000D02*
X48383000Y33659000D01*
X48383000Y33659000D02*
X48387000Y33655000D01*
%TO.N,/USB_OTG_EN*%
X42799000Y16764000D02*
X65151000Y16764000D01*
X70040000Y14859000D02*
X76327000Y14859000D01*
X65151000Y16764000D02*
X65977000Y15938000D01*
X68961000Y15938000D02*
X70040000Y14859000D01*
X40382000Y19181000D02*
X42799000Y16764000D01*
X65977000Y15938000D02*
X68961000Y15938000D01*
X76965000Y15497000D02*
X76965000Y16261500D01*
X76327000Y14859000D02*
X76965000Y15497000D01*
X40382000Y28234000D02*
X40382000Y19181000D01*
%TO.N,/USB_OTG_OC*%
X70612000Y20320000D02*
X69787000Y19495000D01*
X68770000Y19431000D02*
X68834000Y19495000D01*
X64389000Y19431000D02*
X68770000Y19431000D01*
X43307000Y18034000D02*
X62992000Y18034000D01*
X76965000Y18536500D02*
X76965000Y19301000D01*
X76965000Y19301000D02*
X75946000Y20320000D01*
X41382000Y28234000D02*
X41382000Y19959000D01*
X41382000Y19959000D02*
X43307000Y18034000D01*
X75946000Y20320000D02*
X70612000Y20320000D01*
X69787000Y19495000D02*
X68834000Y19495000D01*
X62992000Y18034000D02*
X64389000Y19431000D01*
%TO.N,/SNES_DATA1*%
X38227000Y57933000D02*
X37982000Y58178000D01*
X38882000Y39584000D02*
X38882000Y43033000D01*
X38227000Y43688000D02*
X38227000Y57933000D01*
X38882000Y43033000D02*
X38227000Y43688000D01*
%TD*%
%TA.AperFunction,Conductor*%
%TO.N,VBUS*%
G36*
X79572039Y61247315D02*
G01*
X79617794Y61194511D01*
X79629000Y61143000D01*
X79629000Y58290984D01*
X79609315Y58223945D01*
X79556511Y58178190D01*
X79504020Y58166988D01*
X76863527Y58187860D01*
X76832145Y58197345D01*
X76812000Y58189000D01*
X76812000Y61267000D01*
X79505000Y61267000D01*
X79572039Y61247315D01*
G37*
%TD.AperFunction*%
%TD*%
%TA.AperFunction,Conductor*%
%TO.N,+3V3*%
G36*
X79928310Y54590315D02*
G01*
X79948952Y54573682D01*
X80100682Y54421952D01*
X80134166Y54360630D01*
X80137000Y54334272D01*
X80137000Y51686000D01*
X80117315Y51618961D01*
X80064511Y51573206D01*
X80013000Y51562000D01*
X74800000Y51562000D01*
X74732961Y51581685D01*
X74687206Y51634489D01*
X74676000Y51686000D01*
X74676000Y54486000D01*
X74695685Y54553039D01*
X74748489Y54598794D01*
X74800000Y54610000D01*
X79861271Y54610000D01*
X79928310Y54590315D01*
G37*
%TD.AperFunction*%
%TD*%
%TA.AperFunction,Conductor*%
%TO.N,/LDO_3V3/5V*%
G36*
X85414039Y57257315D02*
G01*
X85459794Y57204511D01*
X85471000Y57153000D01*
X85471000Y53464000D01*
X85451315Y53396961D01*
X85398511Y53351206D01*
X85347000Y53340000D01*
X81023000Y53340000D01*
X80955961Y53359685D01*
X80910206Y53412489D01*
X80899000Y53464000D01*
X80899000Y53704479D01*
X80918685Y53771518D01*
X80971489Y53817273D01*
X81032735Y53828096D01*
X81040306Y53827500D01*
X81040308Y53827500D01*
X82196696Y53827500D01*
X82215131Y53828951D01*
X82233569Y53830402D01*
X82233571Y53830403D01*
X82233573Y53830403D01*
X82275191Y53842495D01*
X82391398Y53876256D01*
X82532865Y53959919D01*
X82649081Y54076135D01*
X82732744Y54217602D01*
X82778598Y54375431D01*
X82781500Y54412306D01*
X82781500Y54843694D01*
X82778598Y54880569D01*
X82732744Y55038398D01*
X82649081Y55179865D01*
X82649079Y55179867D01*
X82649076Y55179871D01*
X82532870Y55296077D01*
X82532862Y55296083D01*
X82391396Y55379745D01*
X82391393Y55379746D01*
X82233573Y55425598D01*
X82233567Y55425599D01*
X82196696Y55428500D01*
X82196694Y55428500D01*
X81330500Y55428500D01*
X81263461Y55448185D01*
X81217706Y55500989D01*
X81206500Y55552500D01*
X81206500Y56386295D01*
X81207809Y56404265D01*
X81211289Y56428026D01*
X81206736Y56480061D01*
X81206500Y56485468D01*
X81206500Y56493704D01*
X81206500Y56493709D01*
X81202691Y56526295D01*
X81195998Y56602797D01*
X81195995Y56602806D01*
X81194538Y56609865D01*
X81194598Y56609878D01*
X81192965Y56617243D01*
X81192906Y56617228D01*
X81191241Y56624251D01*
X81191241Y56624255D01*
X81164971Y56696432D01*
X81140814Y56769335D01*
X81140812Y56769338D01*
X81137761Y56775882D01*
X81137815Y56775908D01*
X81134533Y56782688D01*
X81134480Y56782660D01*
X81131238Y56789114D01*
X81131237Y56789117D01*
X81089038Y56853277D01*
X81048712Y56918656D01*
X81048711Y56918657D01*
X81048710Y56918659D01*
X81044234Y56924319D01*
X81044280Y56924357D01*
X81039519Y56930201D01*
X81039474Y56930162D01*
X81034834Y56935691D01*
X81034832Y56935693D01*
X81034830Y56935696D01*
X81003269Y56965472D01*
X80978983Y56988386D01*
X80953567Y57013801D01*
X80927120Y57052994D01*
X80908873Y57095942D01*
X80899000Y57144430D01*
X80899000Y57153000D01*
X80918685Y57220039D01*
X80971489Y57265794D01*
X81023000Y57277000D01*
X85347000Y57277000D01*
X85414039Y57257315D01*
G37*
%TD.AperFunction*%
%TD*%
%TA.AperFunction,Conductor*%
%TO.N,+5V*%
G36*
X79826039Y16871315D02*
G01*
X79871794Y16818511D01*
X79883000Y16767000D01*
X79883000Y13332000D01*
X79863315Y13264961D01*
X79810511Y13219206D01*
X79759000Y13208000D01*
X78229000Y13208000D01*
X78161961Y13227685D01*
X78116206Y13280489D01*
X78105000Y13332000D01*
X78105000Y16649500D01*
X78124685Y16716539D01*
X78177489Y16762294D01*
X78229000Y16773500D01*
X78530257Y16773500D01*
X78545877Y16771776D01*
X78545904Y16772061D01*
X78553660Y16771329D01*
X78553667Y16771327D01*
X78622814Y16773500D01*
X78652350Y16773500D01*
X78659228Y16774370D01*
X78665041Y16774828D01*
X78711627Y16776291D01*
X78730869Y16781883D01*
X78749912Y16785826D01*
X78769792Y16788336D01*
X78813122Y16805493D01*
X78818646Y16807383D01*
X78822396Y16808473D01*
X78863390Y16820382D01*
X78880629Y16830578D01*
X78898103Y16839138D01*
X78916729Y16846513D01*
X78916728Y16846513D01*
X78916732Y16846514D01*
X78945364Y16867318D01*
X79011170Y16890798D01*
X79018251Y16891000D01*
X79759000Y16891000D01*
X79826039Y16871315D01*
G37*
%TD.AperFunction*%
%TD*%
%TA.AperFunction,Conductor*%
%TO.N,VBUS*%
G36*
X69206009Y61247315D02*
G01*
X69251764Y61194511D01*
X69262110Y61130657D01*
X69262178Y61130653D01*
X69262161Y61130344D01*
X69262259Y61129742D01*
X69262000Y61127340D01*
X69262000Y60329500D01*
X70328314Y60329500D01*
X70302507Y60289344D01*
X70262000Y60151389D01*
X70262000Y60007611D01*
X70302507Y59869656D01*
X70328314Y59829500D01*
X69262000Y59829500D01*
X69262000Y59031656D01*
X69268401Y58972128D01*
X69268403Y58972121D01*
X69318645Y58837414D01*
X69318649Y58837407D01*
X69404809Y58722313D01*
X69404812Y58722310D01*
X69519906Y58636150D01*
X69519913Y58636146D01*
X69654620Y58585904D01*
X69654627Y58585902D01*
X69714155Y58579501D01*
X69714172Y58579500D01*
X71512000Y58579500D01*
X71512000Y59579500D01*
X72012000Y59579500D01*
X72012000Y58579500D01*
X73809828Y58579500D01*
X73809844Y58579501D01*
X73869372Y58585902D01*
X73869379Y58585904D01*
X74004086Y58636146D01*
X74004093Y58636150D01*
X74119187Y58722310D01*
X74119190Y58722313D01*
X74205350Y58837407D01*
X74205354Y58837414D01*
X74255596Y58972121D01*
X74255598Y58972128D01*
X74261999Y59031656D01*
X74262000Y59031673D01*
X74262000Y59829500D01*
X73195686Y59829500D01*
X73221493Y59869656D01*
X73262000Y60007611D01*
X73262000Y60151389D01*
X73221493Y60289344D01*
X73195686Y60329500D01*
X74262000Y60329500D01*
X74262000Y61127328D01*
X74261999Y61127340D01*
X74261741Y61129742D01*
X74261841Y61130297D01*
X74261822Y61130653D01*
X74261906Y61130658D01*
X74274145Y61198502D01*
X74321754Y61249640D01*
X74385030Y61267000D01*
X76812000Y61267000D01*
X76812000Y58189000D01*
X76812000Y56280000D01*
X76792315Y56212961D01*
X76739511Y56167206D01*
X76688000Y56156000D01*
X66936000Y56156000D01*
X66868961Y56175685D01*
X66823206Y56228489D01*
X66812000Y56280000D01*
X66812000Y61143000D01*
X66831685Y61210039D01*
X66884489Y61255794D01*
X66936000Y61267000D01*
X69138970Y61267000D01*
X69206009Y61247315D01*
G37*
%TD.AperFunction*%
%TD*%
%TA.AperFunction,Conductor*%
%TO.N,+5V*%
G36*
X87065039Y63353315D02*
G01*
X87110794Y63300511D01*
X87122000Y63249000D01*
X87122000Y58544000D01*
X87102315Y58476961D01*
X87049511Y58431206D01*
X86998000Y58420000D01*
X81277000Y58420000D01*
X81209961Y58439685D01*
X81164206Y58492489D01*
X81153000Y58544000D01*
X81153000Y63249000D01*
X81172685Y63316039D01*
X81225489Y63361794D01*
X81277000Y63373000D01*
X86998000Y63373000D01*
X87065039Y63353315D01*
G37*
%TD.AperFunction*%
%TD*%
%TA.AperFunction,Conductor*%
%TO.N,/SNES_DATA0*%
G36*
X36385875Y15827625D02*
G01*
X36388832Y15825475D01*
X36556346Y15657961D01*
X36559773Y15649688D01*
X36559636Y15647902D01*
X36308634Y14023276D01*
X36303984Y14015623D01*
X36297554Y14013372D01*
X34952160Y13957743D01*
X34943753Y13960825D01*
X34940053Y13968100D01*
X34934814Y14013769D01*
X34786964Y15302605D01*
X34789426Y15311212D01*
X34794975Y15315064D01*
X36376949Y15828331D01*
X36385875Y15827625D01*
G37*
%TD.AperFunction*%
%TD*%
%TA.AperFunction,Conductor*%
%TO.N,/SNES_LATCH*%
G36*
X36808109Y25759281D02*
G01*
X36814427Y25752934D01*
X36814551Y25744345D01*
X36576859Y25115563D01*
X36570728Y25109036D01*
X36565915Y25108000D01*
X36332085Y25108000D01*
X36323812Y25111427D01*
X36321141Y25115563D01*
X36083448Y25744345D01*
X36083728Y25753295D01*
X36089889Y25759281D01*
X36444500Y25907125D01*
X36453449Y25907145D01*
X36808109Y25759281D01*
G37*
%TD.AperFunction*%
%TD*%
%TA.AperFunction,Conductor*%
%TO.N,/SNES_LATCH*%
G36*
X32335178Y15870042D02*
G01*
X32338419Y15867752D01*
X32505919Y15700252D01*
X32509346Y15691979D01*
X32509253Y15690510D01*
X32302449Y14056956D01*
X32298011Y14049178D01*
X32291615Y14046751D01*
X30952146Y13958013D01*
X30943665Y13960885D01*
X30939786Y13968066D01*
X30753195Y15302659D01*
X30755443Y15311324D01*
X30760868Y15315302D01*
X32326238Y15870506D01*
X32335178Y15870042D01*
G37*
%TD.AperFunction*%
%TD*%
%TA.AperFunction,Conductor*%
%TO.N,/SNES_CLK*%
G36*
X28524327Y15711726D02*
G01*
X28526537Y15709992D01*
X28694021Y15542508D01*
X28697448Y15534235D01*
X28697126Y15531508D01*
X28310832Y13919685D01*
X28305571Y13912439D01*
X28299053Y13910719D01*
X26952107Y13956923D01*
X26943956Y13960631D01*
X26940819Y13968104D01*
X26882318Y15302524D01*
X26885379Y15310939D01*
X26891216Y15314399D01*
X28515475Y15713082D01*
X28524327Y15711726D01*
G37*
%TD.AperFunction*%
%TD*%
%TA.AperFunction,Conductor*%
%TO.N,/SNES_CLK*%
G36*
X35151294Y21447272D02*
G01*
X35157280Y21441110D01*
X35305123Y21086502D01*
X35305144Y21077548D01*
X35305123Y21077498D01*
X35157280Y20722891D01*
X35150933Y20716573D01*
X35142344Y20716449D01*
X34513563Y20954142D01*
X34507036Y20960273D01*
X34506000Y20965086D01*
X34506000Y21198915D01*
X34509427Y21207188D01*
X34513563Y21209859D01*
X35142345Y21447552D01*
X35151294Y21447272D01*
G37*
%TD.AperFunction*%
%TD*%
%TA.AperFunction,Conductor*%
%TO.N,/SCL*%
G36*
X69605421Y35027716D02*
G01*
X70097807Y34487885D01*
X70100851Y34479463D01*
X70097807Y34472115D01*
X69604764Y33931564D01*
X69596657Y33927761D01*
X69591941Y33928521D01*
X68649052Y34289124D01*
X68642548Y34295280D01*
X68641531Y34300052D01*
X68641531Y34534859D01*
X68644958Y34543132D01*
X68647878Y34545263D01*
X69591431Y35030238D01*
X69600353Y35030971D01*
X69605421Y35027716D01*
G37*
%TD.AperFunction*%
%TD*%
%TA.AperFunction,Conductor*%
%TO.N,/SDA*%
G36*
X69600785Y37031197D02*
G01*
X69604889Y37028299D01*
X70097807Y36487885D01*
X70100851Y36479463D01*
X70097807Y36472115D01*
X69605273Y35932123D01*
X69597166Y35928320D01*
X69591530Y35929478D01*
X68642961Y36388804D01*
X68637008Y36395494D01*
X68636360Y36399334D01*
X68636360Y36634134D01*
X68639787Y36642407D01*
X68643643Y36644968D01*
X69591832Y37031249D01*
X69600785Y37031197D01*
G37*
%TD.AperFunction*%
%TD*%
%TA.AperFunction,Conductor*%
%TO.N,/SDA*%
G36*
X70616182Y37031215D02*
G01*
X71565187Y36640981D01*
X71571534Y36634666D01*
X71572436Y36630161D01*
X71572436Y36395364D01*
X71569009Y36387091D01*
X71565796Y36384815D01*
X70616452Y35929435D01*
X70607511Y35928947D01*
X70602748Y35932099D01*
X70110192Y36472115D01*
X70107148Y36480537D01*
X70110192Y36487885D01*
X70603092Y37028280D01*
X70611197Y37032081D01*
X70616182Y37031215D01*
G37*
%TD.AperFunction*%
%TD*%
%TA.AperFunction,Conductor*%
%TO.N,/SCL*%
G36*
X70616309Y35030922D02*
G01*
X71572034Y34608082D01*
X71578213Y34601600D01*
X71579000Y34597382D01*
X71579000Y34362619D01*
X71575573Y34354346D01*
X71572034Y34351919D01*
X70616312Y33929080D01*
X70607360Y33928867D01*
X70602934Y33931895D01*
X70110192Y34472115D01*
X70107148Y34480537D01*
X70110192Y34487885D01*
X70219825Y34608082D01*
X70602935Y35028107D01*
X70611041Y35031909D01*
X70616309Y35030922D01*
G37*
%TD.AperFunction*%
%TD*%
%TA.AperFunction,Conductor*%
%TO.N,+3V3*%
G36*
X75310563Y31813573D02*
G01*
X75313790Y31807456D01*
X75459408Y31030821D01*
X75457564Y31022058D01*
X75450064Y31017165D01*
X75447937Y31016965D01*
X75062000Y31016000D01*
X74676062Y31016965D01*
X74667797Y31020413D01*
X74664391Y31028694D01*
X74664591Y31030821D01*
X74810210Y31807456D01*
X74815103Y31814956D01*
X74821710Y31817000D01*
X75302290Y31817000D01*
X75310563Y31813573D01*
G37*
%TD.AperFunction*%
%TD*%
%TA.AperFunction,Conductor*%
%TO.N,+3V3*%
G36*
X33522563Y45500573D02*
G01*
X33525790Y45494456D01*
X33671408Y44717821D01*
X33669564Y44709058D01*
X33662064Y44704165D01*
X33659937Y44703965D01*
X33274000Y44703000D01*
X32888062Y44703965D01*
X32879797Y44707413D01*
X32876391Y44715694D01*
X32876591Y44717821D01*
X33022210Y45494456D01*
X33027103Y45501956D01*
X33033710Y45504000D01*
X33514290Y45504000D01*
X33522563Y45500573D01*
G37*
%TD.AperFunction*%
%TD*%
%TA.AperFunction,Conductor*%
%TO.N,/UART_TX*%
G36*
X33059885Y51132808D02*
G01*
X33600105Y50640066D01*
X33603908Y50631959D01*
X33602920Y50626688D01*
X33180082Y49670966D01*
X33173600Y49664787D01*
X33169382Y49664000D01*
X32934618Y49664000D01*
X32926345Y49667427D01*
X32923918Y49670966D01*
X32501078Y50626690D01*
X32500866Y50635640D01*
X32503892Y50640064D01*
X33044115Y51132809D01*
X33052537Y51135852D01*
X33059885Y51132808D01*
G37*
%TD.AperFunction*%
%TD*%
%TA.AperFunction,Conductor*%
%TO.N,/UART_RX*%
G36*
X31059884Y51132809D02*
G01*
X31599709Y50640427D01*
X31603512Y50632321D01*
X31602225Y50626426D01*
X31116267Y49683072D01*
X31109432Y49677287D01*
X31105866Y49676730D01*
X30871059Y49676730D01*
X30862786Y49680157D01*
X30860127Y49684260D01*
X30500511Y50626948D01*
X30500764Y50635897D01*
X30503555Y50639757D01*
X31044115Y51132809D01*
X31052537Y51135852D01*
X31059884Y51132809D01*
G37*
%TD.AperFunction*%
%TD*%
%TA.AperFunction,Conductor*%
%TO.N,/SPI_CLK*%
G36*
X22991309Y37411922D02*
G01*
X23947034Y36989082D01*
X23953213Y36982600D01*
X23954000Y36978382D01*
X23954000Y36743619D01*
X23950573Y36735346D01*
X23947034Y36732919D01*
X22991312Y36310080D01*
X22982360Y36309867D01*
X22977934Y36312895D01*
X22485192Y36853115D01*
X22482148Y36861537D01*
X22485192Y36868885D01*
X22594825Y36989082D01*
X22977935Y37409107D01*
X22986041Y37412909D01*
X22991309Y37411922D01*
G37*
%TD.AperFunction*%
%TD*%
%TA.AperFunction,Conductor*%
%TO.N,GND*%
G36*
X30611939Y37719036D02*
G01*
X30620202Y37715588D01*
X30623608Y37707307D01*
X30623408Y37705180D01*
X30477790Y36928544D01*
X30472897Y36921044D01*
X30466290Y36919000D01*
X29985710Y36919000D01*
X29977437Y36922427D01*
X29974210Y36928544D01*
X29828591Y37705180D01*
X29830435Y37713943D01*
X29837935Y37718836D01*
X29840052Y37719036D01*
X30226000Y37720000D01*
X30611939Y37719036D01*
G37*
%TD.AperFunction*%
%TD*%
%TA.AperFunction,Conductor*%
%TO.N,/OLED_RST*%
G36*
X22991309Y35411922D02*
G01*
X23947034Y34989082D01*
X23953213Y34982600D01*
X23954000Y34978382D01*
X23954000Y34743619D01*
X23950573Y34735346D01*
X23947034Y34732919D01*
X22991312Y34310080D01*
X22982360Y34309867D01*
X22977934Y34312895D01*
X22485192Y34853115D01*
X22482148Y34861537D01*
X22485192Y34868885D01*
X22594825Y34989082D01*
X22977935Y35409107D01*
X22986041Y35412909D01*
X22991309Y35411922D01*
G37*
%TD.AperFunction*%
%TD*%
%TA.AperFunction,Conductor*%
%TO.N,/SNES_CLK*%
G36*
X37740909Y26056768D02*
G01*
X37883763Y25997982D01*
X38096195Y25910564D01*
X38102542Y25904246D01*
X38102563Y25904196D01*
X38248767Y25548910D01*
X38248746Y25539956D01*
X38242760Y25533794D01*
X37630071Y25257253D01*
X37621121Y25256973D01*
X37616985Y25259644D01*
X37451643Y25424986D01*
X37448216Y25433259D01*
X37449252Y25438072D01*
X37495238Y25539956D01*
X37725794Y26050762D01*
X37732320Y26056892D01*
X37740909Y26056768D01*
G37*
%TD.AperFunction*%
%TD*%
%TA.AperFunction,Conductor*%
%TO.N,/SNES_CLK*%
G36*
X37464636Y21853311D02*
G01*
X37466406Y21851040D01*
X37827618Y21246674D01*
X37828921Y21237815D01*
X37823577Y21230629D01*
X37822077Y21229873D01*
X37467175Y21081907D01*
X37462644Y21081006D01*
X37079110Y21081965D01*
X37070845Y21085413D01*
X37067439Y21093694D01*
X37067646Y21095853D01*
X37211184Y21847234D01*
X37216102Y21854717D01*
X37222676Y21856738D01*
X37456363Y21856738D01*
X37464636Y21853311D01*
G37*
%TD.AperFunction*%
%TD*%
%TA.AperFunction,Conductor*%
%TO.N,/MOSI*%
G36*
X29358909Y40280768D02*
G01*
X29501763Y40221982D01*
X29714195Y40134564D01*
X29720542Y40128246D01*
X29720563Y40128196D01*
X29866767Y39772910D01*
X29866746Y39763956D01*
X29860760Y39757794D01*
X29248071Y39481253D01*
X29239121Y39480973D01*
X29234985Y39483644D01*
X29069643Y39648986D01*
X29066216Y39657259D01*
X29067252Y39662072D01*
X29113238Y39763956D01*
X29343794Y40274762D01*
X29350320Y40280892D01*
X29358909Y40280768D01*
G37*
%TD.AperFunction*%
%TD*%
%TA.AperFunction,Conductor*%
%TO.N,/MOSI*%
G36*
X22991309Y39411922D02*
G01*
X23947034Y38989082D01*
X23953213Y38982600D01*
X23954000Y38978382D01*
X23954000Y38743619D01*
X23950573Y38735346D01*
X23947034Y38732919D01*
X22991312Y38310080D01*
X22982360Y38309867D01*
X22977934Y38312895D01*
X22485192Y38853115D01*
X22482148Y38861537D01*
X22485192Y38868885D01*
X22594825Y38989082D01*
X22977935Y39409107D01*
X22986041Y39412909D01*
X22991309Y39411922D01*
G37*
%TD.AperFunction*%
%TD*%
%TA.AperFunction,Conductor*%
%TO.N,/MOSI*%
G36*
X32692696Y40491110D02*
G01*
X33304437Y40259859D01*
X33310964Y40253728D01*
X33312000Y40248915D01*
X33312000Y40015086D01*
X33308573Y40006813D01*
X33304437Y40004142D01*
X32675655Y39766449D01*
X32666705Y39766729D01*
X32660719Y39772891D01*
X32564306Y40004142D01*
X32512875Y40127501D01*
X32512855Y40136450D01*
X32660719Y40491111D01*
X32667066Y40497428D01*
X32675654Y40497552D01*
X32692696Y40491110D01*
G37*
%TD.AperFunction*%
%TD*%
%TA.AperFunction,Conductor*%
%TO.N,/LED_GRID1*%
G36*
X33930909Y27326768D02*
G01*
X34073763Y27267982D01*
X34286195Y27180564D01*
X34292542Y27174246D01*
X34292563Y27174196D01*
X34438767Y26818910D01*
X34438746Y26809956D01*
X34432760Y26803794D01*
X33820070Y26527253D01*
X33811120Y26526973D01*
X33806984Y26529644D01*
X33641643Y26694985D01*
X33638216Y26703258D01*
X33639252Y26708071D01*
X33689280Y26818910D01*
X33915794Y27320762D01*
X33922320Y27326892D01*
X33930909Y27326768D01*
G37*
%TD.AperFunction*%
%TD*%
%TA.AperFunction,Conductor*%
%TO.N,/LED_GRID1*%
G36*
X35953132Y33537646D02*
G01*
X35959118Y33531484D01*
X36106961Y33176876D01*
X36106982Y33167922D01*
X36106961Y33167872D01*
X35959118Y32813265D01*
X35952771Y32806947D01*
X35944182Y32806823D01*
X35315401Y33044516D01*
X35308874Y33050647D01*
X35307838Y33055460D01*
X35307838Y33289289D01*
X35311265Y33297562D01*
X35315401Y33300233D01*
X35944183Y33537926D01*
X35953132Y33537646D01*
G37*
%TD.AperFunction*%
%TD*%
%TA.AperFunction,Conductor*%
%TO.N,/LED_GRID0*%
G36*
X35967095Y35476241D02*
G01*
X35972421Y35470402D01*
X36120529Y35115157D01*
X36120550Y35106203D01*
X36120529Y35106153D01*
X35972999Y34752296D01*
X35966652Y34745978D01*
X35957698Y34745999D01*
X35957314Y34746167D01*
X35337836Y35030869D01*
X35331750Y35037438D01*
X35331022Y35041500D01*
X35331022Y35275361D01*
X35334449Y35283634D01*
X35339275Y35286542D01*
X35958181Y35477082D01*
X35967095Y35476241D01*
G37*
%TD.AperFunction*%
%TD*%
%TA.AperFunction,Conductor*%
%TO.N,/LED_GRID0*%
G36*
X35151294Y24876272D02*
G01*
X35157280Y24870110D01*
X35305123Y24515502D01*
X35305144Y24506548D01*
X35305123Y24506498D01*
X35157280Y24151891D01*
X35150933Y24145573D01*
X35142344Y24145449D01*
X34513563Y24383142D01*
X34507036Y24389273D01*
X34506000Y24394086D01*
X34506000Y24627915D01*
X34509427Y24636188D01*
X34513563Y24638859D01*
X35142345Y24876552D01*
X35151294Y24876272D01*
G37*
%TD.AperFunction*%
%TD*%
%TA.AperFunction,Conductor*%
%TO.N,/OLED_CE*%
G36*
X23184482Y33281027D02*
G01*
X23908710Y32787483D01*
X23913616Y32779994D01*
X23913820Y32777816D01*
X23913820Y32543186D01*
X23910393Y32534913D01*
X23904898Y32531820D01*
X22990353Y32308321D01*
X22981502Y32309686D01*
X22978931Y32311802D01*
X22487592Y32850484D01*
X22484548Y32858906D01*
X22488351Y32867013D01*
X22490167Y32868372D01*
X23171830Y33281367D01*
X23180681Y33282722D01*
X23184482Y33281027D01*
G37*
%TD.AperFunction*%
%TD*%
%TA.AperFunction,Conductor*%
%TO.N,/OLED_DC*%
G36*
X22991309Y31411922D02*
G01*
X23947034Y30989082D01*
X23953213Y30982600D01*
X23954000Y30978382D01*
X23954000Y30743619D01*
X23950573Y30735346D01*
X23947034Y30732919D01*
X22991312Y30310080D01*
X22982360Y30309867D01*
X22977934Y30312895D01*
X22485192Y30853115D01*
X22482148Y30861537D01*
X22485192Y30868885D01*
X22594825Y30989082D01*
X22977935Y31409107D01*
X22986041Y31412909D01*
X22991309Y31411922D01*
G37*
%TD.AperFunction*%
%TD*%
%TA.AperFunction,Conductor*%
%TO.N,+5V*%
G36*
X13155616Y39180897D02*
G01*
X13162088Y39174711D01*
X13163083Y39169990D01*
X13163083Y38689285D01*
X13159656Y38681012D01*
X13151805Y38677593D01*
X12399441Y38650437D01*
X12391050Y38653563D01*
X12387327Y38661707D01*
X12387319Y38662058D01*
X12386355Y39047650D01*
X12387254Y39052171D01*
X12536032Y39409021D01*
X12542378Y39415337D01*
X12551061Y39415425D01*
X13155616Y39180897D01*
G37*
%TD.AperFunction*%
%TD*%
%TA.AperFunction,Conductor*%
%TO.N,/NRST*%
G36*
X58780449Y21610592D02*
G01*
X58780497Y21610545D01*
X59052250Y21340147D01*
X59055698Y21331882D01*
X59055698Y21331832D01*
X59055021Y20947937D01*
X59051580Y20939670D01*
X59043300Y20936258D01*
X59043065Y20936261D01*
X58468393Y20948819D01*
X58460376Y20952243D01*
X58295127Y21117492D01*
X58291700Y21125765D01*
X58295059Y21133969D01*
X58763905Y21610458D01*
X58772150Y21613951D01*
X58780449Y21610592D01*
G37*
%TD.AperFunction*%
%TD*%
%TA.AperFunction,Conductor*%
%TO.N,/NRST*%
G36*
X50089113Y20786477D02*
G01*
X50095000Y20781080D01*
X50335058Y20320542D01*
X50336383Y20315134D01*
X50336383Y20083131D01*
X50332956Y20074858D01*
X50324683Y20071431D01*
X50321739Y20071808D01*
X49580405Y20264574D01*
X49573260Y20269972D01*
X49572026Y20278841D01*
X49572524Y20280336D01*
X49717647Y20632999D01*
X49723964Y20639344D01*
X49723967Y20639346D01*
X50080158Y20786486D01*
X50089113Y20786477D01*
G37*
%TD.AperFunction*%
%TD*%
%TA.AperFunction,Conductor*%
%TO.N,/NRST*%
G36*
X60312044Y15769747D02*
G01*
X60318206Y15763761D01*
X60594747Y15151072D01*
X60595027Y15142122D01*
X60592356Y15137986D01*
X60427014Y14972644D01*
X60418741Y14969217D01*
X60413928Y14970253D01*
X59801239Y15246794D01*
X59795108Y15253321D01*
X59795232Y15261910D01*
X59941437Y15617198D01*
X59947753Y15623543D01*
X60303090Y15769768D01*
X60312044Y15769747D01*
G37*
%TD.AperFunction*%
%TD*%
%TA.AperFunction,Conductor*%
%TO.N,+3V3*%
G36*
X75447939Y39370036D02*
G01*
X75456202Y39366588D01*
X75459608Y39358307D01*
X75459408Y39356180D01*
X75313790Y38579544D01*
X75308897Y38572044D01*
X75302290Y38570000D01*
X74821710Y38570000D01*
X74813437Y38573427D01*
X74810210Y38579544D01*
X74664591Y39356180D01*
X74666435Y39364943D01*
X74673935Y39369836D01*
X74676052Y39370036D01*
X75062000Y39371000D01*
X75447939Y39370036D01*
G37*
%TD.AperFunction*%
%TD*%
%TA.AperFunction,Conductor*%
%TO.N,GND*%
G36*
X55367524Y37860992D02*
G01*
X55371944Y37853204D01*
X55372033Y37851792D01*
X55372994Y37467356D01*
X55372093Y37462825D01*
X55222872Y37104911D01*
X55216525Y37098593D01*
X55209029Y37098116D01*
X54590999Y37264668D01*
X54583902Y37270130D01*
X54582343Y37275965D01*
X54582343Y37756663D01*
X54585770Y37764936D01*
X54592599Y37768273D01*
X55358893Y37863374D01*
X55367524Y37860992D01*
G37*
%TD.AperFunction*%
%TD*%
%TA.AperFunction,Conductor*%
%TO.N,Net-(J301-Pin_2)*%
G36*
X4888278Y45588138D02*
G01*
X4888830Y45587893D01*
X6205342Y44959180D01*
X6211331Y44952522D01*
X6212000Y44948622D01*
X6212000Y44713379D01*
X6208573Y44705106D01*
X6205342Y44702821D01*
X4888831Y44074109D01*
X4879889Y44073636D01*
X4873231Y44079625D01*
X4872996Y44080153D01*
X4562864Y44826512D01*
X4562855Y44835465D01*
X4562865Y44835489D01*
X4611495Y44952522D01*
X4872986Y45581825D01*
X4879324Y45588148D01*
X4888278Y45588138D01*
G37*
%TD.AperFunction*%
%TD*%
%TA.AperFunction,Conductor*%
%TO.N,Net-(J302-Pin_2)*%
G36*
X4888278Y35047138D02*
G01*
X4888830Y35046893D01*
X6205342Y34418180D01*
X6211331Y34411522D01*
X6212000Y34407622D01*
X6212000Y34172379D01*
X6208573Y34164106D01*
X6205342Y34161821D01*
X4888831Y33533109D01*
X4879889Y33532636D01*
X4873231Y33538625D01*
X4872996Y33539153D01*
X4562864Y34285512D01*
X4562855Y34294465D01*
X4562865Y34294489D01*
X4611495Y34411522D01*
X4872986Y35040825D01*
X4879324Y35047148D01*
X4888278Y35047138D01*
G37*
%TD.AperFunction*%
%TD*%
%TA.AperFunction,Conductor*%
%TO.N,GND*%
G36*
X50773125Y38211849D02*
G01*
X50777732Y38206424D01*
X50927093Y37848176D01*
X50927994Y37843645D01*
X50927033Y37459584D01*
X50923585Y37451319D01*
X50915304Y37447913D01*
X50913571Y37448046D01*
X50142706Y37565486D01*
X50135043Y37570120D01*
X50132768Y37577053D01*
X50132768Y38057701D01*
X50136195Y38065974D01*
X50141827Y38069099D01*
X50764292Y38213320D01*
X50773125Y38211849D01*
G37*
%TD.AperFunction*%
%TD*%
%TA.AperFunction,Conductor*%
%TO.N,GND*%
G36*
X38488448Y42164029D02*
G01*
X38496713Y42160581D01*
X38500118Y42152449D01*
X38506879Y41492414D01*
X38503537Y41484106D01*
X38495300Y41480595D01*
X38495180Y41480594D01*
X38261529Y41480594D01*
X38253651Y41483644D01*
X37826205Y41872917D01*
X37822396Y41881021D01*
X37825433Y41889445D01*
X37825795Y41889826D01*
X38096559Y42161548D01*
X38104824Y42164988D01*
X38488448Y42164029D01*
G37*
%TD.AperFunction*%
%TD*%
%TA.AperFunction,Conductor*%
%TO.N,GND*%
G36*
X63113942Y32399565D02*
G01*
X63118835Y32392065D01*
X63119035Y32389938D01*
X63120000Y32004000D01*
X63119035Y31618063D01*
X63115587Y31609798D01*
X63107306Y31606392D01*
X63105179Y31606592D01*
X62328544Y31752211D01*
X62321044Y31757104D01*
X62319000Y31763711D01*
X62319000Y32244290D01*
X62322427Y32252563D01*
X62328542Y32255790D01*
X63105180Y32401409D01*
X63113942Y32399565D01*
G37*
%TD.AperFunction*%
%TD*%
%TA.AperFunction,Conductor*%
%TO.N,GND*%
G36*
X61718354Y27701464D02*
G01*
X61722025Y27693296D01*
X61722030Y27692978D01*
X61722994Y27307356D01*
X61722093Y27302825D01*
X61573351Y26946061D01*
X61567004Y26939743D01*
X61558239Y26939687D01*
X60954649Y27179071D01*
X60948222Y27185307D01*
X60947262Y27189947D01*
X60947262Y27670643D01*
X60950689Y27678916D01*
X60958612Y27682337D01*
X61709984Y27704644D01*
X61718354Y27701464D01*
G37*
%TD.AperFunction*%
%TD*%
%TA.AperFunction,Conductor*%
%TO.N,GND*%
G36*
X43565939Y50546036D02*
G01*
X43574202Y50542588D01*
X43577608Y50534307D01*
X43577408Y50532180D01*
X43431790Y49755544D01*
X43426897Y49748044D01*
X43420290Y49746000D01*
X42939710Y49746000D01*
X42931437Y49749427D01*
X42928210Y49755544D01*
X42782591Y50532180D01*
X42784435Y50540943D01*
X42791935Y50545836D01*
X42794052Y50546036D01*
X43180000Y50547000D01*
X43565939Y50546036D01*
G37*
%TD.AperFunction*%
%TD*%
%TA.AperFunction,Conductor*%
%TO.N,GND*%
G36*
X51175563Y21751573D02*
G01*
X51178790Y21745456D01*
X51324408Y20968821D01*
X51322564Y20960058D01*
X51315064Y20955165D01*
X51312937Y20954965D01*
X50927000Y20954000D01*
X50541062Y20954965D01*
X50532797Y20958413D01*
X50529391Y20966694D01*
X50529591Y20968821D01*
X50675210Y21745456D01*
X50680103Y21752956D01*
X50686710Y21755000D01*
X51167290Y21755000D01*
X51175563Y21751573D01*
G37*
%TD.AperFunction*%
%TD*%
%TA.AperFunction,Conductor*%
%TO.N,GND*%
G36*
X47619942Y26811565D02*
G01*
X47624835Y26804065D01*
X47625035Y26801938D01*
X47626000Y26416000D01*
X47625035Y26030063D01*
X47621587Y26021798D01*
X47613306Y26018392D01*
X47611179Y26018592D01*
X46834544Y26164211D01*
X46827044Y26169104D01*
X46825000Y26175711D01*
X46825000Y26656290D01*
X46828427Y26664563D01*
X46834542Y26667790D01*
X47611180Y26813409D01*
X47619942Y26811565D01*
G37*
%TD.AperFunction*%
%TD*%
%TA.AperFunction,Conductor*%
%TO.N,GND*%
G36*
X63113942Y33669565D02*
G01*
X63118835Y33662065D01*
X63119035Y33659938D01*
X63120000Y33274000D01*
X63119035Y32888063D01*
X63115587Y32879798D01*
X63107306Y32876392D01*
X63105179Y32876592D01*
X62328544Y33022211D01*
X62321044Y33027104D01*
X62319000Y33033711D01*
X62319000Y33514290D01*
X62322427Y33522563D01*
X62328542Y33525790D01*
X63105180Y33671409D01*
X63113942Y33669565D01*
G37*
%TD.AperFunction*%
%TD*%
%TA.AperFunction,Conductor*%
%TO.N,GND*%
G36*
X79496563Y50199573D02*
G01*
X79499790Y50193456D01*
X79645408Y49416821D01*
X79643564Y49408058D01*
X79636064Y49403165D01*
X79633937Y49402965D01*
X79248000Y49402000D01*
X78862062Y49402965D01*
X78853797Y49406413D01*
X78850391Y49414694D01*
X78850591Y49416821D01*
X78996210Y50193456D01*
X79001103Y50200956D01*
X79007710Y50203000D01*
X79488290Y50203000D01*
X79496563Y50199573D01*
G37*
%TD.AperFunction*%
%TD*%
%TA.AperFunction,Conductor*%
%TO.N,GND*%
G36*
X79750942Y47512565D02*
G01*
X79755835Y47505065D01*
X79756035Y47502938D01*
X79757000Y47117000D01*
X79756035Y46731063D01*
X79752587Y46722798D01*
X79744306Y46719392D01*
X79742179Y46719592D01*
X78965544Y46865211D01*
X78958044Y46870104D01*
X78956000Y46876711D01*
X78956000Y47357290D01*
X78959427Y47365563D01*
X78965542Y47368790D01*
X79742180Y47514409D01*
X79750942Y47512565D01*
G37*
%TD.AperFunction*%
%TD*%
%TA.AperFunction,Conductor*%
%TO.N,GND*%
G36*
X45842378Y46242893D02*
G01*
X45846920Y46235175D01*
X45847033Y46233581D01*
X45847994Y45849356D01*
X45847093Y45844825D01*
X45697792Y45486721D01*
X45691445Y45480403D01*
X45684176Y45479867D01*
X45063641Y45633797D01*
X45056436Y45639115D01*
X45054758Y45645153D01*
X45054758Y46125825D01*
X45058185Y46134098D01*
X45064834Y46137412D01*
X45833712Y46245139D01*
X45842378Y46242893D01*
G37*
%TD.AperFunction*%
%TD*%
%TA.AperFunction,Conductor*%
%TO.N,GND*%
G36*
X76305109Y26775281D02*
G01*
X76311427Y26768934D01*
X76311551Y26760345D01*
X76073859Y26131563D01*
X76067728Y26125036D01*
X76062915Y26124000D01*
X75829085Y26124000D01*
X75820812Y26127427D01*
X75818141Y26131563D01*
X75580448Y26760345D01*
X75580728Y26769295D01*
X75586889Y26775281D01*
X75941500Y26923125D01*
X75950449Y26923145D01*
X76305109Y26775281D01*
G37*
%TD.AperFunction*%
%TD*%
%TA.AperFunction,Conductor*%
%TO.N,GND*%
G36*
X50551153Y42418035D02*
G01*
X50559418Y42414587D01*
X50562824Y42406306D01*
X50562655Y42404354D01*
X50429670Y41630305D01*
X50424892Y41622731D01*
X50418139Y41620586D01*
X49937538Y41620586D01*
X49929265Y41624013D01*
X49926078Y41629928D01*
X49926000Y41630305D01*
X49797391Y42255482D01*
X49799081Y42264276D01*
X49804346Y42268637D01*
X50162829Y42418096D01*
X50167350Y42418995D01*
X50551153Y42418035D01*
G37*
%TD.AperFunction*%
%TD*%
%TA.AperFunction,Conductor*%
%TO.N,GND*%
G36*
X42277500Y49170524D02*
G01*
X42283818Y49164177D01*
X42283892Y49163991D01*
X42577748Y48413592D01*
X42577574Y48404639D01*
X42571120Y48398432D01*
X42566854Y48397626D01*
X42087891Y48397626D01*
X42080885Y48399955D01*
X41637959Y48731082D01*
X41633385Y48738780D01*
X41635594Y48747459D01*
X41636668Y48748702D01*
X41908342Y49021337D01*
X41912173Y49023895D01*
X42268548Y49170545D01*
X42277500Y49170524D01*
G37*
%TD.AperFunction*%
%TD*%
%TA.AperFunction,Conductor*%
%TO.N,GND*%
G36*
X29096817Y31639410D02*
G01*
X29873457Y31493790D01*
X29880956Y31488897D01*
X29883000Y31482290D01*
X29883000Y31001711D01*
X29879573Y30993438D01*
X29873456Y30990211D01*
X29096820Y30844592D01*
X29088057Y30846436D01*
X29083164Y30853936D01*
X29082964Y30856054D01*
X29082000Y31242000D01*
X29082964Y31627941D01*
X29086412Y31636203D01*
X29094693Y31639609D01*
X29096817Y31639410D01*
G37*
%TD.AperFunction*%
%TD*%
%TA.AperFunction,Conductor*%
%TO.N,GND*%
G36*
X55366942Y39511565D02*
G01*
X55371835Y39504065D01*
X55372035Y39501938D01*
X55373000Y39116000D01*
X55372035Y38730063D01*
X55368587Y38721798D01*
X55360306Y38718392D01*
X55358179Y38718592D01*
X54581544Y38864211D01*
X54574044Y38869104D01*
X54572000Y38875711D01*
X54572000Y39356290D01*
X54575427Y39364563D01*
X54581542Y39367790D01*
X55358180Y39513409D01*
X55366942Y39511565D01*
G37*
%TD.AperFunction*%
%TD*%
%TA.AperFunction,Conductor*%
%TO.N,GND*%
G36*
X43878125Y36671835D02*
G01*
X43880178Y36670199D01*
X44044394Y36505983D01*
X44047398Y36500827D01*
X44181799Y36014533D01*
X44180700Y36005646D01*
X44175010Y36000611D01*
X43818789Y35852661D01*
X43809834Y35852652D01*
X43809799Y35852667D01*
X43458200Y35999257D01*
X43451882Y36005604D01*
X43451903Y36014558D01*
X43452786Y36016264D01*
X43861997Y36668147D01*
X43869297Y36673332D01*
X43878125Y36671835D01*
G37*
%TD.AperFunction*%
%TD*%
%TA.AperFunction,Conductor*%
%TO.N,GND*%
G36*
X17191480Y33670093D02*
G01*
X17195766Y33662230D01*
X17195832Y33661017D01*
X17196794Y33276356D01*
X17195893Y33271825D01*
X17046758Y32914119D01*
X17040411Y32907801D01*
X17032672Y32907392D01*
X16417341Y33087537D01*
X16410364Y33093151D01*
X16408928Y33098766D01*
X16408928Y33579483D01*
X16412355Y33587756D01*
X16419384Y33591117D01*
X17182890Y33672622D01*
X17191480Y33670093D01*
G37*
%TD.AperFunction*%
%TD*%
%TA.AperFunction,Conductor*%
%TO.N,GND*%
G36*
X63875942Y3062565D02*
G01*
X63880835Y3055065D01*
X63881035Y3052938D01*
X63882000Y2667000D01*
X63881035Y2281063D01*
X63877587Y2272798D01*
X63869306Y2269392D01*
X63867179Y2269592D01*
X63090544Y2415211D01*
X63083044Y2420104D01*
X63081000Y2426711D01*
X63081000Y2907290D01*
X63084427Y2915563D01*
X63090542Y2918790D01*
X63867180Y3064409D01*
X63875942Y3062565D01*
G37*
%TD.AperFunction*%
%TD*%
%TA.AperFunction,Conductor*%
%TO.N,GND*%
G36*
X55367031Y41162636D02*
G01*
X55371853Y41155091D01*
X55372034Y41153071D01*
X55373000Y40767000D01*
X55372035Y40381206D01*
X55368587Y40372941D01*
X55360306Y40369535D01*
X55358064Y40369758D01*
X54583020Y40523135D01*
X54575569Y40528102D01*
X54573591Y40534612D01*
X54573591Y41015198D01*
X54577018Y41023471D01*
X54583240Y41026717D01*
X55358285Y41164561D01*
X55367031Y41162636D01*
G37*
%TD.AperFunction*%
%TD*%
%TA.AperFunction,Conductor*%
%TO.N,GND*%
G36*
X43725516Y29374395D02*
G01*
X43731834Y29368048D01*
X43732039Y29359679D01*
X43666042Y29173945D01*
X43661517Y29168134D01*
X43608376Y29132625D01*
X43608375Y29132624D01*
X43547485Y29041496D01*
X43531500Y28961133D01*
X43531500Y28797313D01*
X43530825Y28793396D01*
X43509765Y28734126D01*
X43503766Y28727477D01*
X43498740Y28726343D01*
X43264889Y28726343D01*
X43256616Y28729770D01*
X43254042Y28733657D01*
X43233352Y28784819D01*
X43232499Y28789205D01*
X43232499Y28961133D01*
X43216515Y29041495D01*
X43216514Y29041496D01*
X43155624Y29132624D01*
X43155623Y29132625D01*
X43072391Y29188239D01*
X43068045Y29193580D01*
X43000987Y29359398D01*
X43001063Y29368351D01*
X43007330Y29374581D01*
X43361700Y29522325D01*
X43370649Y29522345D01*
X43725516Y29374395D01*
G37*
%TD.AperFunction*%
%TD*%
%TA.AperFunction,Conductor*%
%TO.N,GND*%
G36*
X50551153Y45085035D02*
G01*
X50559418Y45081587D01*
X50562824Y45073306D01*
X50562655Y45071354D01*
X50429670Y44297305D01*
X50424892Y44289731D01*
X50418139Y44287586D01*
X49937538Y44287586D01*
X49929265Y44291013D01*
X49926078Y44296928D01*
X49926000Y44297305D01*
X49797391Y44922482D01*
X49799081Y44931276D01*
X49804346Y44935637D01*
X50162829Y45085096D01*
X50167350Y45085995D01*
X50551153Y45085035D01*
G37*
%TD.AperFunction*%
%TD*%
%TA.AperFunction,Conductor*%
%TO.N,GND*%
G36*
X61716997Y29732609D02*
G01*
X61721846Y29725081D01*
X61722034Y29723021D01*
X61723000Y29337000D01*
X61722035Y28951153D01*
X61718587Y28942888D01*
X61710306Y28939482D01*
X61708107Y28939696D01*
X60932467Y29090163D01*
X60924998Y29095103D01*
X60922995Y29101649D01*
X60922995Y29582233D01*
X60926422Y29590506D01*
X60932603Y29593744D01*
X61708245Y29734504D01*
X61716997Y29732609D01*
G37*
%TD.AperFunction*%
%TD*%
%TA.AperFunction,Conductor*%
%TO.N,GND*%
G36*
X40515171Y48641095D02*
G01*
X40873222Y48491817D01*
X40879539Y48485471D01*
X40880057Y48478132D01*
X40722244Y47858366D01*
X40716882Y47851194D01*
X40710906Y47849553D01*
X40230225Y47849553D01*
X40221952Y47852980D01*
X40218630Y47859685D01*
X40114789Y48627766D01*
X40117077Y48636424D01*
X40124816Y48640929D01*
X40126345Y48641034D01*
X40510648Y48641995D01*
X40515171Y48641095D01*
G37*
%TD.AperFunction*%
%TD*%
%TA.AperFunction,Conductor*%
%TO.N,GND*%
G36*
X70841171Y9461095D02*
G01*
X71199090Y9311872D01*
X71205407Y9305526D01*
X71205884Y9298030D01*
X71039333Y8679999D01*
X71033871Y8672902D01*
X71028036Y8671343D01*
X70547338Y8671343D01*
X70539065Y8674770D01*
X70535727Y8681602D01*
X70457507Y9311873D01*
X70440626Y9447895D01*
X70443008Y9456525D01*
X70450796Y9460945D01*
X70452191Y9461033D01*
X70836648Y9461995D01*
X70841171Y9461095D01*
G37*
%TD.AperFunction*%
%TD*%
%TA.AperFunction,Conductor*%
%TO.N,GND*%
G36*
X29096817Y30115410D02*
G01*
X29873457Y29969790D01*
X29880956Y29964897D01*
X29883000Y29958290D01*
X29883000Y29477711D01*
X29879573Y29469438D01*
X29873456Y29466211D01*
X29096820Y29320592D01*
X29088057Y29322436D01*
X29083164Y29329936D01*
X29082964Y29332054D01*
X29082000Y29718000D01*
X29082964Y30103941D01*
X29086412Y30112203D01*
X29094693Y30115609D01*
X29096817Y30115410D01*
G37*
%TD.AperFunction*%
%TD*%
%TA.AperFunction,Conductor*%
%TO.N,GND*%
G36*
X63875942Y69991565D02*
G01*
X63880835Y69984065D01*
X63881035Y69981938D01*
X63882000Y69596000D01*
X63881035Y69210063D01*
X63877587Y69201798D01*
X63869306Y69198392D01*
X63867179Y69198592D01*
X63090544Y69344211D01*
X63083044Y69349104D01*
X63081000Y69355711D01*
X63081000Y69836290D01*
X63084427Y69844563D01*
X63090542Y69847790D01*
X63867180Y69993409D01*
X63875942Y69991565D01*
G37*
%TD.AperFunction*%
%TD*%
%TA.AperFunction,Conductor*%
%TO.N,GND*%
G36*
X80377809Y57044651D02*
G01*
X80384075Y57038427D01*
X80699085Y56297013D01*
X80699167Y56288059D01*
X80692892Y56281670D01*
X80688317Y56280738D01*
X80209663Y56280738D01*
X80202991Y56282827D01*
X80107140Y56349368D01*
X79738636Y56605188D01*
X79733795Y56612720D01*
X79735698Y56621470D01*
X79737015Y56623051D01*
X80008342Y56895337D01*
X80012173Y56897895D01*
X80368857Y57044672D01*
X80377809Y57044651D01*
G37*
%TD.AperFunction*%
%TD*%
%TA.AperFunction,Conductor*%
%TO.N,GND*%
G36*
X78845400Y8064034D02*
G01*
X78853665Y8060586D01*
X78857071Y8052305D01*
X78856935Y8050558D01*
X78738524Y7279494D01*
X78733882Y7271837D01*
X78726960Y7269570D01*
X78246314Y7269570D01*
X78238041Y7272997D01*
X78234912Y7278647D01*
X78192757Y7461877D01*
X78091661Y7901307D01*
X78093146Y7910136D01*
X78098559Y7914726D01*
X78456829Y8064096D01*
X78461350Y8064995D01*
X78845400Y8064034D01*
G37*
%TD.AperFunction*%
%TD*%
%TA.AperFunction,Conductor*%
%TO.N,GND*%
G36*
X17191424Y35575058D02*
G01*
X17195758Y35567221D01*
X17195832Y35565937D01*
X17196794Y35181356D01*
X17195893Y35176825D01*
X17046727Y34819045D01*
X17040380Y34812727D01*
X17032727Y34812293D01*
X16416433Y34987583D01*
X16409413Y34993143D01*
X16407934Y34998837D01*
X16407934Y35479548D01*
X16411361Y35487821D01*
X16418319Y35491174D01*
X17182819Y35577534D01*
X17191424Y35575058D01*
G37*
%TD.AperFunction*%
%TD*%
%TA.AperFunction,Conductor*%
%TO.N,GND*%
G36*
X81528563Y19338573D02*
G01*
X81531790Y19332456D01*
X81677408Y18555821D01*
X81675564Y18547058D01*
X81668064Y18542165D01*
X81665937Y18541965D01*
X81280000Y18541000D01*
X80894062Y18541965D01*
X80885797Y18545413D01*
X80882391Y18553694D01*
X80882591Y18555821D01*
X81028210Y19332456D01*
X81033103Y19339956D01*
X81039710Y19342000D01*
X81520290Y19342000D01*
X81528563Y19338573D01*
G37*
%TD.AperFunction*%
%TD*%
%TA.AperFunction,Conductor*%
%TO.N,GND*%
G36*
X63113942Y34939565D02*
G01*
X63118835Y34932065D01*
X63119035Y34929938D01*
X63120000Y34544000D01*
X63119035Y34158063D01*
X63115587Y34149798D01*
X63107306Y34146392D01*
X63105179Y34146592D01*
X62328544Y34292211D01*
X62321044Y34297104D01*
X62319000Y34303711D01*
X62319000Y34784290D01*
X62322427Y34792563D01*
X62328542Y34795790D01*
X63105180Y34941409D01*
X63113942Y34939565D01*
G37*
%TD.AperFunction*%
%TD*%
%TA.AperFunction,Conductor*%
%TO.N,GND*%
G36*
X77630671Y20845133D02*
G01*
X77632033Y20843488D01*
X78078228Y20191355D01*
X78080072Y20182592D01*
X78076845Y20176475D01*
X77737025Y19836655D01*
X77728752Y19833228D01*
X77722145Y19835272D01*
X77070012Y20281467D01*
X77065119Y20288967D01*
X77066963Y20297730D01*
X77068325Y20299375D01*
X77340543Y20572957D01*
X77614125Y20845175D01*
X77622406Y20848581D01*
X77630671Y20845133D01*
G37*
%TD.AperFunction*%
%TD*%
%TA.AperFunction,Conductor*%
%TO.N,GND*%
G36*
X17266942Y39384565D02*
G01*
X17271835Y39377065D01*
X17272035Y39374938D01*
X17273000Y38989000D01*
X17272035Y38603063D01*
X17268587Y38594798D01*
X17260306Y38591392D01*
X17258179Y38591592D01*
X16481544Y38737211D01*
X16474044Y38742104D01*
X16472000Y38748711D01*
X16472000Y39229290D01*
X16475427Y39237563D01*
X16481542Y39240790D01*
X17258180Y39386409D01*
X17266942Y39384565D01*
G37*
%TD.AperFunction*%
%TD*%
%TA.AperFunction,Conductor*%
%TO.N,GND*%
G36*
X35659720Y30972607D02*
G01*
X35664994Y30966796D01*
X35741377Y30783589D01*
X35813123Y30611502D01*
X35813144Y30602548D01*
X35813123Y30602498D01*
X35665617Y30248700D01*
X35659270Y30242382D01*
X35650316Y30242403D01*
X35649877Y30242596D01*
X35507408Y30308965D01*
X35409960Y30354361D01*
X35405176Y30358464D01*
X35355624Y30432624D01*
X35264495Y30493515D01*
X35184133Y30509500D01*
X35184132Y30509500D01*
X35079528Y30509500D01*
X35074587Y30510594D01*
X35031102Y30530852D01*
X35025050Y30537452D01*
X35024343Y30541458D01*
X35024343Y30775316D01*
X35027770Y30783589D01*
X35032654Y30786514D01*
X35103688Y30808000D01*
X35107074Y30808501D01*
X35184132Y30808501D01*
X35264495Y30824485D01*
X35350981Y30882275D01*
X35354078Y30883738D01*
X35650810Y30973492D01*
X35659720Y30972607D01*
G37*
%TD.AperFunction*%
%TD*%
%TA.AperFunction,Conductor*%
%TO.N,GND*%
G36*
X77172939Y9461036D02*
G01*
X77181202Y9457588D01*
X77184608Y9449307D01*
X77184408Y9447180D01*
X77038790Y8670544D01*
X77033897Y8663044D01*
X77027290Y8661000D01*
X76546710Y8661000D01*
X76538437Y8664427D01*
X76535210Y8670544D01*
X76389591Y9447180D01*
X76391435Y9455943D01*
X76398935Y9460836D01*
X76401052Y9461036D01*
X76787000Y9462000D01*
X77172939Y9461036D01*
G37*
%TD.AperFunction*%
%TD*%
%TA.AperFunction,Conductor*%
%TO.N,GND*%
G36*
X33708696Y43158110D02*
G01*
X34320437Y42926859D01*
X34326964Y42920728D01*
X34328000Y42915915D01*
X34328000Y42682086D01*
X34324573Y42673813D01*
X34320437Y42671142D01*
X33691655Y42433449D01*
X33682705Y42433729D01*
X33676719Y42439891D01*
X33580306Y42671142D01*
X33528875Y42794501D01*
X33528855Y42803450D01*
X33676719Y43158111D01*
X33683066Y43164428D01*
X33691654Y43164552D01*
X33708696Y43158110D01*
G37*
%TD.AperFunction*%
%TD*%
%TA.AperFunction,Conductor*%
%TO.N,GND*%
G36*
X63113942Y36209565D02*
G01*
X63118835Y36202065D01*
X63119035Y36199938D01*
X63120000Y35814000D01*
X63119035Y35428063D01*
X63115587Y35419798D01*
X63107306Y35416392D01*
X63105179Y35416592D01*
X62328544Y35562211D01*
X62321044Y35567104D01*
X62319000Y35573711D01*
X62319000Y36054290D01*
X62322427Y36062563D01*
X62328542Y36065790D01*
X63105180Y36211409D01*
X63113942Y36209565D01*
G37*
%TD.AperFunction*%
%TD*%
%TA.AperFunction,Conductor*%
%TO.N,GND*%
G36*
X17117774Y41320644D02*
G01*
X17122958Y41314882D01*
X17272093Y40957176D01*
X17272994Y40952645D01*
X17272032Y40567984D01*
X17268584Y40559719D01*
X17260303Y40556313D01*
X17259090Y40556379D01*
X16495586Y40637884D01*
X16487723Y40642170D01*
X16485128Y40649518D01*
X16485128Y41130235D01*
X16488555Y41138508D01*
X16493537Y41141463D01*
X17108873Y41321609D01*
X17117774Y41320644D01*
G37*
%TD.AperFunction*%
%TD*%
%TA.AperFunction,Conductor*%
%TO.N,GND*%
G36*
X82036563Y50199573D02*
G01*
X82039790Y50193456D01*
X82185408Y49416821D01*
X82183564Y49408058D01*
X82176064Y49403165D01*
X82173937Y49402965D01*
X81788000Y49402000D01*
X81402062Y49402965D01*
X81393797Y49406413D01*
X81390391Y49414694D01*
X81390591Y49416821D01*
X81536210Y50193456D01*
X81541103Y50200956D01*
X81547710Y50203000D01*
X82028290Y50203000D01*
X82036563Y50199573D01*
G37*
%TD.AperFunction*%
%TD*%
%TA.AperFunction,Conductor*%
%TO.N,GND*%
G36*
X35665424Y37569740D02*
G01*
X35665617Y37569301D01*
X35813123Y37215502D01*
X35813144Y37206548D01*
X35813123Y37206498D01*
X35664995Y36851206D01*
X35658648Y36844888D01*
X35650809Y36844509D01*
X35354086Y36934261D01*
X35350973Y36935732D01*
X35264495Y36993515D01*
X35184133Y37009500D01*
X35184132Y37009500D01*
X35107072Y37009500D01*
X35103685Y37010001D01*
X35032656Y37031486D01*
X35025729Y37037161D01*
X35024343Y37042685D01*
X35024343Y37276543D01*
X35027770Y37284816D01*
X35031100Y37287149D01*
X35074589Y37307407D01*
X35079529Y37308501D01*
X35184132Y37308501D01*
X35264495Y37324485D01*
X35355624Y37385376D01*
X35405178Y37459540D01*
X35409957Y37463639D01*
X35649878Y37575406D01*
X35658824Y37575792D01*
X35665424Y37569740D01*
G37*
%TD.AperFunction*%
%TD*%
%TA.AperFunction,Conductor*%
%TO.N,GND*%
G36*
X29096817Y28591410D02*
G01*
X29873457Y28445790D01*
X29880956Y28440897D01*
X29883000Y28434290D01*
X29883000Y27953711D01*
X29879573Y27945438D01*
X29873456Y27942211D01*
X29096820Y27796592D01*
X29088057Y27798436D01*
X29083164Y27805936D01*
X29082964Y27808054D01*
X29082000Y28194000D01*
X29082964Y28579941D01*
X29086412Y28588203D01*
X29094693Y28591609D01*
X29096817Y28591410D01*
G37*
%TD.AperFunction*%
%TD*%
%TA.AperFunction,Conductor*%
%TO.N,/NRST*%
G36*
X41019188Y38642573D02*
G01*
X41021859Y38638437D01*
X41259551Y38009656D01*
X41259271Y38000706D01*
X41253109Y37994720D01*
X40898502Y37846877D01*
X40889548Y37846856D01*
X40889498Y37846877D01*
X40534890Y37994720D01*
X40528572Y38001067D01*
X40528448Y38009655D01*
X40766141Y38638438D01*
X40772272Y38644964D01*
X40777085Y38646000D01*
X41010915Y38646000D01*
X41019188Y38642573D01*
G37*
%TD.AperFunction*%
%TD*%
%TA.AperFunction,Conductor*%
%TO.N,/NRST*%
G36*
X49782949Y21421442D02*
G01*
X49785200Y21418280D01*
X50084640Y20801717D01*
X50085172Y20792778D01*
X50079227Y20786082D01*
X50078618Y20785807D01*
X49725002Y20638377D01*
X49716048Y20638356D01*
X49715998Y20638377D01*
X49360552Y20786569D01*
X49354234Y20792916D01*
X49353803Y20800576D01*
X49529577Y21416380D01*
X49535143Y21423395D01*
X49540828Y21424869D01*
X49774676Y21424869D01*
X49782949Y21421442D01*
G37*
%TD.AperFunction*%
%TD*%
%TA.AperFunction,Conductor*%
%TO.N,+3V3*%
G36*
X54156396Y32360831D02*
G01*
X54933036Y32215211D01*
X54940535Y32210318D01*
X54942579Y32203711D01*
X54942579Y31723132D01*
X54939152Y31714859D01*
X54933035Y31711632D01*
X54156399Y31566013D01*
X54147636Y31567857D01*
X54142743Y31575357D01*
X54142543Y31577475D01*
X54141579Y31963421D01*
X54142543Y32349362D01*
X54145991Y32357624D01*
X54154272Y32361030D01*
X54156396Y32360831D01*
G37*
%TD.AperFunction*%
%TD*%
%TA.AperFunction,Conductor*%
%TO.N,+3V3*%
G36*
X69209563Y13877573D02*
G01*
X69212790Y13871456D01*
X69358408Y13094821D01*
X69356564Y13086058D01*
X69349064Y13081165D01*
X69346937Y13080965D01*
X68961000Y13080000D01*
X68575062Y13080965D01*
X68566797Y13084413D01*
X68563391Y13092694D01*
X68563591Y13094821D01*
X68709210Y13871456D01*
X68714103Y13878956D01*
X68720710Y13881000D01*
X69201290Y13881000D01*
X69209563Y13877573D01*
G37*
%TD.AperFunction*%
%TD*%
%TA.AperFunction,Conductor*%
%TO.N,+3V3*%
G36*
X69219939Y22352036D02*
G01*
X69228202Y22348588D01*
X69231608Y22340307D01*
X69231408Y22338180D01*
X69085790Y21561544D01*
X69080897Y21554044D01*
X69074290Y21552000D01*
X68593710Y21552000D01*
X68585437Y21555427D01*
X68582210Y21561544D01*
X68436591Y22338180D01*
X68438435Y22346943D01*
X68445935Y22351836D01*
X68448052Y22352036D01*
X68834000Y22353000D01*
X69219939Y22352036D01*
G37*
%TD.AperFunction*%
%TD*%
%TA.AperFunction,Conductor*%
%TO.N,+3V3*%
G36*
X32086136Y27839617D02*
G01*
X32089214Y27834178D01*
X32244114Y27213835D01*
X32242794Y27204979D01*
X32237265Y27200202D01*
X31879175Y27050907D01*
X31874644Y27050006D01*
X31490403Y27050967D01*
X31482138Y27054415D01*
X31478732Y27062696D01*
X31478842Y27064265D01*
X31585599Y27832953D01*
X31590132Y27840677D01*
X31597188Y27843044D01*
X32077863Y27843044D01*
X32086136Y27839617D01*
G37*
%TD.AperFunction*%
%TD*%
%TA.AperFunction,Conductor*%
%TO.N,+3V3*%
G36*
X53598939Y49530036D02*
G01*
X53607202Y49526588D01*
X53610608Y49518307D01*
X53610408Y49516180D01*
X53464790Y48739544D01*
X53459897Y48732044D01*
X53453290Y48730000D01*
X52972710Y48730000D01*
X52964437Y48733427D01*
X52961210Y48739544D01*
X52815591Y49516180D01*
X52817435Y49524943D01*
X52824935Y49529836D01*
X52827052Y49530036D01*
X53213000Y49531000D01*
X53598939Y49530036D01*
G37*
%TD.AperFunction*%
%TD*%
%TA.AperFunction,Conductor*%
%TO.N,+3V3*%
G36*
X32222939Y37759036D02*
G01*
X32231202Y37755588D01*
X32234608Y37747307D01*
X32234408Y37745180D01*
X32088790Y36968544D01*
X32083897Y36961044D01*
X32077290Y36959000D01*
X31596710Y36959000D01*
X31588437Y36962427D01*
X31585210Y36968544D01*
X31439591Y37745180D01*
X31441435Y37753943D01*
X31448935Y37758836D01*
X31451052Y37759036D01*
X31837000Y37760000D01*
X32222939Y37759036D01*
G37*
%TD.AperFunction*%
%TD*%
%TA.AperFunction,Conductor*%
%TO.N,+3V3*%
G36*
X44007188Y27212573D02*
G01*
X44009859Y27208437D01*
X44247551Y26579656D01*
X44247271Y26570706D01*
X44241109Y26564720D01*
X43886502Y26416877D01*
X43877548Y26416856D01*
X43877498Y26416877D01*
X43522890Y26564720D01*
X43516572Y26571067D01*
X43516448Y26579655D01*
X43754141Y27208438D01*
X43760272Y27214964D01*
X43765085Y27216000D01*
X43998915Y27216000D01*
X44007188Y27212573D01*
G37*
%TD.AperFunction*%
%TD*%
%TA.AperFunction,Conductor*%
%TO.N,+3V3*%
G36*
X54750817Y29734410D02*
G01*
X55527457Y29588790D01*
X55534956Y29583897D01*
X55537000Y29577290D01*
X55537000Y29096711D01*
X55533573Y29088438D01*
X55527456Y29085211D01*
X54750820Y28939592D01*
X54742057Y28941436D01*
X54737164Y28948936D01*
X54736964Y28951054D01*
X54736000Y29337000D01*
X54736964Y29722941D01*
X54740412Y29731203D01*
X54748693Y29734609D01*
X54750817Y29734410D01*
G37*
%TD.AperFunction*%
%TD*%
%TA.AperFunction,Conductor*%
%TO.N,+3V3*%
G36*
X48436605Y37485052D02*
G01*
X48439525Y37480187D01*
X48626467Y36866205D01*
X48625598Y36857292D01*
X48619776Y36851998D01*
X48262175Y36702907D01*
X48257644Y36702006D01*
X47872870Y36702968D01*
X47864605Y36706416D01*
X47861199Y36714697D01*
X47861254Y36715796D01*
X47935965Y37477920D01*
X47940182Y37485820D01*
X47947609Y37488479D01*
X48428332Y37488479D01*
X48436605Y37485052D01*
G37*
%TD.AperFunction*%
%TD*%
%TA.AperFunction,Conductor*%
%TO.N,+3V3*%
G36*
X44062696Y26775110D02*
G01*
X44674437Y26543859D01*
X44680964Y26537728D01*
X44682000Y26532915D01*
X44682000Y26299086D01*
X44678573Y26290813D01*
X44674437Y26288142D01*
X44045655Y26050449D01*
X44036705Y26050729D01*
X44030719Y26056891D01*
X43934306Y26288142D01*
X43882875Y26411501D01*
X43882855Y26420450D01*
X44030719Y26775111D01*
X44037066Y26781428D01*
X44045654Y26781552D01*
X44062696Y26775110D01*
G37*
%TD.AperFunction*%
%TD*%
%TA.AperFunction,Conductor*%
%TO.N,/VBAT*%
G36*
X51869696Y39475110D02*
G01*
X52481437Y39243859D01*
X52487964Y39237728D01*
X52489000Y39232915D01*
X52489000Y38999086D01*
X52485573Y38990813D01*
X52481437Y38988142D01*
X51852655Y38750449D01*
X51843705Y38750729D01*
X51837719Y38756891D01*
X51741306Y38988142D01*
X51689875Y39111501D01*
X51689855Y39120450D01*
X51837719Y39475111D01*
X51844066Y39481428D01*
X51852654Y39481552D01*
X51869696Y39475110D01*
G37*
%TD.AperFunction*%
%TD*%
%TA.AperFunction,Conductor*%
%TO.N,/VBAT*%
G36*
X44007188Y38642573D02*
G01*
X44009859Y38638437D01*
X44247551Y38009656D01*
X44247271Y38000706D01*
X44241109Y37994720D01*
X43886502Y37846877D01*
X43877548Y37846856D01*
X43877498Y37846877D01*
X43522890Y37994720D01*
X43516572Y38001067D01*
X43516448Y38009655D01*
X43754141Y38638438D01*
X43760272Y38644964D01*
X43765085Y38646000D01*
X43998915Y38646000D01*
X44007188Y38642573D01*
G37*
%TD.AperFunction*%
%TD*%
%TA.AperFunction,Conductor*%
%TO.N,+5V*%
G36*
X12331907Y33672623D02*
G01*
X13095415Y33591117D01*
X13103277Y33586831D01*
X13105872Y33579483D01*
X13105872Y33098766D01*
X13102445Y33090493D01*
X13097459Y33087537D01*
X12482127Y32907392D01*
X12473225Y32908357D01*
X12468041Y32914119D01*
X12464909Y32921629D01*
X12318905Y33271829D01*
X12318005Y33276352D01*
X12318967Y33661019D01*
X12322415Y33669282D01*
X12330696Y33672688D01*
X12331907Y33672623D01*
G37*
%TD.AperFunction*%
%TD*%
%TA.AperFunction,Conductor*%
%TO.N,/LED_HB*%
G36*
X49800047Y29749451D02*
G01*
X49801040Y29748322D01*
X50187579Y29246968D01*
X50189916Y29238324D01*
X50186607Y29231572D01*
X49915146Y28958750D01*
X49906881Y28955302D01*
X49906831Y28955302D01*
X49524803Y28955976D01*
X49516536Y28959417D01*
X49513124Y28967697D01*
X49513286Y28969614D01*
X49558497Y29238843D01*
X49615517Y29578399D01*
X49618780Y29584730D01*
X49783502Y29749452D01*
X49791774Y29752878D01*
X49800047Y29749451D01*
G37*
%TD.AperFunction*%
%TD*%
%TA.AperFunction,Conductor*%
%TO.N,/LED_HB*%
G36*
X52184044Y29104747D02*
G01*
X52190206Y29098761D01*
X52466747Y28486072D01*
X52467027Y28477122D01*
X52464356Y28472986D01*
X52299014Y28307644D01*
X52290741Y28304217D01*
X52285928Y28305253D01*
X51673239Y28581794D01*
X51667108Y28588321D01*
X51667232Y28596910D01*
X51813437Y28952198D01*
X51819753Y28958543D01*
X52175090Y29104768D01*
X52184044Y29104747D01*
G37*
%TD.AperFunction*%
%TD*%
%TA.AperFunction,Conductor*%
%TO.N,/USB_OTG_VSEN*%
G36*
X85006456Y21909552D02*
G01*
X85754559Y21162430D01*
X85757991Y21154159D01*
X85754570Y21145883D01*
X85754408Y21145725D01*
X85006977Y20425745D01*
X84998641Y20422473D01*
X84992095Y20424625D01*
X84242935Y20955503D01*
X84238166Y20963082D01*
X84238000Y20965049D01*
X84238000Y21452374D01*
X84241427Y21460647D01*
X84243682Y21462408D01*
X84992173Y21911307D01*
X85001030Y21912622D01*
X85006456Y21909552D01*
G37*
%TD.AperFunction*%
%TD*%
%TA.AperFunction,Conductor*%
%TO.N,/USB_D_N*%
G36*
X84591897Y24444390D02*
G01*
X85750594Y24416277D01*
X85758781Y24412650D01*
X85762010Y24404591D01*
X85762702Y23658155D01*
X85759283Y23649879D01*
X85759264Y23649860D01*
X85232890Y23124865D01*
X85224613Y23121449D01*
X85216344Y23124887D01*
X85215149Y23126290D01*
X84833804Y23653293D01*
X84403835Y24247493D01*
X84401763Y24256203D01*
X84405040Y24262622D01*
X84583384Y24440966D01*
X84591656Y24444392D01*
X84591897Y24444390D01*
G37*
%TD.AperFunction*%
%TD*%
%TA.AperFunction,Conductor*%
%TO.N,/USB_D_P*%
G36*
X85231493Y26184287D02*
G01*
X85233029Y26182997D01*
X85759264Y25658141D01*
X85762702Y25649872D01*
X85762702Y25649846D01*
X85762010Y24903151D01*
X85758575Y24894881D01*
X85750862Y24891475D01*
X84597405Y24837043D01*
X84588979Y24840076D01*
X84588580Y24840457D01*
X84410252Y25018785D01*
X84406825Y25027058D01*
X84408951Y25033784D01*
X84841743Y25649846D01*
X85215193Y26181440D01*
X85222753Y26186238D01*
X85231493Y26184287D01*
G37*
%TD.AperFunction*%
%TD*%
%TA.AperFunction,Conductor*%
%TO.N,/SNES_CLK*%
G36*
X37630071Y26558748D02*
G01*
X38242760Y26282207D01*
X38248891Y26275680D01*
X38248767Y26267091D01*
X38102563Y25911805D01*
X38096245Y25905458D01*
X38096195Y25905437D01*
X37740909Y25759233D01*
X37731955Y25759254D01*
X37725793Y25765240D01*
X37661676Y25907293D01*
X37499279Y26267091D01*
X37449252Y26377929D01*
X37448972Y26386879D01*
X37451641Y26391013D01*
X37616986Y26556358D01*
X37625258Y26559784D01*
X37630071Y26558748D01*
G37*
%TD.AperFunction*%
%TD*%
%TA.AperFunction,Conductor*%
%TO.N,/SNES_LATCH*%
G36*
X37000381Y26525219D02*
G01*
X37003808Y26516946D01*
X37003476Y26514177D01*
X36821775Y25768162D01*
X36816487Y25760935D01*
X36807638Y25759563D01*
X36805955Y25760111D01*
X36453503Y25905147D01*
X36447156Y25911465D01*
X36447141Y25911500D01*
X36299940Y26267838D01*
X36299949Y26276793D01*
X36305156Y26282579D01*
X36754383Y26527222D01*
X36759979Y26528646D01*
X36992108Y26528646D01*
X37000381Y26525219D01*
G37*
%TD.AperFunction*%
%TD*%
%TA.AperFunction,Conductor*%
%TO.N,/SNES_DATA1*%
G36*
X37990618Y58172522D02*
G01*
X37992727Y58170937D01*
X39065176Y57364793D01*
X39069730Y57357083D01*
X39068734Y57350463D01*
X38355161Y55832880D01*
X38348539Y55826851D01*
X38344573Y55826158D01*
X38107796Y55826158D01*
X38099523Y55829585D01*
X38098488Y55830770D01*
X37087969Y57157751D01*
X37085683Y57166409D01*
X37088526Y57172605D01*
X37974842Y58170938D01*
X37982896Y58174848D01*
X37990618Y58172522D01*
G37*
%TD.AperFunction*%
%TD*%
M02*
