%TF.GenerationSoftware,KiCad,Pcbnew,8.0.0-rc2*%
%TF.CreationDate,2024-01-29T20:33:42-05:00*%
%TF.ProjectId,stm32-snake-controller,73746d33-322d-4736-9e61-6b652d636f6e,C*%
%TF.SameCoordinates,Original*%
%TF.FileFunction,Soldermask,Bot*%
%TF.FilePolarity,Negative*%
%FSLAX46Y46*%
G04 Gerber Fmt 4.6, Leading zero omitted, Abs format (unit mm)*
G04 Created by KiCad (PCBNEW 8.0.0-rc2) date 2024-01-29 20:33:42*
%MOMM*%
%LPD*%
G01*
G04 APERTURE LIST*
G04 Aperture macros list*
%AMRoundRect*
0 Rectangle with rounded corners*
0 $1 Rounding radius*
0 $2 $3 $4 $5 $6 $7 $8 $9 X,Y pos of 4 corners*
0 Add a 4 corners polygon primitive as box body*
4,1,4,$2,$3,$4,$5,$6,$7,$8,$9,$2,$3,0*
0 Add four circle primitives for the rounded corners*
1,1,$1+$1,$2,$3*
1,1,$1+$1,$4,$5*
1,1,$1+$1,$6,$7*
1,1,$1+$1,$8,$9*
0 Add four rect primitives between the rounded corners*
20,1,$1+$1,$2,$3,$4,$5,0*
20,1,$1+$1,$4,$5,$6,$7,0*
20,1,$1+$1,$6,$7,$8,$9,0*
20,1,$1+$1,$8,$9,$2,$3,0*%
G04 Aperture macros list end*
%ADD10C,3.200000*%
%ADD11RoundRect,0.800000X0.800000X0.800000X-0.800000X0.800000X-0.800000X-0.800000X0.800000X-0.800000X0*%
%ADD12R,1.650000X1.650000*%
%ADD13C,1.650000*%
%ADD14RoundRect,0.250000X0.350000X0.625000X-0.350000X0.625000X-0.350000X-0.625000X0.350000X-0.625000X0*%
%ADD15O,1.200000X1.750000*%
%ADD16O,3.400000X2.000000*%
%ADD17R,4.000000X2.000000*%
%ADD18O,2.000000X3.300000*%
%ADD19C,1.600000*%
%ADD20RoundRect,0.687500X-0.687500X-0.687500X0.687500X-0.687500X0.687500X0.687500X-0.687500X0.687500X0*%
%ADD21C,2.750000*%
%ADD22RoundRect,0.250000X0.625000X-0.350000X0.625000X0.350000X-0.625000X0.350000X-0.625000X-0.350000X0*%
%ADD23O,1.750000X1.200000*%
%ADD24C,0.991000*%
%ADD25RoundRect,0.250000X-0.350000X-0.625000X0.350000X-0.625000X0.350000X0.625000X-0.350000X0.625000X0*%
%ADD26RoundRect,0.687500X0.687500X0.687500X-0.687500X0.687500X-0.687500X-0.687500X0.687500X-0.687500X0*%
%ADD27R,1.524000X1.524000*%
%ADD28C,1.524000*%
%ADD29C,3.500000*%
G04 APERTURE END LIST*
D10*
%TO.C,SW102*%
X88012000Y61214000D03*
X83312000Y61214000D03*
D11*
X78612000Y61214000D03*
%TD*%
D12*
%TO.C,J302*%
X4562000Y36830000D03*
D13*
X4562000Y34290000D03*
X4562000Y31750000D03*
%TD*%
D14*
%TO.C,J102*%
X30226000Y51562000D03*
D15*
X28226000Y51562000D03*
X26226000Y51562000D03*
X24226000Y51562000D03*
%TD*%
D10*
%TO.C,H102*%
X94062000Y68017000D03*
%TD*%
D12*
%TO.C,J301*%
X4562000Y47371000D03*
D13*
X4562000Y44831000D03*
X4562000Y42291000D03*
%TD*%
D16*
%TO.C,J101*%
X69977000Y66079500D03*
D17*
X69977000Y60079500D03*
D18*
X65477000Y67129500D03*
D19*
X69977000Y69079500D03*
D18*
X74477000Y67129500D03*
%TD*%
D10*
%TO.C,H101*%
X4062000Y68017000D03*
%TD*%
D20*
%TO.C,J401*%
X22942000Y13335000D03*
D21*
X26942000Y13335000D03*
X30942000Y13335000D03*
X34942000Y13335000D03*
X41442000Y13335000D03*
X45442000Y13335000D03*
X49442000Y13335000D03*
%TD*%
D22*
%TO.C,OLED101*%
X72390000Y30480000D03*
D23*
X72390000Y32480000D03*
X72390000Y34480000D03*
X72390000Y36480000D03*
%TD*%
D24*
%TO.C,J103*%
X47117000Y22606000D03*
X52197000Y23621000D03*
X52197000Y21591000D03*
%TD*%
D25*
%TO.C,OLED102*%
X16320000Y21209000D03*
D15*
X18320000Y21209000D03*
X20320000Y21209000D03*
X22320000Y21209000D03*
X24320000Y21209000D03*
X26320000Y21209000D03*
X28320000Y21209000D03*
%TD*%
D26*
%TO.C,J402*%
X49982000Y59055000D03*
D21*
X45982000Y59055000D03*
X41982000Y59055000D03*
X37982000Y59055000D03*
X31482000Y59055000D03*
X27482000Y59055000D03*
X23482000Y59055000D03*
%TD*%
D27*
%TO.C,J501*%
X85762000Y21154000D03*
D28*
X85762000Y23654000D03*
X85762000Y25654000D03*
X85762000Y28154000D03*
D29*
X88472000Y18084000D03*
X88472000Y31224000D03*
%TD*%
D10*
%TO.C,H103*%
X94062000Y4017000D03*
%TD*%
%TO.C,H104*%
X4062000Y4017000D03*
%TD*%
M02*
