M48
; DRILL file {KiCad 8.0.0} date 2024-03-13T15:25:10-0400
; FORMAT={-:-/ absolute / inch / decimal}
; #@! TF.CreationDate,2024-03-13T15:25:10-04:00
; #@! TF.GenerationSoftware,Kicad,Pcbnew,8.0.0
; #@! TF.FileFunction,Plated,1,4,PTH
FMAT,2
INCH
; #@! TA.AperFunction,Plated,PTH,ViaDrill
T1C0.0157
; #@! TA.AperFunction,Plated,PTH,ViaDrill
T2C0.0236
; #@! TA.AperFunction,Plated,PTH,ComponentDrill
T3C0.0295
; #@! TA.AperFunction,Plated,PTH,ComponentDrill
T4C0.0350
; #@! TA.AperFunction,Plated,PTH,ComponentDrill
T5C0.0362
; #@! TA.AperFunction,Plated,PTH,ComponentDrill
T6C0.0394
; #@! TA.AperFunction,Plated,PTH,ComponentDrill
T7C0.0433
; #@! TA.AperFunction,Plated,PTH,ComponentDrill
T8C0.0472
; #@! TA.AperFunction,Plated,PTH,ComponentDrill
T9C0.0591
; #@! TA.AperFunction,Plated,PTH,ComponentDrill
T10C0.0618
; #@! TA.AperFunction,Plated,PTH,ComponentDrill
T11C0.0669
; #@! TA.AperFunction,Plated,PTH,ComponentDrill
T12C0.0906
%
G90
G05
T1
X0.468Y0.484
X0.525Y0.67
X0.6093Y1.4913
X0.6093Y1.2713
X0.615Y0.265
X0.624Y1.108
X0.75Y0.815
X0.7513Y1.3863
X0.7513Y1.3113
X0.7543Y1.6137
X0.7543Y1.5363
X0.776Y1.052
X0.7993Y1.5713
X0.7993Y1.3513
X0.984Y0.7
X1.09Y0.6596
X1.148Y0.91
X1.15Y0.832
X1.2193Y1.2313
X1.2193Y1.1713
X1.2193Y1.1113
X1.2264Y1.5397
X1.254Y0.96
X1.272Y0.8415
X1.282Y0.93
X1.2898Y1.5413
X1.3Y0.808
X1.3293Y1.0663
X1.336Y0.87
X1.3843Y1.7613
X1.3943Y1.6863
X1.4455Y0.948
X1.4983Y1.2083
X1.5043Y1.3063
X1.5045Y1.4265
X1.5083Y1.3823
X1.5093Y1.0213
X1.516Y0.9573
X1.5408Y1.3211
X1.546Y1.25
X1.55Y0.756
X1.552Y0.902
X1.558Y0.844
X1.5743Y1.6613
X1.586Y1.27
X1.59Y1.196
X1.616Y1.228
X1.6693Y1.9163
X1.6843Y1.4913
X1.7243Y1.9313
X1.7743Y1.9913
X1.7817Y1.1636
X1.7893Y0.8963
X1.7993Y1.4128
X1.802Y1.4913
X1.802Y1.0413
X1.8793Y1.8063
X1.9493Y1.0413
X1.9743Y1.4463
X2.0493Y1.7763
X2.0493Y1.6713
X2.07Y1.33
X2.0793Y1.4913
X2.0793Y0.8263
X2.1093Y1.5413
X2.1693Y1.9513
X2.2293Y1.1563
X2.232Y1.0813
X2.2543Y1.6063
X2.2543Y1.5413
X2.2543Y1.4763
X2.33Y1.2663
X2.415Y1.53
X2.4293Y0.8713
X2.4323Y0.832
X2.4343Y0.6163
X2.4793Y0.6163
X2.5043Y1.1563
X2.5043Y1.0763
X2.5743Y2.7413
X2.5743Y0.1063
X2.602Y1.53
X2.6741Y2.3642
X2.6741Y2.4613
X2.682Y1.415
X2.682Y1.365
X2.682Y1.315
X2.682Y1.265
X2.7293Y0.3763
X2.7528Y2.4613
X2.8316Y2.4613
X2.9103Y2.4613
X2.95Y0.872
X2.95Y0.488
X2.9643Y0.3713
X2.9891Y2.4613
X2.9891Y2.3642
X3.0393Y0.2763
X3.0643Y1.0613
X3.1043Y0.8263
X3.1093Y1.7313
X3.1093Y1.6813
X3.1543Y1.7313
X3.1543Y1.6813
X3.1843Y0.5913
X3.1843Y0.5463
X3.1993Y1.7313
X3.1993Y1.6813
X3.2143Y1.8563
X3.2543Y1.5663
X3.2693Y1.8713
X3.2743Y0.7313
X3.3243Y2.2863
X3.3243Y2.2213
X3.3543Y1.5663
X3.3893Y2.2863
X3.3893Y2.2213
X3.526Y2.136
T2
X3.3493Y1.9613
X3.5693Y2.0263
X3.5693Y1.9513
T3
X0.9883Y1.65
X0.9883Y1.5713
X0.9883Y1.4925
X0.9883Y1.4138
X0.9883Y1.335
X0.9883Y1.2563
X0.9883Y1.1776
X1.0281Y2.0313
X1.1069Y2.0313
X1.1856Y2.0313
X1.2643Y2.0313
T4
X0.3193Y0.7843
X0.3193Y0.7043
X0.3193Y0.6243
X0.3193Y0.5443
X0.3894Y0.8243
X0.3894Y0.7443
X0.3894Y0.6643
X0.3894Y0.5843
X0.5792Y0.9545
X0.5792Y0.8644
X0.5792Y0.5045
X0.5792Y0.4144
T5
X3.4508Y1.1097
X3.4508Y1.0113
X3.4508Y0.9326
X3.4508Y0.8341
T7
X0.2539Y1.9784
X0.2539Y1.8784
X0.2539Y1.7784
X0.2539Y1.5684
X0.2539Y1.4684
X0.2539Y1.3684
T8
X2.5958Y1.8713
X2.8911Y1.8713
T9
X0.9776Y0.505
X0.9988Y2.335
X1.135Y0.505
X1.1563Y2.335
X1.2925Y0.505
X1.3138Y2.335
X1.45Y0.505
X1.5697Y2.335
X1.7059Y0.505
X1.7272Y2.335
X1.8634Y0.505
X1.8846Y2.335
X2.0209Y0.505
X2.0421Y2.335
T10
X0.3544Y1.0045
X0.3544Y0.3644
T11
X3.1693Y2.4113
X3.3543Y2.4113
X3.5394Y2.4113
T12
X3.5575Y1.2306
X3.5575Y0.7133
T6
G00X2.6522Y2.6186
M15
G01X2.6522Y2.6698
M16
G05
G00X2.8037Y2.6029
M15
G01X2.8549Y2.6029
M16
G05
G00X2.79Y2.3666
M15
G01X2.8687Y2.3666
M16
G05
G00X3.0065Y2.6698
M15
G01X3.0065Y2.6186
M16
G05
M30
