%TF.GenerationSoftware,KiCad,Pcbnew,8.0.0*%
%TF.CreationDate,2024-03-12T18:48:30-04:00*%
%TF.ProjectId,stm32-snake-controller,73746d33-322d-4736-9e61-6b652d636f6e,C*%
%TF.SameCoordinates,Original*%
%TF.FileFunction,Soldermask,Bot*%
%TF.FilePolarity,Negative*%
%FSLAX46Y46*%
G04 Gerber Fmt 4.6, Leading zero omitted, Abs format (unit mm)*
G04 Created by KiCad (PCBNEW 8.0.0) date 2024-03-12 18:48:30*
%MOMM*%
%LPD*%
G01*
G04 APERTURE LIST*
G04 Aperture macros list*
%AMRoundRect*
0 Rectangle with rounded corners*
0 $1 Rounding radius*
0 $2 $3 $4 $5 $6 $7 $8 $9 X,Y pos of 4 corners*
0 Add a 4 corners polygon primitive as box body*
4,1,4,$2,$3,$4,$5,$6,$7,$8,$9,$2,$3,0*
0 Add four circle primitives for the rounded corners*
1,1,$1+$1,$2,$3*
1,1,$1+$1,$4,$5*
1,1,$1+$1,$6,$7*
1,1,$1+$1,$8,$9*
0 Add four rect primitives between the rounded corners*
20,1,$1+$1,$2,$3,$4,$5,0*
20,1,$1+$1,$4,$5,$6,$7,0*
20,1,$1+$1,$6,$7,$8,$9,0*
20,1,$1+$1,$8,$9,$2,$3,0*%
G04 Aperture macros list end*
%ADD10R,1.650000X1.650000*%
%ADD11C,1.650000*%
%ADD12RoundRect,0.250000X0.350000X0.625000X-0.350000X0.625000X-0.350000X-0.625000X0.350000X-0.625000X0*%
%ADD13O,1.200000X1.750000*%
%ADD14C,3.200000*%
%ADD15O,2.000000X3.300000*%
%ADD16C,1.600000*%
%ADD17R,4.000000X2.000000*%
%ADD18O,3.400000X2.000000*%
%ADD19RoundRect,0.687500X-0.687500X-0.687500X0.687500X-0.687500X0.687500X0.687500X-0.687500X0.687500X0*%
%ADD20C,2.750000*%
%ADD21RoundRect,0.800000X0.800000X0.800000X-0.800000X0.800000X-0.800000X-0.800000X0.800000X-0.800000X0*%
%ADD22C,0.991000*%
%ADD23C,3.250000*%
%ADD24R,1.500000X1.500000*%
%ADD25C,1.500000*%
%ADD26C,2.300000*%
%ADD27RoundRect,0.250000X-0.625000X0.350000X-0.625000X-0.350000X0.625000X-0.350000X0.625000X0.350000X0*%
%ADD28O,1.750000X1.200000*%
%ADD29RoundRect,0.687500X0.687500X0.687500X-0.687500X0.687500X-0.687500X-0.687500X0.687500X-0.687500X0*%
%ADD30R,1.524000X1.524000*%
%ADD31C,1.524000*%
%ADD32C,3.500000*%
G04 APERTURE END LIST*
D10*
%TO.C,J302*%
X6450000Y39838000D03*
D11*
X6450000Y37298000D03*
X6450000Y34758000D03*
%TD*%
D12*
%TO.C,J103*%
X32114000Y51595000D03*
D13*
X30114000Y51595000D03*
X28114000Y51595000D03*
X26114000Y51595000D03*
%TD*%
D14*
%TO.C,H103*%
X95950000Y68050000D03*
%TD*%
D10*
%TO.C,J301*%
X6450000Y50252000D03*
D11*
X6450000Y47712000D03*
X6450000Y45172000D03*
%TD*%
D15*
%TO.C,J101*%
X76365000Y67162500D03*
D16*
X71865000Y69112500D03*
D15*
X67365000Y67162500D03*
D17*
X71865000Y60112500D03*
D18*
X71865000Y66112500D03*
%TD*%
D14*
%TO.C,H101*%
X3950000Y68050000D03*
%TD*%
D19*
%TO.C,J401*%
X24830000Y12827000D03*
D20*
X28830000Y12827000D03*
X32830000Y12827000D03*
X36830000Y12827000D03*
X43330000Y12827000D03*
X47330000Y12827000D03*
X51330000Y12827000D03*
%TD*%
D21*
%TO.C,SW101*%
X80500000Y61247000D03*
D14*
X85200000Y61247000D03*
X89900000Y61247000D03*
%TD*%
D22*
%TO.C,J102*%
X49005000Y22639000D03*
X54085000Y23654000D03*
X54085000Y21624000D03*
%TD*%
D23*
%TO.C,J601*%
X5571000Y11035200D03*
X5571000Y23735200D03*
D24*
X8111000Y13825200D03*
D25*
X9891000Y14841200D03*
X8111000Y15857200D03*
X9891000Y16873200D03*
X8111000Y17889200D03*
X9891000Y18905200D03*
X8111000Y19921200D03*
X9891000Y20937200D03*
X14711000Y10525200D03*
X14711000Y12815200D03*
X14711000Y21955200D03*
X14711000Y24245200D03*
D26*
X9001000Y9255200D03*
X9001000Y25515200D03*
%TD*%
D27*
%TO.C,OLED101*%
X25103600Y41910000D03*
D28*
X25103600Y39910000D03*
X25103600Y37910000D03*
X25103600Y35910000D03*
X25103600Y33910000D03*
X25103600Y31910000D03*
X25103600Y29910000D03*
%TD*%
D29*
%TO.C,J402*%
X51870000Y59309000D03*
D20*
X47870000Y59309000D03*
X43870000Y59309000D03*
X39870000Y59309000D03*
X33370000Y59309000D03*
X29370000Y59309000D03*
X25370000Y59309000D03*
%TD*%
D30*
%TO.C,J501*%
X87650000Y21187000D03*
D31*
X87650000Y23687000D03*
X87650000Y25687000D03*
X87650000Y28187000D03*
D32*
X90360000Y18117000D03*
X90360000Y31257000D03*
%TD*%
D14*
%TO.C,H102*%
X95950000Y4050000D03*
%TD*%
%TO.C,H104*%
X3950000Y4050000D03*
%TD*%
M02*
