M48
; DRILL file {KiCad 8.0.0-rc2} date 2024-01-28T15:47:24-0500
; FORMAT={-:-/ absolute / inch / decimal}
; #@! TF.CreationDate,2024-01-28T15:47:24-05:00
; #@! TF.GenerationSoftware,Kicad,Pcbnew,8.0.0-rc2
; #@! TF.FileFunction,Plated,1,4,PTH
FMAT,2
INCH
; #@! TA.AperFunction,Plated,PTH,ViaDrill
T1C0.0157
; #@! TA.AperFunction,Plated,PTH,ViaDrill
T2C0.0236
; #@! TA.AperFunction,Plated,PTH,ComponentDrill
T3C0.0295
; #@! TA.AperFunction,Plated,PTH,ComponentDrill
T4C0.0362
; #@! TA.AperFunction,Plated,PTH,ComponentDrill
T5C0.0394
; #@! TA.AperFunction,Plated,PTH,ComponentDrill
T6C0.0433
; #@! TA.AperFunction,Plated,PTH,ComponentDrill
T7C0.0472
; #@! TA.AperFunction,Plated,PTH,ComponentDrill
T8C0.0591
; #@! TA.AperFunction,Plated,PTH,ComponentDrill
T9C0.0906
%
G90
G05
T1
X0.535Y1.49
X0.535Y1.27
X0.677Y1.385
X0.677Y1.31
X0.68Y1.6124
X0.68Y1.535
X0.725Y1.57
X0.725Y1.35
X1.145Y1.23
X1.145Y1.17
X1.145Y1.11
X1.1521Y1.5384
X1.2155Y1.54
X1.255Y1.065
X1.31Y1.76
X1.32Y1.685
X1.34Y0.98
X1.38Y0.98
X1.424Y1.207
X1.43Y1.305
X1.4302Y1.4252
X1.434Y1.381
X1.435Y1.02
X1.476Y1.305
X1.5Y1.66
X1.5Y1.02
X1.5Y0.97
X1.595Y1.915
X1.61Y1.49
X1.65Y1.93
X1.7Y1.99
X1.7073Y1.1623
X1.715Y0.895
X1.725Y1.4115
X1.7276Y1.49
X1.7276Y1.04
X1.805Y1.805
X1.875Y1.04
X1.9Y1.445
X1.965Y1.14
X1.975Y1.775
X1.975Y1.67
X2.005Y1.49
X2.005Y0.825
X2.035Y1.54
X2.04Y1.14
X2.095Y1.95
X2.155Y1.155
X2.18Y1.605
X2.18Y1.54
X2.18Y1.475
X2.2556Y1.265
X2.325Y0.84
X2.355Y0.87
X2.36Y0.615
X2.405Y0.615
X2.43Y1.155
X2.43Y1.075
X2.515Y2.74
X2.515Y0.105
X2.605Y1.415
X2.605Y1.365
X2.605Y1.315
X2.605Y1.265
X2.655Y0.375
X2.67Y2.3629
X2.67Y2.26
X2.71Y0.88
X2.715Y0.515
X2.7488Y2.26
X2.8275Y2.26
X2.89Y0.37
X2.9063Y2.26
X2.965Y0.275
X2.975Y2.11
X2.975Y2.06
X2.985Y2.3629
X2.985Y2.26
X2.99Y1.06
X3.02Y2.11
X3.02Y2.06
X3.02Y1.55
X3.02Y1.2211
X3.03Y0.825
X3.065Y2.11
X3.065Y2.06
X3.11Y0.59
X3.11Y0.545
X3.12Y1.945
X3.135Y2.25
X3.14Y1.855
X3.2Y0.73
X3.22Y1.945
T2
X3.23Y2.455
X3.31Y2.455
X3.39Y2.455
T3
X0.6425Y0.835
X0.7213Y0.835
X0.8Y0.835
X0.8787Y0.835
X0.9538Y2.03
X0.9575Y0.835
X1.0325Y2.03
X1.0362Y0.835
X1.1113Y2.03
X1.115Y0.835
X1.19Y2.03
X2.85Y1.4362
X2.85Y1.3575
X2.85Y1.2787
X2.85Y1.2
T4
X3.3765Y1.1084
X3.3765Y1.01
X3.3765Y0.9313
X3.3765Y0.8328
T6
X0.1796Y1.865
X0.1796Y1.765
X0.1796Y1.665
X0.1796Y1.45
X0.1796Y1.35
X0.1796Y1.25
T7
X2.5694Y1.855
X2.8646Y1.855
T8
X0.9032Y0.525
X0.9245Y2.325
X1.0607Y0.525
X1.082Y2.325
X1.2182Y0.525
X1.2394Y2.325
X1.3757Y0.525
X1.4954Y2.325
X1.6316Y0.525
X1.6528Y2.325
X1.7891Y0.525
X1.8103Y2.325
X1.9465Y0.525
X1.9678Y2.325
T9
X3.4831Y1.2293
X3.4831Y0.712
T5
G00X2.6481Y2.6173
M15
G01X2.6481Y2.6685
M16
G05
G00X2.7997Y2.6016
M15
G01X2.8509Y2.6016
M16
G05
G00X2.7859Y2.3653
M15
G01X2.8646Y2.3653
M16
G05
G00X3.0024Y2.6685
M15
G01X3.0024Y2.6173
M16
G05
M30
