%TF.GenerationSoftware,KiCad,Pcbnew,7.0.9*%
%TF.CreationDate,2024-01-15T17:48:45-05:00*%
%TF.ProjectId,stm32-snake-controller,73746d33-322d-4736-9e61-6b652d636f6e,A*%
%TF.SameCoordinates,Original*%
%TF.FileFunction,Paste,Top*%
%TF.FilePolarity,Positive*%
%FSLAX46Y46*%
G04 Gerber Fmt 4.6, Leading zero omitted, Abs format (unit mm)*
G04 Created by KiCad (PCBNEW 7.0.9) date 2024-01-15 17:48:45*
%MOMM*%
%LPD*%
G01*
G04 APERTURE LIST*
G04 Aperture macros list*
%AMRoundRect*
0 Rectangle with rounded corners*
0 $1 Rounding radius*
0 $2 $3 $4 $5 $6 $7 $8 $9 X,Y pos of 4 corners*
0 Add a 4 corners polygon primitive as box body*
4,1,4,$2,$3,$4,$5,$6,$7,$8,$9,$2,$3,0*
0 Add four circle primitives for the rounded corners*
1,1,$1+$1,$2,$3*
1,1,$1+$1,$4,$5*
1,1,$1+$1,$6,$7*
1,1,$1+$1,$8,$9*
0 Add four rect primitives between the rounded corners*
20,1,$1+$1,$2,$3,$4,$5,0*
20,1,$1+$1,$4,$5,$6,$7,0*
20,1,$1+$1,$6,$7,$8,$9,0*
20,1,$1+$1,$8,$9,$2,$3,0*%
G04 Aperture macros list end*
%ADD10RoundRect,0.180000X0.200000X0.275000X-0.200000X0.275000X-0.200000X-0.275000X0.200000X-0.275000X0*%
%ADD11RoundRect,0.130000X0.512500X0.150000X-0.512500X0.150000X-0.512500X-0.150000X0.512500X-0.150000X0*%
%ADD12RoundRect,0.180000X-0.200000X-0.275000X0.200000X-0.275000X0.200000X0.275000X-0.200000X0.275000X0*%
%ADD13RoundRect,0.205000X0.250000X-0.225000X0.250000X0.225000X-0.250000X0.225000X-0.250000X-0.225000X0*%
%ADD14RoundRect,0.230000X0.325000X0.450000X-0.325000X0.450000X-0.325000X-0.450000X0.325000X-0.450000X0*%
%ADD15R,1.760000X0.960000*%
%ADD16RoundRect,0.205000X0.225000X0.250000X-0.225000X0.250000X-0.225000X-0.250000X0.225000X-0.250000X0*%
%ADD17R,0.960000X0.710000*%
%ADD18RoundRect,0.230000X0.650000X-1.000000X0.650000X1.000000X-0.650000X1.000000X-0.650000X-1.000000X0*%
%ADD19RoundRect,0.198750X0.218750X0.256250X-0.218750X0.256250X-0.218750X-0.256250X0.218750X-0.256250X0*%
%ADD20RoundRect,0.180000X-0.275000X0.200000X-0.275000X-0.200000X0.275000X-0.200000X0.275000X0.200000X0*%
%ADD21RoundRect,0.130000X-0.587500X-0.150000X0.587500X-0.150000X0.587500X0.150000X-0.587500X0.150000X0*%
%ADD22RoundRect,0.180000X0.275000X-0.200000X0.275000X0.200000X-0.275000X0.200000X-0.275000X-0.200000X0*%
%ADD23RoundRect,0.205000X-0.225000X-0.250000X0.225000X-0.250000X0.225000X0.250000X-0.225000X0.250000X0*%
%ADD24RoundRect,0.130000X0.825000X0.150000X-0.825000X0.150000X-0.825000X-0.150000X0.825000X-0.150000X0*%
%ADD25R,1.360000X1.160000*%
%ADD26RoundRect,0.130000X-0.150000X0.512500X-0.150000X-0.512500X0.150000X-0.512500X0.150000X0.512500X0*%
%ADD27RoundRect,0.205000X-0.250000X0.225000X-0.250000X-0.225000X0.250000X-0.225000X0.250000X0.225000X0*%
%ADD28RoundRect,0.055000X-0.075000X0.700000X-0.075000X-0.700000X0.075000X-0.700000X0.075000X0.700000X0*%
%ADD29RoundRect,0.055000X-0.700000X0.075000X-0.700000X-0.075000X0.700000X-0.075000X0.700000X0.075000X0*%
%ADD30RoundRect,0.230000X-0.375000X-0.625000X0.375000X-0.625000X0.375000X0.625000X-0.375000X0.625000X0*%
%ADD31RoundRect,0.555000X-1.625000X-0.575000X1.625000X-0.575000X1.625000X0.575000X-1.625000X0.575000X0*%
%ADD32RoundRect,0.555000X-1.425000X-0.575000X1.425000X-0.575000X1.425000X0.575000X-1.425000X0.575000X0*%
G04 APERTURE END LIST*
D10*
%TO.C,R102*%
X54387000Y37517000D03*
X52737000Y37517000D03*
%TD*%
D11*
%TO.C,U302*%
X15920300Y33340000D03*
X15920300Y34290000D03*
X15920300Y35240000D03*
X13645300Y35240000D03*
X13645300Y33340000D03*
%TD*%
D12*
%TO.C,R103*%
X61151000Y69596000D03*
X62801000Y69596000D03*
%TD*%
D11*
%TO.C,U101*%
X77083500Y23688000D03*
X77083500Y24638000D03*
X77083500Y25588000D03*
X74808500Y25588000D03*
X74808500Y24638000D03*
X74808500Y23688000D03*
%TD*%
D13*
%TO.C,C110*%
X78487000Y5321000D03*
X78487000Y6871000D03*
%TD*%
D14*
%TO.C,FB101*%
X36585000Y46101000D03*
X34535000Y46101000D03*
%TD*%
D15*
%TO.C,Y101*%
X46609000Y43795000D03*
X46609000Y41295000D03*
%TD*%
D16*
%TO.C,C108*%
X36703000Y44323000D03*
X35153000Y44323000D03*
%TD*%
D17*
%TO.C,SW101*%
X76787000Y4221000D03*
X70787000Y4221000D03*
X76787000Y7971000D03*
X70787000Y7971000D03*
%TD*%
D18*
%TO.C,D102*%
X53213000Y43461000D03*
X53213000Y47461000D03*
%TD*%
D19*
%TO.C,D103*%
X57510000Y27432000D03*
X55935000Y27432000D03*
%TD*%
D20*
%TO.C,R502*%
X68961000Y15938000D03*
X68961000Y14288000D03*
%TD*%
D13*
%TO.C,C113*%
X40470000Y45873000D03*
X40470000Y47423000D03*
%TD*%
D21*
%TO.C,Q101*%
X56769000Y45334000D03*
X56769000Y43434000D03*
X58644000Y44384000D03*
%TD*%
D16*
%TO.C,C109*%
X36703000Y42799000D03*
X35153000Y42799000D03*
%TD*%
D20*
%TO.C,R108*%
X75057000Y34480000D03*
X75057000Y32830000D03*
%TD*%
D22*
%TO.C,R107*%
X75062000Y36513000D03*
X75062000Y38163000D03*
%TD*%
D23*
%TO.C,C106*%
X45072000Y26416000D03*
X46622000Y26416000D03*
%TD*%
D18*
%TO.C,D101*%
X84582000Y55785000D03*
X84582000Y59785000D03*
%TD*%
D24*
%TO.C,U102*%
X61403000Y32004000D03*
X61403000Y33274000D03*
X61403000Y34544000D03*
X61403000Y35814000D03*
X56453000Y35814000D03*
X56453000Y34544000D03*
X56453000Y33274000D03*
X56453000Y32004000D03*
%TD*%
D25*
%TO.C,Y102*%
X44534000Y47586000D03*
X42334000Y47586000D03*
X42334000Y45886000D03*
X44534000Y45886000D03*
%TD*%
D26*
%TO.C,U501*%
X78865000Y18536500D03*
X77915000Y18536500D03*
X76965000Y18536500D03*
X76965000Y16261500D03*
X78865000Y16261500D03*
%TD*%
D23*
%TO.C,C101*%
X52819000Y40775000D03*
X54369000Y40775000D03*
%TD*%
D16*
%TO.C,C104*%
X31837000Y36617000D03*
X30287000Y36617000D03*
%TD*%
D23*
%TO.C,C102*%
X52819000Y39116000D03*
X54369000Y39116000D03*
%TD*%
%TO.C,C107*%
X48187000Y37817000D03*
X49737000Y37817000D03*
%TD*%
D12*
%TO.C,R105*%
X58992000Y29342000D03*
X60642000Y29342000D03*
%TD*%
D16*
%TO.C,C114*%
X50178000Y43815000D03*
X48628000Y43815000D03*
%TD*%
D19*
%TO.C,D105*%
X59586000Y2667000D03*
X58011000Y2667000D03*
%TD*%
D27*
%TO.C,C501*%
X81280000Y21222000D03*
X81280000Y19672000D03*
%TD*%
D10*
%TO.C,R106*%
X42057000Y44196000D03*
X40407000Y44196000D03*
%TD*%
D11*
%TO.C,U301*%
X15869500Y38928000D03*
X15869500Y39878000D03*
X15869500Y40828000D03*
X13594500Y40828000D03*
X13594500Y38928000D03*
%TD*%
D22*
%TO.C,R501*%
X68834000Y19495000D03*
X68834000Y21145000D03*
%TD*%
D12*
%TO.C,R101*%
X58992000Y27432000D03*
X60642000Y27432000D03*
%TD*%
D13*
%TO.C,C201*%
X81788000Y50533000D03*
X81788000Y52083000D03*
%TD*%
D22*
%TO.C,R301*%
X11480800Y40958000D03*
X11480800Y42608000D03*
%TD*%
D16*
%TO.C,C112*%
X44844000Y49403000D03*
X43294000Y49403000D03*
%TD*%
D11*
%TO.C,U201*%
X81618500Y53678000D03*
X81618500Y54628000D03*
X81618500Y55578000D03*
X79343500Y55578000D03*
X79343500Y53678000D03*
%TD*%
D27*
%TO.C,C202*%
X79248000Y52083000D03*
X79248000Y50533000D03*
%TD*%
D28*
%TO.C,U103*%
X43882000Y39584000D03*
X43382000Y39584000D03*
X42882000Y39584000D03*
X42382000Y39584000D03*
X41882000Y39584000D03*
X41382000Y39584000D03*
X40882000Y39584000D03*
X40382000Y39584000D03*
X39882000Y39584000D03*
X39382000Y39584000D03*
X38882000Y39584000D03*
X38382000Y39584000D03*
X37882000Y39584000D03*
X37382000Y39584000D03*
X36882000Y39584000D03*
X36382000Y39584000D03*
D29*
X34457000Y37659000D03*
X34457000Y37159000D03*
X34457000Y36659000D03*
X34457000Y36159000D03*
X34457000Y35659000D03*
X34457000Y35159000D03*
X34457000Y34659000D03*
X34457000Y34159000D03*
X34457000Y33659000D03*
X34457000Y33159000D03*
X34457000Y32659000D03*
X34457000Y32159000D03*
X34457000Y31659000D03*
X34457000Y31159000D03*
X34457000Y30659000D03*
X34457000Y30159000D03*
D28*
X36382000Y28234000D03*
X36882000Y28234000D03*
X37382000Y28234000D03*
X37882000Y28234000D03*
X38382000Y28234000D03*
X38882000Y28234000D03*
X39382000Y28234000D03*
X39882000Y28234000D03*
X40382000Y28234000D03*
X40882000Y28234000D03*
X41382000Y28234000D03*
X41882000Y28234000D03*
X42382000Y28234000D03*
X42882000Y28234000D03*
X43382000Y28234000D03*
X43882000Y28234000D03*
D29*
X45807000Y30159000D03*
X45807000Y30659000D03*
X45807000Y31159000D03*
X45807000Y31659000D03*
X45807000Y32159000D03*
X45807000Y32659000D03*
X45807000Y33159000D03*
X45807000Y33659000D03*
X45807000Y34159000D03*
X45807000Y34659000D03*
X45807000Y35159000D03*
X45807000Y35659000D03*
X45807000Y36159000D03*
X45807000Y36659000D03*
X45807000Y37159000D03*
X45807000Y37659000D03*
%TD*%
D16*
%TO.C,C111*%
X50178000Y41275000D03*
X48628000Y41275000D03*
%TD*%
D19*
%TO.C,D106*%
X57510000Y29337000D03*
X55935000Y29337000D03*
%TD*%
D22*
%TO.C,R302*%
X11531600Y35268400D03*
X11531600Y36918400D03*
%TD*%
D19*
%TO.C,D104*%
X59588500Y69596000D03*
X58013500Y69596000D03*
%TD*%
D30*
%TO.C,F101*%
X78991000Y59817000D03*
X81791000Y59817000D03*
%TD*%
D16*
%TO.C,C105*%
X31837000Y29718000D03*
X30287000Y29718000D03*
%TD*%
D12*
%TO.C,R104*%
X61151000Y2667000D03*
X62801000Y2667000D03*
%TD*%
D16*
%TO.C,C103*%
X31837000Y28194000D03*
X30287000Y28194000D03*
%TD*%
D31*
%TO.C,BT101*%
X61162000Y47117000D03*
D32*
X77162000Y47117000D03*
%TD*%
D16*
%TO.C,C115*%
X31837000Y31242000D03*
X30287000Y31242000D03*
%TD*%
M02*
