%TF.GenerationSoftware,KiCad,Pcbnew,8.0.0-rc2*%
%TF.CreationDate,2024-01-28T15:47:24-05:00*%
%TF.ProjectId,stm32-snake-controller,73746d33-322d-4736-9e61-6b652d636f6e,B*%
%TF.SameCoordinates,Original*%
%TF.FileFunction,Legend,Bot*%
%TF.FilePolarity,Positive*%
%FSLAX46Y46*%
G04 Gerber Fmt 4.6, Leading zero omitted, Abs format (unit mm)*
G04 Created by KiCad (PCBNEW 8.0.0-rc2) date 2024-01-28 15:47:24*
%MOMM*%
%LPD*%
G01*
G04 APERTURE LIST*
G04 Aperture macros list*
%AMRoundRect*
0 Rectangle with rounded corners*
0 $1 Rounding radius*
0 $2 $3 $4 $5 $6 $7 $8 $9 X,Y pos of 4 corners*
0 Add a 4 corners polygon primitive as box body*
4,1,4,$2,$3,$4,$5,$6,$7,$8,$9,$2,$3,0*
0 Add four circle primitives for the rounded corners*
1,1,$1+$1,$2,$3*
1,1,$1+$1,$4,$5*
1,1,$1+$1,$6,$7*
1,1,$1+$1,$8,$9*
0 Add four rect primitives between the rounded corners*
20,1,$1+$1,$2,$3,$4,$5,0*
20,1,$1+$1,$4,$5,$6,$7,0*
20,1,$1+$1,$6,$7,$8,$9,0*
20,1,$1+$1,$8,$9,$2,$3,0*%
G04 Aperture macros list end*
%ADD10C,0.153000*%
%ADD11R,1.650000X1.650000*%
%ADD12C,1.650000*%
%ADD13RoundRect,0.250000X0.350000X0.625000X-0.350000X0.625000X-0.350000X-0.625000X0.350000X-0.625000X0*%
%ADD14O,1.200000X1.750000*%
%ADD15C,3.200000*%
%ADD16O,2.000000X3.300000*%
%ADD17C,1.600000*%
%ADD18R,4.000000X2.000000*%
%ADD19O,3.400000X2.000000*%
%ADD20RoundRect,0.687500X-0.687500X-0.687500X0.687500X-0.687500X0.687500X0.687500X-0.687500X0.687500X0*%
%ADD21C,2.750000*%
%ADD22RoundRect,0.250000X0.625000X-0.350000X0.625000X0.350000X-0.625000X0.350000X-0.625000X-0.350000X0*%
%ADD23O,1.750000X1.200000*%
%ADD24C,0.991000*%
%ADD25RoundRect,0.250000X-0.350000X-0.625000X0.350000X-0.625000X0.350000X0.625000X-0.350000X0.625000X0*%
%ADD26RoundRect,0.687500X0.687500X0.687500X-0.687500X0.687500X-0.687500X-0.687500X0.687500X-0.687500X0*%
%ADD27R,1.524000X1.524000*%
%ADD28C,1.524000*%
%ADD29C,3.500000*%
G04 APERTURE END LIST*
D10*
X78025048Y3085337D02*
X78025048Y2371052D01*
X78025048Y2371052D02*
X78072667Y2228195D01*
X78072667Y2228195D02*
X78167905Y2132956D01*
X78167905Y2132956D02*
X78310762Y2085337D01*
X78310762Y2085337D02*
X78406000Y2085337D01*
X77072667Y2085337D02*
X77548857Y2085337D01*
X77548857Y2085337D02*
X77548857Y3085337D01*
X76167905Y2180576D02*
X76215524Y2132956D01*
X76215524Y2132956D02*
X76358381Y2085337D01*
X76358381Y2085337D02*
X76453619Y2085337D01*
X76453619Y2085337D02*
X76596476Y2132956D01*
X76596476Y2132956D02*
X76691714Y2228195D01*
X76691714Y2228195D02*
X76739333Y2323433D01*
X76739333Y2323433D02*
X76786952Y2513909D01*
X76786952Y2513909D02*
X76786952Y2656766D01*
X76786952Y2656766D02*
X76739333Y2847242D01*
X76739333Y2847242D02*
X76691714Y2942480D01*
X76691714Y2942480D02*
X76596476Y3037718D01*
X76596476Y3037718D02*
X76453619Y3085337D01*
X76453619Y3085337D02*
X76358381Y3085337D01*
X76358381Y3085337D02*
X76215524Y3037718D01*
X76215524Y3037718D02*
X76167905Y2990099D01*
X75453619Y3085337D02*
X75453619Y2371052D01*
X75453619Y2371052D02*
X75501238Y2228195D01*
X75501238Y2228195D02*
X75596476Y2132956D01*
X75596476Y2132956D02*
X75739333Y2085337D01*
X75739333Y2085337D02*
X75834571Y2085337D01*
X74501238Y2085337D02*
X74977428Y2085337D01*
X74977428Y2085337D02*
X74977428Y3085337D01*
X73596476Y2180576D02*
X73644095Y2132956D01*
X73644095Y2132956D02*
X73786952Y2085337D01*
X73786952Y2085337D02*
X73882190Y2085337D01*
X73882190Y2085337D02*
X74025047Y2132956D01*
X74025047Y2132956D02*
X74120285Y2228195D01*
X74120285Y2228195D02*
X74167904Y2323433D01*
X74167904Y2323433D02*
X74215523Y2513909D01*
X74215523Y2513909D02*
X74215523Y2656766D01*
X74215523Y2656766D02*
X74167904Y2847242D01*
X74167904Y2847242D02*
X74120285Y2942480D01*
X74120285Y2942480D02*
X74025047Y3037718D01*
X74025047Y3037718D02*
X73882190Y3085337D01*
X73882190Y3085337D02*
X73786952Y3085337D01*
X73786952Y3085337D02*
X73644095Y3037718D01*
X73644095Y3037718D02*
X73596476Y2990099D01*
X72882190Y3085337D02*
X72882190Y2371052D01*
X72882190Y2371052D02*
X72929809Y2228195D01*
X72929809Y2228195D02*
X73025047Y2132956D01*
X73025047Y2132956D02*
X73167904Y2085337D01*
X73167904Y2085337D02*
X73263142Y2085337D01*
X71929809Y2085337D02*
X72405999Y2085337D01*
X72405999Y2085337D02*
X72405999Y3085337D01*
X71025047Y2180576D02*
X71072666Y2132956D01*
X71072666Y2132956D02*
X71215523Y2085337D01*
X71215523Y2085337D02*
X71310761Y2085337D01*
X71310761Y2085337D02*
X71453618Y2132956D01*
X71453618Y2132956D02*
X71548856Y2228195D01*
X71548856Y2228195D02*
X71596475Y2323433D01*
X71596475Y2323433D02*
X71644094Y2513909D01*
X71644094Y2513909D02*
X71644094Y2656766D01*
X71644094Y2656766D02*
X71596475Y2847242D01*
X71596475Y2847242D02*
X71548856Y2942480D01*
X71548856Y2942480D02*
X71453618Y3037718D01*
X71453618Y3037718D02*
X71310761Y3085337D01*
X71310761Y3085337D02*
X71215523Y3085337D01*
X71215523Y3085337D02*
X71072666Y3037718D01*
X71072666Y3037718D02*
X71025047Y2990099D01*
X70310761Y3085337D02*
X70310761Y2371052D01*
X70310761Y2371052D02*
X70358380Y2228195D01*
X70358380Y2228195D02*
X70453618Y2132956D01*
X70453618Y2132956D02*
X70596475Y2085337D01*
X70596475Y2085337D02*
X70691713Y2085337D01*
X69358380Y2085337D02*
X69834570Y2085337D01*
X69834570Y2085337D02*
X69834570Y3085337D01*
X68453618Y2180576D02*
X68501237Y2132956D01*
X68501237Y2132956D02*
X68644094Y2085337D01*
X68644094Y2085337D02*
X68739332Y2085337D01*
X68739332Y2085337D02*
X68882189Y2132956D01*
X68882189Y2132956D02*
X68977427Y2228195D01*
X68977427Y2228195D02*
X69025046Y2323433D01*
X69025046Y2323433D02*
X69072665Y2513909D01*
X69072665Y2513909D02*
X69072665Y2656766D01*
X69072665Y2656766D02*
X69025046Y2847242D01*
X69025046Y2847242D02*
X68977427Y2942480D01*
X68977427Y2942480D02*
X68882189Y3037718D01*
X68882189Y3037718D02*
X68739332Y3085337D01*
X68739332Y3085337D02*
X68644094Y3085337D01*
X68644094Y3085337D02*
X68501237Y3037718D01*
X68501237Y3037718D02*
X68453618Y2990099D01*
%LPC*%
D11*
%TO.C,J302*%
X4562000Y36830000D03*
D12*
X4562000Y34290000D03*
X4562000Y31750000D03*
%TD*%
D13*
%TO.C,J102*%
X30226000Y51562000D03*
D14*
X28226000Y51562000D03*
X26226000Y51562000D03*
X24226000Y51562000D03*
%TD*%
D15*
%TO.C,H102*%
X94062000Y68017000D03*
%TD*%
D11*
%TO.C,J301*%
X4562000Y47371000D03*
D12*
X4562000Y44831000D03*
X4562000Y42291000D03*
%TD*%
D16*
%TO.C,J101*%
X76262000Y67129500D03*
D17*
X71762000Y69079500D03*
D16*
X67262000Y67129500D03*
D18*
X71762000Y60079500D03*
D19*
X71762000Y66079500D03*
%TD*%
D15*
%TO.C,H101*%
X4062000Y68017000D03*
%TD*%
D20*
%TO.C,J401*%
X22942000Y13335000D03*
D21*
X26942000Y13335000D03*
X30942000Y13335000D03*
X34942000Y13335000D03*
X41442000Y13335000D03*
X45442000Y13335000D03*
X49442000Y13335000D03*
%TD*%
D22*
%TO.C,OLED101*%
X72390000Y30480000D03*
D23*
X72390000Y32480000D03*
X72390000Y34480000D03*
X72390000Y36480000D03*
%TD*%
D24*
%TO.C,J103*%
X47117000Y22606000D03*
X52197000Y23621000D03*
X52197000Y21591000D03*
%TD*%
D25*
%TO.C,OLED102*%
X16320000Y21209000D03*
D14*
X18320000Y21209000D03*
X20320000Y21209000D03*
X22320000Y21209000D03*
X24320000Y21209000D03*
X26320000Y21209000D03*
X28320000Y21209000D03*
%TD*%
D26*
%TO.C,J402*%
X49982000Y59055000D03*
D21*
X45982000Y59055000D03*
X41982000Y59055000D03*
X37982000Y59055000D03*
X31482000Y59055000D03*
X27482000Y59055000D03*
X23482000Y59055000D03*
%TD*%
D27*
%TO.C,J501*%
X85762000Y21154000D03*
D28*
X85762000Y23654000D03*
X85762000Y25654000D03*
X85762000Y28154000D03*
D29*
X88472000Y18084000D03*
X88472000Y31224000D03*
%TD*%
D15*
%TO.C,H103*%
X94062000Y4017000D03*
%TD*%
%TO.C,H104*%
X4062000Y4017000D03*
%TD*%
%LPD*%
M02*
