%TF.GenerationSoftware,KiCad,Pcbnew,8.0.0*%
%TF.CreationDate,2024-03-12T18:48:30-04:00*%
%TF.ProjectId,stm32-snake-controller,73746d33-322d-4736-9e61-6b652d636f6e,C*%
%TF.SameCoordinates,Original*%
%TF.FileFunction,Copper,L2,Inr*%
%TF.FilePolarity,Positive*%
%FSLAX46Y46*%
G04 Gerber Fmt 4.6, Leading zero omitted, Abs format (unit mm)*
G04 Created by KiCad (PCBNEW 8.0.0) date 2024-03-12 18:48:30*
%MOMM*%
%LPD*%
G01*
G04 APERTURE LIST*
G04 Aperture macros list*
%AMRoundRect*
0 Rectangle with rounded corners*
0 $1 Rounding radius*
0 $2 $3 $4 $5 $6 $7 $8 $9 X,Y pos of 4 corners*
0 Add a 4 corners polygon primitive as box body*
4,1,4,$2,$3,$4,$5,$6,$7,$8,$9,$2,$3,0*
0 Add four circle primitives for the rounded corners*
1,1,$1+$1,$2,$3*
1,1,$1+$1,$4,$5*
1,1,$1+$1,$6,$7*
1,1,$1+$1,$8,$9*
0 Add four rect primitives between the rounded corners*
20,1,$1+$1,$2,$3,$4,$5,0*
20,1,$1+$1,$4,$5,$6,$7,0*
20,1,$1+$1,$6,$7,$8,$9,0*
20,1,$1+$1,$8,$9,$2,$3,0*%
G04 Aperture macros list end*
%TA.AperFunction,ComponentPad*%
%ADD10R,1.650000X1.650000*%
%TD*%
%TA.AperFunction,ComponentPad*%
%ADD11C,1.650000*%
%TD*%
%TA.AperFunction,ComponentPad*%
%ADD12RoundRect,0.250000X0.350000X0.625000X-0.350000X0.625000X-0.350000X-0.625000X0.350000X-0.625000X0*%
%TD*%
%TA.AperFunction,ComponentPad*%
%ADD13O,1.200000X1.750000*%
%TD*%
%TA.AperFunction,ComponentPad*%
%ADD14O,2.000000X3.300000*%
%TD*%
%TA.AperFunction,ComponentPad*%
%ADD15R,4.000000X2.000000*%
%TD*%
%TA.AperFunction,ComponentPad*%
%ADD16O,3.400000X2.000000*%
%TD*%
%TA.AperFunction,ComponentPad*%
%ADD17RoundRect,0.687500X-0.687500X-0.687500X0.687500X-0.687500X0.687500X0.687500X-0.687500X0.687500X0*%
%TD*%
%TA.AperFunction,ComponentPad*%
%ADD18C,2.750000*%
%TD*%
%TA.AperFunction,ComponentPad*%
%ADD19RoundRect,0.800000X0.800000X0.800000X-0.800000X0.800000X-0.800000X-0.800000X0.800000X-0.800000X0*%
%TD*%
%TA.AperFunction,ComponentPad*%
%ADD20C,3.200000*%
%TD*%
%TA.AperFunction,ComponentPad*%
%ADD21R,1.500000X1.500000*%
%TD*%
%TA.AperFunction,ComponentPad*%
%ADD22C,1.500000*%
%TD*%
%TA.AperFunction,ComponentPad*%
%ADD23C,2.300000*%
%TD*%
%TA.AperFunction,ComponentPad*%
%ADD24RoundRect,0.250000X-0.625000X0.350000X-0.625000X-0.350000X0.625000X-0.350000X0.625000X0.350000X0*%
%TD*%
%TA.AperFunction,ComponentPad*%
%ADD25O,1.750000X1.200000*%
%TD*%
%TA.AperFunction,ComponentPad*%
%ADD26RoundRect,0.687500X0.687500X0.687500X-0.687500X0.687500X-0.687500X-0.687500X0.687500X-0.687500X0*%
%TD*%
%TA.AperFunction,ComponentPad*%
%ADD27R,1.524000X1.524000*%
%TD*%
%TA.AperFunction,ComponentPad*%
%ADD28C,1.524000*%
%TD*%
%TA.AperFunction,ComponentPad*%
%ADD29C,3.500000*%
%TD*%
%TA.AperFunction,ViaPad*%
%ADD30C,0.800000*%
%TD*%
%TA.AperFunction,ViaPad*%
%ADD31C,1.200000*%
%TD*%
G04 APERTURE END LIST*
D10*
%TO.N,GND*%
%TO.C,J302*%
X6450000Y39838000D03*
D11*
%TO.N,Net-(J302-Pin_2)*%
X6450000Y37298000D03*
%TO.N,VBUS*%
X6450000Y34758000D03*
%TD*%
D12*
%TO.N,+5V*%
%TO.C,J103*%
X32114000Y51595000D03*
D13*
%TO.N,/UART_TX*%
X30114000Y51595000D03*
%TO.N,/UART_RX*%
X28114000Y51595000D03*
%TO.N,GND*%
X26114000Y51595000D03*
%TD*%
D10*
%TO.N,GND*%
%TO.C,J301*%
X6450000Y50252000D03*
D11*
%TO.N,Net-(J301-Pin_2)*%
X6450000Y47712000D03*
%TO.N,VBUS*%
X6450000Y45172000D03*
%TD*%
D14*
%TO.N,*%
%TO.C,J101*%
X76365000Y67162500D03*
X67365000Y67162500D03*
D15*
%TO.N,Net-(SW101-A)*%
X71865000Y60112500D03*
D16*
%TO.N,GND*%
X71865000Y66112500D03*
%TD*%
D17*
%TO.N,+3V3*%
%TO.C,J401*%
X24830000Y12827000D03*
D18*
%TO.N,/SNES_CLK*%
X28830000Y12827000D03*
%TO.N,/SNES_LATCH*%
X32830000Y12827000D03*
%TO.N,/SNES_DATA0*%
X36830000Y12827000D03*
%TO.N,unconnected-(J401-Pin_5-Pad5)*%
X43330000Y12827000D03*
%TO.N,unconnected-(J401-Pin_6-Pad6)*%
X47330000Y12827000D03*
%TO.N,GND*%
X51330000Y12827000D03*
%TD*%
D19*
%TO.N,Net-(SW101-A)*%
%TO.C,SW101*%
X80500000Y61247000D03*
D20*
%TO.N,VBUS*%
X85200000Y61247000D03*
%TO.N,unconnected-(SW101-C-Pad3)*%
X89900000Y61247000D03*
%TD*%
D21*
%TO.N,/scoreboard/SDA_N*%
%TO.C,J601*%
X8111000Y13825200D03*
D22*
%TO.N,/scoreboard/SDA_P*%
X9891000Y14841200D03*
%TO.N,/scoreboard/SCL_P*%
X8111000Y15857200D03*
%TO.N,GND*%
X9891000Y16873200D03*
X8111000Y17889200D03*
%TO.N,/scoreboard/SCL_N*%
X9891000Y18905200D03*
%TO.N,GND*%
X8111000Y19921200D03*
%TO.N,/SB_LINK*%
X9891000Y20937200D03*
%TO.N,/I2C_LED*%
X14711000Y10525200D03*
%TO.N,Net-(J601-Pad10)*%
X14711000Y12815200D03*
%TO.N,/SB_LINK*%
X14711000Y21955200D03*
%TO.N,Net-(J601-Pad12)*%
X14711000Y24245200D03*
D23*
%TO.N,GND*%
X9001000Y9255200D03*
X9001000Y25515200D03*
%TD*%
D24*
%TO.N,GND*%
%TO.C,OLED101*%
X25103600Y41910000D03*
D25*
%TO.N,+3V3*%
X25103600Y39910000D03*
%TO.N,Net-(OLED101-SCLK)*%
X25103600Y37910000D03*
%TO.N,Net-(OLED101-MOSI)*%
X25103600Y35910000D03*
%TO.N,/OLED_RST*%
X25103600Y33910000D03*
%TO.N,/OLED_CE*%
X25103600Y31910000D03*
%TO.N,/OLED_DC*%
X25103600Y29910000D03*
%TD*%
D26*
%TO.N,+3V3*%
%TO.C,J402*%
X51870000Y59309000D03*
D18*
%TO.N,/SNES_CLK*%
X47870000Y59309000D03*
%TO.N,/SNES_LATCH*%
X43870000Y59309000D03*
%TO.N,/SNES_DATA1*%
X39870000Y59309000D03*
%TO.N,unconnected-(J402-Pin_5-Pad5)*%
X33370000Y59309000D03*
%TO.N,unconnected-(J402-Pin_6-Pad6)*%
X29370000Y59309000D03*
%TO.N,GND*%
X25370000Y59309000D03*
%TD*%
D27*
%TO.N,/USB_OTG_VSEN*%
%TO.C,J501*%
X87650000Y21187000D03*
D28*
%TO.N,/USB_D_N*%
X87650000Y23687000D03*
%TO.N,/USB_D_P*%
X87650000Y25687000D03*
%TO.N,GND*%
X87650000Y28187000D03*
D29*
X90360000Y18117000D03*
X90360000Y31257000D03*
%TD*%
D22*
%TO.N,*%
%TO.C,BT101*%
X65933000Y47531000D03*
X73433000Y47531000D03*
%TD*%
D30*
%TO.N,GND*%
X19160000Y39022000D03*
X29159200Y23114000D03*
X19050000Y20701000D03*
X40284400Y32258000D03*
X30971000Y31275000D03*
X39370000Y19202400D03*
X81644000Y47150000D03*
X69325000Y9558000D03*
X83168000Y18575000D03*
X39136252Y33556913D03*
X57260000Y40800000D03*
X61705000Y22131000D03*
X77834000Y26957000D03*
X33020000Y20523200D03*
X83041000Y47531000D03*
X52053000Y42451000D03*
X45254200Y29556200D03*
X47735000Y45880000D03*
X31851600Y24384000D03*
X89560400Y54254400D03*
X75294000Y9431000D03*
X68122800Y34671000D03*
X30971000Y28227000D03*
X35416000Y42832000D03*
X57260000Y37498000D03*
X57260000Y39149000D03*
X52815000Y37879000D03*
X68122800Y32131000D03*
X65388000Y2700000D03*
X78850000Y20988000D03*
X62975000Y15654000D03*
X65388000Y69629000D03*
X85200000Y39784000D03*
X39988000Y42197000D03*
X82660000Y39784000D03*
X45703000Y35884500D03*
X19083800Y35212000D03*
X45068000Y50579000D03*
X42401000Y48674000D03*
X52053000Y45118000D03*
X27686000Y16752800D03*
X38214653Y36232653D03*
X52815000Y20988000D03*
X41046400Y31191200D03*
X19160000Y40988000D03*
X19083800Y33307000D03*
X30971000Y29751000D03*
X68122800Y35941000D03*
X49513000Y26449000D03*
X63610000Y29370000D03*
X19710400Y26720800D03*
X31151000Y39108000D03*
X13335000Y17018000D03*
X43798000Y49055000D03*
X68122800Y33401000D03*
X77199000Y7018000D03*
X63610000Y27338000D03*
X38057600Y30690800D03*
%TO.N,/NRST*%
X45449000Y22766000D03*
X61832000Y15654000D03*
X42782000Y37879000D03*
X61780404Y21133844D03*
%TO.N,+3V3*%
X74930000Y12395200D03*
X29210000Y21132800D03*
X61341000Y38862000D03*
X80120000Y43975000D03*
X33765000Y27084000D03*
X81263000Y42705000D03*
X74930000Y22148800D03*
X55101000Y49563000D03*
X80120000Y42705000D03*
X50148000Y36736000D03*
X24993600Y17780000D03*
X59181158Y32164000D03*
X45770000Y26449000D03*
X32762000Y39148000D03*
X78977000Y42705000D03*
X15849600Y28143200D03*
X15621000Y6731000D03*
X56625000Y29370000D03*
X78977000Y43975000D03*
X66090800Y38862000D03*
X81263000Y43975000D03*
X35162000Y44737000D03*
%TO.N,/VBAT*%
X45770000Y37879000D03*
X53577000Y39149000D03*
%TO.N,+5V*%
X80882000Y13876000D03*
X15477000Y37879000D03*
D31*
X90661000Y51468000D03*
X90661000Y49563000D03*
X85073000Y49817000D03*
D30*
X80882000Y15019000D03*
X15477000Y32291000D03*
%TO.N,/LED_HB*%
X52578000Y33782000D03*
X56692800Y27465000D03*
%TO.N,VBUS*%
X86089000Y56421000D03*
X84438000Y58072000D03*
X84438000Y56421000D03*
X86089000Y58072000D03*
%TO.N,/SNES_CLK*%
X36714600Y24079200D03*
X38506400Y24314905D03*
%TO.N,/SNES_LATCH*%
X38337000Y25941000D03*
%TO.N,Net-(SW101-A)*%
X67922000Y62517000D03*
X73922000Y62517000D03*
X75922000Y60050000D03*
X69922000Y62517000D03*
X75922000Y62517000D03*
X71922000Y62517000D03*
X67921000Y60050000D03*
%TO.N,/LED_GRID0*%
X38311600Y35110400D03*
X20303000Y39911000D03*
%TO.N,/LED_GRID1*%
X38210000Y33180000D03*
X20303000Y34323000D03*
%TO.N,GND*%
X11887200Y12293600D03*
%TO.N,/SB_LINK*%
X39573200Y21437600D03*
%TO.N,/SB_EN*%
X39420800Y22910800D03*
X33934400Y22098000D03*
%TO.N,/SB_SCL*%
X32562800Y23622000D03*
X39268400Y31750000D03*
%TO.N,/SB_SDA*%
X32308800Y21373000D03*
X40386000Y30378400D03*
%TD*%
%TA.AperFunction,Conductor*%
%TO.N,GND*%
G36*
X96953472Y71749305D02*
G01*
X97245306Y71732916D01*
X97259103Y71731362D01*
X97543827Y71682985D01*
X97557384Y71679891D01*
X97834899Y71599940D01*
X97848025Y71595347D01*
X98114841Y71484828D01*
X98127355Y71478802D01*
X98293444Y71387008D01*
X98380125Y71339101D01*
X98391899Y71331703D01*
X98627430Y71164585D01*
X98638302Y71155915D01*
X98853642Y70963476D01*
X98863475Y70953643D01*
X99055914Y70738303D01*
X99064584Y70727431D01*
X99231702Y70491900D01*
X99239100Y70480126D01*
X99378797Y70227363D01*
X99384830Y70214835D01*
X99495346Y69948025D01*
X99499939Y69934900D01*
X99579890Y69657385D01*
X99582984Y69643828D01*
X99631359Y69359115D01*
X99632916Y69345297D01*
X99649305Y69053473D01*
X99649500Y69046520D01*
X99649500Y3053481D01*
X99649305Y3046528D01*
X99632916Y2754704D01*
X99631359Y2740886D01*
X99582984Y2456173D01*
X99579890Y2442616D01*
X99499939Y2165101D01*
X99495346Y2151976D01*
X99384830Y1885166D01*
X99378797Y1872638D01*
X99239100Y1619875D01*
X99231702Y1608101D01*
X99064584Y1372570D01*
X99055914Y1361698D01*
X98863475Y1146358D01*
X98853642Y1136525D01*
X98638302Y944086D01*
X98627430Y935416D01*
X98391899Y768298D01*
X98380125Y760900D01*
X98127362Y621203D01*
X98114834Y615170D01*
X97848024Y504654D01*
X97834899Y500061D01*
X97557384Y420110D01*
X97543827Y417016D01*
X97259114Y368641D01*
X97245296Y367084D01*
X96953472Y350695D01*
X96946519Y350500D01*
X2953481Y350500D01*
X2946528Y350695D01*
X2654703Y367084D01*
X2640885Y368641D01*
X2356172Y417016D01*
X2342615Y420110D01*
X2065100Y500061D01*
X2051975Y504654D01*
X1785165Y615170D01*
X1772637Y621203D01*
X1519874Y760900D01*
X1508100Y768298D01*
X1272569Y935416D01*
X1261697Y944086D01*
X1046357Y1136525D01*
X1036524Y1146358D01*
X844085Y1361698D01*
X835415Y1372570D01*
X668297Y1608101D01*
X660899Y1619875D01*
X521202Y1872638D01*
X515172Y1885159D01*
X404653Y2151976D01*
X400060Y2165101D01*
X320109Y2442616D01*
X317015Y2456173D01*
X283107Y2655740D01*
X268638Y2740897D01*
X267084Y2754694D01*
X250695Y3046528D01*
X250500Y3053481D01*
X250500Y3928712D01*
X2099500Y3928712D01*
X2131161Y3688215D01*
X2193947Y3453896D01*
X2286773Y3229795D01*
X2286776Y3229788D01*
X2408064Y3019711D01*
X2408066Y3019708D01*
X2408067Y3019707D01*
X2555733Y2827264D01*
X2555739Y2827257D01*
X2727256Y2655740D01*
X2727262Y2655735D01*
X2919711Y2508064D01*
X3129788Y2386776D01*
X3353900Y2293946D01*
X3588211Y2231162D01*
X3768586Y2207416D01*
X3828711Y2199500D01*
X3828712Y2199500D01*
X4071289Y2199500D01*
X4119388Y2205833D01*
X4311789Y2231162D01*
X4546100Y2293946D01*
X4770212Y2386776D01*
X4980289Y2508064D01*
X5172738Y2655735D01*
X5344265Y2827262D01*
X5491936Y3019711D01*
X5613224Y3229788D01*
X5706054Y3453900D01*
X5768838Y3688211D01*
X5800500Y3928712D01*
X94099500Y3928712D01*
X94131161Y3688215D01*
X94193947Y3453896D01*
X94286773Y3229795D01*
X94286776Y3229788D01*
X94408064Y3019711D01*
X94408066Y3019708D01*
X94408067Y3019707D01*
X94555733Y2827264D01*
X94555739Y2827257D01*
X94727256Y2655740D01*
X94727262Y2655735D01*
X94919711Y2508064D01*
X95129788Y2386776D01*
X95353900Y2293946D01*
X95588211Y2231162D01*
X95768586Y2207416D01*
X95828711Y2199500D01*
X95828712Y2199500D01*
X96071289Y2199500D01*
X96119388Y2205833D01*
X96311789Y2231162D01*
X96546100Y2293946D01*
X96770212Y2386776D01*
X96980289Y2508064D01*
X97172738Y2655735D01*
X97344265Y2827262D01*
X97491936Y3019711D01*
X97613224Y3229788D01*
X97706054Y3453900D01*
X97768838Y3688211D01*
X97800500Y3928712D01*
X97800500Y4171288D01*
X97768838Y4411789D01*
X97706054Y4646100D01*
X97613224Y4870212D01*
X97491936Y5080289D01*
X97344265Y5272738D01*
X97344260Y5272744D01*
X97172743Y5444261D01*
X97172736Y5444267D01*
X96980293Y5591933D01*
X96980292Y5591934D01*
X96980289Y5591936D01*
X96770212Y5713224D01*
X96770205Y5713227D01*
X96546104Y5806053D01*
X96311785Y5868839D01*
X96071289Y5900500D01*
X96071288Y5900500D01*
X95828712Y5900500D01*
X95828711Y5900500D01*
X95588214Y5868839D01*
X95353895Y5806053D01*
X95129794Y5713227D01*
X95129785Y5713223D01*
X94919706Y5591933D01*
X94727263Y5444267D01*
X94727256Y5444261D01*
X94555739Y5272744D01*
X94555733Y5272737D01*
X94408067Y5080294D01*
X94286777Y4870215D01*
X94286773Y4870206D01*
X94193947Y4646105D01*
X94131161Y4411786D01*
X94099500Y4171289D01*
X94099500Y3928712D01*
X5800500Y3928712D01*
X5800500Y4171288D01*
X5768838Y4411789D01*
X5706054Y4646100D01*
X5613224Y4870212D01*
X5491936Y5080289D01*
X5344265Y5272738D01*
X5344260Y5272744D01*
X5172743Y5444261D01*
X5172736Y5444267D01*
X4980293Y5591933D01*
X4980292Y5591934D01*
X4980289Y5591936D01*
X4770212Y5713224D01*
X4770205Y5713227D01*
X4546104Y5806053D01*
X4311785Y5868839D01*
X4071289Y5900500D01*
X4071288Y5900500D01*
X3828712Y5900500D01*
X3828711Y5900500D01*
X3588214Y5868839D01*
X3353895Y5806053D01*
X3129794Y5713227D01*
X3129785Y5713223D01*
X2919706Y5591933D01*
X2727263Y5444267D01*
X2727256Y5444261D01*
X2555739Y5272744D01*
X2555733Y5272737D01*
X2408067Y5080294D01*
X2286777Y4870215D01*
X2286773Y4870206D01*
X2193947Y4646105D01*
X2131161Y4411786D01*
X2099500Y4171289D01*
X2099500Y3928712D01*
X250500Y3928712D01*
X250500Y6730999D01*
X15015318Y6730999D01*
X15035955Y6574240D01*
X15035956Y6574238D01*
X15096464Y6428159D01*
X15192718Y6302718D01*
X15318159Y6206464D01*
X15464238Y6145956D01*
X15542619Y6135637D01*
X15620999Y6125318D01*
X15621000Y6125318D01*
X15621001Y6125318D01*
X15673254Y6132198D01*
X15777762Y6145956D01*
X15923841Y6206464D01*
X16049282Y6302718D01*
X16145536Y6428159D01*
X16206044Y6574238D01*
X16226682Y6731000D01*
X16206044Y6887762D01*
X16145536Y7033841D01*
X16049282Y7159282D01*
X15923841Y7255536D01*
X15777762Y7316044D01*
X15777760Y7316045D01*
X15621001Y7336682D01*
X15620999Y7336682D01*
X15464239Y7316045D01*
X15464237Y7316044D01*
X15318160Y7255537D01*
X15192718Y7159282D01*
X15096463Y7033840D01*
X15035956Y6887763D01*
X15035955Y6887761D01*
X15015318Y6731002D01*
X15015318Y6730999D01*
X250500Y6730999D01*
X250500Y10912266D01*
X3695500Y10912266D01*
X3719509Y10729910D01*
X3727591Y10668523D01*
X3747504Y10594207D01*
X3791222Y10431048D01*
X3791225Y10431038D01*
X3872491Y10234846D01*
X3885306Y10203908D01*
X4008233Y9990992D01*
X4008235Y9990989D01*
X4008236Y9990988D01*
X4157897Y9795946D01*
X4157903Y9795939D01*
X4331738Y9622104D01*
X4331744Y9622099D01*
X4526792Y9472433D01*
X4739708Y9349506D01*
X4966847Y9255422D01*
X5204323Y9191791D01*
X5448073Y9159700D01*
X5448080Y9159700D01*
X5693920Y9159700D01*
X5693927Y9159700D01*
X5937677Y9191791D01*
X6174324Y9255200D01*
X7345898Y9255200D01*
X7366274Y8996288D01*
X7426901Y8743755D01*
X7426906Y8743738D01*
X7526290Y8503803D01*
X7526292Y8503800D01*
X7661992Y8282358D01*
X7661993Y8282357D01*
X7667801Y8275556D01*
X8296633Y8904389D01*
X8305342Y8883363D01*
X8391251Y8754792D01*
X8500592Y8645451D01*
X8629163Y8559542D01*
X8650186Y8550834D01*
X8021354Y7922003D01*
X8028157Y7916193D01*
X8249599Y7780493D01*
X8249602Y7780491D01*
X8489537Y7681107D01*
X8489554Y7681102D01*
X8742088Y7620475D01*
X8742087Y7620475D01*
X9001000Y7600099D01*
X9259912Y7620475D01*
X9512445Y7681102D01*
X9512462Y7681107D01*
X9752397Y7780491D01*
X9752400Y7780493D01*
X9973844Y7916195D01*
X9980644Y7922003D01*
X9351813Y8550834D01*
X9372837Y8559542D01*
X9501408Y8645451D01*
X9610749Y8754792D01*
X9696658Y8883363D01*
X9705366Y8904387D01*
X10334197Y8275556D01*
X10340005Y8282356D01*
X10475707Y8503800D01*
X10475709Y8503803D01*
X10575093Y8743738D01*
X10575098Y8743755D01*
X10635725Y8996288D01*
X10656101Y9255200D01*
X10635725Y9514113D01*
X10575098Y9766646D01*
X10575093Y9766663D01*
X10475709Y10006598D01*
X10475707Y10006601D01*
X10340007Y10228043D01*
X10334197Y10234846D01*
X9705365Y9606015D01*
X9696658Y9627037D01*
X9610749Y9755608D01*
X9501408Y9864949D01*
X9372837Y9950858D01*
X9351813Y9959567D01*
X9917446Y10525200D01*
X13755901Y10525200D01*
X13774252Y10338869D01*
X13774253Y10338867D01*
X13828604Y10159698D01*
X13916862Y9994577D01*
X13916864Y9994574D01*
X14035642Y9849843D01*
X14180373Y9731065D01*
X14180376Y9731063D01*
X14345497Y9642805D01*
X14345499Y9642804D01*
X14524666Y9588454D01*
X14524668Y9588453D01*
X14541374Y9586808D01*
X14711000Y9570101D01*
X14897331Y9588453D01*
X15076501Y9642804D01*
X15241625Y9731064D01*
X15386357Y9849843D01*
X15505136Y9994575D01*
X15593396Y10159699D01*
X15647747Y10338869D01*
X15666099Y10525200D01*
X15647747Y10711531D01*
X15593396Y10890701D01*
X15552963Y10966347D01*
X15505137Y11055824D01*
X15505135Y11055827D01*
X15386357Y11200558D01*
X15241626Y11319336D01*
X15241623Y11319338D01*
X15076502Y11407596D01*
X14897333Y11461947D01*
X14897331Y11461948D01*
X14711000Y11480299D01*
X14524668Y11461948D01*
X14524666Y11461947D01*
X14345497Y11407596D01*
X14180376Y11319338D01*
X14180373Y11319336D01*
X14035642Y11200558D01*
X13916864Y11055827D01*
X13916862Y11055824D01*
X13828604Y10890703D01*
X13774253Y10711534D01*
X13774252Y10711532D01*
X13755901Y10525200D01*
X9917446Y10525200D01*
X9980645Y10588399D01*
X9973843Y10594207D01*
X9973842Y10594208D01*
X9752400Y10729908D01*
X9752397Y10729910D01*
X9512462Y10829294D01*
X9512445Y10829299D01*
X9259911Y10889926D01*
X9259912Y10889926D01*
X9001000Y10910302D01*
X8742087Y10889926D01*
X8489554Y10829299D01*
X8489537Y10829294D01*
X8249602Y10729910D01*
X8249599Y10729908D01*
X8028155Y10594207D01*
X8021353Y10588400D01*
X8650186Y9959567D01*
X8629163Y9950858D01*
X8500592Y9864949D01*
X8391251Y9755608D01*
X8305342Y9627037D01*
X8296633Y9606014D01*
X7667800Y10234847D01*
X7661993Y10228045D01*
X7526292Y10006601D01*
X7526290Y10006598D01*
X7426906Y9766663D01*
X7426901Y9766646D01*
X7366274Y9514113D01*
X7345898Y9255200D01*
X6174324Y9255200D01*
X6175153Y9255422D01*
X6402292Y9349506D01*
X6615208Y9472433D01*
X6810256Y9622099D01*
X6984101Y9795944D01*
X7133767Y9990992D01*
X7256694Y10203908D01*
X7350778Y10431047D01*
X7414409Y10668523D01*
X7446500Y10912273D01*
X7446500Y11158127D01*
X7414409Y11401877D01*
X7350778Y11639353D01*
X7256694Y11866492D01*
X7133767Y12079408D01*
X7011737Y12238440D01*
X6984102Y12274455D01*
X6984096Y12274462D01*
X6810261Y12448297D01*
X6810254Y12448303D01*
X6615212Y12597964D01*
X6615211Y12597965D01*
X6615208Y12597967D01*
X6402292Y12720894D01*
X6402285Y12720897D01*
X6175162Y12814975D01*
X6175155Y12814977D01*
X6175153Y12814978D01*
X6174324Y12815200D01*
X13755901Y12815200D01*
X13774252Y12628869D01*
X13774253Y12628867D01*
X13828604Y12449698D01*
X13916862Y12284577D01*
X13916864Y12284574D01*
X14035642Y12139843D01*
X14180373Y12021065D01*
X14180376Y12021063D01*
X14345497Y11932805D01*
X14345499Y11932804D01*
X14524666Y11878454D01*
X14524668Y11878453D01*
X14541374Y11876808D01*
X14711000Y11860101D01*
X14897331Y11878453D01*
X15076501Y11932804D01*
X15241625Y12021064D01*
X15310208Y12077349D01*
X23254500Y12077349D01*
X23260601Y11999823D01*
X23308914Y11819516D01*
X23393656Y11653201D01*
X23393659Y11653197D01*
X23511131Y11508131D01*
X23642344Y11401877D01*
X23656196Y11390660D01*
X23656200Y11390657D01*
X23737709Y11349126D01*
X23822516Y11305914D01*
X24002821Y11257602D01*
X24080354Y11251500D01*
X24080362Y11251500D01*
X25579638Y11251500D01*
X25579646Y11251500D01*
X25657179Y11257602D01*
X25837484Y11305914D01*
X26003803Y11390659D01*
X26148869Y11508131D01*
X26266341Y11653197D01*
X26351086Y11819516D01*
X26399398Y11999821D01*
X26405500Y12077354D01*
X26405500Y12827000D01*
X27249628Y12827000D01*
X27269085Y12579772D01*
X27326976Y12338638D01*
X27421877Y12109526D01*
X27551450Y11898084D01*
X27551453Y11898079D01*
X27618553Y11819516D01*
X27712508Y11709508D01*
X27833213Y11606417D01*
X27901078Y11548454D01*
X27901083Y11548451D01*
X28112525Y11418878D01*
X28341637Y11323977D01*
X28548567Y11274298D01*
X28582775Y11266085D01*
X28830000Y11246628D01*
X29077225Y11266085D01*
X29318362Y11323977D01*
X29547474Y11418878D01*
X29758919Y11548452D01*
X29947492Y11709508D01*
X30108548Y11898081D01*
X30238122Y12109526D01*
X30333023Y12338638D01*
X30390915Y12579775D01*
X30410372Y12827000D01*
X31249628Y12827000D01*
X31269085Y12579772D01*
X31326976Y12338638D01*
X31421877Y12109526D01*
X31551450Y11898084D01*
X31551453Y11898079D01*
X31618553Y11819516D01*
X31712508Y11709508D01*
X31833213Y11606417D01*
X31901078Y11548454D01*
X31901083Y11548451D01*
X32112525Y11418878D01*
X32341637Y11323977D01*
X32548567Y11274298D01*
X32582775Y11266085D01*
X32830000Y11246628D01*
X33077225Y11266085D01*
X33318362Y11323977D01*
X33547474Y11418878D01*
X33758919Y11548452D01*
X33947492Y11709508D01*
X34108548Y11898081D01*
X34238122Y12109526D01*
X34333023Y12338638D01*
X34390915Y12579775D01*
X34410372Y12827000D01*
X35249628Y12827000D01*
X35269085Y12579772D01*
X35326976Y12338638D01*
X35421877Y12109526D01*
X35551450Y11898084D01*
X35551453Y11898079D01*
X35618553Y11819516D01*
X35712508Y11709508D01*
X35833213Y11606417D01*
X35901078Y11548454D01*
X35901083Y11548451D01*
X36112525Y11418878D01*
X36341637Y11323977D01*
X36548567Y11274298D01*
X36582775Y11266085D01*
X36830000Y11246628D01*
X37077225Y11266085D01*
X37318362Y11323977D01*
X37547474Y11418878D01*
X37758919Y11548452D01*
X37947492Y11709508D01*
X38108548Y11898081D01*
X38238122Y12109526D01*
X38333023Y12338638D01*
X38390915Y12579775D01*
X38410372Y12827000D01*
X41749628Y12827000D01*
X41769085Y12579772D01*
X41826976Y12338638D01*
X41921877Y12109526D01*
X42051450Y11898084D01*
X42051453Y11898079D01*
X42118553Y11819516D01*
X42212508Y11709508D01*
X42333213Y11606417D01*
X42401078Y11548454D01*
X42401083Y11548451D01*
X42612525Y11418878D01*
X42841637Y11323977D01*
X43048567Y11274298D01*
X43082775Y11266085D01*
X43330000Y11246628D01*
X43577225Y11266085D01*
X43818362Y11323977D01*
X44047474Y11418878D01*
X44258919Y11548452D01*
X44447492Y11709508D01*
X44608548Y11898081D01*
X44738122Y12109526D01*
X44833023Y12338638D01*
X44890915Y12579775D01*
X44910372Y12827000D01*
X45749628Y12827000D01*
X45769085Y12579772D01*
X45826976Y12338638D01*
X45921877Y12109526D01*
X46051450Y11898084D01*
X46051453Y11898079D01*
X46118553Y11819516D01*
X46212508Y11709508D01*
X46333213Y11606417D01*
X46401078Y11548454D01*
X46401083Y11548451D01*
X46612525Y11418878D01*
X46841637Y11323977D01*
X47048567Y11274298D01*
X47082775Y11266085D01*
X47330000Y11246628D01*
X47577225Y11266085D01*
X47818362Y11323977D01*
X48047474Y11418878D01*
X48258919Y11548452D01*
X48447492Y11709508D01*
X48608548Y11898081D01*
X48738122Y12109526D01*
X48833023Y12338638D01*
X48890915Y12579775D01*
X48910372Y12826999D01*
X49450211Y12826999D01*
X49469345Y12559477D01*
X49469346Y12559470D01*
X49526354Y12297407D01*
X49620084Y12046106D01*
X49620086Y12046102D01*
X49748617Y11810715D01*
X49748622Y11810707D01*
X49839179Y11689735D01*
X49839180Y11689735D01*
X50652421Y12502976D01*
X50665359Y12471742D01*
X50747437Y12348903D01*
X50851903Y12244437D01*
X50974742Y12162359D01*
X51005974Y12149422D01*
X50192733Y11336181D01*
X50313706Y11245623D01*
X50313714Y11245618D01*
X50549101Y11117087D01*
X50549105Y11117085D01*
X50800406Y11023355D01*
X51062469Y10966347D01*
X51062476Y10966346D01*
X51329999Y10947211D01*
X51330001Y10947211D01*
X51597523Y10966346D01*
X51597530Y10966347D01*
X51859593Y11023355D01*
X52110894Y11117085D01*
X52110898Y11117087D01*
X52346285Y11245618D01*
X52346293Y11245623D01*
X52467264Y11336181D01*
X52467265Y11336182D01*
X51654025Y12149423D01*
X51685258Y12162359D01*
X51808097Y12244437D01*
X51912563Y12348903D01*
X51994641Y12471742D01*
X52007578Y12502975D01*
X52820818Y11689735D01*
X52820819Y11689736D01*
X52911377Y11810707D01*
X52911382Y11810715D01*
X53039913Y12046102D01*
X53039915Y12046106D01*
X53133645Y12297407D01*
X53154918Y12395199D01*
X74324318Y12395199D01*
X74344955Y12238440D01*
X74344956Y12238438D01*
X74405464Y12092359D01*
X74501718Y11966918D01*
X74627159Y11870664D01*
X74773238Y11810156D01*
X74851619Y11799837D01*
X74929999Y11789518D01*
X74930000Y11789518D01*
X74930001Y11789518D01*
X74982254Y11796398D01*
X75086762Y11810156D01*
X75232841Y11870664D01*
X75358282Y11966918D01*
X75454536Y12092359D01*
X75515044Y12238438D01*
X75535682Y12395200D01*
X75515044Y12551962D01*
X75454536Y12698041D01*
X75358282Y12823482D01*
X75232841Y12919736D01*
X75086762Y12980244D01*
X75086760Y12980245D01*
X74930001Y13000882D01*
X74929999Y13000882D01*
X74773239Y12980245D01*
X74773237Y12980244D01*
X74627160Y12919737D01*
X74501718Y12823482D01*
X74405463Y12698040D01*
X74344956Y12551963D01*
X74344955Y12551961D01*
X74324318Y12395202D01*
X74324318Y12395199D01*
X53154918Y12395199D01*
X53190653Y12559470D01*
X53190654Y12559477D01*
X53209789Y12826999D01*
X53209789Y12827002D01*
X53190654Y13094524D01*
X53190653Y13094531D01*
X53133645Y13356594D01*
X53039915Y13607895D01*
X53039913Y13607899D01*
X52911382Y13843286D01*
X52911377Y13843294D01*
X52886895Y13875999D01*
X80276318Y13875999D01*
X80296955Y13719240D01*
X80296956Y13719238D01*
X80356022Y13576639D01*
X80357464Y13573159D01*
X80453718Y13447718D01*
X80579159Y13351464D01*
X80725238Y13290956D01*
X80803619Y13280637D01*
X80881999Y13270318D01*
X80882000Y13270318D01*
X80882001Y13270318D01*
X80934254Y13277198D01*
X81038762Y13290956D01*
X81184841Y13351464D01*
X81310282Y13447718D01*
X81406536Y13573159D01*
X81467044Y13719238D01*
X81482216Y13834484D01*
X81487682Y13875999D01*
X81487682Y13876002D01*
X81467044Y14032761D01*
X81467044Y14032762D01*
X81406536Y14178841D01*
X81310282Y14304282D01*
X81310280Y14304283D01*
X81310280Y14304284D01*
X81281077Y14326692D01*
X81251841Y14349126D01*
X81210639Y14405552D01*
X81206484Y14475298D01*
X81240696Y14536218D01*
X81251841Y14545875D01*
X81310282Y14590718D01*
X81406536Y14716159D01*
X81467044Y14862238D01*
X81481472Y14971832D01*
X81487682Y15018999D01*
X81487682Y15019002D01*
X81467044Y15175761D01*
X81467044Y15175762D01*
X81406536Y15321841D01*
X81310282Y15447282D01*
X81184841Y15543536D01*
X81038762Y15604044D01*
X81038760Y15604045D01*
X80882001Y15624682D01*
X80881999Y15624682D01*
X80725239Y15604045D01*
X80725237Y15604044D01*
X80579160Y15543537D01*
X80453718Y15447282D01*
X80357463Y15321840D01*
X80296956Y15175763D01*
X80296955Y15175761D01*
X80276318Y15019002D01*
X80276318Y15018999D01*
X80296955Y14862240D01*
X80296956Y14862238D01*
X80336370Y14767083D01*
X80357464Y14716159D01*
X80453718Y14590718D01*
X80482952Y14568286D01*
X80512158Y14545875D01*
X80553360Y14489447D01*
X80557515Y14419701D01*
X80523302Y14358781D01*
X80512158Y14349125D01*
X80453720Y14304284D01*
X80357463Y14178840D01*
X80296956Y14032763D01*
X80296955Y14032761D01*
X80276318Y13876002D01*
X80276318Y13875999D01*
X52886895Y13875999D01*
X52820819Y13964267D01*
X52007577Y13151026D01*
X51994641Y13182258D01*
X51912563Y13305097D01*
X51808097Y13409563D01*
X51685258Y13491641D01*
X51654024Y13504579D01*
X52467265Y14317820D01*
X52467265Y14317821D01*
X52346293Y14408378D01*
X52346285Y14408383D01*
X52110898Y14536914D01*
X52110894Y14536916D01*
X51859593Y14630646D01*
X51597530Y14687654D01*
X51597523Y14687655D01*
X51330001Y14706789D01*
X51329999Y14706789D01*
X51062476Y14687655D01*
X51062469Y14687654D01*
X50800406Y14630646D01*
X50549105Y14536916D01*
X50549101Y14536914D01*
X50313709Y14408380D01*
X50192733Y14317821D01*
X51005975Y13504579D01*
X50974742Y13491641D01*
X50851903Y13409563D01*
X50747437Y13305097D01*
X50665359Y13182258D01*
X50652421Y13151025D01*
X49839179Y13964267D01*
X49748620Y13843291D01*
X49620086Y13607899D01*
X49620084Y13607895D01*
X49526354Y13356594D01*
X49469346Y13094531D01*
X49469345Y13094524D01*
X49450211Y12827002D01*
X49450211Y12826999D01*
X48910372Y12826999D01*
X48910372Y12827000D01*
X48890915Y13074225D01*
X48843837Y13270318D01*
X48833023Y13315363D01*
X48738122Y13544475D01*
X48608549Y13755917D01*
X48608546Y13755922D01*
X48541447Y13834484D01*
X48447492Y13944492D01*
X48330525Y14044391D01*
X48258921Y14105547D01*
X48258916Y14105550D01*
X48047474Y14235123D01*
X47818362Y14330024D01*
X47577228Y14387915D01*
X47330000Y14407372D01*
X47082771Y14387915D01*
X46841637Y14330024D01*
X46612525Y14235123D01*
X46401083Y14105550D01*
X46401078Y14105547D01*
X46212508Y13944492D01*
X46051453Y13755922D01*
X46051450Y13755917D01*
X45921877Y13544475D01*
X45826976Y13315363D01*
X45769085Y13074229D01*
X45749628Y12827000D01*
X44910372Y12827000D01*
X44890915Y13074225D01*
X44843837Y13270318D01*
X44833023Y13315363D01*
X44738122Y13544475D01*
X44608549Y13755917D01*
X44608546Y13755922D01*
X44541447Y13834484D01*
X44447492Y13944492D01*
X44330525Y14044391D01*
X44258921Y14105547D01*
X44258916Y14105550D01*
X44047474Y14235123D01*
X43818362Y14330024D01*
X43577228Y14387915D01*
X43330000Y14407372D01*
X43082771Y14387915D01*
X42841637Y14330024D01*
X42612525Y14235123D01*
X42401083Y14105550D01*
X42401078Y14105547D01*
X42212508Y13944492D01*
X42051453Y13755922D01*
X42051450Y13755917D01*
X41921877Y13544475D01*
X41826976Y13315363D01*
X41769085Y13074229D01*
X41749628Y12827000D01*
X38410372Y12827000D01*
X38390915Y13074225D01*
X38343837Y13270318D01*
X38333023Y13315363D01*
X38238122Y13544475D01*
X38108549Y13755917D01*
X38108546Y13755922D01*
X38041447Y13834484D01*
X37947492Y13944492D01*
X37830525Y14044391D01*
X37758921Y14105547D01*
X37758916Y14105550D01*
X37547474Y14235123D01*
X37318362Y14330024D01*
X37077228Y14387915D01*
X36830000Y14407372D01*
X36582771Y14387915D01*
X36341637Y14330024D01*
X36112525Y14235123D01*
X35901083Y14105550D01*
X35901078Y14105547D01*
X35712508Y13944492D01*
X35551453Y13755922D01*
X35551450Y13755917D01*
X35421877Y13544475D01*
X35326976Y13315363D01*
X35269085Y13074229D01*
X35249628Y12827000D01*
X34410372Y12827000D01*
X34390915Y13074225D01*
X34343837Y13270318D01*
X34333023Y13315363D01*
X34238122Y13544475D01*
X34108549Y13755917D01*
X34108546Y13755922D01*
X34041447Y13834484D01*
X33947492Y13944492D01*
X33830525Y14044391D01*
X33758921Y14105547D01*
X33758916Y14105550D01*
X33547474Y14235123D01*
X33318362Y14330024D01*
X33077228Y14387915D01*
X32830000Y14407372D01*
X32582771Y14387915D01*
X32341637Y14330024D01*
X32112525Y14235123D01*
X31901083Y14105550D01*
X31901078Y14105547D01*
X31712508Y13944492D01*
X31551453Y13755922D01*
X31551450Y13755917D01*
X31421877Y13544475D01*
X31326976Y13315363D01*
X31269085Y13074229D01*
X31249628Y12827000D01*
X30410372Y12827000D01*
X30390915Y13074225D01*
X30343837Y13270318D01*
X30333023Y13315363D01*
X30238122Y13544475D01*
X30108549Y13755917D01*
X30108546Y13755922D01*
X30041447Y13834484D01*
X29947492Y13944492D01*
X29830525Y14044391D01*
X29758921Y14105547D01*
X29758916Y14105550D01*
X29547474Y14235123D01*
X29318362Y14330024D01*
X29077228Y14387915D01*
X28830000Y14407372D01*
X28582771Y14387915D01*
X28341637Y14330024D01*
X28112525Y14235123D01*
X27901083Y14105550D01*
X27901078Y14105547D01*
X27712508Y13944492D01*
X27551453Y13755922D01*
X27551450Y13755917D01*
X27421877Y13544475D01*
X27326976Y13315363D01*
X27269085Y13074229D01*
X27249628Y12827000D01*
X26405500Y12827000D01*
X26405500Y13576646D01*
X26399398Y13654179D01*
X26351086Y13834484D01*
X26289254Y13955834D01*
X26266343Y14000800D01*
X26266340Y14000804D01*
X26231044Y14044391D01*
X26148869Y14145869D01*
X26003803Y14263341D01*
X26003799Y14263344D01*
X25837484Y14348086D01*
X25657177Y14396399D01*
X25579651Y14402500D01*
X25579646Y14402500D01*
X24080354Y14402500D01*
X24080348Y14402500D01*
X24002822Y14396399D01*
X23822515Y14348086D01*
X23656200Y14263344D01*
X23656196Y14263341D01*
X23511131Y14145869D01*
X23393659Y14000804D01*
X23393656Y14000800D01*
X23308914Y13834485D01*
X23260601Y13654178D01*
X23254500Y13576652D01*
X23254500Y12077349D01*
X15310208Y12077349D01*
X15386357Y12139843D01*
X15505136Y12284575D01*
X15593396Y12449699D01*
X15647747Y12628869D01*
X15666099Y12815200D01*
X15647747Y13001531D01*
X15593396Y13180701D01*
X15534464Y13290956D01*
X15505137Y13345824D01*
X15505135Y13345827D01*
X15386357Y13490558D01*
X15241626Y13609336D01*
X15241623Y13609338D01*
X15076502Y13697596D01*
X14897333Y13751947D01*
X14897331Y13751948D01*
X14711000Y13770299D01*
X14524668Y13751948D01*
X14524666Y13751947D01*
X14345497Y13697596D01*
X14180376Y13609338D01*
X14180373Y13609336D01*
X14035642Y13490558D01*
X13916864Y13345827D01*
X13916862Y13345824D01*
X13828604Y13180703D01*
X13774253Y13001534D01*
X13774252Y13001532D01*
X13755901Y12815200D01*
X6174324Y12815200D01*
X5937677Y12878609D01*
X5896939Y12883973D01*
X5693934Y12910700D01*
X5693927Y12910700D01*
X5448073Y12910700D01*
X5448065Y12910700D01*
X5216059Y12880155D01*
X5204323Y12878609D01*
X5177792Y12871500D01*
X4966847Y12814978D01*
X4966837Y12814975D01*
X4739714Y12720897D01*
X4739705Y12720893D01*
X4526787Y12597964D01*
X4331745Y12448303D01*
X4331738Y12448297D01*
X4157903Y12274462D01*
X4157897Y12274455D01*
X4008236Y12079413D01*
X3885307Y11866495D01*
X3885303Y11866486D01*
X3791225Y11639363D01*
X3791222Y11639353D01*
X3729124Y11407596D01*
X3727592Y11401880D01*
X3727590Y11401869D01*
X3695500Y11158135D01*
X3695500Y10912266D01*
X250500Y10912266D01*
X250500Y17889200D01*
X6856225Y17889200D01*
X6875287Y17671316D01*
X6875289Y17671306D01*
X6931894Y17460050D01*
X6931898Y17460041D01*
X7024333Y17261813D01*
X7067874Y17199629D01*
X7672944Y17804699D01*
X7696326Y17717436D01*
X7754911Y17615964D01*
X7837764Y17533111D01*
X7939236Y17474526D01*
X8026495Y17451145D01*
X7421427Y16846076D01*
X7483613Y16802533D01*
X7488298Y16799828D01*
X7487343Y16798174D01*
X7533460Y16757585D01*
X7552625Y16690395D01*
X7532423Y16623510D01*
X7507294Y16595501D01*
X7433368Y16534832D01*
X7314190Y16389613D01*
X7314186Y16389606D01*
X7225633Y16223936D01*
X7171098Y16044157D01*
X7152685Y15857200D01*
X7171098Y15670244D01*
X7225633Y15490465D01*
X7314186Y15324795D01*
X7314190Y15324788D01*
X7433368Y15179569D01*
X7578587Y15060391D01*
X7578594Y15060387D01*
X7668636Y15012258D01*
X7718480Y14963296D01*
X7733941Y14895158D01*
X7710109Y14829479D01*
X7654552Y14787110D01*
X7610183Y14778900D01*
X7340934Y14778900D01*
X7281523Y14767083D01*
X7281520Y14767082D01*
X7214140Y14722060D01*
X7169118Y14654680D01*
X7169117Y14654677D01*
X7157300Y14595267D01*
X7157300Y14595264D01*
X7157300Y13055136D01*
X7157300Y13055134D01*
X7157299Y13055134D01*
X7169117Y12995724D01*
X7169118Y12995721D01*
X7184057Y12973362D01*
X7214140Y12928340D01*
X7281520Y12883319D01*
X7281523Y12883318D01*
X7340933Y12871500D01*
X7340936Y12871500D01*
X8881066Y12871500D01*
X8940476Y12883318D01*
X8940477Y12883319D01*
X8940480Y12883319D01*
X9007860Y12928340D01*
X9052881Y12995720D01*
X9054038Y13001534D01*
X9064700Y13055134D01*
X9064700Y14023403D01*
X9084385Y14090442D01*
X9137189Y14136197D01*
X9206347Y14146141D01*
X9267363Y14119257D01*
X9284068Y14105548D01*
X9358587Y14044391D01*
X9358594Y14044387D01*
X9524264Y13955834D01*
X9524266Y13955834D01*
X9524269Y13955832D01*
X9704042Y13901299D01*
X9704041Y13901299D01*
X9720804Y13899649D01*
X9891000Y13882885D01*
X10077958Y13901299D01*
X10257731Y13955832D01*
X10423411Y14044390D01*
X10568631Y14163569D01*
X10687810Y14308789D01*
X10776368Y14474469D01*
X10830901Y14654242D01*
X10849315Y14841200D01*
X10830901Y15028158D01*
X10776368Y15207931D01*
X10776366Y15207934D01*
X10776366Y15207936D01*
X10687813Y15373606D01*
X10687809Y15373613D01*
X10568631Y15518832D01*
X10494706Y15579501D01*
X10455372Y15637247D01*
X10454923Y15653999D01*
X61226318Y15653999D01*
X61246955Y15497240D01*
X61246956Y15497238D01*
X61307464Y15351159D01*
X61403718Y15225718D01*
X61529159Y15129464D01*
X61675238Y15068956D01*
X61753619Y15058637D01*
X61831999Y15048318D01*
X61832000Y15048318D01*
X61832001Y15048318D01*
X61884254Y15055198D01*
X61988762Y15068956D01*
X62134841Y15129464D01*
X62260282Y15225718D01*
X62356536Y15351159D01*
X62417044Y15497238D01*
X62433822Y15624682D01*
X62437682Y15653999D01*
X62437682Y15654002D01*
X62417044Y15810761D01*
X62417044Y15810762D01*
X62356536Y15956841D01*
X62260282Y16082282D01*
X62134841Y16178536D01*
X61988762Y16239044D01*
X61988760Y16239045D01*
X61832001Y16259682D01*
X61831999Y16259682D01*
X61675239Y16239045D01*
X61675237Y16239044D01*
X61529160Y16178537D01*
X61403718Y16082282D01*
X61307463Y15956840D01*
X61246956Y15810763D01*
X61246955Y15810761D01*
X61226318Y15654002D01*
X61226318Y15653999D01*
X10454923Y15653999D01*
X10453501Y15707092D01*
X10489689Y15766860D01*
X10514092Y15783142D01*
X10513698Y15783825D01*
X10518385Y15786532D01*
X10580570Y15830076D01*
X9975501Y16435145D01*
X10062764Y16458526D01*
X10164236Y16517111D01*
X10247089Y16599964D01*
X10305674Y16701436D01*
X10329055Y16788698D01*
X10934124Y16183630D01*
X10977668Y16245815D01*
X10977669Y16245817D01*
X11070100Y16444036D01*
X11070105Y16444050D01*
X11126710Y16655306D01*
X11126712Y16655316D01*
X11145775Y16873200D01*
X11145775Y16873201D01*
X11126712Y17091085D01*
X11126710Y17091095D01*
X11070105Y17302351D01*
X11070101Y17302360D01*
X10977667Y17500586D01*
X10977666Y17500588D01*
X10934124Y17562772D01*
X10934124Y17562773D01*
X10329055Y16957704D01*
X10305674Y17044964D01*
X10247089Y17146436D01*
X10164236Y17229289D01*
X10062764Y17287874D01*
X9975502Y17311256D01*
X10444244Y17779999D01*
X24387918Y17779999D01*
X24408555Y17623240D01*
X24408556Y17623238D01*
X24453692Y17514269D01*
X24469064Y17477159D01*
X24565318Y17351718D01*
X24690759Y17255464D01*
X24836838Y17194956D01*
X24915219Y17184637D01*
X24993599Y17174318D01*
X24993600Y17174318D01*
X24993601Y17174318D01*
X25045854Y17181198D01*
X25150362Y17194956D01*
X25296441Y17255464D01*
X25421882Y17351718D01*
X25518136Y17477159D01*
X25578644Y17623238D01*
X25599282Y17780000D01*
X25592618Y17830615D01*
X25578644Y17936761D01*
X25578644Y17936762D01*
X25518136Y18082841D01*
X25491925Y18117000D01*
X88105172Y18117000D01*
X88124462Y17822688D01*
X88124464Y17822676D01*
X88182001Y17533416D01*
X88182005Y17533401D01*
X88276812Y17254112D01*
X88407258Y16989594D01*
X88407265Y16989581D01*
X88571123Y16744351D01*
X88600405Y16710960D01*
X89387912Y17498468D01*
X89482829Y17367825D01*
X89610825Y17239829D01*
X89741465Y17144914D01*
X88953958Y16357407D01*
X88987350Y16328124D01*
X89232580Y16164266D01*
X89232593Y16164259D01*
X89497111Y16033813D01*
X89776400Y15939006D01*
X89776415Y15939002D01*
X90065675Y15881465D01*
X90065687Y15881463D01*
X90360000Y15862173D01*
X90654312Y15881463D01*
X90654324Y15881465D01*
X90943584Y15939002D01*
X90943599Y15939006D01*
X91222888Y16033813D01*
X91487406Y16164259D01*
X91487419Y16164266D01*
X91732648Y16328123D01*
X91766039Y16357407D01*
X90978533Y17144914D01*
X91109175Y17239829D01*
X91237171Y17367825D01*
X91332087Y17498467D01*
X92119593Y16710961D01*
X92148877Y16744352D01*
X92312734Y16989581D01*
X92312741Y16989594D01*
X92443187Y17254112D01*
X92537994Y17533401D01*
X92537998Y17533416D01*
X92595535Y17822676D01*
X92595537Y17822688D01*
X92614827Y18117000D01*
X92595537Y18411313D01*
X92595535Y18411325D01*
X92537998Y18700585D01*
X92537994Y18700600D01*
X92443187Y18979889D01*
X92312741Y19244407D01*
X92312734Y19244420D01*
X92148876Y19489650D01*
X92119593Y19523042D01*
X91332086Y18735535D01*
X91237171Y18866175D01*
X91109175Y18994171D01*
X90978533Y19089088D01*
X91766040Y19876595D01*
X91732649Y19905877D01*
X91487419Y20069735D01*
X91487406Y20069742D01*
X91222888Y20200188D01*
X90943599Y20294995D01*
X90943584Y20294999D01*
X90654324Y20352536D01*
X90654312Y20352538D01*
X90360000Y20371828D01*
X90065687Y20352538D01*
X90065675Y20352536D01*
X89776415Y20294999D01*
X89776400Y20294995D01*
X89497111Y20200188D01*
X89232593Y20069742D01*
X89232580Y20069735D01*
X88987346Y19905874D01*
X88987339Y19905869D01*
X88953959Y19876597D01*
X88953959Y19876595D01*
X89741466Y19089088D01*
X89610825Y18994171D01*
X89482829Y18866175D01*
X89387913Y18735534D01*
X88600405Y19523041D01*
X88600403Y19523041D01*
X88571131Y19489661D01*
X88571126Y19489654D01*
X88407265Y19244420D01*
X88407258Y19244407D01*
X88276812Y18979889D01*
X88182005Y18700600D01*
X88182001Y18700585D01*
X88124464Y18411325D01*
X88124462Y18411313D01*
X88105172Y18117000D01*
X25491925Y18117000D01*
X25421882Y18208282D01*
X25296441Y18304536D01*
X25150362Y18365044D01*
X25150360Y18365045D01*
X24993601Y18385682D01*
X24993599Y18385682D01*
X24836839Y18365045D01*
X24836837Y18365044D01*
X24690760Y18304537D01*
X24565318Y18208282D01*
X24469063Y18082840D01*
X24408556Y17936763D01*
X24408555Y17936761D01*
X24387918Y17780002D01*
X24387918Y17779999D01*
X10444244Y17779999D01*
X10580571Y17916326D01*
X10518386Y17959868D01*
X10513702Y17962572D01*
X10514654Y17964222D01*
X10468527Y18004836D01*
X10449374Y18072029D01*
X10469589Y18138911D01*
X10494703Y18166899D01*
X10568631Y18227569D01*
X10687810Y18372789D01*
X10776368Y18538469D01*
X10830901Y18718242D01*
X10849315Y18905200D01*
X10830901Y19092158D01*
X10776368Y19271931D01*
X10776366Y19271934D01*
X10776366Y19271936D01*
X10687813Y19437606D01*
X10687809Y19437613D01*
X10568631Y19582832D01*
X10423412Y19702010D01*
X10423405Y19702014D01*
X10257732Y19790568D01*
X10212751Y19804213D01*
X10154313Y19842510D01*
X10125856Y19906323D01*
X10136417Y19975390D01*
X10182642Y20027783D01*
X10212747Y20041532D01*
X10256501Y20054804D01*
X10421625Y20143064D01*
X10566357Y20261843D01*
X10684047Y20405248D01*
X86687500Y20405248D01*
X86699131Y20346771D01*
X86699132Y20346770D01*
X86743447Y20280448D01*
X86809769Y20236133D01*
X86809770Y20236132D01*
X86868247Y20224501D01*
X86868250Y20224500D01*
X86868252Y20224500D01*
X88431750Y20224500D01*
X88431751Y20224501D01*
X88446568Y20227448D01*
X88490229Y20236132D01*
X88490229Y20236133D01*
X88490231Y20236133D01*
X88556552Y20280448D01*
X88600867Y20346769D01*
X88600867Y20346771D01*
X88600868Y20346771D01*
X88612499Y20405248D01*
X88612500Y20405250D01*
X88612500Y21968751D01*
X88612499Y21968753D01*
X88600868Y22027230D01*
X88600867Y22027231D01*
X88556552Y22093553D01*
X88490230Y22137868D01*
X88490229Y22137869D01*
X88431752Y22149500D01*
X88431748Y22149500D01*
X86868252Y22149500D01*
X86868247Y22149500D01*
X86809770Y22137869D01*
X86809769Y22137868D01*
X86743447Y22093553D01*
X86699132Y22027231D01*
X86699131Y22027230D01*
X86687500Y21968753D01*
X86687500Y20405248D01*
X10684047Y20405248D01*
X10685136Y20406575D01*
X10773396Y20571699D01*
X10827747Y20750869D01*
X10846099Y20937200D01*
X10827747Y21123531D01*
X10827746Y21123533D01*
X10827746Y21123534D01*
X10773396Y21302701D01*
X10735820Y21373002D01*
X10685137Y21467824D01*
X10685135Y21467827D01*
X10566357Y21612558D01*
X10421626Y21731336D01*
X10421623Y21731338D01*
X10256502Y21819596D01*
X10077333Y21873947D01*
X10077331Y21873948D01*
X9891000Y21892299D01*
X9704668Y21873948D01*
X9704666Y21873947D01*
X9525497Y21819596D01*
X9360376Y21731338D01*
X9360373Y21731336D01*
X9215642Y21612558D01*
X9096864Y21467827D01*
X9096862Y21467824D01*
X9008604Y21302703D01*
X8954253Y21123534D01*
X8954253Y21123533D01*
X8950458Y21085003D01*
X8924297Y21020216D01*
X8867262Y20979858D01*
X8797462Y20976741D01*
X8755932Y20995583D01*
X8738392Y21007865D01*
X8738388Y21007867D01*
X8540159Y21100302D01*
X8540150Y21100306D01*
X8328894Y21156911D01*
X8328884Y21156913D01*
X8111001Y21175975D01*
X8110999Y21175975D01*
X7893115Y21156913D01*
X7893105Y21156911D01*
X7681849Y21100306D01*
X7681840Y21100302D01*
X7483613Y21007867D01*
X7421427Y20964326D01*
X8026497Y20359256D01*
X7939236Y20335874D01*
X7837764Y20277289D01*
X7754911Y20194436D01*
X7696326Y20092964D01*
X7672944Y20005702D01*
X7067874Y20610772D01*
X7024333Y20548587D01*
X6931898Y20350360D01*
X6931894Y20350351D01*
X6875289Y20139095D01*
X6875287Y20139085D01*
X6856225Y19921201D01*
X6856225Y19921200D01*
X6875287Y19703316D01*
X6875289Y19703306D01*
X6931894Y19492050D01*
X6931898Y19492041D01*
X7024333Y19293813D01*
X7067874Y19231629D01*
X7672944Y19836699D01*
X7696326Y19749436D01*
X7754911Y19647964D01*
X7837764Y19565111D01*
X7939236Y19506526D01*
X8026497Y19483145D01*
X7448553Y18905200D01*
X8026497Y18327256D01*
X7939236Y18303874D01*
X7837764Y18245289D01*
X7754911Y18162436D01*
X7696326Y18060964D01*
X7672944Y17973702D01*
X7067874Y18578772D01*
X7024333Y18516587D01*
X6931898Y18318360D01*
X6931894Y18318351D01*
X6875289Y18107095D01*
X6875287Y18107085D01*
X6856225Y17889201D01*
X6856225Y17889200D01*
X250500Y17889200D01*
X250500Y23612266D01*
X3695500Y23612266D01*
X3718795Y23435336D01*
X3727591Y23368523D01*
X3791222Y23131048D01*
X3791225Y23131038D01*
X3871736Y22936668D01*
X3885306Y22903908D01*
X4008233Y22690992D01*
X4008235Y22690989D01*
X4008236Y22690988D01*
X4157897Y22495946D01*
X4157903Y22495939D01*
X4331738Y22322104D01*
X4331745Y22322098D01*
X4379966Y22285097D01*
X4526792Y22172433D01*
X4739708Y22049506D01*
X4878448Y21992038D01*
X4960514Y21958045D01*
X4966847Y21955422D01*
X5204323Y21891791D01*
X5448073Y21859700D01*
X5448080Y21859700D01*
X5693920Y21859700D01*
X5693927Y21859700D01*
X5937677Y21891791D01*
X6174324Y21955200D01*
X13755901Y21955200D01*
X13774252Y21768869D01*
X13774253Y21768867D01*
X13828604Y21589698D01*
X13916862Y21424577D01*
X13916864Y21424574D01*
X14035642Y21279843D01*
X14180373Y21161065D01*
X14180376Y21161063D01*
X14322676Y21085003D01*
X14345499Y21072804D01*
X14524666Y21018454D01*
X14524668Y21018453D01*
X14541374Y21016808D01*
X14711000Y21000101D01*
X14897331Y21018453D01*
X15076501Y21072804D01*
X15188745Y21132799D01*
X28604318Y21132799D01*
X28624955Y20976040D01*
X28624956Y20976038D01*
X28685031Y20831003D01*
X28685464Y20829959D01*
X28781718Y20704518D01*
X28907159Y20608264D01*
X29053238Y20547756D01*
X29131619Y20537437D01*
X29209999Y20527118D01*
X29210000Y20527118D01*
X29210001Y20527118D01*
X29262254Y20533998D01*
X29366762Y20547756D01*
X29512841Y20608264D01*
X29638282Y20704518D01*
X29734536Y20829959D01*
X29795044Y20976038D01*
X29815682Y21132800D01*
X29815544Y21133846D01*
X29797535Y21270643D01*
X29795044Y21289562D01*
X29760483Y21372999D01*
X31703118Y21372999D01*
X31723755Y21216240D01*
X31723756Y21216238D01*
X31762156Y21123531D01*
X31784264Y21070159D01*
X31880518Y20944718D01*
X32005959Y20848464D01*
X32152038Y20787956D01*
X32230419Y20777637D01*
X32308799Y20767318D01*
X32308800Y20767318D01*
X32308801Y20767318D01*
X32361054Y20774198D01*
X32465562Y20787956D01*
X32611641Y20848464D01*
X32737082Y20944718D01*
X32833336Y21070159D01*
X32893844Y21216238D01*
X32914482Y21373000D01*
X32910085Y21406396D01*
X32905977Y21437599D01*
X38967518Y21437599D01*
X38988155Y21280840D01*
X38988156Y21280838D01*
X39037768Y21161063D01*
X39048664Y21134759D01*
X39144918Y21009318D01*
X39270359Y20913064D01*
X39416438Y20852556D01*
X39494819Y20842237D01*
X39573199Y20831918D01*
X39573200Y20831918D01*
X39573201Y20831918D01*
X39625454Y20838798D01*
X39729962Y20852556D01*
X39876041Y20913064D01*
X40001482Y21009318D01*
X40097736Y21134759D01*
X40158244Y21280838D01*
X40174774Y21406396D01*
X40178882Y21437599D01*
X40178882Y21437602D01*
X40164016Y21550521D01*
X53339000Y21550521D01*
X53367666Y21406408D01*
X53367669Y21406396D01*
X53423899Y21270643D01*
X53423906Y21270630D01*
X53505543Y21148453D01*
X53505546Y21148449D01*
X53609448Y21044547D01*
X53609452Y21044544D01*
X53731629Y20962907D01*
X53731642Y20962900D01*
X53867395Y20906670D01*
X53867400Y20906668D01*
X54011520Y20878001D01*
X54011524Y20878000D01*
X54011525Y20878000D01*
X54158476Y20878000D01*
X54158477Y20878001D01*
X54302600Y20906668D01*
X54438364Y20962903D01*
X54560548Y21044544D01*
X54649847Y21133843D01*
X61174722Y21133843D01*
X61195359Y20977084D01*
X61195360Y20977082D01*
X61255868Y20831003D01*
X61352122Y20705562D01*
X61477563Y20609308D01*
X61623642Y20548800D01*
X61702023Y20538481D01*
X61780403Y20528162D01*
X61780404Y20528162D01*
X61780405Y20528162D01*
X61832658Y20535042D01*
X61937166Y20548800D01*
X62083245Y20609308D01*
X62208686Y20705562D01*
X62304940Y20831003D01*
X62365448Y20977082D01*
X62384728Y21123531D01*
X62386086Y21133843D01*
X62386086Y21133846D01*
X62366734Y21280840D01*
X62365448Y21290606D01*
X62304940Y21436685D01*
X62208686Y21562126D01*
X62083245Y21658380D01*
X62055870Y21669719D01*
X61937166Y21718888D01*
X61937164Y21718889D01*
X61780405Y21739526D01*
X61780403Y21739526D01*
X61623643Y21718889D01*
X61623641Y21718888D01*
X61477564Y21658381D01*
X61352122Y21562126D01*
X61255867Y21436684D01*
X61195360Y21290607D01*
X61195359Y21290605D01*
X61174722Y21133846D01*
X61174722Y21133843D01*
X54649847Y21133843D01*
X54664456Y21148452D01*
X54746097Y21270636D01*
X54802332Y21406400D01*
X54831000Y21550525D01*
X54831000Y21697475D01*
X54802332Y21841600D01*
X54802330Y21841605D01*
X54746100Y21977358D01*
X54746093Y21977371D01*
X54664456Y22099548D01*
X54664453Y22099552D01*
X54615206Y22148799D01*
X74324318Y22148799D01*
X74344955Y21992040D01*
X74344956Y21992038D01*
X74397211Y21865882D01*
X74405464Y21845959D01*
X74501718Y21720518D01*
X74627159Y21624264D01*
X74773238Y21563756D01*
X74851619Y21553437D01*
X74929999Y21543118D01*
X74930000Y21543118D01*
X74930001Y21543118D01*
X74986262Y21550525D01*
X75086762Y21563756D01*
X75232841Y21624264D01*
X75358282Y21720518D01*
X75454536Y21845959D01*
X75515044Y21992038D01*
X75534725Y22141532D01*
X75535682Y22148799D01*
X75535682Y22148802D01*
X75515044Y22305561D01*
X75515044Y22305562D01*
X75454536Y22451641D01*
X75358282Y22577082D01*
X75232841Y22673336D01*
X75209401Y22683045D01*
X75086762Y22733844D01*
X75086760Y22733845D01*
X74930001Y22754482D01*
X74929999Y22754482D01*
X74773239Y22733845D01*
X74773237Y22733844D01*
X74627160Y22673337D01*
X74501718Y22577082D01*
X74405463Y22451640D01*
X74344956Y22305563D01*
X74344955Y22305561D01*
X74324318Y22148802D01*
X74324318Y22148799D01*
X54615206Y22148799D01*
X54560551Y22203454D01*
X54560547Y22203457D01*
X54438370Y22285094D01*
X54438357Y22285101D01*
X54302604Y22341331D01*
X54302592Y22341334D01*
X54158479Y22370000D01*
X54158475Y22370000D01*
X54011525Y22370000D01*
X54011520Y22370000D01*
X53867407Y22341334D01*
X53867395Y22341331D01*
X53731642Y22285101D01*
X53731629Y22285094D01*
X53609452Y22203457D01*
X53609448Y22203454D01*
X53505546Y22099552D01*
X53505543Y22099548D01*
X53423906Y21977371D01*
X53423899Y21977358D01*
X53367669Y21841605D01*
X53367666Y21841593D01*
X53339000Y21697480D01*
X53339000Y21550521D01*
X40164016Y21550521D01*
X40158244Y21594361D01*
X40158244Y21594362D01*
X40097736Y21740441D01*
X40001482Y21865882D01*
X39876041Y21962136D01*
X39860078Y21968748D01*
X39729962Y22022644D01*
X39729960Y22022645D01*
X39573201Y22043282D01*
X39573199Y22043282D01*
X39416439Y22022645D01*
X39416437Y22022644D01*
X39270360Y21962137D01*
X39144918Y21865882D01*
X39048663Y21740440D01*
X38988156Y21594363D01*
X38988155Y21594361D01*
X38967518Y21437602D01*
X38967518Y21437599D01*
X32905977Y21437599D01*
X32898774Y21492318D01*
X32893844Y21529762D01*
X32833336Y21675841D01*
X32737082Y21801282D01*
X32611641Y21897536D01*
X32553381Y21921668D01*
X32465562Y21958044D01*
X32465560Y21958045D01*
X32308801Y21978682D01*
X32308799Y21978682D01*
X32152039Y21958045D01*
X32152037Y21958044D01*
X32005960Y21897537D01*
X31880518Y21801282D01*
X31784263Y21675840D01*
X31723756Y21529763D01*
X31723755Y21529761D01*
X31703118Y21373002D01*
X31703118Y21372999D01*
X29760483Y21372999D01*
X29734536Y21435641D01*
X29638282Y21561082D01*
X29512841Y21657336D01*
X29510318Y21658381D01*
X29366762Y21717844D01*
X29366760Y21717845D01*
X29210001Y21738482D01*
X29209999Y21738482D01*
X29053239Y21717845D01*
X29053237Y21717844D01*
X28907160Y21657337D01*
X28781718Y21561082D01*
X28685463Y21435640D01*
X28624956Y21289563D01*
X28624955Y21289561D01*
X28604318Y21132802D01*
X28604318Y21132799D01*
X15188745Y21132799D01*
X15241625Y21161064D01*
X15386357Y21279843D01*
X15505136Y21424575D01*
X15593396Y21589699D01*
X15647747Y21768869D01*
X15666099Y21955200D01*
X15652035Y22097999D01*
X33328718Y22097999D01*
X33349355Y21941240D01*
X33349356Y21941238D01*
X33380569Y21865882D01*
X33409864Y21795159D01*
X33506118Y21669718D01*
X33631559Y21573464D01*
X33777638Y21512956D01*
X33856019Y21502637D01*
X33934399Y21492318D01*
X33934400Y21492318D01*
X33934401Y21492318D01*
X33986654Y21499198D01*
X34091162Y21512956D01*
X34237241Y21573464D01*
X34362682Y21669718D01*
X34458936Y21795159D01*
X34519444Y21941238D01*
X34535020Y22059547D01*
X34540082Y22097999D01*
X34540082Y22098002D01*
X34519444Y22254761D01*
X34519444Y22254762D01*
X34458936Y22400841D01*
X34362682Y22526282D01*
X34237241Y22622536D01*
X34217874Y22630558D01*
X34091162Y22683044D01*
X34091160Y22683045D01*
X33934401Y22703682D01*
X33934399Y22703682D01*
X33777639Y22683045D01*
X33777637Y22683044D01*
X33631560Y22622537D01*
X33506118Y22526282D01*
X33409863Y22400840D01*
X33349356Y22254763D01*
X33349355Y22254761D01*
X33328718Y22098002D01*
X33328718Y22097999D01*
X15652035Y22097999D01*
X15647747Y22141531D01*
X15593396Y22320701D01*
X15582368Y22341334D01*
X15505137Y22485824D01*
X15505135Y22485827D01*
X15386357Y22630558D01*
X15241626Y22749336D01*
X15241623Y22749338D01*
X15076502Y22837596D01*
X14897333Y22891947D01*
X14897331Y22891948D01*
X14711000Y22910299D01*
X14524668Y22891948D01*
X14524666Y22891947D01*
X14345497Y22837596D01*
X14180376Y22749338D01*
X14180373Y22749336D01*
X14035642Y22630558D01*
X13916864Y22485827D01*
X13916862Y22485824D01*
X13828604Y22320703D01*
X13774253Y22141534D01*
X13774252Y22141532D01*
X13755901Y21955200D01*
X6174324Y21955200D01*
X6175153Y21955422D01*
X6402292Y22049506D01*
X6615208Y22172433D01*
X6810256Y22322099D01*
X6984101Y22495944D01*
X7133767Y22690992D01*
X7256694Y22903908D01*
X7259548Y22910799D01*
X38815118Y22910799D01*
X38835755Y22754040D01*
X38835756Y22754038D01*
X38890225Y22622537D01*
X38896264Y22607959D01*
X38992518Y22482518D01*
X39117959Y22386264D01*
X39264038Y22325756D01*
X39302420Y22320703D01*
X39420799Y22305118D01*
X39420800Y22305118D01*
X39420801Y22305118D01*
X39473054Y22311998D01*
X39577562Y22325756D01*
X39723641Y22386264D01*
X39849082Y22482518D01*
X39945336Y22607959D01*
X40005844Y22754038D01*
X40007419Y22765999D01*
X44843318Y22765999D01*
X44863955Y22609240D01*
X44863956Y22609238D01*
X44915074Y22485827D01*
X44924464Y22463159D01*
X45020718Y22337718D01*
X45146159Y22241464D01*
X45292238Y22180956D01*
X45356947Y22172437D01*
X45448999Y22160318D01*
X45449000Y22160318D01*
X45449001Y22160318D01*
X45501254Y22167198D01*
X45605762Y22180956D01*
X45751841Y22241464D01*
X45877282Y22337718D01*
X45973536Y22463159D01*
X46015936Y22565521D01*
X48259000Y22565521D01*
X48287666Y22421408D01*
X48287669Y22421396D01*
X48343899Y22285643D01*
X48343906Y22285630D01*
X48425543Y22163453D01*
X48425546Y22163449D01*
X48529448Y22059547D01*
X48529452Y22059544D01*
X48651629Y21977907D01*
X48651642Y21977900D01*
X48787395Y21921670D01*
X48787400Y21921668D01*
X48908716Y21897537D01*
X48931520Y21893001D01*
X48931524Y21893000D01*
X48931525Y21893000D01*
X49078476Y21893000D01*
X49078477Y21893001D01*
X49222600Y21921668D01*
X49358364Y21977903D01*
X49480548Y22059544D01*
X49584456Y22163452D01*
X49666097Y22285636D01*
X49722332Y22421400D01*
X49751000Y22565525D01*
X49751000Y22712475D01*
X49722332Y22856600D01*
X49707691Y22891947D01*
X49666100Y22992358D01*
X49666093Y22992371D01*
X49584456Y23114548D01*
X49584453Y23114552D01*
X49480551Y23218454D01*
X49480547Y23218457D01*
X49358370Y23300094D01*
X49358357Y23300101D01*
X49222604Y23356331D01*
X49222592Y23356334D01*
X49078479Y23385000D01*
X49078475Y23385000D01*
X48931525Y23385000D01*
X48931520Y23385000D01*
X48787407Y23356334D01*
X48787395Y23356331D01*
X48651642Y23300101D01*
X48651629Y23300094D01*
X48529452Y23218457D01*
X48529448Y23218454D01*
X48425546Y23114552D01*
X48425543Y23114548D01*
X48343906Y22992371D01*
X48343899Y22992358D01*
X48287669Y22856605D01*
X48287666Y22856593D01*
X48259000Y22712480D01*
X48259000Y22565521D01*
X46015936Y22565521D01*
X46034044Y22609238D01*
X46052488Y22749336D01*
X46054682Y22765999D01*
X46054682Y22766002D01*
X46035619Y22910800D01*
X46034044Y22922762D01*
X45973536Y23068841D01*
X45877282Y23194282D01*
X45751841Y23290536D01*
X45727457Y23300636D01*
X45605762Y23351044D01*
X45605760Y23351045D01*
X45449001Y23371682D01*
X45448999Y23371682D01*
X45292239Y23351045D01*
X45292237Y23351044D01*
X45146160Y23290537D01*
X45020718Y23194282D01*
X44924463Y23068840D01*
X44863956Y22922763D01*
X44863955Y22922761D01*
X44843318Y22766002D01*
X44843318Y22765999D01*
X40007419Y22765999D01*
X40024000Y22891948D01*
X40026482Y22910799D01*
X40026482Y22910802D01*
X40005844Y23067561D01*
X40005844Y23067562D01*
X39945336Y23213641D01*
X39849082Y23339082D01*
X39723641Y23435336D01*
X39721072Y23436400D01*
X39577562Y23495844D01*
X39577560Y23495845D01*
X39420801Y23516482D01*
X39420799Y23516482D01*
X39264039Y23495845D01*
X39264037Y23495844D01*
X39117960Y23435337D01*
X38992518Y23339082D01*
X38896263Y23213640D01*
X38835756Y23067563D01*
X38835755Y23067561D01*
X38815118Y22910802D01*
X38815118Y22910799D01*
X7259548Y22910799D01*
X7350778Y23131047D01*
X7414409Y23368523D01*
X7446500Y23612273D01*
X7446500Y23858127D01*
X7414409Y24101877D01*
X7350778Y24339353D01*
X7333096Y24382040D01*
X7286787Y24493841D01*
X7256694Y24566492D01*
X7133767Y24779408D01*
X6984101Y24974456D01*
X6984096Y24974462D01*
X6810261Y25148297D01*
X6810254Y25148303D01*
X6615212Y25297964D01*
X6615211Y25297965D01*
X6615208Y25297967D01*
X6402292Y25420894D01*
X6402285Y25420897D01*
X6175162Y25514975D01*
X6175155Y25514977D01*
X6175153Y25514978D01*
X6174324Y25515200D01*
X7345898Y25515200D01*
X7366274Y25256288D01*
X7426901Y25003755D01*
X7426906Y25003738D01*
X7526290Y24763803D01*
X7526292Y24763800D01*
X7661992Y24542358D01*
X7661993Y24542357D01*
X7667801Y24535556D01*
X8296633Y25164389D01*
X8305342Y25143363D01*
X8391251Y25014792D01*
X8500592Y24905451D01*
X8629163Y24819542D01*
X8650186Y24810834D01*
X8021354Y24182003D01*
X8028157Y24176193D01*
X8249599Y24040493D01*
X8249602Y24040491D01*
X8489537Y23941107D01*
X8489554Y23941102D01*
X8742088Y23880475D01*
X8742087Y23880475D01*
X9001000Y23860099D01*
X9259912Y23880475D01*
X9512445Y23941102D01*
X9512462Y23941107D01*
X9752397Y24040491D01*
X9752400Y24040493D01*
X9973844Y24176195D01*
X9980644Y24182003D01*
X9917447Y24245200D01*
X13755901Y24245200D01*
X13774252Y24058869D01*
X13774253Y24058867D01*
X13828604Y23879698D01*
X13916862Y23714577D01*
X13916864Y23714574D01*
X14035642Y23569843D01*
X14180373Y23451065D01*
X14180376Y23451063D01*
X14334799Y23368523D01*
X14345499Y23362804D01*
X14500931Y23315654D01*
X14524666Y23308454D01*
X14524668Y23308453D01*
X14541374Y23306808D01*
X14711000Y23290101D01*
X14897331Y23308453D01*
X15076501Y23362804D01*
X15241625Y23451064D01*
X15386357Y23569843D01*
X15429161Y23621999D01*
X31957118Y23621999D01*
X31977755Y23465240D01*
X31977756Y23465238D01*
X32030011Y23339082D01*
X32038264Y23319159D01*
X32134518Y23193718D01*
X32259959Y23097464D01*
X32406038Y23036956D01*
X32484419Y23026637D01*
X32562799Y23016318D01*
X32562800Y23016318D01*
X32562801Y23016318D01*
X32615054Y23023198D01*
X32719562Y23036956D01*
X32865641Y23097464D01*
X32991082Y23193718D01*
X33087336Y23319159D01*
X33147844Y23465238D01*
X33167201Y23612266D01*
X33168482Y23621999D01*
X33168482Y23622002D01*
X33147844Y23778761D01*
X33147844Y23778762D01*
X33087336Y23924841D01*
X32991082Y24050282D01*
X32953397Y24079199D01*
X36108918Y24079199D01*
X36129555Y23922440D01*
X36129556Y23922438D01*
X36189068Y23778762D01*
X36190064Y23776359D01*
X36286318Y23650918D01*
X36411759Y23554664D01*
X36557838Y23494156D01*
X36636219Y23483837D01*
X36714599Y23473518D01*
X36714600Y23473518D01*
X36714601Y23473518D01*
X36766854Y23480398D01*
X36871362Y23494156D01*
X37017441Y23554664D01*
X37051139Y23580521D01*
X53339000Y23580521D01*
X53367666Y23436408D01*
X53367669Y23436396D01*
X53423899Y23300643D01*
X53423906Y23300630D01*
X53505543Y23178453D01*
X53505546Y23178449D01*
X53609448Y23074547D01*
X53609452Y23074544D01*
X53731629Y22992907D01*
X53731642Y22992900D01*
X53867395Y22936670D01*
X53867400Y22936668D01*
X53999967Y22910299D01*
X54011520Y22908001D01*
X54011524Y22908000D01*
X54011525Y22908000D01*
X54158476Y22908000D01*
X54158477Y22908001D01*
X54302600Y22936668D01*
X54438364Y22992903D01*
X54560548Y23074544D01*
X54664456Y23178452D01*
X54746097Y23300636D01*
X54802332Y23436400D01*
X54831000Y23580525D01*
X54831000Y23687000D01*
X86679627Y23687000D01*
X86698271Y23497692D01*
X86753493Y23315650D01*
X86843160Y23147896D01*
X86843164Y23147889D01*
X86963842Y23000843D01*
X87110888Y22880165D01*
X87110895Y22880161D01*
X87278649Y22790494D01*
X87278651Y22790494D01*
X87278654Y22790492D01*
X87460690Y22735272D01*
X87650000Y22716627D01*
X87839310Y22735272D01*
X88021346Y22790492D01*
X88189110Y22880164D01*
X88336157Y23000843D01*
X88456836Y23147890D01*
X88538195Y23300101D01*
X88546506Y23315650D01*
X88546506Y23315651D01*
X88546508Y23315654D01*
X88601728Y23497690D01*
X88620373Y23687000D01*
X88601728Y23876310D01*
X88546508Y24058346D01*
X88546506Y24058349D01*
X88546506Y24058351D01*
X88456839Y24226105D01*
X88456835Y24226112D01*
X88336157Y24373158D01*
X88189111Y24493836D01*
X88189104Y24493840D01*
X88032321Y24577642D01*
X87982477Y24626604D01*
X87967016Y24694742D01*
X87990847Y24760421D01*
X88032321Y24796358D01*
X88122122Y24844359D01*
X88189110Y24880164D01*
X88336157Y25000843D01*
X88456836Y25147890D01*
X88530777Y25286224D01*
X88546506Y25315650D01*
X88546506Y25315651D01*
X88546508Y25315654D01*
X88601728Y25497690D01*
X88620373Y25687000D01*
X88601728Y25876310D01*
X88546508Y26058346D01*
X88546506Y26058349D01*
X88546506Y26058351D01*
X88456839Y26226105D01*
X88456835Y26226112D01*
X88336157Y26373158D01*
X88189111Y26493836D01*
X88189104Y26493840D01*
X88021350Y26583507D01*
X87839308Y26638729D01*
X87650000Y26657373D01*
X87460691Y26638729D01*
X87278649Y26583507D01*
X87110895Y26493840D01*
X87110888Y26493836D01*
X86963842Y26373158D01*
X86843164Y26226112D01*
X86843160Y26226105D01*
X86753493Y26058351D01*
X86698271Y25876309D01*
X86679627Y25687000D01*
X86698271Y25497692D01*
X86753493Y25315650D01*
X86843160Y25147896D01*
X86843164Y25147889D01*
X86963842Y25000843D01*
X87110888Y24880165D01*
X87110895Y24880160D01*
X87267678Y24796358D01*
X87317523Y24747396D01*
X87332983Y24679258D01*
X87309151Y24613578D01*
X87267678Y24577642D01*
X87110895Y24493841D01*
X87110888Y24493836D01*
X86963842Y24373158D01*
X86843164Y24226112D01*
X86843160Y24226105D01*
X86753493Y24058351D01*
X86698271Y23876309D01*
X86679627Y23687000D01*
X54831000Y23687000D01*
X54831000Y23727475D01*
X54802332Y23871600D01*
X54802330Y23871605D01*
X54746100Y24007358D01*
X54746093Y24007371D01*
X54664456Y24129548D01*
X54664453Y24129552D01*
X54560551Y24233454D01*
X54560547Y24233457D01*
X54438370Y24315094D01*
X54438357Y24315101D01*
X54302604Y24371331D01*
X54302592Y24371334D01*
X54158479Y24400000D01*
X54158475Y24400000D01*
X54011525Y24400000D01*
X54011520Y24400000D01*
X53867407Y24371334D01*
X53867395Y24371331D01*
X53731642Y24315101D01*
X53731629Y24315094D01*
X53609452Y24233457D01*
X53609448Y24233454D01*
X53505546Y24129552D01*
X53505543Y24129548D01*
X53423906Y24007371D01*
X53423899Y24007358D01*
X53367669Y23871605D01*
X53367666Y23871593D01*
X53339000Y23727480D01*
X53339000Y23580521D01*
X37051139Y23580521D01*
X37142882Y23650918D01*
X37239136Y23776359D01*
X37299644Y23922438D01*
X37320282Y24079200D01*
X37299644Y24235962D01*
X37266945Y24314904D01*
X37900718Y24314904D01*
X37921355Y24158145D01*
X37921356Y24158143D01*
X37966033Y24050282D01*
X37981864Y24012064D01*
X38078118Y23886623D01*
X38203559Y23790369D01*
X38349638Y23729861D01*
X38367762Y23727475D01*
X38506399Y23709223D01*
X38506400Y23709223D01*
X38506401Y23709223D01*
X38558654Y23716103D01*
X38663162Y23729861D01*
X38809241Y23790369D01*
X38934682Y23886623D01*
X39030936Y24012064D01*
X39091444Y24158143D01*
X39112082Y24314905D01*
X39108863Y24339353D01*
X39091444Y24471666D01*
X39091444Y24471667D01*
X39030936Y24617746D01*
X38934682Y24743187D01*
X38809241Y24839441D01*
X38710934Y24880161D01*
X38663162Y24899949D01*
X38663160Y24899950D01*
X38506401Y24920587D01*
X38506399Y24920587D01*
X38349639Y24899950D01*
X38349637Y24899949D01*
X38203560Y24839442D01*
X38078118Y24743187D01*
X37981863Y24617745D01*
X37921356Y24471668D01*
X37921355Y24471666D01*
X37900718Y24314907D01*
X37900718Y24314904D01*
X37266945Y24314904D01*
X37239136Y24382041D01*
X37142882Y24507482D01*
X37017441Y24603736D01*
X37000621Y24610703D01*
X36871362Y24664244D01*
X36871360Y24664245D01*
X36714601Y24684882D01*
X36714599Y24684882D01*
X36557839Y24664245D01*
X36557837Y24664244D01*
X36411760Y24603737D01*
X36286318Y24507482D01*
X36190063Y24382040D01*
X36129556Y24235963D01*
X36129555Y24235961D01*
X36108918Y24079202D01*
X36108918Y24079199D01*
X32953397Y24079199D01*
X32865641Y24146536D01*
X32837619Y24158143D01*
X32719562Y24207044D01*
X32719560Y24207045D01*
X32562801Y24227682D01*
X32562799Y24227682D01*
X32406039Y24207045D01*
X32406037Y24207044D01*
X32259960Y24146537D01*
X32134518Y24050282D01*
X32038263Y23924840D01*
X31977756Y23778763D01*
X31977755Y23778761D01*
X31957118Y23622002D01*
X31957118Y23621999D01*
X15429161Y23621999D01*
X15505136Y23714575D01*
X15593396Y23879699D01*
X15647747Y24058869D01*
X15666099Y24245200D01*
X15647747Y24431531D01*
X15593396Y24610701D01*
X15578415Y24638728D01*
X15505137Y24775824D01*
X15505135Y24775827D01*
X15386357Y24920558D01*
X15241626Y25039336D01*
X15241623Y25039338D01*
X15076502Y25127596D01*
X14897333Y25181947D01*
X14897331Y25181948D01*
X14711000Y25200299D01*
X14524668Y25181948D01*
X14524666Y25181947D01*
X14345497Y25127596D01*
X14180376Y25039338D01*
X14180373Y25039336D01*
X14035642Y24920558D01*
X13916864Y24775827D01*
X13916862Y24775824D01*
X13828604Y24610703D01*
X13774253Y24431534D01*
X13774252Y24431532D01*
X13755901Y24245200D01*
X9917447Y24245200D01*
X9351813Y24810834D01*
X9372837Y24819542D01*
X9501408Y24905451D01*
X9610749Y25014792D01*
X9696658Y25143363D01*
X9705366Y25164387D01*
X10334197Y24535556D01*
X10340005Y24542356D01*
X10475707Y24763800D01*
X10475709Y24763803D01*
X10575093Y25003738D01*
X10575098Y25003755D01*
X10635725Y25256288D01*
X10656101Y25515200D01*
X10635725Y25774113D01*
X10595660Y25940999D01*
X37731318Y25940999D01*
X37751955Y25784240D01*
X37751956Y25784238D01*
X37812464Y25638159D01*
X37908718Y25512718D01*
X38034159Y25416464D01*
X38180238Y25355956D01*
X38258619Y25345637D01*
X38336999Y25335318D01*
X38337000Y25335318D01*
X38337001Y25335318D01*
X38389254Y25342198D01*
X38493762Y25355956D01*
X38639841Y25416464D01*
X38765282Y25512718D01*
X38861536Y25638159D01*
X38922044Y25784238D01*
X38942682Y25941000D01*
X38922044Y26097762D01*
X38861536Y26243841D01*
X38765282Y26369282D01*
X38661392Y26448999D01*
X45164318Y26448999D01*
X45184955Y26292240D01*
X45184956Y26292238D01*
X45245464Y26146159D01*
X45341718Y26020718D01*
X45467159Y25924464D01*
X45613238Y25863956D01*
X45691619Y25853637D01*
X45769999Y25843318D01*
X45770000Y25843318D01*
X45770001Y25843318D01*
X45822254Y25850198D01*
X45926762Y25863956D01*
X46072841Y25924464D01*
X46198282Y26020718D01*
X46294536Y26146159D01*
X46355044Y26292238D01*
X46375682Y26449000D01*
X46355044Y26605762D01*
X46294536Y26751841D01*
X46198282Y26877282D01*
X46072841Y26973536D01*
X45926762Y27034044D01*
X45926760Y27034045D01*
X45770001Y27054682D01*
X45769999Y27054682D01*
X45613239Y27034045D01*
X45613237Y27034044D01*
X45467160Y26973537D01*
X45341718Y26877282D01*
X45245463Y26751840D01*
X45184956Y26605763D01*
X45184955Y26605761D01*
X45164318Y26449002D01*
X45164318Y26448999D01*
X38661392Y26448999D01*
X38639841Y26465536D01*
X38585504Y26488043D01*
X38493762Y26526044D01*
X38493760Y26526045D01*
X38337001Y26546682D01*
X38336999Y26546682D01*
X38180239Y26526045D01*
X38180237Y26526044D01*
X38034160Y26465537D01*
X37908718Y26369282D01*
X37812463Y26243840D01*
X37751956Y26097763D01*
X37751955Y26097761D01*
X37731318Y25941002D01*
X37731318Y25940999D01*
X10595660Y25940999D01*
X10575098Y26026646D01*
X10575093Y26026663D01*
X10475709Y26266598D01*
X10475707Y26266601D01*
X10340007Y26488043D01*
X10334197Y26494846D01*
X9705365Y25866015D01*
X9696658Y25887037D01*
X9610749Y26015608D01*
X9501408Y26124949D01*
X9372837Y26210858D01*
X9351813Y26219567D01*
X9980645Y26848399D01*
X9973843Y26854207D01*
X9973842Y26854208D01*
X9752400Y26989908D01*
X9752397Y26989910D01*
X9525245Y27083999D01*
X33159318Y27083999D01*
X33179955Y26927240D01*
X33179956Y26927238D01*
X33240464Y26781159D01*
X33336718Y26655718D01*
X33462159Y26559464D01*
X33608238Y26498956D01*
X33686619Y26488637D01*
X33764999Y26478318D01*
X33765000Y26478318D01*
X33765001Y26478318D01*
X33838884Y26488045D01*
X33921762Y26498956D01*
X34067841Y26559464D01*
X34193282Y26655718D01*
X34289536Y26781159D01*
X34350044Y26927238D01*
X34370682Y27084000D01*
X34369984Y27089299D01*
X34350044Y27240761D01*
X34350044Y27240762D01*
X34289536Y27386841D01*
X34229563Y27464999D01*
X56087118Y27464999D01*
X56107755Y27308240D01*
X56107756Y27308238D01*
X56135705Y27240762D01*
X56168264Y27162159D01*
X56264518Y27036718D01*
X56389959Y26940464D01*
X56536038Y26879956D01*
X56614419Y26869637D01*
X56692799Y26859318D01*
X56692800Y26859318D01*
X56692801Y26859318D01*
X56745054Y26866198D01*
X56849562Y26879956D01*
X56995641Y26940464D01*
X57121082Y27036718D01*
X57217336Y27162159D01*
X57277844Y27308238D01*
X57298482Y27465000D01*
X57277844Y27621762D01*
X57217336Y27767841D01*
X57121082Y27893282D01*
X56995641Y27989536D01*
X56849562Y28050044D01*
X56849560Y28050045D01*
X56692801Y28070682D01*
X56692799Y28070682D01*
X56536039Y28050045D01*
X56536037Y28050044D01*
X56389960Y27989537D01*
X56264518Y27893282D01*
X56168263Y27767840D01*
X56107756Y27621763D01*
X56107755Y27621761D01*
X56087118Y27465002D01*
X56087118Y27464999D01*
X34229563Y27464999D01*
X34193282Y27512282D01*
X34067841Y27608536D01*
X34035908Y27621763D01*
X33921762Y27669044D01*
X33921760Y27669045D01*
X33765001Y27689682D01*
X33764999Y27689682D01*
X33608239Y27669045D01*
X33608237Y27669044D01*
X33462160Y27608537D01*
X33336718Y27512282D01*
X33240463Y27386840D01*
X33179956Y27240763D01*
X33179955Y27240761D01*
X33159318Y27084002D01*
X33159318Y27083999D01*
X9525245Y27083999D01*
X9512462Y27089294D01*
X9512445Y27089299D01*
X9259911Y27149926D01*
X9259912Y27149926D01*
X9001000Y27170302D01*
X8742087Y27149926D01*
X8489554Y27089299D01*
X8489537Y27089294D01*
X8249602Y26989910D01*
X8249599Y26989908D01*
X8028155Y26854207D01*
X8021353Y26848400D01*
X8650186Y26219567D01*
X8629163Y26210858D01*
X8500592Y26124949D01*
X8391251Y26015608D01*
X8305342Y25887037D01*
X8296633Y25866014D01*
X7667800Y26494847D01*
X7661993Y26488045D01*
X7526292Y26266601D01*
X7526290Y26266598D01*
X7426906Y26026663D01*
X7426901Y26026646D01*
X7366274Y25774113D01*
X7345898Y25515200D01*
X6174324Y25515200D01*
X5937677Y25578609D01*
X5896939Y25583973D01*
X5693934Y25610700D01*
X5693927Y25610700D01*
X5448073Y25610700D01*
X5448065Y25610700D01*
X5216059Y25580155D01*
X5204323Y25578609D01*
X4967679Y25515201D01*
X4966847Y25514978D01*
X4966837Y25514975D01*
X4739714Y25420897D01*
X4739705Y25420893D01*
X4526787Y25297964D01*
X4331745Y25148303D01*
X4331738Y25148297D01*
X4157903Y24974462D01*
X4157897Y24974455D01*
X4008236Y24779413D01*
X4008233Y24779409D01*
X4008233Y24779408D01*
X3999222Y24763800D01*
X3885307Y24566495D01*
X3885303Y24566486D01*
X3791225Y24339363D01*
X3791222Y24339353D01*
X3735006Y24129548D01*
X3727592Y24101880D01*
X3727590Y24101869D01*
X3695500Y23858135D01*
X3695500Y23612266D01*
X250500Y23612266D01*
X250500Y28143199D01*
X15243918Y28143199D01*
X15264555Y27986440D01*
X15264556Y27986438D01*
X15303142Y27893282D01*
X15325064Y27840359D01*
X15421318Y27714918D01*
X15546759Y27618664D01*
X15692838Y27558156D01*
X15727574Y27553583D01*
X15849599Y27537518D01*
X15849600Y27537518D01*
X15849601Y27537518D01*
X15901854Y27544398D01*
X16006362Y27558156D01*
X16152441Y27618664D01*
X16277882Y27714918D01*
X16374136Y27840359D01*
X16434644Y27986438D01*
X16455282Y28143200D01*
X16449516Y28187000D01*
X86383179Y28187000D01*
X86402424Y27967024D01*
X86402426Y27967014D01*
X86459575Y27753730D01*
X86459580Y27753716D01*
X86552898Y27553595D01*
X86552901Y27553589D01*
X86598258Y27488813D01*
X86598259Y27488812D01*
X87199697Y28090251D01*
X87221349Y28009447D01*
X87281909Y27904554D01*
X87367554Y27818909D01*
X87472447Y27758349D01*
X87553249Y27736698D01*
X86951810Y27135260D01*
X87016590Y27089901D01*
X87016592Y27089900D01*
X87216715Y26996581D01*
X87216729Y26996576D01*
X87430013Y26939427D01*
X87430023Y26939425D01*
X87649999Y26920179D01*
X87650001Y26920179D01*
X87869976Y26939425D01*
X87869986Y26939427D01*
X88083270Y26996576D01*
X88083284Y26996581D01*
X88283407Y27089900D01*
X88283417Y27089906D01*
X88348188Y27135259D01*
X87746750Y27736698D01*
X87827553Y27758349D01*
X87932446Y27818909D01*
X88018091Y27904554D01*
X88078651Y28009447D01*
X88100302Y28090251D01*
X88701741Y27488812D01*
X88747094Y27553583D01*
X88747100Y27553593D01*
X88840419Y27753716D01*
X88840424Y27753730D01*
X88897573Y27967014D01*
X88897575Y27967024D01*
X88916821Y28187000D01*
X88916821Y28187001D01*
X88897575Y28406977D01*
X88897573Y28406987D01*
X88840424Y28620271D01*
X88840420Y28620280D01*
X88747096Y28820414D01*
X88701741Y28885189D01*
X88701740Y28885190D01*
X88100302Y28283751D01*
X88078651Y28364553D01*
X88018091Y28469446D01*
X87932446Y28555091D01*
X87827553Y28615651D01*
X87746750Y28637303D01*
X88348188Y29238741D01*
X88348187Y29238742D01*
X88283411Y29284099D01*
X88283405Y29284102D01*
X88083284Y29377420D01*
X88083270Y29377425D01*
X87869986Y29434574D01*
X87869976Y29434576D01*
X87650001Y29453821D01*
X87649999Y29453821D01*
X87430023Y29434576D01*
X87430013Y29434574D01*
X87216729Y29377425D01*
X87216720Y29377421D01*
X87016590Y29284099D01*
X86951811Y29238742D01*
X87553250Y28637303D01*
X87472447Y28615651D01*
X87367554Y28555091D01*
X87281909Y28469446D01*
X87221349Y28364553D01*
X87199697Y28283750D01*
X86598258Y28885189D01*
X86552901Y28820410D01*
X86459579Y28620280D01*
X86459575Y28620271D01*
X86402426Y28406987D01*
X86402424Y28406977D01*
X86383179Y28187001D01*
X86383179Y28187000D01*
X16449516Y28187000D01*
X16434644Y28299962D01*
X16374136Y28446041D01*
X16277882Y28571482D01*
X16152441Y28667736D01*
X16006362Y28728244D01*
X16006360Y28728245D01*
X15849601Y28748882D01*
X15849599Y28748882D01*
X15692839Y28728245D01*
X15692837Y28728244D01*
X15546760Y28667737D01*
X15421318Y28571482D01*
X15325063Y28446040D01*
X15264556Y28299963D01*
X15264555Y28299961D01*
X15243918Y28143202D01*
X15243918Y28143199D01*
X250500Y28143199D01*
X250500Y29831154D01*
X24028100Y29831154D01*
X24058861Y29676511D01*
X24058864Y29676499D01*
X24119202Y29530828D01*
X24119209Y29530815D01*
X24206810Y29399712D01*
X24206813Y29399708D01*
X24318307Y29288214D01*
X24318311Y29288211D01*
X24449414Y29200610D01*
X24449427Y29200603D01*
X24595098Y29140265D01*
X24595103Y29140263D01*
X24749753Y29109501D01*
X24749756Y29109500D01*
X24749758Y29109500D01*
X25457444Y29109500D01*
X25457445Y29109501D01*
X25612097Y29140263D01*
X25757779Y29200606D01*
X25888889Y29288211D01*
X25970677Y29369999D01*
X56019318Y29369999D01*
X56039955Y29213240D01*
X56039956Y29213238D01*
X56100464Y29067159D01*
X56196718Y28941718D01*
X56322159Y28845464D01*
X56468238Y28784956D01*
X56546619Y28774637D01*
X56624999Y28764318D01*
X56625000Y28764318D01*
X56625001Y28764318D01*
X56677254Y28771198D01*
X56781762Y28784956D01*
X56927841Y28845464D01*
X57053282Y28941718D01*
X57149536Y29067159D01*
X57210044Y29213238D01*
X57230682Y29370000D01*
X57229704Y29377425D01*
X57210044Y29526761D01*
X57210044Y29526762D01*
X57149536Y29672841D01*
X57053282Y29798282D01*
X56927841Y29894536D01*
X56781762Y29955044D01*
X56781760Y29955045D01*
X56625001Y29975682D01*
X56624999Y29975682D01*
X56468239Y29955045D01*
X56468237Y29955044D01*
X56322160Y29894537D01*
X56196718Y29798282D01*
X56100463Y29672840D01*
X56039956Y29526763D01*
X56039955Y29526761D01*
X56019318Y29370002D01*
X56019318Y29369999D01*
X25970677Y29369999D01*
X26000389Y29399711D01*
X26087994Y29530821D01*
X26148337Y29676503D01*
X26179100Y29831158D01*
X26179100Y29988842D01*
X26179100Y29988845D01*
X26179099Y29988847D01*
X26161850Y30075561D01*
X26148337Y30143497D01*
X26115970Y30221638D01*
X26087997Y30289173D01*
X26087990Y30289186D01*
X26028379Y30378399D01*
X39780318Y30378399D01*
X39800955Y30221640D01*
X39800956Y30221638D01*
X39861464Y30075559D01*
X39957718Y29950118D01*
X40083159Y29853864D01*
X40229238Y29793356D01*
X40307619Y29783037D01*
X40385999Y29772718D01*
X40386000Y29772718D01*
X40386001Y29772718D01*
X40438254Y29779598D01*
X40542762Y29793356D01*
X40688841Y29853864D01*
X40814282Y29950118D01*
X40910536Y30075559D01*
X40971044Y30221638D01*
X40991682Y30378400D01*
X40989613Y30394112D01*
X40971044Y30535161D01*
X40971044Y30535162D01*
X40910536Y30681241D01*
X40814282Y30806682D01*
X40688841Y30902936D01*
X40687607Y30903447D01*
X40542762Y30963444D01*
X40542760Y30963445D01*
X40386001Y30984082D01*
X40385999Y30984082D01*
X40229239Y30963445D01*
X40229237Y30963444D01*
X40083160Y30902937D01*
X39957718Y30806682D01*
X39861463Y30681240D01*
X39800956Y30535163D01*
X39800955Y30535161D01*
X39780318Y30378402D01*
X39780318Y30378399D01*
X26028379Y30378399D01*
X26000389Y30420289D01*
X26000386Y30420293D01*
X25888892Y30531787D01*
X25888888Y30531790D01*
X25757785Y30619391D01*
X25757772Y30619398D01*
X25612101Y30679736D01*
X25612089Y30679739D01*
X25457445Y30710500D01*
X25457442Y30710500D01*
X24749758Y30710500D01*
X24749755Y30710500D01*
X24595110Y30679739D01*
X24595098Y30679736D01*
X24449427Y30619398D01*
X24449414Y30619391D01*
X24318311Y30531790D01*
X24318307Y30531787D01*
X24206813Y30420293D01*
X24206810Y30420289D01*
X24119209Y30289186D01*
X24119202Y30289173D01*
X24058864Y30143502D01*
X24058861Y30143490D01*
X24028100Y29988847D01*
X24028100Y29831154D01*
X250500Y29831154D01*
X250500Y32290999D01*
X14871318Y32290999D01*
X14891955Y32134240D01*
X14891956Y32134238D01*
X14945001Y32006175D01*
X14952464Y31988159D01*
X15048718Y31862718D01*
X15174159Y31766464D01*
X15320238Y31705956D01*
X15377275Y31698447D01*
X15476999Y31685318D01*
X15477000Y31685318D01*
X15477001Y31685318D01*
X15529254Y31692198D01*
X15633762Y31705956D01*
X15779841Y31766464D01*
X15864147Y31831154D01*
X24028100Y31831154D01*
X24058861Y31676511D01*
X24058864Y31676499D01*
X24119202Y31530828D01*
X24119209Y31530815D01*
X24206810Y31399712D01*
X24206813Y31399708D01*
X24318307Y31288214D01*
X24318311Y31288211D01*
X24449414Y31200610D01*
X24449427Y31200603D01*
X24535488Y31164956D01*
X24595103Y31140263D01*
X24749753Y31109501D01*
X24749756Y31109500D01*
X24749758Y31109500D01*
X25457444Y31109500D01*
X25457445Y31109501D01*
X25612097Y31140263D01*
X25757779Y31200606D01*
X25888889Y31288211D01*
X26000389Y31399711D01*
X26087994Y31530821D01*
X26148337Y31676503D01*
X26162956Y31749999D01*
X38662718Y31749999D01*
X38683355Y31593240D01*
X38683356Y31593238D01*
X38743864Y31447159D01*
X38840118Y31321718D01*
X38965559Y31225464D01*
X39111638Y31164956D01*
X39190019Y31154637D01*
X39268399Y31144318D01*
X39268400Y31144318D01*
X39268401Y31144318D01*
X39320654Y31151198D01*
X39425162Y31164956D01*
X39571241Y31225464D01*
X39612340Y31257000D01*
X88105172Y31257000D01*
X88124462Y30962688D01*
X88124464Y30962676D01*
X88182001Y30673416D01*
X88182005Y30673401D01*
X88276812Y30394112D01*
X88407258Y30129594D01*
X88407265Y30129581D01*
X88571123Y29884351D01*
X88600405Y29850960D01*
X89387912Y30638468D01*
X89482829Y30507825D01*
X89610825Y30379829D01*
X89741465Y30284914D01*
X88953958Y29497407D01*
X88987350Y29468124D01*
X89232580Y29304266D01*
X89232593Y29304259D01*
X89497111Y29173813D01*
X89776400Y29079006D01*
X89776415Y29079002D01*
X90065675Y29021465D01*
X90065687Y29021463D01*
X90360000Y29002173D01*
X90654312Y29021463D01*
X90654324Y29021465D01*
X90943584Y29079002D01*
X90943599Y29079006D01*
X91222888Y29173813D01*
X91487406Y29304259D01*
X91487419Y29304266D01*
X91732648Y29468123D01*
X91766039Y29497407D01*
X90978533Y30284914D01*
X91109175Y30379829D01*
X91237171Y30507825D01*
X91332087Y30638467D01*
X92119593Y29850961D01*
X92148877Y29884352D01*
X92312734Y30129581D01*
X92312741Y30129594D01*
X92443187Y30394112D01*
X92537994Y30673401D01*
X92537998Y30673416D01*
X92595535Y30962676D01*
X92595537Y30962688D01*
X92614827Y31257000D01*
X92595537Y31551313D01*
X92595535Y31551325D01*
X92537998Y31840585D01*
X92537994Y31840600D01*
X92443187Y32119889D01*
X92312741Y32384407D01*
X92312734Y32384420D01*
X92148876Y32629650D01*
X92119593Y32663042D01*
X91332086Y31875535D01*
X91237171Y32006175D01*
X91109175Y32134171D01*
X90978533Y32229088D01*
X91766040Y33016595D01*
X91732649Y33045877D01*
X91487419Y33209735D01*
X91487406Y33209742D01*
X91222888Y33340188D01*
X90943599Y33434995D01*
X90943584Y33434999D01*
X90654324Y33492536D01*
X90654312Y33492538D01*
X90360000Y33511828D01*
X90065687Y33492538D01*
X90065675Y33492536D01*
X89776415Y33434999D01*
X89776400Y33434995D01*
X89497111Y33340188D01*
X89232593Y33209742D01*
X89232580Y33209735D01*
X88987346Y33045874D01*
X88987339Y33045869D01*
X88953959Y33016597D01*
X88953959Y33016595D01*
X89741466Y32229088D01*
X89610825Y32134171D01*
X89482829Y32006175D01*
X89387913Y31875534D01*
X88600405Y32663041D01*
X88600403Y32663041D01*
X88571131Y32629661D01*
X88571126Y32629654D01*
X88407265Y32384420D01*
X88407258Y32384407D01*
X88276812Y32119889D01*
X88182005Y31840600D01*
X88182001Y31840585D01*
X88124464Y31551325D01*
X88124462Y31551313D01*
X88105172Y31257000D01*
X39612340Y31257000D01*
X39696682Y31321718D01*
X39792936Y31447159D01*
X39853444Y31593238D01*
X39874082Y31750000D01*
X39871914Y31766464D01*
X39853444Y31906761D01*
X39853444Y31906762D01*
X39792936Y32052841D01*
X39707642Y32163999D01*
X58575476Y32163999D01*
X58596113Y32007240D01*
X58596114Y32007238D01*
X58637732Y31906762D01*
X58656622Y31861159D01*
X58752876Y31735718D01*
X58878317Y31639464D01*
X59024396Y31578956D01*
X59102777Y31568637D01*
X59181157Y31558318D01*
X59181158Y31558318D01*
X59181159Y31558318D01*
X59233412Y31565198D01*
X59337920Y31578956D01*
X59483999Y31639464D01*
X59609440Y31735718D01*
X59705694Y31861159D01*
X59766202Y32007238D01*
X59786840Y32164000D01*
X59766202Y32320762D01*
X59705694Y32466841D01*
X59609440Y32592282D01*
X59483999Y32688536D01*
X59430973Y32710500D01*
X59337920Y32749044D01*
X59337918Y32749045D01*
X59181159Y32769682D01*
X59181157Y32769682D01*
X59024397Y32749045D01*
X59024395Y32749044D01*
X58878318Y32688537D01*
X58752876Y32592282D01*
X58656621Y32466840D01*
X58596114Y32320763D01*
X58596113Y32320761D01*
X58575476Y32164002D01*
X58575476Y32163999D01*
X39707642Y32163999D01*
X39696682Y32178282D01*
X39571241Y32274536D01*
X39535904Y32289173D01*
X39425162Y32335044D01*
X39425160Y32335045D01*
X39268401Y32355682D01*
X39268399Y32355682D01*
X39111639Y32335045D01*
X39111637Y32335044D01*
X38965560Y32274537D01*
X38840118Y32178282D01*
X38743863Y32052840D01*
X38683356Y31906763D01*
X38683355Y31906761D01*
X38662718Y31750002D01*
X38662718Y31749999D01*
X26162956Y31749999D01*
X26179100Y31831158D01*
X26179100Y31988842D01*
X26179100Y31988845D01*
X26179099Y31988847D01*
X26150192Y32134171D01*
X26148337Y32143497D01*
X26139845Y32163999D01*
X26087997Y32289173D01*
X26087990Y32289186D01*
X26000389Y32420289D01*
X26000386Y32420293D01*
X25888892Y32531787D01*
X25888888Y32531790D01*
X25757785Y32619391D01*
X25757772Y32619398D01*
X25612101Y32679736D01*
X25612089Y32679739D01*
X25457445Y32710500D01*
X25457442Y32710500D01*
X24749758Y32710500D01*
X24749755Y32710500D01*
X24595110Y32679739D01*
X24595098Y32679736D01*
X24449427Y32619398D01*
X24449414Y32619391D01*
X24318311Y32531790D01*
X24318307Y32531787D01*
X24206813Y32420293D01*
X24206810Y32420289D01*
X24119209Y32289186D01*
X24119202Y32289173D01*
X24058864Y32143502D01*
X24058861Y32143490D01*
X24028100Y31988847D01*
X24028100Y31831154D01*
X15864147Y31831154D01*
X15905282Y31862718D01*
X16001536Y31988159D01*
X16062044Y32134238D01*
X16076043Y32240568D01*
X16082682Y32290999D01*
X16082682Y32291002D01*
X16062044Y32447761D01*
X16062044Y32447762D01*
X16001536Y32593841D01*
X15905282Y32719282D01*
X15779841Y32815536D01*
X15633762Y32876044D01*
X15633760Y32876045D01*
X15477001Y32896682D01*
X15476999Y32896682D01*
X15320239Y32876045D01*
X15320237Y32876044D01*
X15174160Y32815537D01*
X15048718Y32719282D01*
X14952463Y32593840D01*
X14891956Y32447763D01*
X14891955Y32447761D01*
X14871318Y32291002D01*
X14871318Y32290999D01*
X250500Y32290999D01*
X250500Y34758000D01*
X5419538Y34758000D01*
X5439337Y34556969D01*
X5497978Y34363655D01*
X5593198Y34185512D01*
X5593203Y34185505D01*
X5721352Y34029353D01*
X5830016Y33940176D01*
X5877506Y33901202D01*
X5877509Y33901201D01*
X5877511Y33901199D01*
X6055654Y33805979D01*
X6055656Y33805979D01*
X6055659Y33805977D01*
X6248967Y33747338D01*
X6450000Y33727538D01*
X6651033Y33747338D01*
X6844341Y33805977D01*
X6891448Y33831156D01*
X7022488Y33901199D01*
X7022486Y33901199D01*
X7022494Y33901202D01*
X7178647Y34029353D01*
X7306798Y34185506D01*
X7380290Y34322999D01*
X19697318Y34322999D01*
X19717955Y34166240D01*
X19717956Y34166238D01*
X19778464Y34020159D01*
X19874718Y33894718D01*
X20000159Y33798464D01*
X20146238Y33737956D01*
X20224619Y33727637D01*
X20302999Y33717318D01*
X20303000Y33717318D01*
X20303001Y33717318D01*
X20380629Y33727538D01*
X20459762Y33737956D01*
X20605841Y33798464D01*
X20648444Y33831154D01*
X24028100Y33831154D01*
X24058861Y33676511D01*
X24058864Y33676499D01*
X24119202Y33530828D01*
X24119209Y33530815D01*
X24206810Y33399712D01*
X24206813Y33399708D01*
X24318307Y33288214D01*
X24318311Y33288211D01*
X24449414Y33200610D01*
X24449427Y33200603D01*
X24595098Y33140265D01*
X24595103Y33140263D01*
X24749753Y33109501D01*
X24749756Y33109500D01*
X24749758Y33109500D01*
X25457444Y33109500D01*
X25457445Y33109501D01*
X25612097Y33140263D01*
X25708029Y33179999D01*
X37604318Y33179999D01*
X37624955Y33023240D01*
X37624956Y33023238D01*
X37685464Y32877159D01*
X37781718Y32751718D01*
X37907159Y32655464D01*
X38053238Y32594956D01*
X38131619Y32584637D01*
X38209999Y32574318D01*
X38210000Y32574318D01*
X38210001Y32574318D01*
X38262254Y32581198D01*
X38366762Y32594956D01*
X38512841Y32655464D01*
X38638282Y32751718D01*
X38734536Y32877159D01*
X38795044Y33023238D01*
X38815682Y33180000D01*
X38811767Y33209735D01*
X38795044Y33336761D01*
X38795044Y33336762D01*
X38734536Y33482841D01*
X38638282Y33608282D01*
X38512841Y33704536D01*
X38457309Y33727538D01*
X38366762Y33765044D01*
X38366760Y33765045D01*
X38237977Y33781999D01*
X51972318Y33781999D01*
X51992955Y33625240D01*
X51992956Y33625238D01*
X52053464Y33479159D01*
X52149718Y33353718D01*
X52275159Y33257464D01*
X52421238Y33196956D01*
X52499619Y33186637D01*
X52577999Y33176318D01*
X52578000Y33176318D01*
X52578001Y33176318D01*
X52630254Y33183198D01*
X52734762Y33196956D01*
X52880841Y33257464D01*
X53006282Y33353718D01*
X53102536Y33479159D01*
X53163044Y33625238D01*
X53183682Y33782000D01*
X53183197Y33785682D01*
X53163044Y33938761D01*
X53163044Y33938762D01*
X53102536Y34084841D01*
X53006282Y34210282D01*
X52880841Y34306536D01*
X52841093Y34323000D01*
X52734762Y34367044D01*
X52734760Y34367045D01*
X52578001Y34387682D01*
X52577999Y34387682D01*
X52421239Y34367045D01*
X52421237Y34367044D01*
X52275160Y34306537D01*
X52149718Y34210282D01*
X52053463Y34084840D01*
X51992956Y33938763D01*
X51992955Y33938761D01*
X51972318Y33782002D01*
X51972318Y33781999D01*
X38237977Y33781999D01*
X38210001Y33785682D01*
X38209999Y33785682D01*
X38053239Y33765045D01*
X38053237Y33765044D01*
X37907160Y33704537D01*
X37781718Y33608282D01*
X37685463Y33482840D01*
X37624956Y33336763D01*
X37624955Y33336761D01*
X37604318Y33180002D01*
X37604318Y33179999D01*
X25708029Y33179999D01*
X25748967Y33196956D01*
X25757772Y33200603D01*
X25757772Y33200604D01*
X25757779Y33200606D01*
X25888889Y33288211D01*
X26000389Y33399711D01*
X26087994Y33530821D01*
X26148337Y33676503D01*
X26179100Y33831158D01*
X26179100Y33988842D01*
X26179100Y33988845D01*
X26179099Y33988847D01*
X26171042Y34029353D01*
X26148337Y34143497D01*
X26148335Y34143502D01*
X26087997Y34289173D01*
X26087990Y34289186D01*
X26000389Y34420289D01*
X26000386Y34420293D01*
X25888892Y34531787D01*
X25888888Y34531790D01*
X25757785Y34619391D01*
X25757772Y34619398D01*
X25612101Y34679736D01*
X25612089Y34679739D01*
X25457445Y34710500D01*
X25457442Y34710500D01*
X24749758Y34710500D01*
X24749755Y34710500D01*
X24595110Y34679739D01*
X24595098Y34679736D01*
X24449427Y34619398D01*
X24449414Y34619391D01*
X24318311Y34531790D01*
X24318307Y34531787D01*
X24206813Y34420293D01*
X24206810Y34420289D01*
X24119209Y34289186D01*
X24119202Y34289173D01*
X24058864Y34143502D01*
X24058861Y34143490D01*
X24028100Y33988847D01*
X24028100Y33831154D01*
X20648444Y33831154D01*
X20731282Y33894718D01*
X20827536Y34020159D01*
X20888044Y34166238D01*
X20904230Y34289186D01*
X20908682Y34322999D01*
X20908682Y34323002D01*
X20888044Y34479761D01*
X20888044Y34479762D01*
X20827536Y34625841D01*
X20731282Y34751282D01*
X20605841Y34847536D01*
X20459762Y34908044D01*
X20459760Y34908045D01*
X20303001Y34928682D01*
X20302999Y34928682D01*
X20146239Y34908045D01*
X20146237Y34908044D01*
X20000160Y34847537D01*
X19874718Y34751282D01*
X19778463Y34625840D01*
X19717956Y34479763D01*
X19717955Y34479761D01*
X19697318Y34323002D01*
X19697318Y34322999D01*
X7380290Y34322999D01*
X7402023Y34363659D01*
X7460662Y34556967D01*
X7480462Y34758000D01*
X7460662Y34959033D01*
X7402023Y35152341D01*
X7402021Y35152344D01*
X7402021Y35152346D01*
X7306801Y35330489D01*
X7306799Y35330491D01*
X7306798Y35330494D01*
X7249993Y35399711D01*
X7178647Y35486648D01*
X7022495Y35614797D01*
X7022488Y35614802D01*
X6844345Y35710022D01*
X6651031Y35768663D01*
X6450000Y35788462D01*
X6248968Y35768663D01*
X6055654Y35710022D01*
X5877511Y35614802D01*
X5877504Y35614797D01*
X5721352Y35486648D01*
X5593203Y35330496D01*
X5593198Y35330489D01*
X5497978Y35152346D01*
X5439337Y34959032D01*
X5419538Y34758000D01*
X250500Y34758000D01*
X250500Y35831154D01*
X24028100Y35831154D01*
X24058861Y35676511D01*
X24058864Y35676499D01*
X24119202Y35530828D01*
X24119209Y35530815D01*
X24206810Y35399712D01*
X24206813Y35399708D01*
X24318307Y35288214D01*
X24318311Y35288211D01*
X24449414Y35200610D01*
X24449427Y35200603D01*
X24565944Y35152341D01*
X24595103Y35140263D01*
X24749753Y35109501D01*
X24749756Y35109500D01*
X24749758Y35109500D01*
X25457444Y35109500D01*
X25457445Y35109501D01*
X25461960Y35110399D01*
X37705918Y35110399D01*
X37726555Y34953640D01*
X37726556Y34953638D01*
X37770504Y34847537D01*
X37787064Y34807559D01*
X37883318Y34682118D01*
X38008759Y34585864D01*
X38154838Y34525356D01*
X38233219Y34515037D01*
X38311599Y34504718D01*
X38311600Y34504718D01*
X38311601Y34504718D01*
X38363854Y34511598D01*
X38468362Y34525356D01*
X38614441Y34585864D01*
X38739882Y34682118D01*
X38836136Y34807559D01*
X38896644Y34953638D01*
X38917282Y35110400D01*
X38913350Y35140263D01*
X38896644Y35267161D01*
X38896644Y35267162D01*
X38836136Y35413241D01*
X38739882Y35538682D01*
X38614441Y35634936D01*
X38468362Y35695444D01*
X38468360Y35695445D01*
X38311601Y35716082D01*
X38311599Y35716082D01*
X38154839Y35695445D01*
X38154837Y35695444D01*
X38008760Y35634937D01*
X37883318Y35538682D01*
X37787063Y35413240D01*
X37726556Y35267163D01*
X37726555Y35267161D01*
X37705918Y35110402D01*
X37705918Y35110399D01*
X25461960Y35110399D01*
X25612097Y35140263D01*
X25757779Y35200606D01*
X25888889Y35288211D01*
X26000389Y35399711D01*
X26087994Y35530821D01*
X26148337Y35676503D01*
X26179100Y35831158D01*
X26179100Y35988842D01*
X26179100Y35988845D01*
X26179099Y35988847D01*
X26148338Y36143490D01*
X26148337Y36143497D01*
X26145247Y36150957D01*
X26087997Y36289173D01*
X26087990Y36289186D01*
X26000389Y36420289D01*
X26000386Y36420293D01*
X25888892Y36531787D01*
X25888888Y36531790D01*
X25757785Y36619391D01*
X25757772Y36619398D01*
X25612101Y36679736D01*
X25612089Y36679739D01*
X25457445Y36710500D01*
X25457442Y36710500D01*
X24749758Y36710500D01*
X24749755Y36710500D01*
X24595110Y36679739D01*
X24595098Y36679736D01*
X24449427Y36619398D01*
X24449414Y36619391D01*
X24318311Y36531790D01*
X24318307Y36531787D01*
X24206813Y36420293D01*
X24206810Y36420289D01*
X24119209Y36289186D01*
X24119202Y36289173D01*
X24058864Y36143502D01*
X24058861Y36143490D01*
X24028100Y35988847D01*
X24028100Y35831154D01*
X250500Y35831154D01*
X250500Y38965156D01*
X5125000Y38965156D01*
X5131401Y38905628D01*
X5131403Y38905621D01*
X5181645Y38770914D01*
X5181649Y38770907D01*
X5267809Y38655813D01*
X5267812Y38655810D01*
X5382906Y38569650D01*
X5382913Y38569646D01*
X5517620Y38519404D01*
X5517627Y38519402D01*
X5577155Y38513001D01*
X5577172Y38513000D01*
X6086639Y38513000D01*
X6153678Y38493315D01*
X6199433Y38440511D01*
X6209377Y38371353D01*
X6180352Y38307797D01*
X6122635Y38270340D01*
X6088843Y38260090D01*
X6055654Y38250022D01*
X5877511Y38154802D01*
X5877504Y38154797D01*
X5721352Y38026648D01*
X5593203Y37870496D01*
X5593198Y37870489D01*
X5497978Y37692346D01*
X5439337Y37499032D01*
X5419538Y37298000D01*
X5439337Y37096969D01*
X5497978Y36903655D01*
X5593198Y36725512D01*
X5593203Y36725505D01*
X5721352Y36569353D01*
X5767127Y36531787D01*
X5877506Y36441202D01*
X5877509Y36441201D01*
X5877511Y36441199D01*
X6055654Y36345979D01*
X6055656Y36345979D01*
X6055659Y36345977D01*
X6248967Y36287338D01*
X6450000Y36267538D01*
X6651033Y36287338D01*
X6844341Y36345977D01*
X7022494Y36441202D01*
X7178647Y36569353D01*
X7306798Y36725506D01*
X7312407Y36735999D01*
X49542318Y36735999D01*
X49562955Y36579240D01*
X49562956Y36579238D01*
X49620131Y36441204D01*
X49623464Y36433159D01*
X49719718Y36307718D01*
X49845159Y36211464D01*
X49991238Y36150956D01*
X50047857Y36143502D01*
X50147999Y36130318D01*
X50148000Y36130318D01*
X50148001Y36130318D01*
X50200254Y36137198D01*
X50304762Y36150956D01*
X50450841Y36211464D01*
X50576282Y36307718D01*
X50672536Y36433159D01*
X50733044Y36579238D01*
X50752300Y36725505D01*
X50753682Y36735999D01*
X50753682Y36736002D01*
X50733044Y36892761D01*
X50733044Y36892762D01*
X50672536Y37038841D01*
X50576282Y37164282D01*
X50450841Y37260536D01*
X50304762Y37321044D01*
X50304760Y37321045D01*
X50148001Y37341682D01*
X50147999Y37341682D01*
X49991239Y37321045D01*
X49991237Y37321044D01*
X49845160Y37260537D01*
X49719718Y37164282D01*
X49623463Y37038840D01*
X49562956Y36892763D01*
X49562955Y36892761D01*
X49542318Y36736002D01*
X49542318Y36735999D01*
X7312407Y36735999D01*
X7396198Y36892761D01*
X7402021Y36903655D01*
X7402021Y36903656D01*
X7402023Y36903659D01*
X7460662Y37096967D01*
X7480462Y37298000D01*
X7460662Y37499033D01*
X7402023Y37692341D01*
X7402021Y37692344D01*
X7402021Y37692346D01*
X7306801Y37870489D01*
X7306799Y37870491D01*
X7306798Y37870494D01*
X7299818Y37878999D01*
X14871318Y37878999D01*
X14891955Y37722240D01*
X14891956Y37722238D01*
X14952464Y37576159D01*
X15048718Y37450718D01*
X15174159Y37354464D01*
X15320238Y37293956D01*
X15363853Y37288214D01*
X15476999Y37273318D01*
X15477000Y37273318D01*
X15477001Y37273318D01*
X15529254Y37280198D01*
X15633762Y37293956D01*
X15779841Y37354464D01*
X15905282Y37450718D01*
X16001536Y37576159D01*
X16062044Y37722238D01*
X16076383Y37831154D01*
X24028100Y37831154D01*
X24058861Y37676511D01*
X24058864Y37676499D01*
X24119202Y37530828D01*
X24119209Y37530815D01*
X24206810Y37399712D01*
X24206813Y37399708D01*
X24318307Y37288214D01*
X24318311Y37288211D01*
X24449414Y37200610D01*
X24449427Y37200603D01*
X24595098Y37140265D01*
X24595103Y37140263D01*
X24749753Y37109501D01*
X24749756Y37109500D01*
X24749758Y37109500D01*
X25457444Y37109500D01*
X25457445Y37109501D01*
X25612097Y37140263D01*
X25757779Y37200606D01*
X25888889Y37288211D01*
X26000389Y37399711D01*
X26087994Y37530821D01*
X26148337Y37676503D01*
X26179100Y37831158D01*
X26179100Y37878999D01*
X42176318Y37878999D01*
X42196955Y37722240D01*
X42196956Y37722238D01*
X42257464Y37576159D01*
X42353718Y37450718D01*
X42479159Y37354464D01*
X42625238Y37293956D01*
X42668853Y37288214D01*
X42781999Y37273318D01*
X42782000Y37273318D01*
X42782001Y37273318D01*
X42834254Y37280198D01*
X42938762Y37293956D01*
X43084841Y37354464D01*
X43210282Y37450718D01*
X43306536Y37576159D01*
X43367044Y37722238D01*
X43386562Y37870494D01*
X43387682Y37878999D01*
X45164318Y37878999D01*
X45184955Y37722240D01*
X45184956Y37722238D01*
X45245464Y37576159D01*
X45341718Y37450718D01*
X45467159Y37354464D01*
X45613238Y37293956D01*
X45656853Y37288214D01*
X45769999Y37273318D01*
X45770000Y37273318D01*
X45770001Y37273318D01*
X45822254Y37280198D01*
X45926762Y37293956D01*
X46072841Y37354464D01*
X46198282Y37450718D01*
X46294536Y37576159D01*
X46355044Y37722238D01*
X46374562Y37870494D01*
X46375682Y37878999D01*
X46375682Y37879002D01*
X46355044Y38035761D01*
X46355044Y38035762D01*
X46294536Y38181841D01*
X46198282Y38307282D01*
X46072841Y38403536D01*
X45999975Y38433718D01*
X45926762Y38464044D01*
X45926760Y38464045D01*
X45770001Y38484682D01*
X45769999Y38484682D01*
X45613239Y38464045D01*
X45613237Y38464044D01*
X45467160Y38403537D01*
X45341718Y38307282D01*
X45245463Y38181840D01*
X45184956Y38035763D01*
X45184955Y38035761D01*
X45164318Y37879002D01*
X45164318Y37878999D01*
X43387682Y37878999D01*
X43387682Y37879002D01*
X43367044Y38035761D01*
X43367044Y38035762D01*
X43306536Y38181841D01*
X43210282Y38307282D01*
X43084841Y38403536D01*
X43011975Y38433718D01*
X42938762Y38464044D01*
X42938760Y38464045D01*
X42782001Y38484682D01*
X42781999Y38484682D01*
X42625239Y38464045D01*
X42625237Y38464044D01*
X42479160Y38403537D01*
X42353718Y38307282D01*
X42257463Y38181840D01*
X42196956Y38035763D01*
X42196955Y38035761D01*
X42176318Y37879002D01*
X42176318Y37878999D01*
X26179100Y37878999D01*
X26179100Y37988842D01*
X26179100Y37988845D01*
X26179099Y37988847D01*
X26148338Y38143490D01*
X26148337Y38143497D01*
X26148335Y38143502D01*
X26087997Y38289173D01*
X26087990Y38289186D01*
X26000389Y38420289D01*
X26000386Y38420293D01*
X25888892Y38531787D01*
X25888888Y38531790D01*
X25757785Y38619391D01*
X25757772Y38619398D01*
X25612101Y38679736D01*
X25612089Y38679739D01*
X25457445Y38710500D01*
X25457442Y38710500D01*
X24749758Y38710500D01*
X24749755Y38710500D01*
X24595110Y38679739D01*
X24595098Y38679736D01*
X24449427Y38619398D01*
X24449414Y38619391D01*
X24318311Y38531790D01*
X24318307Y38531787D01*
X24206813Y38420293D01*
X24206810Y38420289D01*
X24119209Y38289186D01*
X24119202Y38289173D01*
X24058864Y38143502D01*
X24058861Y38143490D01*
X24028100Y37988847D01*
X24028100Y37831154D01*
X16076383Y37831154D01*
X16081562Y37870494D01*
X16082682Y37878999D01*
X16082682Y37879002D01*
X16062044Y38035761D01*
X16062044Y38035762D01*
X16001536Y38181841D01*
X15905282Y38307282D01*
X15779841Y38403536D01*
X15706975Y38433718D01*
X15633762Y38464044D01*
X15633760Y38464045D01*
X15477001Y38484682D01*
X15476999Y38484682D01*
X15320239Y38464045D01*
X15320237Y38464044D01*
X15174160Y38403537D01*
X15048718Y38307282D01*
X14952463Y38181840D01*
X14891956Y38035763D01*
X14891955Y38035761D01*
X14871318Y37879002D01*
X14871318Y37878999D01*
X7299818Y37878999D01*
X7209673Y37988842D01*
X7178647Y38026648D01*
X7022495Y38154797D01*
X7022488Y38154802D01*
X6844345Y38250022D01*
X6823589Y38256318D01*
X6777364Y38270340D01*
X6718927Y38308637D01*
X6690471Y38372449D01*
X6701031Y38441516D01*
X6747255Y38493909D01*
X6813361Y38513000D01*
X7322828Y38513000D01*
X7322844Y38513001D01*
X7382372Y38519402D01*
X7382379Y38519404D01*
X7517086Y38569646D01*
X7517093Y38569650D01*
X7632187Y38655810D01*
X7632190Y38655813D01*
X7718350Y38770907D01*
X7718354Y38770914D01*
X7768596Y38905621D01*
X7768598Y38905628D01*
X7774999Y38965156D01*
X7775000Y38965173D01*
X7775000Y39588000D01*
X6940748Y39588000D01*
X6962518Y39625708D01*
X7000000Y39765591D01*
X7000000Y39910409D01*
X6999842Y39910999D01*
X19697318Y39910999D01*
X19717955Y39754240D01*
X19717956Y39754238D01*
X19751383Y39673537D01*
X19778464Y39608159D01*
X19874718Y39482718D01*
X20000159Y39386464D01*
X20146238Y39325956D01*
X20224619Y39315637D01*
X20302999Y39305318D01*
X20303000Y39305318D01*
X20303001Y39305318D01*
X20355254Y39312198D01*
X20459762Y39325956D01*
X20605841Y39386464D01*
X20731282Y39482718D01*
X20827536Y39608159D01*
X20888044Y39754238D01*
X20908682Y39911000D01*
X20888044Y40067762D01*
X20827536Y40213841D01*
X20731282Y40339282D01*
X20605841Y40435536D01*
X20459762Y40496044D01*
X20459760Y40496045D01*
X20303001Y40516682D01*
X20302999Y40516682D01*
X20146239Y40496045D01*
X20146237Y40496044D01*
X20000160Y40435537D01*
X19874718Y40339282D01*
X19778463Y40213840D01*
X19717956Y40067763D01*
X19717955Y40067761D01*
X19697318Y39911002D01*
X19697318Y39910999D01*
X6999842Y39910999D01*
X6962518Y40050292D01*
X6940748Y40088000D01*
X7775000Y40088000D01*
X7775000Y40710828D01*
X7774999Y40710845D01*
X7768598Y40770373D01*
X7768596Y40770380D01*
X7718354Y40905087D01*
X7718350Y40905094D01*
X7632190Y41020188D01*
X7632187Y41020191D01*
X7517093Y41106351D01*
X7517086Y41106355D01*
X7382379Y41156597D01*
X7382372Y41156599D01*
X7322844Y41163000D01*
X6700000Y41163000D01*
X6700000Y40328748D01*
X6662292Y40350518D01*
X6522409Y40388000D01*
X6377591Y40388000D01*
X6237708Y40350518D01*
X6200000Y40328748D01*
X6200000Y41163000D01*
X5577155Y41163000D01*
X5517627Y41156599D01*
X5517620Y41156597D01*
X5382913Y41106355D01*
X5382906Y41106351D01*
X5267812Y41020191D01*
X5267809Y41020188D01*
X5181649Y40905094D01*
X5181645Y40905087D01*
X5131403Y40770380D01*
X5131401Y40770373D01*
X5125000Y40710845D01*
X5125000Y40088000D01*
X5959252Y40088000D01*
X5937482Y40050292D01*
X5900000Y39910409D01*
X5900000Y39765591D01*
X5937482Y39625708D01*
X5959252Y39588000D01*
X5125000Y39588000D01*
X5125000Y38965156D01*
X250500Y38965156D01*
X250500Y42160000D01*
X23728600Y42160000D01*
X24823270Y42160000D01*
X24803525Y42140255D01*
X24754156Y42054745D01*
X24728600Y41959370D01*
X24728600Y41860630D01*
X24754156Y41765255D01*
X24803525Y41679745D01*
X24823270Y41660000D01*
X23728601Y41660000D01*
X23728601Y41510014D01*
X23739094Y41407303D01*
X23794241Y41240881D01*
X23794243Y41240876D01*
X23886284Y41091655D01*
X24010254Y40967685D01*
X24159475Y40875644D01*
X24159480Y40875642D01*
X24325902Y40820495D01*
X24325910Y40820494D01*
X24351294Y40817900D01*
X24415986Y40791504D01*
X24456138Y40734323D01*
X24459001Y40664512D01*
X24423667Y40604236D01*
X24407583Y40591440D01*
X24318311Y40531790D01*
X24318307Y40531787D01*
X24206813Y40420293D01*
X24206810Y40420289D01*
X24119209Y40289186D01*
X24119202Y40289173D01*
X24058864Y40143502D01*
X24058861Y40143490D01*
X24028100Y39988847D01*
X24028100Y39831154D01*
X24058861Y39676511D01*
X24058864Y39676499D01*
X24119202Y39530828D01*
X24119209Y39530815D01*
X24206810Y39399712D01*
X24206813Y39399708D01*
X24318307Y39288214D01*
X24318311Y39288211D01*
X24449414Y39200610D01*
X24449427Y39200603D01*
X24595098Y39140265D01*
X24595103Y39140263D01*
X24749753Y39109501D01*
X24749756Y39109500D01*
X24749758Y39109500D01*
X25457444Y39109500D01*
X25457445Y39109501D01*
X25612097Y39140263D01*
X25630773Y39147999D01*
X32156318Y39147999D01*
X32176955Y38991240D01*
X32176956Y38991238D01*
X32230488Y38861999D01*
X32237464Y38845159D01*
X32333718Y38719718D01*
X32459159Y38623464D01*
X32605238Y38562956D01*
X32683619Y38552637D01*
X32761999Y38542318D01*
X32762000Y38542318D01*
X32762001Y38542318D01*
X32814254Y38549198D01*
X32918762Y38562956D01*
X33064841Y38623464D01*
X33190282Y38719718D01*
X33286536Y38845159D01*
X33347044Y38991238D01*
X33366663Y39140262D01*
X33367682Y39147999D01*
X33367682Y39148002D01*
X33367551Y39148999D01*
X52971318Y39148999D01*
X52991955Y38992240D01*
X52991956Y38992238D01*
X53045901Y38862002D01*
X53052464Y38846159D01*
X53148718Y38720718D01*
X53274159Y38624464D01*
X53420238Y38563956D01*
X53498619Y38553637D01*
X53576999Y38543318D01*
X53577000Y38543318D01*
X53577001Y38543318D01*
X53629254Y38550198D01*
X53733762Y38563956D01*
X53879841Y38624464D01*
X54005282Y38720718D01*
X54101536Y38846159D01*
X54108097Y38861999D01*
X60735318Y38861999D01*
X60755955Y38705240D01*
X60755956Y38705238D01*
X60814476Y38563957D01*
X60816464Y38559159D01*
X60912718Y38433718D01*
X61038159Y38337464D01*
X61184238Y38276956D01*
X61262619Y38266637D01*
X61340999Y38256318D01*
X61341000Y38256318D01*
X61341001Y38256318D01*
X61393254Y38263198D01*
X61497762Y38276956D01*
X61643841Y38337464D01*
X61769282Y38433718D01*
X61865536Y38559159D01*
X61926044Y38705238D01*
X61946682Y38861999D01*
X65485118Y38861999D01*
X65505755Y38705240D01*
X65505756Y38705238D01*
X65564276Y38563957D01*
X65566264Y38559159D01*
X65662518Y38433718D01*
X65787959Y38337464D01*
X65934038Y38276956D01*
X66012419Y38266637D01*
X66090799Y38256318D01*
X66090800Y38256318D01*
X66090801Y38256318D01*
X66143054Y38263198D01*
X66247562Y38276956D01*
X66393641Y38337464D01*
X66519082Y38433718D01*
X66615336Y38559159D01*
X66675844Y38705238D01*
X66696482Y38862000D01*
X66675844Y39018762D01*
X66615336Y39164841D01*
X66519082Y39290282D01*
X66393641Y39386536D01*
X66361831Y39399712D01*
X66247562Y39447044D01*
X66247560Y39447045D01*
X66090801Y39467682D01*
X66090799Y39467682D01*
X65934039Y39447045D01*
X65934037Y39447044D01*
X65787960Y39386537D01*
X65662518Y39290282D01*
X65566263Y39164840D01*
X65505756Y39018763D01*
X65505755Y39018761D01*
X65485118Y38862002D01*
X65485118Y38861999D01*
X61946682Y38861999D01*
X61946682Y38862000D01*
X61926044Y39018762D01*
X61865536Y39164841D01*
X61769282Y39290282D01*
X61643841Y39386536D01*
X61612031Y39399712D01*
X61497762Y39447044D01*
X61497760Y39447045D01*
X61341001Y39467682D01*
X61340999Y39467682D01*
X61184239Y39447045D01*
X61184237Y39447044D01*
X61038160Y39386537D01*
X60912718Y39290282D01*
X60816463Y39164840D01*
X60755956Y39018763D01*
X60755955Y39018761D01*
X60735318Y38862002D01*
X60735318Y38861999D01*
X54108097Y38861999D01*
X54162044Y38992238D01*
X54182682Y39149000D01*
X54175888Y39200603D01*
X54162176Y39304762D01*
X54162044Y39305762D01*
X54101536Y39451841D01*
X54005282Y39577282D01*
X53879841Y39673536D01*
X53733762Y39734044D01*
X53733760Y39734045D01*
X53577001Y39754682D01*
X53576999Y39754682D01*
X53420239Y39734045D01*
X53420237Y39734044D01*
X53274160Y39673537D01*
X53148718Y39577282D01*
X53052463Y39451840D01*
X52991956Y39305763D01*
X52991955Y39305761D01*
X52971318Y39149002D01*
X52971318Y39148999D01*
X33367551Y39148999D01*
X33349223Y39288211D01*
X33347044Y39304762D01*
X33286536Y39450841D01*
X33190282Y39576282D01*
X33064841Y39672536D01*
X33062424Y39673537D01*
X32918762Y39733044D01*
X32918760Y39733045D01*
X32762001Y39753682D01*
X32761999Y39753682D01*
X32605239Y39733045D01*
X32605237Y39733044D01*
X32459160Y39672537D01*
X32333718Y39576282D01*
X32237463Y39450840D01*
X32176956Y39304763D01*
X32176955Y39304761D01*
X32156318Y39148002D01*
X32156318Y39147999D01*
X25630773Y39147999D01*
X25757779Y39200606D01*
X25888889Y39288211D01*
X26000389Y39399711D01*
X26087994Y39530821D01*
X26148337Y39676503D01*
X26179100Y39831158D01*
X26179100Y39988842D01*
X26179100Y39988845D01*
X26179099Y39988847D01*
X26163402Y40067762D01*
X26148337Y40143497D01*
X26092579Y40278110D01*
X26087997Y40289173D01*
X26087990Y40289186D01*
X26000389Y40420289D01*
X26000386Y40420293D01*
X25888892Y40531787D01*
X25888888Y40531790D01*
X25799615Y40591441D01*
X25754810Y40645054D01*
X25746103Y40714379D01*
X25776258Y40777406D01*
X25835701Y40814125D01*
X25855908Y40817901D01*
X25881296Y40820494D01*
X26047719Y40875642D01*
X26047724Y40875644D01*
X26196945Y40967685D01*
X26320915Y41091655D01*
X26412956Y41240876D01*
X26412958Y41240881D01*
X26468105Y41407303D01*
X26468106Y41407310D01*
X26478599Y41510014D01*
X26478600Y41510027D01*
X26478600Y41660000D01*
X25383930Y41660000D01*
X25403675Y41679745D01*
X25453044Y41765255D01*
X25478600Y41860630D01*
X25478600Y41959370D01*
X25453044Y42054745D01*
X25403675Y42140255D01*
X25383930Y42160000D01*
X26478599Y42160000D01*
X26478599Y42309972D01*
X26478598Y42309987D01*
X26468105Y42412698D01*
X26412958Y42579120D01*
X26412956Y42579125D01*
X26335316Y42704999D01*
X78371318Y42704999D01*
X78391955Y42548240D01*
X78391956Y42548238D01*
X78448098Y42412698D01*
X78452464Y42402159D01*
X78548718Y42276718D01*
X78674159Y42180464D01*
X78820238Y42119956D01*
X78898619Y42109637D01*
X78976999Y42099318D01*
X78977000Y42099318D01*
X78977001Y42099318D01*
X79029254Y42106198D01*
X79133762Y42119956D01*
X79279841Y42180464D01*
X79405282Y42276718D01*
X79450125Y42335159D01*
X79506552Y42376361D01*
X79576298Y42380516D01*
X79637218Y42346304D01*
X79646871Y42335163D01*
X79691718Y42276718D01*
X79817159Y42180464D01*
X79963238Y42119956D01*
X80041619Y42109637D01*
X80119999Y42099318D01*
X80120000Y42099318D01*
X80120001Y42099318D01*
X80172254Y42106198D01*
X80276762Y42119956D01*
X80422841Y42180464D01*
X80548282Y42276718D01*
X80593125Y42335159D01*
X80649552Y42376361D01*
X80719298Y42380516D01*
X80780218Y42346304D01*
X80789871Y42335163D01*
X80834718Y42276718D01*
X80960159Y42180464D01*
X81106238Y42119956D01*
X81184619Y42109637D01*
X81262999Y42099318D01*
X81263000Y42099318D01*
X81263001Y42099318D01*
X81315254Y42106198D01*
X81419762Y42119956D01*
X81565841Y42180464D01*
X81691282Y42276718D01*
X81787536Y42402159D01*
X81848044Y42548238D01*
X81868682Y42705000D01*
X81865608Y42728346D01*
X81854923Y42809508D01*
X81848044Y42861762D01*
X81787536Y43007841D01*
X81691282Y43133282D01*
X81565841Y43229536D01*
X81565834Y43229539D01*
X81560515Y43232610D01*
X81512298Y43283175D01*
X81499072Y43351782D01*
X81525037Y43416648D01*
X81560515Y43447390D01*
X81565828Y43450459D01*
X81565841Y43450464D01*
X81691282Y43546718D01*
X81787536Y43672159D01*
X81848044Y43818238D01*
X81868682Y43975000D01*
X81848044Y44131762D01*
X81787536Y44277841D01*
X81691282Y44403282D01*
X81565841Y44499536D01*
X81419762Y44560044D01*
X81419760Y44560045D01*
X81263001Y44580682D01*
X81262999Y44580682D01*
X81106239Y44560045D01*
X81106237Y44560044D01*
X80960160Y44499537D01*
X80960159Y44499536D01*
X80834718Y44403282D01*
X80834717Y44403281D01*
X80834716Y44403280D01*
X80789875Y44344842D01*
X80733447Y44303640D01*
X80663701Y44299485D01*
X80602781Y44333698D01*
X80593125Y44344842D01*
X80570714Y44374048D01*
X80548282Y44403282D01*
X80422841Y44499536D01*
X80276762Y44560044D01*
X80276760Y44560045D01*
X80120001Y44580682D01*
X80119999Y44580682D01*
X79963239Y44560045D01*
X79963237Y44560044D01*
X79817160Y44499537D01*
X79817159Y44499536D01*
X79691718Y44403282D01*
X79691717Y44403281D01*
X79691716Y44403280D01*
X79646875Y44344842D01*
X79590447Y44303640D01*
X79520701Y44299485D01*
X79459781Y44333698D01*
X79450125Y44344842D01*
X79427714Y44374048D01*
X79405282Y44403282D01*
X79279841Y44499536D01*
X79133762Y44560044D01*
X79133760Y44560045D01*
X78977001Y44580682D01*
X78976999Y44580682D01*
X78820239Y44560045D01*
X78820237Y44560044D01*
X78674160Y44499537D01*
X78548718Y44403282D01*
X78452463Y44277840D01*
X78391956Y44131763D01*
X78391955Y44131761D01*
X78371318Y43975002D01*
X78371318Y43974999D01*
X78391955Y43818240D01*
X78391956Y43818238D01*
X78452464Y43672159D01*
X78548718Y43546718D01*
X78674159Y43450464D01*
X78674166Y43450459D01*
X78679487Y43447387D01*
X78727703Y43396821D01*
X78740927Y43328214D01*
X78714959Y43263349D01*
X78679487Y43232613D01*
X78674166Y43229542D01*
X78548718Y43133282D01*
X78452463Y43007840D01*
X78391956Y42861763D01*
X78391955Y42861761D01*
X78371318Y42705002D01*
X78371318Y42704999D01*
X26335316Y42704999D01*
X26320915Y42728346D01*
X26196945Y42852316D01*
X26047724Y42944357D01*
X26047719Y42944359D01*
X25881297Y42999506D01*
X25881290Y42999507D01*
X25778586Y43010000D01*
X25353600Y43010000D01*
X25353600Y42190330D01*
X25333855Y42210075D01*
X25248345Y42259444D01*
X25152970Y42285000D01*
X25054230Y42285000D01*
X24958855Y42259444D01*
X24873345Y42210075D01*
X24853600Y42190330D01*
X24853600Y43010000D01*
X24428628Y43010000D01*
X24428612Y43009999D01*
X24325902Y42999506D01*
X24159480Y42944359D01*
X24159475Y42944357D01*
X24010254Y42852316D01*
X23886284Y42728346D01*
X23794243Y42579125D01*
X23794241Y42579120D01*
X23739094Y42412698D01*
X23739093Y42412691D01*
X23728600Y42309987D01*
X23728600Y42160000D01*
X250500Y42160000D01*
X250500Y45172000D01*
X5419538Y45172000D01*
X5439337Y44970969D01*
X5497978Y44777655D01*
X5593198Y44599512D01*
X5593203Y44599505D01*
X5721352Y44443353D01*
X5770182Y44403280D01*
X5877506Y44315202D01*
X5877509Y44315201D01*
X5877511Y44315199D01*
X6055654Y44219979D01*
X6055656Y44219979D01*
X6055659Y44219977D01*
X6248967Y44161338D01*
X6450000Y44141538D01*
X6651033Y44161338D01*
X6844341Y44219977D01*
X7022494Y44315202D01*
X7178647Y44443353D01*
X7306798Y44599506D01*
X7380290Y44736999D01*
X34556318Y44736999D01*
X34576955Y44580240D01*
X34576956Y44580238D01*
X34610383Y44499537D01*
X34637464Y44434159D01*
X34733718Y44308718D01*
X34859159Y44212464D01*
X35005238Y44151956D01*
X35083619Y44141637D01*
X35161999Y44131318D01*
X35162000Y44131318D01*
X35162001Y44131318D01*
X35239629Y44141538D01*
X35318762Y44151956D01*
X35464841Y44212464D01*
X35590282Y44308718D01*
X35686536Y44434159D01*
X35747044Y44580238D01*
X35767682Y44737000D01*
X35747044Y44893762D01*
X35686536Y45039841D01*
X35590282Y45165282D01*
X35464841Y45261536D01*
X35318762Y45322044D01*
X35318760Y45322045D01*
X35162001Y45342682D01*
X35161999Y45342682D01*
X35005239Y45322045D01*
X35005237Y45322044D01*
X34859160Y45261537D01*
X34733718Y45165282D01*
X34637463Y45039840D01*
X34576956Y44893763D01*
X34576955Y44893761D01*
X34556318Y44737002D01*
X34556318Y44736999D01*
X7380290Y44736999D01*
X7402023Y44777659D01*
X7460662Y44970967D01*
X7480462Y45172000D01*
X7460662Y45373033D01*
X7402023Y45566341D01*
X7402021Y45566344D01*
X7402021Y45566346D01*
X7306801Y45744489D01*
X7306799Y45744491D01*
X7306798Y45744494D01*
X7267824Y45791984D01*
X7178647Y45900648D01*
X7022495Y46028797D01*
X7022488Y46028802D01*
X6844345Y46124022D01*
X6651031Y46182663D01*
X6450000Y46202462D01*
X6248968Y46182663D01*
X6055654Y46124022D01*
X5877511Y46028802D01*
X5877504Y46028797D01*
X5721352Y45900648D01*
X5593203Y45744496D01*
X5593198Y45744489D01*
X5497978Y45566346D01*
X5439337Y45373032D01*
X5419538Y45172000D01*
X250500Y45172000D01*
X250500Y49379156D01*
X5125000Y49379156D01*
X5131401Y49319628D01*
X5131403Y49319621D01*
X5181645Y49184914D01*
X5181649Y49184907D01*
X5267809Y49069813D01*
X5267812Y49069810D01*
X5382906Y48983650D01*
X5382913Y48983646D01*
X5517620Y48933404D01*
X5517627Y48933402D01*
X5577155Y48927001D01*
X5577172Y48927000D01*
X6086639Y48927000D01*
X6153678Y48907315D01*
X6199433Y48854511D01*
X6209377Y48785353D01*
X6180352Y48721797D01*
X6122635Y48684340D01*
X6088843Y48674090D01*
X6055654Y48664022D01*
X5877511Y48568802D01*
X5877504Y48568797D01*
X5721352Y48440648D01*
X5593203Y48284496D01*
X5593198Y48284489D01*
X5497978Y48106346D01*
X5439337Y47913032D01*
X5419538Y47712000D01*
X5439337Y47510969D01*
X5497978Y47317655D01*
X5593198Y47139512D01*
X5593203Y47139505D01*
X5721352Y46983353D01*
X5830016Y46894176D01*
X5877506Y46855202D01*
X5877509Y46855201D01*
X5877511Y46855199D01*
X6055654Y46759979D01*
X6055656Y46759979D01*
X6055659Y46759977D01*
X6248967Y46701338D01*
X6450000Y46681538D01*
X6651033Y46701338D01*
X6844341Y46759977D01*
X7022494Y46855202D01*
X7178647Y46983353D01*
X7306798Y47139506D01*
X7402023Y47317659D01*
X7460662Y47510967D01*
X7462635Y47531000D01*
X64977901Y47531000D01*
X64996252Y47344669D01*
X64996253Y47344667D01*
X65050604Y47165498D01*
X65138862Y47000377D01*
X65138864Y47000374D01*
X65257642Y46855643D01*
X65402373Y46736865D01*
X65402376Y46736863D01*
X65505883Y46681538D01*
X65567499Y46648604D01*
X65746666Y46594254D01*
X65746668Y46594253D01*
X65763374Y46592608D01*
X65933000Y46575901D01*
X66119331Y46594253D01*
X66298501Y46648604D01*
X66463625Y46736864D01*
X66608357Y46855643D01*
X66727136Y47000375D01*
X66815396Y47165499D01*
X66869747Y47344669D01*
X66888099Y47531000D01*
X72477901Y47531000D01*
X72496252Y47344669D01*
X72496253Y47344667D01*
X72550604Y47165498D01*
X72638862Y47000377D01*
X72638864Y47000374D01*
X72757642Y46855643D01*
X72902373Y46736865D01*
X72902376Y46736863D01*
X73005883Y46681538D01*
X73067499Y46648604D01*
X73246666Y46594254D01*
X73246668Y46594253D01*
X73263374Y46592608D01*
X73433000Y46575901D01*
X73619331Y46594253D01*
X73798501Y46648604D01*
X73963625Y46736864D01*
X74108357Y46855643D01*
X74227136Y47000375D01*
X74315396Y47165499D01*
X74369747Y47344669D01*
X74388099Y47531000D01*
X74369747Y47717331D01*
X74315396Y47896501D01*
X74227136Y48061625D01*
X74227135Y48061627D01*
X74108357Y48206358D01*
X73963626Y48325136D01*
X73963623Y48325138D01*
X73798502Y48413396D01*
X73619333Y48467747D01*
X73619331Y48467748D01*
X73433000Y48486099D01*
X73246668Y48467748D01*
X73246666Y48467747D01*
X73067497Y48413396D01*
X72902376Y48325138D01*
X72902373Y48325136D01*
X72757642Y48206358D01*
X72638864Y48061627D01*
X72638862Y48061624D01*
X72550604Y47896503D01*
X72496253Y47717334D01*
X72496252Y47717332D01*
X72477901Y47531000D01*
X66888099Y47531000D01*
X66869747Y47717331D01*
X66815396Y47896501D01*
X66727136Y48061625D01*
X66727135Y48061627D01*
X66608357Y48206358D01*
X66463626Y48325136D01*
X66463623Y48325138D01*
X66298502Y48413396D01*
X66119333Y48467747D01*
X66119331Y48467748D01*
X65933000Y48486099D01*
X65746668Y48467748D01*
X65746666Y48467747D01*
X65567497Y48413396D01*
X65402376Y48325138D01*
X65402373Y48325136D01*
X65257642Y48206358D01*
X65138864Y48061627D01*
X65138862Y48061624D01*
X65050604Y47896503D01*
X64996253Y47717334D01*
X64996252Y47717332D01*
X64977901Y47531000D01*
X7462635Y47531000D01*
X7480462Y47712000D01*
X7460662Y47913033D01*
X7402023Y48106341D01*
X7402021Y48106344D01*
X7402021Y48106346D01*
X7306801Y48284489D01*
X7306799Y48284491D01*
X7306798Y48284494D01*
X7267824Y48331984D01*
X7178647Y48440648D01*
X7022495Y48568797D01*
X7022488Y48568802D01*
X6844345Y48664022D01*
X6825017Y48669885D01*
X6777364Y48684340D01*
X6718927Y48722637D01*
X6690471Y48786449D01*
X6701031Y48855516D01*
X6747255Y48907909D01*
X6813361Y48927000D01*
X7322828Y48927000D01*
X7322844Y48927001D01*
X7382372Y48933402D01*
X7382379Y48933404D01*
X7517086Y48983646D01*
X7517093Y48983650D01*
X7632187Y49069810D01*
X7632190Y49069813D01*
X7718350Y49184907D01*
X7718354Y49184914D01*
X7768596Y49319621D01*
X7768598Y49319628D01*
X7774999Y49379156D01*
X7775000Y49379173D01*
X7775000Y49562999D01*
X54495318Y49562999D01*
X54515955Y49406240D01*
X54515956Y49406238D01*
X54553856Y49314738D01*
X54576464Y49260159D01*
X54672718Y49134718D01*
X54798159Y49038464D01*
X54944238Y48977956D01*
X55022619Y48967637D01*
X55100999Y48957318D01*
X55101000Y48957318D01*
X55101001Y48957318D01*
X55153254Y48964198D01*
X55257762Y48977956D01*
X55403841Y49038464D01*
X55529282Y49134718D01*
X55625536Y49260159D01*
X55686044Y49406238D01*
X55706682Y49563000D01*
X55706681Y49563004D01*
X55686044Y49719761D01*
X55686044Y49719762D01*
X55645768Y49816997D01*
X84267435Y49816997D01*
X84287630Y49637751D01*
X84287631Y49637746D01*
X84347211Y49467477D01*
X84399820Y49383751D01*
X84443184Y49314738D01*
X84570738Y49187184D01*
X84723478Y49091211D01*
X84784639Y49069810D01*
X84893745Y49031632D01*
X84893750Y49031631D01*
X85072996Y49011435D01*
X85073000Y49011435D01*
X85073004Y49011435D01*
X85252249Y49031631D01*
X85252252Y49031632D01*
X85252255Y49031632D01*
X85422522Y49091211D01*
X85575262Y49187184D01*
X85702816Y49314738D01*
X85798789Y49467478D01*
X85832213Y49562997D01*
X89855435Y49562997D01*
X89875630Y49383751D01*
X89875631Y49383746D01*
X89935211Y49213477D01*
X90025482Y49069813D01*
X90031184Y49060738D01*
X90158738Y48933184D01*
X90311478Y48837211D01*
X90459680Y48785353D01*
X90481745Y48777632D01*
X90481750Y48777631D01*
X90660996Y48757435D01*
X90661000Y48757435D01*
X90661004Y48757435D01*
X90840249Y48777631D01*
X90840252Y48777632D01*
X90840255Y48777632D01*
X91010522Y48837211D01*
X91163262Y48933184D01*
X91290816Y49060738D01*
X91386789Y49213478D01*
X91446368Y49383745D01*
X91446369Y49383751D01*
X91466565Y49562997D01*
X91466565Y49563004D01*
X91446369Y49742250D01*
X91446368Y49742255D01*
X91420215Y49816997D01*
X91386789Y49912522D01*
X91290816Y50065262D01*
X91163262Y50192816D01*
X91010523Y50288789D01*
X90840254Y50348369D01*
X90840249Y50348370D01*
X90661004Y50368565D01*
X90660996Y50368565D01*
X90481750Y50348370D01*
X90481745Y50348369D01*
X90311476Y50288789D01*
X90158737Y50192816D01*
X90031184Y50065263D01*
X89935211Y49912524D01*
X89875631Y49742255D01*
X89875630Y49742250D01*
X89855435Y49563004D01*
X89855435Y49562997D01*
X85832213Y49562997D01*
X85858368Y49637745D01*
X85870143Y49742250D01*
X85878565Y49816997D01*
X85878565Y49817004D01*
X85858369Y49996250D01*
X85858368Y49996255D01*
X85826427Y50087537D01*
X85798789Y50166522D01*
X85782267Y50192816D01*
X85702815Y50319263D01*
X85575262Y50446816D01*
X85422523Y50542789D01*
X85252254Y50602369D01*
X85252249Y50602370D01*
X85073004Y50622565D01*
X85072996Y50622565D01*
X84893750Y50602370D01*
X84893745Y50602369D01*
X84723476Y50542789D01*
X84570737Y50446816D01*
X84443184Y50319263D01*
X84347211Y50166524D01*
X84287631Y49996255D01*
X84287630Y49996250D01*
X84267435Y49817004D01*
X84267435Y49816997D01*
X55645768Y49816997D01*
X55625536Y49865841D01*
X55529282Y49991282D01*
X55403841Y50087536D01*
X55257762Y50148044D01*
X55257760Y50148045D01*
X55101001Y50168682D01*
X55100999Y50168682D01*
X54944239Y50148045D01*
X54944237Y50148044D01*
X54798160Y50087537D01*
X54672718Y49991282D01*
X54576463Y49865840D01*
X54515956Y49719763D01*
X54515955Y49719761D01*
X54495318Y49563002D01*
X54495318Y49562999D01*
X7775000Y49562999D01*
X7775000Y50002000D01*
X6940748Y50002000D01*
X6962518Y50039708D01*
X7000000Y50179591D01*
X7000000Y50324409D01*
X6962518Y50464292D01*
X6940748Y50502000D01*
X7775000Y50502000D01*
X7775000Y51124828D01*
X7774999Y51124845D01*
X7768598Y51184373D01*
X7768596Y51184380D01*
X7750302Y51233429D01*
X25014000Y51233429D01*
X25041085Y51062416D01*
X25094591Y50897743D01*
X25173195Y50743476D01*
X25274967Y50603398D01*
X25397397Y50480968D01*
X25537475Y50379196D01*
X25691744Y50300592D01*
X25856415Y50247086D01*
X25856414Y50247086D01*
X25863999Y50245885D01*
X25864000Y50245886D01*
X25864000Y51314670D01*
X25883745Y51294925D01*
X25969255Y51245556D01*
X26064630Y51220000D01*
X26163370Y51220000D01*
X26258745Y51245556D01*
X26344255Y51294925D01*
X26364000Y51314670D01*
X26364000Y50245885D01*
X26371584Y50247086D01*
X26536255Y50300592D01*
X26690524Y50379196D01*
X26830602Y50480968D01*
X26953032Y50603398D01*
X27054804Y50743476D01*
X27133409Y50897747D01*
X27156603Y50969130D01*
X27196040Y51026806D01*
X27260398Y51054005D01*
X27329244Y51042091D01*
X27380721Y50994847D01*
X27389095Y50978267D01*
X27404603Y50940828D01*
X27404606Y50940822D01*
X27404609Y50940815D01*
X27492210Y50809712D01*
X27492213Y50809708D01*
X27603707Y50698214D01*
X27603711Y50698211D01*
X27734814Y50610610D01*
X27734827Y50610603D01*
X27839596Y50567207D01*
X27880503Y50550263D01*
X28020810Y50522354D01*
X28035153Y50519501D01*
X28035156Y50519500D01*
X28035158Y50519500D01*
X28192844Y50519500D01*
X28192845Y50519501D01*
X28347497Y50550263D01*
X28493179Y50610606D01*
X28624289Y50698211D01*
X28735789Y50809711D01*
X28823394Y50940821D01*
X28883737Y51086503D01*
X28914499Y51241154D01*
X29313500Y51241154D01*
X29344261Y51086511D01*
X29344264Y51086499D01*
X29404602Y50940828D01*
X29404609Y50940815D01*
X29492210Y50809712D01*
X29492213Y50809708D01*
X29603707Y50698214D01*
X29603711Y50698211D01*
X29734814Y50610610D01*
X29734827Y50610603D01*
X29839596Y50567207D01*
X29880503Y50550263D01*
X30020810Y50522354D01*
X30035153Y50519501D01*
X30035156Y50519500D01*
X30035158Y50519500D01*
X30192844Y50519500D01*
X30192845Y50519501D01*
X30347497Y50550263D01*
X30493179Y50610606D01*
X30624289Y50698211D01*
X30735789Y50809711D01*
X30806629Y50915731D01*
X31313500Y50915731D01*
X31316353Y50885301D01*
X31316353Y50885299D01*
X31361206Y50757120D01*
X31361207Y50757118D01*
X31441850Y50647850D01*
X31551118Y50567207D01*
X31593845Y50552256D01*
X31679299Y50522354D01*
X31709730Y50519500D01*
X31709734Y50519500D01*
X32518270Y50519500D01*
X32548699Y50522354D01*
X32548701Y50522354D01*
X32612790Y50544781D01*
X32676882Y50567207D01*
X32786150Y50647850D01*
X32866793Y50757118D01*
X32895159Y50838184D01*
X32911646Y50885299D01*
X32911646Y50885301D01*
X32914500Y50915731D01*
X32914500Y51467997D01*
X89855435Y51467997D01*
X89875630Y51288751D01*
X89875631Y51288746D01*
X89935211Y51118477D01*
X90023311Y50978267D01*
X90031184Y50965738D01*
X90158738Y50838184D01*
X90249080Y50781418D01*
X90309464Y50743476D01*
X90311478Y50742211D01*
X90481745Y50682632D01*
X90481750Y50682631D01*
X90660996Y50662435D01*
X90661000Y50662435D01*
X90661004Y50662435D01*
X90840249Y50682631D01*
X90840252Y50682632D01*
X90840255Y50682632D01*
X91010522Y50742211D01*
X91163262Y50838184D01*
X91290816Y50965738D01*
X91386789Y51118478D01*
X91446368Y51288745D01*
X91446369Y51288751D01*
X91466565Y51467997D01*
X91466565Y51468004D01*
X91446369Y51647250D01*
X91446368Y51647255D01*
X91386788Y51817524D01*
X91338059Y51895075D01*
X91290816Y51970262D01*
X91163262Y52097816D01*
X91115885Y52127585D01*
X91010523Y52193789D01*
X90840254Y52253369D01*
X90840249Y52253370D01*
X90661004Y52273565D01*
X90660996Y52273565D01*
X90481750Y52253370D01*
X90481745Y52253369D01*
X90311476Y52193789D01*
X90158737Y52097816D01*
X90031184Y51970263D01*
X89935211Y51817524D01*
X89875631Y51647255D01*
X89875630Y51647250D01*
X89855435Y51468004D01*
X89855435Y51467997D01*
X32914500Y51467997D01*
X32914500Y52274270D01*
X32911646Y52304700D01*
X32911646Y52304702D01*
X32866793Y52432881D01*
X32866792Y52432883D01*
X32823319Y52491787D01*
X32786150Y52542150D01*
X32676882Y52622793D01*
X32676880Y52622794D01*
X32548700Y52667647D01*
X32518270Y52670500D01*
X32518266Y52670500D01*
X31709734Y52670500D01*
X31709730Y52670500D01*
X31679300Y52667647D01*
X31679298Y52667647D01*
X31551119Y52622794D01*
X31551117Y52622793D01*
X31441850Y52542150D01*
X31361207Y52432883D01*
X31361206Y52432881D01*
X31316353Y52304702D01*
X31316353Y52304700D01*
X31313500Y52274270D01*
X31313500Y50915731D01*
X30806629Y50915731D01*
X30823394Y50940821D01*
X30883737Y51086503D01*
X30914500Y51241158D01*
X30914500Y51948842D01*
X30914500Y51948845D01*
X30914499Y51948847D01*
X30883738Y52103490D01*
X30883737Y52103497D01*
X30883735Y52103502D01*
X30823397Y52249173D01*
X30823390Y52249186D01*
X30735789Y52380289D01*
X30735786Y52380293D01*
X30624292Y52491787D01*
X30624288Y52491790D01*
X30493185Y52579391D01*
X30493172Y52579398D01*
X30347501Y52639736D01*
X30347489Y52639739D01*
X30192845Y52670500D01*
X30192842Y52670500D01*
X30035158Y52670500D01*
X30035155Y52670500D01*
X29880510Y52639739D01*
X29880498Y52639736D01*
X29734827Y52579398D01*
X29734814Y52579391D01*
X29603711Y52491790D01*
X29603707Y52491787D01*
X29492213Y52380293D01*
X29492210Y52380289D01*
X29404609Y52249186D01*
X29404602Y52249173D01*
X29344264Y52103502D01*
X29344261Y52103490D01*
X29313500Y51948847D01*
X29313500Y51241154D01*
X28914499Y51241154D01*
X28914500Y51241158D01*
X28914500Y51948842D01*
X28914500Y51948845D01*
X28914499Y51948847D01*
X28883738Y52103490D01*
X28883737Y52103497D01*
X28883735Y52103502D01*
X28823397Y52249173D01*
X28823390Y52249186D01*
X28735789Y52380289D01*
X28735786Y52380293D01*
X28624292Y52491787D01*
X28624288Y52491790D01*
X28493185Y52579391D01*
X28493172Y52579398D01*
X28347501Y52639736D01*
X28347489Y52639739D01*
X28192845Y52670500D01*
X28192842Y52670500D01*
X28035158Y52670500D01*
X28035155Y52670500D01*
X27880510Y52639739D01*
X27880498Y52639736D01*
X27734827Y52579398D01*
X27734814Y52579391D01*
X27603711Y52491790D01*
X27603707Y52491787D01*
X27492213Y52380293D01*
X27492210Y52380289D01*
X27404609Y52249186D01*
X27404603Y52249174D01*
X27389094Y52211733D01*
X27345252Y52157330D01*
X27278957Y52135267D01*
X27211258Y52152547D01*
X27163649Y52203686D01*
X27156603Y52220870D01*
X27133408Y52292256D01*
X27054804Y52446525D01*
X26953032Y52586603D01*
X26830602Y52709033D01*
X26690524Y52810805D01*
X26536257Y52889409D01*
X26371589Y52942913D01*
X26371581Y52942915D01*
X26364000Y52944116D01*
X26364000Y51875330D01*
X26344255Y51895075D01*
X26258745Y51944444D01*
X26163370Y51970000D01*
X26064630Y51970000D01*
X25969255Y51944444D01*
X25883745Y51895075D01*
X25864000Y51875330D01*
X25864000Y52944116D01*
X25863999Y52944116D01*
X25856418Y52942915D01*
X25856410Y52942913D01*
X25691742Y52889409D01*
X25537475Y52810805D01*
X25397397Y52709033D01*
X25274967Y52586603D01*
X25173195Y52446525D01*
X25094591Y52292258D01*
X25041085Y52127585D01*
X25014000Y51956572D01*
X25014000Y51845000D01*
X25833670Y51845000D01*
X25813925Y51825255D01*
X25764556Y51739745D01*
X25739000Y51644370D01*
X25739000Y51545630D01*
X25764556Y51450255D01*
X25813925Y51364745D01*
X25833670Y51345000D01*
X25014000Y51345000D01*
X25014000Y51233429D01*
X7750302Y51233429D01*
X7718354Y51319087D01*
X7718350Y51319094D01*
X7632190Y51434188D01*
X7632187Y51434191D01*
X7517093Y51520351D01*
X7517086Y51520355D01*
X7382379Y51570597D01*
X7382372Y51570599D01*
X7322844Y51577000D01*
X6700000Y51577000D01*
X6700000Y50742748D01*
X6662292Y50764518D01*
X6522409Y50802000D01*
X6377591Y50802000D01*
X6237708Y50764518D01*
X6200000Y50742748D01*
X6200000Y51577000D01*
X5577155Y51577000D01*
X5517627Y51570599D01*
X5517620Y51570597D01*
X5382913Y51520355D01*
X5382906Y51520351D01*
X5267812Y51434191D01*
X5267809Y51434188D01*
X5181649Y51319094D01*
X5181645Y51319087D01*
X5131403Y51184380D01*
X5131401Y51184373D01*
X5125000Y51124845D01*
X5125000Y50502000D01*
X5959252Y50502000D01*
X5937482Y50464292D01*
X5900000Y50324409D01*
X5900000Y50179591D01*
X5937482Y50039708D01*
X5959252Y50002000D01*
X5125000Y50002000D01*
X5125000Y49379156D01*
X250500Y49379156D01*
X250500Y56420999D01*
X83832318Y56420999D01*
X83852955Y56264240D01*
X83852956Y56264238D01*
X83913464Y56118159D01*
X84009718Y55992718D01*
X84135159Y55896464D01*
X84281238Y55835956D01*
X84359619Y55825637D01*
X84437999Y55815318D01*
X84438000Y55815318D01*
X84438001Y55815318D01*
X84490254Y55822198D01*
X84594762Y55835956D01*
X84740841Y55896464D01*
X84866282Y55992718D01*
X84962536Y56118159D01*
X85023044Y56264238D01*
X85043682Y56420999D01*
X85483318Y56420999D01*
X85503955Y56264240D01*
X85503956Y56264238D01*
X85564464Y56118159D01*
X85660718Y55992718D01*
X85786159Y55896464D01*
X85932238Y55835956D01*
X86010619Y55825637D01*
X86088999Y55815318D01*
X86089000Y55815318D01*
X86089001Y55815318D01*
X86141254Y55822198D01*
X86245762Y55835956D01*
X86391841Y55896464D01*
X86517282Y55992718D01*
X86613536Y56118159D01*
X86674044Y56264238D01*
X86694682Y56421000D01*
X86674044Y56577762D01*
X86613536Y56723841D01*
X86517282Y56849282D01*
X86391841Y56945536D01*
X86245762Y57006044D01*
X86245760Y57006045D01*
X86089001Y57026682D01*
X86088999Y57026682D01*
X85932239Y57006045D01*
X85932237Y57006044D01*
X85786160Y56945537D01*
X85660718Y56849282D01*
X85564463Y56723840D01*
X85503956Y56577763D01*
X85503955Y56577761D01*
X85483318Y56421002D01*
X85483318Y56420999D01*
X85043682Y56420999D01*
X85043682Y56421000D01*
X85023044Y56577762D01*
X84962536Y56723841D01*
X84866282Y56849282D01*
X84740841Y56945536D01*
X84594762Y57006044D01*
X84594760Y57006045D01*
X84438001Y57026682D01*
X84437999Y57026682D01*
X84281239Y57006045D01*
X84281237Y57006044D01*
X84135160Y56945537D01*
X84009718Y56849282D01*
X83913463Y56723840D01*
X83852956Y56577763D01*
X83852955Y56577761D01*
X83832318Y56421002D01*
X83832318Y56420999D01*
X250500Y56420999D01*
X250500Y59308999D01*
X23490211Y59308999D01*
X23509345Y59041477D01*
X23509346Y59041470D01*
X23566354Y58779407D01*
X23660084Y58528106D01*
X23660086Y58528102D01*
X23788617Y58292715D01*
X23788622Y58292707D01*
X23879179Y58171735D01*
X24692420Y58984977D01*
X24705359Y58953742D01*
X24787437Y58830903D01*
X24891903Y58726437D01*
X25014742Y58644359D01*
X25045974Y58631422D01*
X24232733Y57818181D01*
X24353706Y57727623D01*
X24353714Y57727618D01*
X24589101Y57599087D01*
X24589105Y57599085D01*
X24840406Y57505355D01*
X25102469Y57448347D01*
X25102476Y57448346D01*
X25369999Y57429211D01*
X25370001Y57429211D01*
X25637523Y57448346D01*
X25637530Y57448347D01*
X25899593Y57505355D01*
X26150894Y57599085D01*
X26150898Y57599087D01*
X26386285Y57727618D01*
X26386293Y57727623D01*
X26507264Y57818181D01*
X26507265Y57818182D01*
X25694025Y58631423D01*
X25725258Y58644359D01*
X25848097Y58726437D01*
X25952563Y58830903D01*
X26034641Y58953742D01*
X26047577Y58984975D01*
X26860818Y58171735D01*
X26860819Y58171736D01*
X26951377Y58292707D01*
X26951382Y58292715D01*
X27079913Y58528102D01*
X27079915Y58528106D01*
X27173645Y58779407D01*
X27230653Y59041470D01*
X27230654Y59041477D01*
X27249789Y59308999D01*
X27249789Y59309000D01*
X27789628Y59309000D01*
X27809085Y59061772D01*
X27866976Y58820638D01*
X27961877Y58591526D01*
X28091450Y58380084D01*
X28091453Y58380079D01*
X28095927Y58374841D01*
X28252508Y58191508D01*
X28318440Y58135197D01*
X28441078Y58030454D01*
X28441083Y58030451D01*
X28652525Y57900878D01*
X28881637Y57805977D01*
X29088567Y57756298D01*
X29122775Y57748085D01*
X29370000Y57728628D01*
X29617225Y57748085D01*
X29858362Y57805977D01*
X30087474Y57900878D01*
X30298919Y58030452D01*
X30487492Y58191508D01*
X30648548Y58380081D01*
X30778122Y58591526D01*
X30873023Y58820638D01*
X30930915Y59061775D01*
X30950372Y59309000D01*
X31789628Y59309000D01*
X31809085Y59061772D01*
X31866976Y58820638D01*
X31961877Y58591526D01*
X32091450Y58380084D01*
X32091453Y58380079D01*
X32095927Y58374841D01*
X32252508Y58191508D01*
X32318440Y58135197D01*
X32441078Y58030454D01*
X32441083Y58030451D01*
X32652525Y57900878D01*
X32881637Y57805977D01*
X33088567Y57756298D01*
X33122775Y57748085D01*
X33370000Y57728628D01*
X33617225Y57748085D01*
X33858362Y57805977D01*
X34087474Y57900878D01*
X34298919Y58030452D01*
X34487492Y58191508D01*
X34648548Y58380081D01*
X34778122Y58591526D01*
X34873023Y58820638D01*
X34930915Y59061775D01*
X34950372Y59309000D01*
X38289628Y59309000D01*
X38309085Y59061772D01*
X38366976Y58820638D01*
X38461877Y58591526D01*
X38591450Y58380084D01*
X38591453Y58380079D01*
X38595927Y58374841D01*
X38752508Y58191508D01*
X38818440Y58135197D01*
X38941078Y58030454D01*
X38941083Y58030451D01*
X39152525Y57900878D01*
X39381637Y57805977D01*
X39588567Y57756298D01*
X39622775Y57748085D01*
X39870000Y57728628D01*
X40117225Y57748085D01*
X40358362Y57805977D01*
X40587474Y57900878D01*
X40798919Y58030452D01*
X40987492Y58191508D01*
X41148548Y58380081D01*
X41278122Y58591526D01*
X41373023Y58820638D01*
X41430915Y59061775D01*
X41450372Y59309000D01*
X42289628Y59309000D01*
X42309085Y59061772D01*
X42366976Y58820638D01*
X42461877Y58591526D01*
X42591450Y58380084D01*
X42591453Y58380079D01*
X42595927Y58374841D01*
X42752508Y58191508D01*
X42818440Y58135197D01*
X42941078Y58030454D01*
X42941083Y58030451D01*
X43152525Y57900878D01*
X43381637Y57805977D01*
X43588567Y57756298D01*
X43622775Y57748085D01*
X43870000Y57728628D01*
X44117225Y57748085D01*
X44358362Y57805977D01*
X44587474Y57900878D01*
X44798919Y58030452D01*
X44987492Y58191508D01*
X45148548Y58380081D01*
X45278122Y58591526D01*
X45373023Y58820638D01*
X45430915Y59061775D01*
X45450372Y59309000D01*
X46289628Y59309000D01*
X46309085Y59061772D01*
X46366976Y58820638D01*
X46461877Y58591526D01*
X46591450Y58380084D01*
X46591453Y58380079D01*
X46595927Y58374841D01*
X46752508Y58191508D01*
X46818440Y58135197D01*
X46941078Y58030454D01*
X46941083Y58030451D01*
X47152525Y57900878D01*
X47381637Y57805977D01*
X47588567Y57756298D01*
X47622775Y57748085D01*
X47870000Y57728628D01*
X48117225Y57748085D01*
X48358362Y57805977D01*
X48587474Y57900878D01*
X48798919Y58030452D01*
X48987492Y58191508D01*
X49148548Y58380081D01*
X49258404Y58559349D01*
X50294500Y58559349D01*
X50300601Y58481823D01*
X50348914Y58301516D01*
X50433656Y58135201D01*
X50433659Y58135197D01*
X50551131Y57990131D01*
X50696196Y57872660D01*
X50696200Y57872657D01*
X50777709Y57831126D01*
X50862516Y57787914D01*
X51042821Y57739602D01*
X51120354Y57733500D01*
X51120362Y57733500D01*
X52619638Y57733500D01*
X52619646Y57733500D01*
X52697179Y57739602D01*
X52877484Y57787914D01*
X53043803Y57872659D01*
X53188869Y57990131D01*
X53255164Y58071999D01*
X83832318Y58071999D01*
X83852955Y57915240D01*
X83852956Y57915238D01*
X83913464Y57769159D01*
X84009718Y57643718D01*
X84135159Y57547464D01*
X84281238Y57486956D01*
X84359619Y57476637D01*
X84437999Y57466318D01*
X84438000Y57466318D01*
X84438001Y57466318D01*
X84490254Y57473198D01*
X84594762Y57486956D01*
X84740841Y57547464D01*
X84866282Y57643718D01*
X84962536Y57769159D01*
X85023044Y57915238D01*
X85043682Y58071999D01*
X85483318Y58071999D01*
X85503955Y57915240D01*
X85503956Y57915238D01*
X85564464Y57769159D01*
X85660718Y57643718D01*
X85786159Y57547464D01*
X85932238Y57486956D01*
X86010619Y57476637D01*
X86088999Y57466318D01*
X86089000Y57466318D01*
X86089001Y57466318D01*
X86141254Y57473198D01*
X86245762Y57486956D01*
X86391841Y57547464D01*
X86517282Y57643718D01*
X86613536Y57769159D01*
X86674044Y57915238D01*
X86694682Y58072000D01*
X86686361Y58135201D01*
X86674044Y58228761D01*
X86674044Y58228762D01*
X86613536Y58374841D01*
X86517282Y58500282D01*
X86391841Y58596536D01*
X86245762Y58657044D01*
X86245760Y58657045D01*
X86089001Y58677682D01*
X86088999Y58677682D01*
X85932239Y58657045D01*
X85932237Y58657044D01*
X85786160Y58596537D01*
X85660718Y58500282D01*
X85564463Y58374840D01*
X85503956Y58228763D01*
X85503955Y58228761D01*
X85483318Y58072002D01*
X85483318Y58071999D01*
X85043682Y58071999D01*
X85043682Y58072000D01*
X85035361Y58135201D01*
X85023044Y58228761D01*
X85023044Y58228762D01*
X84962536Y58374841D01*
X84866282Y58500282D01*
X84740841Y58596536D01*
X84594762Y58657044D01*
X84594760Y58657045D01*
X84438001Y58677682D01*
X84437999Y58677682D01*
X84281239Y58657045D01*
X84281237Y58657044D01*
X84135160Y58596537D01*
X84009718Y58500282D01*
X83913463Y58374840D01*
X83852956Y58228763D01*
X83852955Y58228761D01*
X83832318Y58072002D01*
X83832318Y58071999D01*
X53255164Y58071999D01*
X53306341Y58135197D01*
X53391086Y58301516D01*
X53439398Y58481821D01*
X53445500Y58559354D01*
X53445500Y59092748D01*
X69664500Y59092748D01*
X69676131Y59034271D01*
X69676132Y59034270D01*
X69720447Y58967948D01*
X69786769Y58923633D01*
X69786770Y58923632D01*
X69845247Y58912001D01*
X69845250Y58912000D01*
X69845252Y58912000D01*
X73884750Y58912000D01*
X73884751Y58912001D01*
X73899568Y58914948D01*
X73943229Y58923632D01*
X73943229Y58923633D01*
X73943231Y58923633D01*
X74009552Y58967948D01*
X74053867Y59034269D01*
X74053867Y59034271D01*
X74053868Y59034271D01*
X74065499Y59092748D01*
X74065500Y59092750D01*
X74065500Y60049999D01*
X75316318Y60049999D01*
X75336955Y59893240D01*
X75336956Y59893238D01*
X75397464Y59747159D01*
X75493718Y59621718D01*
X75619159Y59525464D01*
X75765238Y59464956D01*
X75824797Y59457115D01*
X75921999Y59444318D01*
X75922000Y59444318D01*
X75922001Y59444318D01*
X75974254Y59451198D01*
X76078762Y59464956D01*
X76224841Y59525464D01*
X76350282Y59621718D01*
X76446536Y59747159D01*
X76507044Y59893238D01*
X76527682Y60050000D01*
X76507044Y60206762D01*
X76446536Y60352841D01*
X76418812Y60388972D01*
X78699500Y60388972D01*
X78699501Y60388966D01*
X78710113Y60269585D01*
X78766089Y60073955D01*
X78766090Y60073952D01*
X78766091Y60073951D01*
X78860302Y59893593D01*
X78894977Y59851067D01*
X78988890Y59735891D01*
X79076742Y59664258D01*
X79146593Y59607302D01*
X79326951Y59513091D01*
X79522582Y59457114D01*
X79641963Y59446500D01*
X81358036Y59446501D01*
X81477418Y59457114D01*
X81673049Y59513091D01*
X81853407Y59607302D01*
X82011109Y59735891D01*
X82139698Y59893593D01*
X82233909Y60073951D01*
X82289886Y60269582D01*
X82300500Y60388963D01*
X82300500Y61246996D01*
X83394451Y61246996D01*
X83414616Y60977899D01*
X83474664Y60714812D01*
X83474666Y60714805D01*
X83565720Y60482804D01*
X83573257Y60463602D01*
X83708185Y60229898D01*
X83782924Y60136179D01*
X83876442Y60018911D01*
X84013692Y59891563D01*
X84074259Y59835365D01*
X84297226Y59683349D01*
X84540359Y59566262D01*
X84798228Y59486720D01*
X84798229Y59486720D01*
X84798232Y59486719D01*
X85065063Y59446501D01*
X85065068Y59446501D01*
X85065071Y59446500D01*
X85065072Y59446500D01*
X85334928Y59446500D01*
X85334929Y59446500D01*
X85334936Y59446501D01*
X85601767Y59486719D01*
X85601768Y59486720D01*
X85601772Y59486720D01*
X85859641Y59566262D01*
X86102775Y59683349D01*
X86325741Y59835365D01*
X86523561Y60018915D01*
X86691815Y60229898D01*
X86826743Y60463602D01*
X86925334Y60714805D01*
X86985383Y60977897D01*
X87001332Y61190730D01*
X87005549Y61246996D01*
X88094451Y61246996D01*
X88114616Y60977899D01*
X88174664Y60714812D01*
X88174666Y60714805D01*
X88265720Y60482804D01*
X88273257Y60463602D01*
X88408185Y60229898D01*
X88482924Y60136179D01*
X88576442Y60018911D01*
X88713692Y59891563D01*
X88774259Y59835365D01*
X88997226Y59683349D01*
X89240359Y59566262D01*
X89498228Y59486720D01*
X89498229Y59486720D01*
X89498232Y59486719D01*
X89765063Y59446501D01*
X89765068Y59446501D01*
X89765071Y59446500D01*
X89765072Y59446500D01*
X90034928Y59446500D01*
X90034929Y59446500D01*
X90034936Y59446501D01*
X90301767Y59486719D01*
X90301768Y59486720D01*
X90301772Y59486720D01*
X90559641Y59566262D01*
X90802775Y59683349D01*
X91025741Y59835365D01*
X91223561Y60018915D01*
X91391815Y60229898D01*
X91526743Y60463602D01*
X91625334Y60714805D01*
X91685383Y60977897D01*
X91701332Y61190730D01*
X91705549Y61246996D01*
X91705549Y61247005D01*
X91685383Y61516102D01*
X91625335Y61779189D01*
X91625334Y61779195D01*
X91526743Y62030398D01*
X91391815Y62264102D01*
X91223561Y62475085D01*
X91223560Y62475086D01*
X91223557Y62475090D01*
X91025741Y62658635D01*
X91003552Y62673763D01*
X90802775Y62810651D01*
X90802769Y62810654D01*
X90802768Y62810655D01*
X90802767Y62810656D01*
X90559643Y62927737D01*
X90559645Y62927737D01*
X90301773Y63007280D01*
X90301767Y63007282D01*
X90034936Y63047500D01*
X90034929Y63047500D01*
X89765071Y63047500D01*
X89765063Y63047500D01*
X89498232Y63007282D01*
X89498226Y63007280D01*
X89240358Y62927738D01*
X88997230Y62810654D01*
X88774258Y62658635D01*
X88576442Y62475090D01*
X88408185Y62264102D01*
X88273258Y62030401D01*
X88273256Y62030397D01*
X88174666Y61779196D01*
X88174664Y61779189D01*
X88114616Y61516102D01*
X88094451Y61247005D01*
X88094451Y61246996D01*
X87005549Y61246996D01*
X87005549Y61247005D01*
X86985383Y61516102D01*
X86925335Y61779189D01*
X86925334Y61779195D01*
X86826743Y62030398D01*
X86691815Y62264102D01*
X86523561Y62475085D01*
X86523560Y62475086D01*
X86523557Y62475090D01*
X86325741Y62658635D01*
X86303552Y62673763D01*
X86102775Y62810651D01*
X86102769Y62810654D01*
X86102768Y62810655D01*
X86102767Y62810656D01*
X85859643Y62927737D01*
X85859645Y62927737D01*
X85601773Y63007280D01*
X85601767Y63007282D01*
X85334936Y63047500D01*
X85334929Y63047500D01*
X85065071Y63047500D01*
X85065063Y63047500D01*
X84798232Y63007282D01*
X84798226Y63007280D01*
X84540358Y62927738D01*
X84297230Y62810654D01*
X84074258Y62658635D01*
X83876442Y62475090D01*
X83708185Y62264102D01*
X83573258Y62030401D01*
X83573256Y62030397D01*
X83474666Y61779196D01*
X83474664Y61779189D01*
X83414616Y61516102D01*
X83394451Y61247005D01*
X83394451Y61246996D01*
X82300500Y61246996D01*
X82300499Y62105036D01*
X82289886Y62224418D01*
X82233909Y62420049D01*
X82139698Y62600407D01*
X82079884Y62673763D01*
X82011109Y62758110D01*
X81853409Y62886696D01*
X81853410Y62886696D01*
X81853407Y62886698D01*
X81673049Y62980909D01*
X81673048Y62980910D01*
X81673045Y62980911D01*
X81555829Y63014450D01*
X81477418Y63036886D01*
X81477415Y63036887D01*
X81477413Y63036887D01*
X81411102Y63042783D01*
X81358037Y63047500D01*
X81358032Y63047500D01*
X79641971Y63047500D01*
X79641965Y63047500D01*
X79641964Y63047499D01*
X79630316Y63046464D01*
X79522584Y63036887D01*
X79326954Y62980911D01*
X79258746Y62945282D01*
X79146593Y62886698D01*
X79146591Y62886697D01*
X79146590Y62886696D01*
X78988890Y62758110D01*
X78860304Y62600410D01*
X78766089Y62420046D01*
X78710114Y62224417D01*
X78710113Y62224414D01*
X78699500Y62105034D01*
X78699500Y60388972D01*
X76418812Y60388972D01*
X76350282Y60478282D01*
X76224841Y60574536D01*
X76193427Y60587548D01*
X76078762Y60635044D01*
X76078760Y60635045D01*
X75922001Y60655682D01*
X75921999Y60655682D01*
X75765239Y60635045D01*
X75765237Y60635044D01*
X75619160Y60574537D01*
X75493718Y60478282D01*
X75397463Y60352840D01*
X75336956Y60206763D01*
X75336955Y60206761D01*
X75316318Y60050002D01*
X75316318Y60049999D01*
X74065500Y60049999D01*
X74065500Y61132251D01*
X74065499Y61132253D01*
X74053868Y61190730D01*
X74053867Y61190731D01*
X74009552Y61257053D01*
X73943230Y61301368D01*
X73943229Y61301369D01*
X73884752Y61313000D01*
X73884748Y61313000D01*
X69845252Y61313000D01*
X69845247Y61313000D01*
X69786770Y61301369D01*
X69786769Y61301368D01*
X69720447Y61257053D01*
X69676132Y61190731D01*
X69676131Y61190730D01*
X69664500Y61132253D01*
X69664500Y59092748D01*
X53445500Y59092748D01*
X53445500Y60049999D01*
X67315318Y60049999D01*
X67335955Y59893240D01*
X67335956Y59893238D01*
X67396464Y59747159D01*
X67492718Y59621718D01*
X67618159Y59525464D01*
X67764238Y59464956D01*
X67823797Y59457115D01*
X67920999Y59444318D01*
X67921000Y59444318D01*
X67921001Y59444318D01*
X67973254Y59451198D01*
X68077762Y59464956D01*
X68223841Y59525464D01*
X68349282Y59621718D01*
X68445536Y59747159D01*
X68506044Y59893238D01*
X68526682Y60050000D01*
X68506044Y60206762D01*
X68445536Y60352841D01*
X68349282Y60478282D01*
X68223841Y60574536D01*
X68192427Y60587548D01*
X68077762Y60635044D01*
X68077760Y60635045D01*
X67921001Y60655682D01*
X67920999Y60655682D01*
X67764239Y60635045D01*
X67764237Y60635044D01*
X67618160Y60574537D01*
X67492718Y60478282D01*
X67396463Y60352840D01*
X67335956Y60206763D01*
X67335955Y60206761D01*
X67315318Y60050002D01*
X67315318Y60049999D01*
X53445500Y60049999D01*
X53445500Y60058646D01*
X53439398Y60136179D01*
X53391086Y60316484D01*
X53335033Y60426492D01*
X53306343Y60482800D01*
X53306340Y60482804D01*
X53188869Y60627869D01*
X53043803Y60745341D01*
X53043799Y60745344D01*
X52877484Y60830086D01*
X52697177Y60878399D01*
X52619651Y60884500D01*
X52619646Y60884500D01*
X51120354Y60884500D01*
X51120348Y60884500D01*
X51042822Y60878399D01*
X50862515Y60830086D01*
X50696200Y60745344D01*
X50696196Y60745341D01*
X50551131Y60627869D01*
X50433659Y60482804D01*
X50433656Y60482800D01*
X50348914Y60316485D01*
X50300601Y60136178D01*
X50294500Y60058652D01*
X50294500Y58559349D01*
X49258404Y58559349D01*
X49278122Y58591526D01*
X49373023Y58820638D01*
X49430915Y59061775D01*
X49450372Y59309000D01*
X49430915Y59556225D01*
X49418652Y59607305D01*
X49373023Y59797363D01*
X49278122Y60026475D01*
X49153463Y60229898D01*
X49148548Y60237919D01*
X49148547Y60237920D01*
X49148546Y60237922D01*
X49081447Y60316484D01*
X48987492Y60426492D01*
X48884399Y60514542D01*
X48798921Y60587547D01*
X48798916Y60587550D01*
X48587474Y60717123D01*
X48358362Y60812024D01*
X48117228Y60869915D01*
X47870000Y60889372D01*
X47622771Y60869915D01*
X47381637Y60812024D01*
X47152525Y60717123D01*
X46941083Y60587550D01*
X46941078Y60587547D01*
X46752508Y60426492D01*
X46591453Y60237922D01*
X46591450Y60237917D01*
X46461877Y60026475D01*
X46366976Y59797363D01*
X46309085Y59556229D01*
X46289628Y59309000D01*
X45450372Y59309000D01*
X45430915Y59556225D01*
X45418652Y59607305D01*
X45373023Y59797363D01*
X45278122Y60026475D01*
X45153463Y60229898D01*
X45148548Y60237919D01*
X45148547Y60237920D01*
X45148546Y60237922D01*
X45081447Y60316484D01*
X44987492Y60426492D01*
X44884399Y60514542D01*
X44798921Y60587547D01*
X44798916Y60587550D01*
X44587474Y60717123D01*
X44358362Y60812024D01*
X44117228Y60869915D01*
X43870000Y60889372D01*
X43622771Y60869915D01*
X43381637Y60812024D01*
X43152525Y60717123D01*
X42941083Y60587550D01*
X42941078Y60587547D01*
X42752508Y60426492D01*
X42591453Y60237922D01*
X42591450Y60237917D01*
X42461877Y60026475D01*
X42366976Y59797363D01*
X42309085Y59556229D01*
X42289628Y59309000D01*
X41450372Y59309000D01*
X41430915Y59556225D01*
X41418652Y59607305D01*
X41373023Y59797363D01*
X41278122Y60026475D01*
X41153463Y60229898D01*
X41148548Y60237919D01*
X41148547Y60237920D01*
X41148546Y60237922D01*
X41081447Y60316484D01*
X40987492Y60426492D01*
X40884399Y60514542D01*
X40798921Y60587547D01*
X40798916Y60587550D01*
X40587474Y60717123D01*
X40358362Y60812024D01*
X40117228Y60869915D01*
X39870000Y60889372D01*
X39622771Y60869915D01*
X39381637Y60812024D01*
X39152525Y60717123D01*
X38941083Y60587550D01*
X38941078Y60587547D01*
X38752508Y60426492D01*
X38591453Y60237922D01*
X38591450Y60237917D01*
X38461877Y60026475D01*
X38366976Y59797363D01*
X38309085Y59556229D01*
X38289628Y59309000D01*
X34950372Y59309000D01*
X34930915Y59556225D01*
X34918652Y59607305D01*
X34873023Y59797363D01*
X34778122Y60026475D01*
X34653463Y60229898D01*
X34648548Y60237919D01*
X34648547Y60237920D01*
X34648546Y60237922D01*
X34581447Y60316484D01*
X34487492Y60426492D01*
X34384399Y60514542D01*
X34298921Y60587547D01*
X34298916Y60587550D01*
X34087474Y60717123D01*
X33858362Y60812024D01*
X33617228Y60869915D01*
X33370000Y60889372D01*
X33122771Y60869915D01*
X32881637Y60812024D01*
X32652525Y60717123D01*
X32441083Y60587550D01*
X32441078Y60587547D01*
X32252508Y60426492D01*
X32091453Y60237922D01*
X32091450Y60237917D01*
X31961877Y60026475D01*
X31866976Y59797363D01*
X31809085Y59556229D01*
X31789628Y59309000D01*
X30950372Y59309000D01*
X30930915Y59556225D01*
X30918652Y59607305D01*
X30873023Y59797363D01*
X30778122Y60026475D01*
X30653463Y60229898D01*
X30648548Y60237919D01*
X30648547Y60237920D01*
X30648546Y60237922D01*
X30581447Y60316484D01*
X30487492Y60426492D01*
X30384399Y60514542D01*
X30298921Y60587547D01*
X30298916Y60587550D01*
X30087474Y60717123D01*
X29858362Y60812024D01*
X29617228Y60869915D01*
X29370000Y60889372D01*
X29122771Y60869915D01*
X28881637Y60812024D01*
X28652525Y60717123D01*
X28441083Y60587550D01*
X28441078Y60587547D01*
X28252508Y60426492D01*
X28091453Y60237922D01*
X28091450Y60237917D01*
X27961877Y60026475D01*
X27866976Y59797363D01*
X27809085Y59556229D01*
X27789628Y59309000D01*
X27249789Y59309000D01*
X27249789Y59309002D01*
X27230654Y59576524D01*
X27230653Y59576531D01*
X27173645Y59838594D01*
X27079915Y60089895D01*
X27079913Y60089899D01*
X26951382Y60325286D01*
X26951377Y60325294D01*
X26860819Y60446267D01*
X26047577Y59633026D01*
X26034641Y59664258D01*
X25952563Y59787097D01*
X25848097Y59891563D01*
X25725258Y59973641D01*
X25694024Y59986579D01*
X26507265Y60799820D01*
X26507265Y60799821D01*
X26386293Y60890378D01*
X26386285Y60890383D01*
X26150898Y61018914D01*
X26150894Y61018916D01*
X25899593Y61112646D01*
X25637530Y61169654D01*
X25637523Y61169655D01*
X25370001Y61188789D01*
X25369999Y61188789D01*
X25102476Y61169655D01*
X25102469Y61169654D01*
X24840406Y61112646D01*
X24589105Y61018916D01*
X24589101Y61018914D01*
X24353709Y60890380D01*
X24232733Y60799821D01*
X25045975Y59986579D01*
X25014742Y59973641D01*
X24891903Y59891563D01*
X24787437Y59787097D01*
X24705359Y59664258D01*
X24692421Y59633025D01*
X23879179Y60446267D01*
X23788620Y60325291D01*
X23660086Y60089899D01*
X23660084Y60089895D01*
X23566354Y59838594D01*
X23509346Y59576531D01*
X23509345Y59576524D01*
X23490211Y59309002D01*
X23490211Y59308999D01*
X250500Y59308999D01*
X250500Y62516999D01*
X67316318Y62516999D01*
X67336955Y62360240D01*
X67336956Y62360238D01*
X67393214Y62224418D01*
X67397464Y62214159D01*
X67493718Y62088718D01*
X67619159Y61992464D01*
X67765238Y61931956D01*
X67843619Y61921637D01*
X67921999Y61911318D01*
X67922000Y61911318D01*
X67922001Y61911318D01*
X67974254Y61918198D01*
X68078762Y61931956D01*
X68224841Y61992464D01*
X68350282Y62088718D01*
X68446536Y62214159D01*
X68507044Y62360238D01*
X68527682Y62516999D01*
X69316318Y62516999D01*
X69336955Y62360240D01*
X69336956Y62360238D01*
X69393214Y62224418D01*
X69397464Y62214159D01*
X69493718Y62088718D01*
X69619159Y61992464D01*
X69765238Y61931956D01*
X69843619Y61921637D01*
X69921999Y61911318D01*
X69922000Y61911318D01*
X69922001Y61911318D01*
X69974254Y61918198D01*
X70078762Y61931956D01*
X70224841Y61992464D01*
X70350282Y62088718D01*
X70446536Y62214159D01*
X70507044Y62360238D01*
X70527682Y62516999D01*
X71316318Y62516999D01*
X71336955Y62360240D01*
X71336956Y62360238D01*
X71393214Y62224418D01*
X71397464Y62214159D01*
X71493718Y62088718D01*
X71619159Y61992464D01*
X71765238Y61931956D01*
X71843619Y61921637D01*
X71921999Y61911318D01*
X71922000Y61911318D01*
X71922001Y61911318D01*
X71974254Y61918198D01*
X72078762Y61931956D01*
X72224841Y61992464D01*
X72350282Y62088718D01*
X72446536Y62214159D01*
X72507044Y62360238D01*
X72527682Y62516999D01*
X73316318Y62516999D01*
X73336955Y62360240D01*
X73336956Y62360238D01*
X73393214Y62224418D01*
X73397464Y62214159D01*
X73493718Y62088718D01*
X73619159Y61992464D01*
X73765238Y61931956D01*
X73843619Y61921637D01*
X73921999Y61911318D01*
X73922000Y61911318D01*
X73922001Y61911318D01*
X73974254Y61918198D01*
X74078762Y61931956D01*
X74224841Y61992464D01*
X74350282Y62088718D01*
X74446536Y62214159D01*
X74507044Y62360238D01*
X74527682Y62516999D01*
X75316318Y62516999D01*
X75336955Y62360240D01*
X75336956Y62360238D01*
X75393214Y62224418D01*
X75397464Y62214159D01*
X75493718Y62088718D01*
X75619159Y61992464D01*
X75765238Y61931956D01*
X75843619Y61921637D01*
X75921999Y61911318D01*
X75922000Y61911318D01*
X75922001Y61911318D01*
X75974254Y61918198D01*
X76078762Y61931956D01*
X76224841Y61992464D01*
X76350282Y62088718D01*
X76446536Y62214159D01*
X76507044Y62360238D01*
X76527682Y62517000D01*
X76507044Y62673762D01*
X76446536Y62819841D01*
X76350282Y62945282D01*
X76224841Y63041536D01*
X76078762Y63102044D01*
X76078760Y63102045D01*
X75922001Y63122682D01*
X75921999Y63122682D01*
X75765239Y63102045D01*
X75765237Y63102044D01*
X75619160Y63041537D01*
X75493718Y62945282D01*
X75397463Y62819840D01*
X75336956Y62673763D01*
X75336955Y62673761D01*
X75316318Y62517002D01*
X75316318Y62516999D01*
X74527682Y62516999D01*
X74527682Y62517000D01*
X74507044Y62673762D01*
X74446536Y62819841D01*
X74350282Y62945282D01*
X74224841Y63041536D01*
X74078762Y63102044D01*
X74078760Y63102045D01*
X73922001Y63122682D01*
X73921999Y63122682D01*
X73765239Y63102045D01*
X73765237Y63102044D01*
X73619160Y63041537D01*
X73493718Y62945282D01*
X73397463Y62819840D01*
X73336956Y62673763D01*
X73336955Y62673761D01*
X73316318Y62517002D01*
X73316318Y62516999D01*
X72527682Y62516999D01*
X72527682Y62517000D01*
X72507044Y62673762D01*
X72446536Y62819841D01*
X72350282Y62945282D01*
X72224841Y63041536D01*
X72078762Y63102044D01*
X72078760Y63102045D01*
X71922001Y63122682D01*
X71921999Y63122682D01*
X71765239Y63102045D01*
X71765237Y63102044D01*
X71619160Y63041537D01*
X71493718Y62945282D01*
X71397463Y62819840D01*
X71336956Y62673763D01*
X71336955Y62673761D01*
X71316318Y62517002D01*
X71316318Y62516999D01*
X70527682Y62516999D01*
X70527682Y62517000D01*
X70507044Y62673762D01*
X70446536Y62819841D01*
X70350282Y62945282D01*
X70224841Y63041536D01*
X70078762Y63102044D01*
X70078760Y63102045D01*
X69922001Y63122682D01*
X69921999Y63122682D01*
X69765239Y63102045D01*
X69765237Y63102044D01*
X69619160Y63041537D01*
X69493718Y62945282D01*
X69397463Y62819840D01*
X69336956Y62673763D01*
X69336955Y62673761D01*
X69316318Y62517002D01*
X69316318Y62516999D01*
X68527682Y62516999D01*
X68527682Y62517000D01*
X68507044Y62673762D01*
X68446536Y62819841D01*
X68350282Y62945282D01*
X68224841Y63041536D01*
X68078762Y63102044D01*
X68078760Y63102045D01*
X67922001Y63122682D01*
X67921999Y63122682D01*
X67765239Y63102045D01*
X67765237Y63102044D01*
X67619160Y63041537D01*
X67493718Y62945282D01*
X67397463Y62819840D01*
X67336956Y62673763D01*
X67336955Y62673761D01*
X67316318Y62517002D01*
X67316318Y62516999D01*
X250500Y62516999D01*
X250500Y67928712D01*
X2099500Y67928712D01*
X2131161Y67688215D01*
X2193947Y67453896D01*
X2218171Y67395415D01*
X2286776Y67229788D01*
X2408064Y67019711D01*
X2408066Y67019708D01*
X2408067Y67019707D01*
X2555733Y66827264D01*
X2555739Y66827257D01*
X2727256Y66655740D01*
X2727262Y66655735D01*
X2919711Y66508064D01*
X3129788Y66386776D01*
X3353900Y66293946D01*
X3588211Y66231162D01*
X3768586Y66207416D01*
X3828711Y66199500D01*
X3828712Y66199500D01*
X4071289Y66199500D01*
X4119388Y66205833D01*
X4311789Y66231162D01*
X4546100Y66293946D01*
X4770212Y66386776D01*
X4824318Y66418014D01*
X66164500Y66418014D01*
X66194059Y66231382D01*
X66252454Y66051664D01*
X66319792Y65919507D01*
X66338240Y65883301D01*
X66449310Y65730427D01*
X66582927Y65596810D01*
X66735801Y65485740D01*
X66815347Y65445210D01*
X66904163Y65399955D01*
X66904165Y65399955D01*
X66904168Y65399953D01*
X67000497Y65368654D01*
X67083881Y65341560D01*
X67270514Y65312000D01*
X67270519Y65312000D01*
X67459486Y65312000D01*
X67646118Y65341560D01*
X67825832Y65399953D01*
X67994199Y65485740D01*
X68147073Y65596810D01*
X68280690Y65730427D01*
X68376647Y65862500D01*
X69685898Y65862500D01*
X69701934Y65761253D01*
X69774897Y65536698D01*
X69882085Y65326329D01*
X70020866Y65135314D01*
X70187813Y64968367D01*
X70378828Y64829586D01*
X70589197Y64722398D01*
X70813752Y64649435D01*
X70813751Y64649435D01*
X71046948Y64612500D01*
X71615000Y64612500D01*
X71615000Y65612500D01*
X72115000Y65612500D01*
X72115000Y64612500D01*
X72683052Y64612500D01*
X72916247Y64649435D01*
X73140802Y64722398D01*
X73351171Y64829586D01*
X73542186Y64968367D01*
X73709133Y65135314D01*
X73847914Y65326329D01*
X73955102Y65536698D01*
X74028065Y65761253D01*
X74044102Y65862500D01*
X72948012Y65862500D01*
X72980925Y65919507D01*
X73015000Y66046674D01*
X73015000Y66178326D01*
X72980925Y66305493D01*
X72948012Y66362500D01*
X74044102Y66362500D01*
X74035309Y66418014D01*
X75164500Y66418014D01*
X75194059Y66231382D01*
X75252454Y66051664D01*
X75319792Y65919507D01*
X75338240Y65883301D01*
X75449310Y65730427D01*
X75582927Y65596810D01*
X75735801Y65485740D01*
X75815347Y65445210D01*
X75904163Y65399955D01*
X75904165Y65399955D01*
X75904168Y65399953D01*
X76000497Y65368654D01*
X76083881Y65341560D01*
X76270514Y65312000D01*
X76270519Y65312000D01*
X76459486Y65312000D01*
X76646118Y65341560D01*
X76825832Y65399953D01*
X76994199Y65485740D01*
X77147073Y65596810D01*
X77280690Y65730427D01*
X77391760Y65883301D01*
X77477547Y66051668D01*
X77535940Y66231382D01*
X77545849Y66293946D01*
X77565500Y66418014D01*
X77565500Y67906987D01*
X77562059Y67928712D01*
X94099500Y67928712D01*
X94131161Y67688215D01*
X94193947Y67453896D01*
X94218171Y67395415D01*
X94286776Y67229788D01*
X94408064Y67019711D01*
X94408066Y67019708D01*
X94408067Y67019707D01*
X94555733Y66827264D01*
X94555739Y66827257D01*
X94727256Y66655740D01*
X94727262Y66655735D01*
X94919711Y66508064D01*
X95129788Y66386776D01*
X95353900Y66293946D01*
X95588211Y66231162D01*
X95768586Y66207416D01*
X95828711Y66199500D01*
X95828712Y66199500D01*
X96071289Y66199500D01*
X96119388Y66205833D01*
X96311789Y66231162D01*
X96546100Y66293946D01*
X96770212Y66386776D01*
X96980289Y66508064D01*
X97172738Y66655735D01*
X97344265Y66827262D01*
X97491936Y67019711D01*
X97613224Y67229788D01*
X97706054Y67453900D01*
X97768838Y67688211D01*
X97800500Y67928712D01*
X97800500Y68171288D01*
X97768838Y68411789D01*
X97706054Y68646100D01*
X97613224Y68870212D01*
X97491936Y69080289D01*
X97344265Y69272738D01*
X97344260Y69272744D01*
X97172743Y69444261D01*
X97172736Y69444267D01*
X96980293Y69591933D01*
X96980292Y69591934D01*
X96980289Y69591936D01*
X96770212Y69713224D01*
X96770205Y69713227D01*
X96546104Y69806053D01*
X96311785Y69868839D01*
X96071289Y69900500D01*
X96071288Y69900500D01*
X95828712Y69900500D01*
X95828711Y69900500D01*
X95588214Y69868839D01*
X95353895Y69806053D01*
X95129794Y69713227D01*
X95129785Y69713223D01*
X94919706Y69591933D01*
X94727263Y69444267D01*
X94727256Y69444261D01*
X94555739Y69272744D01*
X94555733Y69272737D01*
X94408067Y69080294D01*
X94286777Y68870215D01*
X94286773Y68870206D01*
X94193947Y68646105D01*
X94131161Y68411786D01*
X94099500Y68171289D01*
X94099500Y67928712D01*
X77562059Y67928712D01*
X77535940Y68093619D01*
X77477545Y68273337D01*
X77391759Y68441700D01*
X77390927Y68442845D01*
X77280690Y68594573D01*
X77147073Y68728190D01*
X76994199Y68839260D01*
X76825836Y68925046D01*
X76646118Y68983441D01*
X76459486Y69013000D01*
X76459481Y69013000D01*
X76270519Y69013000D01*
X76270514Y69013000D01*
X76083881Y68983441D01*
X75904163Y68925046D01*
X75735800Y68839260D01*
X75648579Y68775890D01*
X75582927Y68728190D01*
X75582925Y68728188D01*
X75582924Y68728188D01*
X75449312Y68594576D01*
X75449312Y68594575D01*
X75449310Y68594573D01*
X75401610Y68528921D01*
X75338240Y68441700D01*
X75252454Y68273337D01*
X75194059Y68093619D01*
X75164500Y67906987D01*
X75164500Y66418014D01*
X74035309Y66418014D01*
X74028065Y66463748D01*
X73955102Y66688303D01*
X73847914Y66898672D01*
X73709133Y67089687D01*
X73542186Y67256634D01*
X73351171Y67395415D01*
X73140802Y67502603D01*
X72916247Y67575566D01*
X72916248Y67575566D01*
X72683052Y67612500D01*
X72115000Y67612500D01*
X72115000Y66612500D01*
X71615000Y66612500D01*
X71615000Y67612500D01*
X71046948Y67612500D01*
X70813752Y67575566D01*
X70589197Y67502603D01*
X70378828Y67395415D01*
X70187813Y67256634D01*
X70020866Y67089687D01*
X69882085Y66898672D01*
X69774897Y66688303D01*
X69701934Y66463748D01*
X69685898Y66362500D01*
X70781988Y66362500D01*
X70749075Y66305493D01*
X70715000Y66178326D01*
X70715000Y66046674D01*
X70749075Y65919507D01*
X70781988Y65862500D01*
X69685898Y65862500D01*
X68376647Y65862500D01*
X68391760Y65883301D01*
X68477547Y66051668D01*
X68535940Y66231382D01*
X68545849Y66293946D01*
X68565500Y66418014D01*
X68565500Y67906987D01*
X68535940Y68093619D01*
X68477545Y68273337D01*
X68391759Y68441700D01*
X68390927Y68442845D01*
X68280690Y68594573D01*
X68147073Y68728190D01*
X67994199Y68839260D01*
X67825836Y68925046D01*
X67646118Y68983441D01*
X67484546Y69009031D01*
X70814500Y69009031D01*
X70848270Y68839260D01*
X70854870Y68806080D01*
X70934059Y68614902D01*
X70991541Y68528874D01*
X71049024Y68442843D01*
X71195342Y68296525D01*
X71195345Y68296523D01*
X71367402Y68181559D01*
X71558580Y68102370D01*
X71761530Y68062001D01*
X71761534Y68062000D01*
X71761535Y68062000D01*
X71968466Y68062000D01*
X71968467Y68062001D01*
X72171420Y68102370D01*
X72362598Y68181559D01*
X72534655Y68296523D01*
X72680977Y68442845D01*
X72795941Y68614902D01*
X72875130Y68806080D01*
X72915500Y69009035D01*
X72915500Y69215965D01*
X72875130Y69418920D01*
X72795941Y69610098D01*
X72680977Y69782155D01*
X72680975Y69782158D01*
X72534657Y69928476D01*
X72448626Y69985959D01*
X72362598Y70043441D01*
X72171420Y70122630D01*
X72171412Y70122632D01*
X71968469Y70163000D01*
X71968465Y70163000D01*
X71761535Y70163000D01*
X71761530Y70163000D01*
X71558587Y70122632D01*
X71558579Y70122630D01*
X71367403Y70043442D01*
X71195342Y69928476D01*
X71049024Y69782158D01*
X70934058Y69610097D01*
X70854870Y69418921D01*
X70854868Y69418913D01*
X70814500Y69215970D01*
X70814500Y69009031D01*
X67484546Y69009031D01*
X67459486Y69013000D01*
X67459481Y69013000D01*
X67270519Y69013000D01*
X67270514Y69013000D01*
X67083881Y68983441D01*
X66904163Y68925046D01*
X66735800Y68839260D01*
X66648579Y68775890D01*
X66582927Y68728190D01*
X66582925Y68728188D01*
X66582924Y68728188D01*
X66449312Y68594576D01*
X66449312Y68594575D01*
X66449310Y68594573D01*
X66401610Y68528921D01*
X66338240Y68441700D01*
X66252454Y68273337D01*
X66194059Y68093619D01*
X66164500Y67906987D01*
X66164500Y66418014D01*
X4824318Y66418014D01*
X4980289Y66508064D01*
X5172738Y66655735D01*
X5344265Y66827262D01*
X5491936Y67019711D01*
X5613224Y67229788D01*
X5706054Y67453900D01*
X5768838Y67688211D01*
X5800500Y67928712D01*
X5800500Y68171288D01*
X5768838Y68411789D01*
X5706054Y68646100D01*
X5613224Y68870212D01*
X5491936Y69080289D01*
X5344265Y69272738D01*
X5344260Y69272744D01*
X5172743Y69444261D01*
X5172736Y69444267D01*
X4980293Y69591933D01*
X4980292Y69591934D01*
X4980289Y69591936D01*
X4770212Y69713224D01*
X4770205Y69713227D01*
X4546104Y69806053D01*
X4311785Y69868839D01*
X4071289Y69900500D01*
X4071288Y69900500D01*
X3828712Y69900500D01*
X3828711Y69900500D01*
X3588214Y69868839D01*
X3353895Y69806053D01*
X3129794Y69713227D01*
X3129785Y69713223D01*
X2919706Y69591933D01*
X2727263Y69444267D01*
X2727256Y69444261D01*
X2555739Y69272744D01*
X2555733Y69272737D01*
X2408067Y69080294D01*
X2286777Y68870215D01*
X2286773Y68870206D01*
X2193947Y68646105D01*
X2131161Y68411786D01*
X2099500Y68171289D01*
X2099500Y67928712D01*
X250500Y67928712D01*
X250500Y69046520D01*
X250695Y69053473D01*
X259820Y69215965D01*
X267084Y69345309D01*
X268638Y69359102D01*
X317015Y69643833D01*
X320109Y69657385D01*
X390150Y69900500D01*
X400061Y69934904D01*
X404653Y69948025D01*
X515175Y70214849D01*
X521195Y70227349D01*
X660902Y70480132D01*
X668297Y70491900D01*
X709842Y70550452D01*
X835422Y70727441D01*
X844077Y70738295D01*
X1036534Y70953654D01*
X1046346Y70963466D01*
X1261705Y71155923D01*
X1272559Y71164578D01*
X1508105Y71331707D01*
X1519868Y71339098D01*
X1772651Y71478805D01*
X1785151Y71484825D01*
X2051979Y71595349D01*
X2065096Y71599939D01*
X2342621Y71679893D01*
X2356167Y71682985D01*
X2640898Y71731362D01*
X2654691Y71732916D01*
X2946528Y71749305D01*
X2953481Y71749500D01*
X2997595Y71749500D01*
X96902405Y71749500D01*
X96946519Y71749500D01*
X96953472Y71749305D01*
G37*
%TD.AperFunction*%
%TD*%
M02*
