%TF.GenerationSoftware,KiCad,Pcbnew,7.0.9*%
%TF.CreationDate,2024-01-15T17:37:11-05:00*%
%TF.ProjectId,stm32-snake-controller,73746d33-322d-4736-9e61-6b652d636f6e,A*%
%TF.SameCoordinates,Original*%
%TF.FileFunction,Legend,Bot*%
%TF.FilePolarity,Positive*%
%FSLAX46Y46*%
G04 Gerber Fmt 4.6, Leading zero omitted, Abs format (unit mm)*
G04 Created by KiCad (PCBNEW 7.0.9) date 2024-01-15 17:37:11*
%MOMM*%
%LPD*%
G01*
G04 APERTURE LIST*
G04 Aperture macros list*
%AMRoundRect*
0 Rectangle with rounded corners*
0 $1 Rounding radius*
0 $2 $3 $4 $5 $6 $7 $8 $9 X,Y pos of 4 corners*
0 Add a 4 corners polygon primitive as box body*
4,1,4,$2,$3,$4,$5,$6,$7,$8,$9,$2,$3,0*
0 Add four circle primitives for the rounded corners*
1,1,$1+$1,$2,$3*
1,1,$1+$1,$4,$5*
1,1,$1+$1,$6,$7*
1,1,$1+$1,$8,$9*
0 Add four rect primitives between the rounded corners*
20,1,$1+$1,$2,$3,$4,$5,0*
20,1,$1+$1,$4,$5,$6,$7,0*
20,1,$1+$1,$6,$7,$8,$9,0*
20,1,$1+$1,$8,$9,$2,$3,0*%
G04 Aperture macros list end*
%ADD10C,0.153000*%
%ADD11RoundRect,0.250000X-0.625000X0.350000X-0.625000X-0.350000X0.625000X-0.350000X0.625000X0.350000X0*%
%ADD12O,1.750000X1.200000*%
%ADD13RoundRect,0.250000X0.625000X-0.350000X0.625000X0.350000X-0.625000X0.350000X-0.625000X-0.350000X0*%
%ADD14C,3.200000*%
%ADD15R,1.650000X1.650000*%
%ADD16C,1.650000*%
%ADD17RoundRect,0.250000X0.350000X0.625000X-0.350000X0.625000X-0.350000X-0.625000X0.350000X-0.625000X0*%
%ADD18O,1.200000X1.750000*%
%ADD19O,2.000000X3.300000*%
%ADD20C,1.600000*%
%ADD21R,4.000000X2.000000*%
%ADD22O,3.400000X2.000000*%
%ADD23RoundRect,0.687500X-0.687500X-0.687500X0.687500X-0.687500X0.687500X0.687500X-0.687500X0.687500X0*%
%ADD24C,2.750000*%
%ADD25C,0.991000*%
%ADD26RoundRect,0.687500X0.687500X0.687500X-0.687500X0.687500X-0.687500X-0.687500X0.687500X-0.687500X0*%
%ADD27R,1.524000X1.524000*%
%ADD28C,1.524000*%
%ADD29C,3.500000*%
G04 APERTURE END LIST*
D10*
X216963048Y-132931663D02*
X216963048Y-133645948D01*
X216963048Y-133645948D02*
X217010667Y-133788805D01*
X217010667Y-133788805D02*
X217105905Y-133884044D01*
X217105905Y-133884044D02*
X217248762Y-133931663D01*
X217248762Y-133931663D02*
X217344000Y-133931663D01*
X216010667Y-133931663D02*
X216486857Y-133931663D01*
X216486857Y-133931663D02*
X216486857Y-132931663D01*
X215105905Y-133836424D02*
X215153524Y-133884044D01*
X215153524Y-133884044D02*
X215296381Y-133931663D01*
X215296381Y-133931663D02*
X215391619Y-133931663D01*
X215391619Y-133931663D02*
X215534476Y-133884044D01*
X215534476Y-133884044D02*
X215629714Y-133788805D01*
X215629714Y-133788805D02*
X215677333Y-133693567D01*
X215677333Y-133693567D02*
X215724952Y-133503091D01*
X215724952Y-133503091D02*
X215724952Y-133360234D01*
X215724952Y-133360234D02*
X215677333Y-133169758D01*
X215677333Y-133169758D02*
X215629714Y-133074520D01*
X215629714Y-133074520D02*
X215534476Y-132979282D01*
X215534476Y-132979282D02*
X215391619Y-132931663D01*
X215391619Y-132931663D02*
X215296381Y-132931663D01*
X215296381Y-132931663D02*
X215153524Y-132979282D01*
X215153524Y-132979282D02*
X215105905Y-133026901D01*
X214391619Y-132931663D02*
X214391619Y-133645948D01*
X214391619Y-133645948D02*
X214439238Y-133788805D01*
X214439238Y-133788805D02*
X214534476Y-133884044D01*
X214534476Y-133884044D02*
X214677333Y-133931663D01*
X214677333Y-133931663D02*
X214772571Y-133931663D01*
X213439238Y-133931663D02*
X213915428Y-133931663D01*
X213915428Y-133931663D02*
X213915428Y-132931663D01*
X212534476Y-133836424D02*
X212582095Y-133884044D01*
X212582095Y-133884044D02*
X212724952Y-133931663D01*
X212724952Y-133931663D02*
X212820190Y-133931663D01*
X212820190Y-133931663D02*
X212963047Y-133884044D01*
X212963047Y-133884044D02*
X213058285Y-133788805D01*
X213058285Y-133788805D02*
X213105904Y-133693567D01*
X213105904Y-133693567D02*
X213153523Y-133503091D01*
X213153523Y-133503091D02*
X213153523Y-133360234D01*
X213153523Y-133360234D02*
X213105904Y-133169758D01*
X213105904Y-133169758D02*
X213058285Y-133074520D01*
X213058285Y-133074520D02*
X212963047Y-132979282D01*
X212963047Y-132979282D02*
X212820190Y-132931663D01*
X212820190Y-132931663D02*
X212724952Y-132931663D01*
X212724952Y-132931663D02*
X212582095Y-132979282D01*
X212582095Y-132979282D02*
X212534476Y-133026901D01*
X211820190Y-132931663D02*
X211820190Y-133645948D01*
X211820190Y-133645948D02*
X211867809Y-133788805D01*
X211867809Y-133788805D02*
X211963047Y-133884044D01*
X211963047Y-133884044D02*
X212105904Y-133931663D01*
X212105904Y-133931663D02*
X212201142Y-133931663D01*
X210867809Y-133931663D02*
X211343999Y-133931663D01*
X211343999Y-133931663D02*
X211343999Y-132931663D01*
X209963047Y-133836424D02*
X210010666Y-133884044D01*
X210010666Y-133884044D02*
X210153523Y-133931663D01*
X210153523Y-133931663D02*
X210248761Y-133931663D01*
X210248761Y-133931663D02*
X210391618Y-133884044D01*
X210391618Y-133884044D02*
X210486856Y-133788805D01*
X210486856Y-133788805D02*
X210534475Y-133693567D01*
X210534475Y-133693567D02*
X210582094Y-133503091D01*
X210582094Y-133503091D02*
X210582094Y-133360234D01*
X210582094Y-133360234D02*
X210534475Y-133169758D01*
X210534475Y-133169758D02*
X210486856Y-133074520D01*
X210486856Y-133074520D02*
X210391618Y-132979282D01*
X210391618Y-132979282D02*
X210248761Y-132931663D01*
X210248761Y-132931663D02*
X210153523Y-132931663D01*
X210153523Y-132931663D02*
X210010666Y-132979282D01*
X210010666Y-132979282D02*
X209963047Y-133026901D01*
X209248761Y-132931663D02*
X209248761Y-133645948D01*
X209248761Y-133645948D02*
X209296380Y-133788805D01*
X209296380Y-133788805D02*
X209391618Y-133884044D01*
X209391618Y-133884044D02*
X209534475Y-133931663D01*
X209534475Y-133931663D02*
X209629713Y-133931663D01*
X208296380Y-133931663D02*
X208772570Y-133931663D01*
X208772570Y-133931663D02*
X208772570Y-132931663D01*
X207391618Y-133836424D02*
X207439237Y-133884044D01*
X207439237Y-133884044D02*
X207582094Y-133931663D01*
X207582094Y-133931663D02*
X207677332Y-133931663D01*
X207677332Y-133931663D02*
X207820189Y-133884044D01*
X207820189Y-133884044D02*
X207915427Y-133788805D01*
X207915427Y-133788805D02*
X207963046Y-133693567D01*
X207963046Y-133693567D02*
X208010665Y-133503091D01*
X208010665Y-133503091D02*
X208010665Y-133360234D01*
X208010665Y-133360234D02*
X207963046Y-133169758D01*
X207963046Y-133169758D02*
X207915427Y-133074520D01*
X207915427Y-133074520D02*
X207820189Y-132979282D01*
X207820189Y-132979282D02*
X207677332Y-132931663D01*
X207677332Y-132931663D02*
X207582094Y-132931663D01*
X207582094Y-132931663D02*
X207439237Y-132979282D01*
X207439237Y-132979282D02*
X207391618Y-133026901D01*
%LPC*%
D11*
%TO.C,OLED102*%
X161417000Y-93156000D03*
D12*
X161417000Y-95156000D03*
X161417000Y-97156000D03*
X161417000Y-99156000D03*
X161417000Y-101156000D03*
X161417000Y-103156000D03*
X161417000Y-105156000D03*
%TD*%
D13*
%TO.C,OLED101*%
X209042000Y-105537000D03*
D12*
X209042000Y-103537000D03*
X209042000Y-101537000D03*
X209042000Y-99537000D03*
%TD*%
D14*
%TO.C,H104*%
X143000000Y-132000000D03*
%TD*%
%TO.C,H103*%
X233000000Y-132000000D03*
%TD*%
%TO.C,H102*%
X233000000Y-68000000D03*
%TD*%
%TO.C,H101*%
X143000000Y-68000000D03*
%TD*%
D15*
%TO.C,J302*%
X143500000Y-99187000D03*
D16*
X143500000Y-101727000D03*
X143500000Y-104267000D03*
%TD*%
D17*
%TO.C,J102*%
X173990000Y-84878000D03*
D18*
X171990000Y-84878000D03*
X169990000Y-84878000D03*
X167990000Y-84878000D03*
%TD*%
D15*
%TO.C,J301*%
X143500000Y-88646000D03*
D16*
X143500000Y-91186000D03*
X143500000Y-93726000D03*
%TD*%
D19*
%TO.C,J101*%
X215200000Y-68887500D03*
D20*
X210700000Y-66937500D03*
D19*
X206200000Y-68887500D03*
D21*
X210700000Y-75937500D03*
D22*
X210700000Y-69937500D03*
%TD*%
D23*
%TO.C,J401*%
X161880000Y-122059000D03*
D24*
X165880000Y-122059000D03*
X169880000Y-122059000D03*
X173880000Y-122059000D03*
X180380000Y-122059000D03*
X184380000Y-122059000D03*
X188380000Y-122059000D03*
%TD*%
D25*
%TO.C,J103*%
X186055000Y-113411000D03*
X191135000Y-112396000D03*
X191135000Y-114426000D03*
%TD*%
D26*
%TO.C,J402*%
X188920000Y-77839000D03*
D24*
X184920000Y-77839000D03*
X180920000Y-77839000D03*
X176920000Y-77839000D03*
X170420000Y-77839000D03*
X166420000Y-77839000D03*
X162420000Y-77839000D03*
%TD*%
D27*
%TO.C,J501*%
X224700000Y-114863000D03*
D28*
X224700000Y-112363000D03*
X224700000Y-110363000D03*
X224700000Y-107863000D03*
D29*
X227410000Y-117933000D03*
X227410000Y-104793000D03*
%TD*%
%LPD*%
M02*
