%TF.GenerationSoftware,KiCad,Pcbnew,8.0.0-rc2*%
%TF.CreationDate,2024-01-28T15:47:24-05:00*%
%TF.ProjectId,stm32-snake-controller,73746d33-322d-4736-9e61-6b652d636f6e,B*%
%TF.SameCoordinates,Original*%
%TF.FileFunction,Soldermask,Top*%
%TF.FilePolarity,Negative*%
%FSLAX46Y46*%
G04 Gerber Fmt 4.6, Leading zero omitted, Abs format (unit mm)*
G04 Created by KiCad (PCBNEW 8.0.0-rc2) date 2024-01-28 15:47:24*
%MOMM*%
%LPD*%
G01*
G04 APERTURE LIST*
G04 Aperture macros list*
%AMRoundRect*
0 Rectangle with rounded corners*
0 $1 Rounding radius*
0 $2 $3 $4 $5 $6 $7 $8 $9 X,Y pos of 4 corners*
0 Add a 4 corners polygon primitive as box body*
4,1,4,$2,$3,$4,$5,$6,$7,$8,$9,$2,$3,0*
0 Add four circle primitives for the rounded corners*
1,1,$1+$1,$2,$3*
1,1,$1+$1,$4,$5*
1,1,$1+$1,$6,$7*
1,1,$1+$1,$8,$9*
0 Add four rect primitives between the rounded corners*
20,1,$1+$1,$2,$3,$4,$5,0*
20,1,$1+$1,$4,$5,$6,$7,0*
20,1,$1+$1,$6,$7,$8,$9,0*
20,1,$1+$1,$8,$9,$2,$3,0*%
G04 Aperture macros list end*
%ADD10RoundRect,0.150000X0.512500X0.150000X-0.512500X0.150000X-0.512500X-0.150000X0.512500X-0.150000X0*%
%ADD11RoundRect,0.200000X-0.200000X-0.275000X0.200000X-0.275000X0.200000X0.275000X-0.200000X0.275000X0*%
%ADD12RoundRect,0.225000X0.250000X-0.225000X0.250000X0.225000X-0.250000X0.225000X-0.250000X-0.225000X0*%
%ADD13RoundRect,0.250000X0.325000X0.450000X-0.325000X0.450000X-0.325000X-0.450000X0.325000X-0.450000X0*%
%ADD14R,1.650000X1.650000*%
%ADD15C,1.650000*%
%ADD16R,1.800000X1.000000*%
%ADD17RoundRect,0.225000X0.225000X0.250000X-0.225000X0.250000X-0.225000X-0.250000X0.225000X-0.250000X0*%
%ADD18R,1.000000X0.750000*%
%ADD19RoundRect,0.250000X0.650000X-1.000000X0.650000X1.000000X-0.650000X1.000000X-0.650000X-1.000000X0*%
%ADD20RoundRect,0.218750X0.218750X0.256250X-0.218750X0.256250X-0.218750X-0.256250X0.218750X-0.256250X0*%
%ADD21RoundRect,0.200000X-0.275000X0.200000X-0.275000X-0.200000X0.275000X-0.200000X0.275000X0.200000X0*%
%ADD22RoundRect,0.250000X0.350000X0.625000X-0.350000X0.625000X-0.350000X-0.625000X0.350000X-0.625000X0*%
%ADD23O,1.200000X1.750000*%
%ADD24RoundRect,0.150000X-0.587500X-0.150000X0.587500X-0.150000X0.587500X0.150000X-0.587500X0.150000X0*%
%ADD25RoundRect,0.200000X0.275000X-0.200000X0.275000X0.200000X-0.275000X0.200000X-0.275000X-0.200000X0*%
%ADD26RoundRect,0.225000X-0.225000X-0.250000X0.225000X-0.250000X0.225000X0.250000X-0.225000X0.250000X0*%
%ADD27RoundRect,0.150000X0.825000X0.150000X-0.825000X0.150000X-0.825000X-0.150000X0.825000X-0.150000X0*%
%ADD28C,3.200000*%
%ADD29R,1.400000X1.200000*%
%ADD30RoundRect,0.150000X-0.150000X0.512500X-0.150000X-0.512500X0.150000X-0.512500X0.150000X0.512500X0*%
%ADD31O,2.000000X3.300000*%
%ADD32C,1.600000*%
%ADD33R,4.000000X2.000000*%
%ADD34O,3.400000X2.000000*%
%ADD35RoundRect,0.225000X-0.250000X0.225000X-0.250000X-0.225000X0.250000X-0.225000X0.250000X0.225000X0*%
%ADD36RoundRect,0.200000X0.200000X0.275000X-0.200000X0.275000X-0.200000X-0.275000X0.200000X-0.275000X0*%
%ADD37RoundRect,0.687500X-0.687500X-0.687500X0.687500X-0.687500X0.687500X0.687500X-0.687500X0.687500X0*%
%ADD38C,2.750000*%
%ADD39RoundRect,0.250000X0.625000X-0.350000X0.625000X0.350000X-0.625000X0.350000X-0.625000X-0.350000X0*%
%ADD40O,1.750000X1.200000*%
%ADD41C,0.991000*%
%ADD42C,0.787000*%
%ADD43RoundRect,0.075000X-0.075000X0.700000X-0.075000X-0.700000X0.075000X-0.700000X0.075000X0.700000X0*%
%ADD44RoundRect,0.075000X-0.700000X0.075000X-0.700000X-0.075000X0.700000X-0.075000X0.700000X0.075000X0*%
%ADD45RoundRect,0.250000X-0.350000X-0.625000X0.350000X-0.625000X0.350000X0.625000X-0.350000X0.625000X0*%
%ADD46RoundRect,0.687500X0.687500X0.687500X-0.687500X0.687500X-0.687500X-0.687500X0.687500X-0.687500X0*%
%ADD47RoundRect,0.250000X-0.375000X-0.625000X0.375000X-0.625000X0.375000X0.625000X-0.375000X0.625000X0*%
%ADD48R,1.524000X1.524000*%
%ADD49C,1.524000*%
%ADD50C,3.500000*%
%ADD51RoundRect,0.575000X-1.625000X-0.575000X1.625000X-0.575000X1.625000X0.575000X-1.625000X0.575000X0*%
%ADD52RoundRect,0.575000X-1.425000X-0.575000X1.425000X-0.575000X1.425000X0.575000X-1.425000X0.575000X0*%
G04 APERTURE END LIST*
D10*
%TO.C,U302*%
X15920300Y33340000D03*
X15920300Y34290000D03*
X15920300Y35240000D03*
X13645300Y35240000D03*
X13645300Y33340000D03*
%TD*%
D11*
%TO.C,R103*%
X61151000Y69596000D03*
X62801000Y69596000D03*
%TD*%
D10*
%TO.C,U101*%
X77083500Y23688000D03*
X77083500Y24638000D03*
X77083500Y25588000D03*
X74808500Y25588000D03*
X74808500Y24638000D03*
X74808500Y23688000D03*
%TD*%
D12*
%TO.C,C110*%
X75184000Y4305000D03*
X75184000Y5855000D03*
%TD*%
D13*
%TO.C,FB101*%
X36585000Y46101000D03*
X34535000Y46101000D03*
%TD*%
D14*
%TO.C,J302*%
X4562000Y36830000D03*
D15*
X4562000Y34290000D03*
X4562000Y31750000D03*
%TD*%
D16*
%TO.C,Y101*%
X46609000Y43795000D03*
X46609000Y41295000D03*
%TD*%
D17*
%TO.C,C108*%
X36703000Y44323000D03*
X35153000Y44323000D03*
%TD*%
D18*
%TO.C,SW101*%
X73358000Y4221000D03*
X67358000Y4221000D03*
X73358000Y7971000D03*
X67358000Y7971000D03*
%TD*%
D19*
%TO.C,D102*%
X53213000Y43461000D03*
X53213000Y47461000D03*
%TD*%
D20*
%TO.C,D103*%
X57510000Y27432000D03*
X55935000Y27432000D03*
%TD*%
D21*
%TO.C,R502*%
X68961000Y15938000D03*
X68961000Y14288000D03*
%TD*%
D22*
%TO.C,J102*%
X30226000Y51562000D03*
D23*
X28226000Y51562000D03*
X26226000Y51562000D03*
X24226000Y51562000D03*
%TD*%
D12*
%TO.C,C113*%
X40470000Y45873000D03*
X40470000Y47423000D03*
%TD*%
D24*
%TO.C,Q101*%
X56769000Y45334000D03*
X56769000Y43434000D03*
X58644000Y44384000D03*
%TD*%
D17*
%TO.C,C109*%
X36703000Y42799000D03*
X35153000Y42799000D03*
%TD*%
D21*
%TO.C,R108*%
X76703000Y34480000D03*
X76703000Y32830000D03*
%TD*%
D25*
%TO.C,R107*%
X76708000Y36513000D03*
X76708000Y38163000D03*
%TD*%
D26*
%TO.C,C106*%
X45072000Y26416000D03*
X46622000Y26416000D03*
%TD*%
D19*
%TO.C,D101*%
X84582000Y55785000D03*
X84582000Y59785000D03*
%TD*%
D27*
%TO.C,U102*%
X64451000Y32131000D03*
X64451000Y33401000D03*
X64451000Y34671000D03*
X64451000Y35941000D03*
X59501000Y35941000D03*
X59501000Y34671000D03*
X59501000Y33401000D03*
X59501000Y32131000D03*
%TD*%
D28*
%TO.C,H102*%
X94062000Y68017000D03*
%TD*%
D29*
%TO.C,Y102*%
X44534000Y47586000D03*
X42334000Y47586000D03*
X42334000Y45886000D03*
X44534000Y45886000D03*
%TD*%
D30*
%TO.C,U501*%
X78865000Y18536500D03*
X77915000Y18536500D03*
X76965000Y18536500D03*
X76965000Y16261500D03*
X78865000Y16261500D03*
%TD*%
D26*
%TO.C,C101*%
X52819000Y40775000D03*
X54369000Y40775000D03*
%TD*%
D14*
%TO.C,J301*%
X4562000Y47371000D03*
D15*
X4562000Y44831000D03*
X4562000Y42291000D03*
%TD*%
D17*
%TO.C,C104*%
X30874000Y37973000D03*
X29324000Y37973000D03*
%TD*%
D26*
%TO.C,C102*%
X52819000Y39116000D03*
X54369000Y39116000D03*
%TD*%
%TO.C,C107*%
X48187000Y37817000D03*
X49737000Y37817000D03*
%TD*%
D11*
%TO.C,R105*%
X58992000Y29342000D03*
X60642000Y29342000D03*
%TD*%
D31*
%TO.C,J101*%
X76262000Y67129500D03*
D32*
X71762000Y69079500D03*
D31*
X67262000Y67129500D03*
D33*
X71762000Y60079500D03*
D34*
X71762000Y66079500D03*
%TD*%
D17*
%TO.C,C114*%
X50178000Y43815000D03*
X48628000Y43815000D03*
%TD*%
D20*
%TO.C,D105*%
X59586000Y2667000D03*
X58011000Y2667000D03*
%TD*%
D35*
%TO.C,C501*%
X81280000Y21222000D03*
X81280000Y19672000D03*
%TD*%
D36*
%TO.C,R106*%
X42057000Y44196000D03*
X40407000Y44196000D03*
%TD*%
D10*
%TO.C,U301*%
X15869500Y38928000D03*
X15869500Y39878000D03*
X15869500Y40828000D03*
X13594500Y40828000D03*
X13594500Y38928000D03*
%TD*%
D28*
%TO.C,H101*%
X4062000Y68017000D03*
%TD*%
D37*
%TO.C,J401*%
X22942000Y13335000D03*
D38*
X26942000Y13335000D03*
X30942000Y13335000D03*
X34942000Y13335000D03*
X41442000Y13335000D03*
X45442000Y13335000D03*
X49442000Y13335000D03*
%TD*%
D39*
%TO.C,OLED101*%
X72390000Y30480000D03*
D40*
X72390000Y32480000D03*
X72390000Y34480000D03*
X72390000Y36480000D03*
%TD*%
D25*
%TO.C,R501*%
X68834000Y19495000D03*
X68834000Y21145000D03*
%TD*%
D41*
%TO.C,J103*%
X47117000Y22606000D03*
X52197000Y23621000D03*
X52197000Y21591000D03*
D42*
X48387000Y21971000D03*
X48387000Y23241000D03*
X49657000Y21971000D03*
X49657000Y23241000D03*
X50927000Y21971000D03*
X50927000Y23241000D03*
%TD*%
D11*
%TO.C,R101*%
X58992000Y27432000D03*
X60642000Y27432000D03*
%TD*%
D12*
%TO.C,C201*%
X81788000Y50533000D03*
X81788000Y52083000D03*
%TD*%
D25*
%TO.C,R301*%
X11480800Y40958000D03*
X11480800Y42608000D03*
%TD*%
D17*
%TO.C,C112*%
X44844000Y49403000D03*
X43294000Y49403000D03*
%TD*%
D10*
%TO.C,U201*%
X81618500Y53678000D03*
X81618500Y54628000D03*
X81618500Y55578000D03*
X79343500Y55578000D03*
X79343500Y53678000D03*
%TD*%
D11*
%TO.C,R110*%
X29782000Y34671000D03*
X31432000Y34671000D03*
%TD*%
D35*
%TO.C,C202*%
X79248000Y52083000D03*
X79248000Y50533000D03*
%TD*%
D43*
%TO.C,U103*%
X43882000Y39584000D03*
X43382000Y39584000D03*
X42882000Y39584000D03*
X42382000Y39584000D03*
X41882000Y39584000D03*
X41382000Y39584000D03*
X40882000Y39584000D03*
X40382000Y39584000D03*
X39882000Y39584000D03*
X39382000Y39584000D03*
X38882000Y39584000D03*
X38382000Y39584000D03*
X37882000Y39584000D03*
X37382000Y39584000D03*
X36882000Y39584000D03*
X36382000Y39584000D03*
D44*
X34457000Y37659000D03*
X34457000Y37159000D03*
X34457000Y36659000D03*
X34457000Y36159000D03*
X34457000Y35659000D03*
X34457000Y35159000D03*
X34457000Y34659000D03*
X34457000Y34159000D03*
X34457000Y33659000D03*
X34457000Y33159000D03*
X34457000Y32659000D03*
X34457000Y32159000D03*
X34457000Y31659000D03*
X34457000Y31159000D03*
X34457000Y30659000D03*
X34457000Y30159000D03*
D43*
X36382000Y28234000D03*
X36882000Y28234000D03*
X37382000Y28234000D03*
X37882000Y28234000D03*
X38382000Y28234000D03*
X38882000Y28234000D03*
X39382000Y28234000D03*
X39882000Y28234000D03*
X40382000Y28234000D03*
X40882000Y28234000D03*
X41382000Y28234000D03*
X41882000Y28234000D03*
X42382000Y28234000D03*
X42882000Y28234000D03*
X43382000Y28234000D03*
X43882000Y28234000D03*
D44*
X45807000Y30159000D03*
X45807000Y30659000D03*
X45807000Y31159000D03*
X45807000Y31659000D03*
X45807000Y32159000D03*
X45807000Y32659000D03*
X45807000Y33159000D03*
X45807000Y33659000D03*
X45807000Y34159000D03*
X45807000Y34659000D03*
X45807000Y35159000D03*
X45807000Y35659000D03*
X45807000Y36159000D03*
X45807000Y36659000D03*
X45807000Y37159000D03*
X45807000Y37659000D03*
%TD*%
D45*
%TO.C,OLED102*%
X16320000Y21209000D03*
D23*
X18320000Y21209000D03*
X20320000Y21209000D03*
X22320000Y21209000D03*
X24320000Y21209000D03*
X26320000Y21209000D03*
X28320000Y21209000D03*
%TD*%
D17*
%TO.C,C111*%
X50178000Y41275000D03*
X48628000Y41275000D03*
%TD*%
D20*
%TO.C,D106*%
X57510000Y29337000D03*
X55935000Y29337000D03*
%TD*%
D25*
%TO.C,R302*%
X11531600Y35268400D03*
X11531600Y36918400D03*
%TD*%
D20*
%TO.C,D104*%
X59588500Y69596000D03*
X58013500Y69596000D03*
%TD*%
D46*
%TO.C,J402*%
X49982000Y59055000D03*
D38*
X45982000Y59055000D03*
X41982000Y59055000D03*
X37982000Y59055000D03*
X31482000Y59055000D03*
X27482000Y59055000D03*
X23482000Y59055000D03*
%TD*%
D47*
%TO.C,F101*%
X78991000Y59817000D03*
X81791000Y59817000D03*
%TD*%
D48*
%TO.C,J501*%
X85762000Y21154000D03*
D49*
X85762000Y23654000D03*
X85762000Y25654000D03*
X85762000Y28154000D03*
D50*
X88472000Y18084000D03*
X88472000Y31224000D03*
%TD*%
D28*
%TO.C,H103*%
X94062000Y4017000D03*
%TD*%
D17*
%TO.C,C105*%
X31837000Y29718000D03*
X30287000Y29718000D03*
%TD*%
D11*
%TO.C,R104*%
X61151000Y2667000D03*
X62801000Y2667000D03*
%TD*%
D17*
%TO.C,C103*%
X31837000Y28194000D03*
X30287000Y28194000D03*
%TD*%
D51*
%TO.C,BT101*%
X61162000Y47117000D03*
D52*
X77162000Y47117000D03*
%TD*%
D36*
%TO.C,R109*%
X31432000Y36195000D03*
X29782000Y36195000D03*
%TD*%
%TO.C,R102*%
X54387000Y37517000D03*
X52737000Y37517000D03*
%TD*%
D17*
%TO.C,C115*%
X31837000Y31242000D03*
X30287000Y31242000D03*
%TD*%
D28*
%TO.C,H104*%
X4062000Y4017000D03*
%TD*%
M02*
