%TF.GenerationSoftware,KiCad,Pcbnew,8.0.0-rc2*%
%TF.CreationDate,2024-01-29T20:33:42-05:00*%
%TF.ProjectId,stm32-snake-controller,73746d33-322d-4736-9e61-6b652d636f6e,C*%
%TF.SameCoordinates,Original*%
%TF.FileFunction,Paste,Top*%
%TF.FilePolarity,Positive*%
%FSLAX46Y46*%
G04 Gerber Fmt 4.6, Leading zero omitted, Abs format (unit mm)*
G04 Created by KiCad (PCBNEW 8.0.0-rc2) date 2024-01-29 20:33:42*
%MOMM*%
%LPD*%
G01*
G04 APERTURE LIST*
G04 Aperture macros list*
%AMRoundRect*
0 Rectangle with rounded corners*
0 $1 Rounding radius*
0 $2 $3 $4 $5 $6 $7 $8 $9 X,Y pos of 4 corners*
0 Add a 4 corners polygon primitive as box body*
4,1,4,$2,$3,$4,$5,$6,$7,$8,$9,$2,$3,0*
0 Add four circle primitives for the rounded corners*
1,1,$1+$1,$2,$3*
1,1,$1+$1,$4,$5*
1,1,$1+$1,$6,$7*
1,1,$1+$1,$8,$9*
0 Add four rect primitives between the rounded corners*
20,1,$1+$1,$2,$3,$4,$5,0*
20,1,$1+$1,$4,$5,$6,$7,0*
20,1,$1+$1,$6,$7,$8,$9,0*
20,1,$1+$1,$8,$9,$2,$3,0*%
G04 Aperture macros list end*
%ADD10RoundRect,0.140000X0.502500X0.140000X-0.502500X0.140000X-0.502500X-0.140000X0.502500X-0.140000X0*%
%ADD11RoundRect,0.190000X-0.190000X-0.265000X0.190000X-0.265000X0.190000X0.265000X-0.190000X0.265000X0*%
%ADD12RoundRect,0.215000X0.240000X-0.215000X0.240000X0.215000X-0.240000X0.215000X-0.240000X-0.215000X0*%
%ADD13RoundRect,0.241304X0.313696X0.438696X-0.313696X0.438696X-0.313696X-0.438696X0.313696X-0.438696X0*%
%ADD14R,1.760000X0.960000*%
%ADD15RoundRect,0.215000X0.215000X0.240000X-0.215000X0.240000X-0.215000X-0.240000X0.215000X-0.240000X0*%
%ADD16R,0.960000X0.710000*%
%ADD17RoundRect,0.244444X0.635556X-0.985556X0.635556X0.985556X-0.635556X0.985556X-0.635556X-0.985556X0*%
%ADD18RoundRect,0.208750X0.208750X0.246250X-0.208750X0.246250X-0.208750X-0.246250X0.208750X-0.246250X0*%
%ADD19RoundRect,0.190000X-0.265000X0.190000X-0.265000X-0.190000X0.265000X-0.190000X0.265000X0.190000X0*%
%ADD20RoundRect,0.140000X-0.577500X-0.140000X0.577500X-0.140000X0.577500X0.140000X-0.577500X0.140000X0*%
%ADD21RoundRect,0.190000X0.265000X-0.190000X0.265000X0.190000X-0.265000X0.190000X-0.265000X-0.190000X0*%
%ADD22RoundRect,0.215000X-0.215000X-0.240000X0.215000X-0.240000X0.215000X0.240000X-0.215000X0.240000X0*%
%ADD23RoundRect,0.140000X0.815000X0.140000X-0.815000X0.140000X-0.815000X-0.140000X0.815000X-0.140000X0*%
%ADD24R,1.360000X1.160000*%
%ADD25RoundRect,0.140000X-0.140000X0.502500X-0.140000X-0.502500X0.140000X-0.502500X0.140000X0.502500X0*%
%ADD26RoundRect,0.215000X-0.240000X0.215000X-0.240000X-0.215000X0.240000X-0.215000X0.240000X0.215000X0*%
%ADD27RoundRect,0.190000X0.190000X0.265000X-0.190000X0.265000X-0.190000X-0.265000X0.190000X-0.265000X0*%
%ADD28RoundRect,0.065000X-0.065000X0.690000X-0.065000X-0.690000X0.065000X-0.690000X0.065000X0.690000X0*%
%ADD29RoundRect,0.065000X-0.690000X0.065000X-0.690000X-0.065000X0.690000X-0.065000X0.690000X0.065000X0*%
%ADD30RoundRect,0.242000X-0.613000X0.363000X-0.613000X-0.363000X0.613000X-0.363000X0.613000X0.363000X0*%
%ADD31RoundRect,0.565000X-1.615000X-0.565000X1.615000X-0.565000X1.615000X0.565000X-1.615000X0.565000X0*%
%ADD32RoundRect,0.565000X-1.415000X-0.565000X1.415000X-0.565000X1.415000X0.565000X-1.415000X0.565000X0*%
G04 APERTURE END LIST*
D10*
%TO.C,U302*%
X15920300Y33340000D03*
X15920300Y34290000D03*
X15920300Y35240000D03*
X13645300Y35240000D03*
X13645300Y33340000D03*
%TD*%
D11*
%TO.C,R103*%
X60516000Y69596000D03*
X62166000Y69596000D03*
%TD*%
D10*
%TO.C,U101*%
X77083500Y23688000D03*
X77083500Y24638000D03*
X77083500Y25588000D03*
X74808500Y25588000D03*
X74808500Y24638000D03*
X74808500Y23688000D03*
%TD*%
D12*
%TO.C,C110*%
X75184000Y4305000D03*
X75184000Y5855000D03*
%TD*%
D13*
%TO.C,FB101*%
X36585000Y46101000D03*
X34535000Y46101000D03*
%TD*%
D14*
%TO.C,Y101*%
X46609000Y43795000D03*
X46609000Y41295000D03*
%TD*%
D15*
%TO.C,C108*%
X36703000Y44323000D03*
X35153000Y44323000D03*
%TD*%
D16*
%TO.C,SW101*%
X73358000Y4221000D03*
X67358000Y4221000D03*
X73358000Y7971000D03*
X67358000Y7971000D03*
%TD*%
D17*
%TO.C,D102*%
X53213000Y43212000D03*
X53213000Y47212000D03*
%TD*%
D18*
%TO.C,D103*%
X57510000Y27432000D03*
X55935000Y27432000D03*
%TD*%
D19*
%TO.C,R502*%
X68961000Y15938000D03*
X68961000Y14288000D03*
%TD*%
D12*
%TO.C,C113*%
X40470000Y45873000D03*
X40470000Y47423000D03*
%TD*%
D20*
%TO.C,Q101*%
X57960500Y43561000D03*
X56085500Y42611000D03*
X56085500Y44511000D03*
%TD*%
D15*
%TO.C,C109*%
X36703000Y42799000D03*
X35153000Y42799000D03*
%TD*%
D19*
%TO.C,R108*%
X76703000Y34480000D03*
X76703000Y32830000D03*
%TD*%
D21*
%TO.C,R107*%
X76708000Y36513000D03*
X76708000Y38163000D03*
%TD*%
D22*
%TO.C,C106*%
X45072000Y26416000D03*
X46622000Y26416000D03*
%TD*%
D17*
%TO.C,D101*%
X86360000Y46133000D03*
X86360000Y50133000D03*
%TD*%
D23*
%TO.C,U102*%
X64451000Y32131000D03*
X64451000Y33401000D03*
X64451000Y34671000D03*
X64451000Y35941000D03*
X59501000Y35941000D03*
X59501000Y34671000D03*
X59501000Y33401000D03*
X59501000Y32131000D03*
%TD*%
D24*
%TO.C,Y102*%
X44534000Y47586000D03*
X42334000Y47586000D03*
X42334000Y45886000D03*
X44534000Y45886000D03*
%TD*%
D25*
%TO.C,U501*%
X78865000Y18536500D03*
X77915000Y18536500D03*
X76965000Y18536500D03*
X76965000Y16261500D03*
X78865000Y16261500D03*
%TD*%
D22*
%TO.C,C101*%
X52819000Y40775000D03*
X54369000Y40775000D03*
%TD*%
D15*
%TO.C,C104*%
X30874000Y37973000D03*
X29324000Y37973000D03*
%TD*%
D22*
%TO.C,C102*%
X52819000Y39116000D03*
X54369000Y39116000D03*
%TD*%
%TO.C,C107*%
X48187000Y37817000D03*
X49737000Y37817000D03*
%TD*%
D11*
%TO.C,R105*%
X58992000Y29342000D03*
X60642000Y29342000D03*
%TD*%
D15*
%TO.C,C114*%
X50178000Y43815000D03*
X48628000Y43815000D03*
%TD*%
D18*
%TO.C,D105*%
X58953500Y2667000D03*
X57378500Y2667000D03*
%TD*%
D26*
%TO.C,C501*%
X81280000Y21222000D03*
X81280000Y19672000D03*
%TD*%
D27*
%TO.C,R106*%
X42057000Y44196000D03*
X40407000Y44196000D03*
%TD*%
D10*
%TO.C,U301*%
X15869500Y38928000D03*
X15869500Y39878000D03*
X15869500Y40828000D03*
X13594500Y40828000D03*
X13594500Y38928000D03*
%TD*%
D21*
%TO.C,R501*%
X68834000Y19495000D03*
X68834000Y21145000D03*
%TD*%
D11*
%TO.C,R101*%
X58992000Y27432000D03*
X60642000Y27432000D03*
%TD*%
D12*
%TO.C,C201*%
X83312000Y40881000D03*
X83312000Y42431000D03*
%TD*%
D21*
%TO.C,R301*%
X11480800Y40958000D03*
X11480800Y42608000D03*
%TD*%
D15*
%TO.C,C112*%
X44844000Y49403000D03*
X43294000Y49403000D03*
%TD*%
D10*
%TO.C,U201*%
X83142500Y44026000D03*
X83142500Y44976000D03*
X83142500Y45926000D03*
X80867500Y45926000D03*
X80867500Y44026000D03*
%TD*%
D11*
%TO.C,R110*%
X29782000Y34671000D03*
X31432000Y34671000D03*
%TD*%
D26*
%TO.C,C202*%
X80772000Y42431000D03*
X80772000Y40881000D03*
%TD*%
D28*
%TO.C,U103*%
X43882000Y39584000D03*
X43382000Y39584000D03*
X42882000Y39584000D03*
X42382000Y39584000D03*
X41882000Y39584000D03*
X41382000Y39584000D03*
X40882000Y39584000D03*
X40382000Y39584000D03*
X39882000Y39584000D03*
X39382000Y39584000D03*
X38882000Y39584000D03*
X38382000Y39584000D03*
X37882000Y39584000D03*
X37382000Y39584000D03*
X36882000Y39584000D03*
X36382000Y39584000D03*
D29*
X34457000Y37659000D03*
X34457000Y37159000D03*
X34457000Y36659000D03*
X34457000Y36159000D03*
X34457000Y35659000D03*
X34457000Y35159000D03*
X34457000Y34659000D03*
X34457000Y34159000D03*
X34457000Y33659000D03*
X34457000Y33159000D03*
X34457000Y32659000D03*
X34457000Y32159000D03*
X34457000Y31659000D03*
X34457000Y31159000D03*
X34457000Y30659000D03*
X34457000Y30159000D03*
D28*
X36382000Y28234000D03*
X36882000Y28234000D03*
X37382000Y28234000D03*
X37882000Y28234000D03*
X38382000Y28234000D03*
X38882000Y28234000D03*
X39382000Y28234000D03*
X39882000Y28234000D03*
X40382000Y28234000D03*
X40882000Y28234000D03*
X41382000Y28234000D03*
X41882000Y28234000D03*
X42382000Y28234000D03*
X42882000Y28234000D03*
X43382000Y28234000D03*
X43882000Y28234000D03*
D29*
X45807000Y30159000D03*
X45807000Y30659000D03*
X45807000Y31159000D03*
X45807000Y31659000D03*
X45807000Y32159000D03*
X45807000Y32659000D03*
X45807000Y33159000D03*
X45807000Y33659000D03*
X45807000Y34159000D03*
X45807000Y34659000D03*
X45807000Y35159000D03*
X45807000Y35659000D03*
X45807000Y36159000D03*
X45807000Y36659000D03*
X45807000Y37159000D03*
X45807000Y37659000D03*
%TD*%
D15*
%TO.C,C111*%
X50178000Y41275000D03*
X48628000Y41275000D03*
%TD*%
D18*
%TO.C,D106*%
X57510000Y29337000D03*
X55935000Y29337000D03*
%TD*%
D21*
%TO.C,R302*%
X11531600Y35268400D03*
X11531600Y36918400D03*
%TD*%
D18*
%TO.C,D104*%
X58826500Y69596000D03*
X57251500Y69596000D03*
%TD*%
D30*
%TO.C,F101*%
X83058000Y54486000D03*
X83058000Y51686000D03*
%TD*%
D15*
%TO.C,C105*%
X31837000Y29718000D03*
X30287000Y29718000D03*
%TD*%
D11*
%TO.C,R104*%
X60516000Y2667000D03*
X62166000Y2667000D03*
%TD*%
D15*
%TO.C,C103*%
X31837000Y28194000D03*
X30287000Y28194000D03*
%TD*%
D31*
%TO.C,BT101*%
X59945000Y47498000D03*
D32*
X75945000Y47498000D03*
%TD*%
D27*
%TO.C,R109*%
X31432000Y36195000D03*
X29782000Y36195000D03*
%TD*%
%TO.C,R102*%
X54387000Y37517000D03*
X52737000Y37517000D03*
%TD*%
D15*
%TO.C,C115*%
X31837000Y31242000D03*
X30287000Y31242000D03*
%TD*%
M02*
