%TF.GenerationSoftware,KiCad,Pcbnew,7.0.9*%
%TF.CreationDate,2024-01-15T17:24:14-05:00*%
%TF.ProjectId,stm32-snake-controller,73746d33-322d-4736-9e61-6b652d636f6e,A*%
%TF.SameCoordinates,Original*%
%TF.FileFunction,Copper,L2,Inr*%
%TF.FilePolarity,Positive*%
%FSLAX46Y46*%
G04 Gerber Fmt 4.6, Leading zero omitted, Abs format (unit mm)*
G04 Created by KiCad (PCBNEW 7.0.9) date 2024-01-15 17:24:14*
%MOMM*%
%LPD*%
G01*
G04 APERTURE LIST*
G04 Aperture macros list*
%AMRoundRect*
0 Rectangle with rounded corners*
0 $1 Rounding radius*
0 $2 $3 $4 $5 $6 $7 $8 $9 X,Y pos of 4 corners*
0 Add a 4 corners polygon primitive as box body*
4,1,4,$2,$3,$4,$5,$6,$7,$8,$9,$2,$3,0*
0 Add four circle primitives for the rounded corners*
1,1,$1+$1,$2,$3*
1,1,$1+$1,$4,$5*
1,1,$1+$1,$6,$7*
1,1,$1+$1,$8,$9*
0 Add four rect primitives between the rounded corners*
20,1,$1+$1,$2,$3,$4,$5,0*
20,1,$1+$1,$4,$5,$6,$7,0*
20,1,$1+$1,$6,$7,$8,$9,0*
20,1,$1+$1,$8,$9,$2,$3,0*%
G04 Aperture macros list end*
%TA.AperFunction,ComponentPad*%
%ADD10RoundRect,0.250000X-0.625000X0.350000X-0.625000X-0.350000X0.625000X-0.350000X0.625000X0.350000X0*%
%TD*%
%TA.AperFunction,ComponentPad*%
%ADD11O,1.750000X1.200000*%
%TD*%
%TA.AperFunction,ComponentPad*%
%ADD12RoundRect,0.250000X0.625000X-0.350000X0.625000X0.350000X-0.625000X0.350000X-0.625000X-0.350000X0*%
%TD*%
%TA.AperFunction,ComponentPad*%
%ADD13R,1.650000X1.650000*%
%TD*%
%TA.AperFunction,ComponentPad*%
%ADD14C,1.650000*%
%TD*%
%TA.AperFunction,ComponentPad*%
%ADD15RoundRect,0.250000X0.350000X0.625000X-0.350000X0.625000X-0.350000X-0.625000X0.350000X-0.625000X0*%
%TD*%
%TA.AperFunction,ComponentPad*%
%ADD16O,1.200000X1.750000*%
%TD*%
%TA.AperFunction,ComponentPad*%
%ADD17O,2.000000X3.300000*%
%TD*%
%TA.AperFunction,ComponentPad*%
%ADD18R,4.000000X2.000000*%
%TD*%
%TA.AperFunction,ComponentPad*%
%ADD19O,3.400000X2.000000*%
%TD*%
%TA.AperFunction,ComponentPad*%
%ADD20RoundRect,0.687500X-0.687500X-0.687500X0.687500X-0.687500X0.687500X0.687500X-0.687500X0.687500X0*%
%TD*%
%TA.AperFunction,ComponentPad*%
%ADD21C,2.750000*%
%TD*%
%TA.AperFunction,ComponentPad*%
%ADD22RoundRect,0.687500X0.687500X0.687500X-0.687500X0.687500X-0.687500X-0.687500X0.687500X-0.687500X0*%
%TD*%
%TA.AperFunction,ComponentPad*%
%ADD23R,1.524000X1.524000*%
%TD*%
%TA.AperFunction,ComponentPad*%
%ADD24C,1.524000*%
%TD*%
%TA.AperFunction,ComponentPad*%
%ADD25C,3.500000*%
%TD*%
%TA.AperFunction,ComponentPad*%
%ADD26C,1.500000*%
%TD*%
%TA.AperFunction,ViaPad*%
%ADD27C,0.800000*%
%TD*%
%TA.AperFunction,ViaPad*%
%ADD28C,1.000000*%
%TD*%
G04 APERTURE END LIST*
D10*
%TO.N,GND*%
%TO.C,OLED102*%
X161417000Y-93156000D03*
D11*
%TO.N,+5V*%
X161417000Y-95156000D03*
%TO.N,/MOSI*%
X161417000Y-97156000D03*
%TO.N,/SPI_CLK*%
X161417000Y-99156000D03*
%TO.N,/OLED_RST*%
X161417000Y-101156000D03*
%TO.N,/OLED_CE*%
X161417000Y-103156000D03*
%TO.N,/OLED_DC*%
X161417000Y-105156000D03*
%TD*%
D12*
%TO.N,GND*%
%TO.C,OLED101*%
X209042000Y-105537000D03*
D11*
%TO.N,+3V3*%
X209042000Y-103537000D03*
%TO.N,/SCL*%
X209042000Y-101537000D03*
%TO.N,/SDA*%
X209042000Y-99537000D03*
%TD*%
D13*
%TO.N,GND*%
%TO.C,J302*%
X143500000Y-99187000D03*
D14*
%TO.N,Net-(J302-Pin_2)*%
X143500000Y-101727000D03*
%TO.N,VBUS*%
X143500000Y-104267000D03*
%TD*%
D15*
%TO.N,+5V*%
%TO.C,J102*%
X173990000Y-84878000D03*
D16*
%TO.N,/UART_TX*%
X171990000Y-84878000D03*
%TO.N,/UART_RX*%
X169990000Y-84878000D03*
%TO.N,GND*%
X167990000Y-84878000D03*
%TD*%
D13*
%TO.N,GND*%
%TO.C,J301*%
X143500000Y-88646000D03*
D14*
%TO.N,Net-(J301-Pin_2)*%
X143500000Y-91186000D03*
%TO.N,VBUS*%
X143500000Y-93726000D03*
%TD*%
D17*
%TO.N,*%
%TO.C,J101*%
X215200000Y-68887500D03*
X206200000Y-68887500D03*
D18*
%TO.N,VBUS*%
X210700000Y-75937500D03*
D19*
%TO.N,GND*%
X210700000Y-69937500D03*
%TD*%
D20*
%TO.N,+5V*%
%TO.C,J401*%
X161880000Y-121805000D03*
D21*
%TO.N,/SNES_CLK*%
X165880000Y-121805000D03*
%TO.N,/SNES_LATCH*%
X169880000Y-121805000D03*
%TO.N,/SNES_DATA0*%
X173880000Y-121805000D03*
%TO.N,unconnected-(J401-Pin_5-Pad5)*%
X180380000Y-121805000D03*
%TO.N,unconnected-(J401-Pin_6-Pad6)*%
X184380000Y-121805000D03*
%TO.N,GND*%
X188380000Y-121805000D03*
%TD*%
D22*
%TO.N,+5V*%
%TO.C,J402*%
X188920000Y-77839000D03*
D21*
%TO.N,/SNES_CLK*%
X184920000Y-77839000D03*
%TO.N,/SNES_LATCH*%
X180920000Y-77839000D03*
%TO.N,/SNES_DATA1*%
X176920000Y-77839000D03*
%TO.N,unconnected-(J402-Pin_5-Pad5)*%
X170420000Y-77839000D03*
%TO.N,unconnected-(J402-Pin_6-Pad6)*%
X166420000Y-77839000D03*
%TO.N,GND*%
X162420000Y-77839000D03*
%TD*%
D23*
%TO.N,/USB_OTG_VSEN*%
%TO.C,J501*%
X224700000Y-114863000D03*
D24*
%TO.N,/USB_D_N*%
X224700000Y-112363000D03*
%TO.N,/USB_D_P*%
X224700000Y-110363000D03*
%TO.N,GND*%
X224700000Y-107863000D03*
D25*
X227410000Y-117933000D03*
X227410000Y-104793000D03*
%TD*%
D26*
%TO.N,*%
%TO.C,BT101*%
X204200000Y-88900000D03*
X211700000Y-88900000D03*
%TD*%
D27*
%TO.N,+3V3*%
X214503000Y-82169000D03*
X214503000Y-83693000D03*
%TO.N,GND*%
X177038000Y-111379000D03*
X176403000Y-116078000D03*
X174244000Y-113919000D03*
%TO.N,/SNES_CLK*%
X176403000Y-114935000D03*
X174244000Y-114935000D03*
%TO.N,GND*%
X171450000Y-94869000D03*
X168656000Y-94869000D03*
%TO.N,/MOSI*%
X168656000Y-95885000D03*
X171450000Y-95885000D03*
%TO.N,GND*%
X173101000Y-107696000D03*
X174244000Y-112522000D03*
%TO.N,/LED_GRID1*%
X175045838Y-102844626D03*
X173228000Y-108839000D03*
%TO.N,/LED_GRID0*%
X175059406Y-100906345D03*
X174244000Y-111506000D03*
%TO.N,GND*%
X176005503Y-100584000D03*
X176005503Y-103124000D03*
X163957000Y-106299000D03*
X166624000Y-108458000D03*
X198755000Y-113919000D03*
X200025000Y-120396000D03*
%TO.N,/NRST*%
X197993000Y-114681000D03*
X198882000Y-120396000D03*
%TO.N,GND*%
X194310000Y-98552000D03*
%TO.N,VBUS*%
X208757000Y-78613000D03*
X210757000Y-78613000D03*
X212757000Y-78613000D03*
X214757000Y-76000000D03*
X214757000Y-78613000D03*
X206757000Y-78613000D03*
X206756000Y-76000000D03*
%TO.N,GND*%
X156210000Y-97028000D03*
X168021000Y-104775000D03*
X218694000Y-88900000D03*
X209777000Y-126556000D03*
X220218000Y-117475000D03*
X194310000Y-95250000D03*
X214884000Y-109093000D03*
X149987000Y-108077000D03*
X218948000Y-79121000D03*
X189103000Y-93599000D03*
X182304200Y-106493800D03*
X184785000Y-90170000D03*
X215725000Y-126556000D03*
X202057000Y-101473000D03*
X168021000Y-107823000D03*
X172466000Y-93218000D03*
X194310000Y-96901000D03*
X189865000Y-98171000D03*
X202057000Y-104013000D03*
X202819000Y-133350000D03*
X216279250Y-115444750D03*
X202819000Y-66421000D03*
X220726000Y-86614000D03*
X177038000Y-93853000D03*
X218186000Y-86614000D03*
X182753000Y-100165500D03*
X156133800Y-100838000D03*
X182118000Y-85471000D03*
X179451000Y-87376000D03*
X189103000Y-90932000D03*
X174752000Y-98806000D03*
X189865000Y-115062000D03*
X156210000Y-95062000D03*
X156133800Y-102743000D03*
X168021000Y-106299000D03*
X202057000Y-100203000D03*
X186563000Y-109601000D03*
X200660000Y-106680000D03*
X178943000Y-98679000D03*
X169164000Y-98298000D03*
X180848000Y-86995000D03*
X187706000Y-115951000D03*
X202057000Y-102743000D03*
X217397000Y-127953000D03*
X200660000Y-108712000D03*
X174752000Y-105410000D03*
%TO.N,/NRST*%
X188658500Y-115379500D03*
X179832000Y-98171000D03*
%TO.N,+3V3*%
X207899000Y-122936000D03*
X214000000Y-96647000D03*
X215646000Y-82169000D03*
X170815000Y-108966000D03*
X216789000Y-83693000D03*
X207772000Y-113665000D03*
X192151000Y-86487000D03*
X215646000Y-83693000D03*
X187198000Y-99314000D03*
X193080579Y-104053579D03*
X182820000Y-109601000D03*
X170775000Y-98258000D03*
X193675000Y-106680000D03*
X214000000Y-105000000D03*
X216789000Y-82169000D03*
X172212000Y-91313000D03*
%TO.N,/VBAT*%
X182820000Y-98171000D03*
X190627000Y-96901000D03*
%TO.N,+5V*%
X217932000Y-122174000D03*
X151325350Y-96967000D03*
D28*
X223012000Y-73660000D03*
X225044000Y-73660000D03*
D27*
X217932000Y-121031000D03*
D28*
X220980000Y-73660000D03*
D27*
X151257000Y-102743000D03*
%TO.N,/LED_HB*%
X188849000Y-107061000D03*
X190754000Y-107061000D03*
%TO.N,/SNES_CLK*%
X177038000Y-110109000D03*
%TO.N,/SNES_LATCH*%
X175387000Y-110109000D03*
%TD*%
%TA.AperFunction,Conductor*%
%TO.N,GND*%
G36*
X234001735Y-64300598D02*
G01*
X234142940Y-64308527D01*
X234298780Y-64317279D01*
X234305670Y-64318055D01*
X234554372Y-64360311D01*
X234597257Y-64367598D01*
X234604041Y-64369146D01*
X234888242Y-64451023D01*
X234894809Y-64453322D01*
X235031428Y-64509911D01*
X235168060Y-64566505D01*
X235174309Y-64569515D01*
X235343444Y-64662992D01*
X235433170Y-64712582D01*
X235439062Y-64716284D01*
X235680268Y-64887429D01*
X235685708Y-64891767D01*
X235906236Y-65088843D01*
X235911156Y-65093763D01*
X236108232Y-65314291D01*
X236112570Y-65319731D01*
X236283715Y-65560937D01*
X236287417Y-65566829D01*
X236430480Y-65825682D01*
X236433499Y-65831951D01*
X236546677Y-66105190D01*
X236548976Y-66111757D01*
X236630853Y-66395958D01*
X236632401Y-66402742D01*
X236681942Y-66694315D01*
X236682721Y-66701229D01*
X236699402Y-66998264D01*
X236699500Y-67001741D01*
X236699500Y-132998258D01*
X236699402Y-133001735D01*
X236682721Y-133298770D01*
X236681942Y-133305684D01*
X236632401Y-133597257D01*
X236630853Y-133604041D01*
X236548976Y-133888242D01*
X236546677Y-133894809D01*
X236433499Y-134168048D01*
X236430480Y-134174317D01*
X236287417Y-134433170D01*
X236283715Y-134439062D01*
X236112570Y-134680268D01*
X236108232Y-134685708D01*
X235911156Y-134906236D01*
X235906236Y-134911156D01*
X235685708Y-135108232D01*
X235680268Y-135112570D01*
X235439062Y-135283715D01*
X235433170Y-135287417D01*
X235174317Y-135430480D01*
X235168048Y-135433499D01*
X234894809Y-135546677D01*
X234888242Y-135548976D01*
X234604041Y-135630853D01*
X234597257Y-135632401D01*
X234305684Y-135681942D01*
X234298770Y-135682721D01*
X234001735Y-135699402D01*
X233998258Y-135699500D01*
X142001742Y-135699500D01*
X141998265Y-135699402D01*
X141701229Y-135682721D01*
X141694315Y-135681942D01*
X141402742Y-135632401D01*
X141395958Y-135630853D01*
X141111757Y-135548976D01*
X141105190Y-135546677D01*
X140870282Y-135449376D01*
X140831947Y-135433497D01*
X140825682Y-135430480D01*
X140566829Y-135287417D01*
X140560937Y-135283715D01*
X140319731Y-135112570D01*
X140314291Y-135108232D01*
X140093763Y-134911156D01*
X140088843Y-134906236D01*
X139891767Y-134685708D01*
X139887429Y-134680268D01*
X139716284Y-134439062D01*
X139712582Y-134433170D01*
X139575101Y-134184416D01*
X139569515Y-134174309D01*
X139566505Y-134168060D01*
X139509911Y-134031428D01*
X139453322Y-133894809D01*
X139451023Y-133888242D01*
X139369146Y-133604041D01*
X139367598Y-133597257D01*
X139331005Y-133381887D01*
X139318055Y-133305670D01*
X139317279Y-133298780D01*
X139304971Y-133079605D01*
X139300598Y-133001735D01*
X139300500Y-132998258D01*
X139300500Y-132067763D01*
X141145787Y-132067763D01*
X141175413Y-132337013D01*
X141175415Y-132337024D01*
X141243926Y-132599082D01*
X141243928Y-132599088D01*
X141349870Y-132848390D01*
X141490979Y-133079605D01*
X141490986Y-133079615D01*
X141664253Y-133287819D01*
X141664259Y-133287824D01*
X141684192Y-133305684D01*
X141865998Y-133468582D01*
X142091910Y-133618044D01*
X142337176Y-133733020D01*
X142337183Y-133733022D01*
X142337185Y-133733023D01*
X142596557Y-133811057D01*
X142596564Y-133811058D01*
X142596569Y-133811060D01*
X142864561Y-133850500D01*
X142864566Y-133850500D01*
X143067636Y-133850500D01*
X143119133Y-133846730D01*
X143270156Y-133835677D01*
X143382758Y-133810593D01*
X143534546Y-133776782D01*
X143534548Y-133776781D01*
X143534553Y-133776780D01*
X143787558Y-133680014D01*
X144023777Y-133547441D01*
X144238177Y-133381888D01*
X144426186Y-133186881D01*
X144583799Y-132966579D01*
X144657787Y-132822669D01*
X144707649Y-132725690D01*
X144707651Y-132725684D01*
X144707656Y-132725675D01*
X144795118Y-132469305D01*
X144844319Y-132202933D01*
X144849259Y-132067763D01*
X231145787Y-132067763D01*
X231175413Y-132337013D01*
X231175415Y-132337024D01*
X231243926Y-132599082D01*
X231243928Y-132599088D01*
X231349870Y-132848390D01*
X231490979Y-133079605D01*
X231490986Y-133079615D01*
X231664253Y-133287819D01*
X231664259Y-133287824D01*
X231684192Y-133305684D01*
X231865998Y-133468582D01*
X232091910Y-133618044D01*
X232337176Y-133733020D01*
X232337183Y-133733022D01*
X232337185Y-133733023D01*
X232596557Y-133811057D01*
X232596564Y-133811058D01*
X232596569Y-133811060D01*
X232864561Y-133850500D01*
X232864566Y-133850500D01*
X233067636Y-133850500D01*
X233119133Y-133846730D01*
X233270156Y-133835677D01*
X233382758Y-133810593D01*
X233534546Y-133776782D01*
X233534548Y-133776781D01*
X233534553Y-133776780D01*
X233787558Y-133680014D01*
X234023777Y-133547441D01*
X234238177Y-133381888D01*
X234426186Y-133186881D01*
X234583799Y-132966579D01*
X234657787Y-132822669D01*
X234707649Y-132725690D01*
X234707651Y-132725684D01*
X234707656Y-132725675D01*
X234795118Y-132469305D01*
X234844319Y-132202933D01*
X234854212Y-131932235D01*
X234824586Y-131662982D01*
X234756072Y-131400912D01*
X234650130Y-131151610D01*
X234509018Y-130920390D01*
X234419747Y-130813119D01*
X234335746Y-130712180D01*
X234335740Y-130712175D01*
X234134002Y-130531418D01*
X233908092Y-130381957D01*
X233908090Y-130381956D01*
X233662824Y-130266980D01*
X233662819Y-130266978D01*
X233662814Y-130266976D01*
X233403442Y-130188942D01*
X233403428Y-130188939D01*
X233287791Y-130171921D01*
X233135439Y-130149500D01*
X232932369Y-130149500D01*
X232932364Y-130149500D01*
X232729844Y-130164323D01*
X232729831Y-130164325D01*
X232465453Y-130223217D01*
X232465446Y-130223220D01*
X232212439Y-130319987D01*
X231976226Y-130452557D01*
X231761822Y-130618112D01*
X231573822Y-130813109D01*
X231573816Y-130813116D01*
X231416202Y-131033419D01*
X231416199Y-131033424D01*
X231292350Y-131274309D01*
X231292343Y-131274327D01*
X231204884Y-131530685D01*
X231204881Y-131530699D01*
X231155681Y-131797068D01*
X231155680Y-131797075D01*
X231145787Y-132067763D01*
X144849259Y-132067763D01*
X144854212Y-131932235D01*
X144824586Y-131662982D01*
X144756072Y-131400912D01*
X144650130Y-131151610D01*
X144509018Y-130920390D01*
X144419747Y-130813119D01*
X144335746Y-130712180D01*
X144335740Y-130712175D01*
X144134002Y-130531418D01*
X143908092Y-130381957D01*
X143908090Y-130381956D01*
X143662824Y-130266980D01*
X143662819Y-130266978D01*
X143662814Y-130266976D01*
X143403442Y-130188942D01*
X143403428Y-130188939D01*
X143287791Y-130171921D01*
X143135439Y-130149500D01*
X142932369Y-130149500D01*
X142932364Y-130149500D01*
X142729844Y-130164323D01*
X142729831Y-130164325D01*
X142465453Y-130223217D01*
X142465446Y-130223220D01*
X142212439Y-130319987D01*
X141976226Y-130452557D01*
X141761822Y-130618112D01*
X141573822Y-130813109D01*
X141573816Y-130813116D01*
X141416202Y-131033419D01*
X141416199Y-131033424D01*
X141292350Y-131274309D01*
X141292343Y-131274327D01*
X141204884Y-131530685D01*
X141204881Y-131530699D01*
X141155681Y-131797068D01*
X141155680Y-131797075D01*
X141145787Y-132067763D01*
X139300500Y-132067763D01*
X139300500Y-121804999D01*
X160004500Y-121804999D01*
X160004501Y-122565829D01*
X160004501Y-122565830D01*
X160010850Y-122657327D01*
X160010852Y-122657342D01*
X160061256Y-122871645D01*
X160061261Y-122871660D01*
X160150185Y-123073054D01*
X160150189Y-123073062D01*
X160150190Y-123073063D01*
X160274615Y-123254702D01*
X160430298Y-123410385D01*
X160582891Y-123514913D01*
X160611937Y-123534810D01*
X160611945Y-123534814D01*
X160813339Y-123623738D01*
X160813346Y-123623741D01*
X160813352Y-123623742D01*
X160813354Y-123623743D01*
X161027656Y-123674147D01*
X161027661Y-123674147D01*
X161027667Y-123674149D01*
X161119167Y-123680500D01*
X161119168Y-123680499D01*
X161119169Y-123680500D01*
X161727833Y-123680499D01*
X162640832Y-123680499D01*
X162732333Y-123674149D01*
X162766339Y-123666151D01*
X162946645Y-123623743D01*
X162946643Y-123623743D01*
X162946654Y-123623741D01*
X163148063Y-123534810D01*
X163329702Y-123410385D01*
X163485385Y-123254702D01*
X163609810Y-123073063D01*
X163698741Y-122871654D01*
X163711300Y-122818255D01*
X163749147Y-122657343D01*
X163749147Y-122657339D01*
X163749149Y-122657333D01*
X163755500Y-122565833D01*
X163755499Y-121862424D01*
X163772059Y-121806025D01*
X163984681Y-121806025D01*
X163998476Y-121827491D01*
X164003183Y-121853579D01*
X164018848Y-122072595D01*
X164018849Y-122072601D01*
X164075872Y-122334734D01*
X164169627Y-122586102D01*
X164169629Y-122586106D01*
X164298195Y-122821556D01*
X164298200Y-122821564D01*
X164458964Y-123036321D01*
X164458980Y-123036339D01*
X164648660Y-123226019D01*
X164648678Y-123226035D01*
X164863435Y-123386799D01*
X164863443Y-123386804D01*
X165098893Y-123515370D01*
X165098897Y-123515372D01*
X165098899Y-123515373D01*
X165350261Y-123609126D01*
X165350264Y-123609126D01*
X165350265Y-123609127D01*
X165548126Y-123652168D01*
X165612407Y-123666152D01*
X165859385Y-123683816D01*
X165879999Y-123685291D01*
X165880000Y-123685291D01*
X165880001Y-123685291D01*
X165899140Y-123683922D01*
X166147593Y-123666152D01*
X166409739Y-123609126D01*
X166661101Y-123515373D01*
X166896562Y-123386801D01*
X167111329Y-123226029D01*
X167301029Y-123036329D01*
X167461801Y-122821562D01*
X167590373Y-122586101D01*
X167684126Y-122334739D01*
X167741152Y-122072593D01*
X167756316Y-121860577D01*
X167776000Y-121807800D01*
X167981910Y-121807800D01*
X168001166Y-121843065D01*
X168003684Y-121860577D01*
X168018848Y-122072594D01*
X168018849Y-122072601D01*
X168075872Y-122334734D01*
X168169627Y-122586102D01*
X168169629Y-122586106D01*
X168298195Y-122821556D01*
X168298200Y-122821564D01*
X168458964Y-123036321D01*
X168458980Y-123036339D01*
X168648660Y-123226019D01*
X168648678Y-123226035D01*
X168863435Y-123386799D01*
X168863443Y-123386804D01*
X169098893Y-123515370D01*
X169098897Y-123515372D01*
X169098899Y-123515373D01*
X169350261Y-123609126D01*
X169350264Y-123609126D01*
X169350265Y-123609127D01*
X169548126Y-123652168D01*
X169612407Y-123666152D01*
X169859385Y-123683816D01*
X169879999Y-123685291D01*
X169880000Y-123685291D01*
X169880001Y-123685291D01*
X169899140Y-123683922D01*
X170147593Y-123666152D01*
X170409739Y-123609126D01*
X170661101Y-123515373D01*
X170896562Y-123386801D01*
X171111329Y-123226029D01*
X171301029Y-123036329D01*
X171461801Y-122821562D01*
X171590373Y-122586101D01*
X171684126Y-122334739D01*
X171741152Y-122072593D01*
X171756316Y-121860577D01*
X171776000Y-121807800D01*
X171981910Y-121807800D01*
X172001166Y-121843065D01*
X172003684Y-121860577D01*
X172018848Y-122072594D01*
X172018849Y-122072601D01*
X172075872Y-122334734D01*
X172169627Y-122586102D01*
X172169629Y-122586106D01*
X172298195Y-122821556D01*
X172298200Y-122821564D01*
X172458964Y-123036321D01*
X172458980Y-123036339D01*
X172648660Y-123226019D01*
X172648678Y-123226035D01*
X172863435Y-123386799D01*
X172863443Y-123386804D01*
X173098893Y-123515370D01*
X173098897Y-123515372D01*
X173098899Y-123515373D01*
X173350261Y-123609126D01*
X173350264Y-123609126D01*
X173350265Y-123609127D01*
X173548126Y-123652168D01*
X173612407Y-123666152D01*
X173859385Y-123683816D01*
X173879999Y-123685291D01*
X173880000Y-123685291D01*
X173880001Y-123685291D01*
X173899140Y-123683922D01*
X174147593Y-123666152D01*
X174409739Y-123609126D01*
X174661101Y-123515373D01*
X174896562Y-123386801D01*
X175111329Y-123226029D01*
X175301029Y-123036329D01*
X175461801Y-122821562D01*
X175590373Y-122586101D01*
X175684126Y-122334739D01*
X175741152Y-122072593D01*
X175760291Y-121805001D01*
X178499709Y-121805001D01*
X178518848Y-122072594D01*
X178518849Y-122072601D01*
X178575872Y-122334734D01*
X178669627Y-122586102D01*
X178669629Y-122586106D01*
X178798195Y-122821556D01*
X178798200Y-122821564D01*
X178958964Y-123036321D01*
X178958980Y-123036339D01*
X179148660Y-123226019D01*
X179148678Y-123226035D01*
X179363435Y-123386799D01*
X179363443Y-123386804D01*
X179598893Y-123515370D01*
X179598897Y-123515372D01*
X179598899Y-123515373D01*
X179850261Y-123609126D01*
X179850264Y-123609126D01*
X179850265Y-123609127D01*
X180048126Y-123652168D01*
X180112407Y-123666152D01*
X180359385Y-123683816D01*
X180379999Y-123685291D01*
X180380000Y-123685291D01*
X180380001Y-123685291D01*
X180399140Y-123683922D01*
X180647593Y-123666152D01*
X180909739Y-123609126D01*
X181161101Y-123515373D01*
X181396562Y-123386801D01*
X181611329Y-123226029D01*
X181801029Y-123036329D01*
X181961801Y-122821562D01*
X182090373Y-122586101D01*
X182184126Y-122334739D01*
X182241152Y-122072593D01*
X182256316Y-121860577D01*
X182276000Y-121807800D01*
X182481910Y-121807800D01*
X182501166Y-121843065D01*
X182503684Y-121860577D01*
X182518848Y-122072594D01*
X182518849Y-122072601D01*
X182575872Y-122334734D01*
X182669627Y-122586102D01*
X182669629Y-122586106D01*
X182798195Y-122821556D01*
X182798200Y-122821564D01*
X182958964Y-123036321D01*
X182958980Y-123036339D01*
X183148660Y-123226019D01*
X183148678Y-123226035D01*
X183363435Y-123386799D01*
X183363443Y-123386804D01*
X183598893Y-123515370D01*
X183598897Y-123515372D01*
X183598899Y-123515373D01*
X183850261Y-123609126D01*
X183850264Y-123609126D01*
X183850265Y-123609127D01*
X184048126Y-123652168D01*
X184112407Y-123666152D01*
X184359385Y-123683816D01*
X184379999Y-123685291D01*
X184380000Y-123685291D01*
X184380001Y-123685291D01*
X184399140Y-123683922D01*
X184647593Y-123666152D01*
X184909739Y-123609126D01*
X185161101Y-123515373D01*
X185396562Y-123386801D01*
X185611329Y-123226029D01*
X185801029Y-123036329D01*
X185961801Y-122821562D01*
X186090373Y-122586101D01*
X186184126Y-122334739D01*
X186241152Y-122072593D01*
X186256567Y-121857068D01*
X186275189Y-121807139D01*
X186483716Y-121807139D01*
X186501417Y-121839556D01*
X186503935Y-121857068D01*
X186519345Y-122072523D01*
X186519346Y-122072530D01*
X186576354Y-122334593D01*
X186670084Y-122585894D01*
X186670086Y-122585898D01*
X186798617Y-122821285D01*
X186798622Y-122821293D01*
X186889180Y-122942264D01*
X186889181Y-122942265D01*
X187702804Y-122128642D01*
X187726059Y-122182553D01*
X187830756Y-122323185D01*
X187965062Y-122435882D01*
X188056665Y-122481886D01*
X187242733Y-123295817D01*
X187242734Y-123295818D01*
X187363706Y-123386377D01*
X187363714Y-123386382D01*
X187599101Y-123514913D01*
X187599105Y-123514915D01*
X187850406Y-123608645D01*
X188112469Y-123665653D01*
X188112476Y-123665654D01*
X188379999Y-123684789D01*
X188380001Y-123684789D01*
X188647523Y-123665654D01*
X188647530Y-123665653D01*
X188909593Y-123608645D01*
X189160894Y-123514915D01*
X189160898Y-123514913D01*
X189396294Y-123386377D01*
X189517264Y-123295818D01*
X189517265Y-123295817D01*
X188705945Y-122484498D01*
X188718891Y-122479787D01*
X188865373Y-122383445D01*
X188985688Y-122255918D01*
X189058447Y-122129894D01*
X189870817Y-122942265D01*
X189870818Y-122942264D01*
X189875507Y-122936000D01*
X206993540Y-122936000D01*
X207013326Y-123124256D01*
X207013327Y-123124259D01*
X207071818Y-123304277D01*
X207071821Y-123304284D01*
X207166467Y-123468216D01*
X207292910Y-123608645D01*
X207293129Y-123608888D01*
X207446265Y-123720148D01*
X207446270Y-123720151D01*
X207619192Y-123797142D01*
X207619197Y-123797144D01*
X207804354Y-123836500D01*
X207804355Y-123836500D01*
X207993644Y-123836500D01*
X207993646Y-123836500D01*
X208178803Y-123797144D01*
X208351730Y-123720151D01*
X208504871Y-123608888D01*
X208631533Y-123468216D01*
X208726179Y-123304284D01*
X208784674Y-123124256D01*
X208804460Y-122936000D01*
X208784674Y-122747744D01*
X208726179Y-122567716D01*
X208631533Y-122403784D01*
X208504871Y-122263112D01*
X208504870Y-122263111D01*
X208382219Y-122174000D01*
X217026540Y-122174000D01*
X217046326Y-122362256D01*
X217046327Y-122362259D01*
X217104818Y-122542277D01*
X217104821Y-122542284D01*
X217199467Y-122706216D01*
X217303076Y-122821285D01*
X217326129Y-122846888D01*
X217479265Y-122958148D01*
X217479270Y-122958151D01*
X217652192Y-123035142D01*
X217652197Y-123035144D01*
X217837354Y-123074500D01*
X217837355Y-123074500D01*
X218026644Y-123074500D01*
X218026646Y-123074500D01*
X218211803Y-123035144D01*
X218384730Y-122958151D01*
X218537871Y-122846888D01*
X218664533Y-122706216D01*
X218759179Y-122542284D01*
X218817674Y-122362256D01*
X218837460Y-122174000D01*
X218817674Y-121985744D01*
X218759179Y-121805716D01*
X218677647Y-121664499D01*
X218661175Y-121596600D01*
X218677648Y-121540500D01*
X218679435Y-121537405D01*
X218759179Y-121399284D01*
X218817674Y-121219256D01*
X218837460Y-121031000D01*
X218817674Y-120842744D01*
X218759179Y-120662716D01*
X218664533Y-120498784D01*
X218537871Y-120358112D01*
X218537870Y-120358111D01*
X218384734Y-120246851D01*
X218384729Y-120246848D01*
X218211807Y-120169857D01*
X218211802Y-120169855D01*
X218066001Y-120138865D01*
X218026646Y-120130500D01*
X217837354Y-120130500D01*
X217804897Y-120137398D01*
X217652197Y-120169855D01*
X217652192Y-120169857D01*
X217479270Y-120246848D01*
X217479265Y-120246851D01*
X217326129Y-120358111D01*
X217199466Y-120498785D01*
X217104821Y-120662715D01*
X217104818Y-120662722D01*
X217046327Y-120842740D01*
X217046326Y-120842744D01*
X217026540Y-121031000D01*
X217046326Y-121219256D01*
X217046327Y-121219259D01*
X217104818Y-121399277D01*
X217104820Y-121399281D01*
X217104821Y-121399284D01*
X217152712Y-121482235D01*
X217186352Y-121540501D01*
X217202824Y-121608401D01*
X217186352Y-121664499D01*
X217180938Y-121673877D01*
X217105235Y-121805000D01*
X217104820Y-121805718D01*
X217104818Y-121805722D01*
X217046327Y-121985740D01*
X217046326Y-121985744D01*
X217026540Y-122174000D01*
X208382219Y-122174000D01*
X208351734Y-122151851D01*
X208351729Y-122151848D01*
X208178807Y-122074857D01*
X208178802Y-122074855D01*
X208033001Y-122043865D01*
X207993646Y-122035500D01*
X207804354Y-122035500D01*
X207771897Y-122042398D01*
X207619197Y-122074855D01*
X207619192Y-122074857D01*
X207446270Y-122151848D01*
X207446265Y-122151851D01*
X207293129Y-122263111D01*
X207166466Y-122403785D01*
X207071821Y-122567715D01*
X207071818Y-122567722D01*
X207042699Y-122657343D01*
X207013326Y-122747744D01*
X206993540Y-122936000D01*
X189875507Y-122936000D01*
X189961377Y-122821294D01*
X190089913Y-122585898D01*
X190089915Y-122585894D01*
X190183645Y-122334593D01*
X190240653Y-122072530D01*
X190240654Y-122072523D01*
X190259789Y-121805001D01*
X190259789Y-121804998D01*
X190240654Y-121537476D01*
X190240653Y-121537469D01*
X190183645Y-121275406D01*
X190089915Y-121024105D01*
X190089913Y-121024101D01*
X189961382Y-120788714D01*
X189961377Y-120788706D01*
X189870818Y-120667734D01*
X189870817Y-120667733D01*
X189057195Y-121481356D01*
X189033941Y-121427447D01*
X188929244Y-121286815D01*
X188794938Y-121174118D01*
X188703334Y-121128113D01*
X189435446Y-120396000D01*
X197976540Y-120396000D01*
X197996326Y-120584256D01*
X197996327Y-120584259D01*
X198054818Y-120764277D01*
X198054821Y-120764284D01*
X198149467Y-120928216D01*
X198253870Y-121044167D01*
X198276129Y-121068888D01*
X198429265Y-121180148D01*
X198429270Y-121180151D01*
X198602192Y-121257142D01*
X198602197Y-121257144D01*
X198787354Y-121296500D01*
X198787355Y-121296500D01*
X198976644Y-121296500D01*
X198976646Y-121296500D01*
X199161803Y-121257144D01*
X199334730Y-121180151D01*
X199487871Y-121068888D01*
X199614533Y-120928216D01*
X199709179Y-120764284D01*
X199767674Y-120584256D01*
X199787460Y-120396000D01*
X199767674Y-120207744D01*
X199709179Y-120027716D01*
X199614533Y-119863784D01*
X199487871Y-119723112D01*
X199487870Y-119723111D01*
X199334734Y-119611851D01*
X199334729Y-119611848D01*
X199161807Y-119534857D01*
X199161802Y-119534855D01*
X199016001Y-119503865D01*
X198976646Y-119495500D01*
X198787354Y-119495500D01*
X198754897Y-119502398D01*
X198602197Y-119534855D01*
X198602192Y-119534857D01*
X198429270Y-119611848D01*
X198429265Y-119611851D01*
X198276129Y-119723111D01*
X198149466Y-119863785D01*
X198054821Y-120027715D01*
X198054818Y-120027722D01*
X197998967Y-120199615D01*
X197996326Y-120207744D01*
X197976540Y-120396000D01*
X189435446Y-120396000D01*
X189517265Y-120314181D01*
X189517264Y-120314180D01*
X189396293Y-120223622D01*
X189396285Y-120223617D01*
X189160898Y-120095086D01*
X189160894Y-120095084D01*
X188909593Y-120001354D01*
X188647530Y-119944346D01*
X188647523Y-119944345D01*
X188380001Y-119925211D01*
X188379999Y-119925211D01*
X188112476Y-119944345D01*
X188112469Y-119944346D01*
X187850406Y-120001354D01*
X187599105Y-120095084D01*
X187599101Y-120095086D01*
X187363714Y-120223617D01*
X187363706Y-120223622D01*
X187242733Y-120314180D01*
X188054054Y-121125501D01*
X188041109Y-121130213D01*
X187894627Y-121226555D01*
X187774312Y-121354082D01*
X187701552Y-121480105D01*
X186889180Y-120667733D01*
X186798622Y-120788706D01*
X186798617Y-120788714D01*
X186670086Y-121024101D01*
X186670084Y-121024105D01*
X186576354Y-121275406D01*
X186519346Y-121537469D01*
X186519345Y-121537476D01*
X186503935Y-121752931D01*
X186483716Y-121807139D01*
X186275189Y-121807139D01*
X186276785Y-121802859D01*
X186259085Y-121770443D01*
X186256567Y-121752931D01*
X186254665Y-121726350D01*
X186241152Y-121537407D01*
X186188746Y-121296500D01*
X186184127Y-121275265D01*
X186177368Y-121257144D01*
X186090373Y-121023899D01*
X186051479Y-120952671D01*
X185961804Y-120788443D01*
X185961799Y-120788435D01*
X185801035Y-120573678D01*
X185801019Y-120573660D01*
X185611339Y-120383980D01*
X185611321Y-120383964D01*
X185396564Y-120223200D01*
X185396556Y-120223195D01*
X185161106Y-120094629D01*
X185161102Y-120094627D01*
X184909734Y-120000872D01*
X184647601Y-119943849D01*
X184647594Y-119943848D01*
X184380001Y-119924709D01*
X184379999Y-119924709D01*
X184112405Y-119943848D01*
X184112398Y-119943849D01*
X183850265Y-120000872D01*
X183598897Y-120094627D01*
X183598893Y-120094629D01*
X183363443Y-120223195D01*
X183363435Y-120223200D01*
X183148678Y-120383964D01*
X183148660Y-120383980D01*
X182958980Y-120573660D01*
X182958964Y-120573678D01*
X182798200Y-120788435D01*
X182798195Y-120788443D01*
X182669629Y-121023893D01*
X182669627Y-121023897D01*
X182575872Y-121275265D01*
X182518849Y-121537398D01*
X182518848Y-121537405D01*
X182503684Y-121749422D01*
X182481910Y-121807800D01*
X182276000Y-121807800D01*
X182278089Y-121802198D01*
X182258834Y-121766934D01*
X182256316Y-121749422D01*
X182254816Y-121728454D01*
X182241152Y-121537407D01*
X182188746Y-121296500D01*
X182184127Y-121275265D01*
X182177368Y-121257144D01*
X182090373Y-121023899D01*
X182051479Y-120952671D01*
X181961804Y-120788443D01*
X181961799Y-120788435D01*
X181801035Y-120573678D01*
X181801019Y-120573660D01*
X181611339Y-120383980D01*
X181611321Y-120383964D01*
X181396564Y-120223200D01*
X181396556Y-120223195D01*
X181161106Y-120094629D01*
X181161102Y-120094627D01*
X180909734Y-120000872D01*
X180647601Y-119943849D01*
X180647594Y-119943848D01*
X180380001Y-119924709D01*
X180379999Y-119924709D01*
X180112405Y-119943848D01*
X180112398Y-119943849D01*
X179850265Y-120000872D01*
X179598897Y-120094627D01*
X179598893Y-120094629D01*
X179363443Y-120223195D01*
X179363435Y-120223200D01*
X179148678Y-120383964D01*
X179148660Y-120383980D01*
X178958980Y-120573660D01*
X178958964Y-120573678D01*
X178798200Y-120788435D01*
X178798195Y-120788443D01*
X178669629Y-121023893D01*
X178669627Y-121023897D01*
X178575872Y-121275265D01*
X178518849Y-121537398D01*
X178518848Y-121537405D01*
X178499709Y-121804998D01*
X178499709Y-121805001D01*
X175760291Y-121805001D01*
X175760291Y-121805000D01*
X175741152Y-121537407D01*
X175688746Y-121296500D01*
X175684127Y-121275265D01*
X175677368Y-121257144D01*
X175590373Y-121023899D01*
X175551479Y-120952671D01*
X175461804Y-120788443D01*
X175461799Y-120788435D01*
X175301035Y-120573678D01*
X175301019Y-120573660D01*
X175111339Y-120383980D01*
X175111321Y-120383964D01*
X174896564Y-120223200D01*
X174896556Y-120223195D01*
X174661106Y-120094629D01*
X174661102Y-120094627D01*
X174409734Y-120000872D01*
X174147601Y-119943849D01*
X174147594Y-119943848D01*
X173880001Y-119924709D01*
X173879999Y-119924709D01*
X173612405Y-119943848D01*
X173612398Y-119943849D01*
X173350265Y-120000872D01*
X173098897Y-120094627D01*
X173098893Y-120094629D01*
X172863443Y-120223195D01*
X172863435Y-120223200D01*
X172648678Y-120383964D01*
X172648660Y-120383980D01*
X172458980Y-120573660D01*
X172458964Y-120573678D01*
X172298200Y-120788435D01*
X172298195Y-120788443D01*
X172169629Y-121023893D01*
X172169627Y-121023897D01*
X172075872Y-121275265D01*
X172018849Y-121537398D01*
X172018848Y-121537405D01*
X172003684Y-121749422D01*
X171981910Y-121807800D01*
X171776000Y-121807800D01*
X171778089Y-121802198D01*
X171758834Y-121766934D01*
X171756316Y-121749422D01*
X171754816Y-121728454D01*
X171741152Y-121537407D01*
X171688746Y-121296500D01*
X171684127Y-121275265D01*
X171677368Y-121257144D01*
X171590373Y-121023899D01*
X171551479Y-120952671D01*
X171461804Y-120788443D01*
X171461799Y-120788435D01*
X171301035Y-120573678D01*
X171301019Y-120573660D01*
X171111339Y-120383980D01*
X171111321Y-120383964D01*
X170896564Y-120223200D01*
X170896556Y-120223195D01*
X170661106Y-120094629D01*
X170661102Y-120094627D01*
X170409734Y-120000872D01*
X170147601Y-119943849D01*
X170147594Y-119943848D01*
X169880001Y-119924709D01*
X169879999Y-119924709D01*
X169612405Y-119943848D01*
X169612398Y-119943849D01*
X169350265Y-120000872D01*
X169098897Y-120094627D01*
X169098893Y-120094629D01*
X168863443Y-120223195D01*
X168863435Y-120223200D01*
X168648678Y-120383964D01*
X168648660Y-120383980D01*
X168458980Y-120573660D01*
X168458964Y-120573678D01*
X168298200Y-120788435D01*
X168298195Y-120788443D01*
X168169629Y-121023893D01*
X168169627Y-121023897D01*
X168075872Y-121275265D01*
X168018849Y-121537398D01*
X168018848Y-121537405D01*
X168003684Y-121749422D01*
X167981910Y-121807800D01*
X167776000Y-121807800D01*
X167778089Y-121802198D01*
X167758834Y-121766934D01*
X167756316Y-121749422D01*
X167754816Y-121728454D01*
X167741152Y-121537407D01*
X167688746Y-121296500D01*
X167684127Y-121275265D01*
X167677368Y-121257144D01*
X167590373Y-121023899D01*
X167551479Y-120952671D01*
X167461804Y-120788443D01*
X167461799Y-120788435D01*
X167301035Y-120573678D01*
X167301019Y-120573660D01*
X167111339Y-120383980D01*
X167111321Y-120383964D01*
X166896564Y-120223200D01*
X166896556Y-120223195D01*
X166661106Y-120094629D01*
X166661102Y-120094627D01*
X166409734Y-120000872D01*
X166147601Y-119943849D01*
X166147594Y-119943848D01*
X165880001Y-119924709D01*
X165879999Y-119924709D01*
X165612405Y-119943848D01*
X165612398Y-119943849D01*
X165350265Y-120000872D01*
X165098897Y-120094627D01*
X165098893Y-120094629D01*
X164863443Y-120223195D01*
X164863435Y-120223200D01*
X164648678Y-120383964D01*
X164648660Y-120383980D01*
X164458980Y-120573660D01*
X164458964Y-120573678D01*
X164298200Y-120788435D01*
X164298195Y-120788443D01*
X164169629Y-121023893D01*
X164169627Y-121023897D01*
X164075872Y-121275265D01*
X164018849Y-121537398D01*
X164018848Y-121537404D01*
X164003183Y-121756421D01*
X163984681Y-121806025D01*
X163772059Y-121806025D01*
X163773387Y-121801502D01*
X163758333Y-121773932D01*
X163755499Y-121747574D01*
X163755499Y-121044170D01*
X163754585Y-121031000D01*
X163749149Y-120952667D01*
X163749146Y-120952656D01*
X163698743Y-120738354D01*
X163698742Y-120738352D01*
X163698741Y-120738346D01*
X163630705Y-120584259D01*
X163609814Y-120536945D01*
X163609810Y-120536937D01*
X163513266Y-120396000D01*
X163485385Y-120355298D01*
X163329702Y-120199615D01*
X163228806Y-120130500D01*
X163148062Y-120075189D01*
X163148054Y-120075185D01*
X162946660Y-119986261D01*
X162946645Y-119986256D01*
X162732343Y-119935852D01*
X162732328Y-119935850D01*
X162656873Y-119930613D01*
X162640833Y-119929500D01*
X162640831Y-119929500D01*
X162032167Y-119929500D01*
X161119168Y-119929501D01*
X161103131Y-119930613D01*
X161027672Y-119935850D01*
X161027657Y-119935852D01*
X160813354Y-119986256D01*
X160813339Y-119986261D01*
X160611945Y-120075185D01*
X160611937Y-120075189D01*
X160430299Y-120199614D01*
X160430293Y-120199619D01*
X160274619Y-120355293D01*
X160274614Y-120355299D01*
X160150189Y-120536937D01*
X160150185Y-120536945D01*
X160061261Y-120738339D01*
X160061256Y-120738354D01*
X160010852Y-120952656D01*
X160010850Y-120952671D01*
X160005523Y-121029419D01*
X160004500Y-121044167D01*
X160004500Y-121804999D01*
X139300500Y-121804999D01*
X139300500Y-117933000D01*
X225155172Y-117933000D01*
X225174462Y-118227312D01*
X225174464Y-118227324D01*
X225232001Y-118516584D01*
X225232005Y-118516599D01*
X225326812Y-118795888D01*
X225457258Y-119060406D01*
X225457265Y-119060419D01*
X225621122Y-119305648D01*
X225650406Y-119339039D01*
X226439438Y-118550007D01*
X226488348Y-118628999D01*
X226631931Y-118786501D01*
X226790388Y-118906163D01*
X226003959Y-119692592D01*
X226003959Y-119692593D01*
X226037344Y-119721872D01*
X226037348Y-119721875D01*
X226282580Y-119885734D01*
X226282593Y-119885741D01*
X226547111Y-120016187D01*
X226826400Y-120110994D01*
X226826415Y-120110998D01*
X227115675Y-120168535D01*
X227115687Y-120168537D01*
X227410000Y-120187827D01*
X227704312Y-120168537D01*
X227704324Y-120168535D01*
X227993584Y-120110998D01*
X227993599Y-120110994D01*
X228272888Y-120016187D01*
X228537406Y-119885741D01*
X228537419Y-119885734D01*
X228782650Y-119721877D01*
X228816039Y-119692593D01*
X228816040Y-119692592D01*
X228029611Y-118906163D01*
X228188069Y-118786501D01*
X228331652Y-118628999D01*
X228380560Y-118550008D01*
X229169592Y-119339040D01*
X229169593Y-119339039D01*
X229198877Y-119305650D01*
X229362734Y-119060419D01*
X229362741Y-119060406D01*
X229493187Y-118795888D01*
X229587994Y-118516599D01*
X229587998Y-118516584D01*
X229645535Y-118227324D01*
X229645537Y-118227312D01*
X229664827Y-117933000D01*
X229645537Y-117638687D01*
X229645535Y-117638675D01*
X229587998Y-117349415D01*
X229587994Y-117349400D01*
X229493187Y-117070111D01*
X229362741Y-116805593D01*
X229362734Y-116805580D01*
X229198875Y-116560348D01*
X229198872Y-116560344D01*
X229169593Y-116526959D01*
X229169592Y-116526959D01*
X228380560Y-117315991D01*
X228331652Y-117237001D01*
X228188069Y-117079499D01*
X228029610Y-116959835D01*
X228816039Y-116173406D01*
X228782648Y-116144122D01*
X228537419Y-115980265D01*
X228537406Y-115980258D01*
X228272888Y-115849812D01*
X227993599Y-115755005D01*
X227993584Y-115755001D01*
X227704324Y-115697464D01*
X227704312Y-115697462D01*
X227410000Y-115678172D01*
X227115687Y-115697462D01*
X227115675Y-115697464D01*
X226826415Y-115755001D01*
X226826400Y-115755005D01*
X226547111Y-115849812D01*
X226282593Y-115980258D01*
X226282580Y-115980265D01*
X226037350Y-116144123D01*
X226003958Y-116173406D01*
X226790388Y-116959836D01*
X226631931Y-117079499D01*
X226488348Y-117237001D01*
X226439439Y-117315991D01*
X225650406Y-116526958D01*
X225621123Y-116560350D01*
X225457265Y-116805580D01*
X225457258Y-116805593D01*
X225326812Y-117070111D01*
X225232005Y-117349400D01*
X225232001Y-117349415D01*
X225174464Y-117638675D01*
X225174462Y-117638687D01*
X225155172Y-117933000D01*
X139300500Y-117933000D01*
X139300500Y-114935000D01*
X173338540Y-114935000D01*
X173358326Y-115123256D01*
X173358327Y-115123259D01*
X173416818Y-115303277D01*
X173416821Y-115303284D01*
X173511467Y-115467216D01*
X173578931Y-115542142D01*
X173638129Y-115607888D01*
X173791265Y-115719148D01*
X173791270Y-115719151D01*
X173964192Y-115796142D01*
X173964197Y-115796144D01*
X174149354Y-115835500D01*
X174149355Y-115835500D01*
X174338644Y-115835500D01*
X174338646Y-115835500D01*
X174523803Y-115796144D01*
X174696730Y-115719151D01*
X174849871Y-115607888D01*
X174976533Y-115467216D01*
X175071179Y-115303284D01*
X175129674Y-115123256D01*
X175149460Y-114935000D01*
X175497540Y-114935000D01*
X175517326Y-115123256D01*
X175517327Y-115123259D01*
X175575818Y-115303277D01*
X175575821Y-115303284D01*
X175670467Y-115467216D01*
X175737931Y-115542142D01*
X175797129Y-115607888D01*
X175950265Y-115719148D01*
X175950270Y-115719151D01*
X176123192Y-115796142D01*
X176123197Y-115796144D01*
X176308354Y-115835500D01*
X176308355Y-115835500D01*
X176497644Y-115835500D01*
X176497646Y-115835500D01*
X176682803Y-115796144D01*
X176855730Y-115719151D01*
X177008871Y-115607888D01*
X177135533Y-115467216D01*
X177186176Y-115379500D01*
X187753040Y-115379500D01*
X187772826Y-115567756D01*
X187772827Y-115567759D01*
X187831318Y-115747777D01*
X187831321Y-115747784D01*
X187925967Y-115911716D01*
X187987683Y-115980258D01*
X188052629Y-116052388D01*
X188205765Y-116163648D01*
X188205770Y-116163651D01*
X188378692Y-116240642D01*
X188378697Y-116240644D01*
X188563854Y-116280000D01*
X188563855Y-116280000D01*
X188753144Y-116280000D01*
X188753146Y-116280000D01*
X188938303Y-116240644D01*
X189111230Y-116163651D01*
X189264371Y-116052388D01*
X189391033Y-115911716D01*
X189485679Y-115747784D01*
X189544174Y-115567756D01*
X189563960Y-115379500D01*
X189544174Y-115191244D01*
X189485679Y-115011216D01*
X189391033Y-114847284D01*
X189264371Y-114706612D01*
X189264370Y-114706611D01*
X189111234Y-114595351D01*
X189111229Y-114595348D01*
X188938307Y-114518357D01*
X188938302Y-114518355D01*
X188792501Y-114487365D01*
X188753146Y-114479000D01*
X188563854Y-114479000D01*
X188531397Y-114485898D01*
X188378697Y-114518355D01*
X188378692Y-114518357D01*
X188205770Y-114595348D01*
X188205765Y-114595351D01*
X188052629Y-114706611D01*
X187925966Y-114847285D01*
X187831321Y-115011215D01*
X187831318Y-115011222D01*
X187772827Y-115191240D01*
X187772826Y-115191244D01*
X187753040Y-115379500D01*
X177186176Y-115379500D01*
X177230179Y-115303284D01*
X177288674Y-115123256D01*
X177308460Y-114935000D01*
X177288674Y-114746744D01*
X177230179Y-114566716D01*
X177174150Y-114469671D01*
X190385192Y-114469671D01*
X190407351Y-114595348D01*
X190415474Y-114641412D01*
X190484547Y-114801539D01*
X190588685Y-114941422D01*
X190588686Y-114941423D01*
X190588688Y-114941425D01*
X190660118Y-115001361D01*
X190722275Y-115053517D01*
X190878116Y-115131783D01*
X191047805Y-115172000D01*
X191047807Y-115172000D01*
X191178448Y-115172000D01*
X191178455Y-115172000D01*
X191308211Y-115156834D01*
X191472084Y-115097189D01*
X191617784Y-115001360D01*
X191737458Y-114874513D01*
X191824653Y-114723487D01*
X191837373Y-114681000D01*
X197087540Y-114681000D01*
X197107326Y-114869256D01*
X197107327Y-114869259D01*
X197165818Y-115049277D01*
X197165821Y-115049284D01*
X197260467Y-115213216D01*
X197341559Y-115303277D01*
X197387129Y-115353888D01*
X197540265Y-115465148D01*
X197540270Y-115465151D01*
X197713192Y-115542142D01*
X197713197Y-115542144D01*
X197898354Y-115581500D01*
X197898355Y-115581500D01*
X198087644Y-115581500D01*
X198087646Y-115581500D01*
X198272803Y-115542144D01*
X198445730Y-115465151D01*
X198598871Y-115353888D01*
X198725533Y-115213216D01*
X198820179Y-115049284D01*
X198878674Y-114869256D01*
X198898460Y-114681000D01*
X198878674Y-114492744D01*
X198820179Y-114312716D01*
X198725533Y-114148784D01*
X198598871Y-114008112D01*
X198578783Y-113993517D01*
X198445734Y-113896851D01*
X198445729Y-113896848D01*
X198272807Y-113819857D01*
X198272802Y-113819855D01*
X198127001Y-113788865D01*
X198087646Y-113780500D01*
X197898354Y-113780500D01*
X197865897Y-113787398D01*
X197713197Y-113819855D01*
X197713192Y-113819857D01*
X197540270Y-113896848D01*
X197540265Y-113896851D01*
X197387129Y-114008111D01*
X197260466Y-114148785D01*
X197165821Y-114312715D01*
X197165818Y-114312722D01*
X197107327Y-114492740D01*
X197107326Y-114492744D01*
X197087540Y-114681000D01*
X191837373Y-114681000D01*
X191874668Y-114556423D01*
X191884808Y-114382329D01*
X191854526Y-114210588D01*
X191785453Y-114050461D01*
X191681315Y-113910578D01*
X191681312Y-113910576D01*
X191681311Y-113910574D01*
X191547725Y-113798483D01*
X191547723Y-113798482D01*
X191391887Y-113720218D01*
X191391885Y-113720217D01*
X191391884Y-113720217D01*
X191222195Y-113680000D01*
X191091545Y-113680000D01*
X190990623Y-113691795D01*
X190961787Y-113695166D01*
X190961785Y-113695167D01*
X190797917Y-113754810D01*
X190797913Y-113754812D01*
X190652218Y-113850637D01*
X190652217Y-113850638D01*
X190532543Y-113977485D01*
X190532539Y-113977490D01*
X190445347Y-114128511D01*
X190395333Y-114295573D01*
X190395331Y-114295581D01*
X190385192Y-114469670D01*
X190385192Y-114469671D01*
X177174150Y-114469671D01*
X177135533Y-114402784D01*
X177008871Y-114262112D01*
X177008870Y-114262111D01*
X176855734Y-114150851D01*
X176855729Y-114150848D01*
X176682807Y-114073857D01*
X176682802Y-114073855D01*
X176537001Y-114042865D01*
X176497646Y-114034500D01*
X176308354Y-114034500D01*
X176275897Y-114041398D01*
X176123197Y-114073855D01*
X176123192Y-114073857D01*
X175950270Y-114150848D01*
X175950265Y-114150851D01*
X175797129Y-114262111D01*
X175670466Y-114402785D01*
X175575821Y-114566715D01*
X175575818Y-114566722D01*
X175524882Y-114723488D01*
X175517326Y-114746744D01*
X175497540Y-114935000D01*
X175149460Y-114935000D01*
X175129674Y-114746744D01*
X175071179Y-114566716D01*
X174976533Y-114402784D01*
X174849871Y-114262112D01*
X174849870Y-114262111D01*
X174696734Y-114150851D01*
X174696729Y-114150848D01*
X174523807Y-114073857D01*
X174523802Y-114073855D01*
X174378001Y-114042865D01*
X174338646Y-114034500D01*
X174149354Y-114034500D01*
X174116897Y-114041398D01*
X173964197Y-114073855D01*
X173964192Y-114073857D01*
X173791270Y-114150848D01*
X173791265Y-114150851D01*
X173638129Y-114262111D01*
X173511466Y-114402785D01*
X173416821Y-114566715D01*
X173416818Y-114566722D01*
X173365882Y-114723488D01*
X173358326Y-114746744D01*
X173338540Y-114935000D01*
X139300500Y-114935000D01*
X139300500Y-113454671D01*
X185305192Y-113454671D01*
X185330952Y-113600771D01*
X185335474Y-113626412D01*
X185404547Y-113786539D01*
X185508685Y-113926422D01*
X185508686Y-113926423D01*
X185508688Y-113926425D01*
X185580118Y-113986361D01*
X185642275Y-114038517D01*
X185798116Y-114116783D01*
X185967805Y-114157000D01*
X185967807Y-114157000D01*
X186098448Y-114157000D01*
X186098455Y-114157000D01*
X186228211Y-114141834D01*
X186392084Y-114082189D01*
X186537784Y-113986360D01*
X186657458Y-113859513D01*
X186744653Y-113708487D01*
X186757672Y-113665000D01*
X206866540Y-113665000D01*
X206886326Y-113853256D01*
X206886327Y-113853259D01*
X206944818Y-114033277D01*
X206944821Y-114033284D01*
X207039467Y-114197216D01*
X207166129Y-114337888D01*
X207319265Y-114449148D01*
X207319270Y-114449151D01*
X207492192Y-114526142D01*
X207492197Y-114526144D01*
X207677354Y-114565500D01*
X207677355Y-114565500D01*
X207866644Y-114565500D01*
X207866646Y-114565500D01*
X208051803Y-114526144D01*
X208224730Y-114449151D01*
X208377871Y-114337888D01*
X208504533Y-114197216D01*
X208599179Y-114033284D01*
X208657674Y-113853256D01*
X208677460Y-113665000D01*
X208657674Y-113476744D01*
X208599179Y-113296716D01*
X208504533Y-113132784D01*
X208377871Y-112992112D01*
X208349310Y-112971361D01*
X208224734Y-112880851D01*
X208224729Y-112880848D01*
X208051807Y-112803857D01*
X208051802Y-112803855D01*
X207899753Y-112771537D01*
X207866646Y-112764500D01*
X207677354Y-112764500D01*
X207644897Y-112771398D01*
X207492197Y-112803855D01*
X207492192Y-112803857D01*
X207319270Y-112880848D01*
X207319265Y-112880851D01*
X207166129Y-112992111D01*
X207039466Y-113132785D01*
X206944821Y-113296715D01*
X206944818Y-113296722D01*
X206893498Y-113454670D01*
X206886326Y-113476744D01*
X206866540Y-113665000D01*
X186757672Y-113665000D01*
X186794668Y-113541423D01*
X186804808Y-113367329D01*
X186774526Y-113195588D01*
X186705453Y-113035461D01*
X186601315Y-112895578D01*
X186601312Y-112895576D01*
X186601311Y-112895574D01*
X186467725Y-112783483D01*
X186467723Y-112783482D01*
X186311887Y-112705218D01*
X186311885Y-112705217D01*
X186311884Y-112705217D01*
X186142195Y-112665000D01*
X186011545Y-112665000D01*
X185910623Y-112676795D01*
X185881787Y-112680166D01*
X185881785Y-112680167D01*
X185717917Y-112739810D01*
X185717913Y-112739812D01*
X185572218Y-112835637D01*
X185572217Y-112835638D01*
X185452543Y-112962485D01*
X185452539Y-112962490D01*
X185365347Y-113113511D01*
X185315333Y-113280573D01*
X185315331Y-113280581D01*
X185305192Y-113454670D01*
X185305192Y-113454671D01*
X139300500Y-113454671D01*
X139300500Y-112439671D01*
X190385192Y-112439671D01*
X190410476Y-112583070D01*
X190415474Y-112611412D01*
X190484547Y-112771539D01*
X190588685Y-112911422D01*
X190588686Y-112911423D01*
X190588688Y-112911425D01*
X190660118Y-112971361D01*
X190722275Y-113023517D01*
X190878116Y-113101783D01*
X191047805Y-113142000D01*
X191047807Y-113142000D01*
X191178448Y-113142000D01*
X191178455Y-113142000D01*
X191308211Y-113126834D01*
X191472084Y-113067189D01*
X191617784Y-112971360D01*
X191737458Y-112844513D01*
X191824653Y-112693487D01*
X191874668Y-112526423D01*
X191884186Y-112363002D01*
X223432677Y-112363002D01*
X223451929Y-112583062D01*
X223451930Y-112583070D01*
X223509104Y-112796445D01*
X223509105Y-112796447D01*
X223509106Y-112796450D01*
X223600344Y-112992111D01*
X223602466Y-112996662D01*
X223602468Y-112996666D01*
X223729170Y-113177615D01*
X223729174Y-113177620D01*
X223885380Y-113333826D01*
X223933227Y-113367329D01*
X223945477Y-113375906D01*
X223989102Y-113430482D01*
X223996296Y-113499980D01*
X223964774Y-113562335D01*
X223904544Y-113597750D01*
X223887609Y-113600771D01*
X223830516Y-113606909D01*
X223695671Y-113657202D01*
X223695664Y-113657206D01*
X223580455Y-113743452D01*
X223580452Y-113743455D01*
X223494206Y-113858664D01*
X223494202Y-113858671D01*
X223443908Y-113993517D01*
X223437501Y-114053116D01*
X223437501Y-114053123D01*
X223437500Y-114053135D01*
X223437500Y-115672870D01*
X223437501Y-115672876D01*
X223443908Y-115732483D01*
X223494202Y-115867328D01*
X223494206Y-115867335D01*
X223580452Y-115982544D01*
X223580455Y-115982547D01*
X223695664Y-116068793D01*
X223695671Y-116068797D01*
X223830517Y-116119091D01*
X223830516Y-116119091D01*
X223837444Y-116119835D01*
X223890127Y-116125500D01*
X225509872Y-116125499D01*
X225569483Y-116119091D01*
X225704331Y-116068796D01*
X225819546Y-115982546D01*
X225905796Y-115867331D01*
X225956091Y-115732483D01*
X225962500Y-115672873D01*
X225962499Y-114053128D01*
X225956091Y-113993517D01*
X225953422Y-113986362D01*
X225905797Y-113858671D01*
X225905793Y-113858664D01*
X225819547Y-113743455D01*
X225819544Y-113743452D01*
X225704335Y-113657206D01*
X225704328Y-113657202D01*
X225569482Y-113606908D01*
X225569483Y-113606908D01*
X225512390Y-113600770D01*
X225447839Y-113574032D01*
X225407991Y-113516639D01*
X225405498Y-113446814D01*
X225441151Y-113386725D01*
X225454523Y-113375906D01*
X225514620Y-113333826D01*
X225670826Y-113177620D01*
X225797534Y-112996662D01*
X225890894Y-112796450D01*
X225948070Y-112583068D01*
X225963517Y-112406500D01*
X225967323Y-112363002D01*
X225967323Y-112362997D01*
X225958799Y-112265573D01*
X225948070Y-112142932D01*
X225890894Y-111929550D01*
X225797534Y-111729339D01*
X225670826Y-111548380D01*
X225670824Y-111548377D01*
X225573127Y-111450680D01*
X225539642Y-111389357D01*
X225544626Y-111319665D01*
X225573123Y-111275322D01*
X225670826Y-111177620D01*
X225797534Y-110996662D01*
X225890894Y-110796450D01*
X225948070Y-110583068D01*
X225967323Y-110363000D01*
X225948070Y-110142932D01*
X225890894Y-109929550D01*
X225797534Y-109729339D01*
X225670826Y-109548380D01*
X225514620Y-109392174D01*
X225514616Y-109392171D01*
X225514615Y-109392170D01*
X225333666Y-109265468D01*
X225333658Y-109265464D01*
X225247109Y-109225106D01*
X225194669Y-109178934D01*
X225175517Y-109111741D01*
X225195732Y-109044860D01*
X225247109Y-109000341D01*
X225333417Y-108960095D01*
X225333420Y-108960093D01*
X225398186Y-108914742D01*
X225398187Y-108914740D01*
X224797020Y-108313572D01*
X224837119Y-108307529D01*
X224962054Y-108247363D01*
X225063705Y-108153045D01*
X225133039Y-108032955D01*
X225149850Y-107959297D01*
X225751740Y-108561187D01*
X225751742Y-108561186D01*
X225797093Y-108496420D01*
X225797100Y-108496408D01*
X225890419Y-108296284D01*
X225890424Y-108296270D01*
X225947573Y-108082986D01*
X225947575Y-108082976D01*
X225966821Y-107863000D01*
X225966821Y-107862999D01*
X225947575Y-107643023D01*
X225947573Y-107643013D01*
X225890424Y-107429729D01*
X225890420Y-107429720D01*
X225797098Y-107229590D01*
X225751740Y-107164811D01*
X225153779Y-107762772D01*
X225153533Y-107759484D01*
X225102872Y-107630402D01*
X225016414Y-107521987D01*
X224901841Y-107443873D01*
X224797697Y-107411749D01*
X225398187Y-106811258D01*
X225333409Y-106765900D01*
X225333407Y-106765899D01*
X225133284Y-106672580D01*
X225133270Y-106672575D01*
X224919986Y-106615426D01*
X224919976Y-106615424D01*
X224700001Y-106596179D01*
X224699999Y-106596179D01*
X224480023Y-106615424D01*
X224480013Y-106615426D01*
X224266729Y-106672575D01*
X224266720Y-106672579D01*
X224066586Y-106765903D01*
X224001812Y-106811257D01*
X224001811Y-106811258D01*
X224602980Y-107412427D01*
X224562881Y-107418471D01*
X224437946Y-107478637D01*
X224336295Y-107572955D01*
X224266961Y-107693045D01*
X224250149Y-107766702D01*
X223648258Y-107164811D01*
X223648257Y-107164812D01*
X223602903Y-107229586D01*
X223509579Y-107429720D01*
X223509575Y-107429729D01*
X223452426Y-107643013D01*
X223452424Y-107643023D01*
X223433179Y-107862999D01*
X223433179Y-107863000D01*
X223452424Y-108082976D01*
X223452426Y-108082986D01*
X223509575Y-108296270D01*
X223509580Y-108296284D01*
X223602899Y-108496407D01*
X223602900Y-108496409D01*
X223648258Y-108561187D01*
X224246220Y-107963225D01*
X224246467Y-107966516D01*
X224297128Y-108095598D01*
X224383586Y-108204013D01*
X224498159Y-108282127D01*
X224602301Y-108314250D01*
X224001811Y-108914741D01*
X224066582Y-108960094D01*
X224066588Y-108960098D01*
X224152891Y-109000342D01*
X224205330Y-109046514D01*
X224224482Y-109113708D01*
X224204266Y-109180589D01*
X224152891Y-109225106D01*
X224066340Y-109265465D01*
X224066338Y-109265466D01*
X223885377Y-109392175D01*
X223729175Y-109548377D01*
X223602466Y-109729338D01*
X223602465Y-109729340D01*
X223509107Y-109929548D01*
X223509104Y-109929554D01*
X223451930Y-110142929D01*
X223451929Y-110142937D01*
X223432677Y-110362997D01*
X223432677Y-110363002D01*
X223451929Y-110583062D01*
X223451930Y-110583070D01*
X223509104Y-110796445D01*
X223509105Y-110796447D01*
X223509106Y-110796450D01*
X223590100Y-110970142D01*
X223602466Y-110996662D01*
X223602468Y-110996666D01*
X223729170Y-111177615D01*
X223729175Y-111177621D01*
X223826872Y-111275318D01*
X223860357Y-111336641D01*
X223855373Y-111406333D01*
X223826873Y-111450680D01*
X223729172Y-111548381D01*
X223602466Y-111729338D01*
X223602465Y-111729340D01*
X223509107Y-111929548D01*
X223509104Y-111929554D01*
X223451930Y-112142929D01*
X223451929Y-112142937D01*
X223432677Y-112362997D01*
X223432677Y-112363002D01*
X191884186Y-112363002D01*
X191884808Y-112352329D01*
X191854526Y-112180588D01*
X191785453Y-112020461D01*
X191681315Y-111880578D01*
X191681312Y-111880576D01*
X191681311Y-111880574D01*
X191547725Y-111768483D01*
X191547723Y-111768482D01*
X191391887Y-111690218D01*
X191391885Y-111690217D01*
X191391884Y-111690217D01*
X191222195Y-111650000D01*
X191091545Y-111650000D01*
X190990623Y-111661795D01*
X190961787Y-111665166D01*
X190961785Y-111665167D01*
X190797917Y-111724810D01*
X190797913Y-111724812D01*
X190652218Y-111820637D01*
X190652217Y-111820638D01*
X190532543Y-111947485D01*
X190532539Y-111947490D01*
X190445347Y-112098511D01*
X190395333Y-112265573D01*
X190395331Y-112265581D01*
X190385192Y-112439670D01*
X190385192Y-112439671D01*
X139300500Y-112439671D01*
X139300500Y-111506000D01*
X173338540Y-111506000D01*
X173358326Y-111694256D01*
X173358327Y-111694259D01*
X173416818Y-111874277D01*
X173416821Y-111874284D01*
X173511467Y-112038216D01*
X173638129Y-112178888D01*
X173791265Y-112290148D01*
X173791270Y-112290151D01*
X173964192Y-112367142D01*
X173964197Y-112367144D01*
X174149354Y-112406500D01*
X174149355Y-112406500D01*
X174338644Y-112406500D01*
X174338646Y-112406500D01*
X174523803Y-112367144D01*
X174696730Y-112290151D01*
X174849871Y-112178888D01*
X174976533Y-112038216D01*
X175071179Y-111874284D01*
X175129674Y-111694256D01*
X175149460Y-111506000D01*
X175129674Y-111317744D01*
X175076389Y-111153750D01*
X175074394Y-111083909D01*
X175110474Y-111024076D01*
X175173175Y-110993248D01*
X175220099Y-110994141D01*
X175292354Y-111009500D01*
X175292355Y-111009500D01*
X175481644Y-111009500D01*
X175481646Y-111009500D01*
X175666803Y-110970144D01*
X175839730Y-110893151D01*
X175992871Y-110781888D01*
X176119533Y-110641216D01*
X176119534Y-110641214D01*
X176120350Y-110640308D01*
X176179837Y-110603659D01*
X176249694Y-110604990D01*
X176304650Y-110640308D01*
X176305465Y-110641214D01*
X176305467Y-110641216D01*
X176432129Y-110781888D01*
X176585265Y-110893148D01*
X176585270Y-110893151D01*
X176758192Y-110970142D01*
X176758197Y-110970144D01*
X176943354Y-111009500D01*
X176943355Y-111009500D01*
X177132644Y-111009500D01*
X177132646Y-111009500D01*
X177317803Y-110970144D01*
X177490730Y-110893151D01*
X177643871Y-110781888D01*
X177770533Y-110641216D01*
X177865179Y-110477284D01*
X177923674Y-110297256D01*
X177943460Y-110109000D01*
X177923674Y-109920744D01*
X177865179Y-109740716D01*
X177784514Y-109601000D01*
X181914540Y-109601000D01*
X181934326Y-109789256D01*
X181934327Y-109789259D01*
X181992818Y-109969277D01*
X181992821Y-109969284D01*
X182087467Y-110133216D01*
X182214129Y-110273888D01*
X182367265Y-110385148D01*
X182367270Y-110385151D01*
X182540192Y-110462142D01*
X182540197Y-110462144D01*
X182725354Y-110501500D01*
X182725355Y-110501500D01*
X182914644Y-110501500D01*
X182914646Y-110501500D01*
X183099803Y-110462144D01*
X183272730Y-110385151D01*
X183425871Y-110273888D01*
X183552533Y-110133216D01*
X183647179Y-109969284D01*
X183705674Y-109789256D01*
X183725460Y-109601000D01*
X183705674Y-109412744D01*
X183647179Y-109232716D01*
X183552533Y-109068784D01*
X183425871Y-108928112D01*
X183407469Y-108914742D01*
X183272734Y-108816851D01*
X183272729Y-108816848D01*
X183099807Y-108739857D01*
X183099802Y-108739855D01*
X182954001Y-108708865D01*
X182914646Y-108700500D01*
X182725354Y-108700500D01*
X182692897Y-108707398D01*
X182540197Y-108739855D01*
X182540192Y-108739857D01*
X182367270Y-108816848D01*
X182367265Y-108816851D01*
X182214129Y-108928111D01*
X182087466Y-109068785D01*
X181992821Y-109232715D01*
X181992818Y-109232722D01*
X181941009Y-109392175D01*
X181934326Y-109412744D01*
X181914540Y-109601000D01*
X177784514Y-109601000D01*
X177770533Y-109576784D01*
X177643871Y-109436112D01*
X177611708Y-109412744D01*
X177490734Y-109324851D01*
X177490729Y-109324848D01*
X177317807Y-109247857D01*
X177317802Y-109247855D01*
X177172001Y-109216865D01*
X177132646Y-109208500D01*
X176943354Y-109208500D01*
X176910897Y-109215398D01*
X176758197Y-109247855D01*
X176758192Y-109247857D01*
X176585270Y-109324848D01*
X176585265Y-109324851D01*
X176432129Y-109436111D01*
X176304650Y-109577691D01*
X176245163Y-109614340D01*
X176175306Y-109613009D01*
X176120350Y-109577691D01*
X175992870Y-109436111D01*
X175839734Y-109324851D01*
X175839729Y-109324848D01*
X175666807Y-109247857D01*
X175666802Y-109247855D01*
X175521001Y-109216865D01*
X175481646Y-109208500D01*
X175292354Y-109208500D01*
X175259897Y-109215398D01*
X175107197Y-109247855D01*
X175107192Y-109247857D01*
X174934270Y-109324848D01*
X174934265Y-109324851D01*
X174781129Y-109436111D01*
X174654466Y-109576785D01*
X174559821Y-109740715D01*
X174559818Y-109740722D01*
X174518951Y-109866500D01*
X174501326Y-109920744D01*
X174481540Y-110109000D01*
X174501326Y-110297256D01*
X174501327Y-110297259D01*
X174554610Y-110461249D01*
X174556605Y-110531090D01*
X174520524Y-110590923D01*
X174457823Y-110621751D01*
X174410900Y-110620858D01*
X174338646Y-110605500D01*
X174149354Y-110605500D01*
X174116897Y-110612398D01*
X173964197Y-110644855D01*
X173964192Y-110644857D01*
X173791270Y-110721848D01*
X173791265Y-110721851D01*
X173638129Y-110833111D01*
X173511466Y-110973785D01*
X173416821Y-111137715D01*
X173416818Y-111137722D01*
X173372111Y-111275317D01*
X173358326Y-111317744D01*
X173338540Y-111506000D01*
X139300500Y-111506000D01*
X139300500Y-108966000D01*
X169909540Y-108966000D01*
X169929326Y-109154256D01*
X169929327Y-109154259D01*
X169987818Y-109334277D01*
X169987821Y-109334284D01*
X170082467Y-109498216D01*
X170187026Y-109614340D01*
X170209129Y-109638888D01*
X170362265Y-109750148D01*
X170362270Y-109750151D01*
X170535192Y-109827142D01*
X170535197Y-109827144D01*
X170720354Y-109866500D01*
X170720355Y-109866500D01*
X170909644Y-109866500D01*
X170909646Y-109866500D01*
X171094803Y-109827144D01*
X171267730Y-109750151D01*
X171420871Y-109638888D01*
X171547533Y-109498216D01*
X171642179Y-109334284D01*
X171700674Y-109154256D01*
X171720460Y-108966000D01*
X171707112Y-108839000D01*
X172322540Y-108839000D01*
X172342326Y-109027256D01*
X172342327Y-109027259D01*
X172400818Y-109207277D01*
X172400821Y-109207284D01*
X172495467Y-109371216D01*
X172553899Y-109436111D01*
X172622129Y-109511888D01*
X172775265Y-109623148D01*
X172775270Y-109623151D01*
X172948192Y-109700142D01*
X172948197Y-109700144D01*
X173133354Y-109739500D01*
X173133355Y-109739500D01*
X173322644Y-109739500D01*
X173322646Y-109739500D01*
X173507803Y-109700144D01*
X173680730Y-109623151D01*
X173833871Y-109511888D01*
X173960533Y-109371216D01*
X174055179Y-109207284D01*
X174113674Y-109027256D01*
X174133460Y-108839000D01*
X174113674Y-108650744D01*
X174055179Y-108470716D01*
X173960533Y-108306784D01*
X173833871Y-108166112D01*
X173815886Y-108153045D01*
X173680734Y-108054851D01*
X173680729Y-108054848D01*
X173507807Y-107977857D01*
X173507802Y-107977855D01*
X173362001Y-107946865D01*
X173322646Y-107938500D01*
X173133354Y-107938500D01*
X173100897Y-107945398D01*
X172948197Y-107977855D01*
X172948192Y-107977857D01*
X172775270Y-108054848D01*
X172775265Y-108054851D01*
X172622129Y-108166111D01*
X172495466Y-108306785D01*
X172400821Y-108470715D01*
X172400818Y-108470722D01*
X172342327Y-108650740D01*
X172342326Y-108650744D01*
X172322540Y-108839000D01*
X171707112Y-108839000D01*
X171700674Y-108777744D01*
X171642179Y-108597716D01*
X171547533Y-108433784D01*
X171420871Y-108293112D01*
X171420870Y-108293111D01*
X171267734Y-108181851D01*
X171267729Y-108181848D01*
X171094807Y-108104857D01*
X171094802Y-108104855D01*
X170949001Y-108073865D01*
X170909646Y-108065500D01*
X170720354Y-108065500D01*
X170687897Y-108072398D01*
X170535197Y-108104855D01*
X170535192Y-108104857D01*
X170362270Y-108181848D01*
X170362265Y-108181851D01*
X170209129Y-108293111D01*
X170082466Y-108433785D01*
X169987821Y-108597715D01*
X169987818Y-108597722D01*
X169941636Y-108739857D01*
X169929326Y-108777744D01*
X169909540Y-108966000D01*
X139300500Y-108966000D01*
X139300500Y-107061000D01*
X187943540Y-107061000D01*
X187963326Y-107249256D01*
X187963327Y-107249259D01*
X188021818Y-107429277D01*
X188021821Y-107429284D01*
X188116467Y-107593216D01*
X188149950Y-107630402D01*
X188243129Y-107733888D01*
X188396265Y-107845148D01*
X188396270Y-107845151D01*
X188569192Y-107922142D01*
X188569197Y-107922144D01*
X188754354Y-107961500D01*
X188754355Y-107961500D01*
X188943644Y-107961500D01*
X188943646Y-107961500D01*
X189128803Y-107922144D01*
X189301730Y-107845151D01*
X189454871Y-107733888D01*
X189581533Y-107593216D01*
X189676179Y-107429284D01*
X189676182Y-107429275D01*
X189683569Y-107406541D01*
X189723006Y-107348865D01*
X189787364Y-107321666D01*
X189856210Y-107333580D01*
X189907687Y-107380824D01*
X189919431Y-107406541D01*
X189926817Y-107429275D01*
X189926821Y-107429284D01*
X190021467Y-107593216D01*
X190054950Y-107630402D01*
X190148129Y-107733888D01*
X190301265Y-107845148D01*
X190301270Y-107845151D01*
X190474192Y-107922142D01*
X190474197Y-107922144D01*
X190659354Y-107961500D01*
X190659355Y-107961500D01*
X190848644Y-107961500D01*
X190848646Y-107961500D01*
X191033803Y-107922144D01*
X191206730Y-107845151D01*
X191359871Y-107733888D01*
X191486533Y-107593216D01*
X191581179Y-107429284D01*
X191639674Y-107249256D01*
X191659460Y-107061000D01*
X191639674Y-106872744D01*
X191581179Y-106692716D01*
X191573837Y-106680000D01*
X192769540Y-106680000D01*
X192789326Y-106868256D01*
X192789327Y-106868259D01*
X192847818Y-107048277D01*
X192847821Y-107048284D01*
X192942467Y-107212216D01*
X192975821Y-107249259D01*
X193069129Y-107352888D01*
X193222265Y-107464148D01*
X193222270Y-107464151D01*
X193395192Y-107541142D01*
X193395197Y-107541144D01*
X193580354Y-107580500D01*
X193580355Y-107580500D01*
X193769644Y-107580500D01*
X193769646Y-107580500D01*
X193954803Y-107541144D01*
X194127730Y-107464151D01*
X194280871Y-107352888D01*
X194407533Y-107212216D01*
X194502179Y-107048284D01*
X194560674Y-106868256D01*
X194580460Y-106680000D01*
X194560674Y-106491744D01*
X194502179Y-106311716D01*
X194407533Y-106147784D01*
X194280871Y-106007112D01*
X194280870Y-106007111D01*
X194127734Y-105895851D01*
X194127729Y-105895848D01*
X193954807Y-105818857D01*
X193954802Y-105818855D01*
X193791513Y-105784148D01*
X193769646Y-105779500D01*
X193580354Y-105779500D01*
X193558487Y-105784148D01*
X193395197Y-105818855D01*
X193395192Y-105818857D01*
X193222270Y-105895848D01*
X193222265Y-105895851D01*
X193069129Y-106007111D01*
X192942466Y-106147785D01*
X192847821Y-106311715D01*
X192847818Y-106311722D01*
X192822998Y-106388112D01*
X192789326Y-106491744D01*
X192769540Y-106680000D01*
X191573837Y-106680000D01*
X191486533Y-106528784D01*
X191359871Y-106388112D01*
X191359870Y-106388111D01*
X191206734Y-106276851D01*
X191206729Y-106276848D01*
X191033807Y-106199857D01*
X191033802Y-106199855D01*
X190872875Y-106165650D01*
X190848646Y-106160500D01*
X190659354Y-106160500D01*
X190635125Y-106165650D01*
X190474197Y-106199855D01*
X190474192Y-106199857D01*
X190301270Y-106276848D01*
X190301265Y-106276851D01*
X190148129Y-106388111D01*
X190021466Y-106528785D01*
X189926821Y-106692715D01*
X189926818Y-106692722D01*
X189919431Y-106715459D01*
X189879993Y-106773135D01*
X189815635Y-106800333D01*
X189746789Y-106788418D01*
X189695313Y-106741174D01*
X189683569Y-106715459D01*
X189676181Y-106692722D01*
X189676180Y-106692721D01*
X189676179Y-106692716D01*
X189581533Y-106528784D01*
X189454871Y-106388112D01*
X189454870Y-106388111D01*
X189301734Y-106276851D01*
X189301729Y-106276848D01*
X189128807Y-106199857D01*
X189128802Y-106199855D01*
X188967875Y-106165650D01*
X188943646Y-106160500D01*
X188754354Y-106160500D01*
X188730125Y-106165650D01*
X188569197Y-106199855D01*
X188569192Y-106199857D01*
X188396270Y-106276848D01*
X188396265Y-106276851D01*
X188243129Y-106388111D01*
X188116466Y-106528785D01*
X188021821Y-106692715D01*
X188021818Y-106692722D01*
X187983304Y-106811257D01*
X187963326Y-106872744D01*
X187943540Y-107061000D01*
X139300500Y-107061000D01*
X139300500Y-104267001D01*
X142169437Y-104267001D01*
X142189650Y-104498044D01*
X142189651Y-104498051D01*
X142249678Y-104722074D01*
X142249679Y-104722076D01*
X142249680Y-104722079D01*
X142347699Y-104932282D01*
X142480730Y-105122269D01*
X142644731Y-105286270D01*
X142834718Y-105419301D01*
X143044921Y-105517320D01*
X143268950Y-105577349D01*
X143433985Y-105591787D01*
X143499998Y-105597563D01*
X143500000Y-105597563D01*
X143500002Y-105597563D01*
X143557762Y-105592509D01*
X143731050Y-105577349D01*
X143955079Y-105517320D01*
X144165282Y-105419301D01*
X144355269Y-105286270D01*
X144519270Y-105122269D01*
X144532482Y-105103401D01*
X160037746Y-105103401D01*
X160047745Y-105313327D01*
X160097296Y-105517578D01*
X160097298Y-105517582D01*
X160184598Y-105708743D01*
X160184601Y-105708748D01*
X160184602Y-105708750D01*
X160184604Y-105708753D01*
X160300398Y-105871363D01*
X160306515Y-105879953D01*
X160306520Y-105879959D01*
X160458620Y-106024985D01*
X160553578Y-106086011D01*
X160635428Y-106138613D01*
X160830543Y-106216725D01*
X160933729Y-106236612D01*
X161036914Y-106256500D01*
X161036915Y-106256500D01*
X161744419Y-106256500D01*
X161744425Y-106256500D01*
X161901218Y-106241528D01*
X162102875Y-106182316D01*
X162289682Y-106086011D01*
X162454886Y-105956092D01*
X162592519Y-105797256D01*
X162598441Y-105787000D01*
X162697601Y-105615249D01*
X162697600Y-105615249D01*
X162697604Y-105615244D01*
X162766344Y-105416633D01*
X162796254Y-105208602D01*
X162786254Y-104998670D01*
X162736704Y-104794424D01*
X162705669Y-104726467D01*
X162649401Y-104603256D01*
X162649398Y-104603251D01*
X162649397Y-104603250D01*
X162649396Y-104603247D01*
X162527486Y-104432048D01*
X162527484Y-104432046D01*
X162527479Y-104432040D01*
X162375379Y-104287014D01*
X162334057Y-104260458D01*
X162288302Y-104207654D01*
X162278359Y-104138496D01*
X162307384Y-104074940D01*
X162324445Y-104058673D01*
X162330922Y-104053579D01*
X192175119Y-104053579D01*
X192194905Y-104241835D01*
X192194906Y-104241838D01*
X192253397Y-104421856D01*
X192253400Y-104421863D01*
X192348046Y-104585795D01*
X192394602Y-104637500D01*
X192474708Y-104726467D01*
X192627844Y-104837727D01*
X192627849Y-104837730D01*
X192800771Y-104914721D01*
X192800776Y-104914723D01*
X192985933Y-104954079D01*
X192985934Y-104954079D01*
X193175223Y-104954079D01*
X193175225Y-104954079D01*
X193360382Y-104914723D01*
X193533309Y-104837730D01*
X193686450Y-104726467D01*
X193813112Y-104585795D01*
X193907758Y-104421863D01*
X193966253Y-104241835D01*
X193986039Y-104053579D01*
X193966253Y-103865323D01*
X193907758Y-103685295D01*
X193813112Y-103521363D01*
X193779831Y-103484401D01*
X207662746Y-103484401D01*
X207672745Y-103694327D01*
X207722296Y-103898578D01*
X207722298Y-103898582D01*
X207809598Y-104089743D01*
X207809601Y-104089748D01*
X207809602Y-104089750D01*
X207809604Y-104089753D01*
X207931514Y-104260952D01*
X207931515Y-104260953D01*
X208034456Y-104359107D01*
X208069391Y-104419616D01*
X208066066Y-104489406D01*
X208025538Y-104546321D01*
X208013983Y-104554388D01*
X207948659Y-104594680D01*
X207948655Y-104594683D01*
X207824684Y-104718654D01*
X207732643Y-104867875D01*
X207732641Y-104867880D01*
X207677494Y-105034302D01*
X207677493Y-105034309D01*
X207667000Y-105137013D01*
X207667000Y-105287000D01*
X208762440Y-105287000D01*
X208723722Y-105329059D01*
X208673449Y-105443670D01*
X208663114Y-105568395D01*
X208693837Y-105689719D01*
X208757394Y-105787000D01*
X207667001Y-105787000D01*
X207667001Y-105936986D01*
X207677494Y-106039697D01*
X207732641Y-106206119D01*
X207732643Y-106206124D01*
X207824684Y-106355345D01*
X207948654Y-106479315D01*
X208097875Y-106571356D01*
X208097880Y-106571358D01*
X208264302Y-106626505D01*
X208264309Y-106626506D01*
X208367019Y-106636999D01*
X208791999Y-106636999D01*
X208792000Y-106636998D01*
X208792000Y-105817617D01*
X208861052Y-105871363D01*
X208979424Y-105912000D01*
X209073073Y-105912000D01*
X209165446Y-105896586D01*
X209275514Y-105837019D01*
X209292000Y-105819110D01*
X209292000Y-106636999D01*
X209716972Y-106636999D01*
X209716986Y-106636998D01*
X209819697Y-106626505D01*
X209986119Y-106571358D01*
X209986124Y-106571356D01*
X210135345Y-106479315D01*
X210259315Y-106355345D01*
X210351356Y-106206124D01*
X210351358Y-106206119D01*
X210406505Y-106039697D01*
X210406506Y-106039690D01*
X210416999Y-105936986D01*
X210417000Y-105936973D01*
X210417000Y-105787000D01*
X209321560Y-105787000D01*
X209360278Y-105744941D01*
X209410551Y-105630330D01*
X209420886Y-105505605D01*
X209390163Y-105384281D01*
X209326606Y-105287000D01*
X210416999Y-105287000D01*
X210416999Y-105137028D01*
X210416998Y-105137013D01*
X210406505Y-105034302D01*
X210395138Y-105000000D01*
X213094540Y-105000000D01*
X213114326Y-105188256D01*
X213114327Y-105188259D01*
X213172818Y-105368277D01*
X213172821Y-105368284D01*
X213267467Y-105532216D01*
X213370370Y-105646501D01*
X213394129Y-105672888D01*
X213547265Y-105784148D01*
X213547270Y-105784151D01*
X213720192Y-105861142D01*
X213720197Y-105861144D01*
X213905354Y-105900500D01*
X213905355Y-105900500D01*
X214094644Y-105900500D01*
X214094646Y-105900500D01*
X214279803Y-105861144D01*
X214452730Y-105784151D01*
X214605871Y-105672888D01*
X214732533Y-105532216D01*
X214827179Y-105368284D01*
X214885674Y-105188256D01*
X214905460Y-105000000D01*
X214885674Y-104811744D01*
X214879584Y-104793000D01*
X225155172Y-104793000D01*
X225174462Y-105087312D01*
X225174464Y-105087324D01*
X225232001Y-105376584D01*
X225232005Y-105376599D01*
X225326812Y-105655888D01*
X225457258Y-105920406D01*
X225457265Y-105920419D01*
X225621122Y-106165648D01*
X225650406Y-106199039D01*
X226439438Y-105410007D01*
X226488348Y-105488999D01*
X226631931Y-105646501D01*
X226790388Y-105766163D01*
X226003959Y-106552592D01*
X226003959Y-106552593D01*
X226037344Y-106581872D01*
X226037348Y-106581875D01*
X226282580Y-106745734D01*
X226282593Y-106745741D01*
X226547111Y-106876187D01*
X226826400Y-106970994D01*
X226826415Y-106970998D01*
X227115675Y-107028535D01*
X227115687Y-107028537D01*
X227410000Y-107047827D01*
X227704312Y-107028537D01*
X227704324Y-107028535D01*
X227993584Y-106970998D01*
X227993599Y-106970994D01*
X228272888Y-106876187D01*
X228537406Y-106745741D01*
X228537419Y-106745734D01*
X228782650Y-106581877D01*
X228816039Y-106552593D01*
X228816040Y-106552592D01*
X228029611Y-105766163D01*
X228188069Y-105646501D01*
X228331652Y-105488999D01*
X228380560Y-105410008D01*
X229169592Y-106199040D01*
X229169593Y-106199039D01*
X229198877Y-106165650D01*
X229362734Y-105920419D01*
X229362741Y-105920406D01*
X229493187Y-105655888D01*
X229587994Y-105376599D01*
X229587998Y-105376584D01*
X229645535Y-105087324D01*
X229645537Y-105087312D01*
X229664827Y-104793000D01*
X229645537Y-104498687D01*
X229645535Y-104498675D01*
X229587998Y-104209415D01*
X229587994Y-104209400D01*
X229493187Y-103930111D01*
X229362741Y-103665593D01*
X229362734Y-103665580D01*
X229198875Y-103420348D01*
X229198872Y-103420344D01*
X229169593Y-103386959D01*
X229169592Y-103386959D01*
X228380560Y-104175991D01*
X228331652Y-104097001D01*
X228188069Y-103939499D01*
X228029610Y-103819835D01*
X228816039Y-103033406D01*
X228782648Y-103004122D01*
X228537419Y-102840265D01*
X228537406Y-102840258D01*
X228272888Y-102709812D01*
X227993599Y-102615005D01*
X227993584Y-102615001D01*
X227704324Y-102557464D01*
X227704312Y-102557462D01*
X227410000Y-102538172D01*
X227115687Y-102557462D01*
X227115675Y-102557464D01*
X226826415Y-102615001D01*
X226826400Y-102615005D01*
X226547111Y-102709812D01*
X226282593Y-102840258D01*
X226282580Y-102840265D01*
X226037350Y-103004123D01*
X226003958Y-103033406D01*
X226790388Y-103819836D01*
X226631931Y-103939499D01*
X226488348Y-104097001D01*
X226439439Y-104175991D01*
X225650406Y-103386958D01*
X225621123Y-103420350D01*
X225457265Y-103665580D01*
X225457258Y-103665593D01*
X225326812Y-103930111D01*
X225232005Y-104209400D01*
X225232001Y-104209415D01*
X225174464Y-104498675D01*
X225174462Y-104498687D01*
X225155172Y-104793000D01*
X214879584Y-104793000D01*
X214827179Y-104631716D01*
X214732533Y-104467784D01*
X214605871Y-104327112D01*
X214550681Y-104287014D01*
X214452734Y-104215851D01*
X214452729Y-104215848D01*
X214279807Y-104138857D01*
X214279802Y-104138855D01*
X214117435Y-104104344D01*
X214094646Y-104099500D01*
X213905354Y-104099500D01*
X213882565Y-104104344D01*
X213720197Y-104138855D01*
X213720192Y-104138857D01*
X213547270Y-104215848D01*
X213547265Y-104215851D01*
X213394129Y-104327111D01*
X213267466Y-104467785D01*
X213172821Y-104631715D01*
X213172818Y-104631722D01*
X213114327Y-104811740D01*
X213114326Y-104811744D01*
X213094540Y-105000000D01*
X210395138Y-105000000D01*
X210351358Y-104867880D01*
X210351356Y-104867875D01*
X210259315Y-104718654D01*
X210135344Y-104594683D01*
X210135340Y-104594680D01*
X210071841Y-104555513D01*
X210025116Y-104503565D01*
X210013895Y-104434603D01*
X210041738Y-104370521D01*
X210060289Y-104352503D01*
X210079882Y-104337095D01*
X210079881Y-104337095D01*
X210079886Y-104337092D01*
X210217519Y-104178256D01*
X210230211Y-104156274D01*
X210322601Y-103996249D01*
X210322600Y-103996249D01*
X210322604Y-103996244D01*
X210391344Y-103797633D01*
X210421254Y-103589602D01*
X210411254Y-103379670D01*
X210361704Y-103175424D01*
X210361701Y-103175417D01*
X210274401Y-102984256D01*
X210274398Y-102984251D01*
X210274397Y-102984250D01*
X210274396Y-102984247D01*
X210152486Y-102813048D01*
X210152484Y-102813046D01*
X210152479Y-102813040D01*
X210000379Y-102668014D01*
X209959057Y-102641458D01*
X209913302Y-102588654D01*
X209903359Y-102519496D01*
X209932384Y-102455940D01*
X209949445Y-102439673D01*
X210032036Y-102374722D01*
X210079886Y-102337092D01*
X210217519Y-102178256D01*
X210230211Y-102156274D01*
X210322601Y-101996249D01*
X210322600Y-101996249D01*
X210322604Y-101996244D01*
X210391344Y-101797633D01*
X210421254Y-101589602D01*
X210411254Y-101379670D01*
X210361704Y-101175424D01*
X210361701Y-101175417D01*
X210274401Y-100984256D01*
X210274398Y-100984251D01*
X210274397Y-100984250D01*
X210274396Y-100984247D01*
X210152486Y-100813048D01*
X210152484Y-100813046D01*
X210152479Y-100813040D01*
X210000379Y-100668014D01*
X209959057Y-100641458D01*
X209913302Y-100588654D01*
X209903359Y-100519496D01*
X209932384Y-100455940D01*
X209949445Y-100439673D01*
X210055958Y-100355909D01*
X210079886Y-100337092D01*
X210217519Y-100178256D01*
X210230211Y-100156274D01*
X210322601Y-99996249D01*
X210322600Y-99996249D01*
X210322604Y-99996244D01*
X210391344Y-99797633D01*
X210421254Y-99589602D01*
X210411254Y-99379670D01*
X210361704Y-99175424D01*
X210336001Y-99119142D01*
X210274401Y-98984256D01*
X210274398Y-98984251D01*
X210274397Y-98984250D01*
X210274396Y-98984247D01*
X210152486Y-98813048D01*
X210152484Y-98813046D01*
X210152479Y-98813040D01*
X210000379Y-98668014D01*
X209823574Y-98554388D01*
X209628455Y-98476274D01*
X209422086Y-98436500D01*
X209422085Y-98436500D01*
X208714575Y-98436500D01*
X208557782Y-98451472D01*
X208557778Y-98451473D01*
X208356127Y-98510683D01*
X208169313Y-98606991D01*
X208004116Y-98736905D01*
X208004112Y-98736909D01*
X207866478Y-98895746D01*
X207761398Y-99077750D01*
X207692656Y-99276365D01*
X207692656Y-99276367D01*
X207668783Y-99442415D01*
X207662746Y-99484401D01*
X207672745Y-99694327D01*
X207722296Y-99898578D01*
X207722298Y-99898582D01*
X207809598Y-100089743D01*
X207809601Y-100089748D01*
X207809602Y-100089750D01*
X207809604Y-100089753D01*
X207931514Y-100260952D01*
X207931515Y-100260953D01*
X207931520Y-100260959D01*
X208083619Y-100405984D01*
X208124941Y-100432540D01*
X208170696Y-100485344D01*
X208180640Y-100554503D01*
X208151615Y-100618059D01*
X208134555Y-100634326D01*
X208004112Y-100736909D01*
X207866478Y-100895746D01*
X207761398Y-101077750D01*
X207692656Y-101276365D01*
X207692656Y-101276367D01*
X207669337Y-101438561D01*
X207662746Y-101484401D01*
X207672745Y-101694327D01*
X207722296Y-101898578D01*
X207722298Y-101898582D01*
X207809598Y-102089743D01*
X207809601Y-102089748D01*
X207809602Y-102089750D01*
X207809604Y-102089753D01*
X207931514Y-102260952D01*
X207931515Y-102260953D01*
X207931520Y-102260959D01*
X208083619Y-102405984D01*
X208124941Y-102432540D01*
X208170696Y-102485344D01*
X208180640Y-102554503D01*
X208151615Y-102618059D01*
X208134555Y-102634326D01*
X208004112Y-102736909D01*
X207866478Y-102895746D01*
X207761398Y-103077750D01*
X207692656Y-103276365D01*
X207692656Y-103276367D01*
X207671956Y-103420344D01*
X207662746Y-103484401D01*
X193779831Y-103484401D01*
X193686450Y-103380691D01*
X193686449Y-103380690D01*
X193533313Y-103269430D01*
X193533308Y-103269427D01*
X193360386Y-103192436D01*
X193360381Y-103192434D01*
X193214580Y-103161444D01*
X193175225Y-103153079D01*
X192985933Y-103153079D01*
X192953476Y-103159977D01*
X192800776Y-103192434D01*
X192800771Y-103192436D01*
X192627849Y-103269427D01*
X192627844Y-103269430D01*
X192474708Y-103380690D01*
X192348045Y-103521364D01*
X192253400Y-103685294D01*
X192253397Y-103685301D01*
X192212256Y-103811921D01*
X192194905Y-103865323D01*
X192175119Y-104053579D01*
X162330922Y-104053579D01*
X162367283Y-104024984D01*
X162454886Y-103956092D01*
X162592519Y-103797256D01*
X162622617Y-103745126D01*
X162697601Y-103615249D01*
X162697600Y-103615249D01*
X162697604Y-103615244D01*
X162766344Y-103416633D01*
X162796254Y-103208602D01*
X162786254Y-102998670D01*
X162748883Y-102844626D01*
X174140378Y-102844626D01*
X174160164Y-103032882D01*
X174160165Y-103032885D01*
X174218656Y-103212903D01*
X174218659Y-103212910D01*
X174313305Y-103376842D01*
X174352480Y-103420350D01*
X174439967Y-103517514D01*
X174593103Y-103628774D01*
X174593108Y-103628777D01*
X174766030Y-103705768D01*
X174766035Y-103705770D01*
X174951192Y-103745126D01*
X174951193Y-103745126D01*
X175140482Y-103745126D01*
X175140484Y-103745126D01*
X175325641Y-103705770D01*
X175498568Y-103628777D01*
X175651709Y-103517514D01*
X175778371Y-103376842D01*
X175873017Y-103212910D01*
X175931512Y-103032882D01*
X175951298Y-102844626D01*
X175931512Y-102656370D01*
X175873017Y-102476342D01*
X175778371Y-102312410D01*
X175651709Y-102171738D01*
X175629669Y-102155725D01*
X175498572Y-102060477D01*
X175498570Y-102060476D01*
X175494520Y-102058673D01*
X175478340Y-102051468D01*
X175344289Y-101991784D01*
X175291053Y-101946533D01*
X175270732Y-101879684D01*
X175289778Y-101812460D01*
X175342144Y-101766206D01*
X175344177Y-101765276D01*
X175512136Y-101690496D01*
X175665277Y-101579233D01*
X175791939Y-101438561D01*
X175886585Y-101274629D01*
X175945080Y-101094601D01*
X175964866Y-100906345D01*
X175945080Y-100718089D01*
X175886585Y-100538061D01*
X175791939Y-100374129D01*
X175665277Y-100233457D01*
X175665276Y-100233456D01*
X175512140Y-100122196D01*
X175512135Y-100122193D01*
X175339213Y-100045202D01*
X175339208Y-100045200D01*
X175193407Y-100014210D01*
X175154052Y-100005845D01*
X174964760Y-100005845D01*
X174932303Y-100012743D01*
X174779603Y-100045200D01*
X174779598Y-100045202D01*
X174606676Y-100122193D01*
X174606671Y-100122196D01*
X174453535Y-100233456D01*
X174326872Y-100374130D01*
X174232227Y-100538060D01*
X174232224Y-100538067D01*
X174173733Y-100718085D01*
X174173732Y-100718089D01*
X174153946Y-100906345D01*
X174173732Y-101094601D01*
X174173733Y-101094604D01*
X174232224Y-101274622D01*
X174232227Y-101274629D01*
X174326873Y-101438561D01*
X174398024Y-101517582D01*
X174453535Y-101579233D01*
X174606671Y-101690493D01*
X174606676Y-101690496D01*
X174760953Y-101759186D01*
X174814190Y-101804436D01*
X174834511Y-101871286D01*
X174815465Y-101938509D01*
X174763099Y-101984764D01*
X174760953Y-101985744D01*
X174593108Y-102060474D01*
X174593103Y-102060477D01*
X174439967Y-102171737D01*
X174313304Y-102312411D01*
X174218659Y-102476341D01*
X174218656Y-102476348D01*
X174165009Y-102641458D01*
X174160164Y-102656370D01*
X174140378Y-102844626D01*
X162748883Y-102844626D01*
X162736704Y-102794424D01*
X162714713Y-102746270D01*
X162649401Y-102603256D01*
X162649398Y-102603251D01*
X162649397Y-102603250D01*
X162649396Y-102603247D01*
X162527486Y-102432048D01*
X162527484Y-102432046D01*
X162527479Y-102432040D01*
X162375379Y-102287014D01*
X162334057Y-102260458D01*
X162288302Y-102207654D01*
X162278359Y-102138496D01*
X162307384Y-102074940D01*
X162324445Y-102058673D01*
X162367283Y-102024984D01*
X162454886Y-101956092D01*
X162592519Y-101797256D01*
X162633082Y-101727000D01*
X162697601Y-101615249D01*
X162697600Y-101615249D01*
X162697604Y-101615244D01*
X162766344Y-101416633D01*
X162796254Y-101208602D01*
X162786254Y-100998670D01*
X162736704Y-100794424D01*
X162710438Y-100736909D01*
X162649401Y-100603256D01*
X162649398Y-100603251D01*
X162649397Y-100603250D01*
X162649396Y-100603247D01*
X162527486Y-100432048D01*
X162527484Y-100432046D01*
X162527479Y-100432040D01*
X162375379Y-100287014D01*
X162334057Y-100260458D01*
X162288302Y-100207654D01*
X162278359Y-100138496D01*
X162307384Y-100074940D01*
X162324445Y-100058673D01*
X162391620Y-100005845D01*
X162454886Y-99956092D01*
X162592519Y-99797256D01*
X162697604Y-99615244D01*
X162766344Y-99416633D01*
X162781100Y-99314000D01*
X186292540Y-99314000D01*
X186312326Y-99502256D01*
X186312327Y-99502259D01*
X186370818Y-99682277D01*
X186370821Y-99682284D01*
X186465467Y-99846216D01*
X186512618Y-99898582D01*
X186592129Y-99986888D01*
X186745265Y-100098148D01*
X186745270Y-100098151D01*
X186918192Y-100175142D01*
X186918197Y-100175144D01*
X187103354Y-100214500D01*
X187103355Y-100214500D01*
X187292644Y-100214500D01*
X187292646Y-100214500D01*
X187477803Y-100175144D01*
X187650730Y-100098151D01*
X187803871Y-99986888D01*
X187930533Y-99846216D01*
X188025179Y-99682284D01*
X188083674Y-99502256D01*
X188103460Y-99314000D01*
X188083674Y-99125744D01*
X188025179Y-98945716D01*
X187930533Y-98781784D01*
X187803871Y-98641112D01*
X187803870Y-98641111D01*
X187650734Y-98529851D01*
X187650729Y-98529848D01*
X187477807Y-98452857D01*
X187477802Y-98452855D01*
X187332001Y-98421865D01*
X187292646Y-98413500D01*
X187103354Y-98413500D01*
X187070897Y-98420398D01*
X186918197Y-98452855D01*
X186918192Y-98452857D01*
X186745270Y-98529848D01*
X186745265Y-98529851D01*
X186592129Y-98641111D01*
X186465466Y-98781785D01*
X186370821Y-98945715D01*
X186370818Y-98945722D01*
X186314471Y-99119142D01*
X186312326Y-99125744D01*
X186292540Y-99314000D01*
X162781100Y-99314000D01*
X162796254Y-99208602D01*
X162786254Y-98998670D01*
X162736704Y-98794424D01*
X162734782Y-98790216D01*
X162649401Y-98603256D01*
X162649398Y-98603251D01*
X162649397Y-98603250D01*
X162649396Y-98603247D01*
X162527486Y-98432048D01*
X162527484Y-98432046D01*
X162527479Y-98432040D01*
X162375379Y-98287014D01*
X162334057Y-98260458D01*
X162331927Y-98258000D01*
X169869540Y-98258000D01*
X169889326Y-98446256D01*
X169889327Y-98446259D01*
X169947818Y-98626277D01*
X169947821Y-98626284D01*
X170042467Y-98790216D01*
X170137144Y-98895365D01*
X170169129Y-98930888D01*
X170322265Y-99042148D01*
X170322270Y-99042151D01*
X170495192Y-99119142D01*
X170495197Y-99119144D01*
X170680354Y-99158500D01*
X170680355Y-99158500D01*
X170869644Y-99158500D01*
X170869646Y-99158500D01*
X171054803Y-99119144D01*
X171227730Y-99042151D01*
X171380871Y-98930888D01*
X171507533Y-98790216D01*
X171602179Y-98626284D01*
X171660674Y-98446256D01*
X171680460Y-98258000D01*
X171671316Y-98171000D01*
X178926540Y-98171000D01*
X178946326Y-98359256D01*
X178946327Y-98359259D01*
X179004818Y-98539277D01*
X179004821Y-98539284D01*
X179099467Y-98703216D01*
X179226129Y-98843888D01*
X179379265Y-98955148D01*
X179379270Y-98955151D01*
X179552192Y-99032142D01*
X179552197Y-99032144D01*
X179737354Y-99071500D01*
X179737355Y-99071500D01*
X179926644Y-99071500D01*
X179926646Y-99071500D01*
X180111803Y-99032144D01*
X180284730Y-98955151D01*
X180437871Y-98843888D01*
X180564533Y-98703216D01*
X180659179Y-98539284D01*
X180717674Y-98359256D01*
X180737460Y-98171000D01*
X181914540Y-98171000D01*
X181934326Y-98359256D01*
X181934327Y-98359259D01*
X181992818Y-98539277D01*
X181992821Y-98539284D01*
X182087467Y-98703216D01*
X182214129Y-98843888D01*
X182367265Y-98955148D01*
X182367270Y-98955151D01*
X182540192Y-99032142D01*
X182540197Y-99032144D01*
X182725354Y-99071500D01*
X182725355Y-99071500D01*
X182914644Y-99071500D01*
X182914646Y-99071500D01*
X183099803Y-99032144D01*
X183272730Y-98955151D01*
X183425871Y-98843888D01*
X183552533Y-98703216D01*
X183647179Y-98539284D01*
X183705674Y-98359256D01*
X183725460Y-98171000D01*
X183705674Y-97982744D01*
X183647179Y-97802716D01*
X183552533Y-97638784D01*
X183425871Y-97498112D01*
X183425870Y-97498111D01*
X183272734Y-97386851D01*
X183272729Y-97386848D01*
X183099807Y-97309857D01*
X183099802Y-97309855D01*
X182954001Y-97278865D01*
X182914646Y-97270500D01*
X182725354Y-97270500D01*
X182692897Y-97277398D01*
X182540197Y-97309855D01*
X182540192Y-97309857D01*
X182367270Y-97386848D01*
X182367265Y-97386851D01*
X182214129Y-97498111D01*
X182087466Y-97638785D01*
X181992821Y-97802715D01*
X181992818Y-97802722D01*
X181942985Y-97956094D01*
X181934326Y-97982744D01*
X181914540Y-98171000D01*
X180737460Y-98171000D01*
X180717674Y-97982744D01*
X180659179Y-97802716D01*
X180564533Y-97638784D01*
X180437871Y-97498112D01*
X180437870Y-97498111D01*
X180284734Y-97386851D01*
X180284729Y-97386848D01*
X180111807Y-97309857D01*
X180111802Y-97309855D01*
X179966001Y-97278865D01*
X179926646Y-97270500D01*
X179737354Y-97270500D01*
X179704897Y-97277398D01*
X179552197Y-97309855D01*
X179552192Y-97309857D01*
X179379270Y-97386848D01*
X179379265Y-97386851D01*
X179226129Y-97498111D01*
X179099466Y-97638785D01*
X179004821Y-97802715D01*
X179004818Y-97802722D01*
X178954985Y-97956094D01*
X178946326Y-97982744D01*
X178926540Y-98171000D01*
X171671316Y-98171000D01*
X171660674Y-98069744D01*
X171602179Y-97889716D01*
X171507533Y-97725784D01*
X171380871Y-97585112D01*
X171380870Y-97585111D01*
X171227734Y-97473851D01*
X171227729Y-97473848D01*
X171054807Y-97396857D01*
X171054802Y-97396855D01*
X170909001Y-97365865D01*
X170869646Y-97357500D01*
X170680354Y-97357500D01*
X170647897Y-97364398D01*
X170495197Y-97396855D01*
X170495192Y-97396857D01*
X170322270Y-97473848D01*
X170322265Y-97473851D01*
X170169129Y-97585111D01*
X170042466Y-97725785D01*
X169947821Y-97889715D01*
X169947818Y-97889722D01*
X169892923Y-98058673D01*
X169889326Y-98069744D01*
X169869540Y-98258000D01*
X162331927Y-98258000D01*
X162288302Y-98207654D01*
X162278359Y-98138496D01*
X162307384Y-98074940D01*
X162324445Y-98058673D01*
X162392938Y-98004809D01*
X162454886Y-97956092D01*
X162592519Y-97797256D01*
X162697604Y-97615244D01*
X162766344Y-97416633D01*
X162796254Y-97208602D01*
X162786254Y-96998670D01*
X162762559Y-96901000D01*
X189721540Y-96901000D01*
X189741326Y-97089256D01*
X189741327Y-97089259D01*
X189799818Y-97269277D01*
X189799821Y-97269284D01*
X189894467Y-97433216D01*
X189970427Y-97517578D01*
X190021129Y-97573888D01*
X190174265Y-97685148D01*
X190174270Y-97685151D01*
X190347192Y-97762142D01*
X190347197Y-97762144D01*
X190532354Y-97801500D01*
X190532355Y-97801500D01*
X190721644Y-97801500D01*
X190721646Y-97801500D01*
X190906803Y-97762144D01*
X191079730Y-97685151D01*
X191232871Y-97573888D01*
X191359533Y-97433216D01*
X191454179Y-97269284D01*
X191512674Y-97089256D01*
X191532460Y-96901000D01*
X191512674Y-96712744D01*
X191491312Y-96647000D01*
X213094540Y-96647000D01*
X213114326Y-96835256D01*
X213114327Y-96835259D01*
X213172818Y-97015277D01*
X213172821Y-97015284D01*
X213267467Y-97179216D01*
X213348559Y-97269277D01*
X213394129Y-97319888D01*
X213547265Y-97431148D01*
X213547270Y-97431151D01*
X213720192Y-97508142D01*
X213720197Y-97508144D01*
X213905354Y-97547500D01*
X213905355Y-97547500D01*
X214094644Y-97547500D01*
X214094646Y-97547500D01*
X214279803Y-97508144D01*
X214452730Y-97431151D01*
X214605871Y-97319888D01*
X214732533Y-97179216D01*
X214827179Y-97015284D01*
X214885674Y-96835256D01*
X214905460Y-96647000D01*
X214885674Y-96458744D01*
X214827179Y-96278716D01*
X214732533Y-96114784D01*
X214605871Y-95974112D01*
X214605870Y-95974111D01*
X214452734Y-95862851D01*
X214452729Y-95862848D01*
X214279807Y-95785857D01*
X214279802Y-95785855D01*
X214134001Y-95754865D01*
X214094646Y-95746500D01*
X213905354Y-95746500D01*
X213872897Y-95753398D01*
X213720197Y-95785855D01*
X213720192Y-95785857D01*
X213547270Y-95862848D01*
X213547265Y-95862851D01*
X213394129Y-95974111D01*
X213267466Y-96114785D01*
X213172821Y-96278715D01*
X213172818Y-96278722D01*
X213114327Y-96458740D01*
X213114326Y-96458744D01*
X213094540Y-96647000D01*
X191491312Y-96647000D01*
X191454179Y-96532716D01*
X191359533Y-96368784D01*
X191232871Y-96228112D01*
X191204713Y-96207654D01*
X191079734Y-96116851D01*
X191079729Y-96116848D01*
X190906807Y-96039857D01*
X190906802Y-96039855D01*
X190761001Y-96008865D01*
X190721646Y-96000500D01*
X190532354Y-96000500D01*
X190499897Y-96007398D01*
X190347197Y-96039855D01*
X190347192Y-96039857D01*
X190174270Y-96116848D01*
X190174265Y-96116851D01*
X190021129Y-96228111D01*
X189894466Y-96368785D01*
X189799821Y-96532715D01*
X189799818Y-96532722D01*
X189741327Y-96712740D01*
X189741326Y-96712744D01*
X189721540Y-96901000D01*
X162762559Y-96901000D01*
X162736704Y-96794424D01*
X162729543Y-96778744D01*
X162649401Y-96603256D01*
X162649398Y-96603251D01*
X162649397Y-96603250D01*
X162649396Y-96603247D01*
X162527486Y-96432048D01*
X162527484Y-96432046D01*
X162527479Y-96432040D01*
X162375379Y-96287014D01*
X162334057Y-96260458D01*
X162288302Y-96207654D01*
X162278359Y-96138496D01*
X162307384Y-96074940D01*
X162324445Y-96058673D01*
X162454883Y-95956094D01*
X162454886Y-95956092D01*
X162516488Y-95885000D01*
X167750540Y-95885000D01*
X167770326Y-96073256D01*
X167770327Y-96073259D01*
X167828818Y-96253277D01*
X167828821Y-96253284D01*
X167923467Y-96417216D01*
X168050129Y-96557888D01*
X168203265Y-96669148D01*
X168203270Y-96669151D01*
X168376192Y-96746142D01*
X168376197Y-96746144D01*
X168561354Y-96785500D01*
X168561355Y-96785500D01*
X168750644Y-96785500D01*
X168750646Y-96785500D01*
X168935803Y-96746144D01*
X169108730Y-96669151D01*
X169261871Y-96557888D01*
X169388533Y-96417216D01*
X169483179Y-96253284D01*
X169541674Y-96073256D01*
X169561460Y-95885000D01*
X170544540Y-95885000D01*
X170564326Y-96073256D01*
X170564327Y-96073259D01*
X170622818Y-96253277D01*
X170622821Y-96253284D01*
X170717467Y-96417216D01*
X170844129Y-96557888D01*
X170997265Y-96669148D01*
X170997270Y-96669151D01*
X171170192Y-96746142D01*
X171170197Y-96746144D01*
X171355354Y-96785500D01*
X171355355Y-96785500D01*
X171544644Y-96785500D01*
X171544646Y-96785500D01*
X171729803Y-96746144D01*
X171902730Y-96669151D01*
X172055871Y-96557888D01*
X172182533Y-96417216D01*
X172277179Y-96253284D01*
X172335674Y-96073256D01*
X172355460Y-95885000D01*
X172335674Y-95696744D01*
X172277179Y-95516716D01*
X172182533Y-95352784D01*
X172055871Y-95212112D01*
X172051040Y-95208602D01*
X171902734Y-95100851D01*
X171902729Y-95100848D01*
X171729807Y-95023857D01*
X171729802Y-95023855D01*
X171584001Y-94992865D01*
X171544646Y-94984500D01*
X171355354Y-94984500D01*
X171322897Y-94991398D01*
X171170197Y-95023855D01*
X171170192Y-95023857D01*
X170997270Y-95100848D01*
X170997265Y-95100851D01*
X170844129Y-95212111D01*
X170717466Y-95352785D01*
X170622821Y-95516715D01*
X170622818Y-95516722D01*
X170590805Y-95615249D01*
X170564326Y-95696744D01*
X170544540Y-95885000D01*
X169561460Y-95885000D01*
X169541674Y-95696744D01*
X169483179Y-95516716D01*
X169388533Y-95352784D01*
X169261871Y-95212112D01*
X169257040Y-95208602D01*
X169108734Y-95100851D01*
X169108729Y-95100848D01*
X168935807Y-95023857D01*
X168935802Y-95023855D01*
X168790001Y-94992865D01*
X168750646Y-94984500D01*
X168561354Y-94984500D01*
X168528897Y-94991398D01*
X168376197Y-95023855D01*
X168376192Y-95023857D01*
X168203270Y-95100848D01*
X168203265Y-95100851D01*
X168050129Y-95212111D01*
X167923466Y-95352785D01*
X167828821Y-95516715D01*
X167828818Y-95516722D01*
X167796805Y-95615249D01*
X167770326Y-95696744D01*
X167750540Y-95885000D01*
X162516488Y-95885000D01*
X162592519Y-95797256D01*
X162599102Y-95785855D01*
X162697601Y-95615249D01*
X162697600Y-95615249D01*
X162697604Y-95615244D01*
X162766344Y-95416633D01*
X162796254Y-95208602D01*
X162786254Y-94998670D01*
X162736704Y-94794424D01*
X162714256Y-94745269D01*
X162649401Y-94603256D01*
X162649398Y-94603251D01*
X162649397Y-94603250D01*
X162649396Y-94603247D01*
X162527486Y-94432048D01*
X162484731Y-94391281D01*
X162424543Y-94333892D01*
X162389608Y-94273383D01*
X162392933Y-94203593D01*
X162433461Y-94146678D01*
X162445017Y-94138610D01*
X162510343Y-94098317D01*
X162634315Y-93974345D01*
X162726356Y-93825124D01*
X162726358Y-93825119D01*
X162781505Y-93658697D01*
X162781506Y-93658690D01*
X162791999Y-93555986D01*
X162792000Y-93555973D01*
X162792000Y-93406000D01*
X161696560Y-93406000D01*
X161735278Y-93363941D01*
X161785551Y-93249330D01*
X161795886Y-93124605D01*
X161765163Y-93003281D01*
X161701606Y-92906000D01*
X162791999Y-92906000D01*
X162791999Y-92756028D01*
X162791998Y-92756013D01*
X162781505Y-92653302D01*
X162726358Y-92486880D01*
X162726356Y-92486875D01*
X162634315Y-92337654D01*
X162510345Y-92213684D01*
X162361124Y-92121643D01*
X162361119Y-92121641D01*
X162194697Y-92066494D01*
X162194690Y-92066493D01*
X162091986Y-92056000D01*
X161667000Y-92056000D01*
X161667000Y-92875382D01*
X161597948Y-92821637D01*
X161479576Y-92781000D01*
X161385927Y-92781000D01*
X161293554Y-92796414D01*
X161183486Y-92855981D01*
X161167000Y-92873889D01*
X161167000Y-92056000D01*
X160742028Y-92056000D01*
X160742012Y-92056001D01*
X160639302Y-92066494D01*
X160472880Y-92121641D01*
X160472875Y-92121643D01*
X160323654Y-92213684D01*
X160199684Y-92337654D01*
X160107643Y-92486875D01*
X160107641Y-92486880D01*
X160052494Y-92653302D01*
X160052493Y-92653309D01*
X160042000Y-92756013D01*
X160042000Y-92906000D01*
X161137440Y-92906000D01*
X161098722Y-92948059D01*
X161048449Y-93062670D01*
X161038114Y-93187395D01*
X161068837Y-93308719D01*
X161132394Y-93406000D01*
X160042001Y-93406000D01*
X160042001Y-93555986D01*
X160052494Y-93658697D01*
X160107641Y-93825119D01*
X160107643Y-93825124D01*
X160199684Y-93974345D01*
X160323654Y-94098315D01*
X160387158Y-94137485D01*
X160433882Y-94189433D01*
X160445105Y-94258396D01*
X160417261Y-94322478D01*
X160398715Y-94340493D01*
X160379113Y-94355908D01*
X160379112Y-94355909D01*
X160241478Y-94514746D01*
X160136398Y-94696750D01*
X160067656Y-94895365D01*
X160067656Y-94895367D01*
X160038113Y-95100851D01*
X160037746Y-95103401D01*
X160047745Y-95313327D01*
X160097296Y-95517578D01*
X160097298Y-95517582D01*
X160184598Y-95708743D01*
X160184601Y-95708748D01*
X160184602Y-95708750D01*
X160184604Y-95708753D01*
X160306514Y-95879952D01*
X160306515Y-95879953D01*
X160306520Y-95879959D01*
X160458619Y-96024984D01*
X160458621Y-96024985D01*
X160458622Y-96024986D01*
X160481758Y-96039855D01*
X160499941Y-96051540D01*
X160545696Y-96104344D01*
X160555640Y-96173503D01*
X160526615Y-96237059D01*
X160509555Y-96253326D01*
X160379112Y-96355909D01*
X160241478Y-96514746D01*
X160136398Y-96696750D01*
X160067656Y-96895365D01*
X160067656Y-96895367D01*
X160039780Y-97089256D01*
X160037746Y-97103401D01*
X160047745Y-97313327D01*
X160097296Y-97517578D01*
X160097298Y-97517582D01*
X160184598Y-97708743D01*
X160184601Y-97708748D01*
X160184602Y-97708750D01*
X160184604Y-97708753D01*
X160297647Y-97867500D01*
X160306515Y-97879953D01*
X160306520Y-97879959D01*
X160458619Y-98024984D01*
X160499941Y-98051540D01*
X160545696Y-98104344D01*
X160555640Y-98173503D01*
X160526615Y-98237059D01*
X160509555Y-98253326D01*
X160379112Y-98355909D01*
X160241478Y-98514746D01*
X160136398Y-98696750D01*
X160067656Y-98895365D01*
X160067656Y-98895367D01*
X160042333Y-99071500D01*
X160037746Y-99103401D01*
X160047745Y-99313327D01*
X160097296Y-99517578D01*
X160097298Y-99517582D01*
X160184598Y-99708743D01*
X160184601Y-99708748D01*
X160184602Y-99708750D01*
X160184604Y-99708753D01*
X160282491Y-99846216D01*
X160306515Y-99879953D01*
X160306520Y-99879959D01*
X160458619Y-100024984D01*
X160458621Y-100024985D01*
X160458622Y-100024986D01*
X160490075Y-100045200D01*
X160499941Y-100051540D01*
X160545696Y-100104344D01*
X160555640Y-100173503D01*
X160526615Y-100237059D01*
X160509555Y-100253326D01*
X160379112Y-100355909D01*
X160241478Y-100514746D01*
X160136398Y-100696750D01*
X160067656Y-100895365D01*
X160067656Y-100895367D01*
X160039011Y-101094604D01*
X160037746Y-101103401D01*
X160047745Y-101313327D01*
X160097296Y-101517578D01*
X160097298Y-101517582D01*
X160184598Y-101708743D01*
X160184601Y-101708748D01*
X160184602Y-101708750D01*
X160184604Y-101708753D01*
X160279845Y-101842500D01*
X160306515Y-101879953D01*
X160306520Y-101879959D01*
X160458619Y-102024984D01*
X160499941Y-102051540D01*
X160545696Y-102104344D01*
X160555640Y-102173503D01*
X160526615Y-102237059D01*
X160509555Y-102253326D01*
X160379112Y-102355909D01*
X160241478Y-102514746D01*
X160136398Y-102696750D01*
X160067656Y-102895365D01*
X160067656Y-102895367D01*
X160043287Y-103064865D01*
X160037746Y-103103401D01*
X160047745Y-103313327D01*
X160097296Y-103517578D01*
X160097298Y-103517582D01*
X160184598Y-103708743D01*
X160184601Y-103708748D01*
X160184602Y-103708750D01*
X160184604Y-103708753D01*
X160296094Y-103865319D01*
X160306515Y-103879953D01*
X160306520Y-103879959D01*
X160458619Y-104024984D01*
X160499941Y-104051540D01*
X160545696Y-104104344D01*
X160555640Y-104173503D01*
X160526615Y-104237059D01*
X160509555Y-104253326D01*
X160379112Y-104355909D01*
X160241478Y-104514746D01*
X160136398Y-104696750D01*
X160067656Y-104895365D01*
X160067656Y-104895367D01*
X160047680Y-105034309D01*
X160037746Y-105103401D01*
X144532482Y-105103401D01*
X144652301Y-104932282D01*
X144750320Y-104722079D01*
X144810349Y-104498050D01*
X144830563Y-104267000D01*
X144810349Y-104035950D01*
X144750320Y-103811921D01*
X144652301Y-103601719D01*
X144652299Y-103601716D01*
X144652298Y-103601714D01*
X144519273Y-103411735D01*
X144519268Y-103411729D01*
X144355269Y-103247730D01*
X144305531Y-103212903D01*
X144165282Y-103114699D01*
X144153878Y-103109381D01*
X144101440Y-103063210D01*
X144082288Y-102996016D01*
X144102504Y-102929135D01*
X144153878Y-102884618D01*
X144165282Y-102879301D01*
X144355269Y-102746270D01*
X144358539Y-102743000D01*
X150351540Y-102743000D01*
X150371326Y-102931256D01*
X150371327Y-102931259D01*
X150429818Y-103111277D01*
X150429821Y-103111284D01*
X150524467Y-103275216D01*
X150625080Y-103386958D01*
X150651129Y-103415888D01*
X150804265Y-103527148D01*
X150804270Y-103527151D01*
X150977192Y-103604142D01*
X150977197Y-103604144D01*
X151162354Y-103643500D01*
X151162355Y-103643500D01*
X151351644Y-103643500D01*
X151351646Y-103643500D01*
X151536803Y-103604144D01*
X151709730Y-103527151D01*
X151862871Y-103415888D01*
X151989533Y-103275216D01*
X152084179Y-103111284D01*
X152142674Y-102931256D01*
X152162460Y-102743000D01*
X152142674Y-102554744D01*
X152084179Y-102374716D01*
X151989533Y-102210784D01*
X151862871Y-102070112D01*
X151849610Y-102060477D01*
X151709734Y-101958851D01*
X151709729Y-101958848D01*
X151536807Y-101881857D01*
X151536802Y-101881855D01*
X151391001Y-101850865D01*
X151351646Y-101842500D01*
X151162354Y-101842500D01*
X151129897Y-101849398D01*
X150977197Y-101881855D01*
X150977192Y-101881857D01*
X150804270Y-101958848D01*
X150804265Y-101958851D01*
X150651129Y-102070111D01*
X150524466Y-102210785D01*
X150429821Y-102374715D01*
X150429818Y-102374722D01*
X150371442Y-102554387D01*
X150371326Y-102554744D01*
X150351540Y-102743000D01*
X144358539Y-102743000D01*
X144519270Y-102582269D01*
X144652301Y-102392282D01*
X144750320Y-102182079D01*
X144810349Y-101958050D01*
X144830563Y-101727000D01*
X144810349Y-101495950D01*
X144750320Y-101271921D01*
X144652301Y-101061719D01*
X144652299Y-101061716D01*
X144652298Y-101061714D01*
X144519273Y-100871735D01*
X144519268Y-100871729D01*
X144363509Y-100715970D01*
X144330024Y-100654647D01*
X144335008Y-100584955D01*
X144376880Y-100529022D01*
X144425433Y-100509924D01*
X144424832Y-100507380D01*
X144432379Y-100505596D01*
X144567086Y-100455354D01*
X144567093Y-100455350D01*
X144682187Y-100369190D01*
X144682190Y-100369187D01*
X144768350Y-100254093D01*
X144768354Y-100254086D01*
X144818596Y-100119379D01*
X144818598Y-100119372D01*
X144824999Y-100059844D01*
X144825000Y-100059827D01*
X144825000Y-99437000D01*
X143994852Y-99437000D01*
X144043559Y-99299953D01*
X144053877Y-99149114D01*
X144023116Y-99001085D01*
X143989910Y-98937000D01*
X144825000Y-98937000D01*
X144825000Y-98314172D01*
X144824999Y-98314155D01*
X144818598Y-98254627D01*
X144818596Y-98254620D01*
X144768354Y-98119913D01*
X144768350Y-98119906D01*
X144682190Y-98004812D01*
X144682187Y-98004809D01*
X144567093Y-97918649D01*
X144567086Y-97918645D01*
X144432379Y-97868403D01*
X144432372Y-97868401D01*
X144372844Y-97862000D01*
X143750000Y-97862000D01*
X143750000Y-98695316D01*
X143721181Y-98677791D01*
X143575596Y-98637000D01*
X143462378Y-98637000D01*
X143350217Y-98652416D01*
X143250000Y-98695946D01*
X143250000Y-97862000D01*
X142627155Y-97862000D01*
X142567627Y-97868401D01*
X142567620Y-97868403D01*
X142432913Y-97918645D01*
X142432906Y-97918649D01*
X142317812Y-98004809D01*
X142317809Y-98004812D01*
X142231649Y-98119906D01*
X142231645Y-98119913D01*
X142181403Y-98254620D01*
X142181401Y-98254627D01*
X142175000Y-98314155D01*
X142175000Y-98937000D01*
X143005148Y-98937000D01*
X142956441Y-99074047D01*
X142946123Y-99224886D01*
X142976884Y-99372915D01*
X143010090Y-99437000D01*
X142175000Y-99437000D01*
X142175000Y-100059844D01*
X142181401Y-100119372D01*
X142181403Y-100119379D01*
X142231645Y-100254086D01*
X142231649Y-100254093D01*
X142317809Y-100369187D01*
X142317812Y-100369190D01*
X142432906Y-100455350D01*
X142432913Y-100455354D01*
X142567620Y-100505596D01*
X142575168Y-100507380D01*
X142574511Y-100510159D01*
X142626599Y-100531724D01*
X142666457Y-100589110D01*
X142668962Y-100658935D01*
X142636491Y-100715970D01*
X142480726Y-100871735D01*
X142347701Y-101061714D01*
X142347699Y-101061718D01*
X142249681Y-101271917D01*
X142189651Y-101495948D01*
X142189650Y-101495955D01*
X142169437Y-101726998D01*
X142169437Y-101727001D01*
X142189650Y-101958044D01*
X142189651Y-101958051D01*
X142249678Y-102182074D01*
X142249679Y-102182076D01*
X142249680Y-102182079D01*
X142347699Y-102392282D01*
X142480730Y-102582269D01*
X142644731Y-102746270D01*
X142834718Y-102879301D01*
X142846121Y-102884618D01*
X142898560Y-102930790D01*
X142917712Y-102997984D01*
X142897496Y-103064865D01*
X142846123Y-103109381D01*
X142834720Y-103114698D01*
X142834714Y-103114701D01*
X142644735Y-103247726D01*
X142644729Y-103247731D01*
X142480731Y-103411729D01*
X142480726Y-103411735D01*
X142347701Y-103601714D01*
X142347699Y-103601718D01*
X142249681Y-103811917D01*
X142189651Y-104035948D01*
X142189650Y-104035955D01*
X142169437Y-104266998D01*
X142169437Y-104267001D01*
X139300500Y-104267001D01*
X139300500Y-96967000D01*
X150419890Y-96967000D01*
X150439676Y-97155256D01*
X150439677Y-97155259D01*
X150498168Y-97335277D01*
X150498171Y-97335284D01*
X150592817Y-97499216D01*
X150697294Y-97615249D01*
X150719479Y-97639888D01*
X150872615Y-97751148D01*
X150872620Y-97751151D01*
X151045542Y-97828142D01*
X151045547Y-97828144D01*
X151230704Y-97867500D01*
X151230705Y-97867500D01*
X151419994Y-97867500D01*
X151419996Y-97867500D01*
X151605153Y-97828144D01*
X151778080Y-97751151D01*
X151931221Y-97639888D01*
X152057883Y-97499216D01*
X152152529Y-97335284D01*
X152211024Y-97155256D01*
X152230810Y-96967000D01*
X152211024Y-96778744D01*
X152152529Y-96598716D01*
X152057883Y-96434784D01*
X151931221Y-96294112D01*
X151931220Y-96294111D01*
X151778084Y-96182851D01*
X151778079Y-96182848D01*
X151605157Y-96105857D01*
X151605152Y-96105855D01*
X151451781Y-96073256D01*
X151419996Y-96066500D01*
X151230704Y-96066500D01*
X151198919Y-96073256D01*
X151045547Y-96105855D01*
X151045542Y-96105857D01*
X150872620Y-96182848D01*
X150872615Y-96182851D01*
X150719479Y-96294111D01*
X150592816Y-96434785D01*
X150498171Y-96598715D01*
X150498168Y-96598722D01*
X150450269Y-96746142D01*
X150439676Y-96778744D01*
X150419890Y-96967000D01*
X139300500Y-96967000D01*
X139300500Y-93726001D01*
X142169437Y-93726001D01*
X142189650Y-93957044D01*
X142189651Y-93957051D01*
X142249678Y-94181074D01*
X142249679Y-94181076D01*
X142249680Y-94181079D01*
X142347699Y-94391282D01*
X142480730Y-94581269D01*
X142644731Y-94745270D01*
X142834718Y-94878301D01*
X143044921Y-94976320D01*
X143268950Y-95036349D01*
X143433985Y-95050787D01*
X143499998Y-95056563D01*
X143500000Y-95056563D01*
X143500002Y-95056563D01*
X143557762Y-95051509D01*
X143731050Y-95036349D01*
X143955079Y-94976320D01*
X144165282Y-94878301D01*
X144355269Y-94745270D01*
X144519270Y-94581269D01*
X144652301Y-94391282D01*
X144750320Y-94181079D01*
X144810349Y-93957050D01*
X144830563Y-93726000D01*
X144810349Y-93494950D01*
X144750320Y-93270921D01*
X144652301Y-93060719D01*
X144652299Y-93060716D01*
X144652298Y-93060714D01*
X144519273Y-92870735D01*
X144519268Y-92870729D01*
X144355269Y-92706730D01*
X144278966Y-92653302D01*
X144165282Y-92573699D01*
X144153878Y-92568381D01*
X144101440Y-92522210D01*
X144082288Y-92455016D01*
X144102504Y-92388135D01*
X144153878Y-92343618D01*
X144165282Y-92338301D01*
X144355269Y-92205270D01*
X144519270Y-92041269D01*
X144652301Y-91851282D01*
X144750320Y-91641079D01*
X144810349Y-91417050D01*
X144819452Y-91313000D01*
X171306540Y-91313000D01*
X171326326Y-91501256D01*
X171326327Y-91501259D01*
X171384818Y-91681277D01*
X171384821Y-91681284D01*
X171479467Y-91845216D01*
X171606129Y-91985888D01*
X171759265Y-92097148D01*
X171759270Y-92097151D01*
X171932192Y-92174142D01*
X171932197Y-92174144D01*
X172117354Y-92213500D01*
X172117355Y-92213500D01*
X172306644Y-92213500D01*
X172306646Y-92213500D01*
X172491803Y-92174144D01*
X172664730Y-92097151D01*
X172817871Y-91985888D01*
X172944533Y-91845216D01*
X173039179Y-91681284D01*
X173097674Y-91501256D01*
X173117460Y-91313000D01*
X173097674Y-91124744D01*
X173039179Y-90944716D01*
X172944533Y-90780784D01*
X172817871Y-90640112D01*
X172817870Y-90640111D01*
X172664734Y-90528851D01*
X172664729Y-90528848D01*
X172491807Y-90451857D01*
X172491802Y-90451855D01*
X172346001Y-90420865D01*
X172306646Y-90412500D01*
X172117354Y-90412500D01*
X172084897Y-90419398D01*
X171932197Y-90451855D01*
X171932192Y-90451857D01*
X171759270Y-90528848D01*
X171759265Y-90528851D01*
X171606129Y-90640111D01*
X171479466Y-90780785D01*
X171384821Y-90944715D01*
X171384818Y-90944722D01*
X171326327Y-91124740D01*
X171326326Y-91124744D01*
X171306540Y-91313000D01*
X144819452Y-91313000D01*
X144830563Y-91186000D01*
X144810349Y-90954950D01*
X144750320Y-90730921D01*
X144652301Y-90520719D01*
X144652299Y-90520716D01*
X144652298Y-90520714D01*
X144519273Y-90330735D01*
X144519268Y-90330729D01*
X144363509Y-90174970D01*
X144330024Y-90113647D01*
X144335008Y-90043955D01*
X144376880Y-89988022D01*
X144425433Y-89968924D01*
X144424832Y-89966380D01*
X144432379Y-89964596D01*
X144567086Y-89914354D01*
X144567093Y-89914350D01*
X144682187Y-89828190D01*
X144682190Y-89828187D01*
X144768350Y-89713093D01*
X144768354Y-89713086D01*
X144818596Y-89578379D01*
X144818598Y-89578372D01*
X144824999Y-89518844D01*
X144825000Y-89518827D01*
X144825000Y-88900002D01*
X202944723Y-88900002D01*
X202963793Y-89117975D01*
X202963793Y-89117979D01*
X203020422Y-89329322D01*
X203020424Y-89329326D01*
X203020425Y-89329330D01*
X203066661Y-89428484D01*
X203112897Y-89527638D01*
X203112898Y-89527639D01*
X203238402Y-89706877D01*
X203393123Y-89861598D01*
X203572361Y-89987102D01*
X203770670Y-90079575D01*
X203982023Y-90136207D01*
X204164926Y-90152208D01*
X204199998Y-90155277D01*
X204200000Y-90155277D01*
X204200002Y-90155277D01*
X204228254Y-90152805D01*
X204417977Y-90136207D01*
X204629330Y-90079575D01*
X204827639Y-89987102D01*
X205006877Y-89861598D01*
X205161598Y-89706877D01*
X205287102Y-89527639D01*
X205379575Y-89329330D01*
X205436207Y-89117977D01*
X205455277Y-88900002D01*
X210444723Y-88900002D01*
X210463793Y-89117975D01*
X210463793Y-89117979D01*
X210520422Y-89329322D01*
X210520424Y-89329326D01*
X210520425Y-89329330D01*
X210566661Y-89428484D01*
X210612897Y-89527638D01*
X210612898Y-89527639D01*
X210738402Y-89706877D01*
X210893123Y-89861598D01*
X211072361Y-89987102D01*
X211270670Y-90079575D01*
X211482023Y-90136207D01*
X211664926Y-90152208D01*
X211699998Y-90155277D01*
X211700000Y-90155277D01*
X211700002Y-90155277D01*
X211728254Y-90152805D01*
X211917977Y-90136207D01*
X212129330Y-90079575D01*
X212327639Y-89987102D01*
X212506877Y-89861598D01*
X212661598Y-89706877D01*
X212787102Y-89527639D01*
X212879575Y-89329330D01*
X212936207Y-89117977D01*
X212955277Y-88900000D01*
X212936207Y-88682023D01*
X212879575Y-88470670D01*
X212787102Y-88272362D01*
X212787100Y-88272359D01*
X212787099Y-88272357D01*
X212661599Y-88093124D01*
X212661596Y-88093121D01*
X212506877Y-87938402D01*
X212327639Y-87812898D01*
X212327640Y-87812898D01*
X212327638Y-87812897D01*
X212228484Y-87766661D01*
X212129330Y-87720425D01*
X212129326Y-87720424D01*
X212129322Y-87720422D01*
X211917977Y-87663793D01*
X211700002Y-87644723D01*
X211699998Y-87644723D01*
X211554682Y-87657436D01*
X211482023Y-87663793D01*
X211482020Y-87663793D01*
X211270677Y-87720422D01*
X211270668Y-87720426D01*
X211072361Y-87812898D01*
X211072357Y-87812900D01*
X210893121Y-87938402D01*
X210738402Y-88093121D01*
X210612900Y-88272357D01*
X210612898Y-88272361D01*
X210520426Y-88470668D01*
X210520422Y-88470677D01*
X210463793Y-88682020D01*
X210463793Y-88682024D01*
X210444723Y-88899997D01*
X210444723Y-88900002D01*
X205455277Y-88900002D01*
X205455277Y-88900000D01*
X205436207Y-88682023D01*
X205379575Y-88470670D01*
X205287102Y-88272362D01*
X205287100Y-88272359D01*
X205287099Y-88272357D01*
X205161599Y-88093124D01*
X205161596Y-88093121D01*
X205006877Y-87938402D01*
X204827639Y-87812898D01*
X204827640Y-87812898D01*
X204827638Y-87812897D01*
X204728484Y-87766661D01*
X204629330Y-87720425D01*
X204629326Y-87720424D01*
X204629322Y-87720422D01*
X204417977Y-87663793D01*
X204200002Y-87644723D01*
X204199998Y-87644723D01*
X204054682Y-87657436D01*
X203982023Y-87663793D01*
X203982020Y-87663793D01*
X203770677Y-87720422D01*
X203770668Y-87720426D01*
X203572361Y-87812898D01*
X203572357Y-87812900D01*
X203393121Y-87938402D01*
X203238402Y-88093121D01*
X203112900Y-88272357D01*
X203112898Y-88272361D01*
X203020426Y-88470668D01*
X203020422Y-88470677D01*
X202963793Y-88682020D01*
X202963793Y-88682024D01*
X202944723Y-88899997D01*
X202944723Y-88900002D01*
X144825000Y-88900002D01*
X144825000Y-88896000D01*
X143994852Y-88896000D01*
X144043559Y-88758953D01*
X144053877Y-88608114D01*
X144023116Y-88460085D01*
X143989910Y-88396000D01*
X144825000Y-88396000D01*
X144825000Y-87773172D01*
X144824999Y-87773155D01*
X144818598Y-87713627D01*
X144818596Y-87713620D01*
X144768354Y-87578913D01*
X144768350Y-87578906D01*
X144682190Y-87463812D01*
X144682187Y-87463809D01*
X144567093Y-87377649D01*
X144567086Y-87377645D01*
X144432379Y-87327403D01*
X144432372Y-87327401D01*
X144372844Y-87321000D01*
X143750000Y-87321000D01*
X143750000Y-88154316D01*
X143721181Y-88136791D01*
X143575596Y-88096000D01*
X143462378Y-88096000D01*
X143350217Y-88111416D01*
X143250000Y-88154946D01*
X143250000Y-87321000D01*
X142627155Y-87321000D01*
X142567627Y-87327401D01*
X142567620Y-87327403D01*
X142432913Y-87377645D01*
X142432906Y-87377649D01*
X142317812Y-87463809D01*
X142317809Y-87463812D01*
X142231649Y-87578906D01*
X142231645Y-87578913D01*
X142181403Y-87713620D01*
X142181401Y-87713627D01*
X142175000Y-87773155D01*
X142175000Y-88396000D01*
X143005148Y-88396000D01*
X142956441Y-88533047D01*
X142946123Y-88683886D01*
X142976884Y-88831915D01*
X143010090Y-88896000D01*
X142175000Y-88896000D01*
X142175000Y-89518844D01*
X142181401Y-89578372D01*
X142181403Y-89578379D01*
X142231645Y-89713086D01*
X142231649Y-89713093D01*
X142317809Y-89828187D01*
X142317812Y-89828190D01*
X142432906Y-89914350D01*
X142432913Y-89914354D01*
X142567620Y-89964596D01*
X142575168Y-89966380D01*
X142574511Y-89969159D01*
X142626599Y-89990724D01*
X142666457Y-90048110D01*
X142668962Y-90117935D01*
X142636491Y-90174970D01*
X142480726Y-90330735D01*
X142347701Y-90520714D01*
X142347699Y-90520718D01*
X142249681Y-90730917D01*
X142189651Y-90954948D01*
X142189650Y-90954955D01*
X142169437Y-91185998D01*
X142169437Y-91186001D01*
X142189650Y-91417044D01*
X142189651Y-91417051D01*
X142249678Y-91641074D01*
X142249679Y-91641076D01*
X142249680Y-91641079D01*
X142347699Y-91851282D01*
X142480730Y-92041269D01*
X142644731Y-92205270D01*
X142834718Y-92338301D01*
X142846121Y-92343618D01*
X142898560Y-92389790D01*
X142917712Y-92456984D01*
X142897496Y-92523865D01*
X142846123Y-92568381D01*
X142834720Y-92573698D01*
X142834714Y-92573701D01*
X142644735Y-92706726D01*
X142644729Y-92706731D01*
X142480731Y-92870729D01*
X142480726Y-92870735D01*
X142347701Y-93060714D01*
X142347699Y-93060718D01*
X142249681Y-93270917D01*
X142189651Y-93494948D01*
X142189650Y-93494955D01*
X142169437Y-93725998D01*
X142169437Y-93726001D01*
X139300500Y-93726001D01*
X139300500Y-86487000D01*
X191245540Y-86487000D01*
X191265326Y-86675256D01*
X191265327Y-86675259D01*
X191323818Y-86855277D01*
X191323821Y-86855284D01*
X191418467Y-87019216D01*
X191545129Y-87159888D01*
X191698265Y-87271148D01*
X191698270Y-87271151D01*
X191871192Y-87348142D01*
X191871197Y-87348144D01*
X192056354Y-87387500D01*
X192056355Y-87387500D01*
X192245644Y-87387500D01*
X192245646Y-87387500D01*
X192430803Y-87348144D01*
X192603730Y-87271151D01*
X192756871Y-87159888D01*
X192883533Y-87019216D01*
X192978179Y-86855284D01*
X193036674Y-86675256D01*
X193056460Y-86487000D01*
X193036674Y-86298744D01*
X192978179Y-86118716D01*
X192883533Y-85954784D01*
X192756871Y-85814112D01*
X192730647Y-85795059D01*
X192603734Y-85702851D01*
X192603729Y-85702848D01*
X192430807Y-85625857D01*
X192430802Y-85625855D01*
X192285001Y-85594865D01*
X192245646Y-85586500D01*
X192056354Y-85586500D01*
X192023897Y-85593398D01*
X191871197Y-85625855D01*
X191871192Y-85625857D01*
X191698270Y-85702848D01*
X191698265Y-85702851D01*
X191545129Y-85814111D01*
X191418466Y-85954785D01*
X191323821Y-86118715D01*
X191323818Y-86118722D01*
X191278807Y-86257253D01*
X191265326Y-86298744D01*
X191245540Y-86487000D01*
X139300500Y-86487000D01*
X139300500Y-85205398D01*
X166890000Y-85205398D01*
X166904965Y-85362122D01*
X166904966Y-85362126D01*
X166964149Y-85563686D01*
X167060413Y-85750414D01*
X167190268Y-85915537D01*
X167190271Y-85915540D01*
X167349030Y-86053105D01*
X167349041Y-86053114D01*
X167530960Y-86158144D01*
X167530967Y-86158147D01*
X167729487Y-86226856D01*
X167740000Y-86228367D01*
X167740000Y-85158617D01*
X167809052Y-85212363D01*
X167927424Y-85253000D01*
X168021073Y-85253000D01*
X168113446Y-85237586D01*
X168223514Y-85178019D01*
X168240000Y-85160110D01*
X168240000Y-86224257D01*
X168351409Y-86197229D01*
X168542507Y-86109959D01*
X168713619Y-85988110D01*
X168713625Y-85988104D01*
X168858594Y-85836065D01*
X168885214Y-85794643D01*
X168938017Y-85748887D01*
X169007175Y-85738943D01*
X169070731Y-85767967D01*
X169087000Y-85785029D01*
X169189905Y-85915883D01*
X169189909Y-85915887D01*
X169348746Y-86053521D01*
X169530750Y-86158601D01*
X169530752Y-86158601D01*
X169530756Y-86158604D01*
X169729367Y-86227344D01*
X169937398Y-86257254D01*
X170147330Y-86247254D01*
X170351576Y-86197704D01*
X170524522Y-86118722D01*
X170542743Y-86110401D01*
X170542746Y-86110399D01*
X170542753Y-86110396D01*
X170713952Y-85988486D01*
X170714317Y-85988104D01*
X170858986Y-85836378D01*
X170868010Y-85822336D01*
X170885540Y-85795058D01*
X170938343Y-85749303D01*
X171007502Y-85739359D01*
X171071058Y-85768383D01*
X171087326Y-85785444D01*
X171189909Y-85915887D01*
X171348746Y-86053521D01*
X171530750Y-86158601D01*
X171530752Y-86158601D01*
X171530756Y-86158604D01*
X171729367Y-86227344D01*
X171937398Y-86257254D01*
X172147330Y-86247254D01*
X172351576Y-86197704D01*
X172524522Y-86118722D01*
X172542743Y-86110401D01*
X172542746Y-86110399D01*
X172542753Y-86110396D01*
X172713952Y-85988486D01*
X172811751Y-85885916D01*
X172872258Y-85850983D01*
X172942049Y-85854307D01*
X172998963Y-85894835D01*
X173007030Y-85906388D01*
X173047288Y-85971656D01*
X173171344Y-86095712D01*
X173320666Y-86187814D01*
X173487203Y-86242999D01*
X173589991Y-86253500D01*
X174390008Y-86253499D01*
X174390016Y-86253498D01*
X174390019Y-86253498D01*
X174451143Y-86247254D01*
X174492797Y-86242999D01*
X174659334Y-86187814D01*
X174808656Y-86095712D01*
X174932712Y-85971656D01*
X175024814Y-85822334D01*
X175079999Y-85655797D01*
X175090500Y-85553009D01*
X175090499Y-84202992D01*
X175079999Y-84100203D01*
X175024814Y-83933666D01*
X174932712Y-83784344D01*
X174841368Y-83693000D01*
X213597540Y-83693000D01*
X213617326Y-83881256D01*
X213617327Y-83881259D01*
X213675818Y-84061277D01*
X213675821Y-84061284D01*
X213770467Y-84225216D01*
X213897129Y-84365888D01*
X214050265Y-84477148D01*
X214050270Y-84477151D01*
X214223192Y-84554142D01*
X214223197Y-84554144D01*
X214408354Y-84593500D01*
X214408355Y-84593500D01*
X214597644Y-84593500D01*
X214597646Y-84593500D01*
X214782803Y-84554144D01*
X214955730Y-84477151D01*
X215001614Y-84443813D01*
X215067421Y-84420334D01*
X215135475Y-84436159D01*
X215147386Y-84443814D01*
X215193271Y-84477152D01*
X215366192Y-84554142D01*
X215366197Y-84554144D01*
X215551354Y-84593500D01*
X215551355Y-84593500D01*
X215740644Y-84593500D01*
X215740646Y-84593500D01*
X215925803Y-84554144D01*
X216098730Y-84477151D01*
X216144614Y-84443813D01*
X216210421Y-84420334D01*
X216278475Y-84436159D01*
X216290386Y-84443814D01*
X216336271Y-84477152D01*
X216509192Y-84554142D01*
X216509197Y-84554144D01*
X216694354Y-84593500D01*
X216694355Y-84593500D01*
X216883644Y-84593500D01*
X216883646Y-84593500D01*
X217068803Y-84554144D01*
X217241730Y-84477151D01*
X217394871Y-84365888D01*
X217521533Y-84225216D01*
X217616179Y-84061284D01*
X217674674Y-83881256D01*
X217694460Y-83693000D01*
X217674674Y-83504744D01*
X217616179Y-83324716D01*
X217521533Y-83160784D01*
X217394871Y-83020112D01*
X217394870Y-83020111D01*
X217390522Y-83015282D01*
X217392372Y-83013616D01*
X217361597Y-82963667D01*
X217362925Y-82893810D01*
X217392211Y-82848239D01*
X217390522Y-82846718D01*
X217394871Y-82841888D01*
X217521533Y-82701216D01*
X217616179Y-82537284D01*
X217674674Y-82357256D01*
X217694460Y-82169000D01*
X217674674Y-81980744D01*
X217616179Y-81800716D01*
X217521533Y-81636784D01*
X217394871Y-81496112D01*
X217360500Y-81471140D01*
X217241734Y-81384851D01*
X217241729Y-81384848D01*
X217068807Y-81307857D01*
X217068802Y-81307855D01*
X216923001Y-81276865D01*
X216883646Y-81268500D01*
X216694354Y-81268500D01*
X216661897Y-81275398D01*
X216509197Y-81307855D01*
X216509192Y-81307857D01*
X216336270Y-81384848D01*
X216336266Y-81384851D01*
X216290384Y-81418186D01*
X216224578Y-81441665D01*
X216156524Y-81425839D01*
X216144616Y-81418186D01*
X216098733Y-81384851D01*
X216098729Y-81384848D01*
X215925807Y-81307857D01*
X215925802Y-81307855D01*
X215780001Y-81276865D01*
X215740646Y-81268500D01*
X215551354Y-81268500D01*
X215518897Y-81275398D01*
X215366197Y-81307855D01*
X215366192Y-81307857D01*
X215193270Y-81384848D01*
X215193266Y-81384851D01*
X215147384Y-81418186D01*
X215081578Y-81441665D01*
X215013524Y-81425839D01*
X215001616Y-81418186D01*
X214955733Y-81384851D01*
X214955729Y-81384848D01*
X214782807Y-81307857D01*
X214782802Y-81307855D01*
X214637001Y-81276865D01*
X214597646Y-81268500D01*
X214408354Y-81268500D01*
X214375897Y-81275398D01*
X214223197Y-81307855D01*
X214223192Y-81307857D01*
X214050270Y-81384848D01*
X214050265Y-81384851D01*
X213897129Y-81496111D01*
X213770466Y-81636785D01*
X213675821Y-81800715D01*
X213675818Y-81800722D01*
X213617327Y-81980740D01*
X213617326Y-81980744D01*
X213597540Y-82169000D01*
X213617326Y-82357256D01*
X213617327Y-82357259D01*
X213675818Y-82537277D01*
X213675821Y-82537284D01*
X213770467Y-82701216D01*
X213897129Y-82841888D01*
X213901478Y-82846718D01*
X213899633Y-82848378D01*
X213930413Y-82898374D01*
X213929061Y-82968230D01*
X213899796Y-83013767D01*
X213901478Y-83015282D01*
X213770466Y-83160785D01*
X213675821Y-83324715D01*
X213675818Y-83324722D01*
X213617327Y-83504740D01*
X213617326Y-83504744D01*
X213597540Y-83693000D01*
X174841368Y-83693000D01*
X174808656Y-83660288D01*
X174707431Y-83597852D01*
X174659336Y-83568187D01*
X174659331Y-83568185D01*
X174629488Y-83558296D01*
X174492797Y-83513001D01*
X174492795Y-83513000D01*
X174390010Y-83502500D01*
X173589998Y-83502500D01*
X173589980Y-83502501D01*
X173487203Y-83513000D01*
X173487200Y-83513001D01*
X173320668Y-83568185D01*
X173320663Y-83568187D01*
X173171342Y-83660289D01*
X173047288Y-83784343D01*
X173047285Y-83784347D01*
X173008184Y-83847740D01*
X172956236Y-83894465D01*
X172887274Y-83905686D01*
X172823192Y-83877843D01*
X172805175Y-83859294D01*
X172790092Y-83840114D01*
X172790090Y-83840112D01*
X172631253Y-83702478D01*
X172449249Y-83597398D01*
X172449245Y-83597396D01*
X172449244Y-83597396D01*
X172250633Y-83528656D01*
X172042602Y-83498746D01*
X172042598Y-83498746D01*
X171832672Y-83508745D01*
X171628421Y-83558296D01*
X171628417Y-83558298D01*
X171437256Y-83645598D01*
X171437251Y-83645601D01*
X171266046Y-83767515D01*
X171266040Y-83767520D01*
X171121016Y-83919618D01*
X171094458Y-83960943D01*
X171041653Y-84006697D01*
X170972494Y-84016640D01*
X170908939Y-83987614D01*
X170892673Y-83970554D01*
X170790094Y-83840116D01*
X170790090Y-83840112D01*
X170631253Y-83702478D01*
X170449249Y-83597398D01*
X170449245Y-83597396D01*
X170449244Y-83597396D01*
X170250633Y-83528656D01*
X170042602Y-83498746D01*
X170042598Y-83498746D01*
X169832672Y-83508745D01*
X169628421Y-83558296D01*
X169628417Y-83558298D01*
X169437256Y-83645598D01*
X169437251Y-83645601D01*
X169266046Y-83767515D01*
X169266040Y-83767520D01*
X169121016Y-83919618D01*
X169094172Y-83961388D01*
X169041367Y-84007142D01*
X168972208Y-84017085D01*
X168908653Y-83988059D01*
X168892387Y-83970999D01*
X168789731Y-83840462D01*
X168789728Y-83840459D01*
X168630969Y-83702894D01*
X168630958Y-83702885D01*
X168449039Y-83597855D01*
X168449032Y-83597852D01*
X168250516Y-83529144D01*
X168240000Y-83527632D01*
X168240000Y-84597382D01*
X168170948Y-84543637D01*
X168052576Y-84503000D01*
X167958927Y-84503000D01*
X167866554Y-84518414D01*
X167756486Y-84577981D01*
X167740000Y-84595889D01*
X167740000Y-83531740D01*
X167739999Y-83531740D01*
X167628594Y-83558768D01*
X167628582Y-83558772D01*
X167437497Y-83646037D01*
X167437496Y-83646038D01*
X167266380Y-83767889D01*
X167266374Y-83767895D01*
X167121407Y-83919932D01*
X167007833Y-84096657D01*
X166929755Y-84291685D01*
X166890000Y-84497962D01*
X166890000Y-84628000D01*
X167710440Y-84628000D01*
X167671722Y-84670059D01*
X167621449Y-84784670D01*
X167611114Y-84909395D01*
X167641837Y-85030719D01*
X167705394Y-85128000D01*
X166890000Y-85128000D01*
X166890000Y-85205398D01*
X139300500Y-85205398D01*
X139300500Y-77839001D01*
X160540211Y-77839001D01*
X160559345Y-78106523D01*
X160559346Y-78106530D01*
X160616354Y-78368593D01*
X160710084Y-78619894D01*
X160710086Y-78619898D01*
X160838617Y-78855285D01*
X160838622Y-78855293D01*
X160929180Y-78976264D01*
X160929181Y-78976265D01*
X161742804Y-78162642D01*
X161766059Y-78216553D01*
X161870756Y-78357185D01*
X162005062Y-78469882D01*
X162096665Y-78515886D01*
X161282733Y-79329817D01*
X161282734Y-79329818D01*
X161403706Y-79420377D01*
X161403714Y-79420382D01*
X161639101Y-79548913D01*
X161639105Y-79548915D01*
X161890406Y-79642645D01*
X162152469Y-79699653D01*
X162152476Y-79699654D01*
X162419999Y-79718789D01*
X162420001Y-79718789D01*
X162687523Y-79699654D01*
X162687530Y-79699653D01*
X162949593Y-79642645D01*
X163200894Y-79548915D01*
X163200898Y-79548913D01*
X163436294Y-79420377D01*
X163557264Y-79329818D01*
X163557265Y-79329817D01*
X162745945Y-78518498D01*
X162758891Y-78513787D01*
X162905373Y-78417445D01*
X163025688Y-78289918D01*
X163098447Y-78163894D01*
X163910817Y-78976265D01*
X163910818Y-78976264D01*
X164001377Y-78855294D01*
X164129913Y-78619898D01*
X164129915Y-78619894D01*
X164223645Y-78368593D01*
X164280653Y-78106530D01*
X164280654Y-78106523D01*
X164296064Y-77891068D01*
X164314686Y-77841139D01*
X164523213Y-77841139D01*
X164540914Y-77873556D01*
X164543432Y-77891067D01*
X164558848Y-78106594D01*
X164558849Y-78106601D01*
X164615872Y-78368734D01*
X164709627Y-78620102D01*
X164709629Y-78620106D01*
X164838195Y-78855556D01*
X164838200Y-78855564D01*
X164998964Y-79070321D01*
X164998980Y-79070339D01*
X165188660Y-79260019D01*
X165188678Y-79260035D01*
X165403435Y-79420799D01*
X165403443Y-79420804D01*
X165638893Y-79549370D01*
X165638897Y-79549372D01*
X165638899Y-79549373D01*
X165890261Y-79643126D01*
X165890264Y-79643126D01*
X165890265Y-79643127D01*
X166088126Y-79686168D01*
X166152407Y-79700152D01*
X166399385Y-79717816D01*
X166419999Y-79719291D01*
X166420000Y-79719291D01*
X166420001Y-79719291D01*
X166439140Y-79717922D01*
X166687593Y-79700152D01*
X166949739Y-79643126D01*
X167201101Y-79549373D01*
X167436562Y-79420801D01*
X167651329Y-79260029D01*
X167841029Y-79070329D01*
X168001801Y-78855562D01*
X168130373Y-78620101D01*
X168224126Y-78368739D01*
X168281152Y-78106593D01*
X168296316Y-77894577D01*
X168316000Y-77841800D01*
X168521910Y-77841800D01*
X168541166Y-77877065D01*
X168543684Y-77894577D01*
X168558848Y-78106594D01*
X168558849Y-78106601D01*
X168615872Y-78368734D01*
X168709627Y-78620102D01*
X168709629Y-78620106D01*
X168838195Y-78855556D01*
X168838200Y-78855564D01*
X168998964Y-79070321D01*
X168998980Y-79070339D01*
X169188660Y-79260019D01*
X169188678Y-79260035D01*
X169403435Y-79420799D01*
X169403443Y-79420804D01*
X169638893Y-79549370D01*
X169638897Y-79549372D01*
X169638899Y-79549373D01*
X169890261Y-79643126D01*
X169890264Y-79643126D01*
X169890265Y-79643127D01*
X170088126Y-79686168D01*
X170152407Y-79700152D01*
X170399385Y-79717816D01*
X170419999Y-79719291D01*
X170420000Y-79719291D01*
X170420001Y-79719291D01*
X170439140Y-79717922D01*
X170687593Y-79700152D01*
X170949739Y-79643126D01*
X171201101Y-79549373D01*
X171436562Y-79420801D01*
X171651329Y-79260029D01*
X171841029Y-79070329D01*
X172001801Y-78855562D01*
X172130373Y-78620101D01*
X172224126Y-78368739D01*
X172281152Y-78106593D01*
X172300291Y-77839001D01*
X175039709Y-77839001D01*
X175058848Y-78106594D01*
X175058849Y-78106601D01*
X175115872Y-78368734D01*
X175209627Y-78620102D01*
X175209629Y-78620106D01*
X175338195Y-78855556D01*
X175338200Y-78855564D01*
X175498964Y-79070321D01*
X175498980Y-79070339D01*
X175688660Y-79260019D01*
X175688678Y-79260035D01*
X175903435Y-79420799D01*
X175903443Y-79420804D01*
X176138893Y-79549370D01*
X176138897Y-79549372D01*
X176138899Y-79549373D01*
X176390261Y-79643126D01*
X176390264Y-79643126D01*
X176390265Y-79643127D01*
X176588126Y-79686168D01*
X176652407Y-79700152D01*
X176899385Y-79717816D01*
X176919999Y-79719291D01*
X176920000Y-79719291D01*
X176920001Y-79719291D01*
X176939140Y-79717922D01*
X177187593Y-79700152D01*
X177449739Y-79643126D01*
X177701101Y-79549373D01*
X177936562Y-79420801D01*
X178151329Y-79260029D01*
X178341029Y-79070329D01*
X178501801Y-78855562D01*
X178630373Y-78620101D01*
X178724126Y-78368739D01*
X178781152Y-78106593D01*
X178796316Y-77894577D01*
X178816000Y-77841800D01*
X179021910Y-77841800D01*
X179041166Y-77877065D01*
X179043684Y-77894577D01*
X179058848Y-78106594D01*
X179058849Y-78106601D01*
X179115872Y-78368734D01*
X179209627Y-78620102D01*
X179209629Y-78620106D01*
X179338195Y-78855556D01*
X179338200Y-78855564D01*
X179498964Y-79070321D01*
X179498980Y-79070339D01*
X179688660Y-79260019D01*
X179688678Y-79260035D01*
X179903435Y-79420799D01*
X179903443Y-79420804D01*
X180138893Y-79549370D01*
X180138897Y-79549372D01*
X180138899Y-79549373D01*
X180390261Y-79643126D01*
X180390264Y-79643126D01*
X180390265Y-79643127D01*
X180588126Y-79686168D01*
X180652407Y-79700152D01*
X180899385Y-79717816D01*
X180919999Y-79719291D01*
X180920000Y-79719291D01*
X180920001Y-79719291D01*
X180939140Y-79717922D01*
X181187593Y-79700152D01*
X181449739Y-79643126D01*
X181701101Y-79549373D01*
X181936562Y-79420801D01*
X182151329Y-79260029D01*
X182341029Y-79070329D01*
X182501801Y-78855562D01*
X182630373Y-78620101D01*
X182724126Y-78368739D01*
X182781152Y-78106593D01*
X182796316Y-77894577D01*
X182816000Y-77841800D01*
X183021910Y-77841800D01*
X183041166Y-77877065D01*
X183043684Y-77894577D01*
X183058848Y-78106594D01*
X183058849Y-78106601D01*
X183115872Y-78368734D01*
X183209627Y-78620102D01*
X183209629Y-78620106D01*
X183338195Y-78855556D01*
X183338200Y-78855564D01*
X183498964Y-79070321D01*
X183498980Y-79070339D01*
X183688660Y-79260019D01*
X183688678Y-79260035D01*
X183903435Y-79420799D01*
X183903443Y-79420804D01*
X184138893Y-79549370D01*
X184138897Y-79549372D01*
X184138899Y-79549373D01*
X184390261Y-79643126D01*
X184390264Y-79643126D01*
X184390265Y-79643127D01*
X184588126Y-79686168D01*
X184652407Y-79700152D01*
X184899385Y-79717816D01*
X184919999Y-79719291D01*
X184920000Y-79719291D01*
X184920001Y-79719291D01*
X184939140Y-79717922D01*
X185187593Y-79700152D01*
X185449739Y-79643126D01*
X185701101Y-79549373D01*
X185936562Y-79420801D01*
X186151329Y-79260029D01*
X186341029Y-79070329D01*
X186501801Y-78855562D01*
X186630373Y-78620101D01*
X186724126Y-78368739D01*
X186781152Y-78106593D01*
X186796816Y-77887577D01*
X186813630Y-77842495D01*
X187026610Y-77842495D01*
X187041666Y-77870067D01*
X187044500Y-77896425D01*
X187044501Y-78599829D01*
X187044501Y-78599830D01*
X187050850Y-78691327D01*
X187050852Y-78691342D01*
X187101256Y-78905645D01*
X187101261Y-78905660D01*
X187190185Y-79107054D01*
X187190189Y-79107062D01*
X187190190Y-79107063D01*
X187314615Y-79288702D01*
X187470298Y-79444385D01*
X187571194Y-79513500D01*
X187651937Y-79568810D01*
X187651945Y-79568814D01*
X187853339Y-79657738D01*
X187853346Y-79657741D01*
X187853352Y-79657742D01*
X187853354Y-79657743D01*
X188067656Y-79708147D01*
X188067661Y-79708147D01*
X188067667Y-79708149D01*
X188159167Y-79714500D01*
X188159168Y-79714499D01*
X188159169Y-79714500D01*
X188767833Y-79714499D01*
X189680832Y-79714499D01*
X189772333Y-79708149D01*
X189806339Y-79700151D01*
X189986645Y-79657743D01*
X189986643Y-79657743D01*
X189986654Y-79657741D01*
X190188063Y-79568810D01*
X190369702Y-79444385D01*
X190525385Y-79288702D01*
X190649810Y-79107063D01*
X190738741Y-78905654D01*
X190789149Y-78691333D01*
X190794586Y-78613000D01*
X205851540Y-78613000D01*
X205871326Y-78801256D01*
X205871327Y-78801259D01*
X205929818Y-78981277D01*
X205929821Y-78981284D01*
X206024467Y-79145216D01*
X206127851Y-79260035D01*
X206151129Y-79285888D01*
X206304265Y-79397148D01*
X206304270Y-79397151D01*
X206477192Y-79474142D01*
X206477197Y-79474144D01*
X206662354Y-79513500D01*
X206662355Y-79513500D01*
X206851644Y-79513500D01*
X206851646Y-79513500D01*
X207036803Y-79474144D01*
X207209730Y-79397151D01*
X207362871Y-79285888D01*
X207489533Y-79145216D01*
X207584179Y-78981284D01*
X207639069Y-78812351D01*
X207678506Y-78754675D01*
X207742865Y-78727477D01*
X207811711Y-78739392D01*
X207863187Y-78786636D01*
X207874931Y-78812351D01*
X207929818Y-78981277D01*
X207929821Y-78981284D01*
X208024467Y-79145216D01*
X208127851Y-79260035D01*
X208151129Y-79285888D01*
X208304265Y-79397148D01*
X208304270Y-79397151D01*
X208477192Y-79474142D01*
X208477197Y-79474144D01*
X208662354Y-79513500D01*
X208662355Y-79513500D01*
X208851644Y-79513500D01*
X208851646Y-79513500D01*
X209036803Y-79474144D01*
X209209730Y-79397151D01*
X209362871Y-79285888D01*
X209489533Y-79145216D01*
X209584179Y-78981284D01*
X209639069Y-78812351D01*
X209678506Y-78754675D01*
X209742865Y-78727477D01*
X209811711Y-78739392D01*
X209863187Y-78786636D01*
X209874931Y-78812351D01*
X209929818Y-78981277D01*
X209929821Y-78981284D01*
X210024467Y-79145216D01*
X210127851Y-79260035D01*
X210151129Y-79285888D01*
X210304265Y-79397148D01*
X210304270Y-79397151D01*
X210477192Y-79474142D01*
X210477197Y-79474144D01*
X210662354Y-79513500D01*
X210662355Y-79513500D01*
X210851644Y-79513500D01*
X210851646Y-79513500D01*
X211036803Y-79474144D01*
X211209730Y-79397151D01*
X211362871Y-79285888D01*
X211489533Y-79145216D01*
X211584179Y-78981284D01*
X211639069Y-78812351D01*
X211678506Y-78754675D01*
X211742865Y-78727477D01*
X211811711Y-78739392D01*
X211863187Y-78786636D01*
X211874931Y-78812351D01*
X211929818Y-78981277D01*
X211929821Y-78981284D01*
X212024467Y-79145216D01*
X212127851Y-79260035D01*
X212151129Y-79285888D01*
X212304265Y-79397148D01*
X212304270Y-79397151D01*
X212477192Y-79474142D01*
X212477197Y-79474144D01*
X212662354Y-79513500D01*
X212662355Y-79513500D01*
X212851644Y-79513500D01*
X212851646Y-79513500D01*
X213036803Y-79474144D01*
X213209730Y-79397151D01*
X213362871Y-79285888D01*
X213489533Y-79145216D01*
X213584179Y-78981284D01*
X213639069Y-78812351D01*
X213678506Y-78754675D01*
X213742865Y-78727477D01*
X213811711Y-78739392D01*
X213863187Y-78786636D01*
X213874931Y-78812351D01*
X213929818Y-78981277D01*
X213929821Y-78981284D01*
X214024467Y-79145216D01*
X214127851Y-79260035D01*
X214151129Y-79285888D01*
X214304265Y-79397148D01*
X214304270Y-79397151D01*
X214477192Y-79474142D01*
X214477197Y-79474144D01*
X214662354Y-79513500D01*
X214662355Y-79513500D01*
X214851644Y-79513500D01*
X214851646Y-79513500D01*
X215036803Y-79474144D01*
X215209730Y-79397151D01*
X215362871Y-79285888D01*
X215489533Y-79145216D01*
X215584179Y-78981284D01*
X215642674Y-78801256D01*
X215662460Y-78613000D01*
X215642674Y-78424744D01*
X215584179Y-78244716D01*
X215489533Y-78080784D01*
X215362871Y-77940112D01*
X215302741Y-77896425D01*
X215209734Y-77828851D01*
X215209729Y-77828848D01*
X215036807Y-77751857D01*
X215036802Y-77751855D01*
X214891001Y-77720865D01*
X214851646Y-77712500D01*
X214662354Y-77712500D01*
X214629897Y-77719398D01*
X214477197Y-77751855D01*
X214477192Y-77751857D01*
X214304270Y-77828848D01*
X214304265Y-77828851D01*
X214151129Y-77940111D01*
X214024466Y-78080785D01*
X213929821Y-78244715D01*
X213929818Y-78244722D01*
X213874931Y-78413648D01*
X213835493Y-78471324D01*
X213771135Y-78498522D01*
X213702288Y-78486607D01*
X213650813Y-78439363D01*
X213639069Y-78413648D01*
X213584181Y-78244722D01*
X213584180Y-78244721D01*
X213584179Y-78244716D01*
X213489533Y-78080784D01*
X213362871Y-77940112D01*
X213302741Y-77896425D01*
X213209734Y-77828851D01*
X213209729Y-77828848D01*
X213036807Y-77751857D01*
X213036802Y-77751855D01*
X212891001Y-77720865D01*
X212851646Y-77712500D01*
X212662354Y-77712500D01*
X212629897Y-77719398D01*
X212477197Y-77751855D01*
X212477192Y-77751857D01*
X212304270Y-77828848D01*
X212304265Y-77828851D01*
X212151129Y-77940111D01*
X212024466Y-78080785D01*
X211929821Y-78244715D01*
X211929818Y-78244722D01*
X211874931Y-78413648D01*
X211835493Y-78471324D01*
X211771135Y-78498522D01*
X211702288Y-78486607D01*
X211650813Y-78439363D01*
X211639069Y-78413648D01*
X211584181Y-78244722D01*
X211584180Y-78244721D01*
X211584179Y-78244716D01*
X211489533Y-78080784D01*
X211362871Y-77940112D01*
X211302741Y-77896425D01*
X211209734Y-77828851D01*
X211209729Y-77828848D01*
X211036807Y-77751857D01*
X211036802Y-77751855D01*
X210891001Y-77720865D01*
X210851646Y-77712500D01*
X210662354Y-77712500D01*
X210629897Y-77719398D01*
X210477197Y-77751855D01*
X210477192Y-77751857D01*
X210304270Y-77828848D01*
X210304265Y-77828851D01*
X210151129Y-77940111D01*
X210024466Y-78080785D01*
X209929821Y-78244715D01*
X209929818Y-78244722D01*
X209874931Y-78413648D01*
X209835493Y-78471324D01*
X209771135Y-78498522D01*
X209702288Y-78486607D01*
X209650813Y-78439363D01*
X209639069Y-78413648D01*
X209584181Y-78244722D01*
X209584180Y-78244721D01*
X209584179Y-78244716D01*
X209489533Y-78080784D01*
X209362871Y-77940112D01*
X209302741Y-77896425D01*
X209209734Y-77828851D01*
X209209729Y-77828848D01*
X209036807Y-77751857D01*
X209036802Y-77751855D01*
X208891001Y-77720865D01*
X208851646Y-77712500D01*
X208662354Y-77712500D01*
X208629897Y-77719398D01*
X208477197Y-77751855D01*
X208477192Y-77751857D01*
X208304270Y-77828848D01*
X208304265Y-77828851D01*
X208151129Y-77940111D01*
X208024466Y-78080785D01*
X207929821Y-78244715D01*
X207929818Y-78244722D01*
X207874931Y-78413648D01*
X207835493Y-78471324D01*
X207771135Y-78498522D01*
X207702288Y-78486607D01*
X207650813Y-78439363D01*
X207639069Y-78413648D01*
X207584181Y-78244722D01*
X207584180Y-78244721D01*
X207584179Y-78244716D01*
X207489533Y-78080784D01*
X207362871Y-77940112D01*
X207302741Y-77896425D01*
X207209734Y-77828851D01*
X207209729Y-77828848D01*
X207036807Y-77751857D01*
X207036802Y-77751855D01*
X206891001Y-77720865D01*
X206851646Y-77712500D01*
X206662354Y-77712500D01*
X206629897Y-77719398D01*
X206477197Y-77751855D01*
X206477192Y-77751857D01*
X206304270Y-77828848D01*
X206304265Y-77828851D01*
X206151129Y-77940111D01*
X206024466Y-78080785D01*
X205929821Y-78244715D01*
X205929818Y-78244722D01*
X205871327Y-78424740D01*
X205871326Y-78424744D01*
X205851540Y-78613000D01*
X190794586Y-78613000D01*
X190795500Y-78599833D01*
X190795499Y-77078168D01*
X190789149Y-76986667D01*
X190789146Y-76986656D01*
X190788844Y-76985370D01*
X208199500Y-76985370D01*
X208199501Y-76985376D01*
X208205908Y-77044983D01*
X208256202Y-77179828D01*
X208256206Y-77179835D01*
X208342452Y-77295044D01*
X208342455Y-77295047D01*
X208457664Y-77381293D01*
X208457671Y-77381297D01*
X208592517Y-77431591D01*
X208592516Y-77431591D01*
X208599444Y-77432335D01*
X208652127Y-77438000D01*
X212747872Y-77437999D01*
X212807483Y-77431591D01*
X212942331Y-77381296D01*
X213057546Y-77295046D01*
X213143796Y-77179831D01*
X213194091Y-77044983D01*
X213200500Y-76985373D01*
X213200500Y-76000000D01*
X213851540Y-76000000D01*
X213871326Y-76188256D01*
X213871327Y-76188259D01*
X213929818Y-76368277D01*
X213929821Y-76368284D01*
X214024467Y-76532216D01*
X214151129Y-76672888D01*
X214304265Y-76784148D01*
X214304270Y-76784151D01*
X214477192Y-76861142D01*
X214477197Y-76861144D01*
X214662354Y-76900500D01*
X214662355Y-76900500D01*
X214851644Y-76900500D01*
X214851646Y-76900500D01*
X215036803Y-76861144D01*
X215209730Y-76784151D01*
X215362871Y-76672888D01*
X215489533Y-76532216D01*
X215584179Y-76368284D01*
X215642674Y-76188256D01*
X215662460Y-76000000D01*
X215642674Y-75811744D01*
X215584179Y-75631716D01*
X215489533Y-75467784D01*
X215362871Y-75327112D01*
X215362870Y-75327111D01*
X215209734Y-75215851D01*
X215209729Y-75215848D01*
X215036807Y-75138857D01*
X215036802Y-75138855D01*
X214891001Y-75107865D01*
X214851646Y-75099500D01*
X214662354Y-75099500D01*
X214629897Y-75106398D01*
X214477197Y-75138855D01*
X214477192Y-75138857D01*
X214304270Y-75215848D01*
X214304265Y-75215851D01*
X214151129Y-75327111D01*
X214024466Y-75467785D01*
X213929821Y-75631715D01*
X213929818Y-75631722D01*
X213871327Y-75811740D01*
X213871326Y-75811744D01*
X213851540Y-76000000D01*
X213200500Y-76000000D01*
X213200499Y-74889628D01*
X213194091Y-74830017D01*
X213143796Y-74695169D01*
X213143795Y-74695168D01*
X213143793Y-74695164D01*
X213057547Y-74579955D01*
X213057544Y-74579952D01*
X212942335Y-74493706D01*
X212942328Y-74493702D01*
X212807482Y-74443408D01*
X212807483Y-74443408D01*
X212747883Y-74437001D01*
X212747881Y-74437000D01*
X212747873Y-74437000D01*
X212747864Y-74437000D01*
X208652129Y-74437000D01*
X208652123Y-74437001D01*
X208592516Y-74443408D01*
X208457671Y-74493702D01*
X208457664Y-74493706D01*
X208342455Y-74579952D01*
X208342452Y-74579955D01*
X208256206Y-74695164D01*
X208256202Y-74695171D01*
X208205908Y-74830017D01*
X208199501Y-74889616D01*
X208199501Y-74889623D01*
X208199500Y-74889635D01*
X208199500Y-76985370D01*
X190788844Y-76985370D01*
X190738743Y-76772354D01*
X190738742Y-76772352D01*
X190738741Y-76772346D01*
X190649810Y-76570937D01*
X190525385Y-76389298D01*
X190369702Y-76233615D01*
X190188063Y-76109190D01*
X190188064Y-76109190D01*
X190188062Y-76109189D01*
X190188054Y-76109185D01*
X189986660Y-76020261D01*
X189986645Y-76020256D01*
X189900523Y-76000000D01*
X205850540Y-76000000D01*
X205870326Y-76188256D01*
X205870327Y-76188259D01*
X205928818Y-76368277D01*
X205928821Y-76368284D01*
X206023467Y-76532216D01*
X206150129Y-76672888D01*
X206303265Y-76784148D01*
X206303270Y-76784151D01*
X206476192Y-76861142D01*
X206476197Y-76861144D01*
X206661354Y-76900500D01*
X206661355Y-76900500D01*
X206850644Y-76900500D01*
X206850646Y-76900500D01*
X207035803Y-76861144D01*
X207208730Y-76784151D01*
X207361871Y-76672888D01*
X207488533Y-76532216D01*
X207583179Y-76368284D01*
X207641674Y-76188256D01*
X207661460Y-76000000D01*
X207641674Y-75811744D01*
X207583179Y-75631716D01*
X207488533Y-75467784D01*
X207361871Y-75327112D01*
X207361870Y-75327111D01*
X207208734Y-75215851D01*
X207208729Y-75215848D01*
X207035807Y-75138857D01*
X207035802Y-75138855D01*
X206890001Y-75107865D01*
X206850646Y-75099500D01*
X206661354Y-75099500D01*
X206628897Y-75106398D01*
X206476197Y-75138855D01*
X206476192Y-75138857D01*
X206303270Y-75215848D01*
X206303265Y-75215851D01*
X206150129Y-75327111D01*
X206023466Y-75467785D01*
X205928821Y-75631715D01*
X205928818Y-75631722D01*
X205870327Y-75811740D01*
X205870326Y-75811744D01*
X205850540Y-76000000D01*
X189900523Y-76000000D01*
X189772343Y-75969852D01*
X189772328Y-75969850D01*
X189696873Y-75964613D01*
X189680833Y-75963500D01*
X189680831Y-75963500D01*
X189072167Y-75963500D01*
X188159168Y-75963501D01*
X188143131Y-75964613D01*
X188067672Y-75969850D01*
X188067657Y-75969852D01*
X187853354Y-76020256D01*
X187853339Y-76020261D01*
X187651945Y-76109185D01*
X187651937Y-76109189D01*
X187470299Y-76233614D01*
X187470293Y-76233619D01*
X187314619Y-76389293D01*
X187314614Y-76389299D01*
X187190189Y-76570937D01*
X187190185Y-76570945D01*
X187101261Y-76772339D01*
X187101256Y-76772354D01*
X187050852Y-76986656D01*
X187050850Y-76986671D01*
X187044500Y-77078169D01*
X187044500Y-77781573D01*
X187026610Y-77842495D01*
X186813630Y-77842495D01*
X186815317Y-77837973D01*
X186801523Y-77816508D01*
X186796816Y-77790419D01*
X186796316Y-77783422D01*
X186781152Y-77571407D01*
X186739796Y-77381293D01*
X186724127Y-77309265D01*
X186705959Y-77260555D01*
X186630373Y-77057899D01*
X186623320Y-77044983D01*
X186501804Y-76822443D01*
X186501799Y-76822435D01*
X186341035Y-76607678D01*
X186341019Y-76607660D01*
X186151339Y-76417980D01*
X186151321Y-76417964D01*
X185936564Y-76257200D01*
X185936556Y-76257195D01*
X185701106Y-76128629D01*
X185701102Y-76128627D01*
X185449734Y-76034872D01*
X185187601Y-75977849D01*
X185187594Y-75977848D01*
X184920001Y-75958709D01*
X184919999Y-75958709D01*
X184652405Y-75977848D01*
X184652398Y-75977849D01*
X184390265Y-76034872D01*
X184138897Y-76128627D01*
X184138893Y-76128629D01*
X183903443Y-76257195D01*
X183903435Y-76257200D01*
X183688678Y-76417964D01*
X183688660Y-76417980D01*
X183498980Y-76607660D01*
X183498964Y-76607678D01*
X183338200Y-76822435D01*
X183338195Y-76822443D01*
X183209629Y-77057893D01*
X183209627Y-77057897D01*
X183115872Y-77309265D01*
X183058849Y-77571398D01*
X183058848Y-77571405D01*
X183043684Y-77783422D01*
X183021910Y-77841800D01*
X182816000Y-77841800D01*
X182818089Y-77836198D01*
X182798834Y-77800934D01*
X182796316Y-77783422D01*
X182791243Y-77712500D01*
X182781152Y-77571407D01*
X182739796Y-77381293D01*
X182724127Y-77309265D01*
X182705959Y-77260555D01*
X182630373Y-77057899D01*
X182623320Y-77044983D01*
X182501804Y-76822443D01*
X182501799Y-76822435D01*
X182341035Y-76607678D01*
X182341019Y-76607660D01*
X182151339Y-76417980D01*
X182151321Y-76417964D01*
X181936564Y-76257200D01*
X181936556Y-76257195D01*
X181701106Y-76128629D01*
X181701102Y-76128627D01*
X181449734Y-76034872D01*
X181187601Y-75977849D01*
X181187594Y-75977848D01*
X180920001Y-75958709D01*
X180919999Y-75958709D01*
X180652405Y-75977848D01*
X180652398Y-75977849D01*
X180390265Y-76034872D01*
X180138897Y-76128627D01*
X180138893Y-76128629D01*
X179903443Y-76257195D01*
X179903435Y-76257200D01*
X179688678Y-76417964D01*
X179688660Y-76417980D01*
X179498980Y-76607660D01*
X179498964Y-76607678D01*
X179338200Y-76822435D01*
X179338195Y-76822443D01*
X179209629Y-77057893D01*
X179209627Y-77057897D01*
X179115872Y-77309265D01*
X179058849Y-77571398D01*
X179058848Y-77571405D01*
X179043684Y-77783422D01*
X179021910Y-77841800D01*
X178816000Y-77841800D01*
X178818089Y-77836198D01*
X178798834Y-77800934D01*
X178796316Y-77783422D01*
X178791243Y-77712500D01*
X178781152Y-77571407D01*
X178739796Y-77381293D01*
X178724127Y-77309265D01*
X178705959Y-77260555D01*
X178630373Y-77057899D01*
X178623320Y-77044983D01*
X178501804Y-76822443D01*
X178501799Y-76822435D01*
X178341035Y-76607678D01*
X178341019Y-76607660D01*
X178151339Y-76417980D01*
X178151321Y-76417964D01*
X177936564Y-76257200D01*
X177936556Y-76257195D01*
X177701106Y-76128629D01*
X177701102Y-76128627D01*
X177449734Y-76034872D01*
X177187601Y-75977849D01*
X177187594Y-75977848D01*
X176920001Y-75958709D01*
X176919999Y-75958709D01*
X176652405Y-75977848D01*
X176652398Y-75977849D01*
X176390265Y-76034872D01*
X176138897Y-76128627D01*
X176138893Y-76128629D01*
X175903443Y-76257195D01*
X175903435Y-76257200D01*
X175688678Y-76417964D01*
X175688660Y-76417980D01*
X175498980Y-76607660D01*
X175498964Y-76607678D01*
X175338200Y-76822435D01*
X175338195Y-76822443D01*
X175209629Y-77057893D01*
X175209627Y-77057897D01*
X175115872Y-77309265D01*
X175058849Y-77571398D01*
X175058848Y-77571405D01*
X175039709Y-77838998D01*
X175039709Y-77839001D01*
X172300291Y-77839001D01*
X172300291Y-77839000D01*
X172281152Y-77571407D01*
X172239796Y-77381293D01*
X172224127Y-77309265D01*
X172205959Y-77260555D01*
X172130373Y-77057899D01*
X172123320Y-77044983D01*
X172001804Y-76822443D01*
X172001799Y-76822435D01*
X171841035Y-76607678D01*
X171841019Y-76607660D01*
X171651339Y-76417980D01*
X171651321Y-76417964D01*
X171436564Y-76257200D01*
X171436556Y-76257195D01*
X171201106Y-76128629D01*
X171201102Y-76128627D01*
X170949734Y-76034872D01*
X170687601Y-75977849D01*
X170687594Y-75977848D01*
X170420001Y-75958709D01*
X170419999Y-75958709D01*
X170152405Y-75977848D01*
X170152398Y-75977849D01*
X169890265Y-76034872D01*
X169638897Y-76128627D01*
X169638893Y-76128629D01*
X169403443Y-76257195D01*
X169403435Y-76257200D01*
X169188678Y-76417964D01*
X169188660Y-76417980D01*
X168998980Y-76607660D01*
X168998964Y-76607678D01*
X168838200Y-76822435D01*
X168838195Y-76822443D01*
X168709629Y-77057893D01*
X168709627Y-77057897D01*
X168615872Y-77309265D01*
X168558849Y-77571398D01*
X168558848Y-77571405D01*
X168543684Y-77783422D01*
X168521910Y-77841800D01*
X168316000Y-77841800D01*
X168318089Y-77836198D01*
X168298834Y-77800934D01*
X168296316Y-77783422D01*
X168291243Y-77712500D01*
X168281152Y-77571407D01*
X168239796Y-77381293D01*
X168224127Y-77309265D01*
X168205959Y-77260555D01*
X168130373Y-77057899D01*
X168123320Y-77044983D01*
X168001804Y-76822443D01*
X168001799Y-76822435D01*
X167841035Y-76607678D01*
X167841019Y-76607660D01*
X167651339Y-76417980D01*
X167651321Y-76417964D01*
X167436564Y-76257200D01*
X167436556Y-76257195D01*
X167201106Y-76128629D01*
X167201102Y-76128627D01*
X166949734Y-76034872D01*
X166687601Y-75977849D01*
X166687594Y-75977848D01*
X166420001Y-75958709D01*
X166419999Y-75958709D01*
X166152405Y-75977848D01*
X166152398Y-75977849D01*
X165890265Y-76034872D01*
X165638897Y-76128627D01*
X165638893Y-76128629D01*
X165403443Y-76257195D01*
X165403435Y-76257200D01*
X165188678Y-76417964D01*
X165188660Y-76417980D01*
X164998980Y-76607660D01*
X164998964Y-76607678D01*
X164838200Y-76822435D01*
X164838195Y-76822443D01*
X164709629Y-77057893D01*
X164709627Y-77057897D01*
X164615872Y-77309265D01*
X164558849Y-77571398D01*
X164558848Y-77571405D01*
X164543432Y-77786932D01*
X164523213Y-77841139D01*
X164314686Y-77841139D01*
X164316282Y-77836859D01*
X164298582Y-77804442D01*
X164296064Y-77786931D01*
X164280654Y-77571476D01*
X164280653Y-77571469D01*
X164223645Y-77309406D01*
X164129915Y-77058105D01*
X164129913Y-77058101D01*
X164001382Y-76822714D01*
X164001377Y-76822706D01*
X163910818Y-76701734D01*
X163910817Y-76701733D01*
X163097195Y-77515356D01*
X163073941Y-77461447D01*
X162969244Y-77320815D01*
X162834938Y-77208118D01*
X162743334Y-77162113D01*
X163557265Y-76348181D01*
X163557264Y-76348180D01*
X163436293Y-76257622D01*
X163436285Y-76257617D01*
X163200898Y-76129086D01*
X163200894Y-76129084D01*
X162949593Y-76035354D01*
X162687530Y-75978346D01*
X162687523Y-75978345D01*
X162420001Y-75959211D01*
X162419999Y-75959211D01*
X162152476Y-75978345D01*
X162152469Y-75978346D01*
X161890406Y-76035354D01*
X161639105Y-76129084D01*
X161639101Y-76129086D01*
X161403714Y-76257617D01*
X161403706Y-76257622D01*
X161282733Y-76348180D01*
X162094054Y-77159501D01*
X162081109Y-77164213D01*
X161934627Y-77260555D01*
X161814312Y-77388082D01*
X161741552Y-77514105D01*
X160929180Y-76701733D01*
X160838622Y-76822706D01*
X160838617Y-76822714D01*
X160710086Y-77058101D01*
X160710084Y-77058105D01*
X160616354Y-77309406D01*
X160559346Y-77571469D01*
X160559345Y-77571476D01*
X160540211Y-77838998D01*
X160540211Y-77839001D01*
X139300500Y-77839001D01*
X139300500Y-73660000D01*
X219974659Y-73660000D01*
X219993975Y-73856129D01*
X219993976Y-73856132D01*
X220048649Y-74036365D01*
X220051188Y-74044733D01*
X220144086Y-74218532D01*
X220144090Y-74218539D01*
X220269116Y-74370883D01*
X220421460Y-74495909D01*
X220421467Y-74495913D01*
X220595266Y-74588811D01*
X220595269Y-74588811D01*
X220595273Y-74588814D01*
X220783868Y-74646024D01*
X220980000Y-74665341D01*
X221176132Y-74646024D01*
X221364727Y-74588814D01*
X221538538Y-74495910D01*
X221690883Y-74370883D01*
X221815910Y-74218538D01*
X221833811Y-74185047D01*
X221886642Y-74086209D01*
X221935604Y-74036365D01*
X222003742Y-74020904D01*
X222069421Y-74044736D01*
X222105358Y-74086209D01*
X222176086Y-74218532D01*
X222176090Y-74218539D01*
X222301116Y-74370883D01*
X222453460Y-74495909D01*
X222453467Y-74495913D01*
X222627266Y-74588811D01*
X222627269Y-74588811D01*
X222627273Y-74588814D01*
X222815868Y-74646024D01*
X223012000Y-74665341D01*
X223208132Y-74646024D01*
X223396727Y-74588814D01*
X223570538Y-74495910D01*
X223722883Y-74370883D01*
X223847910Y-74218538D01*
X223865811Y-74185047D01*
X223918642Y-74086209D01*
X223967604Y-74036365D01*
X224035742Y-74020904D01*
X224101421Y-74044736D01*
X224137358Y-74086209D01*
X224208086Y-74218532D01*
X224208090Y-74218539D01*
X224333116Y-74370883D01*
X224485460Y-74495909D01*
X224485467Y-74495913D01*
X224659266Y-74588811D01*
X224659269Y-74588811D01*
X224659273Y-74588814D01*
X224847868Y-74646024D01*
X225044000Y-74665341D01*
X225240132Y-74646024D01*
X225428727Y-74588814D01*
X225602538Y-74495910D01*
X225754883Y-74370883D01*
X225879910Y-74218538D01*
X225972814Y-74044727D01*
X226030024Y-73856132D01*
X226049341Y-73660000D01*
X226030024Y-73463868D01*
X225972814Y-73275273D01*
X225972811Y-73275269D01*
X225972811Y-73275266D01*
X225879913Y-73101467D01*
X225879909Y-73101460D01*
X225754883Y-72949116D01*
X225602539Y-72824090D01*
X225602532Y-72824086D01*
X225428733Y-72731188D01*
X225428727Y-72731186D01*
X225240132Y-72673976D01*
X225240129Y-72673975D01*
X225044000Y-72654659D01*
X224847870Y-72673975D01*
X224659266Y-72731188D01*
X224485467Y-72824086D01*
X224485460Y-72824090D01*
X224333116Y-72949116D01*
X224208090Y-73101460D01*
X224208085Y-73101467D01*
X224137358Y-73233790D01*
X224088396Y-73283635D01*
X224020258Y-73299095D01*
X223954578Y-73275263D01*
X223918642Y-73233790D01*
X223847914Y-73101467D01*
X223847909Y-73101460D01*
X223722883Y-72949116D01*
X223570539Y-72824090D01*
X223570532Y-72824086D01*
X223396733Y-72731188D01*
X223396727Y-72731186D01*
X223208132Y-72673976D01*
X223208129Y-72673975D01*
X223012000Y-72654659D01*
X222815870Y-72673975D01*
X222627266Y-72731188D01*
X222453467Y-72824086D01*
X222453460Y-72824090D01*
X222301116Y-72949116D01*
X222176090Y-73101460D01*
X222176085Y-73101467D01*
X222105358Y-73233790D01*
X222056396Y-73283635D01*
X221988258Y-73299095D01*
X221922578Y-73275263D01*
X221886642Y-73233790D01*
X221815914Y-73101467D01*
X221815909Y-73101460D01*
X221690883Y-72949116D01*
X221538539Y-72824090D01*
X221538532Y-72824086D01*
X221364733Y-72731188D01*
X221364727Y-72731186D01*
X221176132Y-72673976D01*
X221176129Y-72673975D01*
X220980000Y-72654659D01*
X220783870Y-72673975D01*
X220595266Y-72731188D01*
X220421467Y-72824086D01*
X220421460Y-72824090D01*
X220269116Y-72949116D01*
X220144090Y-73101460D01*
X220144086Y-73101467D01*
X220051188Y-73275266D01*
X219993975Y-73463870D01*
X219974659Y-73660000D01*
X139300500Y-73660000D01*
X139300500Y-68067763D01*
X141145787Y-68067763D01*
X141175413Y-68337013D01*
X141175415Y-68337024D01*
X141221660Y-68513912D01*
X141243928Y-68599088D01*
X141349870Y-68848390D01*
X141392409Y-68918092D01*
X141490979Y-69079605D01*
X141490986Y-69079615D01*
X141664253Y-69287819D01*
X141664259Y-69287824D01*
X141714563Y-69332896D01*
X141865998Y-69468582D01*
X142091910Y-69618044D01*
X142337176Y-69733020D01*
X142337183Y-69733022D01*
X142337185Y-69733023D01*
X142596557Y-69811057D01*
X142596564Y-69811058D01*
X142596569Y-69811060D01*
X142864561Y-69850500D01*
X142864566Y-69850500D01*
X143067636Y-69850500D01*
X143119133Y-69846730D01*
X143270156Y-69835677D01*
X143382758Y-69810593D01*
X143534546Y-69776782D01*
X143534548Y-69776781D01*
X143534553Y-69776780D01*
X143787558Y-69680014D01*
X143930902Y-69599565D01*
X204699500Y-69599565D01*
X204714890Y-69785313D01*
X204714892Y-69785324D01*
X204775936Y-70026381D01*
X204875826Y-70254106D01*
X205011833Y-70462282D01*
X205011836Y-70462285D01*
X205180256Y-70645238D01*
X205376491Y-70797974D01*
X205595190Y-70916328D01*
X205830386Y-70997071D01*
X206075665Y-71038000D01*
X206324335Y-71038000D01*
X206569614Y-70997071D01*
X206804810Y-70916328D01*
X207023509Y-70797974D01*
X207219744Y-70645238D01*
X207388164Y-70462285D01*
X207524173Y-70254107D01*
X207624063Y-70026381D01*
X207685108Y-69785321D01*
X207693214Y-69687499D01*
X208520976Y-69687499D01*
X208520978Y-69687500D01*
X209616314Y-69687500D01*
X209590507Y-69727656D01*
X209550000Y-69865611D01*
X209550000Y-70009389D01*
X209590507Y-70147344D01*
X209616314Y-70187500D01*
X208520977Y-70187500D01*
X208540916Y-70306992D01*
X208621630Y-70542103D01*
X208621635Y-70542114D01*
X208739942Y-70760728D01*
X208739948Y-70760737D01*
X208892626Y-70956897D01*
X208892635Y-70956907D01*
X209075522Y-71125267D01*
X209075521Y-71125267D01*
X209283632Y-71261232D01*
X209511282Y-71361087D01*
X209752261Y-71422112D01*
X209752269Y-71422114D01*
X209937959Y-71437500D01*
X210450000Y-71437500D01*
X210450000Y-70437500D01*
X210950000Y-70437500D01*
X210950000Y-71437500D01*
X211462041Y-71437500D01*
X211647730Y-71422114D01*
X211647738Y-71422112D01*
X211888717Y-71361087D01*
X212116367Y-71261232D01*
X212324478Y-71125267D01*
X212507364Y-70956907D01*
X212507373Y-70956897D01*
X212660051Y-70760737D01*
X212660057Y-70760728D01*
X212778364Y-70542114D01*
X212778369Y-70542103D01*
X212859083Y-70306992D01*
X212879023Y-70187500D01*
X211783686Y-70187500D01*
X211809493Y-70147344D01*
X211850000Y-70009389D01*
X211850000Y-69865611D01*
X211809493Y-69727656D01*
X211783686Y-69687500D01*
X212879022Y-69687500D01*
X212879023Y-69687499D01*
X212864349Y-69599565D01*
X213699500Y-69599565D01*
X213714890Y-69785313D01*
X213714892Y-69785324D01*
X213775936Y-70026381D01*
X213875826Y-70254106D01*
X214011833Y-70462282D01*
X214011836Y-70462285D01*
X214180256Y-70645238D01*
X214376491Y-70797974D01*
X214595190Y-70916328D01*
X214830386Y-70997071D01*
X215075665Y-71038000D01*
X215324335Y-71038000D01*
X215569614Y-70997071D01*
X215804810Y-70916328D01*
X216023509Y-70797974D01*
X216219744Y-70645238D01*
X216388164Y-70462285D01*
X216524173Y-70254107D01*
X216624063Y-70026381D01*
X216685108Y-69785321D01*
X216700500Y-69599567D01*
X216700500Y-68175433D01*
X216696145Y-68122876D01*
X216691578Y-68067763D01*
X231145787Y-68067763D01*
X231175413Y-68337013D01*
X231175415Y-68337024D01*
X231221660Y-68513912D01*
X231243928Y-68599088D01*
X231349870Y-68848390D01*
X231392409Y-68918092D01*
X231490979Y-69079605D01*
X231490986Y-69079615D01*
X231664253Y-69287819D01*
X231664259Y-69287824D01*
X231714563Y-69332896D01*
X231865998Y-69468582D01*
X232091910Y-69618044D01*
X232337176Y-69733020D01*
X232337183Y-69733022D01*
X232337185Y-69733023D01*
X232596557Y-69811057D01*
X232596564Y-69811058D01*
X232596569Y-69811060D01*
X232864561Y-69850500D01*
X232864566Y-69850500D01*
X233067636Y-69850500D01*
X233119133Y-69846730D01*
X233270156Y-69835677D01*
X233382758Y-69810593D01*
X233534546Y-69776782D01*
X233534548Y-69776781D01*
X233534553Y-69776780D01*
X233787558Y-69680014D01*
X234023777Y-69547441D01*
X234238177Y-69381888D01*
X234426186Y-69186881D01*
X234583799Y-68966579D01*
X234657787Y-68822669D01*
X234707649Y-68725690D01*
X234707651Y-68725684D01*
X234707656Y-68725675D01*
X234795118Y-68469305D01*
X234844319Y-68202933D01*
X234854212Y-67932235D01*
X234824586Y-67662982D01*
X234756072Y-67400912D01*
X234650130Y-67151610D01*
X234509018Y-66920390D01*
X234419747Y-66813119D01*
X234335746Y-66712180D01*
X234335740Y-66712175D01*
X234134002Y-66531418D01*
X233908092Y-66381957D01*
X233908090Y-66381956D01*
X233662824Y-66266980D01*
X233662819Y-66266978D01*
X233662814Y-66266976D01*
X233403442Y-66188942D01*
X233403428Y-66188939D01*
X233287791Y-66171921D01*
X233135439Y-66149500D01*
X232932369Y-66149500D01*
X232932364Y-66149500D01*
X232729844Y-66164323D01*
X232729831Y-66164325D01*
X232465453Y-66223217D01*
X232465446Y-66223220D01*
X232212439Y-66319987D01*
X231976226Y-66452557D01*
X231761822Y-66618112D01*
X231573822Y-66813109D01*
X231573816Y-66813116D01*
X231416202Y-67033419D01*
X231416199Y-67033424D01*
X231292350Y-67274309D01*
X231292343Y-67274327D01*
X231204884Y-67530685D01*
X231204881Y-67530699D01*
X231155681Y-67797068D01*
X231155680Y-67797075D01*
X231145787Y-68067763D01*
X216691578Y-68067763D01*
X216685109Y-67989686D01*
X216685107Y-67989675D01*
X216624063Y-67748618D01*
X216524173Y-67520893D01*
X216388166Y-67312717D01*
X216352825Y-67274327D01*
X216219744Y-67129762D01*
X216023509Y-66977026D01*
X216023507Y-66977025D01*
X216023506Y-66977024D01*
X215804811Y-66858672D01*
X215804802Y-66858669D01*
X215569616Y-66777929D01*
X215324335Y-66737000D01*
X215075665Y-66737000D01*
X214830383Y-66777929D01*
X214595197Y-66858669D01*
X214595188Y-66858672D01*
X214376493Y-66977024D01*
X214180257Y-67129761D01*
X214011833Y-67312717D01*
X213875826Y-67520893D01*
X213775936Y-67748618D01*
X213714892Y-67989675D01*
X213714890Y-67989686D01*
X213699500Y-68175435D01*
X213699500Y-69599565D01*
X212864349Y-69599565D01*
X212859083Y-69568007D01*
X212778369Y-69332896D01*
X212778364Y-69332885D01*
X212660057Y-69114271D01*
X212660051Y-69114262D01*
X212507373Y-68918102D01*
X212507364Y-68918092D01*
X212324477Y-68749732D01*
X212324478Y-68749732D01*
X212116367Y-68613767D01*
X211888717Y-68513912D01*
X211647738Y-68452887D01*
X211647730Y-68452885D01*
X211462041Y-68437500D01*
X210950000Y-68437500D01*
X210950000Y-69437500D01*
X210450000Y-69437500D01*
X210450000Y-68437500D01*
X209937959Y-68437500D01*
X209752269Y-68452885D01*
X209752261Y-68452887D01*
X209511282Y-68513912D01*
X209283632Y-68613767D01*
X209075521Y-68749732D01*
X208892635Y-68918092D01*
X208892626Y-68918102D01*
X208739948Y-69114262D01*
X208739942Y-69114271D01*
X208621635Y-69332885D01*
X208621630Y-69332896D01*
X208540916Y-69568007D01*
X208520976Y-69687499D01*
X207693214Y-69687499D01*
X207700500Y-69599567D01*
X207700500Y-68175433D01*
X207696145Y-68122876D01*
X207685109Y-67989686D01*
X207685107Y-67989675D01*
X207624063Y-67748618D01*
X207524173Y-67520893D01*
X207388166Y-67312717D01*
X207352825Y-67274327D01*
X207219744Y-67129762D01*
X207023509Y-66977026D01*
X207023507Y-66977025D01*
X207023506Y-66977024D01*
X206950472Y-66937500D01*
X209644417Y-66937500D01*
X209664699Y-67143432D01*
X209664700Y-67143434D01*
X209724768Y-67341454D01*
X209822315Y-67523950D01*
X209827854Y-67530699D01*
X209953589Y-67683910D01*
X210050209Y-67763202D01*
X210113550Y-67815185D01*
X210296046Y-67912732D01*
X210494066Y-67972800D01*
X210494065Y-67972800D01*
X210532647Y-67976600D01*
X210648392Y-67988000D01*
X210648395Y-67988000D01*
X210751605Y-67988000D01*
X210751608Y-67988000D01*
X210905934Y-67972800D01*
X211103954Y-67912732D01*
X211286450Y-67815185D01*
X211446410Y-67683910D01*
X211577685Y-67523950D01*
X211675232Y-67341454D01*
X211735300Y-67143434D01*
X211755583Y-66937500D01*
X211735300Y-66731566D01*
X211675232Y-66533546D01*
X211577685Y-66351050D01*
X211508688Y-66266976D01*
X211446410Y-66191089D01*
X211286452Y-66059817D01*
X211286453Y-66059817D01*
X211286450Y-66059815D01*
X211103954Y-65962268D01*
X210905934Y-65902200D01*
X210905932Y-65902199D01*
X210905934Y-65902199D01*
X210786805Y-65890466D01*
X210751608Y-65887000D01*
X210648392Y-65887000D01*
X210610298Y-65890751D01*
X210494067Y-65902199D01*
X210296043Y-65962269D01*
X210185898Y-66021143D01*
X210113550Y-66059815D01*
X210113548Y-66059816D01*
X210113547Y-66059817D01*
X209953589Y-66191089D01*
X209822317Y-66351047D01*
X209724769Y-66533543D01*
X209664699Y-66731567D01*
X209644417Y-66937500D01*
X206950472Y-66937500D01*
X206804811Y-66858672D01*
X206804802Y-66858669D01*
X206569616Y-66777929D01*
X206324335Y-66737000D01*
X206075665Y-66737000D01*
X205830383Y-66777929D01*
X205595197Y-66858669D01*
X205595188Y-66858672D01*
X205376493Y-66977024D01*
X205180257Y-67129761D01*
X205011833Y-67312717D01*
X204875826Y-67520893D01*
X204775936Y-67748618D01*
X204714892Y-67989675D01*
X204714890Y-67989686D01*
X204699500Y-68175435D01*
X204699500Y-69599565D01*
X143930902Y-69599565D01*
X144023777Y-69547441D01*
X144238177Y-69381888D01*
X144426186Y-69186881D01*
X144583799Y-68966579D01*
X144657787Y-68822669D01*
X144707649Y-68725690D01*
X144707651Y-68725684D01*
X144707656Y-68725675D01*
X144795118Y-68469305D01*
X144844319Y-68202933D01*
X144854212Y-67932235D01*
X144824586Y-67662982D01*
X144756072Y-67400912D01*
X144650130Y-67151610D01*
X144509018Y-66920390D01*
X144419747Y-66813119D01*
X144335746Y-66712180D01*
X144335740Y-66712175D01*
X144134002Y-66531418D01*
X143908092Y-66381957D01*
X143908090Y-66381956D01*
X143662824Y-66266980D01*
X143662819Y-66266978D01*
X143662814Y-66266976D01*
X143403442Y-66188942D01*
X143403428Y-66188939D01*
X143287791Y-66171921D01*
X143135439Y-66149500D01*
X142932369Y-66149500D01*
X142932364Y-66149500D01*
X142729844Y-66164323D01*
X142729831Y-66164325D01*
X142465453Y-66223217D01*
X142465446Y-66223220D01*
X142212439Y-66319987D01*
X141976226Y-66452557D01*
X141761822Y-66618112D01*
X141573822Y-66813109D01*
X141573816Y-66813116D01*
X141416202Y-67033419D01*
X141416199Y-67033424D01*
X141292350Y-67274309D01*
X141292343Y-67274327D01*
X141204884Y-67530685D01*
X141204881Y-67530699D01*
X141155681Y-67797068D01*
X141155680Y-67797075D01*
X141145787Y-68067763D01*
X139300500Y-68067763D01*
X139300500Y-67001741D01*
X139300598Y-66998264D01*
X139310995Y-66813116D01*
X139317279Y-66701217D01*
X139318055Y-66694331D01*
X139367598Y-66402741D01*
X139369146Y-66395958D01*
X139428168Y-66191089D01*
X139451024Y-66111751D01*
X139453322Y-66105190D01*
X139481123Y-66038070D01*
X139566508Y-65831932D01*
X139569511Y-65825697D01*
X139712584Y-65566824D01*
X139716280Y-65560943D01*
X139887433Y-65319725D01*
X139891761Y-65314298D01*
X140088845Y-65093760D01*
X140093763Y-65088843D01*
X140314298Y-64891761D01*
X140319725Y-64887433D01*
X140560943Y-64716280D01*
X140566824Y-64712584D01*
X140825697Y-64569511D01*
X140831932Y-64566508D01*
X141038070Y-64481123D01*
X141105190Y-64453322D01*
X141111751Y-64451024D01*
X141395962Y-64369145D01*
X141402742Y-64367598D01*
X141694331Y-64318055D01*
X141701217Y-64317279D01*
X141863442Y-64308168D01*
X141998265Y-64300598D01*
X142001742Y-64300500D01*
X142047595Y-64300500D01*
X233952405Y-64300500D01*
X233998258Y-64300500D01*
X234001735Y-64300598D01*
G37*
%TD.AperFunction*%
%TD*%
M02*
